<svg xmlns="http://www.w3.org/2000/svg" width="286.755" height="111.92" viewBox="0 0 286.755 111.92"><g fill="#231815"><path d="M20.253 19.728c-.048 1.704-.24 4.728-.36 5.616-.336 2.616-.624 3.24-1.512 4.32-.743.912-1.223.744-1.295.023-.048-.432-.816-1.752-1.152-2.16-.336-.432-.192-.624.336-.336 1.392.817 1.68.745 2.135-1.247.504-2.16.6-6.072.552-8.064-.024-1.13-.168-1.25-.984-1.153-.528.072-1.944.336-2.785.553 1.32.792 1.344.912 1.104 1.536-.096.264-.192.575-.264 1.104.864-.19 1.344-.168 1.584-.048.576.288.48.624-.384.792-.504.072-.888.145-1.368.264-.096.816-.216 1.56-.408 2.448 1.608-.336 1.872-.312 2.256-.216.576.145.672.624-.36.72-.432.05-1.176.17-2.064.385-.72 3.145-2.064 5.017-4.73 6.744-.407.264-.575.023-.143-.385 1.874-1.824 3.24-4.248 3.697-6.097-.408.12-.864.24-1.296.36-.84.264-1.32.216-1.823-.288-.552-.528-.48-.96.648-.744.432.096 1.368.024 2.665-.24.192-.912.36-1.752.456-2.448-1.44.288-1.873.312-2.256.168-.792-.288-.648-.48.168-.6.576-.072 1.272-.24 2.208-.528.12-1.272.072-2.184-.192-2.81-.984.218-1.248.17-1.992-.215-.36-.19-.336-.432.216-.456 1.104-.048 4.656-.552 5.376-.912.624-.312.984-.408 1.632-.048 1.32.744 1.32.984.816 1.536-.238.24-.43 1.2-.48 2.425zm7.8 9.288c-.695-.768-1.68-1.656-2.64-2.184-.575-.312-.43-.504.073-.385 2.76.673 3 .288 2.52-1.296-.263-.887-1.44-2.375-2.687-3.095-.65-.36-.65-.553-.265-1.2.312-.553 1.2-2.28 1.536-3.192.265-.624.05-.792-.383-.672-1.08.29-1.872.433-2.592.457.12 4.2.168 8.496.168 12.36 0 2.185-.384 4.585-.624 5.257-.36.96-.673.937-.72 0-.05-1.08 0-2.76.047-4.345.12-3.41.048-7.297-.024-10.514-.048-1.656-.192-2.448-.384-2.736-.6-.815-.48-1.176 1.007-.576 1.248-.12 2.736-.6 3.096-.863.768-.552 1.08-.695 1.968-.144 1.37.77 1.393 1.008.65 1.512-.673.505-1.633 1.465-3.265 3.648-.312.433-.264.504.144.648 3.91 1.464 4.775 4.68 3.48 7.104-.386.674-.674.7-1.106.218zM54.5 25.392c-1.895.696-4.75 1.8-5.207 2.064-.936.552-1.08.552-1.896-.168-.744-.648-.648-1.08.624-.937.24.025.985-.143 1.945-.383-.096-3.36-.312-4.44-.648-4.992-.672-1.08-.432-1.368.768-.792.984.504 1.032.695.792 1.536-.048.143-.048 1.007 0 4.007.672-.168 1.368-.36 2.04-.576 0-6.815-.095-7.32-.55-8.04-.745-1.176-.337-1.416.91-.72 1.153.648 1.273.864.865 2.064-.096.24-.192 1.128-.216 1.92 1.536-.744 1.92-.84 2.448-.624.504.192.576.528-.144.84-.696.312-1.536.456-2.304.408v3.84c2.136-.768 2.977-.84 3.072-.647.072.146-.048.266-2.497 1.202zm8.114 6.913c-1.2-.192-3.528-.217-6.24.048-1.705.19-3.193.384-4.393.624-1.416.288-1.63.264-2.59-.24-.913-.48-.89-.84.383-.744.576.048 3.29-.144 4.68-.312 1.513-.167 4.13-.478 5.377-.742 1.944-.456 2.688-.36 3.792.287 1.176.72.936 1.416-1.008 1.08zm-3.48-3.72c-.672.143-1.608.31-2.424.455-1.896.336-3.36.312-3.936-.048-.528-.312-.504-.48.312-.528.6-.048 2.544-.408 3.264-.552 2.064-.48 2.424-.456 2.952-.168.456.24.384.72-.168.84zm5.28-2.16c-1.055.287-2.928.335-4.27.095-2.042-.336-2.473-1.944-2.425-4.128.095-4.56.023-6.553-.17-6.913-.67-1.272-.383-1.513.77-.913 1.295.672 1.343.89.79 1.944-.143.265-.335 2.186-.407 4.394 2.33-1.128 3.216-1.824 3.504-2.376.312-.624.696-.816 1.536-.024.864.792.768.984-.048 1.176-.624.145-2.496.89-5.017 1.776-.096 3.145.36 3.744 2.256 3.864.84.048 1.656 0 2.472-.19.72-.193 1.392-1.058 1.8-2.233.216-.672.408-.576.48-.024.12.864.216 1.416.384 2.232.144.67-.12.936-1.655 1.32zM89.18 23.568c-.407.6-.815 1.152-1.247 1.704.48.48.696.84.744 1.176.072.36.024 4.417-.048 6.025-.025.336-.193 1.27-.36 1.487-.217.265-.433.217-.65-.096-.503-.792-.6-1.44-.167-2.64.168-.457.216-2.28.192-4.44 0-.24-.048-.624-.144-1.01-1.343 1.514-2.855 2.737-4.63 3.577-.577.29-.77-.047-.29-.383 1.706-1.224 3.53-2.977 4.826-5.017.72-1.128 1.032-2.088.984-2.832-.048-.648.192-.792.768-.408.888.624 1.2 1.248.96 1.513-.17.193-.673.937-.937 1.345zm10.274-6c-.912-.072-2.832-.12-4.272-.05-.504 1.105-1.128 2.065-1.656 2.522-.336.336-.6.145-.336-.288.192-.312.504-1.008.937-2.136-.912.12-2.208.36-3.672.552.048.384.096.816.144 1.32.047.408-.073.624-.29.696-.215.096-.48-.168-.55-.553-.097-.503-.17-.935-.217-1.32-1.032.17-2.472.434-2.736.506-1.2.384-1.848.288-2.352-.192-.576-.528-.48-.672.144-.648.503.024 2.495-.19 4.775-.432-.264-1.248-.552-1.776-1.176-2.52-.265-.29-.193-.625.575-.577 1.128.072 1.68.385 1.584 1.08-.05.312-.05.864.047 1.896 1.44-.168 2.688-.36 3.96-.528.528-1.656.648-2.64.408-3.023-.336-.553-.024-.937 1.128-.36 1.056.48 1.104.647.744 1.248-.216.36-.696 1.176-1.104 1.968.936-.12 1.656-.24 2.016-.336 1.223-.288 1.75-.312 2.303-.048 1.295.575 1.055 1.367-.41 1.224zm1.224 14.737c-1.632.6-4.68.575-5.904-.072-1.68-.864-1.992-1.465-1.92-5.16-.984.552-1.968.936-2.688 1.128-.432.12-.48-.19-.168-.335.624-.312 1.944-1.104 2.88-1.73.096-3.216.096-4.392-.216-4.87-.336-.506-.168-.697.432-.506 1.392.407 1.68.815 1.248 1.584-.096.168-.288 1.512-.408 3.048 2.304-1.872 3.36-3.288 3.265-3.864-.073-.432.215-.648.695-.384 1.392.768 1.608 1.344 1.056 1.632-.215.096-.72.456-1.607 1.272-.937.863-2.232 1.775-3.528 2.52-.168 3.072.072 3.864 1.32 4.37.792.31 3.384.335 4.632-.146 1.176-.48 1.56-.96 2.136-3.912.12-.672.408-.696.432.12.024.912.36 2.808.552 3.168.288.48-.12 1.416-2.21 2.137zM129.67 23.784c.48-.12 1.128-.144 1.344-.07.336.07.456.047.552-.313.144-.48.336-1.44.504-2.375-.336.023-.72.072-1.104.216-.768.193-1.608.12-2.352-.31-.24-.145-.192-.288.144-.313.456-.024.72-.072 1.368-.192.888-.216 1.56-.288 2.088-.216.12-.53.168-1.057.192-1.44.048-.89-.144-.984-.888-.816-1.248.24-1.92.216-2.353-.072-.432-.24-.384-.408.024-.432.6-.05 1.895-.336 2.71-.77.72-.36.985-.43 2.113.17 1.152.623 1.272.936.744 1.415-.48.408-1.008 1.608-1.44 3.937-.192.984-.648 2.208-1.128 2.856-.29.408-.6.312-.817-.096-.096-.192-.192-.288-.408-.312-.264-.024-.936-.024-1.92.024 1.488.744 1.464 1.032 1.128 1.872-.12.288-.24 2.448-.144 3.77.07 1.03.6 1.63 1.87 1.92.913.215 2.666.143 3.48-.146 1.37-.48 1.61-.744 2.017-3.24.168-1.032.264-1.128.456 0 .336 1.752.624 2.593.768 2.81.313.455.17.815-1.08 1.56-.84.504-2.88.743-5.04.504-2.328-.265-3.36-1.177-3.552-3.36-.12-1.177-.168-2.616-.12-3.72.048-.96 0-1.537-.36-1.92-.792.047-1.752.12-2.856.24 1.416.862 1.464 1.318 1.056 1.727-.096.098-.408.602-.768 1.394-1.272 2.616-4.2 4.8-7.272 5.52-.576.12-.6-.24-.048-.48 1.584-.72 3.672-2.28 5.064-4.03 1.584-1.993 2.017-3.41 1.488-4.058-.432.048-.864.097-1.344.145-.192.937-.456.96-.72.625-.288-.408-.432-.937-.552-2.4-.096-1.152-.84-3.696-1.608-4.633-.384-.456-.24-.695.336-.672.288.024.792.097 1.248.168 2.088-1.824 2.928-2.928 2.904-3.36-.048-.96.312-1.008 1.584-.407 1.056.528 1.08.816.6 1.032-.168.072-.624.36-1.272.89-.84.646-2.016 1.463-3.265 2.135 0 .408.096 1.416.264 2.545 2.448-.696 3.072-.673 3.433-.433.48.36.336.527 0 .647-.336.096-.792.216-1.056.264-.84.193-1.536.24-2.304.146.096 1.008.24 2.063.36 2.712 2.497-.222 5.474-.558 5.93-.654z"/></g><path fill="#231815" d="M37.584 24.044c.09.108.144.198.144.27 0 .127-.126.217-.27.27-.234.11-.234.146-.972.865-.306.306-.54.52-.99.773.053.055.07.108.07.18 0 .055-.017.145-.035.27-.035.325-.053.703-.053 1.08 0 .38.018.758.054 1.1.055.433-.125.685-.305.774-.054.036-.108.036-.18.036-.162 0-.342-.126-.324-.47.02-.772.037-1.35.037-1.8 0-.306-.018-.54-.036-.773-.017-.108-.017-.18-.035-.252-.036-.02-.09-.055-.126-.09-.29-.198-.72-.667-1.01-.955-.45-.45-.737-.756-.936-.936-.108-.09-.144-.162-.144-.234 0-.09.072-.145.252-.18.09-.02.162-.02.234-.02.342 0 .504.182.792.505l1.135 1.333c.09.108.18.145.234.09.288-.27.54-.485.792-.79.305-.344.72-.9.863-1.153.18-.307.27-.414.414-.27l.397.377zm-1.098-6.374c.09.09.126.162.126.234 0 .108-.09.216-.198.307-.18.163-1.134 1.135-1.278 1.225-.018.02-.036.055-.036.072 0 .054.054.108.216.09.504-.054 1.08-.107 1.404-.216.144-.053.288-.107.414-.107.108 0 .216.055.288.162.144.234.378.414.378.595 0 .072-.036.126-.108.18-.45.36-1.044 2.323-1.854 2.88-.234.163-.432.325-.63.325-.126 0-.234-.054-.36-.234-.342-.484-.594-.772-.684-.863-.108-.126-.144-.197-.144-.233 0-.055.054-.072.162-.055.054.018.108.035.18.07.288.11.685.29.9.29.234 0 .504-.27.882-.883.342-.486.486-1.045.432-1.243-.018-.107-.162-.16-.36-.16-.324 0-.792.106-1.278.18-.162.017-.324.125-.504.125-.09 0-.198-.037-.306-.11-.18-.143-.486-.557-.486-.665 0-.144.27-.144.504-.288.396-.198.99-.918 1.098-1.08.054-.054.072-.108.072-.145 0-.054-.072-.054-.18-.035-.09 0-.18.018-.288.035-.504.108-.972.27-1.296.27-.126 0-.234-.035-.306-.09-.252-.197-.558-.468-.558-.61 0-.055.036-.09.162-.09.234 0 .738.035.954.035.612-.036 1.747-.18 2.107-.343.144-.073.378.143.576.376zm5.147 7.996c.702.666.522 1.152-.09.666-.468-.378-1.117-.918-2-1.603-.413-.325-.936-.686-1.368-.974-.45-.324-.144-1.638.612-.9.812.81 2.432 2.432 2.846 2.81zM74.27 15.852c0 .108-.127.198-.487.198-.252 0-1.224.09-1.89.145.018.035.018.07.018.107 0 .055-.017.108-.035.162-.054.145-.126.883-.126 1.1-.02.36-.02.9-.02 1.403 0 .414.037 1.188.055 1.404 0 .217-.288.884-.504.884-.197 0-.395-.63-.36-1.28.037-.34.127-1.53.127-2.52 0-.468-.018-.882-.072-1.152-.45.072-1.17.198-1.674.324-.305.09-.737-.288-.863-.432-.072-.072-.126-.162-.126-.217 0-.09.11-.162.38-.162.467 0 .97-.035 1.332-.07 1.152-.11 2.178-.253 2.737-.36.323-.073.54-.11.7-.11.127 0 .235.02.325.073.195.11.484.342.484.504zm.017 7.51c0 .125-.144.197-.558.16-.11-.018-.217-.018-.343-.018-.576 0-1.404.09-2.088.18-.325.036-1.315.18-1.982.36-.306.072-.738-.288-.864-.432-.072-.072-.126-.18-.126-.252 0-.108.09-.198.36-.198.468 0 .972-.036 1.333-.072 1.153-.126 2.107-.252 2.684-.378.198-.036.378-.072.576-.072.18 0 .36.036.504.126.196.145.503.414.503.595zm-.037 4.914c0 .108-.09.198-.432.198-.288 0-.666.018-1.098.054-.072.288-.126.54-.162.648-.144.396-.162.594-.432 1.044-.126.198-.234.343-.324.396-.036.018-.072.018-.09.018-.072 0-.108-.07-.108-.233 0-.107.018-.27.072-.485.126-.486.216-.918.306-1.314-.486.055-1.008.11-1.458.18.054.65.126 1.298.162 1.532.108.54.342.792.666.846.144.02.288.036.432.036.432 0 .83-.09 1.314-.252.108-.036.198-.054.27-.054.18 0 .324.09.414.306.126.288-.144.433-.522.54-.234.072-.774.145-1.35.145-.36 0-.757-.037-1.063-.127-.522-.162-.774-.576-.864-1.01-.09-.52-.144-1.098-.198-1.8-.162.036-.306.072-.432.108-.072.02-.126.037-.18.037-.324 0-.54-.27-.684-.433-.09-.107-.145-.216-.145-.288 0-.09.072-.144.216-.144l.577.036c.09 0 .324-.02.612-.036-.02-.378-.037-.864-.09-1.01-.055-.143-.163-.323-.163-.45s.072-.16.162-.16c.16 0 .377.107.395.107.126.07.36.18.486.34.037.037.055.092.055.146 0 .144-.126.324-.126.468l.017.486c.522-.072 1.117-.144 1.64-.234l.053-.233c.09-.396.144-.666.144-.9 0-.126-.018-.234-.054-.342-.036-.107-.072-.197-.072-.27 0-.145.072-.216.216-.18.072.018.162.07.27.144l.504.36c.108.09.144.162.144.234 0 .16-.216.288-.27.485l-.162.577c.162-.018.288-.054.396-.07.072-.02.126-.02.18-.02.27 0 .45.162.612.288.073.054.162.18.162.288zM109.404 25.576c-.162.035-.396-.09-.504-.27-.18-.253-.252-.38-.648-.793-.144-.162-.288-.288-.414-.414l-.18.16c-.972.74-2.017 1.243-2.485 1.405-.306.107-.468.07-.504.07-.055 0-.073-.053-.02-.106.18-.163.63-.487.955-.703.378-.252 1.026-.738 1.603-1.26-.162-.108-.414-.307-.774-.595-.306-.234-.774-.612-1.135-.81-.18-.11-.253-.217-.253-.29s.054-.107.144-.107c.307 0 .56.09.865.217.486.216 1.188.666 1.73 1.044.16-.18.287-.342.395-.504.342-.522.288-.738.288-1.045 0-.144.054-.197.144-.197.072 0 .18.054.288.144.18.108.324.216.504.45.09.108.162.234.162.342 0 .108-.108.27-.288.396-.252.18-.594.54-.918.864l.072.054c.612.54.972.81 1.242 1.278.234.397-.108.632-.27.668zm1.045-9.634c0 .127-.11.234-.47.27-.27.02-1.835.11-3.168.307h-.036c.162.16.252.252.216.342-.126.288-.198.774-.234 1.098-.126.847-.432 1.62-.576 1.945-.18.414-.666 1.008-1.08 1.296-.072.056-.126.073-.162.073-.054 0-.054-.072-.036-.162.054-.197.234-.54.378-.827.432-.864.522-1.675.612-2.09.036-.18.09-.63.09-1.043 0-.162-.018-.307-.036-.433h-.126c-.18 0-.342-.036-.504-.144-.342-.216-.594-.47-.594-.595 0-.07.072-.126.252-.107.576.037 1.404-.035 1.53-.035.09-.02.828-.09 1.026-.108.594-.072 1.242-.198 1.836-.288.126-.02.234-.037.324-.037.18 0 .306.055.45.145s.307.25.307.394zm-.577 10.533c.09.108.144.198.144.27 0 .127-.126.217-.27.272-.234.107-.234.144-.973.864-.306.307-.54.522-.99.774.054.055.072.108.072.18 0 .055-.018.145-.036.27-.036.344-.054.703-.054 1.082 0 .378.018.756.054 1.098.054.433-.126.685-.306.774-.054.036-.108.036-.18.036-.162 0-.342-.126-.324-.468.018-.774.036-1.35.036-1.8 0-.308-.018-.54-.036-.775-.018-.107-.018-.18-.036-.25-.036-.02-.09-.055-.126-.09-.288-.2-.72-.668-1.008-.956-.45-.45-.738-.756-.937-.936-.108-.09-.144-.162-.144-.234 0-.09.07-.144.25-.18.09-.02.163-.02.235-.02.342 0 .504.182.792.505l1.134 1.332c.09.107.18.144.235.09.288-.27.54-.486.792-.792.306-.343.72-.9.864-1.152.18-.307.27-.414.415-.27l.398.377zM142.02 21.74c.234.108.396.252.288.396-.108.144-.18.522-.162.774.036.324-.072 1.008-.198 1.477-.18.684-.414 1.224-1.026 1.926-.288.307-.63.54-.774.54-.072 0-.09-.07 0-.233.036-.072.09-.145.144-.234.846-1.188.936-1.836 1.008-2.503.054-.414.072-.792.072-1.098 0-.307-.018-.56-.072-.72-.054-.163-.09-.27-.09-.36 0-.127.072-.18.252-.145.27.072.377.108.558.18zm1.728-.378c.198.162.324.27.288.396-.072.252-.162.468-.216 1.026-.018.233-.09 1.17-.09 1.944 0 .522.036.954.144 1.08.126.145.252.198.396.198.126 0 .252-.054.414-.09s.27-.055.378-.055c.144 0 .234.037.342.092.18.09.342.252.342.396 0 .09-.054.162-.198.216-.252.09-.738.162-1.207.162-.233 0-.45-.018-.63-.07-.18-.056-.54-.235-.647-.632-.036-.126-.054-.342-.054-.63v-.234c0-.81.053-1.962.053-2.683 0-.324 0-.558-.036-.666-.054-.16-.108-.36-.108-.52 0-.145.035-.234.18-.234.18 0 .522.216.648.306zM254.15 19.783l-1.552.275s-.81.135-1.037.158l-1.1.152c-.095.28-.183.545-.265.79s-.225.605-.428 1.073-.44.93-.71 1.378-.585.877-.948 1.283-.71.74-1.038 1.003-.62.46-.88.592l-.48.246c-.25.142-.388.165-.415.07s.014-.19.123-.292l.492-.47c.18-.17.42-.43.72-.778s.595-.723.88-1.125.562-.885.832-1.447.486-1.07.65-1.523l.21-.586c-.093.015-.302.054-.626.116s-.525.094-.604.094c-.203.008-.402-.012-.598-.06s-.363-.1-.504-.163-.252-.137-.334-.223-.115-.16-.1-.223.094-.104.234-.128l.62-.082.61-.094 1.02-.105.55-.08c.08-.337.134-.577.165-.722s.094-.47.188-.98l.164-.89c-.235.047-.464.09-.687.13s-.428.077-.615.116-.332.06-.434.06c-.164.007-.32-.007-.47-.042s-.327-.1-.538-.193-.34-.19-.387-.282-.056-.17-.024-.23.13-.1.293-.122l.444-.047c.062 0 .223-.028.48-.083l1.207-.176.88-.128.082-.69s.053-.583.064-.95.002-.633-.03-.797l-.128-.645c-.375.078-.7.156-.98.234s-.474.113-.59.105c-.15 0-.308-.036-.476-.106s-.346-.168-.533-.293-.302-.224-.34-.298-.048-.13-.024-.164.055-.06.094-.076h.316l.785-.105 1.173-.13c.375-.038.7-.077.973-.116s.768-.114 1.482-.228 1.172-.193 1.37-.24.472-.113.815-.2.584-.145.72-.18.25-.05.335-.042c.078.016.252.096.52.24s.458.252.563.322.247.19.423.357.266.306.27.415-.05.254-.158.434c-.125.202-.22.374-.287.515s-.146.363-.24.668-.188.81-.28 1.512l-.27 1.934-.26 1.804c-.194 1.328-.364 2.377-.51 3.146s-.354 1.508-.632 2.215-.568 1.266-.873 1.676-.613.7-.926.868-.53.225-.656.17c-.093-.03-.206-.152-.34-.363s-.286-.438-.462-.68-.33-.44-.463-.598l-.492-.55c-.102-.103-.14-.175-.11-.218s.118-.05.274-.02l.785.177c.14.04.318.086.533.14s.385.063.51.024.275-.17.45-.397.337-.543.48-.95.308-.958.487-1.657.336-1.385.47-2.057l.1-.467zm-2.928 48.808c.195.235.355.425.48.57s.2.255.223.333.035.152.035.223c-.008.094-.05.293-.123.598s-.115.633-.123.984l-.094 4.23c-.023.86-.045 1.34-.064 1.44s-.072.26-.158.47-.168.357-.246.44-.156.128-.234.14-.176-.057-.293-.205c-.125-.14-.223-.31-.293-.51s-.137-.424-.2-.674-.09-.45-.08-.6c0-.1.042-.296.128-.585s.17-.67.252-1.143.13-.85.146-1.13l.082-1.91c.008-.33 0-.728-.023-1.196l-.047-.75c-.29.305-.545.568-.768.79s-.53.493-.926.81-.73.564-1.008.744-.658.398-1.143.656l-.504.27c-.17.094-.282.107-.333.04s-.03-.138.064-.216l.587-.457c.164-.125.473-.414.926-.867s.86-.877 1.225-1.27.7-.8 1.008-1.214.598-.836.867-1.266.45-.754.54-.973.183-.477.28-.773.15-.54.158-.727.034-.293.077-.316.107-.035.193-.035c.102.016.217.053.346.11s.3.153.51.282.396.283.557.463.23.32.205.422c-.016.054-.055.116-.117.187l-.34.328c-.155.148-.417.477-.784.984l-.703.925-.28.376zm-2.848-27.41l-.094-.644c-.047-.297-.123-.523-.23-.68s-.163-.266-.175-.328.02-.137.1-.223.297-.086.656 0c.423.117.69.195.798.234s.227.112.352.222.19.197.193.264-.01.143-.04.23c-.103.25-.16.41-.17.48s-.026.22-.042.45-.02.38-.01.45l.198 3.95 2.027-.598-.105-5.86c-.008-.272-.033-.663-.076-1.17s-.076-.862-.1-1.062-.082-.408-.176-.627-.148-.366-.164-.44 0-.146.047-.217.11-.115.19-.135.17-.02.28-.006c.086.016.318.08.697.193s.646.23.803.346.238.22.246.306-.03.238-.117.457c-.048.11-.1.303-.153.58s-.094.504-.117.68-.04.51-.047 1.002l-.035 1.324c.352-.157.646-.278.885-.364s.475-.137.71-.152c.132 0 .245.01.34.03s.224.065.392.14.285.152.352.234.096.162.088.24c-.023.117-.172.2-.445.252s-.537.11-.79.176-.464.113-.628.14-.285.034-.363.02l-.552-.06-.023 3.69 1.828-.573c.25-.078.473-.123.668-.135s.337-.004.423.023.145.062.176.1.044.087.04.142-.033.12-.088.2-.363.202-.926.374l-5.73 1.816c-.406.133-.773.29-1.102.47s-.535.28-.62.304-.157.035-.212.035c-.078.01-.18-.01-.305-.058s-.354-.23-.686-.55-.513-.52-.544-.6-.047-.142-.047-.192.01-.096.028-.135.08-.07.182-.094c.094-.015.264.005.51.06s.467.082.662.082c.148.008.383-.016.703-.07l.832-.13-.493-4.59zm4.805 52.114c-.415.047-.677.062-.786.047l-.398-.034c-.047.312-.105.523-.176.633s-.133.17-.188.18-.117-.005-.188-.052c-.11-.062-.22-.223-.334-.48s-.182-.492-.205-.703l-.363-3.13c-.047-.35-.123-.81-.23-1.376s-.2-.925-.286-1.073-.186-.295-.3-.44-.212-.26-.298-.35-.133-.167-.14-.23.01-.12.058-.176.098-.093.152-.116c.11-.047.258-.047.445 0l.75.176c.367-.328.674-.61.92-.844s.527-.52.844-.855.557-.63.72-.884.296-.484.394-.69.163-.386.194-.534.062-.246.094-.293.082-.087.152-.118.215-.008.434.07c.32.125.564.232.732.322s.35.203.545.34.333.27.41.398.106.225.083.287c-.023.07-.12.132-.293.187s-.318.11-.44.164-.39.233-.808.534-.885.617-1.4.95-.992.61-1.43.837l-.727.388c.133.094.223.176.27.246s.078.248.094.533l.034.633s.027.396.06.78l.034.48.984-.376c.523-.195.86-.303 1.014-.322s.305.002.457.064.29.14.41.234.188.156.2.188.013.066.005.105c-.016.062-.04.117-.07.164s-.086.088-.164.123-.242.072-.492.11-.523.1-.82.177-.5.117-.61.117l-.772.07.27 2.695c.71-.048 1.21-.085 1.5-.112s.896-.088 1.822-.182 1.58-.174 1.963-.24.627-.102.732-.105.238.005.398.024.28.053.357.1l.316.2.867-3.165-1.418.27c-.47.093-.785.138-.95.134s-.343-.03-.538-.076-.347-.117-.452-.21-.156-.173-.152-.235.092-.12.264-.176l.81-.094.948-.27.504-.152c.133-.015.293-.007.48.024l.656.117.28-2.003c.017-.133-.003-.266-.058-.398s-.104-.222-.146-.265-.113-.066-.21-.07-.272.02-.522.076l-1.312.306c-.266.062-.48.092-.645.088s-.322-.027-.475-.07-.248-.12-.287-.23-.04-.183 0-.222.184-.07.434-.094l.527-.035c.102 0 .36-.055.773-.164l.398-.095c.28-.07.584-.174.908-.31s.545-.214.662-.23c.164-.016.314-.004.45.035s.376.11.716.217.605.215.792.328.293.244.316.393-.068.383-.275.703-.357.638-.45.95l-1.126 3.562-.586 2.062c-.07.14-.144.256-.222.346s-.18.158-.305.205-.215.066-.27.06c-.117-.01-.21-.067-.28-.177l-.33-.398c-.335-.016-.522-.023-.56-.023l-1.103.094c.227.134.424.265.592.394s.252.264.252.404c-.008.062-.03.145-.07.246l-.2.434c-.1.242-.196.557-.286.943s-.158.774-.205 1.16-.066.75-.06 1.085c0 .39.052.75.153 1.078s.28.62.533.873.6.453 1.042.598 1.068.21 1.88.193c.813-.008 1.485-.09 2.017-.246s.905-.356 1.124-.603.385-.527.498-.844.197-.604.252-.86.102-.528.14-.81l.083-.715c.008-.062.053-.096.135-.1s.14.04.17.135l.223.88c.078.343.184.7.316 1.07s.282.694.446.968.248.464.252.57-.01.2-.04.286c-.048.117-.187.29-.417.52s-.753.51-1.57.833-1.962.49-3.438.497c-1.133.016-1.98-.098-2.537-.34s-1-.527-1.324-.855-.552-.672-.685-1.03-.24-.778-.322-1.255-.12-.797-.11-.96l.104-2.38c0-.125-.004-.37-.012-.732s-.047-.61-.117-.744l-.258-.538-1.723.117c.11.1.26.233.45.397s.317.342.376.533.053.36-.018.51c-.03.055-.14.166-.328.334s-.365.367-.533.598-.443.584-.826 1.06-.703.858-.96 1.144-.638.63-1.138 1.03-1.03.774-1.594 1.114-1.064.586-1.506.738-.904.28-1.39.38l-.327.07c-.125.032-.205.02-.24-.04s-.018-.107.053-.146l.328-.164c.188-.094.47-.244.844-.45s.896-.565 1.564-1.073 1.26-1.025 1.775-1.553.957-1.045 1.324-1.553.64-.948.815-1.32.29-.704.346-1l.11-.526zm-.365-32.496l1.688-.27c.195-.023.312.02.352.13s.027.192-.035.25-.125.097-.188.112l-1.676.527.27 1.383c.016.11-.004.254-.06.434s-.122.285-.204.316-.184-.008-.305-.117-.217-.27-.287-.48l-.41-1.22-1.406.435c-.28.086-.494.166-.64.24s-.284.15-.42.23-.23.12-.276.128c-.07.016-.18-.002-.328-.053s-.295-.14-.44-.264-.282-.267-.415-.423-.232-.29-.3-.404-.093-.203-.08-.27.032-.113.063-.14.102-.042.21-.042c.11.01.22.02.33.036l.315.047c.14.023.29.03.45.018s.41-.044.745-.1l1.863-.304-.128-.31s-.11-.253-.234-.534-.223-.496-.293-.645-.162-.29-.275-.428-.193-.255-.24-.353-.04-.19.018-.28.162-.15.31-.183c.134-.023.364-.012.692.035l.47.07c.163.03.286.063.368.1s.154.08.217.134.11.113.14.176l-.01.492.104 1.277.045.248zm-4.57-8.765h.82c.22 0 .71-.03 1.477-.094l1.922-.13c.414-.023 1.078-.078 1.992-.164s1.824-.168 2.73-.246 1.578-.145 2.016-.2l1.56-.187c.116-.008.33-.025.638-.053s.52-.04.64-.04c.218.015.438.063.66.145s.478.207.763.375.484.322.598.463.153.268.118.38-.143.175-.322.183l-.75.047c-.148.016-.537.008-1.166-.023s-1.256-.04-1.88-.023l-2.462.082c-.82.022-1.316.038-1.488.046s-.67.045-1.494.11-1.314.108-1.47.124-.562.072-1.214.17-1.12.18-1.4.246-.48.096-.598.088c-.094 0-.236-.02-.428-.06s-.38-.104-.568-.198l-.645-.352c-.18-.094-.31-.195-.393-.305s-.102-.202-.06-.276.18-.11.405-.11zm6.035-32.953c.03-.164.07-.39.117-.674s.098-.627.152-1.025l.14-1.112c-.195.03-.34.055-.434.07l-.996.2-1.383.198-.61.094c-.06.29-.132.63-.21 1.02s-.16.766-.246 1.125l-.104.434c.22-.04.383-.07.492-.095l.492-.105c.398-.078.656-.135.773-.17s.26-.084.428-.146.292-.098.37-.105.19.007.34.046.293.086.434.14l.246.104zm.48-3.434c.032-.352.052-.586.06-.703s.02-.342.035-.674.037-.632.064-.897.022-.48-.013-.64-.096-.276-.182-.35-.3-.097-.645-.065c-.023.008-.23.023-.62.047s-.692.055-.903.094l-1.57.28c.234.11.416.203.545.28s.238.175.328.288.133.2.13.264-.036.16-.095.293-.107.28-.146.445l-.153.633-.13.855c.384-.094.722-.168 1.015-.223s.547-.12.762-.193.355-.113.422-.117.193.016.38.06.345.1.47.17l.245.15zm2.204 31.922c.477-.11.754-.168.832-.176.078 0 .2.023.363.07s.34.113.532.2.34.177.445.274.146.2.123.31c-.023.08-.072.142-.146.19s-.172.077-.293.093-.405.077-.854.187-1.002.207-1.658.293l-1.535.21c-.57.08-1.027.118-1.37.118-.5.008-.853-.035-1.056-.13s-.36-.185-.47-.274-.167-.156-.175-.2-.008-.083 0-.122c0-.03.004-.057.012-.076s.04-.043.094-.07.145-.053.27-.076l1.418-.13c.148-.015.594-.09 1.336-.228s1.145-.213 1.207-.23l.924-.234zm.07 21.973c.61-.147 1.16-.282 1.652-.403s.938-.244 1.336-.37l.984-.292.727-.223c.102-.016.19-.027.27-.035.11 0 .22.02.334.06s.346.124.697.257.56.244.62.334.087.158.07.205c-.015.03-.056.068-.122.11s-.123.07-.17.077l-.797.117-1.652.234c-.258.048-.78.147-1.57.3s-1.297.256-1.523.31-.363.075-.41.06l-.457-.047-.06 2.543c-.015.656.058 1.158.218 1.506s.44.64.84.88.843.374 1.335.41.97.048 1.43.04c.602 0 1.092-.025 1.47-.076s.71-.135.99-.252.528-.297.74-.54.366-.493.468-.755.19-.573.27-.933l.223-1.02c.055-.266.127-.39.217-.37s.146.108.17.265l.117.89c.07.57.152.968.246 1.19s.21.473.352.75.217.475.23.592-.007.234-.054.352c-.102.25-.307.46-.615.627s-.667.316-1.073.445-.852.232-1.336.31-1.02.122-1.604.13c-.82.023-1.607-.027-2.36-.152s-1.37-.332-1.847-.62-.837-.622-1.08-.997-.395-.784-.462-1.226-.092-.877-.076-1.307l.06-3.14c.03-1.83.04-2.84.028-3.036s-.053-.397-.123-.608l-.117-.316c-.04-.102-.05-.19-.035-.264s.055-.143.117-.205.223-.055.48.023c.102.04.303.12.604.246s.51.248.627.37.186.23.205.327.002.24-.053.428l-.176.517c-.07.22-.126.5-.165.844l-.19 1.44zm2.473-9.164l1.453-.34.832-.234c.117-.008.234.004.352.035s.293.1.527.205.394.195.476.27.123.154.123.24c-.01.102-.052.176-.13.223s-.193.088-.346.123-.256.053-.31.053l-.622.07-2.145.27c-.21.032-.332.048-.363.048l-.363.07c-.116.227-.196.377-.24.45s-.175.292-.397.65-.377.595-.463.704l-.293.375c-.18.227-.324.31-.434.252s-.113-.23-.012-.51l.575-1.665c-.297.117-.51.174-.64.17s-.228-.018-.298-.04-.16-.063-.27-.118-.203-.104-.28-.146-.163-.108-.253-.198-.12-.168-.094-.234.12-.107.275-.123l.375-.035c.023 0 .367-.06 1.03-.176l.458-.082.06-.223c.1-.36.173-.63.216-.81s.09-.393.14-.64.09-.462.112-.65c.023-.25.016-.478-.023-.685s-.04-.357-.006-.45.11-.16.223-.2.287-.008.52.094c.26.132.458.245.6.34s.294.228.462.403.254.31.258.404-.05.22-.158.375c-.102.148-.172.252-.21.31s-.08.132-.118.218l-.597 1.206zm-1.02-20.203c.688-.18 1.238-.322 1.652-.428s.796-.215 1.147-.328.613-.17.785-.17c.21.008.457.068.738.182s.46.212.54.298.116.172.116.258c-.008.125-.072.227-.193.305s-.385.153-.79.224l-2.075.375c-.266.046-.527.083-.785.11s-.477.02-.656-.018l-.55-.094-.06 1.125c-.03.492-.045.912-.04 1.26s.05.627.14.838.195.38.316.505.398.242.832.352 1.018.164 1.752.164c.523.01.986-.026 1.39-.104s.728-.217.978-.416.44-.42.568-.662.23-.516.3-.82l.128-.645.118-.516c.023-.125.086-.2.188-.223s.16.05.176.223l.06.75c.007.148.038.324.093.527s.125.432.21.686.18.457.282.61.16.27.176.35-.027.206-.13.37c-.054.086-.17.22-.345.398s-.61.393-1.3.64-1.647.368-2.866.368c-1.117.008-1.92-.094-2.408-.305s-.83-.413-1.025-.608-.345-.416-.446-.662-.18-.57-.234-.973-.074-.85-.06-1.342l.165-5.707.035-.902c0-.344-.027-.695-.082-1.055-.04-.218-.098-.433-.176-.644s-.102-.363-.07-.457c.016-.063.057-.122.123-.177s.19-.074.37-.06c.17.024.394.09.667.2s.492.223.656.34.275.21.334.28.09.147.094.23-.037.213-.123.393c-.102.195-.19.416-.264.662s-.128.576-.16.99l-.293 3.305zm1.395-27.2c-.062.173-.11.315-.14.43s-.075.347-.13.702-.082.64-.082.85l-.352 11.438c-.03.883-.06 1.434-.082 1.652l-.152 1.066c-.055.485-.137.835-.246 1.05s-.21.314-.305.3c-.094-.01-.18-.12-.258-.335s-.117-.553-.117-1.014l-.06-1.147c-.007-.07-.003-.383.013-.938l.212-12.176c0-.415-.004-.778-.012-1.09l-.035-.575c-.023-.266-.066-.498-.13-.697s-.08-.334-.052-.404.076-.127.146-.17.214-.037.433.018c.266.086.44.148.527.188l.55.293 1.69-.504.66-.206s.644-.223.84-.328.323-.166.386-.182c.094-.008.213.01.357.053s.37.13.674.264.512.23.62.288.214.14.312.246.145.197.145.275c-.008.07-.072.16-.193.274s-.297.31-.527.586-.354.428-.37.45l-1.84 2.685c.235.18.458.35.67.51s.458.385.743.674.545.614.78.978.43.785.585 1.266.22 1.03.188 1.646c-.038.578-.157 1.06-.356 1.447s-.38.623-.545.71-.29.13-.376.134-.25-.122-.492-.38c-.094-.086-.328-.29-.703-.61l-.704-.585-.773-.54-.527-.386c-.125-.087-.176-.155-.152-.206s.133-.064.328-.04l.703.104.69.13.657.093c.195.032.33.026.404-.017s.125-.174.152-.393.014-.504-.04-.855c-.07-.422-.146-.746-.224-.973s-.22-.502-.422-.826-.36-.55-.475-.68-.27-.297-.47-.504-.302-.342-.31-.404.062-.31.21-.738l.833-2.508c.078-.25.12-.414.123-.492s-.02-.152-.07-.223-.14-.12-.264-.152-.333-.016-.622.047l-2.026.432zM274.245 19.74c.09.11.145.2.145.272 0 .126-.126.216-.27.27-.234.108-.234.145-.973.865-.307.306-.54.52-.99.773.055.055.072.108.072.18 0 .055-.02.145-.037.27-.036.325-.054.703-.054 1.082 0 .378.017.756.053 1.098.054.433-.126.685-.306.774-.055.036-.108.036-.18.036-.163 0-.344-.126-.325-.468.02-.774.036-1.35.036-1.8 0-.308-.018-.54-.036-.775-.02-.108-.02-.18-.036-.252-.035-.02-.09-.054-.126-.09-.288-.198-.72-.666-1.01-.954-.448-.45-.736-.756-.935-.936-.107-.09-.145-.162-.145-.234 0-.09.072-.144.252-.18.09-.02.162-.02.234-.02.342 0 .504.182.793.506l1.133 1.332c.09.108.18.144.234.09.288-.27.54-.486.792-.792.306-.342.72-.9.863-1.152.18-.307.27-.414.414-.27l.398.377zm-1.098-6.372c.09.09.126.162.126.233 0 .11-.09.218-.198.308-.18.162-1.135 1.134-1.278 1.224-.018.02-.036.055-.036.072 0 .055.056.108.218.09.504-.054 1.08-.107 1.404-.216.144-.054.287-.107.414-.107.107 0 .216.055.288.162.144.234.378.415.378.595 0 .072-.036.126-.107.18-.45.36-1.045 2.323-1.855 2.88-.234.163-.432.325-.63.325-.126 0-.233-.054-.36-.234-.342-.485-.594-.773-.684-.864-.108-.126-.145-.197-.145-.233 0-.054.056-.07.163-.054.055.02.107.036.18.072.29.108.685.288.9.288.234 0 .504-.27.883-.882.342-.486.486-1.045.432-1.242-.018-.108-.162-.162-.36-.162-.323 0-.792.107-1.278.18-.162.018-.324.126-.504.126-.09 0-.197-.036-.307-.108-.18-.144-.486-.558-.486-.666 0-.144.27-.144.504-.288.396-.198.99-.918 1.1-1.08.053-.054.07-.108.07-.144 0-.055-.07-.055-.18-.036-.09 0-.18.018-.288.036-.504.107-.973.27-1.297.27-.125 0-.233-.036-.305-.09-.253-.198-.56-.468-.56-.612 0-.054.036-.09.163-.09.235 0 .74.036.955.036.612-.036 1.747-.18 2.106-.343.146-.073.38.143.577.378zm5.148 7.994c.702.666.522 1.152-.09.666-.468-.378-1.116-.918-2-1.603-.413-.324-.935-.685-1.367-.973-.45-.323-.144-1.638.612-.9.81.81 2.43 2.432 2.845 2.81zM274.786 35.723c0 .107-.126.197-.486.197-.252 0-1.225.09-1.89.145.017.036.017.072.017.108 0 .054-.018.107-.035.16-.055.146-.127.884-.127 1.1-.018.36-.018.9-.018 1.404 0 .414.036 1.188.055 1.404 0 .218-.29.884-.505.884-.198 0-.396-.63-.36-1.278.037-.343.127-1.53.127-2.52 0-.47-.02-.884-.072-1.153-.45.07-1.17.197-1.675.323-.306.09-.738-.288-.864-.432-.072-.072-.126-.162-.126-.216 0-.09.108-.162.378-.162.47 0 .973-.036 1.332-.072 1.152-.108 2.18-.252 2.737-.36.324-.072.54-.107.702-.107.126 0 .234.018.324.07.198.11.486.344.486.506zm.018 7.508c0 .127-.144.2-.56.163-.106-.018-.214-.018-.34-.018-.577 0-1.405.09-2.09.18-.323.036-1.313.18-1.98.36-.306.07-.737-.288-.864-.433-.07-.072-.125-.18-.125-.252 0-.108.09-.198.36-.198.468 0 .972-.036 1.33-.072 1.153-.126 2.108-.252 2.685-.378.197-.036.378-.07.576-.07.18 0 .36.034.504.125.198.144.504.414.504.594zm-.035 4.916c0 .108-.092.198-.434.198-.288 0-.667.02-1.1.055-.07.287-.125.54-.16.646-.145.396-.163.595-.433 1.045-.127.2-.234.343-.324.397-.037.02-.073.02-.09.02-.073 0-.11-.073-.11-.235 0-.108.02-.27.073-.486.126-.486.216-.918.306-1.314-.487.055-1.01.108-1.46.18.055.648.127 1.297.163 1.53.108.54.342.793.666.847.143.018.287.035.432.035.432 0 .828-.09 1.314-.252.107-.036.197-.054.27-.054.18 0 .324.09.414.305.126.288-.145.433-.52.54-.235.072-.776.145-1.353.145-.36 0-.756-.036-1.062-.126-.52-.162-.773-.576-.863-1.01-.09-.52-.145-1.097-.198-1.8-.162.037-.306.072-.433.108-.07.02-.124.036-.18.036-.323 0-.54-.27-.683-.432-.09-.108-.145-.217-.145-.288 0-.09.072-.145.216-.145l.576.036c.09 0 .324-.02.612-.037-.018-.378-.036-.864-.09-1.008-.055-.145-.162-.324-.162-.45s.072-.162.162-.162c.162 0 .378.107.396.107.125.072.36.18.486.343.035.036.053.09.053.144 0 .145-.124.324-.124.47l.018.484c.52-.07 1.116-.143 1.64-.232l.053-.234c.09-.396.144-.666.144-.9 0-.126-.017-.234-.052-.342-.037-.108-.072-.198-.072-.27 0-.145.072-.217.216-.18.07.017.16.07.27.143l.505.36c.107.09.144.162.144.234 0 .16-.215.287-.27.485l-.162.576c.162-.018.29-.054.396-.07.072-.02.127-.02.18-.02.27 0 .45.162.613.288.07.055.162.18.162.288zM273.778 69.62c-.162.036-.396-.09-.505-.27-.18-.253-.252-.38-.647-.793-.145-.162-.29-.288-.414-.414l-.18.162c-.973.738-2.018 1.242-2.486 1.404-.306.107-.468.07-.504.07-.054 0-.072-.053-.018-.107.18-.162.63-.485.954-.702.378-.25 1.026-.737 1.603-1.26-.16-.107-.413-.306-.773-.594-.306-.233-.774-.612-1.134-.81-.18-.108-.252-.217-.252-.288 0-.072.055-.108.145-.108.306 0 .558.09.864.216.485.216 1.187.666 1.728 1.045.162-.18.288-.342.396-.504.342-.52.287-.738.287-1.044 0-.145.056-.198.146-.198.072 0 .18.054.288.145.18.106.324.215.505.45.09.106.16.232.16.34 0 .108-.108.27-.288.397-.252.18-.594.54-.918.864l.072.056c.61.54.973.81 1.242 1.278.234.395-.108.63-.27.666zm1.043-9.633c0 .126-.106.234-.466.27-.27.02-1.838.108-3.17.307h-.035c.16.162.25.252.214.342-.125.288-.197.774-.233 1.1-.125.846-.432 1.62-.575 1.943-.18.413-.666 1.008-1.08 1.296-.072.054-.126.07-.162.07-.054 0-.054-.07-.036-.16.055-.198.234-.54.378-.83.433-.863.522-1.673.612-2.087.036-.182.09-.632.09-1.046 0-.162-.018-.306-.035-.432h-.127c-.18 0-.342-.036-.504-.145-.34-.216-.593-.468-.593-.594 0-.072.072-.126.252-.108.575.036 1.403-.036 1.53-.036.09-.02.827-.09 1.025-.108.594-.072 1.242-.198 1.836-.288.128-.02.235-.036.325-.036.18 0 .307.054.45.144.145.09.306.25.306.395zm-.575 10.533c.09.108.145.198.145.27 0 .127-.126.217-.27.27-.234.11-.234.146-.973.865-.307.306-.54.522-.99.774.055.053.072.106.072.18 0 .054-.02.144-.037.27-.036.342-.054.702-.054 1.08s.017.756.053 1.1c.054.43-.126.683-.306.773-.055.035-.108.035-.18.035-.163 0-.344-.126-.325-.468.02-.774.036-1.35.036-1.8 0-.307-.018-.54-.036-.775-.02-.107-.02-.18-.036-.252-.035-.018-.09-.054-.126-.09-.288-.198-.72-.666-1.01-.954-.448-.45-.736-.757-.935-.938-.107-.09-.145-.162-.145-.233 0-.092.072-.146.252-.182.09-.018.162-.018.234-.018.342 0 .504.18.793.504l1.133 1.332c.09.108.18.145.234.09.288-.27.54-.485.792-.792.306-.342.72-.9.863-1.152.18-.306.27-.414.414-.27l.398.378zM270.753 89.238c.234.108.396.252.288.396-.107.144-.18.522-.16.774.035.324-.073 1.008-.2 1.477-.18.684-.413 1.224-1.025 1.926-.288.308-.63.542-.774.542-.07 0-.09-.072 0-.234.037-.072.09-.145.146-.234.846-1.188.936-1.836 1.008-2.503.055-.413.072-.79.072-1.097 0-.307-.018-.56-.072-.72-.054-.163-.09-.27-.09-.36 0-.127.072-.18.252-.145.27.072.377.11.557.18zm1.728-.378c.198.162.325.27.29.396-.073.252-.163.468-.217 1.026-.02.233-.09 1.17-.09 1.944 0 .522.035.954.144 1.08.126.145.252.198.396.198.127 0 .252-.054.414-.09s.27-.055.38-.055c.143 0 .233.035.34.09.18.09.343.252.343.396 0 .09-.054.162-.197.216-.252.09-.738.162-1.207.162-.234 0-.45-.018-.63-.07-.18-.056-.54-.235-.648-.632-.036-.126-.054-.342-.054-.63v-.234c0-.81.054-1.962.054-2.683 0-.324 0-.558-.036-.666-.054-.163-.107-.36-.107-.523 0-.144.035-.233.18-.233.178 0 .52.216.646.306z"/><g fill="#231815"><path d="M16.03 79.62c.542.095 1.135.263 1.775.503 2.288.832 3.976 1.367 5.064 1.607 1.087.24 2.23.36 3.43.36 1.2 0 2.21-.01 3.025-.024l2.184-.07c.463 0 .695.062.695.19 0 .224-.836.632-2.508 1.225-1.672.593-2.772.89-3.3.89-.256 0-.516-.037-.78-.11-.264-.07-1.353-.475-3.264-1.21-1.912-.737-3.416-1.345-4.512-1.825-1.095-.48-1.99-.72-2.687-.72-.696 0-1.548.256-2.556.77-.144.062-.288.095-.432.095-.32 0-.616-.147-.888-.444-.272-.296-.408-.512-.408-.647s.175-.205.527-.205.888-.092 1.608-.276c.72-.185 1.204-.276 1.452-.276s.508.008.78.023c-.08-.8-.296-1.52-.648-2.16-.273-.544-.41-1.052-.41-1.523s.077-.92.23-1.345c.15-.424.227-.673.227-.744 0-.072-.032-.108-.096-.108-.127 0-.455.136-.983.408-.128.063-.32.096-.576.096s-.567-.056-.935-.168c-.368-.11-.552-.228-.552-.348s.112-.212.336-.276c.975-.24 1.75-.567 2.327-.984.288-.207.528-.308.72-.3.192.01.536.16 1.032.456.495.297.743.564.743.804 0 .097-.048.2-.144.312-.77.85-1.153 1.632-1.153 2.352 0 .288.056.585.168.89.415 1.082.583 2.01.504 2.78zm.863-11.09c0 .288-.06.553-.18.792-.12.24-.308.36-.564.36s-.7-.464-1.333-1.392-.948-1.477-.948-1.645.103-.252.31-.252c.513 0 1.093.192 1.74.576s.973.905.973 1.56zm8.735 1.272c.288-.032.792-.14 1.512-.324s1.252-.275 1.596-.275c.344 0 .672.116.984.348.312.233.468.445.468.637s-.132.336-.396.433c-.264.096-.592.124-.984.084s-.82-.06-1.284-.06-1.096.04-1.896.12c.064 2.16.124 3.79.18 4.895.056 1.103.084 1.814.084 2.135 0 .848-.16 1.568-.48 2.16-.32.592-.584.888-.792.888-.208 0-.408-.12-.6-.36-.512-.624-1.088-1.248-1.728-1.872-.176-.175-.264-.303-.264-.383s.072-.12.216-.12.375.032.696.097c.32.063.596.096.828.096s.4-.068.504-.204.18-1.036.228-2.7c.048-1.664.064-3.15.048-4.464-1.024.192-2.265.44-3.72.744-.32.08-.644.12-.972.12s-.676-.108-1.044-.324-.552-.384-.552-.504.264-.196.792-.23c1.904-.158 3.736-.398 5.496-.72-.096-2.575-.376-4.2-.84-4.87-.16-.225-.24-.412-.24-.564s.124-.23.372-.23.696.13 1.344.385c.648.256.972.575.972.96 0 .144-.04.336-.12.575-.272.83-.408 2.008-.408 3.527zm-5.807 3.025c.305 0 .77.195 1.393.588.624.392.936.86.936 1.403 0 .288-.077.528-.23.72-.15.192-.3.29-.443.29s-.264-.04-.36-.12c-.096-.08-.268-.313-.516-.697s-.47-.795-.67-1.235c-.2-.44-.3-.708-.3-.804s.062-.143.19-.143zM52.077 72.85c.752 0 1.432.18 2.04.54.608.36.912.684.912.972 0 .353-.44.528-1.32.528-.24 0-.577-.023-1.01-.072-.43-.048-1.063-.07-1.895-.07-1.856 0-3.957.127-6.3.383s-4.42.593-6.228 1.01c-.336.08-.664.12-.984.12-.32 0-.76-.173-1.32-.517-.56-.345-.84-.637-.84-.876 0-.272.284-.38.852-.324s1.172.084 1.812.084c1.312 0 3.516-.2 6.612-.6 3.095-.4 5.023-.696 5.783-.89s1.388-.287 1.884-.287zM68.876 66.274c2.032 2.05 3.6 3.536 4.704 4.464 1.104.93 2.08 1.604 2.928 2.028.848.424 2.016.868 3.504 1.332.528.16.792.304.792.432 0 .05-.072.097-.216.145-.144.048-.68.1-1.608.156-.928.057-1.62.085-2.076.085s-.824-.052-1.104-.156c-.28-.105-.584-.31-.912-.613-.328-.304-1.26-1.352-2.796-3.144-1.536-1.792-2.688-3.2-3.456-4.225-1.088 1.97-2.38 3.748-3.876 5.34-1.497 1.593-2.853 2.732-4.068 3.42-1.216.69-1.976 1.032-2.28 1.032-.128 0-.192-.048-.192-.144s.104-.2.312-.312c1.728-1.056 3.38-2.495 4.956-4.32 1.576-1.823 2.672-3.363 3.288-4.62.616-1.255.892-2.1.828-2.53-.016-.112-.024-.21-.024-.29 0-.287.116-.43.348-.43.23 0 .608.143 1.128.43.52.29.78.553.78.793s-.16.425-.48.552c-.127.062-.288.255-.48.574zm-2.23 11.28c-1.09.144-1.837.256-2.245.336-.407.08-.78.12-1.115.12s-.716-.088-1.14-.264-.636-.324-.636-.444.235-.18.707-.18 1.836-.156 4.092-.47c2.255-.31 3.85-.582 4.787-.814.936-.23 1.588-.35 1.956-.35.368 0 .792.094 1.272.277.48.185.72.372.72.564 0 .303-.624.478-1.872.526-1.248.048-3.264.257-6.048.624.944.4 1.416.76 1.416 1.08 0 .16-.155.31-.467.444s-1.516 1.14-3.612 3.012c1.553-.224 3.817-.48 6.793-.768-.48-.8-.796-1.312-.948-1.536-.152-.224-.228-.38-.228-.468s.04-.133.12-.133c.224 0 .77.294 1.644.877.873.585 1.504 1.137 1.897 1.656.392.52.588 1.116.588 1.788s-.184 1.01-.552 1.01c-.176 0-.344-.093-.504-.276-.16-.185-.72-.996-1.68-2.437-1.89.288-3.505.616-4.85.984-1.343.37-2.255.705-2.735 1.01s-.812.455-.996.455c-.185 0-.35-.232-.493-.696s-.216-.777-.216-.937c0-.16.073-.292.217-.396.144-.104.512-.243 1.104-.42.29-.096.87-.647 1.74-1.656.873-1.007 1.31-1.774 1.31-2.303-.002-.077-.01-.148-.025-.213zm5.015-4.752c0 .128-.103.256-.31.384-.21.13-.865.312-1.97.552-1.103.24-2.043.36-2.82.36-.775 0-1.287-.067-1.535-.204-.248-.136-.372-.243-.372-.324 0-.128.144-.19.432-.19s.748-.07 1.38-.205c.632-.136 1.164-.276 1.596-.42 1.01-.336 1.737-.504 2.185-.504.448 0 .796.06 1.044.18s.37.244.37.372zM90.812 69.54c0 .127-.032.307-.096.54-.064.23-.144 1.055-.24 2.47s-.276 2.83-.54 4.237-.78 2.584-1.548 3.527c-.768.944-1.64 1.68-2.616 2.208-.976.528-1.584.792-1.824.792-.128 0-.192-.044-.192-.132s.104-.212.312-.372c2.032-1.424 3.38-2.884 4.044-4.38.664-1.496.996-3.748.996-6.756 0-1.488-.192-2.432-.576-2.832-.144-.16-.216-.312-.216-.456s.116-.216.348-.216.564.112.996.336.732.404.9.54.252.3.252.493zm11.737 7.294c.08 0 .14.196.18.588.04.393.12.916.24 1.572s.235 1.144.347 1.464.168.56.168.72c0 .48-.468.892-1.404 1.236-.935.344-2.05.516-3.347.516-1.296 0-2.264-.192-2.904-.576-.64-.384-1.125-.932-1.453-1.644s-.492-1.668-.492-2.868.036-2.9.108-5.1c.072-2.2.108-3.38.108-3.54 0-1.137-.11-1.845-.335-2.124-.224-.28-.336-.508-.336-.685 0-.176.13-.264.395-.264.264 0 .724.175 1.38.527.656.352.984.688.984 1.008 0 .128-.045.26-.133.396-.088.138-.228.537-.42 1.2s-.364 1.91-.516 3.733c-.15 1.823-.227 3.224-.227 4.2 0 1.52.244 2.575.732 3.167.488.593 1.428.89 2.82.89.912 0 1.624-.113 2.136-.337.513-.225.88-.588 1.105-1.093.224-.504.448-1.38.672-2.628.048-.237.11-.358.192-.358z"/></g><g fill="#231815"><path d="M16.25 60.852c-.347.378-.893.566-1.637.566-.216 0-.437-.023-.662-.072-.224-.048-.428-.126-.61-.233-.184-.108-.336-.25-.456-.423-.12-.175-.186-.388-.198-.64h.765c.007.14.05.255.13.352.082.096.18.174.298.233.117.06.245.104.383.13.14.028.27.04.397.04.252 0 .465-.042.64-.13.173-.086.317-.206.43-.36.115-.15.198-.336.25-.553.05-.216.076-.452.076-.71v-.307h-.018c-.132.288-.332.5-.6.635-.266.135-.55.202-.85.202-.348 0-.65-.062-.91-.188-.257-.126-.473-.296-.647-.51-.174-.212-.305-.46-.392-.746s-.13-.587-.13-.904c0-.276.036-.56.108-.85.072-.292.192-.556.36-.793s.39-.432.666-.584c.276-.153.615-.23 1.017-.23.294 0 .564.065.81.194.246.13.438.322.576.58h.01v-.666h.72v4.257c0 .764-.173 1.333-.522 1.712zm-.975-2.093c.177-.106.32-.244.428-.415s.188-.364.238-.58c.052-.217.078-.433.078-.648 0-.204-.024-.405-.072-.604-.048-.197-.125-.376-.23-.535-.104-.16-.24-.286-.41-.383-.167-.096-.37-.144-.61-.144-.247 0-.457.048-.63.14-.175.094-.317.22-.428.374-.11.156-.192.336-.243.54s-.077.417-.077.64c0 .21.02.42.063.63s.115.4.217.57.237.31.405.415c.168.103.378.156.63.156s.466-.052.643-.157zM21.147 59.538V58.8h-.018c-.163.288-.37.5-.622.635s-.55.202-.89.202c-.307 0-.563-.04-.766-.12-.204-.082-.37-.197-.495-.348-.126-.15-.214-.33-.266-.536-.05-.207-.075-.437-.075-.688v-3.06h.765v3.15c0 .287.084.515.252.683s.4.25.693.25c.234 0 .437-.034.607-.106s.313-.174.427-.307c.113-.132.2-.286.256-.463.057-.177.085-.37.085-.58v-2.63h.766v4.654h-.72zM23.01 56.257c.096-.297.24-.555.432-.774.192-.22.43-.392.71-.518.283-.126.607-.188.973-.188.372 0 .697.062.977.188s.514.3.707.518c.19.22.335.478.43.774.097.297.145.616.145.958s-.048.66-.144.954c-.095.293-.24.55-.43.77-.193.218-.43.39-.708.512-.28.123-.604.185-.977.185-.366 0-.69-.062-.972-.185-.282-.122-.52-.294-.71-.513s-.337-.477-.433-.77c-.096-.295-.144-.613-.144-.955s.05-.66.144-.958zm.78 1.71c.074.22.177.402.31.55.132.146.286.26.463.337.177.078.364.116.562.116.198 0 .385-.038.562-.116.177-.078.332-.19.463-.338.132-.146.235-.33.31-.55s.114-.47.114-.75c0-.282-.038-.533-.113-.752s-.178-.403-.31-.554-.287-.264-.463-.342c-.177-.078-.365-.117-.562-.117-.198 0-.386.04-.562.118-.177.078-.332.19-.463.342-.132.15-.236.335-.31.554-.076.22-.114.47-.114.75 0 .284.038.535.113.753zm-.023-5.36l1.26 1.46h.576l-.864-1.46h-.973z"/></g><g fill="#231815"><path d="M60.937 60.16c-.09.227-.178.42-.265.575-.087.155-.183.283-.288.382-.105.1-.222.172-.35.217s-.28.067-.446.067c-.09 0-.18-.005-.27-.018-.09-.012-.177-.033-.26-.062v-.702c.065.03.142.056.228.076.087.02.16.032.22.032.157 0 .287-.038.392-.113s.185-.182.24-.32l.314-.782-1.845-4.625h.864l1.36 3.808h.018l1.305-3.808h.81l-2.026 5.274zM62.602 53.4h3.07v.495H62.6V53.4zm1.143 6.138v-4.653h.765v4.653h-.765zM66.876 53.112v2.457h.018c.06-.146.144-.267.252-.366.108-.1.23-.18.365-.242.136-.063.277-.11.424-.14s.29-.045.428-.045c.306 0 .56.042.765.126s.37.2.495.35c.126.15.214.33.266.537.05.207.077.437.077.688v3.06H69.2v-3.15c0-.288-.084-.516-.252-.684s-.4-.252-.693-.252c-.234 0-.436.036-.607.108-.17.07-.313.174-.427.306-.113.132-.2.286-.256.463-.057.177-.085.37-.085.58v2.628h-.766v-6.426h.762zM74.32 59.538V58.8h-.02c-.16.288-.368.5-.62.635s-.55.202-.89.202c-.307 0-.563-.04-.766-.12-.204-.082-.37-.197-.495-.348-.127-.15-.215-.33-.267-.536-.05-.207-.076-.437-.076-.688v-3.06h.765v3.15c0 .287.084.515.252.683s.4.25.693.25c.234 0 .437-.034.607-.106s.313-.174.427-.307c.115-.132.2-.286.258-.463.057-.177.085-.37.085-.58v-2.63h.765v4.654h-.72zM76.443 54.066l-.927-1.287h.747l.62.89.63-.89h.694l-.927 1.286h-.837zm.036 5.472h.764v-4.653h-.765v4.653zM79.377 54.884v.98h.018c.186-.377.414-.656.684-.836.27-.18.61-.265 1.025-.252v.81c-.306 0-.567.042-.783.126-.216.084-.39.207-.522.37s-.228.357-.288.59c-.06.23-.09.495-.09.795v2.07h-.765v-4.653h.72z"/></g><path fill="#231815" d="M204.227 58.88c-.128.064-.288.257-.48.576 2.032 2.05 3.6 3.536 4.704 4.464 1.105.93 2.08 1.604 2.93 2.028.848.424 2.016.868 3.504 1.332.528.16.792.304.792.432 0 .05-.072.097-.217.145-.145.048-.68.1-1.608.156-.928.056-1.62.084-2.076.084-.455 0-.824-.052-1.104-.156-.28-.103-.584-.307-.912-.61-.328-.305-1.26-1.353-2.796-3.145s-2.688-3.2-3.456-4.225c-1.088 1.97-2.38 3.748-3.876 5.34-1.497 1.593-2.853 2.732-4.068 3.42-1.216.69-1.976 1.032-2.28 1.032-.128 0-.19-.048-.19-.144s.103-.2.31-.312c1.73-1.056 3.38-2.495 4.956-4.32s2.672-3.363 3.288-4.62.892-2.1.828-2.53c-.017-.112-.024-.21-.024-.29 0-.287.116-.43.35-.43.23 0 .607.143 1.127.43s.778.553.778.793-.162.422-.48.55zm-5.832-36.863c.416 1.088.584 2.016.505 2.784.543.097 1.135.265 1.775.505 2.287.832 3.976 1.367 5.064 1.607 1.087.24 2.23.36 3.43.36 1.2 0 2.21-.01 3.024-.024l2.185-.07c.463 0 .695.062.695.19 0 .224-.837.632-2.508 1.225-1.673.59-2.772.888-3.3.888-.257 0-.517-.035-.78-.107-.265-.07-1.354-.476-3.265-1.212-1.912-.735-3.416-1.343-4.512-1.823-1.097-.48-1.992-.72-2.688-.72-.695 0-1.548.256-2.556.77-.144.062-.288.095-.433.095-.32 0-.615-.147-.888-.444-.272-.296-.407-.512-.407-.647s.176-.203.527-.203.89-.092 1.607-.276c.72-.183 1.205-.275 1.453-.275s.508.01.78.024c-.08-.8-.297-1.52-.65-2.16-.27-.545-.406-1.053-.406-1.524s.074-.92.227-1.345c.152-.423.23-.67.23-.742 0-.072-.033-.108-.097-.108-.13 0-.457.136-.984.408-.13.063-.32.096-.576.096s-.568-.056-.936-.168c-.37-.11-.553-.228-.553-.348s.113-.212.337-.276c.977-.24 1.752-.567 2.328-.984.288-.207.528-.308.72-.3.192.01.536.16 1.032.456.496.297.744.564.744.804 0 .097-.047.2-.143.312-.77.85-1.152 1.632-1.152 2.352.002.285.057.58.17.885zm12.55 20.016c.753 0 1.433.18 2.042.54.607.36.912.684.912.972 0 .353-.442.528-1.32.528-.24 0-.577-.024-1.01-.072-.432-.047-1.063-.07-1.895-.07-1.856 0-3.957.128-6.3.384s-4.42.592-6.23 1.008c-.335.08-.663.12-.982.12-.32 0-.76-.172-1.32-.517-.56-.344-.84-.636-.84-.876 0-.272.283-.38.852-.324.568.056 1.172.084 1.812.084 1.312 0 3.516-.2 6.61-.6 3.097-.4 5.025-.696 5.785-.89s1.388-.287 1.884-.287zm-9.262 44.688c0 .13-.032.31-.096.54-.064.232-.145 1.057-.24 2.473s-.275 2.828-.54 4.236c-.265 1.406-.78 2.583-1.548 3.526-.77.944-1.642 1.68-2.617 2.208-.976.528-1.584.792-1.823.792-.13 0-.192-.044-.192-.132s.104-.212.312-.372c2.032-1.424 3.38-2.884 4.045-4.38.663-1.496.995-3.748.995-6.756 0-1.488-.192-2.432-.575-2.832-.145-.16-.217-.312-.217-.456 0-.145.116-.216.348-.216.232 0 .564.112.996.336.433.224.732.404.9.54s.25.3.25.493zm-.145-15.767c0-.08-.008-.15-.023-.216-1.088.144-1.836.256-2.244.336s-.778.12-1.114.12-.717-.088-1.14-.264c-.425-.178-.637-.325-.637-.445s.234-.18.707-.18c.472 0 1.836-.156 4.092-.47 2.255-.31 3.85-.583 4.787-.814.937-.23 1.588-.348 1.956-.348.367 0 .792.093 1.27.276.48.185.722.372.722.564 0 .304-.625.48-1.873.527-1.247.047-3.264.256-6.047.623.943.4 1.416.76 1.416 1.08 0 .16-.155.31-.468.444-.312.136-1.516 1.14-3.61 3.012 1.55-.225 3.814-.48 6.79-.77-.48-.8-.795-1.31-.947-1.535s-.23-.38-.23-.468.04-.133.122-.133c.223 0 .77.293 1.644.876.873.585 1.504 1.137 1.897 1.656s.588 1.116.588 1.788-.184 1.008-.552 1.008c-.177 0-.345-.092-.504-.275-.16-.185-.72-.996-1.682-2.437-1.887.288-3.504.616-4.848.984s-2.256.704-2.736 1.008c-.48.304-.812.456-.995.456-.186 0-.35-.232-.493-.696s-.216-.776-.216-.936c0-.16.073-.292.217-.396.144-.104.512-.243 1.104-.42.288-.096.868-.647 1.74-1.656.873-1.005 1.308-1.773 1.308-2.3zm-1.775-57.24c0 .287-.06.552-.18.79-.12.24-.31.36-.564.36s-.7-.463-1.333-1.39-.947-1.478-.947-1.646.104-.252.312-.252c.512 0 1.092.192 1.74.576.646.387.97.907.97 1.562zm6.767 52.272c0 .128-.104.256-.312.384s-.864.31-1.968.55c-1.104.24-2.045.36-2.82.36-.776 0-1.288-.066-1.536-.203-.248-.136-.372-.243-.372-.324 0-.128.145-.19.432-.19.29 0 .748-.07 1.38-.205.633-.136 1.165-.276 1.597-.42 1.01-.336 1.737-.504 2.185-.504.448 0 .797.06 1.045.18s.37.243.37.37zm2.377-54.528c-.273.832-.408 2.01-.408 3.528.286-.032.79-.14 1.51-.324.72-.183 1.253-.274 1.597-.274s.672.116.984.348c.313.232.47.444.47.636s-.133.336-.397.433c-.264.096-.592.124-.984.084s-.82-.06-1.285-.06-1.096.04-1.896.12c.062 2.16.122 3.79.18 4.895.055 1.104.083 1.816.083 2.137 0 .847-.16 1.567-.48 2.16s-.584.887-.79.887c-.21 0-.41-.12-.602-.36-.512-.624-1.088-1.248-1.727-1.872-.177-.176-.264-.304-.264-.384s.07-.12.214-.12c.145 0 .376.033.696.098.32.063.597.096.828.096s.4-.068.504-.204.18-1.036.228-2.7c.05-1.664.064-3.15.05-4.464-1.025.192-2.266.44-3.722.744-.32.08-.644.12-.972.12s-.676-.108-1.044-.324-.552-.384-.552-.504.264-.196.792-.23c1.904-.158 3.735-.398 5.496-.72-.096-2.575-.377-4.2-.84-4.87-.16-.225-.24-.412-.24-.564s.123-.23.372-.23c.247 0 .696.13 1.344.385.647.257.972.576.972.96 0 .142-.04.334-.12.574zm-6.217 6.552c.305 0 .768.194 1.393.587.623.392.936.86.936 1.403 0 .288-.077.528-.23.72-.15.192-.3.29-.443.29s-.264-.04-.36-.12c-.096-.08-.268-.313-.516-.697s-.47-.796-.67-1.236c-.2-.44-.3-.708-.3-.804s.062-.144.19-.144zm10.537 76.366c.048-.24.112-.36.192-.36s.14.197.18.59.12.915.24 1.57c.118.657.235 1.145.347 1.465s.168.56.168.72c0 .48-.468.893-1.404 1.237-.935.344-2.05.516-3.347.516-1.296 0-2.264-.192-2.904-.576-.64-.384-1.125-.932-1.452-1.644-.328-.712-.492-1.668-.492-2.868s.035-2.9.107-5.1c.072-2.2.108-3.38.108-3.54 0-1.137-.11-1.845-.335-2.124-.224-.28-.336-.507-.336-.684 0-.176.13-.264.395-.264s.725.176 1.38.527c.656.352.984.687.984 1.008 0 .128-.045.26-.133.396-.088.137-.23.536-.42 1.2-.192.664-.364 1.908-.516 3.732-.15 1.823-.228 3.224-.228 4.2 0 1.52.244 2.575.732 3.167.487.593 1.428.89 2.82.89.91 0 1.623-.113 2.135-.337.51-.225.88-.588 1.103-1.093.225-.503.45-1.378.674-2.627z"/><g fill="#231815"><path d="M218.015 17.26c-.378-.35-.566-.895-.566-1.64 0-.215.022-.436.07-.66.05-.226.127-.43.234-.613.108-.183.25-.335.423-.455.175-.12.388-.186.64-.198v.765c-.14.005-.255.048-.352.13-.096.08-.174.18-.233.296-.06.117-.104.245-.13.383-.028.137-.04.27-.04.395 0 .252.042.465.13.64.086.173.206.317.36.43.15.115.336.198.553.25.216.05.452.076.71.076h.307v-.017c-.288-.132-.5-.332-.635-.6-.135-.266-.202-.55-.202-.85 0-.348.062-.65.188-.91.126-.257.296-.473.51-.647.212-.174.46-.305.746-.392s.586-.13.903-.13c.276 0 .56.036.85.108.292.072.556.192.793.36s.433.39.585.666c.154.276.23.615.23 1.017 0 .294-.064.564-.193.81-.13.246-.322.438-.58.576v.01h.666v.72h-4.257c-.763 0-1.332-.173-1.71-.52zm2.092-.977c.105.177.243.32.414.428s.365.19.582.24c.216.05.432.076.647.076.203 0 .404-.024.603-.072.197-.048.376-.125.535-.23.16-.104.286-.24.383-.41.097-.167.145-.37.145-.61 0-.247-.047-.457-.14-.63-.093-.175-.218-.317-.373-.428-.156-.11-.336-.192-.54-.243s-.417-.077-.64-.077c-.21 0-.42.02-.63.063s-.4.113-.57.215-.31.237-.415.405c-.104.168-.157.378-.157.63s.053.466.157.643zM219.33 22.155h.737v-.018c-.288-.162-.5-.37-.635-.62s-.202-.55-.202-.892c0-.306.04-.562.12-.765.082-.204.197-.37.348-.495.15-.126.328-.214.535-.266.207-.052.437-.077.688-.077h3.062v.765h-3.15c-.288 0-.516.084-.684.252s-.252.4-.252.693c0 .234.035.437.107.607s.174.313.307.427c.132.114.286.2.463.257.177.057.37.085.58.085h2.63v.764h-4.654v-.72zM222.61 24.018c.296.096.554.24.773.432.22.192.392.43.518.71.127.283.19.607.19.973 0 .372-.063.697-.19.977-.125.28-.298.514-.517.707-.22.192-.478.336-.774.432-.298.095-.617.143-.96.143s-.66-.048-.953-.144c-.294-.097-.55-.24-.77-.433-.22-.192-.39-.428-.513-.707-.123-.28-.185-.604-.185-.977 0-.366.06-.69.184-.972.122-.28.294-.518.513-.71s.476-.336.77-.432c.294-.096.612-.144.954-.144s.662.048.96.144zm-1.71.78c-.22.074-.403.177-.55.31-.147.132-.26.286-.338.463-.078.178-.116.365-.116.563 0 .198.038.385.116.562.078.177.19.332.338.463.146.132.33.235.55.31s.47.114.75.114c.282 0 .533-.038.752-.113s.403-.18.554-.312.264-.287.342-.463c.078-.177.117-.365.117-.562 0-.198-.04-.386-.117-.562-.078-.176-.19-.33-.342-.462-.15-.132-.335-.236-.554-.31-.22-.076-.47-.114-.75-.114-.283 0-.534.038-.753.113zm5.36-.024l-1.46 1.26v.576l1.46-.864v-.972z"/></g><g fill="#231815"><path d="M218.708 62.944c-.228-.09-.42-.178-.576-.265-.155-.088-.283-.184-.382-.29-.1-.104-.172-.222-.217-.35s-.067-.278-.067-.446c0-.09.006-.18.02-.27.01-.09.032-.178.06-.262h.703c-.03.066-.057.143-.077.23-.02.086-.032.16-.032.22 0 .156.04.286.114.392s.182.185.32.238l.782.315 4.626-1.845v.863l-3.808 1.36v.017l3.808 1.306v.81l-5.274-2.024zM219.33 65.752h4.652v.766h-4.653v-.766zm6.137-1.142v3.068h-.495V64.61h.495zM225.755 68.884h-2.457v.02c.145.06.266.143.365.25.1.108.18.23.242.365.063.134.11.275.14.422s.045.29.045.428c0 .306-.042.56-.126.765s-.2.37-.35.495c-.15.126-.33.215-.537.266s-.437.076-.688.076h-3.06v-.765h3.15c.287 0 .515-.084.683-.252s.252-.4.252-.693c0-.233-.036-.437-.108-.607-.07-.17-.174-.313-.306-.427-.13-.115-.285-.2-.462-.258-.178-.057-.37-.085-.58-.085h-2.63v-.765h6.427v.764zM219.33 76.327h.737v-.018c-.288-.163-.5-.37-.635-.622s-.202-.55-.202-.89c0-.308.04-.563.12-.767.082-.202.197-.368.348-.493.15-.127.328-.215.535-.266s.437-.075.688-.075h3.062v.764h-3.15c-.288 0-.516.083-.684.25s-.252.4-.252.694c0 .234.035.438.107.607.072.173.174.315.307.43.132.113.286.198.463.256.177.057.37.085.58.085h2.63v.767h-4.654v-.72zM223.982 78.487v.766h-4.653v-.766h4.652zm.82.8l1.286.93v-.694l-.89-.63.89-.62v-.748l-1.287.928v.835zM223.982 81.385h-.98v.018c.377.187.656.414.836.685.18.27.265.612.252 1.026h-.81c0-.307-.042-.567-.126-.783-.084-.216-.207-.39-.37-.52s-.357-.23-.59-.29c-.23-.06-.495-.09-.795-.09h-2.07v-.765h4.652v.72z"/></g></svg>