<svg xmlns="http://www.w3.org/2000/svg" width="166.292" height="435.955" viewBox="0 0 166.292 435.955"><path d="M128.29 392.434l1.23 1.104h3.215l.57-.768 1.05.72c.044.024.067.12.067.24 0 .24-.092.408-.297.48-.182.07-.25.168-.25.216v15.48c0 .29-.524.457-.82.457-.23 0-.32-.145-.32-.433v-1.416h-3.305v2.328c0 .312-.274.384-.912.553-.16 0-.23-.192-.23-.553v-18.408zm1.14 8.136h3.305v-6.29h-3.305v6.29zm0 7.225h3.305v-6.48h-3.305v6.48zm6.383-7.897l-.183-.72h4.947v-3.865h-5.562l-.183-.744h5.745v-3.24l1.186.214c.342.05.5.192.5.385 0 .19-.113.335-.272.383-.18.072-.27.192-.27.36v1.896h3.737l1.437-1.25 1.46 1.13c.113.07.182.216.182.384 0 .312-.23.48-.524.48h-6.29v3.863h2.757l1.436-1.27 1.46 1.15c.113.072.182.217.182.36 0 .264-.183.48-.524.48h-11.22zm7.614 3.768v-3.048l1.162.168c.386.048.59.216.59.432 0 .217-.113.337-.32.36-.203.048-.294.145-.294.288v1.8h1.322l1.412-1.176 1.322 1.056c.09.072.16.217.16.36 0 .265-.138.504-.502.504h-3.716v7.657c0 .288-.183.6-.502.936-.296.312-.912.528-1.732.624 0-.888-.957-1.32-1.527-1.56-.183-.048-.25-.145-.25-.265 0-.19.204-.168.296-.144l2.052.288.41-.048c.046-.048.114-.168.114-.312v-7.177h-8.23l-.182-.746h8.412zm-3.853 5.713c-.068.262-.364.36-.48.36-.34 0-.5-.29-.546-.41-.456-1.56-1.3-3-2.143-3.528-.068-.048-.092-.12-.092-.192 0-.12.046-.215.183-.215.456 0 2.735 1.968 3.077 3.336v.65zm-11.102-39.753l1.05.912h1.23l.684-2.14.273-1.823v-.744l1.366.12c.273.048.41.168.41.336s-.068.287-.23.335l-.318.192-.8 2.112-.773 1.607h2.986l.548-.77 1.05.722c.067.047.09.12.09.24 0 .31-.25.43-.32.454-.18.072-.25.168-.25.24v14.065c0 .12-.113.24-.228.31-.798.17-.89.17-.89-.287V384.1h-4.74v2.232c0 .312-.274.384-.912.552-.16 0-.23-.19-.23-.552v-16.705zm1.14 7.465h4.742v-5.833h-4.742v5.83zm0 6.288h4.742v-5.545h-4.742v5.545zm11.9 2.304c1.14.385 1.983.6 2.462.6.524 0 .957-.815 1.186-1.367.25-.648 1.186-4.297 1.186-13.753h-6.885l-.295.768c-1.117 2.664-2.576 4.488-2.78 4.488-.07 0-.16-.07-.16-.19 0-.073.022-.146.068-.217 2.21-3.577 3.282-7.777 3.282-10.153l1.322.096c.297.024.434.145.434.336 0 .192-.113.336-.272.336-.183 0-.297.072-.297.17-.272 1.223-.637 2.47-1.047 3.646h6.61l.616-.624.91.744c.114.097.16.216.16.336-.023.145-.137.265-.273.312-.25.072-.25.19-.25 1.224 0 6.433-.662 11.28-1.255 12.817-.75 1.872-1.526 2.376-2.917 2.52-.114-.96-.844-1.367-1.938-1.607-.114-.024-.183-.096-.183-.192 0-.12.09-.288.273-.288h.047zm-2.53-10.393c0-.07.045-.214.182-.214.548 0 3.26 3.097 3.26 4.536 0 .217-.09.793-.523.793-.432 0-.546-.384-.57-.48-.432-1.943-1.274-3.647-2.255-4.464-.07-.05-.092-.096-.092-.17zm-6.27-30.87l1.46-1.248 1.436 1.152c.113.048.182.192.182.36 0 .312-.228.48-.5.48h-7.318l-.183-.744h4.92zm-4.24 9.12l1.117.84h3.67l.59-.67 1.05.72c.09.047.137.143.137.24 0 .12-.09.335-.364.407-.183.048-.274.168-.274.288v6.768c0 .145-.09.265-.23.337-.73.19-.89.216-.89-.337v-1.704h-3.67v1.68c0 .12-.09.24-.272.31-.753.193-.867.218-.867-.36v-8.52zm3.533-5.736l1.46-1.272 1.436 1.152c.116.072.185.216.185.384 0 .336-.273.456-.524.456h-5.857l-.183-.72h3.485zm0 3.288l1.46-1.272 1.436 1.152c.116.072.185.216.185.36 0 .264-.183.48-.524.48h-5.857l-.183-.72h3.485zm0-9.673l1.46-1.25 1.436 1.152c.116.048.185.192.185.36 0 .312-.23.48-.524.48h-5.79l-.16-.744h3.396zm-2.393 18.29h3.67v-4.61h-3.67v4.61zm17.895 1.246c0 .408-.228 1.176-2.074 1.464-.16-.814-.388-1.103-2.143-1.68-.138-.047-.23-.12-.23-.24s.07-.19.206-.19h.068c1.186.264 2.006.384 2.462.384.205 0 .57 0 .57-.553v-17.88h-9.643l-.16-.743h9.803l.5-.648.89.77c.184.142.297.31.297.502s-.113.337-.296.41c-.16.07-.25.19-.25.287v18.12zm-5.882-15.505l1.437-1.247 1.46 1.152c.113.048.182.192.182.36 0 .312-.23.48-.524.48h-7.02l-.184-.744h4.65zm-4.262 3.12l1.003.745h3.967l.615-.672 1.026.72c.09.048.137.144.137.24 0 .12-.112.336-.34.408-.183.05-.297.17-.297.29v6.77c.023.142-.09.286-.228.334-.684.192-.89.24-.89-.336v-1.417H138.5v1.85c0 .12-.09.24-.272.336-.73.192-.866.216-.866-.384v-8.88zm1.14 6.36h3.852v-4.894h-3.853v4.896zm-4.446-20.86c1.46-.264 2.827-.625 4.013-.984.045 0 .068-.024.114-.024.296 0 .296.336.296.384 0 .096-.046.192-.16.216-3.715 1.488-7.796 2.16-9.096 2.304-.09 0-.182.144-.205.384-.024.24-.16.384-.344.384-.205 0-.364-.12-.433-.384l-.23-.912-.25-.888.98.12c.935.024 2.78-.12 4.172-.36v-2.592h-4.582l-.183-.744h4.766v-2.472h-3.055v1.128c0 .12-.09.216-.25.312-.75.192-.89.216-.89-.36v-8.52l1.005.743h3.19v-1.992h-4.764l-.18-.744h4.945v-2.09h-.114c-1.526.192-2.85.29-3.99.29-.477 0-.682 0-.682-.29 0-.168.09-.264.25-.264 3.283-.264 6.748-.864 8.55-1.92l1.185.672c.16.095.25.215.25.31 0 .12-.158.337-.41.337-.067 0-.41-.096-.478-.096s-.114 0-.137.024c-1.003.336-2.098.6-3.283.768v2.256h2.485l1.458-1.273 1.436 1.152c.114.07.183.215.183.383 0 .312-.228.48-.5.48h-5.063v1.992h3.032l.593-.672 1.047.72c.09.048.137.144.137.24 0 .12-.092.336-.365.408-.183.05-.297.17-.297.29v6.672c.022.144-.068.288-.205.36l-.366.072 1.186.96c.114.072.183.216.183.384 0 .312-.23.48-.523.48h-4.424v2.352zm-1.14-11.546h-3.055v2.28h3.055v-2.28zm0 2.977h-3.055v2.306h3.055V325.5zm1.14-.694h3.055v-2.28h-3.055v2.28zm0 3h3.055V325.5h-3.055v2.305zm0 3.168h2.257l1.322-1.08c-.433.072-.524.024-.524-.432v-.936h-3.055v2.45zm13.884-9.817c.115.072.16.216.16.36-.02.144-.136.264-.295.288-.114.048-.23.216-.23.432 0 .552.024 1.104.024 1.632 0 5.255-.457 9.05-.98 10.49-.686 1.727-1.323 2.134-2.737 2.35-.068-.96-.91-1.27-1.527-1.44-.113-.023-.182-.095-.182-.215 0-.144.113-.264.25-.264h.046c.98.265 1.687.41 2.097.41s.82-.745 1.003-1.225c.25-.6.98-4.057.866-12.193h-3.374l-.09 2.76c-.138 2.113-.686 7.033-3.17 10.01-1.368 1.584-2.78 2.256-2.896 2.256-.09 0-.205-.072-.205-.216 0-.072.048-.168.116-.192 3.647-2.592 4.81-7.777 5.06-12.05l.07-2.567h-2.51l-.386-.743h2.94l.02-6.025 1.323.264c.32.047.48.19.48.383s-.114.336-.32.384l-.318.168-.068 4.825h3.306l.615-.624.913.743zm-17.257-24.487c-1.162 2.015-2.69 3.695-2.918 3.695-.068 0-.182-.096-.182-.192 0-.072.045-.144.09-.216 3.01-3.96 4.492-8.545 4.675-10.705l1.276.264c.296.048.433.168.433.336 0 .096 0 .336-.32.336-.18 0-.295.048-.295.12-.524 1.728-1.208 3.384-2.006 4.968.774.264.866.288.866.456 0 .096-.068.216-.23.288-.158.096-.25.216-.25.288v14.69c0 .143-.09.263-.272.287-.73.192-.867.216-.867-.288V296.67zm9.097-2.905h-2.234l-.66 1.56c-1.072 2.257-2.76 4.37-3.078 4.37-.114 0-.183-.097-.183-.193 0-.072.045-.144.09-.216 2.69-3.696 3.717-7.993 3.922-9.53v-.575l1.322.194c.295.048.432.192.432.384s-.137.312-.297.312c-.182 0-.32.047-.32.143-.25.936-.568 1.92-.934 2.856h7.98l1.413-1.274 1.39 1.08c.138.144.23.312.23.456 0 .168-.092.456-.456.456h-7.478v4.607h4.103l1.413-1.25 1.368 1.08c.16.145.25.313.25.457 0 .288-.205.456-.455.456h-6.68v4.513h4.103l1.413-1.27 1.368 1.08c.16.144.25.336.25.48 0 .29-.205.432-.455.432h-6.68v6.72c0 .337-.82.433-.867.433-.183 0-.273-.144-.273-.432v-17.33zm6.383-9.63c0 .72-.64 1.224-2.074 1.488-.07-.816-.48-1.128-1.87-1.608-.16-.048-.207-.144-.207-.24 0-.048 0-.192.183-.192h.068c1.026.192 1.778.288 2.188.288.23 0 .57 0 .57-.55v-6.553h-6.247v8.497c0 .36-.82.456-.866.456-.183 0-.274-.145-.274-.457v-8.52h-6.314c0 1.08-.64 3.983-1.39 5.64-.457 1.032-1.62 3.216-2.03 3.216-.113 0-.16-.146-.16-.218 0-.048.023-.096.047-.144 1.73-3 2.803-6.36 2.803-16.01v-5.16l1.026.815h13.403l.524-.648.89.77c.182.143.295.31.295.503s-.113.336-.296.408c-.183.072-.273.192-.273.288v17.93zm-8.527-12.89h-5.95c-.045 1.73-.136 3.36-.273 4.8h6.224v-4.8zm0-5.615h-5.904v4.896h5.904v-4.896zm1.14 4.896h6.247v-4.896h-6.247v4.896zm0 5.52h6.247v-4.8h-6.247v4.8zm-2.394-23.358c1.026-.744 2.188-1.944 2.188-3.528-.25.144-.48.24-.752.24-1.003 0-1.642-.768-1.642-1.584 0-.936.548-1.728 1.642-1.728.89 0 1.96.6 1.96 2.4 0 1.92-1.276 3.433-3.054 4.705l-.342-.505zm-8.32-29.113l-.183-.72h11.92c.32-.576.66-1.272.957-2.017l.523-1.776.092-.744 1.345.408c.228.096.342.216.342.36 0 .312-.25.312-.297.312l-.343.12-1.048 1.968-.912 1.368h4.992l1.437-1.272 1.46 1.152c.112.072.18.216.18.36 0 .264-.182.48-.523.48H128.06zm.89-6l-.183-.72h8.433v-2.688l1.162.216c.365.048.524.192.524.384s-.115.336-.297.384c-.183.05-.273.194-.273.36v1.346h5.7l1.46-1.272 1.435 1.152c.114.072.183.216.183.36 0 .264-.183.48-.502.48H128.95zm2.985 7.73l.866.647h9.712l.593-.672 1.05.744c.09.048.136.12.136.216s-.092.336-.365.408c-.16.048-.275.168-.275.288v9.12c.022.145-.09.265-.228.337-.685.192-.89.24-.89-.336v-1.128h-9.46v.91c0 .12-.092.24-.274.336-.752.168-.866.192-.866-.384v-10.49zm2.188-3.386c-.16-1.25-.73-2.546-1.3-3.05-.067-.048-.09-.12-.09-.19 0-.074.067-.194.204-.194.546 0 2.3 2.304 2.3 2.977 0 .408-.067.936-.546.936-.296 0-.524-.266-.57-.48zm-1.047 4.75v3.312h9.46v-3.312h-9.46zm0 4.033v3.504h9.46v-3.504h-9.46zm-.228-37.616l1.32-1.08 1.187.96c.09.072.16.216.16.36 0 .312-.23.48-.502.48h-7.227l-.16-.72h5.22zm-.8 6.745l1.323-1.08 1.163.96c.113.072.182.216.182.384 0 .312-.228.48-.5.48h-5.61l-.182-.744h3.625zm-3.578 2.472l1.003.72h3.625l.5-.816.913.672c.137.096.183.264.183.408-.022.144-.114.288-.25.336-.115.048-.206.144-.206.24v5.856c0 .312-.09.336-.844.552-.182 0-.296-.168-.296-.552v-1.176h-3.488v1.56c0 .12-.09.24-.273.336-.777.192-.868.216-.868-.384v-7.752zm3.488-5.736l1.322-1.08 1.162.96c.114.072.183.192.183.36 0 .216-.114.48-.502.48H128.7l-.183-.72h3.443zm.09-6.865l1.323-1.08 1.163.984c.113.048.182.192.182.36 0 .312-.228.48-.5.48h-5.45l-.16-.744h3.443zm-2.438 18.098h3.488v-4.055h-3.488v4.057zm10.874 1.13c.16.096.25.24.25.36 0 .096-.09.36-.34.36-.047 0-.39-.072-.457-.072-.777.336-1.69.648-2.715.84-1.05.216-1.915.288-2.6.288-.182 0-.272-.048-.272-.192s.045-.24.16-.24c1.73-.096 4.468-1.2 5.06-1.944l.912.6zm-3.693-15.674l-.183-.72h4.673v-1.44h-5.47l-.184-.72h5.65v-1.944l1.187.217c.365.047.502.19.502.383s-.093.337-.274.385c-.274.096-.274.192-.274.96h3.215l1.437-1.272 1.46 1.152c.112.072.158.192.158.336 0 .05 0 .097-.022.145-.022.215-.204.36-.478.36h-5.768v1.44h2.144l1.436-1.273 1.46 1.152c.113.07.182.19.182.36 0 .287-.205.48-.524.48h-10.33zm9.94 1.248l.5-.84.913.696c.137.095.182.263.182.383-.022.144-.113.288-.25.336-.137.07-.23.166-.23.262v3.984c0 .288-.09.312-.842.528-.183 0-.274-.168-.274-.528v-.816h-9.552c0 .745 0 .817-.273.96-.774.193-.866.217-.866-.383v-5.328l1.005.742h9.688zm-9.553 3.265h2.417v-2.545h-2.417v2.544zm.365 1.535l1.003.72h6.11l.592-.648 1.05.72c.09.048.136.144.136.24 0 .024 0 .288-.365.384-.18.05-.27.17-.27.29v7.056c.045.288-.16.336-.8.504-.317 0-.317-.217-.317-1.153h-5.996c0 .744 0 .816-.273.96-.73.192-.866.216-.866-.384v-8.69zm1.14 1.44v1.536h5.996v-1.535h-5.994zm0 2.256v1.44h5.996V203h-5.994zm0 2.16v1.514h5.996v-1.512h-5.994zm2.052-7.39h2.416v-2.545h-2.416v2.544zm3.077 10.85c1.665.046 4.24.72 4.24 1.654 0 .264-.205.552-.48.552-.158 0-.363-.072-.592-.192-1.71-.984-3.647-1.44-4.422-1.608-.138-.024-.23-.12-.23-.24s.07-.168.206-.168h1.278zm.48-10.85h2.437v-2.545h-2.436v2.544zm-14.134-26.385c-.775 1.44-2.166 3.36-2.395 3.36-.068 0-.182-.048-.182-.192 0-.072.022-.144.068-.216 2.737-4.128 3.923-8.81 3.923-11.04l1.3.167c.318.024.478.168.478.36s-.136.288-.32.288-.295.072-.295.168c-.387 1.752-.957 3.48-1.664 5.16.617.216.686.216.686.408 0 .096-.068.216-.205.264-.16.096-.25.216-.25.312v14.497c0 .146-.092.24-.273.29-.73.19-.866.216-.866-.29v-13.534zm4.718-8.04l1.23 1.103h10.26l.546-.768 1.05.72c.067.048.09.12.09.24 0 .288-.182.432-.318.456-.16.072-.23.168-.23.24v19.226c0 .12-.113.24-.25.312-.752.192-.89.216-.89-.288v-1.224h-10.35v1.488c0 .288-.25.36-.91.528-.16 0-.23-.192-.23-.528v-21.506zm1.14 19.297h10.35V165.17h-10.35v17.472zm2.074-9.72l1.003.72h1.573v-3.505h-3.51l-.184-.72h3.693v-3.264l1.186.24c.342.048.5.192.5.384s-.112.312-.295.36c-.16.072-.25.216-.25.384v1.898h1.367l1.254-1.296 1.184 1.153c.113.096.16.24.16.384 0 .215-.16.48-.48.48h-3.488v3.503h1.437l.524-.815.912.672c.136.096.18.264.18.408-.02.144-.112.264-.25.312-.137.072-.23.168-.23.264v6.05c0 .312-.09.336-.842.552-.183 0-.297-.168-.297-.552v-1.2h-4.034v.912c0 .12-.068.24-.25.336-.775.192-.867.216-.867-.384v-7.273zm1.117 5.687h4.033v-4.25h-4.035v4.25zm-9.757-36.585l1.14 1.008h6.862v-3.48h-9.393l-.183-.744h17.666l1.436-1.274 1.46 1.152c.113.07.182.215.182.383 0 .313-.228.48-.524.48h-9.505v3.48h7.158l.5-.647.89.768c.183.145.297.313.297.48 0 .193-.114.36-.296.433-.183.072-.274.192-.274.288v13.8c0 .53-.364 1.2-2.05 1.466l-.275-.624c-.137-.192-.66-.432-1.527-.696-.137-.048-.205-.144-.205-.288.023-.12.092-.168.183-.168h.046c.66.072 1.208.12 1.618.12.752 0 1.095-.072 1.095-.624V143.75h-7.158v15.24c0 .29-.502.458-.866.458-.18 0-.27-.144-.27-.456v-15.24h-6.863v15.456c0 .288-.205.336-.935.528-.136 0-.204-.168-.204-.528v-17.185zm5.357 4.37c.113.07.182.167.182.287 0 .168-.137.384-.387.384-.206.024-.297.144-.297.288.137.984.388 1.896.707 2.736.228.624.774 2.16 2.097 3.24.16.264.16.264-.296.312-.273.024-.502.192-.615.456-.09.192-.18.312-.25.312-.045 0-.614-.864-1.05-1.968l-.59-1.872c-.89 2.208-2.78 3.792-2.897 3.792-.09 0-.16-.144-.16-.216 0-.048.023-.072.047-.096 1.55-1.705 2.644-4.945 2.644-5.593l-.16-1.416h-2.233l-.136-.72h2.166l.5-.574.73.65zm8.274-.098c.114.072.183.192.183.312 0 .166-.16.36-.388.382-.184 0-.298.12-.298.264.137.984.364 1.896.615 2.736.64 1.824 1.3 2.568 2.03 3.24.136.216.204.336-.298.336-.25 0-.5.167-.64.407-.09.192-.182.312-.25.312s-.66-1.033-1.003-1.97l-.502-1.727c-.82 1.968-2.872 3.77-3.032 3.77-.09 0-.16-.145-.16-.217 0-.048.023-.096.047-.12 1.528-1.536 2.805-4.776 2.805-5.496l-.137-1.584h-2.303l-.16-.72h2.28l.502-.576.707.647zM133.01 120.01c-2.372 3.433-4.766 5.256-4.97 5.256-.115 0-.184-.096-.184-.192 0-.072.045-.144.114-.216 1.87-1.848 3.51-3.913 4.787-6.12l1.527-2.857h-6.224l-.183-.742h6.726c.798-1.776.89-2.064 1.048-2.953l1.256.48c.25.072.365.216.365.36 0 .312-.136.312-.48.312-.112 0-.18.024-.204.072l-.798 1.73h9.575l1.436-1.25 1.46 1.127c.112.072.18.216.18.384 0 .313-.227.48-.523.48h-12.492c-.547 1.08-1.163 2.137-1.824 3.12l.41.36h9.69l.5-.646.89.768c.183.145.297.313.297.505 0 .168-.114.336-.296.408-.182.072-.25.192-.25.288v12.026c0 .67-.456 1.15-2.074 1.463l-.274-.672c-.136-.215-.66-.455-1.503-.743-.16-.048-.23-.144-.23-.288.023-.12.092-.17.205-.17h.068c.8.12 1.392.193 1.825.193.48 0 .844-.048.844-.6v-3.84h-9.553v5.616c0 .287-.206.335-.913.527-.16 0-.228-.168-.228-.528v-13.66zm1.14.073v3.12h9.55v-3.12h-9.55zm0 3.864v3.384h9.55v-3.382h-9.55zm8.16-30.487l1.254-.505.752 1.056c.068.098.09.194.09.266 0 .264-.34.264-.478.264l-.5.095c-1.255 1.008-2.577 1.848-3.968 2.424 0 .286 0 .454-.297.48-.205.046-.296.142-.296.286v2.184h6.68l1.436-1.27 1.46 1.15c.113.073.182.217.182.385 0 .336-.273.456-.524.456h-9.23v6.36c0 .29-.183.6-.502.94-.296.31-.91.527-1.732.623 0-.937-.98-1.368-1.642-1.656-.16-.048-.228-.144-.228-.24 0-.216.183-.216.32-.168l2.142.36.388-.05.114-.287v-5.88h-9.484l-.183-.72h9.666V96.58l1.07.144c1.366-.696 2.6-1.56 3.67-2.544h-10.92l-.344-.72h11.103zm-11.764-3.314l-.205 1.128c-.157.576-.727 2.232-1.616 2.232-.388 0-.593-.24-.593-.672 0-.144.184-.36.48-.6.844-.84 1.62-1.848 1.688-3.72 0-.096.068-.168.182-.168.09 0 .16.072.16.168v.912h7.09v-3.072l1.185.216c.342.048.5.192.5.384s-.113.336-.272.384c-.183.072-.273.192-.273.36v1.728h7.66l.728-.816.82 1.128c.138.144.23.288.23.456 0 .192-.115.456-.39.456-.067 0-.34-.048-.41-.048-.158 0-.295.048-.387.144-.43.552-1.82 2.16-2.05 2.16-.113 0-.205-.12-.205-.24 0-.048.023-.072.023-.096.593-.792 1.07-1.608 1.436-2.424h-15.777zm-2.666-12.894l-.16-.72h2.188l-.66-13.97 1.185.72.89-.647c.41-.384.82-.768 1.07-1.296l1.14.502c.23.072.32.216.32.36 0 .168-.16.384-.39.384l-.546.144-.89.6-1.55.65.137 3.456h.548l1.254-1.296 1.162 1.152c.114.096.16.24.16.384 0 .264-.23.48-.456.48h-2.645l.182 3.77h.34l1.255-1.273 1.162 1.152c.114.072.16.216.16.36 0 .24-.206.504-.456.504h-2.44l.23 3.862h3.35V61.22l1.005.863h5.22l.548-.624 1.025.742c.09.048.136.144.136.264 0 .216-.16.384-.318.456-.137.072-.23.216-.23.36v13.25H145l.25-3.865h-2.302l-.182-.744h2.553l.295-3.77h-2.668l-.182-.72h2.918l.273-3.96h-2.918l-.138-.72h3.077l.592-.72.797.77c.16.12.25.287.25.455 0 .19-.09.335-.272.383-.183.073-.297.217-.297.36l-.888 12.554h.046l1.253-1.32 1.186 1.152c.092.096.137.24.137.36 0 .264-.182.504-.456.504h-20.45zm6.77 1.13l1.07.647c.184.12.298.262.298.406 0 .024-.046.312-.32.312l-.318-.05c-.09 0-.183.025-.25.073-2.03 2.137-5.996 3.145-6.452 3.145-.137 0-.25-.048-.25-.192 0-.12.067-.192.182-.24 2.804-.792 4.833-2.473 5.86-3.72l.18-.384zm.912-1.85h5.106V62.83h-5.106v13.705zm2.416-11.45l1.117-1.103 1.003.96c.092.094.137.24.137.36 0 .214-.16.526-.455.526h-3.352l-.16-.744h1.71zm-1.413 2.81l.547.384h1.96l.343-.456.64.48.09.264c-.137.216-.16.24-.296.408v5.28c0 .12-.07.24-.207.288-.502.12-.57.144-.57-.264v-.96h-1.732v.936c0 .096-.067.192-.16.24-.546.12-.614.144-.614-.264v-6.336zm.775 4.704h1.732v-3.6h-1.732v3.6zm4.24 6.53c2.007.6 4.788 2.303 4.788 3.12 0 .287-.205.6-.524.6-.205 0-.388-.097-.615-.337-1.46-1.346-3.285-2.5-5.314-3.435-.137-.048-.183-.144-.183-.24.022-.12.114-.168.25-.168l1.597.457zM96.848 43.193l1.322-1.08 1.186.96c.09.072.16.216.16.36 0 .312-.23.48-.502.48h-7.227l-.16-.72h5.22zm-.798 6.745l1.322-1.08 1.163.96c.113.072.182.216.182.384 0 .312-.228.48-.5.48h-5.61l-.182-.744h3.625zm-3.58 2.472l1.004.72H97.1l.5-.816.912.672c.137.096.183.264.183.408-.022.144-.114.288-.25.336-.115.048-.206.144-.206.24v5.856c0 .312-.093.336-.846.552-.182 0-.296-.168-.296-.552V58.65h-3.49v1.56c0 .12-.09.24-.272.336-.775.192-.866.216-.866-.384V52.41zm3.49-5.737l1.32-1.08 1.163.96c.114.072.183.192.183.36 0 .216-.114.48-.502.48H92.7l-.183-.72h3.442zm.09-6.864l1.322-1.08 1.163.982c.113.048.182.192.182.36 0 .312-.228.48-.5.48h-5.45l-.16-.744h3.443zm-2.44 18.095h3.49V53.85h-3.49v4.056zm10.875 1.128c.16.096.25.24.25.36 0 .096-.09.36-.34.36-.047 0-.39-.072-.457-.072-.775.337-1.687.65-2.713.84-1.05.217-1.915.29-2.6.29-.182 0-.272-.05-.272-.193s.045-.24.16-.24c1.73-.096 4.468-1.2 5.06-1.944l.912.6zm-3.693-15.673l-.183-.72h4.67V41.2h-5.47l-.183-.72h5.653v-1.943l1.187.216c.365.048.502.192.502.384s-.094.336-.275.384c-.274.098-.274.194-.274.96h3.216l1.437-1.27 1.46 1.15c.112.074.158.194.158.338 0 .048 0 .096-.02.144-.024.217-.206.36-.48.36h-5.768v1.44h2.144l1.436-1.27 1.46 1.15c.113.073.182.193.182.36 0 .29-.205.48-.524.48h-10.328zm9.94 1.25l.5-.84.913.695c.137.096.183.264.183.384-.023.142-.114.286-.25.334-.138.072-.23.168-.23.264v3.983c0 .29-.09.313-.843.53-.183 0-.274-.168-.274-.528v-.816h-9.55c0 .744 0 .816-.273.96-.774.192-.866.216-.866-.384v-5.328l1.004.744h9.688zm-9.553 3.264h2.415V45.33h-2.417v2.544zm.363 1.536l1.003.72h6.11l.592-.648 1.048.72c.09.048.137.144.137.24 0 .024 0 .288-.365.384-.182.048-.273.168-.273.288v7.057c.046.29-.16.338-.798.506-.32 0-.32-.216-.32-1.152h-5.995c0 .744 0 .816-.273.96-.73.192-.867.216-.867-.384v-8.69zm1.14 1.44v1.536h5.995V50.85h-5.996zm0 2.256v1.44h5.995v-1.44h-5.996zm0 2.16v1.512h5.995v-1.512h-5.996zm2.052-7.392h2.416V45.33h-2.415v2.544zm3.077 10.848c1.665.048 4.24.72 4.24 1.656 0 .264-.205.552-.48.552-.158 0-.363-.072-.592-.192-1.71-.984-3.646-1.44-4.42-1.608-.14-.024-.23-.12-.23-.24s.068-.168.205-.168h1.278zm.48-10.848h2.437V45.33h-2.44v2.544zM94.067 20.852c-.957 2.016-2.234 3.624-2.394 3.624-.068 0-.183-.048-.183-.192 0-.072.023-.144.068-.216 2.668-4.225 3.647-9.097 3.647-11.185l1.3.096c.32.022.456.142.456.334 0 .192-.112.336-.295.336-.16 0-.273.073-.273.17-.34 1.703-.843 3.407-1.48 5.063.684.192.752.216.752.408 0 .098-.068.218-.205.29-.16.096-.25.216-.25.31v14.86c0 .144-.093.24-.275.288-.73.192-.866.216-.866-.288V20.852zm3.465-4.513l1.277.19c.362.05.545.192.545.384 0 .168-.114.36-.342.456-.23.097-.342.265-.342.433V32.54c0 .144-.09.288-.25.384-.205.048-.593.144-.64.144-.16 0-.25-.072-.25-.192V16.34zm10.966 5.543l1.39-1.272 1.392 1.08c.16.145.25.313.25.457 0 .264-.182.456-.48.456h-4.832c-.045 1.56-.137 2.928-.25 3.96h3.305l1.46-1.272 1.436 1.153c.112.072.18.216.18.384 0 .336-.272.456-.523.456h-5.197c1.23 2.784 3.215 4.8 6.064 5.665.09.023.137.095.137.19 0 .097-.18.193-.5.265-.32.072-.547.264-.615.504-.068.19-.137.287-.205.287-.092 0-3.717-1.873-5.403-6.913h-.23c-.318 1.465-.705 2.425-1.55 3.65-2.05 3-5.903 3.79-5.995 3.79-.09 0-.16-.12-.16-.24 0-.07.047-.167.138-.19 4.445-1.56 6.087-4.97 6.45-7.01h-4.763l-.183-.72h5.06c.138-.983.206-2.35.206-3.983h-2.804l-.342.672c-.775 1.295-1.732 2.375-1.96 2.375-.092 0-.206-.096-.206-.216 0-.073.046-.145.09-.217.617-.84 1.142-1.776 1.483-2.712.754-1.823.754-2.375.754-3.12l1.322.265c.297.048.434.192.434.36 0 .216-.138.312-.32.312s-.32.048-.32.12l-.592 1.464h5.88zm-8.503-3.312l-.183-.72h7.728l.456-3.31h-6.907l-.16-.72h7.11l.64-.72.73.815c.16.12.227.264.227.408 0 .216-.068.36-.297.432-.18.048-.295.168-.295.36l-.365 2.736h.685l1.436-1.27 1.46 1.15c.115.073.184.193.184.36 0 .29-.205.48-.524.48H99.994zM100.785 91.392l-2.42.324s-1.017.195-1.42.37c-.405.175-.66.26-.766.253-.143 0-.28-.04-.42-.12-.137-.077-.31-.24-.52-.48-.206-.245-.337-.448-.39-.61s-.06-.27-.02-.324c.037-.053.126-.083.267-.09l.36.03.545.018.5.056c.118.014.27.014.458 0 .353-.01.903-.07 1.653-.177l3.164-.422c1.037-.135 1.89-.235 2.558-.3s1.13-.12 1.39-.176.526-.134.808-.234l.747-.282c.21-.07.372-.094.483-.075.088.025.23.113.427.263s.37.302.522.455c.152.155.3.35.44.593s.2.42.184.54-.052.197-.1.238c-.05.04-.155.04-.313-.003-.287-.07-.562-.126-.826-.173s-.63-.077-1.1-.09c-.304 0-.94.023-1.91.067-.97.044-1.54.076-1.71.095l-2.592.258zm.14 10.097c.035-.165.102-.247.198-.25.097-.004.206.057.33.182l.403.403.79.89c.282.32.454.556.516.71.062.152.083.26.065.322-.03.094-.13.178-.3.253-.17.076-.286.132-.35.17s-.186.152-.36.342-.45.655-.822 1.392c-.373.738-.775 1.516-1.21 2.334L99 110.442l-1.01 1.88c-.118.215-.15.355-.102.42.05.067.2.1.452.1.387.006 1.03-.053 1.934-.178s1.62-.227 2.15-.305 1.046-.17 1.55-.274c.504-.103.954-.215 1.35-.337.396-.123.643-.196.742-.22s.214-.044.343-.057c.27-.02.522.02.763.112s.538.32.893.68.508.667.46.923c-.017.087-.055.163-.113.23-.06.064-.19.088-.396.07-.082-.007-.315-.06-.698-.156-.385-.097-.87-.155-1.456-.173-.486-.006-1.04.01-1.665.042-.625.035-1.456.126-2.493.277-1.037.15-1.814.294-2.333.435s-.89.25-1.116.328-.46.216-.7.413-.398.292-.475.286c-.094 0-.23-.058-.404-.173-.176-.117-.37-.32-.59-.61-.216-.29-.353-.538-.412-.74s-.068-.36-.027-.465c.03-.075.134-.176.313-.305.18-.127.332-.252.46-.374.13-.122.296-.337.498-.646.203-.31.48-.81.83-1.505s.833-1.69 1.44-2.986 1.04-2.265 1.29-2.9c.25-.633.398-1.09.448-1.373s.07-.53.065-.75l-.026-.28-.045-.35zm2.347-32.504c.123.12.254.24.392.366.137.125.21.23.215.32s-.02.2-.07.336c-.107.25-.186.446-.234.59-.05.144-.1.353-.146.628-.046.275-.063.775-.052 1.5l.018 3.328c.03 1.725.04 2.737.035 3.038l-.05 1.172c-.013.344-.057.594-.133.75s-.168.247-.276.272c-.107.025-.256-.072-.443-.29-.193-.213-.375-.466-.545-.76-.17-.293-.283-.537-.342-.73s-.08-.345-.062-.45c.006-.057.06-.187.158-.39.1-.203.176-.462.23-.778s.093-.767.122-1.355c.03-.587.045-1.378.05-2.372.002-.993-.006-1.784-.023-2.37-.023-.538-.057-1.02-.1-1.448s-.1-.72-.164-.877l-.105-.253-.988.173c-.337.06-.756.146-1.257.258-.502.113-.85.207-1.047.28-.196.076-.428.178-.694.306-.27.127-.45.195-.55.2-.137.014-.267-.01-.393-.07-.126-.06-.322-.207-.59-.444-.267-.237-.433-.442-.5-.614-.067-.17-.084-.29-.05-.352.03-.05.16-.058.393-.027.232.03.503.04.813.028.48-.01.887-.034 1.218-.07.333-.032 1.15-.18 2.458-.443l2.382-.44c.76-.137 1.353-.264 1.774-.38.422-.115.8-.232 1.134-.352l.712-.253c.13-.042.234-.068.316-.074.14-.006.286.023.436.09.15.064.374.216.677.454.3.238.5.463.596.675.097.213.112.358.048.436-.064.08-.164.122-.3.127-.104.013-.28-.004-.526-.05s-.493-.08-.74-.1c-.403-.02-1.027.023-1.87.126-.845.104-1.328.167-1.45.192l-.478.102zM91.97 398.22l-.182-.743h6.565c0-.24-.64-1.752-1.208-2.064-.092-.023-.137-.096-.137-.168 0-.096.068-.264.228-.264.137 0 .775.29 1.345.84.777.723.777.77.777 1.635h4.72c.364-.77.683-1.608.865-2.448l1.164.407c.25.072.364.192.364.36 0 .072-.046.384-.342.384-.16 0-.296.05-.364.145l-1.004 1.176h4.97l1.437-1.25 1.46 1.153c.09.048.158.192.158.336 0 .263-.137.503-.5.503H91.97zm2.6 9.433c.068 0 .137.072.137.192 0 2.376-1.14 5.017-2.257 5.017-.388 0-.57-.36-.57-.624 0-.168.068-.384.502-.696.706-.576 1.208-1.176 1.46-1.8.272-.6.478-1.248.546-1.896 0-.145.068-.193.182-.193zm-1.62-13.272l-.18-.742h8.593v-2.4l1.186.216c.363.048.522.192.522.384s-.114.336-.297.385c-.182.07-.273.216-.273.36v1.056h5.973l1.437-1.25 1.46 1.13c.113.07.182.215.182.383 0 .312-.23.48-.524.48H92.95zm14.02 5.45l.594-.65 1.048.723c.092.048.138.144.138.24 0 .023 0 .287-.365.384-.183.048-.296.168-.296.288v5.832c.02.145-.094.288-.208.36-.73.19-.91.24-.91-.36v-.936h-10.17v.816c0 .12-.09.24-.273.336-.73.193-.867.217-.867-.383v-7.37l1.003.72h10.304zm-10.167.72v1.824h10.168v-1.824H96.805zm0 2.545v1.896h10.168v-1.895H96.805zm.48 4.032l1.504.432c.183.047.273.167.273.36 0 .19-.137.31-.342.335-.205.023-.32.144-.32.288v3.312c0 .287.07.312.457.456h6.61c.685 0 1.05-.432 1.164-1.367l.203-1.513c0-.12.09-.192.205-.192.136 0 .204.07.204.216l.068 1.632c.022.528.183.888.433 1.032.183.12.32.312.32.48 0 .455-.274.6-.775.84H97.94c-.523-.265-.66-.336-.66-1.032v-5.28zm5.79 2.832c-.684-1.44-1.618-2.377-2.234-2.64-.093-.05-.16-.098-.16-.193 0-.097.045-.24.227-.24.388 0 3.17 1.488 3.17 2.784 0 .265-.047.6-.48.6-.274 0-.457-.12-.525-.31zm5.243-2.16c0-.098.068-.24.205-.24.57 0 3.398 2.83 3.398 4.224 0 .384-.16.744-.524.744-.273 0-.455-.097-.57-.433-.478-1.896-1.526-3.552-2.393-4.128-.067-.048-.113-.12-.113-.168zm-15.844-38.45l1.05.91h1.23l.684-2.136.273-1.824v-.744l1.366.12c.273.048.41.168.41.336s-.068.288-.23.336l-.318.192-.8 2.112-.773 1.608h2.986l.548-.77 1.05.722c.067.048.09.12.09.24 0 .31-.25.432-.32.455-.18.072-.25.168-.25.24v14.065c0 .12-.113.24-.228.312-.798.168-.89.168-.89-.288v-1.416h-4.74v2.232c0 .312-.274.384-.912.552-.16 0-.23-.19-.23-.552V369.35zm1.14 7.463h4.742v-5.833h-4.742v5.833zm0 6.29h4.742v-5.546h-4.742v5.545zm11.9 2.302c1.14.385 1.983.6 2.462.6.524 0 .957-.815 1.186-1.367.25-.648 1.186-4.296 1.186-13.753h-6.885l-.295.768c-1.117 2.664-2.576 4.488-2.78 4.488-.07 0-.16-.07-.16-.19 0-.07.022-.144.068-.216 2.21-3.576 3.282-7.776 3.282-10.152l1.322.097c.297.023.434.144.434.335 0 .192-.113.336-.272.336-.183 0-.297.07-.297.168-.272 1.225-.637 2.473-1.047 3.648h6.61l.616-.624.91.745c.114.097.16.216.16.336-.023.146-.137.266-.273.313-.25.072-.25.192-.25 1.224 0 6.433-.662 11.28-1.255 12.817-.75 1.872-1.526 2.376-2.917 2.52-.114-.96-.844-1.367-1.938-1.607-.114-.024-.183-.096-.183-.192 0-.12.09-.288.273-.288h.047zm-2.53-10.392c0-.072.045-.216.182-.216.548 0 3.26 3.097 3.26 4.536 0 .216-.09.792-.523.792-.432 0-.546-.384-.57-.48-.432-1.943-1.274-3.647-2.255-4.464-.07-.046-.092-.094-.092-.166zm-9.985-34.2v6.914h14.636v1.08H91.948v-7.993h1.05zm3.647-17.638h-4.218l-.182-.72h4.4v-3.768h-3.238l-.183-.72h3.42v-4.104l1.186.216c.362.046.522.19.522.382s-.114.336-.297.384c-.182.072-.273.192-.273.36v2.76h1.276l1.32-1.08 1.187.96c.114.072.183.192.183.36 0 .312-.228.48-.502.48H97.78v3.768h1.597l1.458-1.272 1.437 1.152c.114.072.183.216.183.384 0 .335-.273.455-.502.455H97.78v4.056h1.346l1.413-1.248 1.39 1.056c.16.143.25.335.25.48 0 .263-.182.455-.48.455h-3.92v4.776l.73.29c2.508.886 5.95.886 8.07.886 1.938 0 4.035-.072 6.224-.216.137 0 .228.05.228.12 0 .097-.114.217-.364.36-.273.145-.434.385-.48.673-.044.264-.136.408-.25.408-1.276.026-2.46.05-3.578.05-9.278 0-12.447-.96-14.34-5.712l-.16 1.008c-.592 3.312-1.937 5.233-2.142 5.233-.092 0-.205-.097-.205-.24 0-.05 0-.073.022-.12 1.572-3.457 1.55-8.065 1.526-8.93v-1.056l1.39.24c.298.048.458.168.458.336 0 .19-.114.31-.32.36-.158.047-.272.143-.272.263l-.182 1.896c.615 1.32 1.254 2.302 1.87 2.902l.638.552v-8.88zm6.68-8.16l.935.6h5.56l.593-.65 1.048.72c.093.05.14.145.14.217 0 .072-.07.336-.366.408-.183.048-.296.168-.273.288v7.61c0 .36-.5.503-.797.503-.23 0-.342-.166-.342-.502v-1.584h-5.356v7.417c0 .313.046.337.32.457h5.4c.23 0 .48-.264.64-.816l.593-1.775c.045-.144.137-.192.25-.192.092 0 .16.096.16.264l-.09 1.44c0 .552.02.864.158.96s.205.24.205.408c0 .168-.158.888-.843.888h-7.135c-.502 0-.798-.576-.798-1.152v-15.505zm1.14 1.32v5.567h5.356v-5.568h-5.357zM91.88 304.482l-.16-.72h2.188l-.66-13.97 1.185.72.89-.647c.41-.384.82-.768 1.07-1.296l1.14.502c.23.072.32.216.32.36 0 .168-.16.384-.39.384l-.546.144-.89.6-1.55.65.137 3.456h.548l1.254-1.296 1.162 1.152c.114.096.16.24.16.384 0 .264-.23.48-.456.48h-2.645l.182 3.77h.34l1.255-1.273 1.162 1.152c.114.072.16.216.16.36 0 .24-.206.504-.456.504h-2.44l.23 3.862h3.35V288.45l1.005.864h5.22l.548-.624 1.025.744c.09.048.136.144.136.264 0 .216-.16.384-.318.456-.137.072-.23.216-.23.36v13.25H109l.25-3.865h-2.302l-.182-.746h2.553l.295-3.77h-2.668l-.182-.72h2.918l.273-3.96h-2.918l-.138-.72h3.077l.592-.72.797.77c.16.12.25.287.25.455 0 .19-.09.335-.272.383-.183.072-.297.216-.297.36l-.888 12.553h.046l1.253-1.32 1.186 1.152c.092.095.137.24.137.36 0 .263-.182.503-.456.503h-20.45zm6.77 1.128l1.07.648c.184.12.298.264.298.408 0 .024-.046.312-.32.312l-.318-.048c-.09 0-.183.024-.25.072-2.03 2.136-5.996 3.144-6.452 3.144-.137 0-.25-.048-.25-.192 0-.12.067-.192.182-.24 2.804-.792 4.833-2.473 5.86-3.72l.18-.384zm.912-1.848h5.106v-13.705h-5.106v13.705zm2.416-11.45l1.117-1.103 1.003.96c.092.094.137.24.137.36 0 .214-.16.526-.455.526h-3.352l-.16-.744h1.71zm-1.413 2.81l.547.384h1.96l.343-.456.64.48.09.264c-.137.216-.16.24-.296.408v5.28c0 .12-.07.24-.207.288-.502.12-.57.144-.57-.264v-.96h-1.732v.936c0 .096-.067.192-.16.24-.546.12-.614.144-.614-.264v-6.336zm.775 4.704h1.732v-3.6h-1.732v3.6zm4.24 6.528c2.007.6 4.788 2.304 4.788 3.12 0 .288-.205.6-.524.6-.205 0-.388-.096-.615-.336-1.46-1.344-3.285-2.497-5.314-3.433-.137-.048-.183-.144-.183-.24.022-.12.114-.168.25-.168l1.597.457zm-8.8-31.03h15.206v7.944h-1.048v-6.864H96.78v-1.08zm-3.783-29.977v6.913h14.636v1.08H91.948v-7.993h1.05zm8.253-26.137l.592-.43.866.863c.068.048.114.144.114.24 0 .144-.046.192-.137.312l1.62 1.536 1.16-1.006c.753-.792.936-1.25 1.21-1.944l1.048.79c.16.145.228.265.228.385 0 .264-.203.264-.75.264-.296.43-.752.84-1.3 1.2l-1.23.646c.75.6 1.527 1.152 2.303 1.56l.113.073c.456-.29.89-.72 1.346-1.2 1.026-1.177 1.118-1.49 1.392-2.28l1.094.72c.183.12.25.263.25.36 0 .24-.227.263-.387.263l-.342.048c-.365.53-.89 1.057-1.55 1.56l-1.277.794c1.438.696 3.033 1.248 4.72 1.536.138 0 .23.05.23.12 0 .097-.115.217-.39.337-.272.144-.432.336-.455.552-.045.214-.137.31-.273.31h-.067c-4.536-1.656-7.112-3.936-9.187-6.504l-.274.264c-.318.433-2.575 3.217-6.018 4.873l-.798.312H98.7l.524-.816.912.67c.137.096.182.264.182.41-.022.142-.113.286-.25.334-.137.072-.23.144-.23.24v4.272c0 .312-.09.336-.843.552-.296 0-.296-.29-.296-1.08h-3.49l-.457 2.303-.113.433h3.943l.48-.768.98.672c.228.167.34.335.34.527 0 .168-.136.456-.41.48-.204 0-.34.12-.363.288-.092.984-.25 1.92-.434 2.808-.388 1.824-.912 2.88-2.85 3.384-.09-.744-.593-1.008-1.664-1.368-.137-.025-.205-.145-.205-.29.022-.143.114-.215.228-.215h.068c.73.17 1.322.265 1.71.265.068 0 .137-.025.205-.025.958-.264 1.23-.937 1.437-2.473l.365-2.568h-3.99l-.182.72c-.068.12-.23.24-.456.263-.388 0-.64-.288-.64-.504 0-.05 0-.097.023-.145l.66-2.64.435-2.712.935.816h3.442v-3.097h-4.194l-.114-.456c-.846.312-1.69.552-2.53.744-.185-.167-.207-.19-.207-.263 0-.072.022-.096.09-.12 3.648-1.2 7.137-3.168 9.302-6.48h-7.18l-.16-.72h7.543zm-5.108 4.346c-.547 0-.615 0-.73-.336-.227-.816-.705-1.656-1.207-1.968-.09-.024-.137-.096-.137-.168 0-.048.068-.264.23-.264.272 0 2.164 1.104 2.164 2.112 0 .36-.137.6-.32.624zm11.217 8.592l.545-.912.798.624c.296.24.48.48.48.648 0 .192-.047.192-.548.312-.48 1.344-1.117 2.52-1.893 3.504l-.615.624c2.143 1.56 4.31 2.016 6.087 2.16.09 0 .16.072.16.168 0 .096-.184.24-.525.312-.32.12-.548.336-.594.576-.045.216-.137.312-.228.312h-.023c-1.665-.528-3.032-1.128-4.035-1.848l-1.39-1.128c-.503.456-1.096.888-1.665 1.248-1.756 1.104-4.15 1.68-4.286 1.68s-.228-.096-.228-.24c0-.12.068-.216.182-.264 1.938-.72 3.83-1.656 5.357-3.12l-.592-.745c-.662-.986-1.23-2.066-1.665-3.194h-1.413l-.046-.72h6.133zm-3.513-5.568c0 1.464 0 2.928-1.346 3.96-.705.6-2.027 1.08-2.164 1.08-.183 0-.183-.143-.183-.19 0-.073.046-.145.137-.217 1.3-.648 2.417-1.392 2.417-3.937v-1.944l.89.528h3.032l.59-.744.958.768c.136.12.227.24.227.384 0 .216-.205.36-.387.408-.16.072-.25.216-.25.36v1.8c0 .72.18 1.008 1.116 1.008 1.116 0 1.322-.216 1.55-.936l.364-1.2c.023-.144.138-.192.274-.192s.182.096.182.288l-.09 1.224v.504l.182.264c.137.096.205.288.205.528 0 .408-.614.72-1.23.72h-1.276c-1.664 0-2.484-.456-2.416-1.92v-2.544h-2.782zm-.64 6.29c.776 1.703 1.232 2.423 2.212 3.455l.57-.672c.546-.768 1.002-1.704 1.344-2.784h-4.126zm-2.574-39.385l.615-.672 1.026.744c.09.048.137.12.137.216 0 .12-.09.336-.34.408-.183.05-.297.17-.297.29v6.577c.023.144-.09.288-.228.36-.707.192-.89.24-.89-.36v-1.392H95l-.82 4.608h6.703l.615-.625.912.792c.09.07.137.167.137.287 0 .144-.114.312-.296.36-.112.048-.227.192-.227.408-.068 1.73-.228 3.29-.433 4.657-.435 3.168-.89 4.224-3.033 4.368-.068-.768-.752-1.128-1.642-1.272-.114-.024-.183-.096-.183-.216 0-.144.092-.288.23-.288h.067c.955.216 1.662.336 2.095.336.138 0 .23 0 .32-.024.66-.408.797-1.296 1.048-3.048.183-1.224.32-2.904.41-5.017H94.02l-.183 1.01c-.114.384-.297.456-.685.456-.022 0-.455-.072-.455-.48v-.072c.615-2.184.98-3.936 1.116-5.208l.297-2.736 1.05.96h5.492v-4.706H92.88l-.16-.72h7.913zm7.25-.84l1.253.17c.365.047.548.19.548.383 0 .192-.114.384-.343.48-.226.072-.34.24-.34.408v20.378c0 .408-.73.528-.89.528-.16 0-.23-.072-.23-.216v-22.13zm-11.103-12.79h15.206v7.943h-1.048v-6.864H96.78v-1.08zm.23-28.993c-2.372 3.433-4.766 5.256-4.97 5.256-.115 0-.184-.096-.184-.192 0-.072.045-.144.114-.216 1.87-1.848 3.51-3.913 4.787-6.12l1.527-2.857H92.06l-.183-.744h6.726c.798-1.778.89-2.066 1.048-2.955l1.256.48c.25.072.365.216.365.36 0 .312-.136.312-.48.312-.112 0-.18.024-.204.072l-.798 1.73h9.575l1.436-1.25 1.46 1.127c.112.072.18.216.18.384 0 .313-.227.48-.523.48h-12.49c-.548 1.08-1.164 2.137-1.825 3.12l.412.36h9.688l.5-.646.89.768c.183.144.297.312.297.504 0 .168-.115.336-.297.408-.182.072-.25.192-.25.288v12.025c0 .672-.456 1.152-2.074 1.464l-.275-.67c-.137-.217-.66-.457-1.504-.745-.16-.048-.23-.144-.23-.288.025-.12.094-.168.207-.168h.068c.8.12 1.39.19 1.824.19.48 0 .843-.047.843-.6v-3.84H98.15v5.617c0 .288-.204.336-.91.528-.16 0-.23-.168-.23-.528V150.86zm1.14.072v3.12h9.55v-3.12h-9.55zm0 3.864v3.384h9.55v-3.384h-9.55zm2.232-23.253c1.026-.744 2.188-1.944 2.188-3.528-.25.144-.48.24-.752.24-1.003 0-1.642-.768-1.642-1.584 0-.936.548-1.728 1.642-1.728.89 0 1.96.6 1.96 2.4 0 1.92-1.276 3.433-3.054 4.705l-.342-.505zM60.85 244.525l1.322-1.08 1.185.96c.092.072.16.216.16.36 0 .312-.23.48-.502.48H55.79l-.16-.72h5.22zm-.8 6.745l1.323-1.08 1.163.96c.114.072.183.216.183.384 0 .312-.23.48-.504.48H56.61l-.183-.744h3.624zm-3.578 2.472l1.003.72H61.1l.5-.816.913.672c.137.096.182.264.182.408-.022.144-.113.288-.25.336-.114.048-.205.144-.205.24v5.856c0 .312-.092.336-.844.552-.183 0-.296-.168-.296-.552v-1.176h-3.488v1.56c0 .12-.09.24-.274.336-.775.192-.866.216-.866-.384v-7.752zm3.487-5.736l1.32-1.08 1.163.96c.113.072.182.192.182.36 0 .216-.113.48-.5.48H56.7l-.182-.72h3.44zm.09-6.865l1.322-1.08 1.163.986c.114.048.183.192.183.36 0 .312-.23.48-.503.48H56.77l-.16-.744h3.44zm-2.44 18.1h3.49v-4.056h-3.488v4.056zm10.875 1.128c.16.096.25.24.25.36 0 .096-.09.36-.342.36-.045 0-.387-.072-.455-.072-.776.336-1.69.648-2.714.84-1.05.216-1.915.288-2.6.288-.182 0-.273-.048-.273-.192 0-.143.047-.24.16-.24 1.733-.095 4.47-1.2 5.06-1.943l.914.6zm-3.694-15.674l-.182-.72h4.673v-1.44h-5.47l-.18-.72h5.652v-1.944l1.186.215c.364.048.5.192.5.384 0 .19-.09.334-.272.382-.273.096-.273.192-.273.96h3.214l1.437-1.272 1.46 1.153c.113.072.16.192.16.336 0 .046 0 .094-.024.142-.022.216-.205.36-.48.36h-5.767v1.44h2.143l1.437-1.272 1.46 1.153c.113.072.182.192.182.36 0 .288-.205.48-.524.48H64.794zm9.94 1.248l.503-.84.91.697c.138.095.184.263.184.383-.022.145-.114.29-.25.337-.138.072-.23.168-.23.264v3.985c0 .287-.09.31-.843.527-.183 0-.273-.168-.273-.528v-.817h-9.55c0 .743 0 .815-.273.96-.775.19-.866.215-.866-.385v-5.33l1.005.745h9.688zm-9.55 3.266h2.415v-2.544H65.18v2.544zm.363 1.536l1.004.72h6.11l.592-.648 1.047.72c.092.048.137.144.137.24 0 .024 0 .288-.364.384-.182.048-.272.168-.272.288v7.057c.046.288-.16.336-.798.504-.32 0-.32-.217-.32-1.153h-5.994c0 .744 0 .816-.274.96-.73.192-.866.216-.866-.384v-8.688zm1.14 1.44v1.536h5.996v-1.536h-5.996zm0 2.256v1.44h5.996v-1.44h-5.996zm0 2.16v1.513h5.996v-1.51h-5.996zm2.053-7.392h2.416v-2.544h-2.416v2.544zm3.077 10.85c1.664.047 4.24.72 4.24 1.655 0 .265-.205.553-.48.553-.16 0-.364-.072-.592-.192-1.71-.983-3.646-1.44-4.422-1.607-.138-.024-.23-.12-.23-.24s.07-.168.206-.168h1.278zm.478-10.85h2.44v-2.544h-2.44v2.544zm-14.223-26.44c-.958 2.015-2.234 3.623-2.394 3.623-.068 0-.182-.046-.182-.19 0-.072.024-.144.07-.216 2.667-4.225 3.647-9.097 3.647-11.185l1.3.095c.318.024.455.144.455.336 0 .193-.113.337-.295.337-.16 0-.274.072-.274.168-.34 1.704-.842 3.408-1.48 5.064.684.19.752.215.752.407 0 .096-.068.216-.205.288-.16.096-.25.216-.25.312v14.857c0 .144-.09.24-.274.288-.73.193-.866.217-.866-.287V222.77zm3.466-4.514l1.276.192c.363.048.545.192.545.384 0 .168-.113.36-.342.456-.228.096-.342.264-.342.432v14.737c0 .144-.09.288-.25.384-.205.046-.593.142-.64.142-.16 0-.25-.072-.25-.192v-16.536zm10.965 5.545l1.39-1.274 1.392 1.08c.16.144.25.312.25.456 0 .264-.182.456-.478.456H70.22c-.047 1.56-.138 2.927-.252 3.96h3.306l1.46-1.273 1.436 1.152c.113.07.182.215.182.383 0 .336-.273.456-.524.456H70.63c1.232 2.783 3.216 4.8 6.065 5.664.09.024.137.096.137.192s-.183.192-.502.264c-.32.072-.547.264-.615.504-.068.192-.137.288-.205.288-.092 0-3.716-1.873-5.403-6.913h-.228c-.32 1.463-.71 2.423-1.553 3.647-2.052 3-5.904 3.792-5.995 3.792s-.16-.12-.16-.24c0-.073.046-.17.138-.193 4.446-1.56 6.087-4.967 6.452-7.007h-4.765l-.183-.72h5.062c.137-.985.205-2.353.205-3.985h-2.803l-.342.672c-.774 1.296-1.732 2.376-1.96 2.376-.092 0-.205-.096-.205-.216 0-.072.044-.144.09-.216.615-.84 1.14-1.775 1.48-2.71.754-1.825.754-2.377.754-3.12l1.322.263c.296.048.433.192.433.36 0 .216-.14.312-.32.312s-.32.047-.32.12l-.59 1.463h5.877zm-8.503-3.314l-.183-.72h7.73l.455-3.312H65.09l-.16-.72h7.112l.64-.72.728.816c.16.12.228.265.228.41 0 .215-.068.36-.296.43-.183.05-.297.17-.297.36l-.364 2.737h.686l1.437-1.272 1.46 1.152c.113.072.182.192.182.36 0 .288-.205.48-.524.48H63.996zm-7.705-29.894l1.23 1.104h3.215l.57-.768 1.048.72c.046.024.068.12.068.24 0 .24-.09.408-.294.48-.183.072-.25.168-.25.216v15.48c0 .29-.525.457-.822.457-.228 0-.32-.142-.32-.43v-1.417H57.43V209c0 .312-.273.384-.912.552-.16 0-.228-.192-.228-.552v-18.408zm1.14 8.137h3.305v-6.29H57.43v6.29zm0 7.222h3.305v-6.48H57.43v6.48zm6.382-7.897l-.182-.72h4.946v-3.865h-5.562l-.183-.743h5.747v-3.24l1.186.215c.342.048.502.192.502.384s-.114.336-.274.384c-.18.072-.272.192-.272.36v1.896h3.74l1.435-1.25 1.46 1.13c.113.07.182.215.182.383 0 .31-.228.48-.524.48h-6.29v3.863h2.76l1.435-1.272 1.46 1.153c.112.072.18.216.18.36 0 .264-.18.48-.523.48h-11.22zm7.614 3.77v-3.05l1.163.17c.385.047.59.215.59.43 0 .217-.113.337-.32.36-.203.05-.295.145-.295.29v1.8h1.322l1.414-1.177 1.32 1.055c.094.072.16.216.16.36 0 .264-.135.504-.5.504h-3.716v7.655c0 .288-.182.6-.5.937-.298.31-.913.527-1.733.623 0-.888-.957-1.32-1.526-1.56-.183-.05-.25-.145-.25-.265 0-.19.204-.167.295-.143l2.05.288.41-.048c.047-.048.115-.168.115-.312v-7.176h-8.23l-.182-.745h8.412zm-3.852 5.71c-.068.265-.365.36-.48.36-.34 0-.5-.287-.546-.407-.456-1.562-1.3-3-2.144-3.53-.068-.047-.09-.12-.09-.19 0-.12.045-.217.182-.217.455 0 2.735 1.97 3.077 3.337v.647zM56.472 168.09l1.05.91h1.23l.684-2.135.273-1.824v-.742l1.366.12c.273.048.41.168.41.336s-.068.288-.228.336l-.32.19-.798 2.113-.775 1.608h2.986l.55-.766 1.05.72c.066.048.09.12.09.24 0 .312-.25.432-.32.456-.182.07-.25.167-.25.24v14.064c0 .12-.114.24-.23.312-.796.168-.89.168-.89-.288v-1.416h-4.74v2.232c0 .312-.273.384-.91.552-.16 0-.23-.192-.23-.552V168.09zm1.14 7.464h4.74v-5.833h-4.74v5.835zm0 6.29h4.74V176.3h-4.74v5.542zm11.9 2.303c1.14.384 1.982.6 2.46.6.525 0 .96-.816 1.187-1.368.25-.65 1.184-4.298 1.184-13.755H67.46l-.296.768c-1.117 2.665-2.576 4.49-2.78 4.49-.07 0-.16-.073-.16-.193 0-.07.022-.143.067-.215 2.214-3.576 3.285-7.777 3.285-10.153l1.322.096c.296.024.433.144.433.336 0 .192-.114.336-.274.336-.182 0-.296.072-.296.168-.273 1.224-.64 2.472-1.05 3.648h6.612l.615-.624.912.744c.11.096.157.216.157.336-.022.144-.137.264-.273.312-.25.072-.25.192-.25 1.224 0 6.433-.662 11.28-1.255 12.817-.753 1.872-1.528 2.376-2.92 2.52-.112-.96-.842-1.367-1.937-1.607-.114-.024-.183-.096-.183-.192 0-.12.093-.288.275-.288h.046zm-2.53-10.393c0-.072.045-.216.182-.216.547 0 3.26 3.096 3.26 4.536 0 .216-.09.792-.524.792-.433 0-.547-.384-.57-.48-.433-1.944-1.276-3.648-2.257-4.464-.07-.048-.092-.096-.092-.168zm-6.27-30.566l1.46-1.248 1.435 1.152c.114.048.183.192.183.36 0 .312-.228.48-.502.48H55.97l-.182-.744h4.924zm-4.24 9.12l1.117.84h3.67l.59-.672 1.05.72c.09.048.137.144.137.24 0 .12-.092.336-.365.408-.183.048-.273.168-.273.288v6.77c0 .143-.09.263-.23.335-.73.192-.89.216-.89-.336V159.2h-3.67v1.68c0 .12-.09.24-.273.312-.752.19-.866.215-.866-.36v-8.522zm3.533-5.736l1.46-1.272 1.436 1.152c.115.072.184.216.184.384 0 .336-.273.456-.524.456H56.7l-.182-.72h3.487zm0 3.288l1.46-1.272 1.436 1.152c.115.072.184.216.184.36 0 .264-.182.48-.524.48H56.7l-.182-.72h3.487zm0-9.673l1.46-1.248 1.436 1.15c.115.05.184.192.184.36 0 .312-.228.48-.524.48h-5.79l-.16-.744h3.395zm-2.393 18.29h3.67v-4.608h-3.67v4.606zm17.895 1.248c0 .408-.23 1.176-2.075 1.464-.16-.818-.388-1.106-2.143-1.68-.14-.05-.23-.12-.23-.24s.07-.194.205-.194h.068c1.186.264 2.006.384 2.462.384.205 0 .57 0 .57-.55v-17.882H64.72l-.16-.744h9.803l.502-.648.89.77c.182.143.296.31.296.503s-.113.334-.296.406c-.16.072-.25.192-.25.288v18.12zm-5.882-15.506l1.437-1.25 1.46 1.152c.112.048.18.192.18.36 0 .312-.227.48-.523.48h-7.023l-.183-.744h4.65zm-4.262 3.12l1.003.743h3.967l.615-.672 1.025.72c.092.05.137.145.137.24 0 .12-.113.337-.342.41-.183.047-.296.167-.296.287v6.77c.022.143-.092.287-.23.335-.683.192-.888.24-.888-.336v-1.416H66.5v1.85c0 .12-.09.24-.272.335-.73.192-.866.216-.866-.384v-8.88zm1.14 6.36h3.852v-4.897h-3.853v4.896zm6.68-27.495l.614-.648 1.025.72c.092.048.137.144.137.24 0 .144-.115.36-.344.384-.183.05-.296.17-.273.29v8.57c0 .287-.48.48-.798.48-.228 0-.342-.17-.342-.48v-1.513H62.946v1.464c0 .265-.547.433-.866.433-.183 0-.273-.144-.273-.432v-8.64c-2.69.984-5.517 1.344-5.54 1.344-.137 0-.25-.048-.25-.168 0-.096.045-.168.136-.216 9.643-2.04 13.107-6.553 14.954-10.85H63.79c-.593.912-1.3 1.752-2.006 2.496.5.216 1.048.6 1.618 1.104.935.768 1.39 1.344 1.39 2.184 0 .12-.136.432-.5.432-.274 0-.48-.168-.524-.336-.936-2.04-1.983-2.88-2.303-3.072-2.257 2.184-4.514 3.12-4.56 3.12-.068 0-.205-.048-.205-.192 0-.072.045-.12.114-.144 3.488-1.92 6.86-6.24 7.317-9.05l1.21.385c.25.072.388.192.388.36v.024c-.046.218-.114.24-.593.36l-.866 1.61h6.906l.548-.912.798.624c.32.24.48.48.48.65s-.068.19-.57.36c-1.847 3.983-4.582 6.983-8.57 9.023h9.322zm-10.237.72v6.6h10.26v-6.6h-10.26zm-4.263-30.88c-1.163 2.015-2.69 3.695-2.918 3.695-.068 0-.183-.096-.183-.192 0-.072.046-.144.09-.216 3.01-3.96 4.492-8.545 4.674-10.705l1.277.264c.296.05.433.17.433.338 0 .096 0 .336-.32.336-.182 0-.295.048-.295.12-.522 1.728-1.206 3.384-2.004 4.968.775.265.866.29.866.457 0 .095-.067.215-.227.287-.16.096-.25.216-.25.288v14.69c0 .143-.092.263-.274.287-.73.192-.866.216-.866-.288v-14.33zm9.096-2.905h-2.236l-.662 1.56c-1.07 2.256-2.758 4.368-3.077 4.368-.114 0-.182-.096-.182-.192 0-.072.045-.144.09-.216 2.69-3.696 3.717-7.993 3.922-9.53v-.575l1.322.192c.296.048.433.192.433.384 0 .194-.136.314-.295.314-.183 0-.32.048-.32.144-.25.936-.57 1.92-.934 2.856h7.98l1.415-1.272 1.39 1.08c.138.145.23.313.23.457 0 .167-.092.455-.457.455H68.92v4.608h4.103l1.413-1.248 1.368 1.08c.16.145.25.313.25.457 0 .287-.204.455-.455.455h-6.68v4.513h4.102l1.413-1.272 1.368 1.08c.16.144.25.336.25.48 0 .288-.204.432-.455.432h-6.68v6.72c0 .336-.82.432-.867.432-.182 0-.272-.144-.272-.432V93.14zm6.382-9.325c0 .72-.638 1.224-2.074 1.488-.068-.816-.48-1.128-1.87-1.608-.16-.048-.204-.144-.204-.24 0-.048 0-.192.183-.192h.068c1.025.192 1.777.288 2.188.288.228 0 .57 0 .57-.55v-6.553h-6.247v8.497c0 .36-.82.456-.866.456-.183 0-.273-.145-.273-.457v-8.52h-6.315c0 1.08-.638 3.983-1.39 5.64-.457 1.032-1.62 3.216-2.03 3.216-.114 0-.16-.146-.16-.218 0-.048.023-.096.046-.144 1.732-3 2.804-6.36 2.804-16.01v-5.16l1.026.815h13.404l.524-.648.89.77c.182.143.296.31.296.503s-.114.336-.297.408c-.182.072-.273.192-.273.288v17.93zm-8.526-12.89h-5.95c-.045 1.73-.137 3.36-.273 4.8h6.224v-4.8zm0-5.615h-5.904v4.896h5.904V65.31zm1.14 4.896h6.246V65.31h-6.246v4.896zm0 5.52h6.246v-4.8h-6.246v4.8zm.684-30.016c0 .625-.594 1.345-1.255 1.345s-1.276-.648-1.276-1.344c0-.502.34-1.342 1.274-1.342.48 0 1.254.504 1.254 1.344zm-1.254 7.514c-.82 0-1.276-.552-1.276-1.32 0-1.008.684-1.344 1.276-1.344.48 0 1.254.336 1.254 1.344 0 1.368-.593 2.472-1.778 3.288l-.364-.288c.89-.672 1.322-1.272 1.322-1.824l-.434.144zM58.73 27.36c.09 0 .16.073.16.193 0 3.336-1.323 5.64-2.235 5.64-.5 0-.616-.407-.616-.67 0-.145.18-.385.477-.625.752-.72 1.276-1.44 1.55-2.136.274-.72.456-1.464.5-2.208 0-.12.047-.193.16-.193zM72.2 14.09l.615-.648 1.026.72c.09.048.138.144.138.24 0 .072-.046.336-.343.408-.182.048-.296.144-.296.264v10.153c.022.144-.09.288-.228.36-.707.192-.89.24-.89-.36V24.1H60.005v.91c0 .31-.273.384-.912.55-.16 0-.228-.19-.228-.55V13.176l1.05.912H72.2zm-6.658.744h-5.54v3.864h5.54v-3.864zm-5.54 4.584v3.96h5.54v-3.96h-5.54zm2.167 6.937l1.504.456c.183.048.273.144.273.336 0 .192-.137.312-.342.336s-.296.145-.296.313v5.088c0 .265.09.313.432.433h6.087c.64 0 1.05-.384 1.253-1.512l.273-1.75c0-.097.09-.17.228-.17s.206.073.206.217l-.067 1.85c0 .6.113 1.007.364 1.175.205.12.342.313.342.505 0 .408-.275.552-.776.816H62.83c-.546-.263-.66-.335-.66-1.03V26.36zm6.703 2.136c0 .12-.068.48-.524.48-.206 0-.39-.096-.48-.29-.48-.766-1.55-2.422-2.85-2.88-.09-.046-.16-.094-.16-.166 0-.168.09-.264.23-.264.547 0 3.01 1.27 3.647 2.495l.136.624zm-2.19-9.793h5.54v-3.864h-5.54v3.864zm0 .72v3.96h5.54v-3.96h-5.54zm5.54 8.065c0-.047.068-.215.23-.215.522 0 3.646 3.312 3.646 4.92 0 .073 0 .793-.503.793-.456 0-.547-.384-.57-.456-.638-2.544-1.914-4.32-2.69-4.873-.09-.05-.114-.096-.114-.17zM67.272 269.846c.123.12.254.24.392.366.137.125.21.23.215.32s-.02.2-.07.336c-.107.25-.186.447-.234.59-.05.145-.1.354-.146.63-.046.274-.063.774-.052 1.5l.018 3.327c.03 1.725.04 2.738.035 3.038l-.05 1.172c-.013.344-.057.594-.133.75s-.168.247-.276.272-.256-.072-.443-.29c-.193-.214-.375-.467-.545-.76-.17-.294-.283-.538-.342-.732s-.08-.344-.062-.45c.006-.056.06-.186.158-.39.1-.202.176-.46.23-.777s.093-.767.122-1.355c.03-.587.045-1.378.05-2.372.002-.992-.006-1.782-.023-2.37-.023-.537-.057-1.02-.1-1.45s-.1-.72-.164-.874l-.105-.253-.988.173c-.337.06-.756.146-1.257.258-.502.113-.85.207-1.047.28-.196.076-.428.178-.694.306-.27.127-.45.195-.55.2-.137.014-.267-.01-.393-.07-.126-.058-.322-.207-.59-.444-.266-.237-.433-.442-.5-.614s-.083-.29-.048-.352c.03-.05.16-.06.39-.028s.502.04.813.028c.48-.013.887-.036 1.218-.07.33-.035 1.15-.183 2.457-.445l2.382-.44c.76-.138 1.353-.265 1.774-.38s.8-.233 1.134-.352l.71-.253c.13-.043.235-.068.317-.075.14-.006.286.023.436.09.15.065.375.216.678.454.302.236.5.46.598.673s.112.358.048.436c-.064.08-.164.12-.3.126-.104.012-.28-.005-.526-.052s-.492-.08-.738-.1c-.404-.018-1.028.024-1.872.128-.844.103-1.327.167-1.45.192l-.478.1zM76.644 295.89l4.827 7.09-.52.375-5.664-6.494 1.36-.97zM64.785 291.785l-2.42.323s-1.017.195-1.42.37c-.405.175-.66.26-.766.253-.143 0-.28-.037-.42-.115s-.31-.24-.52-.483-.336-.446-.39-.608-.06-.27-.02-.323c.037-.053.126-.083.267-.09l.36.03.545.02.5.054c.118.013.27.013.458 0 .353-.012.903-.072 1.653-.178l3.164-.422c1.037-.138 1.89-.238 2.558-.3s1.13-.122 1.39-.178c.257-.056.526-.134.808-.234l.747-.28c.21-.068.372-.094.483-.075.088.025.23.112.427.262.196.15.37.3.522.454.152.153.3.35.44.59s.2.42.184.54-.052.198-.1.238c-.05.04-.155.04-.313-.005-.287-.07-.562-.126-.826-.173s-.63-.077-1.1-.09c-.304 0-.94.022-1.91.066-.97.044-1.54.075-1.71.094l-2.592.263zm.14 9.635c.035-.162.102-.244.198-.248.097-.003.206.058.33.183l.403.403.79.89c.282.32.454.556.516.71s.083.26.065.322c-.03.094-.13.178-.3.253-.17.075-.286.13-.35.168-.065.04-.186.154-.36.344-.177.19-.45.655-.822 1.392-.373.738-.775 1.516-1.21 2.334L63 310.374l-1.01 1.88c-.118.215-.15.356-.102.422.05.065.2.098.452.098.387.006 1.03-.053 1.934-.178s1.62-.227 2.15-.305 1.046-.17 1.55-.27.954-.217 1.35-.338c.396-.122.643-.195.742-.22.1-.026.214-.044.343-.057.27-.02.522.02.763.113s.538.32.893.68.508.666.46.922c-.017.087-.055.164-.113.23-.06.065-.19.088-.396.07-.082-.007-.315-.06-.698-.156-.385-.097-.87-.154-1.456-.173-.486-.005-1.04.01-1.665.043-.625.034-1.456.126-2.493.276s-1.814.295-2.333.436-.89.25-1.116.328c-.227.078-.46.215-.7.413-.24.197-.398.292-.475.286-.094 0-.23-.058-.404-.173s-.37-.318-.59-.608-.353-.538-.412-.74-.068-.36-.027-.465c.03-.075.134-.177.313-.305.18-.128.333-.253.46-.375.13-.122.295-.337.498-.647s.48-.81.83-1.505c.354-.693.834-1.69 1.443-2.986s1.038-2.264 1.288-2.9c.25-.633.4-1.09.45-1.372s.07-.532.065-.75l-.026-.282-.046-.347zM55.88 407.77l-.16-.72h2.188l-.66-13.97 1.184.722.89-.648c.41-.384.82-.768 1.07-1.296l1.14.504c.228.072.32.216.32.36 0 .168-.16.384-.39.384l-.546.144-.89.6-1.55.65.138 3.455h.547l1.256-1.296 1.163 1.15c.113.096.16.24.16.384 0 .264-.23.48-.457.48h-2.645l.183 3.768h.343l1.254-1.272 1.163 1.153c.113.072.16.216.16.36 0 .24-.206.504-.457.504h-2.44l.23 3.864h3.35v-15.31l1.003.864h5.22l.548-.624 1.026.744c.09.048.137.144.137.264 0 .216-.16.384-.32.456-.136.072-.227.216-.227.36v13.25H73l.25-3.865h-2.3l-.183-.745h2.554l.296-3.77H70.95l-.184-.72h2.918l.273-3.96H71.04l-.137-.72h3.078l.595-.72.798.768c.16.12.25.29.25.457 0 .192-.09.336-.273.384-.184.073-.297.218-.297.36l-.89 12.554h.046l1.252-1.32 1.186 1.152c.09.097.136.24.136.36 0 .264-.183.504-.456.504H55.88zm6.77 1.13l1.072.647c.183.12.296.264.296.408 0 .023-.045.312-.318.312l-.32-.048c-.09 0-.182.022-.25.07-2.03 2.136-5.996 3.145-6.452 3.145-.137 0-.25-.048-.25-.192 0-.12.068-.192.182-.24 2.804-.792 4.833-2.472 5.86-3.72l.18-.385zm.912-1.848h5.107v-13.705h-5.11v13.705zm2.417-11.45l1.115-1.103 1.003.96c.09.094.136.237.136.357 0 .217-.16.528-.456.528h-3.35l-.16-.744h1.71zm-1.415 2.81l.547.383h1.96l.343-.456.638.48.092.262c-.137.216-.16.24-.297.408v5.28c0 .12-.07.24-.206.29-.502.12-.57.143-.57-.265v-.96H65.34v.936c0 .098-.068.194-.16.24-.546.12-.614.146-.614-.263v-6.335zm.774 4.703h1.73v-3.6h-1.73v3.6zm4.24 6.53c2.007.6 4.787 2.304 4.787 3.12 0 .287-.205.6-.523.6-.206 0-.388-.096-.616-.336-1.46-1.347-3.283-2.498-5.313-3.435-.137-.048-.183-.144-.183-.24.023-.12.114-.168.25-.168l1.597.456zm-8.8-30.448h15.207v7.944h-1.05v-6.862H60.782v-1.08zm.23-28.992c-2.372 3.433-4.766 5.256-4.97 5.256-.115 0-.183-.094-.183-.19 0-.072.045-.144.114-.216 1.87-1.848 3.513-3.913 4.79-6.12l1.526-2.857h-6.223l-.183-.744h6.724c.798-1.776.89-2.064 1.05-2.953l1.253.48c.25.07.364.215.364.36 0 .31-.135.31-.477.31-.114 0-.183.025-.205.073l-.798 1.73h9.573l1.437-1.25 1.46 1.128c.113.074.182.218.182.386 0 .312-.23.48-.524.48H63.425c-.547 1.08-1.162 2.136-1.823 3.12l.41.36H71.7l.502-.647.89.767c.182.144.296.312.296.504 0 .17-.114.337-.297.41-.18.07-.25.19-.25.287V362.9c0 .673-.454 1.152-2.073 1.465l-.273-.672c-.137-.217-.66-.456-1.505-.744-.16-.05-.23-.147-.23-.29.023-.12.09-.168.206-.168h.068c.798.12 1.39.19 1.823.19.48 0 .844-.047.844-.6v-3.84h-9.55v5.618c0 .29-.206.337-.913.528-.16 0-.228-.168-.228-.527v-13.654zm1.14.072v3.12h9.55v-3.12h-9.55zm0 3.864v3.386h9.55v-3.384h-9.55zm2.233-22.67c1.025-.743 2.188-1.943 2.188-3.527-.25.144-.477.24-.75.24-1.004 0-1.642-.768-1.642-1.584 0-.938.547-1.73 1.642-1.73.888 0 1.96.6 1.96 2.4 0 1.92-1.277 3.433-3.056 4.705l-.34-.505zM32.987 233.935c0 1.488-1.368 2.928-2.78 2.928-1.528 0-2.805-1.416-2.805-2.928 0-1.584 1.23-2.952 2.804-2.952 1.3 0 2.78 1.247 2.78 2.952zm-2.78-2.09c-1.14 0-1.984.89-1.984 2.09 0 .983.73 2.087 1.983 2.087 1.026 0 1.983-.96 1.983-2.088 0-.6-.185-1.08-.595-1.488-.41-.408-.866-.6-1.39-.6zm-7.477-18.478c.09 0 .16.072.16.192 0 3.334-1.323 5.64-2.235 5.64-.5 0-.616-.41-.616-.673 0-.144.18-.384.477-.624.752-.72 1.276-1.44 1.55-2.136.274-.72.456-1.464.5-2.208 0-.12.047-.194.16-.194zm13.47-13.273l.615-.648 1.026.72c.09.048.138.144.138.24 0 .072-.045.336-.342.408-.183.048-.296.144-.296.264v10.153c.023.146-.09.29-.228.36-.707.194-.89.24-.89-.36v-1.126h-12.22v.912c0 .312-.272.384-.91.552-.16 0-.23-.192-.23-.552v-11.833l1.05.912H36.2zm-6.657.744h-5.54v3.864h5.54v-3.864zm-5.54 4.584v3.96h5.54v-3.96h-5.54zm2.166 6.937l1.504.454c.183.048.274.144.274.336 0 .193-.138.313-.343.337-.205.024-.296.144-.296.312v5.086c0 .264.09.312.433.432h6.087c.64 0 1.05-.385 1.255-1.513l.273-1.752c0-.096.09-.168.228-.168s.205.072.205.216l-.066 1.85c0 .6.114 1.01.365 1.176.204.12.34.312.34.504 0 .41-.272.553-.774.817h-8.822c-.547-.264-.66-.336-.66-1.032v-7.056zm6.702 2.134c0 .12-.068.48-.524.48-.206 0-.388-.096-.48-.288-.48-.768-1.55-2.424-2.85-2.88-.09-.048-.16-.096-.16-.168 0-.17.09-.265.228-.265.547 0 3.01 1.272 3.647 2.496l.138.624zm-2.188-9.793h5.54v-3.863h-5.54v3.864zm0 .72v3.96h5.54v-3.96h-5.54zm5.54 8.066c0-.048.067-.216.227-.216.525 0 3.648 3.313 3.648 4.922 0 .072 0 .792-.502.792-.456 0-.547-.384-.57-.456-.638-2.544-1.915-4.32-2.69-4.873-.09-.048-.114-.096-.114-.168zM19.97 181.71l-.182-.744h6.565c0-.24-.64-1.752-1.208-2.064-.09-.024-.137-.096-.137-.168 0-.096.068-.264.228-.264.137 0 .775.288 1.345.84.777.72.777.768.777 1.632h4.72c.364-.768.683-1.608.865-2.448l1.164.408c.25.072.365.192.365.36 0 .072-.045.384-.342.384-.16 0-.296.048-.365.144l-1.003 1.176h4.97l1.435-1.248 1.46 1.152c.09.048.16.192.16.336 0 .264-.138.504-.502.504H19.97zm2.6 9.433c.067 0 .136.072.136.192 0 2.376-1.14 5.017-2.257 5.017-.39 0-.57-.36-.57-.624 0-.168.066-.384.5-.696.706-.576 1.207-1.176 1.46-1.8.272-.6.477-1.248.545-1.896 0-.145.07-.193.183-.193zm-1.62-13.273l-.182-.744h8.594v-2.4l1.186.216c.365.048.524.192.524.384s-.114.336-.296.384c-.183.072-.273.216-.273.36v1.056h5.973l1.436-1.248 1.46 1.128c.113.072.182.216.182.384 0 .312-.228.48-.524.48H20.95zm14.02 5.448l.593-.648 1.05.72c.09.048.136.144.136.24 0 .024 0 .288-.367.384-.182.048-.296.168-.296.288v5.833c.023.144-.09.288-.205.36-.73.192-.912.24-.912-.36v-.936H24.804v.814c0 .12-.09.24-.273.336-.73.193-.866.217-.866-.383v-7.37l1.003.72H34.97zm-10.167.72v1.824H34.97v-1.824H24.803zm0 2.545v1.896H34.97v-1.898H24.803zm.48 4.032l1.504.432c.182.048.273.168.273.36 0 .192-.137.312-.342.336-.206.024-.32.144-.32.288v3.314c0 .288.07.312.457.456h6.61c.685 0 1.05-.433 1.164-1.37l.203-1.51c0-.12.09-.193.205-.193.136 0 .205.072.205.216l.068 1.632c.023.528.183.888.434 1.032.182.12.32.312.32.48 0 .456-.274.6-.776.84H25.94c-.523-.264-.66-.336-.66-1.032v-5.28zm5.79 2.832c-.685-1.44-1.62-2.376-2.235-2.64-.09-.05-.16-.097-.16-.193s.045-.24.228-.24c.387 0 3.168 1.488 3.168 2.784 0 .264-.045.6-.48.6-.27 0-.453-.12-.522-.31zm5.242-2.16c0-.096.068-.24.205-.24.57 0 3.397 2.832 3.397 4.225 0 .384-.16.744-.524.744-.273 0-.456-.096-.57-.432-.48-1.896-1.527-3.553-2.394-4.128-.07-.05-.116-.12-.116-.17zm-15.843-36.625l1.05.912h1.23l.684-2.136.273-1.824v-.744l1.366.12c.273.048.41.168.41.336s-.068.288-.228.336l-.32.192-.798 2.112-.775 1.608h2.987l.547-.768 1.05.72c.067.048.09.12.09.24 0 .312-.25.432-.32.456-.182.072-.25.168-.25.24v14.065c0 .12-.114.24-.23.312-.796.166-.887.166-.887-.29v-1.416H21.61v2.232c0 .312-.273.384-.91.552-.16 0-.23-.193-.23-.553V154.66zm1.14 7.464h4.742v-5.833h-4.742v5.833zm0 6.29h4.742v-5.545h-4.742v5.546zm11.9 2.303c1.14.382 1.982.6 2.46.6.525 0 .96-.818 1.186-1.37.25-.648 1.186-4.296 1.186-13.753H31.46l-.296.768c-1.117 2.665-2.576 4.49-2.78 4.49-.07 0-.16-.073-.16-.193 0-.072.022-.144.067-.216 2.213-3.576 3.285-7.777 3.285-10.153l1.322.096c.296.023.433.143.433.335 0 .192-.115.336-.274.336-.183 0-.296.073-.296.17-.273 1.223-.64 2.47-1.05 3.647h6.612l.615-.624.912.744c.112.096.157.216.157.336-.022.144-.137.264-.273.312-.25.072-.25.192-.25 1.224 0 6.432-.66 11.28-1.254 12.816-.75 1.872-1.526 2.376-2.917 2.52-.114-.96-.844-1.367-1.938-1.607-.114-.025-.182-.097-.182-.193 0-.12.09-.288.273-.288h.045zm-2.53-10.395c0-.072.045-.216.182-.216.547 0 3.26 3.095 3.26 4.535 0 .216-.09.792-.524.792s-.547-.384-.57-.48c-.433-1.944-1.277-3.648-2.257-4.464-.07-.048-.092-.096-.092-.168zm-9.986-32.375v6.913H35.63v1.08H19.948v-7.993h1.05zm-.182-12.143v-1.056l1.368.218c.32.048.456.168.456.36s-.09.312-.296.36c-.183.048-.296.144-.296.264l-.183 2.065c.684 1.392 1.094 2.064 1.8 2.81v-8.786H19.97l-.182-.72h3.875v-3.577h-2.895l-.16-.744h3.055v-4.08l1.186.214c.363.048.522.192.522.384s-.114.336-.296.384c-.182.05-.273.193-.273.36V107h.593l1.3-1.08 1.185.983c.115.05.183.193.183.36 0 .313-.228.48-.524.48h-2.736v3.578h1.026l1.323-1.08 1.163.96c.114.073.182.217.182.385 0 .12 0 .456-.5.456h-3.192v4.25h.866l1.254-1.056 1.14.865c.183.167.228.335.228.503 0 .335-.273.407-.456.407h-3.032v4.704c2.325 1.345 5.745 1.61 10.213 1.61 1.753 0 3.623-.073 5.56-.193.114 0 .182.05.182.145 0 .073-.09.217-.365.36s-.433.36-.48.65c-.045.287-.16.43-.25.43-.866.025-1.687.025-2.462.025-10.51 0-13.473-1.056-15.48-5.688l-.067.768c-.32 1.896-.867 3.552-1.756 5.064-.068.07-.137.095-.205.095-.138 0-.184-.12-.184-.217 0-.05 0-.073.023-.12.842-2.16 1.07-4.657 1.14-5.425l.134-3.408zm13.336 6.696c0 .12-.09.24-.228.312-.798.192-.89.216-.89-.312v-4.537c-.637.456-1.32.888-2.028 1.248l-2.03.792c-.09.048-.16.216-.16.456 0 .312-.227.456-.364.456-.16 0-.296-.144-.433-.528l-.5-1.536 1.162-.048.522-.12v-13.2H27.63l-.182-.72h6.61l1.46-1.273 1.436 1.152c.114.072.183.216.183.36 0 .264-.183.48-.5.48H34.15v17.018zm-3.83-13.537h2.713v-3.48H30.32v3.48zm0 4.513h2.713v-3.77H30.32v3.77zm0 4.92c.844-.17 1.847-.674 2.713-1.13v-3.07H30.32v4.2zm7.933-4.92c.274-1.37.524-3.074.66-5.114l.047-.264h-3.83l-.16-.72h3.898l.616-.816.957.912c.16.12.23.263.23.407 0 .168-.09.288-.296.336-.182.05-.32.145-.32.265-.272 3.36-.706 5.257-1.39 7.25l.912 1.92c.274.67 1.003 2.447 1.003 3.48 0 .407-.207.67-.57.67-.457 0-.525-.527-.57-.743-.366-1.296-.8-2.64-1.346-3.96-1.05 2.4-3.055 4.2-3.237 4.2-.114 0-.182-.12-.182-.215 0-.05.022-.12.068-.17 1.025-1.223 1.8-2.447 2.302-3.623l.524-1.392c-.685-1.56-1.437-2.977-2.21-4.25-.047-.07-.07-.12-.07-.167 0-.096.07-.216.183-.216.045 0 .114.023.16.07l1.572 2.113.752 1.152.297-1.13zM19.88 95.262l-.16-.72h2.187l-.66-13.97 1.184.72.89-.647c.41-.384.82-.768 1.07-1.296l1.14.504c.23.072.32.216.32.36 0 .168-.16.384-.386.384l-.547.144-.89.6-1.55.648.138 3.457h.547l1.255-1.296 1.163 1.154c.114.096.16.24.16.384 0 .264-.228.48-.456.48H22.64l.182 3.77h.342l1.254-1.273 1.163 1.152c.114.072.16.216.16.36 0 .24-.205.504-.456.504h-2.44l.23 3.865h3.35V79.23l1.003.863h5.22l.547-.624 1.026.742c.09.048.136.144.136.264 0 .216-.16.384-.32.456-.136.072-.227.216-.227.36v13.25H37l.25-3.865h-2.302l-.183-.744h2.553l.296-3.77h-2.667l-.183-.72h2.918l.273-3.96h-2.918l-.137-.72h3.078l.593-.72.8.77c.16.12.25.287.25.455 0 .19-.09.335-.273.383-.182.073-.296.217-.296.36l-.89 12.554h.047l1.254-1.32 1.187 1.152c.09.096.137.24.137.36 0 .264-.183.504-.456.504H19.88zm6.77 1.128l1.07.65c.183.12.297.264.297.408 0 .024-.046.312-.32.312l-.318-.05c-.093 0-.185.025-.253.073-2.03 2.136-5.996 3.144-6.452 3.144-.137 0-.25-.048-.25-.192 0-.12.068-.192.182-.24 2.804-.792 4.833-2.473 5.86-3.72l.182-.384zm.912-1.846h5.106V80.838h-5.106v13.705zm2.416-11.45l1.117-1.103 1.003.96c.09.097.137.24.137.36 0 .217-.16.53-.456.53h-3.353l-.16-.745h1.71zm-1.414 2.81l.547.383h1.96l.344-.456.638.48.092.265c-.137.216-.16.24-.296.408v5.28c0 .12-.068.24-.205.288-.5.12-.57.145-.57-.263v-.96h-1.73v.936c0 .096-.068.192-.16.24-.547.12-.616.144-.616-.264v-6.337zm.776 4.703h1.732v-3.6H29.34v3.6zm4.24 6.53c2.006.6 4.788 2.303 4.788 3.12 0 .287-.205.6-.524.6-.205 0-.388-.097-.616-.337-1.46-1.345-3.282-2.498-5.312-3.434-.137-.048-.182-.144-.182-.24.023-.12.114-.168.25-.168l1.596.457zm-8.8-29.21h15.206v7.944h-1.05V69.01H24.78v-1.08zM20.996 37.95v6.913H35.63v1.08H19.948V37.95h1.05zm6.93-23.28l1.436-1.273 1.46 1.152c.113.07.182.214.182.36 0 .262-.183.48-.524.48h-5.47c-.685 2.04-1.62 3.982-2.736 5.783l1.39-.216c1.642-.336 3.078-.768 4.332-1.176-.273-.527-.684-1.295-1.3-1.8-.067-.023-.09-.07-.09-.143 0-.048.046-.216.205-.216.57 0 3.08 2.833 3.08 4.225 0 .096-.07.72-.547.72-.365 0-.524-.336-.547-.48l-.524-1.704c-2.826 1.297-6.085 2.04-7.043 2.21-.09 0-.184.167-.184.383s-.16.384-.365.384c-.16 0-.296-.12-.387-.36l-.547-1.752.798.072 1.23-.096c.252-.263 1.004-2.47 1.3-3.43l.64-2.4H19.97l-.182-.72h8.138zm-3.624 12.073h-3.967L20.153 26h4.15v-3.337l1.162.24c.365.048.524.168.524.36 0 .192-.116.336-.298.384-.183.072-.25.216-.25.36V26h2.165l1.322-1.057 1.185.96c.09.048.16.192.16.336 0 .262-.137.502-.5.502h-4.333v4.824c1.596-.504 3.17-1.152 4.72-1.896.045-.023.09-.047.136-.047.158 0 .227.192.227.288 0 .074-.045.146-.137.194-2.69 1.704-5.768 3-9.187 3.696-.09.023-.16.167-.204.383-.023.312-.25.456-.365.456-.16 0-.32-.194-.41-.554l-.432-1.56h1.163c.753-.072 1.893-.312 3.35-.624v-5.16zm13.883-7.8c-.205 2.88-.73 6.672-2.6 9.864 1.14 1.536 2.51 3.385 5.176 4.393.14.048.207.12.207.216-.022.096-.228.192-.524.264-.32.048-.547.24-.615.48-.068.216-.137.312-.228.312-.024 0-.046 0-.07-.024-1.002-.672-2.826-2.208-4.49-4.824-2.234 3.312-5.334 4.464-7.98 4.896-.045.024-.067.024-.09.024-.114 0-.205-.12-.205-.24 0-.096.068-.168.16-.192 4.97-1.464 7.09-4.85 7.477-5.617-1.3-2.688-2.052-6.048-2.325-7.656-.638 1.39-1.732 3.166-1.983 3.166-.068 0-.205-.072-.205-.192 0-.072.02-.12.066-.192.935-1.68 1.664-3.457 2.166-5.232.456-1.8.752-3.383.798-4.68l-.068-.624 1.322.072c.32 0 .48.12.48.312s-.092.312-.274.336c-.183.024-.296.096-.296.168-.206 1.44-.57 2.88-1.003 4.25h4.585l1.39-1.273 1.39 1.08c.184.17.23.338.23.506 0 .336-.274.408-.457.408h-2.032zm-5.768 1.055c.41 2.16.89 3.984 1.482 5.45.27.767.636 1.51 1 2.183 1.574-3.214 1.984-6.575 2.1-8.687h-4.173l-.114.384-.297.672z"/></svg>