<?xml version="1.0" encoding="utf-8"?>
<!-- Generator: Adobe Illustrator 18.1.0, SVG Export Plug-In . SVG Version: 6.00 Build 0)  -->
<svg version="1.1" xmlns="http://www.w3.org/2000/svg" xmlns:xlink="http://www.w3.org/1999/xlink" x="0px" y="0px"
	 viewBox="0 0 760 640" enable-background="new 0 0 760 640" xml:space="preserve">
<g id="ruler_under">
	<g id="h_45">
		<g>
			<g>
				<line fill="none" stroke="#999999" stroke-width="2" stroke-miterlimit="10" x1="20.5" y1="601" x2="360.5" y2="601"/>
				<line fill="none" stroke="#999999" stroke-width="2" stroke-miterlimit="10" x1="400.5" y1="601" x2="740.5" y2="601"/>
				<g>
					<rect x="19.5" y="593" fill="#999999" width="2" height="16"/>
				</g>
				<g>
					<rect x="739.5" y="593" fill="#999999" width="2" height="16"/>
				</g>
			</g>
		</g>
		<g>
			<path d="M375.2,610v-4.2h-7.2v-1.4l7-10h2.3v9.7h2.2v1.7h-2.2v4.2H375.2z M375.2,604.1v-5.2c0-0.8,0-1.6,0.1-2.4h-0.1
				c-0.5,0.9-0.9,1.6-1.3,2.3L370,604v0H375.2z"/>
			<path d="M390.2,596.2h-6l-0.6,4c0.4,0,0.7-0.1,1.3-0.1c1.2,0,2.4,0.3,3.4,0.8c1.2,0.7,2.2,2,2.2,4c0,3-2.4,5.3-5.8,5.3
				c-1.7,0-3.1-0.5-3.9-1l0.5-1.6c0.6,0.4,1.9,0.9,3.3,0.9c2,0,3.7-1.3,3.7-3.4c0-2-1.4-3.5-4.5-3.5c-0.9,0-1.6,0.1-2.2,0.2l1-7.5
				h7.5V596.2z"/>
		</g>
	</g>
	<g id="h_30_1_">
		<g>
			<g>
				<line fill="none" stroke="#999999" stroke-width="2" stroke-miterlimit="10" x1="20.5" y1="578" x2="240.5" y2="578"/>
				<line fill="none" stroke="#999999" stroke-width="2" stroke-miterlimit="10" x1="280.5" y1="578" x2="500.5" y2="578"/>
				<g>
					<rect x="19.5" y="570" fill="#999999" width="2" height="16"/>
				</g>
				<g>
					<rect x="499.5" y="570" fill="#999999" width="2" height="16"/>
				</g>
			</g>
		</g>
		<g>
			<path d="M249.1,584.6c0.6,0.4,2,1,3.5,1c2.7,0,3.6-1.7,3.5-3c0-2.2-2-3.1-4-3.1h-1.2v-1.6h1.2c1.5,0,3.5-0.8,3.5-2.6
				c0-1.2-0.8-2.4-2.7-2.4c-1.2,0-2.4,0.6-3.1,1l-0.6-1.5c0.8-0.6,2.4-1.2,4.1-1.2c3.1,0,4.5,1.8,4.5,3.7c0,1.6-1,3-2.9,3.7v0
				c1.9,0.4,3.5,1.8,3.5,4c0,2.5-1.9,4.7-5.7,4.7c-1.8,0-3.3-0.6-4.1-1.1L249.1,584.6z"/>
			<path d="M271.3,579c0,5.3-2,8.2-5.4,8.2c-3,0-5.1-2.9-5.2-8c0-5.2,2.3-8.1,5.4-8.1C269.4,571.1,271.3,574.1,271.3,579z
				 M262.8,579.3c0,4.1,1.2,6.4,3.2,6.4c2.2,0,3.2-2.5,3.2-6.5c0-3.8-1-6.4-3.2-6.4C264.2,572.8,262.8,575,262.8,579.3z"/>
		</g>
	</g>
	<g id="h_15">
		<g>
			<g>
				<line fill="none" stroke="#999999" stroke-width="2" stroke-miterlimit="10" x1="500.5" y1="578" x2="600.5" y2="578"/>
				<line fill="none" stroke="#999999" stroke-width="2" stroke-miterlimit="10" x1="640.5" y1="578" x2="740.5" y2="578"/>
				<g>
					<rect x="499.5" y="570" fill="#999999" width="2" height="16"/>
				</g>
				<g>
					<rect x="739.5" y="570" fill="#999999" width="2" height="16"/>
				</g>
			</g>
		</g>
		<g>
			<path d="M613.2,573.4L613.2,573.4l-2.8,1.5l-0.4-1.6l3.4-1.8h1.8V587h-2V573.4z"/>
			<path d="M630.2,573.2h-6l-0.6,4c0.4,0,0.7-0.1,1.3-0.1c1.2,0,2.4,0.3,3.4,0.8c1.2,0.7,2.2,2,2.2,4c0,3-2.4,5.3-5.8,5.3
				c-1.7,0-3.1-0.5-3.9-1l0.5-1.6c0.6,0.4,1.9,0.9,3.3,0.9c2,0,3.7-1.3,3.7-3.4c0-2-1.4-3.5-4.5-3.5c-0.9,0-1.6,0.1-2.2,0.2l1-7.5
				h7.5V573.2z"/>
		</g>
	</g>
</g>
<g id="ruler_above">
	<g id="h5">
		<g>
			<g>
				<line fill="none" stroke="#999999" stroke-width="2" stroke-miterlimit="10" x1="660.5" y1="58" x2="690.5" y2="58"/>
				<line fill="none" stroke="#999999" stroke-width="2" stroke-miterlimit="10" x1="710.5" y1="58" x2="740.5" y2="58"/>
				<g>
					<rect x="659.5" y="50" fill="#999999" width="2" height="16"/>
				</g>
				<g>
					<rect x="739.5" y="50" fill="#999999" width="2" height="16"/>
				</g>
			</g>
		</g>
		<g>
			<rect x="694.5" y="46.5" fill="none" width="13.9" height="30.4"/>
			<path d="M704.9,52.8h-6l-0.6,4c0.4,0,0.7-0.1,1.3-0.1c1.2,0,2.4,0.3,3.4,0.8c1.2,0.7,2.2,2,2.2,4c0,3-2.4,5.3-5.8,5.3
				c-1.7,0-3.1-0.5-3.9-1l0.5-1.6c0.6,0.4,1.9,0.9,3.3,0.9c2,0,3.7-1.3,3.7-3.4c0-2-1.4-3.5-4.5-3.5c-0.9,0-1.6,0.1-2.2,0.2l1-7.5
				h7.5V52.8z"/>
		</g>
		<g>
		</g>
	</g>
	<g id="h9">
		<g>
			<g>
				<line fill="none" stroke="#999999" stroke-width="2" stroke-miterlimit="10" x1="516.5" y1="58" x2="578.5" y2="58"/>
				<line fill="none" stroke="#999999" stroke-width="2" stroke-miterlimit="10" x1="598.5" y1="58" x2="660.5" y2="58"/>
				<g>
					<rect x="515.5" y="50" fill="#999999" width="2" height="16"/>
				</g>
				<g>
					<rect x="659.5" y="50" fill="#999999" width="2" height="16"/>
				</g>
			</g>
		</g>
		<g>
			<path d="M583.8,65.5c0.5,0,1,0,1.7-0.1c1.2-0.2,2.4-0.7,3.3-1.5c1-0.9,1.8-2.3,2.1-4.2h-0.1c-0.9,1.1-2.1,1.7-3.7,1.7
				c-2.8,0-4.6-2.1-4.6-4.8c0-3,2.1-5.5,5.3-5.5s5.2,2.6,5.2,6.6c0,3.4-1.2,5.8-2.7,7.3c-1.2,1.2-2.9,1.9-4.5,2.1
				c-0.8,0.1-1.4,0.1-1.9,0.1V65.5z M584.6,56.5c0,1.9,1.2,3.3,3,3.3c1.4,0,2.5-0.7,3.1-1.6c0.1-0.2,0.2-0.4,0.2-0.8
				c0-2.7-1-4.7-3.2-4.7C585.9,52.7,584.6,54.3,584.6,56.5z"/>
		</g>
	</g>
</g>
<g id="ruler_4-tone" display="none">
	<g display="inline">
		<path fill="#1197CC" d="M839.8,319.3c-0.7,0.6-1.5,1.2-2.3,1.7c-0.2,0.1-0.3,0.2-0.4,0.2c-0.1,0-0.2-0.2-0.4-0.5
			c-0.2-0.4-0.4-0.7-0.7-1c-0.2,0.5-0.4,0.9-0.6,1.4c1.3,1.7,1.5,2.7,1.5,4.1c0,1.6-0.7,2.4-2.5,2.7c-0.6,0.1-0.6,0.1-0.7-0.6
			c-0.1-0.6-0.2-0.9-0.4-1.2c1.2,0.1,1.7-0.2,1.7-1.4c0-0.9-0.5-2-1.6-3.5c0.8-1.6,1.1-2.8,1.6-4.3h-1.9v11.4c0,2.8,0,4.2,0,4.3
			c0,0.2,0,0.2-0.2,0.2h-1.6c-0.2,0-0.2,0-0.2-0.2c0-0.1,0-1.5,0-4.3v-8.7c0-2.8,0-4.2,0-4.4c0-0.2,0-0.2,0.2-0.2c0.1,0,0.6,0,1.6,0
			h2.6c0.2,0,0.3,0,0.4-0.1c0.1,0,0.2-0.1,0.3-0.1c0.2,0,0.3,0.1,0.8,0.7c0.4,0.5,0.5,0.6,0.5,0.8c0,0.2-0.1,0.2-0.2,0.3
			c-0.2,0.2-0.3,0.4-0.4,0.6c-0.3,0.8-0.6,1.5-0.8,2.2c2-1.1,3.4-2.3,4.9-4.2c0.2-0.3,0.4-0.6,0.5-1c0.6,0.1,1.3,0.2,1.9,0.4
			c0.2,0.1,0.2,0.1,0.2,0.2c0,0.1,0,0.2-0.2,0.3l-0.2,0.1c1.6,1.8,3.4,3,5.8,3.9c-0.2,0.3-0.5,0.7-0.7,1.2c-0.1,0.4-0.2,0.5-0.4,0.5
			c-0.1,0-0.2-0.1-0.5-0.2c-0.9-0.5-1.8-1-2.6-1.6v0.9c0,0.2,0,0.2-0.2,0.2c-0.1,0-0.4,0-1.6,0h-1.5c-1.1,0-1.5,0-1.6,0
			c-0.2,0-0.2,0-0.2-0.2V319.3z M839.4,328.5c-1.7,0-2.4,0-2.5,0c-0.2,0-0.2,0-0.2-0.2v-1.2c0-0.2,0-0.2,0.2-0.2c0.1,0,0.8,0,2.5,0
			h6.2c1.9,0,2.6,0,2.7,0c0.2,0,0.2,0,0.2,0.2v1.2c0,0.2,0,0.2-0.2,0.2c-0.1,0-0.8,0-2.7,0h-0.3c1.1,1,1.8,1.9,2.6,3.1
			c0.1,0.2,0.1,0.3-0.1,0.4l-1.2,0.7c-0.1,0.1-0.2,0.1-0.2,0.1c-0.1,0-0.1,0-0.1-0.1c-0.2-0.4-0.4-0.7-0.7-1.1
			c-2.4,0.3-5,0.5-7.5,0.7c-0.5,0-0.7,0.1-0.9,0.2c-0.1,0-0.2,0.1-0.3,0.1s-0.2-0.1-0.3-0.3c-0.2-0.5-0.3-1.1-0.4-1.7
			c0.9,0,1.6,0,2.3,0c0.5-0.8,0.8-1.4,1.1-2H839.4z M840.5,325.9c-1.8,0-2.4,0-2.5,0c-0.2,0-0.2,0-0.2-0.2v-1.2c0-0.2,0-0.2,0.2-0.2
			c0.1,0,0.7,0,2.5,0h2.1c0.4-0.5,0.7-0.9,1.1-1.5h-3c-1.6,0-2.2,0-2.3,0c-0.2,0-0.2,0-0.2-0.2v-1.2c0-0.2,0-0.2,0.2-0.2
			c0.1,0,0.7,0,2.3,0h4c0.2,0,0.3,0,0.3-0.1s0.1-0.1,0.2-0.1c0.2,0,0.3,0.1,0.8,0.5c0.5,0.4,0.5,0.6,0.5,0.7s-0.1,0.2-0.2,0.3
			c-0.2,0.1-0.3,0.2-0.6,0.6c-0.3,0.4-0.6,0.8-0.8,1.1c1.7,0,2.3,0,2.4,0c0.2,0,0.2,0,0.2,0.2v1.2c0,0.2,0,0.2-0.2,0.2
			c-0.1,0-0.7,0-2.5,0H840.5z M843.1,318.8c0.7,0,1.1,0,1.3,0c-0.8-0.6-1.5-1.3-2.2-2.1c-0.6,0.8-1.2,1.5-1.9,2.1c0.2,0,0.6,0,1.3,0
			H843.1z M841.6,328.5c-0.3,0.7-0.6,1.3-1,1.9c1.3-0.1,2.6-0.1,3.8-0.3l-0.7-0.8c-0.1-0.2-0.1-0.2,0.1-0.4l1-0.5H841.6z"/>
		<path fill="#1197CC" d="M835.5,335.1c0.2,0,0.3,0,0.4-0.1c0.1,0,0.2-0.1,0.3-0.1c0.2,0,0.3,0,0.8,0.6c0.4,0.5,0.5,0.6,0.5,0.8
			c0,0.2-0.1,0.2-0.2,0.4c-0.2,0.2-0.3,0.4-0.4,0.6c-0.5,1.4-0.8,2.1-1.5,3.5c1.2,1.2,1.5,2.8,1.5,4c0,1.5-0.7,2.4-2.4,2.7
			c-0.6,0.1-0.6,0.1-0.7-0.6c-0.1-0.6-0.2-0.9-0.4-1.2c1.2,0.1,1.6-0.3,1.6-1.4c0-0.9-0.4-2-1.6-3.4c0.8-1.6,1.1-2.5,1.6-4h-1.9
			v11.4c0,2.8,0,4.2,0,4.3c0,0.2,0,0.2-0.2,0.2h-1.6c-0.2,0-0.2,0-0.2-0.2c0-0.1,0-1.5,0-4.3v-8.7c0-2.8,0-4.2,0-4.4
			c0-0.2,0-0.2,0.2-0.2c0.1,0,0.6,0,1.6,0H835.5z M842.6,346.6c-1.1,1.9-2.5,3.2-4.3,4.3c-0.2,0.1-0.3,0.2-0.4,0.2
			c-0.1,0-0.2-0.1-0.5-0.4c-0.2-0.2-0.7-0.5-1-0.6c1.9-0.9,3.3-2,4.3-3.5h-1.1c-0.7,0.8-1.5,1.4-2.3,2c-0.2,0.1-0.4,0.2-0.5,0.2
			c-0.1,0-0.3-0.1-0.5-0.4c-0.2-0.3-0.7-0.6-1-0.7c1.4-0.7,2.5-1.6,3.5-2.9c0.2-0.3,0.3-0.6,0.5-0.9c-1.3,0-1.7,0-1.8,0
			c-0.2,0-0.2,0-0.2-0.2v-1.3c0-0.2,0-0.2,0.2-0.2c0.1,0,0.8,0,2.7,0h5.6c1.9,0,2.6,0,2.7,0c0.2,0,0.2,0,0.2,0.2v1.3
			c0,0.2,0,0.2-0.2,0.2c-0.1,0-0.8,0-2.7,0h-5.4l0.6,0.2c0.3,0.1,0.3,0.2,0.3,0.3c0,0.1,0,0.2-0.1,0.2c-0.1,0.1-0.2,0.2-0.3,0.3h4.7
			c1.6,0,2.2,0,2.3,0c0.2,0,0.3,0,0.3,0.2c-0.1,0.6-0.1,1.3-0.1,1.9c-0.1,1.9-0.3,3.1-0.5,4c-0.3,1.1-0.9,1.5-2.1,1.5
			c-0.4,0-0.6,0-0.9,0c-0.5,0-0.5,0-0.6-0.7c-0.1-0.5-0.3-1-0.5-1.3c0.7,0.1,0.9,0.1,1.4,0.1c0.5,0,0.7-0.2,0.9-0.6
			c0.2-0.5,0.3-1.3,0.4-3.4h-0.6c-1,2.5-2.3,4.4-4.7,5.8c-0.2,0.1-0.4,0.2-0.5,0.2c-0.1,0-0.2-0.1-0.5-0.4c-0.2-0.2-0.7-0.5-0.9-0.7
			c2.2-1.1,3.7-2.7,4.7-5H842.6z M844.4,335.2c1.6,0,2.2,0,2.3,0c0.2,0,0.2,0,0.2,0.2c0,0.1,0,0.6,0,1.7v2.4c0,1.1,0,1.6,0,1.7
			c0,0.2,0,0.2-0.2,0.2c-0.1,0-0.7,0-2.3,0h-3.5c-1.6,0-2.2,0-2.3,0c-0.2,0-0.2,0-0.2-0.2c0-0.1,0-0.6,0-1.7V337c0-1.1,0-1.6,0-1.7
			c0-0.2,0-0.2,0.2-0.2c0.1,0,0.7,0,2.3,0H844.4z M840.2,337.6h4.8v-0.9h-4.8V337.6z M845,339h-4.8v0.9h4.8V339z"/>
		<path fill="#1197CC" d="M833.5,371.7c-1.8,0-2.4,0-2.5,0c-0.2,0-0.2,0-0.2-0.2v-1.8c0-0.2,0-0.2,0.2-0.2c0.1,0,0.7,0,2.5,0h4.2
			v-11.3c0-1.6,0-2.4-0.2-3.3c0.8,0,1.7,0.1,2.3,0.1c0.2,0,0.4,0.1,0.4,0.3c0,0.2-0.1,0.3-0.1,0.5c-0.1,0.2-0.1,0.7-0.1,1.9v3.2h3.9
			c1.7,0,2.3,0,2.5,0c0.2,0,0.2,0,0.2,0.2v1.8c0,0.2,0,0.2-0.2,0.2c-0.1,0-0.7,0-2.5,0H840v6.5h5.5c1.8,0,2.4,0,2.5,0
			c0.2,0,0.2,0,0.2,0.2v1.8c0,0.2,0,0.2-0.2,0.2c-0.1,0-0.7,0-2.5,0H833.5z"/>
		<path fill="#1197CC" d="M843.1,386c0.2-0.1,0.3-0.1,0.4,0c1.5,1.6,2.9,3.3,3.9,5.2c0.1,0.2,0.1,0.2-0.2,0.4l-1.3,0.8
			c-0.1,0.1-0.2,0.1-0.3,0.1c-0.1,0-0.1,0-0.2-0.1c-0.3-0.6-0.6-1.2-1-1.7c-3.3,0.6-7.1,1-10.7,1.3c-0.7,0.1-1,0.1-1.2,0.2
			c-0.1,0.1-0.2,0.1-0.3,0.1c-0.1,0-0.3-0.1-0.3-0.3c-0.2-0.6-0.3-1.3-0.4-2c0.9,0,1.5,0,2.1,0l0.8,0c1-1.7,1.8-3.3,2.5-5.1h-3.6
			c-1.8,0-2.4,0-2.5,0c-0.2,0-0.2,0-0.2-0.2v-1.5c0-0.2,0-0.2,0.2-0.2c0.1,0,0.7,0,2.5,0h4.8v-2.9h-2.8c-2,0-2.6,0-2.8,0
			c-0.2,0-0.2,0-0.2-0.2v-1.5c0-0.2,0-0.2,0.2-0.2c0.1,0,0.8,0,2.8,0h2.8v-0.9c0-1.3,0-1.8-0.2-2.5c0.8,0,1.5,0,2.2,0.1
			c0.2,0,0.3,0.1,0.3,0.2c0,0.2,0,0.3-0.1,0.4c-0.1,0.2-0.1,0.7-0.1,1.6v1h3.1c2,0,2.6,0,2.8,0c0.2,0,0.2,0,0.2,0.2v1.5
			c0,0.2,0,0.2-0.2,0.2c-0.1,0-0.8,0-2.8,0h-3.1v2.9h5.1c1.8,0,2.4,0,2.5,0c0.2,0,0.2,0,0.2,0.2v1.5c0,0.2,0,0.2-0.2,0.2
			c-0.1,0-0.7,0-2.5,0h-6.2c-0.7,1.8-1.5,3.4-2.4,4.9c2.3-0.2,4.6-0.5,6.5-0.7c-0.5-0.7-1.1-1.3-1.7-2c-0.2-0.2-0.1-0.2,0.1-0.3
			L843.1,386z"/>
	</g>
	<g id="v9_1_" display="inline">
		<g>
			<g>
				<line fill="none" stroke="#1197CC" stroke-width="2" stroke-miterlimit="10" x1="839.5" y1="224" x2="839.5" y2="249"/>
				<line fill="none" stroke="#1197CC" stroke-width="2" stroke-miterlimit="10" x1="839.5" y1="279" x2="839.5" y2="304"/>
				<g>
					<rect x="831.5" y="223" fill="#1197CC" width="16" height="2"/>
				</g>
				<g>
					<rect x="831.5" y="303" fill="#1197CC" width="16" height="2"/>
				</g>
			</g>
		</g>
		<g>
			<path d="M843.7,257.4h-6l-0.6,4c0.4,0,0.7-0.1,1.3-0.1c1.2,0,2.4,0.3,3.4,0.8c1.2,0.7,2.2,2,2.2,4c0,3-2.4,5.3-5.8,5.3
				c-1.7,0-3.1-0.5-3.9-1l0.5-1.6c0.6,0.4,1.9,0.9,3.3,0.9c2,0,3.7-1.3,3.7-3.4c0-2-1.4-3.5-4.5-3.5c-0.9,0-1.6,0.1-2.2,0.2l1-7.5
				h7.5V257.4z"/>
		</g>
	</g>
	<g id="v9" display="inline">
		<g>
			<g>
				<line fill="none" stroke="#1197CC" stroke-width="2" stroke-miterlimit="10" x1="839.5" y1="80" x2="839.5" y2="137"/>
				<line fill="none" stroke="#1197CC" stroke-width="2" stroke-miterlimit="10" x1="839.5" y1="167" x2="839.5" y2="224"/>
				<g>
					<rect x="831.5" y="79" fill="#1197CC" width="16" height="2"/>
				</g>
				<g>
					<rect x="831.5" y="223" fill="#1197CC" width="16" height="2"/>
				</g>
			</g>
		</g>
		<g>
			<path d="M835.6,157.8c0.5,0,1,0,1.7-0.1c1.2-0.2,2.4-0.7,3.3-1.5c1-0.9,1.8-2.3,2.1-4.2h-0.1c-0.9,1.1-2.1,1.7-3.7,1.7
				c-2.8,0-4.6-2.1-4.6-4.8c0-3,2.1-5.5,5.3-5.5s5.2,2.6,5.2,6.6c0,3.4-1.2,5.8-2.7,7.3c-1.2,1.2-2.9,1.9-4.5,2.1
				c-0.8,0.1-1.4,0.1-1.9,0.1V157.8z M836.4,148.8c0,1.9,1.2,3.3,3,3.3c1.4,0,2.5-0.7,3.1-1.6c0.1-0.2,0.2-0.4,0.2-0.8
				c0-2.7-1-4.7-3.2-4.7C837.7,145,836.4,146.6,836.4,148.8z"/>
		</g>
	</g>
</g>
<g id="ruler_symbol" display="none">
	<g display="inline">
		<path fill="#66CC66" d="M759.1,167.8c0.2-0.2,0.2-0.2,0.4-0.1c1,0.5,1.9,1.2,2.8,2c0.1,0.1,0.1,0.1,0.1,0.2c0,0.1,0,0.1-0.1,0.2
			l-0.9,1.3c-0.1,0.1-0.1,0.1-0.2,0.1c0,0-0.1,0-0.2-0.1c-0.9-0.8-1.8-1.6-2.8-2.2c-0.1-0.1-0.1-0.1-0.1-0.1c0-0.1,0-0.1,0.1-0.2
			L759.1,167.8z M759.2,177.6c0.6-1.1,1.3-2.7,2-4.6c0.3,0.3,0.7,0.7,1.1,1c0.3,0.2,0.4,0.3,0.4,0.5c0,0.1,0,0.2-0.1,0.5
			c-0.6,1.6-1.3,3.1-1.9,4.4c-0.2,0.3-0.3,0.6-0.3,0.8c0,0.2-0.1,0.3-0.3,0.3c-0.1,0-0.2,0-0.4-0.1c-0.5-0.3-1-0.6-1.5-1.1
			C758.6,178.6,758.9,178.2,759.2,177.6z M760,162.8c0.2-0.2,0.2-0.2,0.4-0.1c1,0.6,2,1.3,2.9,2.1c0.1,0.1,0.1,0.1,0.1,0.2
			s0,0.1-0.1,0.2l-0.9,1.2c-0.2,0.2-0.2,0.2-0.3,0.1c-0.9-0.8-2-1.7-2.9-2.3c-0.1-0.1-0.1-0.1-0.1-0.1c0-0.1,0-0.1,0.1-0.2
			L760,162.8z M765.7,179.8c-2,0-2.7,0-2.8,0c-0.2,0-0.2,0-0.2-0.2v-1.5c0-0.2,0-0.2,0.2-0.2c0.1,0,0.8,0,2.8,0h2.5v-4.3h-1.3
			c-1.9,0-2.5,0-2.6,0c-0.2,0-0.2,0-0.2-0.2v-1.5c0-0.2,0-0.2,0.2-0.2c0.1,0,0.8,0,2.6,0h1.3v-3.5h-1.7c-1.9,0-2.6,0-2.7,0
			c-0.2,0-0.2,0-0.2-0.2v-1.5c0-0.2,0-0.2,0.2-0.2c0.1,0,0.8,0,2.7,0h6.1c1.9,0,2.6,0,2.7,0c0.2,0,0.2,0,0.2,0.2v1.5
			c0,0.2,0,0.2-0.2,0.2c-0.1,0-0.8,0-2.7,0h-2.2v3.5h1.7c1.9,0,2.5,0,2.6,0c0.2,0,0.2,0,0.2,0.2v1.5c0,0.2,0,0.2-0.2,0.2
			c-0.1,0-0.7,0-2.6,0h-1.7v4.3h2.8c2,0,2.6,0,2.8,0c0.2,0,0.2,0,0.2,0.2v1.5c0,0.2,0,0.2-0.2,0.2c-0.1,0-0.8,0-2.8,0H765.7z
			 M767.7,162.5c0.2-0.2,0.2-0.2,0.4-0.1c1,0.4,2.4,1.3,3.4,2.1c0.1,0.1,0.1,0.1,0.1,0.2s0,0.1-0.2,0.2l-1,1.2
			c-0.2,0.2-0.2,0.2-0.4,0.1c-0.9-0.9-2.3-1.7-3.4-2.2c-0.2-0.1-0.2-0.1,0-0.3L767.7,162.5z"/>
		<path fill="#66CC66" d="M760.9,190.6c-1.8,0-2.4,0-2.5,0c-0.2,0-0.2,0-0.2-0.2V189c0-0.2,0-0.2,0.2-0.2c0.1,0,0.7,0,2.5,0h2.2
			c-0.2-0.8-0.4-1.3-0.8-2c-0.1-0.2,0-0.2,0.2-0.3l1.4-0.4c0.2-0.1,0.3,0,0.4,0.2c0.4,0.7,0.6,1.4,1,2.4h3.4
			c0.3-0.7,0.5-1.1,0.7-1.7c0.1-0.3,0.2-0.6,0.2-1c0.7,0.1,1.3,0.3,1.9,0.5c0.2,0.1,0.3,0.1,0.3,0.2s-0.1,0.2-0.2,0.3
			c-0.1,0.1-0.2,0.3-0.3,0.5l-0.5,1.2h2.7c1.8,0,2.4,0,2.5,0c0.2,0,0.2,0,0.2,0.2v1.4c0,0.2,0,0.2-0.2,0.2c-0.1,0-0.7,0-2.5,0H760.9
			z M762.2,186c-1.9,0-2.6,0-2.7,0c-0.2,0-0.2,0-0.2-0.2v-1.4c0-0.2,0-0.2,0.2-0.2c0.1,0,0.8,0,2.7,0h3.7v0c0-0.8,0-1.3-0.1-1.8
			c0.7,0,1.4,0,2.2,0.1c0.2,0,0.3,0.1,0.3,0.2c0,0.1-0.1,0.2-0.1,0.4c-0.1,0.2-0.1,0.4-0.1,1.1v0h3.9c1.9,0,2.6,0,2.7,0
			c0.2,0,0.2,0,0.2,0.2v1.4c0,0.2,0,0.2-0.2,0.2c-0.1,0-0.7,0-2.6,0H762.2z M761.4,200.7c-0.2,0-0.2,0-0.2-0.2c0-0.1,0-0.7,0-3.8
			v-1.9c0-2,0-2.5,0-2.7c0-0.2,0-0.2,0.2-0.2c0.1,0,0.8,0,2.7,0h6.1c1.9,0,2.6,0,2.7,0c0.2,0,0.2,0,0.2,0.2c0,0.1,0,0.7,0,2.4v2.2
			c0,3.1,0,3.7,0,3.8c0,0.2,0,0.2-0.2,0.2h-1.6c-0.2,0-0.2,0-0.2-0.2v-0.7h-7.8v0.8c0,0.2,0,0.2-0.2,0.2H761.4z M763.2,194.9h7.8
			v-1.3h-7.8V194.9z M771,198v-1.5h-7.8v1.5H771z"/>
		<path fill="#66CC66" d="M760.8,215.6c0-0.7,0-1.5,0-2.3c-0.5,0.5-0.9,1-1.4,1.4c-0.2,0.2-0.3,0.3-0.4,0.3c-0.1,0-0.2-0.1-0.4-0.5
			c-0.3-0.5-0.5-0.9-0.8-1.3c1.8-1.3,2.9-2.7,3.8-4.2c0.3-0.5,0.6-1.1,0.7-1.5c0.3,0.1,0.6,0.2,0.8,0.3c-0.2-0.7-0.5-1.4-0.8-2h-1.1
			c-0.5,0.7-1.1,1.4-1.7,2.1c-0.2,0.2-0.3,0.3-0.4,0.3c-0.1,0-0.2-0.1-0.4-0.4c-0.3-0.4-0.6-0.7-1-0.9c1.2-1,2.1-2.3,2.7-3.5
			c0.2-0.4,0.3-0.7,0.4-1.2c0.7,0.1,1.3,0.2,1.9,0.4c0.2,0,0.3,0.1,0.3,0.3c0,0.1-0.1,0.2-0.2,0.3c-0.1,0.1-0.2,0.2-0.3,0.5
			l-0.2,0.5h2c1.7,0,2.2,0,2.4,0c0.2,0,0.2,0,0.2,0.2v1.3c0,0.2,0,0.2-0.2,0.2c-0.1,0-0.7,0-2.2,0c0.3,0.5,0.5,1,0.8,1.5
			c0.1,0.2,0.1,0.3-0.2,0.3l-1.5,0.3l0.5,0.3c0.2,0.1,0.3,0.2,0.3,0.3c0,0.1,0,0.2-0.2,0.3c-0.1,0.1-0.3,0.3-0.5,0.7
			c-0.2,0.4-0.5,0.8-0.8,1.2v7.3c0,1.5,0,2.3,0,2.4c0,0.2,0,0.2-0.2,0.2H761c-0.2,0-0.2,0-0.2-0.2c0-0.1,0-0.8,0-2.4V215.6z
			 M766.8,212.1c-1.9,0-2.6,0-2.7,0c-0.2,0-0.2,0-0.2-0.2v-1.5c0-0.2,0-0.2,0.2-0.2c0.1,0,0.8,0,2.7,0h4.4c0-0.9,0-1.5-0.2-2.3
			c0.8,0,1.4,0.1,2.1,0.2c0.2,0,0.3,0.1,0.3,0.2c0,0.2-0.1,0.3-0.1,0.4c-0.1,0.2-0.1,0.6-0.1,1.5c1.9,0,2.6,0,2.7,0
			c0.2,0,0.2,0,0.2,0.2v1.5c0,0.2,0,0.2-0.2,0.2c-0.1,0-0.8,0-2.7,0v2.5c0,1.4,0.1,2.4,0.1,3.6c0,0.9-0.1,1.5-0.7,1.9
			c-0.6,0.3-1.3,0.5-3,0.5c-0.6,0-0.6,0-0.8-0.6c-0.1-0.6-0.4-1.2-0.6-1.6c0.8,0.1,1.3,0.1,2,0.1c0.9,0,1-0.1,1-0.6v-5.7H766.8z
			 M766.1,213c0.1-0.1,0.2-0.1,0.2-0.1c0.1,0,0.1,0,0.2,0.1c0.9,0.9,1.6,1.7,2.4,2.9c0.1,0.2,0.1,0.2-0.1,0.4l-1.1,0.8
			c-0.1,0.1-0.2,0.1-0.3,0.1c-0.1,0-0.1,0-0.2-0.1c-0.7-1.1-1.4-2.1-2.3-3c-0.2-0.2-0.1-0.2,0.1-0.4L766.1,213z M769.3,205.9
			c-0.4,0.7-0.8,1.3-1.4,1.9c-0.2,0.2-0.3,0.3-0.4,0.3c-0.1,0-0.2-0.1-0.4-0.4c-0.3-0.4-0.7-0.7-1-0.9c1.1-1.1,1.9-2.3,2.4-3.5
			c0.1-0.3,0.2-0.7,0.3-1.1c0.6,0.1,1.4,0.2,1.8,0.3c0.2,0.1,0.3,0.1,0.3,0.3c0,0.1-0.1,0.2-0.2,0.3c-0.1,0.1-0.2,0.2-0.3,0.6
			c-0.1,0.1-0.1,0.3-0.2,0.4h2.9c1.9,0,2.5,0,2.7,0c0.2,0,0.2,0,0.2,0.2v1.3c0,0.2,0,0.2-0.2,0.2c-0.1,0-0.8,0-2.7,0h-0.5
			c0.3,0.4,0.5,0.8,0.7,1.3c0.1,0.2,0,0.3-0.2,0.3l-1.3,0.2c-0.3,0-0.3,0.1-0.4-0.2c-0.2-0.6-0.5-1.1-0.8-1.7H769.3z"/>
		<path fill="#66CC66" d="M761.7,231.8c-0.1,0.5-0.3,1-0.4,1.6h1.6c0.7,0,1.2,0,1.4,0c0.2,0,0.2,0,0.2,0.3c-0.1,0.4-0.1,0.9-0.1,1.3
			c-0.2,2.5-0.4,3.8-0.8,4.7c-0.3,0.6-0.8,0.9-1.8,0.9c-0.3,0-0.6,0-0.9,0c-0.5,0-0.5-0.1-0.6-0.6c-0.1-0.6-0.2-1.1-0.4-1.4
			c0.6,0.1,1,0.2,1.4,0.2c0.4,0,0.6-0.1,0.8-0.4c0.3-0.6,0.4-1.6,0.4-3.1h-1.8c-0.1,0.3-0.2,0.5-0.3,0.7c-0.1,0.2-0.1,0.2-0.4,0.2
			l-1.3-0.2c-0.2,0-0.3-0.1-0.2-0.3c0.5-1.2,0.9-2.5,1.2-3.7c-1.1,0-1.5,0-1.6,0c-0.2,0-0.2,0-0.2-0.2v-1.4c0-0.2,0-0.2,0.2-0.2
			c0.1,0,0.6,0,2.1,0h2.6c1.5,0,2,0,2.1,0c0.2,0,0.2,0,0.2,0.2v1.4c0,0.2,0,0.2-0.2,0.2c-0.1,0-0.6,0-2.1,0H761.7z M762.6,223.1
			c1.3,0,1.7,0,1.8,0c0.2,0,0.2,0,0.2,0.2c0,0.1,0,0.6,0,1.6v2c0,1.1,0,1.5,0,1.6c0,0.2,0,0.2-0.2,0.2c-0.1,0-0.5,0-1.8,0h-1.8
			c-1.2,0-1.6,0-1.8,0c-0.2,0-0.2,0-0.2-0.2c0-0.1,0-0.5,0-1.6v-2c0-1,0-1.5,0-1.6c0-0.2,0-0.2,0.2-0.2c0.1,0,0.5,0,1.8,0H762.6z
			 M762.8,224.8h-2.2v2.2h2.2V224.8z M769.3,231.2c-1.1,0.1-1.5,0.1-1.7,0.2c0,1.4-0.1,2.6-0.2,3.9c-0.2,1.7-0.7,3.4-1.6,4.9
			c-0.1,0.2-0.2,0.3-0.4,0.3c-0.1,0-0.2-0.1-0.4-0.3c-0.4-0.4-0.7-0.7-1.1-0.9c1.1-1.3,1.5-2.8,1.7-4.5c0.2-1.4,0.2-3.1,0.2-5.3
			c0-1.9,0-2.8,0-2.9c0-0.2,0-0.2,0.2-0.2c0.1,0,0.9,0,2.5,0h0.8v-2.3c0-0.6,0-1.1-0.1-1.6c0.8,0,1.2,0.1,2,0.1
			c0.2,0,0.3,0.1,0.3,0.2c0,0.1-0.1,0.2-0.1,0.3c-0.1,0.1-0.1,0.3-0.1,0.7h1.7c1.3,0,1.7,0,1.8,0c0.2,0,0.2,0,0.2,0.2v1.2
			c0,0.2,0,0.2-0.2,0.2c-0.1,0-0.5,0-1.8,0h-1.7v1h3c0.2,0,0.3,0,0.4-0.1c0.1,0,0.2-0.1,0.3-0.1c0.2,0,0.3,0.1,0.8,0.4
			c0.5,0.3,0.6,0.5,0.6,0.6c0,0.2-0.1,0.3-0.2,0.4c-0.1,0.1-0.1,0.2-0.3,0.5c-0.2,0.4-0.4,1-0.9,1.7c-0.1,0.2-0.2,0.3-0.3,0.3
			c-0.1,0-0.2-0.1-0.4-0.2c-0.4-0.2-0.7-0.3-1-0.4l0.1,1.3c0,0.2-0.1,0.2-0.2,0.2c-0.2,0-0.5,0-1.7,0.1L771,231v0.2
			c0,0.4,0.1,0.5,0.2,0.6c0.2,0.1,0.6,0.1,1.2,0.1c0.8,0,1.1,0,1.3-0.2c0.2-0.2,0.3-0.5,0.4-1.3c0.3,0.2,0.8,0.4,1.2,0.5
			c0.5,0.1,0.5,0.1,0.4,0.6c-0.1,0.8-0.3,1.2-0.7,1.5c-0.4,0.3-1.2,0.5-2.6,0.5c-1.2,0-2.1-0.1-2.5-0.3c-0.4-0.2-0.6-0.6-0.6-1.5
			V231.2z M768.9,235.6c0-0.5,0-1-0.1-1.6c0.6,0,1.3,0.1,1.8,0.2c0.2,0,0.3,0.1,0.3,0.3c0,0.1-0.1,0.3-0.1,0.4
			c-0.1,0.2-0.1,0.6-0.1,1c-0.1,2.2-0.8,3.6-2.6,4.6c-0.2,0.1-0.3,0.2-0.4,0.2c-0.1,0-0.2-0.1-0.4-0.3c-0.3-0.5-0.7-0.8-1-1
			C768.2,238.5,768.8,237.6,768.9,235.6z M769.3,229.5c0-0.5,0-1-0.1-1.3c0.5,0,1.3,0.1,1.7,0.1c0.2,0,0.3,0.1,0.3,0.2
			c0,0.1,0,0.1-0.1,0.2c-0.1,0.1-0.1,0.3-0.1,0.8v0l0.5-0.1c1.1-0.1,1.5-0.2,1.8-0.2c0.4-0.5,0.6-1,0.8-1.4h-6.5v2l1.7-0.2V229.5z
			 M773.5,238.1c0,0.4,0,0.5,0.1,0.6c0.1,0.1,0.2,0.1,0.4,0.1s0.4-0.1,0.6-0.3c0.2-0.3,0.2-0.7,0.2-2c0.3,0.2,0.8,0.3,1.2,0.5
			c0.4,0.1,0.4,0.2,0.4,0.6c-0.1,1.4-0.3,1.9-0.5,2.3c-0.3,0.4-0.7,0.6-2,0.6c-0.9,0-1.4,0-1.8-0.3c-0.3-0.2-0.5-0.6-0.5-1.4v-2.4
			c0-0.9,0-1.5-0.1-2.2c0.5,0,1.4,0.1,1.8,0.1c0.2,0,0.3,0.1,0.3,0.2c0,0.2-0.1,0.2-0.1,0.4c-0.1,0.2-0.1,0.4-0.1,1.1V238.1z"/>
	</g>
	<g id="v9_5_" display="inline">
		<g>
			<g>
				<line fill="none" stroke="#66CC66" stroke-width="2" stroke-miterlimit="10" x1="767.5" y1="255" x2="767.5" y2="312"/>
				<line fill="none" stroke="#66CC66" stroke-width="2" stroke-miterlimit="10" x1="767.5" y1="342" x2="767.5" y2="399"/>
				<g>
					<rect x="759.5" y="254" fill="#66CC66" width="16" height="2"/>
				</g>
				<g>
					<rect x="759.5" y="398" fill="#66CC66" width="16" height="2"/>
				</g>
			</g>
		</g>
		<g>
			<path d="M763.6,332.8c0.5,0,1,0,1.7-0.1c1.2-0.2,2.4-0.7,3.3-1.5c1-0.9,1.8-2.3,2.1-4.2h-0.1c-0.9,1.1-2.1,1.7-3.7,1.7
				c-2.8,0-4.6-2.1-4.6-4.8c0-3,2.1-5.5,5.3-5.5s5.2,2.6,5.2,6.6c0,3.4-1.2,5.8-2.7,7.3c-1.2,1.2-2.9,1.9-4.5,2.1
				c-0.8,0.1-1.4,0.1-1.9,0.1V332.8z M764.4,323.8c0,1.9,1.2,3.3,3,3.3c1.4,0,2.5-0.7,3.1-1.6c0.1-0.2,0.2-0.4,0.2-0.8
				c0-2.7-1-4.7-3.2-4.7C765.7,320,764.4,321.6,764.4,323.8z"/>
		</g>
	</g>
	<g id="v9_6_" display="inline">
		<g>
			<g>
				<line fill="none" stroke="#66CC66" stroke-width="2" stroke-miterlimit="10" x1="767.5" y1="399" x2="767.5" y2="464"/>
				<line fill="none" stroke="#66CC66" stroke-width="2" stroke-miterlimit="10" x1="767.5" y1="494" x2="767.5" y2="559"/>
				<g>
					<rect x="759.5" y="398" fill="#66CC66" width="16" height="2"/>
				</g>
				<g>
					<rect x="759.5" y="558" fill="#66CC66" width="16" height="2"/>
				</g>
			</g>
		</g>
		<g>
			<path d="M760,471.9L760,471.9l-3.1,1.6l-0.5-1.8l3.8-2h2V487H760V471.9z"/>
			<path d="M780.1,478.2c0,5.9-2.2,9.1-6,9.1c-3.4,0-5.7-3.2-5.7-8.9c0-5.8,2.5-9,6-9C778,469.4,780.1,472.7,780.1,478.2z
				 M770.6,478.5c0,4.5,1.4,7.1,3.5,7.1c2.4,0,3.5-2.8,3.5-7.2c0-4.3-1.1-7.1-3.5-7.1C772.1,471.2,770.6,473.7,770.6,478.5z"/>
		</g>
	</g>
</g>
<g id="ruler_5th-tone" display="none">
	<g id="v9_3_" display="inline">
		<g>
			<g>
				<line fill="none" stroke="#FF3399" stroke-width="2" stroke-miterlimit="10" x1="802.5" y1="208" x2="802.5" y2="240"/>
				<g>
					<rect x="794.5" y="207" fill="#FF3399" width="16" height="2"/>
				</g>
				<g>
					<rect x="794.5" y="239" fill="#FF3399" width="16" height="2"/>
				</g>
			</g>
		</g>
		<g>
			<path d="M785.7,231.2v-1.3l1.7-1.6c4-3.8,5.8-5.8,5.8-8.2c0-1.6-0.8-3-3.1-3c-1.4,0-2.6,0.7-3.3,1.3l-0.7-1.5
				c1.1-0.9,2.6-1.6,4.4-1.6c3.4,0,4.8,2.3,4.8,4.5c0,2.9-2.1,5.2-5.4,8.4l-1.2,1.2v0h7v1.8H785.7z"/>
		</g>
	</g>
	<g id="v9_2_" display="inline">
		<g>
			<g>
				<line fill="none" stroke="#FF3399" stroke-width="2" stroke-miterlimit="10" x1="802.5" y1="80" x2="802.5" y2="129"/>
				<line fill="none" stroke="#FF3399" stroke-width="2" stroke-miterlimit="10" x1="802.5" y1="159" x2="802.5" y2="208"/>
				<g>
					<rect x="794.5" y="79" fill="#FF3399" width="16" height="2"/>
				</g>
				<g>
					<rect x="794.5" y="207" fill="#FF3399" width="16" height="2"/>
				</g>
			</g>
		</g>
		<g>
			<path d="M797.8,146.9c0-1.7,1-3,2.8-3.7l0-0.1c-1.5-0.7-2.2-1.9-2.2-3.1c0-2.2,1.9-3.7,4.3-3.7c2.7,0,4,1.7,4,3.4
				c0,1.2-0.6,2.4-2.3,3.2v0.1c1.7,0.7,2.8,1.9,2.8,3.6c0,2.4-2.1,4-4.7,4C799.6,150.7,797.8,148.9,797.8,146.9z M805.3,146.8
				c0-1.7-1.2-2.5-3.1-3c-1.6,0.5-2.5,1.5-2.5,2.9c-0.1,1.4,1,2.6,2.8,2.6C804.2,149.3,805.3,148.3,805.3,146.8z M800.1,139.9
				c0,1.4,1,2.1,2.6,2.6c1.2-0.4,2.1-1.3,2.1-2.5c0-1.1-0.7-2.3-2.3-2.3C801,137.7,800.1,138.7,800.1,139.9z"/>
		</g>
	</g>
	<g display="inline">
		<path fill="#FF3399" d="M798.6,32.4c1.5,0,2.1,0,2.2,0c0.2,0,0.2,0,0.2,0.2v1.3c0,0.2,0,0.2-0.2,0.2c-0.1,0-0.6,0-2.2,0h-0.3v1.3
			h0.2c1.4,0,1.8,0,1.9,0c0.2,0,0.2,0,0.2,0.2c0,0.1,0,0.7,0,1.9v3c0,1.2,0,1.8,0,1.9c0,0.2,0,0.2-0.2,0.2c-0.1,0-0.6,0-1.9,0h-0.2
			v1.4h0.2c1.5,0,2.1,0,2.2,0c0.2,0,0.2,0,0.2,0.2v1.2c0,0.2,0,0.2-0.2,0.2c-0.1,0-0.6,0-2.2,0h-0.2c0,1.9,0,2.9,0,3
			c0,0.2,0,0.2-0.2,0.2h-1.4c-0.2,0-0.2,0-0.2-0.2c0-0.1,0-1.2,0-3h-0.7c-1.5,0-2.1,0-2.2,0c-0.2,0-0.2,0-0.2-0.2V44
			c0-0.2,0-0.2,0.2-0.2c0.1,0,0.6,0,2.2,0h0.7v-1.4h-0.3c-1.4,0-1.8,0-1.9,0c-0.2,0-0.2,0-0.2-0.2c0-0.1,0-0.7,0-1.9v-3
			c0-1.2,0-1.7,0-1.9c0-0.2,0-0.2,0.2-0.2c0.1,0,0.6,0,1.9,0h0.3v-1.3H796c-1.5,0-2,0-2.2,0c-0.2,0-0.2,0-0.2-0.2v-1.3
			c0-0.2,0-0.2,0.2-0.2c0.1,0,0.6,0,2.2,0h0.6c0-0.8,0-1.4-0.1-2.1c0.8,0,1.3,0.1,1.8,0.1c0.2,0,0.3,0.1,0.3,0.2
			c0,0.1,0,0.2-0.1,0.4s-0.1,0.5-0.1,1.3v0.1H798.6z M796.7,38.3v-1.6h-1v1.6H796.7z M796.7,41.1v-1.6h-1v1.6H796.7z M798.2,36.7
			v1.6h1v-1.6H798.2z M799.2,39.5h-1v1.6h1V39.5z M803.3,48c-1.7,0-2.3,0-2.3,0c-0.2,0-0.2,0-0.2-0.2v-1.5c0-0.2,0-0.2,0.2-0.2
			c0.1,0,0.7,0,2.3,0h2v-2.7H804c-1.6,0-2.1,0-2.2,0c-0.2,0-0.2,0-0.2-0.2v-1.5c0-0.2,0-0.2,0.2-0.2c0.1,0,0.6,0,2.2,0h4.8
			c1.6,0,2.1,0,2.2,0c0.2,0,0.2,0,0.2,0.2v1.5c0,0.2,0,0.2-0.2,0.2c-0.1,0-0.6,0-2.2,0h-1.5v2.7h2.1c1.7,0,2.2,0,2.3,0
			c0.2,0,0.2,0,0.2,0.2v1.5c0,0.2,0,0.2-0.2,0.2c-0.1,0-0.6,0-2.3,0H803.3z M803.3,41.3c-0.2,0.1-0.3,0.1-0.3-0.1
			c-0.5-1.3-1-2.4-1.7-3.4c-0.1-0.2-0.2-0.3-0.2-0.4c0-0.1,0.1-0.2,0.2-0.4c0.6-0.8,1.1-1.6,1.4-2.4c0.1-0.3,0.3-0.6,0.3-1
			c0.7,0.2,1.1,0.4,1.5,0.5c0.2,0.1,0.4,0.2,0.4,0.3c0,0.2-0.1,0.2-0.3,0.3c-0.1,0.1-0.2,0.4-0.4,0.6c-0.3,0.6-0.7,1.2-1.3,1.9
			c0.5,0.8,1.2,1.9,1.7,3.1c0.1,0.2,0.1,0.3-0.2,0.4L803.3,41.3z M804,33.1c-1.7,0-2.2,0-2.3,0c-0.2,0-0.2,0-0.2-0.2v-1.5
			c0-0.2,0-0.2,0.2-0.2c0.1,0,0.7,0,2.3,0h5.2c1.7,0,2.3,0,2.4,0c0.2,0,0.2,0,0.2,0.2v1.5c0,0.2,0,0.2-0.2,0.2c-0.1,0-0.7,0-2.4,0
			H804z M806.8,41.2c-0.2,0.1-0.3,0.1-0.4-0.1c-0.6-1.3-1.3-2.5-1.9-3.3c-0.1-0.2-0.2-0.3-0.2-0.4c0-0.1,0.1-0.3,0.2-0.5
			c0.6-0.8,0.9-1.4,1.4-2.3c0.1-0.3,0.3-0.6,0.3-1.1c0.6,0.2,1.1,0.4,1.5,0.5c0.2,0.1,0.4,0.2,0.4,0.3s-0.1,0.2-0.2,0.3
			c-0.2,0.1-0.3,0.3-0.5,0.7c-0.3,0.6-0.7,1.2-1.3,2c0.8,0.9,1.2,1.8,1.9,3c0.1,0.2,0.1,0.2-0.1,0.3L806.8,41.2z M810.3,41.3
			c-0.2,0.1-0.2,0.1-0.3-0.1c-0.6-1.3-1.4-2.5-2-3.4c-0.1-0.2-0.2-0.3-0.2-0.4c0-0.1,0.1-0.2,0.2-0.4c0.5-0.8,0.9-1.5,1.3-2.4
			c0.1-0.3,0.3-0.6,0.4-1.1c0.6,0.2,1.1,0.4,1.5,0.6c0.2,0.1,0.3,0.2,0.3,0.3s-0.1,0.2-0.2,0.3c-0.2,0.2-0.2,0.3-0.4,0.6
			c-0.3,0.6-0.7,1.2-1.2,2c0.7,0.8,1.4,1.7,2,3c0.1,0.2,0,0.3-0.2,0.4L810.3,41.3z"/>
		<path fill="#FF3399" d="M808.3,65.7c1.2-0.1,2.4-0.2,3.5-0.3c-0.1,0.2-0.1,0.5-0.1,0.8c-0.1,0.6-0.1,0.7-0.7,0.7l-2.7,0.2
			c0,0.9,0,1.3,0,1.4c0,0.2,0,0.2-0.2,0.2h-1.6c-0.2,0-0.2,0-0.2-0.2c0-0.1,0-0.5,0-1.3l-3.9,0.2c-2.6,0.1-4.8,0.2-7.3,0.3
			c-0.3,0-0.6,0-0.8,0.1c-0.1,0.1-0.2,0.1-0.3,0.1c-0.1,0-0.2-0.1-0.2-0.3c-0.1-0.5-0.3-1-0.4-1.6c0.4,0,0.9,0.1,1.6,0.1
			c0.5,0,1.3,0,2,0V62h0c-1.8,0-2.4,0-2.5,0c-0.2,0-0.2,0-0.2-0.2v-1c0-0.2,0-0.2,0.1-0.2l-0.1-0.1c-0.3-0.3-0.6-0.5-0.9-0.6
			c1-0.9,1.4-1.8,1.4-3.5c0-0.4,0-0.8,0-0.9c0-0.2,0-0.2,0.2-0.2c0.1,0,0.7,0,2.2,0h2.8c1.6,0,2.1,0,2.2,0c0.2,0,0.2,0,0.2,0.2
			c0,0.1,0,0.3,0,0.9v1c0,0.7,0,0.8,0,1c0,0.2,0,0.2-0.2,0.2c-0.1,0-0.6,0-2.2,0h-3.7c-0.2,0.7-0.5,1.3-1.1,2c0.4,0,1,0,1.8,0h11.5
			c1.8,0,2.4,0,2.5,0c0.2,0,0.2,0,0.2,0.2v1c0,0.2,0,0.2-0.2,0.2c-0.1,0-0.7,0-2.5,0h-0.3V65.7z M797.8,53.4v-0.6h-1.2
			c-1.7,0-2.3,0-2.4,0c-0.2,0-0.2,0-0.2-0.2v-1c0-0.2,0-0.2,0.2-0.2c0.1,0,0.7,0,2.4,0h1.2c0-0.4,0-0.7-0.1-1.1
			c0.7,0,1.2,0.1,1.8,0.1c0.2,0,0.3,0.1,0.3,0.2c0,0.1,0,0.1-0.1,0.2c-0.1,0.1-0.1,0.3-0.1,0.6h0.9c1.7,0,2.3,0,2.4,0
			c0.2,0,0.2,0,0.2,0.2v1c0,0.2,0,0.2-0.2,0.2c-0.1,0-0.7,0-2.4,0h-0.9v0.6h0.6c1.6,0,2.1,0,2.2,0c0.2,0,0.2,0,0.2,0.2v0
			c1.1-0.4,1.5-0.9,1.5-1.9c0-0.4,0-0.6,0-0.7c0-0.2,0-0.2,0.2-0.2c0.1,0,0.4,0,1.5,0h1.7c1.1,0,1.4,0,1.5,0c0.2,0,0.2,0,0.2,0.2
			c0,0.1,0,0.4,0,1v0.6c0,0.1,0,0.2,0.1,0.3c0.1,0.1,0.2,0.1,0.5,0.1c0.3,0,0.4,0,0.5-0.1c0.1-0.1,0.1-0.3,0.2-1.1
			c0.2,0.2,0.6,0.3,1.1,0.5c0.4,0.1,0.4,0.2,0.3,0.6c-0.1,0.9-0.3,1.1-0.6,1.3c-0.3,0.2-0.8,0.3-1.7,0.3c-0.7,0-1.2,0-1.5-0.1
			c-0.4-0.2-0.6-0.5-0.6-1v-0.9h-1.8c0,1.2-0.6,2-1.7,2.5c-0.1,0.1-0.3,0.1-0.3,0.1c-0.1,0-0.3-0.1-0.4-0.4
			c-0.2-0.3-0.4-0.5-0.7-0.7v0.7c0,0.2,0,0.2-0.2,0.2c-0.1,0-0.6,0-2.2,0h-2.9c-1.6,0-2.1,0-2.2,0c-0.2,0-0.2,0-0.2-0.2v-0.9
			c0-0.2,0-0.2,0.2-0.2c0.1,0,0.6,0,2.2,0H797.8z M796.5,56.8c0,0.2,0,0.4,0,0.6h1.4v-0.9h-1.4V56.8z M806.3,62.6V62h-7.2v0.6H806.3
			z M806.3,64.3v-0.7h-7.2v0.7H806.3z M806.3,65.3h-7.2v0.8c2.5-0.1,4.9-0.1,7.2-0.3V65.3z M800.8,56.5h-1.4v0.9h1.4V56.5z
			 M809,54.9c0.2,0,0.3,0,0.4-0.1c0.1,0,0.1-0.1,0.3-0.1s0.2,0,0.7,0.4c0.5,0.4,0.6,0.5,0.6,0.7c0,0.1-0.1,0.2-0.2,0.3
			c-0.2,0.1-0.4,0.3-0.6,0.6c-0.4,0.5-0.9,1-1.4,1.4c1,0.3,2.2,0.6,3.5,0.7c-0.2,0.3-0.4,0.6-0.5,1c-0.2,0.6-0.2,0.7-0.8,0.6
			c-1.5-0.2-2.7-0.6-3.8-1.1c-1,0.5-2.2,0.9-3.6,1.2c-0.5,0.1-0.5,0.1-0.8-0.4c-0.2-0.5-0.4-0.8-0.7-1.1c1.3-0.2,2.4-0.4,3.4-0.8
			c-0.7-0.5-1.2-1.2-1.6-1.9c-0.3,0-0.5,0-0.5,0c-0.2,0-0.2,0-0.2-0.2v-1.1c0-0.2,0-0.2,0.2-0.2c0.1,0,0.6,0,2.2,0H809z M805.5,56.4
			c0.4,0.4,0.9,0.8,1.4,1.1c0.5-0.3,1-0.7,1.4-1.1H805.5z"/>
	</g>
</g>
<g id="grid">
	<g>
		<g id="yin_2_">
			<rect x="516.5" y="177.1" fill="#EEEEEE" width="144" height="144"/>
			<line fill="none" stroke="#999999" stroke-width="2" stroke-miterlimit="10" x1="516.5" y1="321" x2="660.5" y2="321"/>
			<line fill="none" stroke="#999999" stroke-width="2" stroke-miterlimit="10" x1="516.5" y1="177" x2="660.5" y2="177"/>
		</g>
		<g id="yin_1_">
			<rect x="516.5" y="352.1" fill="#EEEEEE" width="144" height="144"/>
			<line fill="none" stroke="#999999" stroke-width="2" stroke-miterlimit="10" x1="516.5" y1="496" x2="660.5" y2="496"/>
			<line fill="none" stroke="#999999" stroke-width="2" stroke-miterlimit="10" x1="516.5" y1="352" x2="660.5" y2="352"/>
		</g>
		<g id="_x34_-tone_1_">
			<rect x="660.5" y="321.1" fill="#EEEEEE" width="80" height="80"/>
			<line fill="none" stroke="#999999" stroke-width="2" stroke-miterlimit="10" x1="660.5" y1="321" x2="740.5" y2="321"/>
			<line fill="none" stroke="#999999" stroke-width="2" stroke-miterlimit="10" x1="660.5" y1="401" x2="740.5" y2="401"/>
		</g>
		<g id="_x35_th_tone_1_">
			<rect x="516.5" y="128" fill="#EEEEEE" width="144" height="32"/>
			<line fill="none" stroke="#999999" stroke-width="2" stroke-miterlimit="10" x1="516.5" y1="128" x2="660.5" y2="128"/>
			<line fill="none" stroke="#999999" stroke-width="2" stroke-miterlimit="10" x1="516.5" y1="160" x2="660.5" y2="160"/>
		</g>
		<g id="inner_1_">
			<line fill="none" stroke="#CCCCCC" stroke-miterlimit="10" x1="180" y1="560" x2="180" y2="80"/>
			<line fill="none" stroke="#CCCCCC" stroke-miterlimit="10" x1="341" y1="560" x2="341" y2="80"/>
			<line fill="none" stroke="#CCCCCC" stroke-miterlimit="10" x1="20.5" y1="239.5" x2="500.5" y2="239.5"/>
			<line fill="none" stroke="#CCCCCC" stroke-miterlimit="10" x1="20.5" y1="400.5" x2="500.5" y2="400.5"/>
		</g>
		<g id="outer_1_">
			
				<rect id="zhuyin_1_" x="20.5" y="80.1" fill="none" stroke="#999999" stroke-width="2" stroke-miterlimit="10" width="720" height="480"/>
			
				<rect id="char_1_" x="20.5" y="80.1" fill="none" stroke="#999999" stroke-width="2" stroke-miterlimit="10" width="480" height="480"/>
			<line fill="none" stroke="#999999" stroke-width="2" stroke-miterlimit="10" x1="660.5" y1="560" x2="660.5" y2="80"/>
			<line fill="none" stroke="#999999" stroke-width="2" stroke-miterlimit="10" x1="516.5" y1="560" x2="516.5" y2="80"/>
		</g>
	</g>
</g>
<g id="character">
	<g id="_x33_rd_tone">
		<path d="M703.7,375c1.2-0.8,3-3.9,5.6-9.2c2.6-5.3,4.5-9.8,5.9-13.2l3.8-9.5c2-4.7,3-8.1,3.3-10.4l0.6-4.1c0.6-3,1.2-3.3,5-0.8
			c2.6,2.3,4.2,4.7,5.3,7.2c1.2,2.9,0.9,4.4-2.3,8.6c-2.9,4.1-6,9.8-9.5,17.4c-2,4.7-4.4,9.6-7.1,14.9l-5,10.4
			c-2.9,5.6-5.7,8.3-8.6,7.8c-2.6,0-4.8-2.7-6.8-8.1c-2-5.9-4.4-11.1-7.2-15.8l-7.1-11.1c-4.7-6.9-8.9-12.3-12.6-16.1l-2-1.8
			c-0.8-0.8-1.2-1.5-1.2-2c0-1.1,1.5-2,4.7-2.6c6.2,0,10.4,0.8,12.9,2.4c2.6,1.7,4.2,4.7,5.3,8.7c0.6,2.3,1.5,4.8,2.6,7.8l3.6,9
			c2.3,5.6,4.1,8.9,5.6,10.1c1.7,1.1,2.6,1.7,2.9,1.7C701.4,376.7,702.2,376,703.7,375z"/>
	</g>
	<g>
		<path d="M540.1,379.8c2.4,0.4,4.9,0.6,7.9,0.6c2.4,0,4.8-0.1,7.3-0.6l63-7.3c3.7-0.7,6.3-1.5,7.9-2.2c1.7-0.7,3.4-1.1,5.1-1.1
			c1.5,0,3.8,1.1,6.5,3.5c2.8,2.2,4.2,3.9,4.2,5.1c0,1-0.7,1.5-2.2,1.5c-0.7,0-2-0.1-4.1-0.3l-3.8-0.3c-9,0.4-18.6,1.3-28.7,2.2
			l-3.4,0.4c0.1,12.5-0.1,22.5-0.8,29.8c-0.6,3.9-4.1,8.2-8.7,8.2c-0.7,0-1.8-0.3-3.4-0.8c-1.4-0.3-2.5-0.4-3.4-0.4
			c-4.9,0-9.6,2-13.9,5.8c-3.8,4.4-5.8,9-5.8,14.1c0,7.2,2.7,13.4,8,18.3c5.5,4.9,12.4,7.5,20.7,7.5c11.8,0,21.9-5.3,30.5-16
			c1.5-1.3,3.1-2,4.4-2c2.8,0,5.1,2,5.1,4.8c0,5.2-4.1,10.4-12.1,15.5c-8,5.2-17.3,7.7-27.8,7.7c-11.2,0-20.7-3.4-28.1-10
			c-7.5-7.5-11.2-16-11.2-25.7c0-8.2,2.7-14.9,7.9-20.4c5.8-5.3,13.2-8.3,22.5-9c3.4-0.7,4.9-2.7,4.5-5.6l-1.1-20.1
			c-15.5,2.1-26.9,4.2-34,6.6c-2,0.7-3.5,1.1-4.8,1.1c-1.8,0-4.6-1.5-8.7-4.8c-2.8-2.4-4.2-4.1-4.2-4.8c0-1.1,1-1.7,2.8-1.7
			C538.7,379.3,539.4,379.4,540.1,379.8z"/>
	</g>
	<g>
		<path d="M613.2,195.9c3.5,3.5,5.3,6.5,5.3,8.9c0,0.7-0.8,1.5-2.5,2.5c-2,1.5-4.1,6.8-6.5,15.5c-4.4,12.5-8.6,22.8-12.7,30.7
			c8.9,6,19,14.2,30.7,24.8c4.9,4.6,7.3,9.4,7.3,14.3c0,6-1.1,9-3.4,9c-1.5,0-5.2-3.2-11-9.8c-11.1-12.5-20.8-22.4-28.8-29.5
			c-6.9,9.7-13.2,17.4-19.3,23.3c-7.2,6.3-14.5,11.4-22.2,15.2c-4.4,1.7-6.9,2.5-7.6,2.5h-0.6c0-0.7,0.6-1.5,1.7-2.2
			c12.4-9.6,21.9-18.8,28.7-27.8c3.8-5.1,7.6-11,11.5-17.9c-11.4-9.7-22.5-18.1-33.2-25.3l-1.4-1.1c0-0.4,0.3-0.6,1-0.6
			c1.5,0,4.9,1,10.4,3c7.2,3.4,16.3,8.7,27.4,16.2l3.4-6.6c5.2-12.1,9-22.6,11.2-31.8c1.5-5.8,1.8-10,1.1-12.4
			c-0.7-1.7-1.1-2.8-1.1-3.4c0-0.7,0.7-1,2.2-1C607.3,192.2,610,193.5,613.2,195.9z"/>
	</g>
	<g>
		<path d="M179.6,315.6c-4.4,0.9-8.9,2-13.6,3c-4.7,1.1-10.7,2.6-18.2,4.6c-7.4,2-13.6,3.7-18.4,5.3c-4.8,1.6-8.3,2.3-10.3,2.3
			c-2.8,0.2-6.8-0.5-12-2.1c-5.2-1.6-9.6-3.4-13.4-5.4c-3.8-2-6.2-4.3-7.4-6.7c-1.2-2.4-1.5-4.1-0.9-4.9c0.5-0.9,3.2-1.7,8.1-2.5
			l17.6-2.6l27-4c13.3-1.9,21.3-3.1,24.1-3.8l17.3-3.3c-0.3-4.7-0.6-9-0.8-12.9c-0.2-3.9-0.7-9.3-1.4-16.2c-0.7-6.9-1.4-12-2.2-15.2
			l-2.6-10.5c-4.7,1.6-8.2,2.7-10.5,3.4s-8,2.1-17,4.2c-9,2.1-15,3.3-17.9,3.6l-13.8,1.6c-3.6,0.5-5.7,0-6.4-1.3
			c-0.7-1.3,0.7-2.8,4.3-4.3l12.4-5.4l14.5-5.9c6.9-2.8,14.5-6.5,22.7-11c8.3-4.5,15.3-8.8,21.1-12.8c5.8-4,10.7-7.7,14.9-11.2
			c4.1-3.5,7.5-6.7,10.1-9.5s4.2-5.2,4.9-7.3c0.7-2,1.3-3.4,1.8-4.1s1.6-1.1,3.5-1.3c1.6,0,3.7,0.7,6.3,2.1c2.7,1.4,5.8,3.3,9.4,5.7
			c3.6,2.4,6.8,5.1,9.5,8c2.7,2.9,3.9,5.4,3.4,7.6c-0.5,1.9-1.4,3.2-2.9,4.1c-1.5,0.9-3.5,1.8-6,2.7c-2.5,0.9-4.8,1.9-6.8,2.9
			c-2,1-5.1,2.5-9.1,4.6l-15,7.7l-12.4,6.6c3,1.1,5.2,2.1,6.8,2.9c1.6,0.9,2.9,1.9,4.1,3.2c1.2,1.3,1.9,2.3,2.1,3.2
			c0.2,0.9,0,2.5-0.8,4.9c-0.8,2.4-1.3,4.9-1.6,7.4l-1.4,9.8c-0.9,6.7-1.4,11.5-1.4,14.3l-0.5,15c7.2-1.1,12.3-1.9,15.4-2.3
			s12.9-2.3,29.6-5.4l32.6-5.9l13.6-2.6c-1.6-10.3-2.7-18.1-3.3-23.4l-4.5-30l-4.7-33.5c-1.3-7.8-2.5-14-3.6-18.5
			c-1.2-4.5-2.7-8.9-4.5-13.2c-1.8-4.3-3.7-8.2-5.6-11.7c-2-3.5-3-6.2-3.3-8.2c-0.2-2,0.1-3.7,1.1-5.2c0.9-1.5,3.3-2.3,7-2.5
			c2.2,0,5.9,0.7,11,2.1l13.6,3.8c4.1,1.4,7.1,2.9,9.3,4.3c2.1,1.5,3.5,2.9,4.2,4.2c0.7,1.3,1,2.9,0.8,4.6c-0.2,0.6-0.7,2.4-1.6,5.4
			c-0.9,3-1.6,6-1.9,9.1c-0.3,3.1-0.4,6.7-0.2,10.8c0,4.1,0.1,8.6,0.4,13.7c0.2,5.1,0.9,16,2,32.8c1.1,16.8,2,27,2.6,30.6l2.8,20.2
			c6.9-1.1,12.1-2,15.7-2.6l20.9-3.8c9.5-1.4,16.8-2.8,21.7-4.2s8.3-2.1,10.2-2.1c3,0.2,5.6,0.8,8,2s5.3,2.9,8.9,5.3
			c3.6,2.3,6.1,4.3,7.5,6s2,3,1.9,4.1c-0.3,1.1-1.6,2.1-3.8,3.2c-2.2,1-5.2,1.7-8.9,2l-16.9,1.2c-5.3,0.5-13.8,1.4-25.3,2.7
			c-11.6,1.3-17.4,2-17.6,2l-19.9,2.1c1.7,8.4,3.8,17.7,6.1,27.9c2.3,10.2,5.2,21.7,8.7,34.7c3.4,13,6.6,22.4,9.6,28.4l6.6,14.5
			c5.3-7,9.6-13,12.9-17.9s6.7-10.8,10.3-17.7c3.6-6.9,6.1-12.5,7.5-16.8c1.4-4.3,2.2-7.8,2.5-10.4c0.2-2.7-0.1-6.1-1.1-10.4
			c-0.9-4.3-1.5-7.2-1.6-8.8c-0.2-1.6,0.3-2.8,1.3-3.9c1-1,3-1.5,6-1.5c3.9,0.2,8.2,1.3,12.9,3.5c4.7,2.2,9.5,4.8,14.4,7.9
			s8.2,5.7,9.8,8.1s2.3,4.3,2,5.9c-0.3,1.1-1.2,2.4-2.6,4l-5.2,5.4c-2.7,2.8-5.2,5.7-7.5,8.6c-2.3,2.9-4.9,6.3-7.7,10.2l-11.5,16.9
			c-6.7,9.8-12,17-15.7,21.6L358,418.5c3.6,6.1,7,11.8,10.2,17c3.2,5.2,7.2,11,12.1,17.3c4.8,6.3,9.9,12.1,15.2,17.5
			c5.3,5.3,10.4,10,15.2,14.1c4.8,4.1,8.9,6.7,12.2,7.9s5.7,1.4,7.3,0.8c1.7-0.6,3.1-2.3,4.2-4.9c1.1-2.7,2.1-5.7,3-9
			c0.9-3.4,2.3-8.2,4.2-14.4s3.7-12.6,5.4-19l3.5-13.1c0.6-2.7,1.5-3.9,2.6-3.9c1.1,0.1,1.7,1.4,1.9,3.9l0.5,15
			c0.2,7.2,0.4,13.9,0.7,20.2c0.3,6.2,0.7,12.4,1.3,18.4c0.5,6,1.2,12.1,2,18.3c0.8,6.2,1.8,11.3,3.2,15.5c1.3,4.1,1.8,7,1.5,8.6
			c-0.8,3-2.3,5-4.5,6c-2.2,1-4.6,1.5-7.3,1.5c-5.9,0.2-12.5-0.9-19.6-3.3c-7.1-2.3-14.3-6.1-21.4-11.2
			c-7.2-5.2-14.8-11.7-22.7-19.7s-15.7-16.6-23.3-25.9c-7.6-9.3-13.2-17.4-16.8-24.3l-8.4-15c-5.6,4.2-11.4,8.4-17.2,12.7
			s-13.5,9-22.9,14.3s-17.7,9.3-24.8,12c-7.2,2.7-14.5,5-21.8,7l-13.8,4c-3.8,1.1-5.9,1-6.6-0.2c-0.6-1.3,0.3-2.7,2.8-4.2l12.9-8
			l14.5-8.4c7.8-4.4,17.4-10.7,28.7-18.9c11.3-8.2,19.1-14.4,23.3-18.6l13.8-13.1c-3.8-8.6-7.1-16.8-10.1-24.6
			c-3-7.8-5.5-15.7-7.5-23.8c-2-8-5.7-24.3-11-48.9l-5.4-24.6c-5.9,1.3-10.3,2.1-13.1,2.6l-32.3,5.9l-30,5.9l-18.3,3.3l-0.2,54.8
			l51.6-20.4c2.8-1.1,4.8-0.7,6,1.2s0.3,3.7-2.7,5.4l-54.8,30.7c0.3,11.2,0.6,21.4,0.8,30.4c0.2,9,0.4,18.7,0.6,29.2
			c0.2,10.5,0.2,18.8,0,25.1c-0.3,8-1,15.1-2.1,21.4c-1.1,6.3-3.3,12.4-6.6,18.3s-7.1,10.1-11.4,12.7c-4.3,2.6-7.6,3.4-10,2.5
			c-1.7-0.5-3.8-2.7-6.2-6.7c-2.4-4-5-7.5-7.6-10.4c-2.7-3-5.8-6.3-9.4-9.8c-3.6-3.6-6.5-6.4-8.7-8.4l-9.8-8.4
			c-2.5-1.9-3.3-3.5-2.5-4.8c0.9-1.3,2.3-1.8,4.3-1.3l10.5,2.8l10.3,2.6c5.5,1.6,9,2.4,10.5,2.6c2.2,0.3,4,0.1,5.5-0.6
			c1.5-0.7,2.7-3,3.5-6.8c0.9-3.8,1.5-8.9,2-15.4s1-13.6,1.5-21.7c0.5-8,0.9-14.5,1.1-19.3l0.7-23l-43.8,23.7l-17.3,9.8
			c-6.3,3.6-10.7,6.5-13.5,8.7c-2.7,2.2-4.9,3.6-6.4,4.1c-1.6,0.5-3.8,0.4-6.8-0.4c-2.7-0.6-5.3-1.7-7.9-3.3
			c-2.6-1.6-6.1-3.9-10.4-7c-4.4-3.1-7.4-6.2-9-9.3s-1.9-5.4-0.8-7.1c0.6-0.9,1.6-1.6,2.9-1.9c1.3-0.3,3.8-0.5,7.5-0.6
			c3.7-0.1,7.5-0.6,11.4-1.6c3.9-1,10-2.9,18.3-5.6c8.3-2.7,14.3-4.9,18-6.4l57.9-22.5L179.6,315.6z M343.2,182.5l13.1,4
			c5.5,1.7,10.4,3.5,14.8,5.4c4.4,1.9,8.4,3.8,12.2,5.7c3.8,2,6.9,3.9,9.4,5.9c2.5,2,4.3,4.1,5.3,6.3c1,2.3,1.5,5.3,1.5,9
			c-0.2,3.6-0.8,6.9-2,10s-2.6,5.4-4.3,6.9c-1.7,1.6-3.7,2.5-5.9,2.7c-2.2,0.2-4.8-0.8-8-3.2c-3-2-6.2-5.4-9.7-10.1
			s-7.5-9.8-12.1-15.5c-4.5-5.6-7.5-9.3-8.9-11l-8-9.4c-2.5-2.8-3.4-4.8-2.6-6C338.8,182.1,340.5,181.9,343.2,182.5z"/>
	</g>
	<g>
	</g>
	<g>
	</g>
	<g>
	</g>
	<g>
	</g>
	<g>
	</g>
	<g>
	</g>
	<g>
	</g>
	<g>
	</g>
	<g>
	</g>
	<g>
	</g>
	<g>
	</g>
	<g>
	</g>
	<g>
	</g>
	<g>
	</g>
	<g>
	</g>
	<g>
	</g>
</g>
</svg>
