<?xml version="1.0" encoding="utf-8"?>
<!-- Generator: Adobe Illustrator 18.1.0, SVG Export Plug-In . SVG Version: 6.00 Build 0)  -->
<svg version="1.1" xmlns="http://www.w3.org/2000/svg" xmlns:xlink="http://www.w3.org/1999/xlink" x="0px" y="0px"
	 viewBox="0 0 760 640" enable-background="new 0 0 760 640" xml:space="preserve">
<g id="grid">
	<g>
		<g id="yin_3_">
			<rect x="516.5" y="257.1" fill="#EEEEEE" stroke="#999999" stroke-miterlimit="10" width="144" height="144"/>
			<line fill="#EEEEEE" stroke="#999999" stroke-width="2" stroke-miterlimit="10" x1="516.5" y1="401" x2="660.5" y2="401"/>
			<line fill="#EEEEEE" stroke="#999999" stroke-width="2" stroke-miterlimit="10" x1="516.5" y1="257" x2="660.5" y2="257"/>
		</g>
		<g id="_x34_-tone_2_">
			<rect x="660.5" y="224.1" fill="#EEEEEE" stroke="#999999" stroke-miterlimit="10" width="80" height="80"/>
			<line fill="#EEEEEE" stroke="#999999" stroke-width="2" stroke-miterlimit="10" x1="660.5" y1="224" x2="740.5" y2="224"/>
			<line fill="#EEEEEE" stroke="#999999" stroke-width="2" stroke-miterlimit="10" x1="660.5" y1="304" x2="740.5" y2="304"/>
		</g>
		<g id="_x35_th_tone_2_">
			<rect x="516.5" y="209.1" fill="#EEEEEE" stroke="#999999" stroke-miterlimit="10" width="144" height="32"/>
			<line fill="#EEEEEE" stroke="#999999" stroke-width="2" stroke-miterlimit="10" x1="516.5" y1="209" x2="660.5" y2="209"/>
			<line fill="#EEEEEE" stroke="#999999" stroke-width="2" stroke-miterlimit="10" x1="516.5" y1="241" x2="660.5" y2="241"/>
		</g>
		<g id="inner_2_">
			<line fill="none" stroke="#CCCCCC" stroke-miterlimit="10" x1="180" y1="560" x2="180" y2="80"/>
			<line fill="none" stroke="#CCCCCC" stroke-miterlimit="10" x1="341" y1="560" x2="341" y2="80"/>
			<line fill="none" stroke="#CCCCCC" stroke-miterlimit="10" x1="20.5" y1="239.5" x2="500.5" y2="239.5"/>
			<line fill="none" stroke="#CCCCCC" stroke-miterlimit="10" x1="20.5" y1="400.5" x2="500.5" y2="400.5"/>
		</g>
		<g id="outer_2_">
			
				<rect id="zhuyin_2_" x="20.5" y="80.1" fill="none" stroke="#999999" stroke-width="2" stroke-miterlimit="10" width="720" height="480"/>
			
				<rect id="char_2_" x="20.5" y="80.1" fill="none" stroke="#999999" stroke-width="2" stroke-miterlimit="10" width="480" height="480"/>
			<line fill="none" stroke="#999999" stroke-width="2" stroke-miterlimit="10" x1="660.5" y1="560" x2="660.5" y2="80"/>
			<line fill="none" stroke="#999999" stroke-width="2" stroke-miterlimit="10" x1="516.5" y1="560" x2="516.5" y2="80"/>
		</g>
	</g>
</g>
<g id="ruler_under">
	<g id="h_45">
		<g>
			<g>
				<line fill="none" stroke="#999999" stroke-width="2" stroke-miterlimit="10" x1="20.5" y1="601" x2="360.5" y2="601"/>
				<line fill="none" stroke="#999999" stroke-width="2" stroke-miterlimit="10" x1="400.5" y1="601" x2="740.5" y2="601"/>
				<g>
					<rect x="19.5" y="593" fill="#999999" width="2" height="16"/>
				</g>
				<g>
					<rect x="739.5" y="593" fill="#999999" width="2" height="16"/>
				</g>
			</g>
		</g>
		<g>
			<path d="M375.2,610v-4.2h-7.2v-1.4l7-10h2.3v9.7h2.2v1.7h-2.2v4.2H375.2z M375.2,604.1v-5.2c0-0.8,0-1.6,0.1-2.4h-0.1
				c-0.5,0.9-0.9,1.6-1.3,2.3L370,604v0H375.2z"/>
			<path d="M390.2,596.2h-6l-0.6,4c0.4,0,0.7-0.1,1.3-0.1c1.2,0,2.4,0.3,3.4,0.8c1.2,0.7,2.2,2,2.2,4c0,3-2.4,5.3-5.8,5.3
				c-1.7,0-3.1-0.5-3.9-1l0.5-1.6c0.6,0.4,1.9,0.9,3.3,0.9c2,0,3.7-1.3,3.7-3.4c0-2-1.4-3.5-4.5-3.5c-0.9,0-1.6,0.1-2.2,0.2l1-7.5
				h7.5V596.2z"/>
		</g>
	</g>
	<g id="h_30_1_">
		<g>
			<g>
				<line fill="none" stroke="#999999" stroke-width="2" stroke-miterlimit="10" x1="20.5" y1="578" x2="240.5" y2="578"/>
				<line fill="none" stroke="#999999" stroke-width="2" stroke-miterlimit="10" x1="280.5" y1="578" x2="500.5" y2="578"/>
				<g>
					<rect x="19.5" y="570" fill="#999999" width="2" height="16"/>
				</g>
				<g>
					<rect x="499.5" y="570" fill="#999999" width="2" height="16"/>
				</g>
			</g>
		</g>
		<g>
			<path d="M249.1,584.6c0.6,0.4,2,1,3.5,1c2.7,0,3.6-1.7,3.5-3c0-2.2-2-3.1-4-3.1h-1.2v-1.6h1.2c1.5,0,3.5-0.8,3.5-2.6
				c0-1.2-0.8-2.4-2.7-2.4c-1.2,0-2.4,0.6-3.1,1l-0.6-1.5c0.8-0.6,2.4-1.2,4.1-1.2c3.1,0,4.5,1.8,4.5,3.7c0,1.6-1,3-2.9,3.7v0
				c1.9,0.4,3.5,1.8,3.5,4c0,2.5-1.9,4.7-5.7,4.7c-1.8,0-3.3-0.6-4.1-1.1L249.1,584.6z"/>
			<path d="M271.3,579c0,5.3-2,8.2-5.4,8.2c-3,0-5.1-2.9-5.2-8c0-5.2,2.3-8.1,5.4-8.1C269.4,571.1,271.3,574.1,271.3,579z
				 M262.8,579.3c0,4.1,1.2,6.4,3.2,6.4c2.2,0,3.2-2.5,3.2-6.5c0-3.8-1-6.4-3.2-6.4C264.2,572.8,262.8,575,262.8,579.3z"/>
		</g>
	</g>
	<g id="h_15">
		<g>
			<g>
				<line fill="none" stroke="#999999" stroke-width="2" stroke-miterlimit="10" x1="500.5" y1="578" x2="600.5" y2="578"/>
				<line fill="none" stroke="#999999" stroke-width="2" stroke-miterlimit="10" x1="640.5" y1="578" x2="740.5" y2="578"/>
				<g>
					<rect x="499.5" y="570" fill="#999999" width="2" height="16"/>
				</g>
				<g>
					<rect x="739.5" y="570" fill="#999999" width="2" height="16"/>
				</g>
			</g>
		</g>
		<g>
			<path d="M613.2,573.4L613.2,573.4l-2.8,1.5l-0.4-1.6l3.4-1.8h1.8V587h-2V573.4z"/>
			<path d="M630.2,573.2h-6l-0.6,4c0.4,0,0.7-0.1,1.3-0.1c1.2,0,2.4,0.3,3.4,0.8c1.2,0.7,2.2,2,2.2,4c0,3-2.4,5.3-5.8,5.3
				c-1.7,0-3.1-0.5-3.9-1l0.5-1.6c0.6,0.4,1.9,0.9,3.3,0.9c2,0,3.7-1.3,3.7-3.4c0-2-1.4-3.5-4.5-3.5c-0.9,0-1.6,0.1-2.2,0.2l1-7.5
				h7.5V573.2z"/>
		</g>
	</g>
</g>
<g id="ruler_above">
	<g id="h5">
		<g>
			<g>
				<line fill="none" stroke="#999999" stroke-width="2" stroke-miterlimit="10" x1="660.5" y1="58" x2="690.5" y2="58"/>
				<line fill="none" stroke="#999999" stroke-width="2" stroke-miterlimit="10" x1="710.5" y1="58" x2="740.5" y2="58"/>
				<g>
					<rect x="659.5" y="50" fill="#999999" width="2" height="16"/>
				</g>
				<g>
					<rect x="739.5" y="50" fill="#999999" width="2" height="16"/>
				</g>
			</g>
		</g>
		<g>
			<rect x="694.5" y="46.5" fill="none" width="13.9" height="30.4"/>
			<path d="M704.9,52.8h-6l-0.6,4c0.4,0,0.7-0.1,1.3-0.1c1.2,0,2.4,0.3,3.4,0.8c1.2,0.7,2.2,2,2.2,4c0,3-2.4,5.3-5.8,5.3
				c-1.7,0-3.1-0.5-3.9-1l0.5-1.6c0.6,0.4,1.9,0.9,3.3,0.9c2,0,3.7-1.3,3.7-3.4c0-2-1.4-3.5-4.5-3.5c-0.9,0-1.6,0.1-2.2,0.2l1-7.5
				h7.5V52.8z"/>
		</g>
		<g>
		</g>
	</g>
	<g id="h9">
		<g>
			<g>
				<line fill="none" stroke="#999999" stroke-width="2" stroke-miterlimit="10" x1="516.5" y1="58" x2="578.5" y2="58"/>
				<line fill="none" stroke="#999999" stroke-width="2" stroke-miterlimit="10" x1="598.5" y1="58" x2="660.5" y2="58"/>
				<g>
					<rect x="515.5" y="50" fill="#999999" width="2" height="16"/>
				</g>
				<g>
					<rect x="659.5" y="50" fill="#999999" width="2" height="16"/>
				</g>
			</g>
		</g>
		<g>
			<path d="M583.8,65.5c0.5,0,1,0,1.7-0.1c1.2-0.2,2.4-0.7,3.3-1.5c1-0.9,1.8-2.3,2.1-4.2h-0.1c-0.9,1.1-2.1,1.7-3.7,1.7
				c-2.8,0-4.6-2.1-4.6-4.8c0-3,2.1-5.5,5.3-5.5s5.2,2.6,5.2,6.6c0,3.4-1.2,5.8-2.7,7.3c-1.2,1.2-2.9,1.9-4.5,2.1
				c-0.8,0.1-1.4,0.1-1.9,0.1V65.5z M584.6,56.5c0,1.9,1.2,3.3,3,3.3c1.4,0,2.5-0.7,3.1-1.6c0.1-0.2,0.2-0.4,0.2-0.8
				c0-2.7-1-4.7-3.2-4.7C585.9,52.7,584.6,54.3,584.6,56.5z"/>
		</g>
	</g>
</g>
<g id="ruler_4-tone">
	<g>
		<path fill="#6D6D6D" d="M709.2,330.8c0,0.1,0,0.2-0.2,0.2c-0.1,0-0.7,0-2.6,0H701v4.8c0,1.4,0,2,0,2.1c0,0.1,0,0.2-0.2,0.2h-1.1
			c-0.1,0-0.2,0-0.2-0.2c0-0.1,0-0.7,0-2.1v-4.8h-5.3c-1.9,0-2.5,0-2.6,0c-0.1,0-0.2,0-0.2-0.2v-0.9c0-0.1,0-0.2,0.2-0.2
			c0.1,0,0.7,0,2.6,0h5.3v-7.3h-4.1c-2,0-2.7,0-2.8,0c-0.1,0-0.2,0-0.2-0.2v-0.9c0-0.1,0-0.2,0.2-0.2c0.1,0,0.8,0,2.8,0h9.9
			c2,0,2.6,0,2.7,0c0.1,0,0.2,0,0.2,0.2v0.9c0,0.1,0,0.2-0.2,0.2c-0.1,0-0.8,0-2.7,0H701v7.3h5.4c1.9,0,2.5,0,2.6,0
			c0.1,0,0.2,0,0.2,0.2V330.8z M694.7,323.5c0.2-0.1,0.2-0.1,0.3,0c0.9,1.3,1.7,2.8,2.3,4.4c0,0.1,0,0.2-0.2,0.2l-0.7,0.3
			c-0.3,0.1-0.3,0.1-0.4-0.1c-0.6-1.6-1.2-2.9-2.2-4.3c-0.1-0.1-0.1-0.2,0.2-0.3L694.7,323.5z M706.9,324.3
			c-0.1,0.1-0.2,0.2-0.4,0.5c-0.6,1.2-1.3,2.4-2.2,3.6c-0.1,0.2-0.2,0.3-0.3,0.3c-0.1,0-0.1-0.1-0.3-0.2c-0.2-0.2-0.4-0.3-0.7-0.3
			c1-1.3,1.8-2.6,2.4-3.9c0.1-0.3,0.2-0.6,0.3-1c0.4,0.1,0.9,0.3,1.2,0.5c0.1,0.1,0.2,0.1,0.2,0.2
			C707.1,324.1,707,324.2,706.9,324.3z"/>
		<path fill="#6D6D6D" d="M709,356.7c0,0.1,0,0.2-0.2,0.2c-0.1,0-0.7,0-2.6,0h-11.5c-1.9,0-2.5,0-2.6,0c-0.1,0-0.2,0-0.2-0.2v-1
			c0-0.1,0-0.2,0.2-0.2c0.1,0,0.7,0,2.6,0h4.5v-12.2c0-1.5,0-2.1-0.1-2.9c0.5,0,1,0.1,1.4,0.1c0.1,0,0.3,0.1,0.3,0.2
			c0,0.1,0,0.2-0.1,0.4c-0.1,0.2-0.1,0.7-0.1,1.9v3.8h4c1.9,0,2.5,0,2.6,0c0.1,0,0.2,0,0.2,0.2v1c0,0.1,0,0.2-0.2,0.2
			c-0.1,0-0.7,0-2.6,0h-4v7.5h5.7c1.9,0,2.5,0,2.6,0c0.1,0,0.2,0,0.2,0.2V356.7z"/>
		<path fill="#6D6D6D" d="M709.1,369.8c0,0.1,0,0.2-0.2,0.2c-0.1,0-0.7,0-2.6,0H700c-0.8,2.1-1.7,4-2.7,5.7c2.7-0.3,5.5-0.6,7.7-1
			c-0.6-0.8-1.3-1.6-2-2.3c-0.1-0.1-0.1-0.2,0.1-0.3l0.5-0.3c0.2-0.1,0.2-0.1,0.3,0c1.7,1.6,2.9,3.3,4.1,5.1
			c0.1,0.1,0.1,0.2-0.1,0.3l-0.6,0.4c-0.3,0.2-0.3,0.2-0.4,0c-0.4-0.6-0.7-1.2-1.2-1.8c-3.4,0.6-7.3,1.1-10.5,1.4
			c-1,0.1-1.4,0.2-1.5,0.3c-0.1,0.1-0.2,0.1-0.3,0.1s-0.2-0.1-0.2-0.3c-0.1-0.4-0.2-0.8-0.3-1.3c0.9,0,1.4,0,2,0l0.9-0.1
			c1.1-1.9,2-3.7,2.8-5.8h-4c-1.9,0-2.5,0-2.6,0c-0.1,0-0.2,0-0.2-0.2V369c0-0.1,0-0.2,0.2-0.2c0.1,0,0.7,0,2.6,0h5.1v-3.7h-3
			c-2,0-2.7,0-2.8,0c-0.1,0-0.1,0-0.1-0.2v-0.9c0-0.1,0-0.2,0.1-0.2c0.1,0,0.8,0,2.8,0h3v-1.3c0-1.4,0-1.9-0.1-2.5
			c0.6,0,1,0,1.4,0.1c0.1,0,0.2,0.1,0.2,0.2c0,0.1,0,0.2-0.1,0.4c-0.1,0.2-0.1,0.7-0.1,1.8v1.4h3.3c2,0,2.7,0,2.8,0s0.1,0,0.1,0.2
			v0.9c0,0.1,0,0.2-0.1,0.2s-0.8,0-2.8,0H701v3.7h5.3c1.9,0,2.5,0,2.6,0c0.1,0,0.2,0,0.2,0.2V369.8z"/>
		<path fill="#6D6D6D" d="M700,386.8c0,0.7,0,0.9,0,1c0,0.1,0,0.2-0.2,0.2c-0.1,0-0.6,0-2.1,0h-3.9c-0.2,0.9-0.6,1.7-1.3,2.4
			c-0.1,0.1-0.2,0.2-0.3,0.2c-0.1,0-0.1,0-0.3-0.1c-0.2-0.2-0.4-0.3-0.6-0.4c1.3-1.1,1.6-2.4,1.6-4.2c0-0.4,0-0.6,0-0.7
			c0-0.1,0-0.2,0.2-0.2c0.1,0,0.6,0,2.2,0h2.5c1.5,0,2,0,2.1,0c0.1,0,0.2,0,0.2,0.2c0,0.1,0,0.3,0,1V386.8z M705.6,395.6
			c1.2-0.1,2.5-0.2,3.7-0.3c-0.1,0.1-0.1,0.3-0.1,0.5c-0.1,0.4-0.1,0.4-0.5,0.4c-0.8,0.1-1.9,0.2-3.1,0.2c0,1,0,1.4,0,1.5
			c0,0.1,0,0.2-0.2,0.2h-0.9c-0.2,0-0.2,0-0.2-0.2c0-0.1,0-0.5,0-1.4c-1.4,0.1-3,0.1-4.4,0.2c-2.9,0.1-4.8,0.2-7.1,0.2
			c-0.4,0-0.7,0-0.9,0.1c-0.1,0.1-0.2,0.1-0.3,0.1c-0.1,0-0.1-0.1-0.2-0.2c-0.1-0.3-0.2-0.6-0.2-1c0.5,0,1.1,0.1,2.2,0.1
			c0.4,0,1,0,1.7,0v-4.7c-1.6,0-2.2,0-2.3,0c-0.1,0-0.2,0-0.2-0.2v-0.6c0-0.1,0-0.2,0.2-0.2c0.1,0,0.7,0,2.7,0h10.2
			c1.9,0,2.6,0,2.7,0c0.1,0,0.2,0,0.2,0.2v0.6c0,0.1,0,0.2-0.2,0.2c-0.1,0-0.8,0-2.7,0h-0.2V395.6z M700.8,381.9
			c0,0.1,0,0.2-0.2,0.2c-0.1,0-0.7,0-2.5,0h-1.3v1.1h0.9c1.6,0,2.1,0,2.2,0c0.1,0,0.2,0,0.2,0.2v0.6c0,0.1,0,0.2-0.2,0.2
			c-0.1,0-0.6,0-2.2,0h-2.7c-1.6,0-2.1,0-2.2,0c-0.2,0-0.2,0-0.2-0.2v-0.6c0-0.1,0-0.2,0.2-0.2c0.1,0,0.6,0,2.2,0h0.8v-1.1h-1.4
			c-1.8,0-2.4,0-2.5,0c-0.1,0-0.2,0-0.2-0.2v-0.6c0-0.1,0-0.1,0.2-0.1c0.1,0,0.7,0,2.5,0h1.4v-0.1c0-0.4,0-0.9-0.1-1.3
			c0.5,0,0.8,0.1,1.1,0.1c0.1,0,0.2,0.1,0.2,0.2c0,0.1,0,0.1-0.1,0.2c-0.1,0.2-0.1,0.3-0.1,0.8v0h1.3c1.8,0,2.3,0,2.4,0
			c0.1,0,0.2,0,0.2,0.2V381.9z M696.1,385.7H694v0.1c0,0.5,0,0.9-0.1,1.3h2.2V385.7z M704.5,391.2h-8v0.9h8V391.2z M704.5,392.9h-8
			v1h8V392.9z M704.5,394.7h-8v1.2c0.7,0,1.4,0,2.2,0c1.9,0,3.9-0.1,5.9-0.2V394.7z M699.1,385.7H697v1.5h2.1V385.7z M706.5,384.8
			c0.2,0,0.3,0,0.4-0.1c0,0,0.1,0,0.2,0c0.1,0,0.2,0,0.5,0.3c0.3,0.3,0.4,0.4,0.4,0.5c0,0.1,0,0.2-0.2,0.2c-0.1,0.1-0.3,0.3-0.6,0.6
			c-0.5,0.6-1.1,1.1-1.7,1.6c1.2,0.6,2.6,0.9,4.1,1.1c-0.2,0.2-0.3,0.4-0.4,0.6c-0.2,0.4-0.2,0.4-0.6,0.3c-1.5-0.2-2.9-0.7-4.1-1.4
			c-1.1,0.6-2.4,1-4,1.4c-0.3,0.1-0.4,0.1-0.5-0.2c-0.1-0.3-0.2-0.4-0.4-0.6c1.5-0.2,2.9-0.6,4-1.2c-0.8-0.6-1.5-1.3-1.9-2.2
			c-0.6,0-0.8,0-0.9,0c-0.2,0-0.2,0-0.2-0.2v-0.6c0-0.1,0-0.2,0.2-0.2c0.1,0,0.6,0,2.2,0H706.5z M706.4,382.4c0,0.2,0,0.4,0.2,0.5
			c0.1,0.1,0.4,0.1,0.8,0.1c0.5,0,0.7-0.1,0.9-0.3c0.1-0.2,0.1-0.5,0.2-1.2c0.2,0.2,0.4,0.3,0.7,0.4c0.3,0.1,0.3,0.1,0.3,0.5
			c-0.1,0.8-0.3,1-0.5,1.2c-0.2,0.2-0.8,0.4-1.6,0.4c-0.6,0-1.1,0-1.3-0.1c-0.4-0.1-0.6-0.4-0.6-1v-1.3H703c0,1.6-0.4,2.4-1.6,3
			c-0.3,0.1-0.3,0.1-0.5-0.2c-0.2-0.2-0.3-0.4-0.5-0.5c1.4-0.4,1.6-1,1.6-2.3c0-0.4,0-0.6,0-0.7c0-0.1,0-0.2,0.2-0.2
			c0.1,0,0.4,0,1.4,0h1.3c1.1,0,1.4,0,1.5,0s0.2,0,0.2,0.2c0,0.1,0,0.4,0,1V382.4z M702.7,385.6c0.5,0.7,1.1,1.2,1.9,1.7
			c0.8-0.5,1.4-1.1,1.9-1.7H702.7z"/>
	</g>
	<g id="v9_1_">
		<g>
			<line fill="#1197CC" x1="700.5" y1="226" x2="700.5" y2="302"/>
			<g>
				<line fill="none" stroke="#29ABE2" stroke-width="2" stroke-miterlimit="10" x1="700.5" y1="226" x2="700.5" y2="251"/>
				<line fill="none" stroke="#29ABE2" stroke-width="2" stroke-miterlimit="10" x1="700.5" y1="277" x2="700.5" y2="302"/>
				<g>
					<polygon fill="#29ABE2" points="692.3,232.6 693.7,234 700.5,226.8 707.2,234 708.6,232.6 700.5,223.8 					"/>
				</g>
				<g>
					<polygon fill="#29ABE2" points="692.3,295.4 693.7,294 700.5,301.2 707.2,294 708.6,295.4 700.5,304.2 					"/>
				</g>
			</g>
		</g>
		<g>
			<path d="M704.7,257.4h-6l-0.6,4c0.4,0,0.7-0.1,1.3-0.1c1.2,0,2.4,0.3,3.4,0.8c1.2,0.7,2.2,2,2.2,4c0,3-2.4,5.3-5.8,5.3
				c-1.7,0-3.1-0.5-3.9-1l0.5-1.6c0.6,0.4,1.9,0.9,3.3,0.9c2,0,3.7-1.3,3.7-3.4c0-2-1.4-3.5-4.5-3.5c-0.9,0-1.6,0.1-2.2,0.2l1-7.5
				h7.5V257.4z"/>
		</g>
	</g>
	<g id="v9">
		<g>
			<line fill="#DB1976" x1="700.5" y1="82" x2="700.5" y2="222"/>
			<g>
				<line fill="none" stroke="#29ABE2" stroke-width="2" stroke-miterlimit="10" x1="700.5" y1="82" x2="700.5" y2="139"/>
				<line fill="none" stroke="#29ABE2" stroke-width="2" stroke-miterlimit="10" x1="700.5" y1="165" x2="700.5" y2="222"/>
				<g>
					<polygon fill="#29ABE2" points="692.3,88.6 693.7,90 700.5,82.8 707.2,90 708.6,88.6 700.5,79.8 					"/>
				</g>
				<g>
					<polygon fill="#29ABE2" points="692.3,215.4 693.7,214 700.5,221.2 707.2,214 708.6,215.4 700.5,224.2 					"/>
				</g>
			</g>
		</g>
		<g>
			<path d="M696.6,157.8c0.5,0,1,0,1.7-0.1c1.2-0.2,2.4-0.7,3.3-1.5c1-0.9,1.8-2.3,2.1-4.2h-0.1c-0.9,1.1-2.1,1.7-3.7,1.7
				c-2.8,0-4.6-2.1-4.6-4.8c0-3,2.1-5.5,5.3-5.5s5.2,2.6,5.2,6.6c0,3.4-1.2,5.8-2.7,7.3c-1.2,1.2-2.9,1.9-4.5,2.1
				c-0.8,0.1-1.4,0.1-1.9,0.1V157.8z M697.4,148.8c0,1.9,1.2,3.3,3,3.3c1.4,0,2.5-0.7,3.1-1.6c0.1-0.2,0.2-0.4,0.2-0.8
				c0-2.7-1-4.7-3.2-4.7C698.7,145,697.4,146.6,697.4,148.8z"/>
		</g>
	</g>
</g>
<g id="ruler_symbol">
	<g>
		<path fill="#6D6D6D" d="M552.3,294c0.1-0.2,0.2-0.2,0.3-0.1c0.9,0.5,1.9,1.2,2.8,2.1c0.1,0.1,0.1,0.1-0.1,0.3l-0.4,0.6
			c-0.1,0.2-0.2,0.2-0.3,0.1c-0.9-0.9-1.7-1.6-2.7-2.2c-0.1-0.1-0.1-0.1,0-0.3L552.3,294z M553.8,305.1c-0.2,0.4-0.4,0.7-0.4,0.8
			c0,0.1-0.1,0.2-0.2,0.2c-0.1,0-0.1,0-0.3-0.1c-0.3-0.2-0.6-0.5-0.9-0.7c0.4-0.4,0.7-0.8,1.1-1.6c0.7-1.3,1.3-2.5,2.1-4.4
			c0.1,0.2,0.3,0.4,0.6,0.6c0.3,0.2,0.3,0.2,0.2,0.6C555.3,302.2,554.6,303.6,553.8,305.1z M553.5,289.2c0.1-0.2,0.2-0.2,0.3-0.1
			c0.9,0.6,1.9,1.4,2.7,2.2c0.1,0.1,0.1,0.1-0.1,0.3l-0.4,0.5c-0.1,0.2-0.2,0.2-0.3,0.1c-0.9-0.9-1.7-1.6-2.7-2.3
			c-0.1-0.1-0.1-0.1,0-0.3L553.5,289.2z M569.5,305.5c0,0.1,0,0.2-0.2,0.2c-0.1,0-0.8,0-2.8,0h-7.4c-2,0-2.7,0-2.8,0
			c-0.1,0-0.2,0-0.2-0.2v-0.9c0-0.1,0-0.2,0.2-0.2c0.1,0,0.8,0,2.8,0h2.9v-5.2h-1.5c-1.9,0-2.5,0-2.7,0s-0.1,0-0.1-0.2v-0.9
			c0-0.1,0-0.2,0.1-0.2s0.7,0,2.7,0h1.5V294h-2c-2,0-2.6,0-2.7,0c-0.1,0-0.2,0-0.2-0.2V293c0-0.1,0-0.2,0.2-0.2c0.1,0,0.7,0,2.7,0
			h5.8c2,0,2.6,0,2.8,0c0.1,0,0.2,0,0.2,0.2v0.9c0,0.1,0,0.2-0.2,0.2c-0.1,0-0.8,0-2.8,0h-2.5v4.2h2c1.9,0,2.5,0,2.6,0
			c0.2,0,0.2,0,0.2,0.2v0.9c0,0.1,0,0.2-0.2,0.2c-0.1,0-0.7,0-2.6,0h-2v5.2h3.2c2,0,2.7,0,2.8,0c0.1,0,0.2,0,0.2,0.2V305.5z
			 M560.9,288.7c0.2-0.2,0.2-0.2,0.3-0.1c1,0.6,2.2,1.4,3.2,2.3c0.1,0.1,0.1,0.2-0.1,0.3l-0.4,0.5c-0.2,0.2-0.2,0.2-0.4,0.1
			c-1-1-2.1-1.8-3.2-2.4c-0.1-0.1-0.1-0.1,0.1-0.3L560.9,288.7z"/>
		<path fill="#6D6D6D" d="M569.4,316.2c0,0.1,0,0.2-0.2,0.2c-0.1,0-0.7,0-2.6,0h-12.2c-1.8,0-2.5,0-2.6,0c-0.1,0-0.2,0-0.2-0.2v-0.9
			c0-0.1,0-0.2,0.2-0.2c0.1,0,0.7,0,2.6,0h2.7c-0.3-1-0.6-1.7-1.1-2.6c-0.1-0.1,0-0.1,0.2-0.2l0.6-0.2c0.2-0.1,0.2,0,0.3,0.1
			c0.5,0.8,0.9,1.8,1.2,2.9h3.8c0.4-0.8,0.7-1.6,0.9-2.2c0.1-0.3,0.2-0.6,0.2-1c0.4,0.1,0.9,0.2,1.2,0.3c0.2,0.1,0.2,0.1,0.2,0.2
			c0,0.1-0.1,0.2-0.1,0.3c-0.1,0.1-0.2,0.2-0.3,0.4c-0.3,0.6-0.6,1.3-0.9,1.9h3.2c1.9,0,2.5,0,2.6,0c0.1,0,0.2,0,0.2,0.2V316.2z
			 M568.1,311.5c0,0.2,0,0.2-0.2,0.2c-0.1,0-0.8,0-2.8,0h-9.3c-2,0-2.7,0-2.8,0c-0.1,0-0.2,0-0.2-0.2v-0.8c0-0.1,0-0.2,0.2-0.2
			c0.1,0,0.8,0,2.8,0h3.9v-0.1c0-1,0-1.5-0.1-2c0.5,0,0.9,0,1.3,0.1c0.2,0,0.2,0.1,0.2,0.2c0,0.1,0,0.2-0.1,0.4
			c-0.1,0.2-0.1,0.5-0.1,1.4v0.1h4.2c2,0,2.7,0,2.8,0c0.1,0,0.2,0,0.2,0.2V311.5z M566.1,322.6c0,3.1,0,3.6,0,3.7
			c0,0.1,0,0.2-0.2,0.2H565c-0.1,0-0.2,0-0.2-0.2v-0.9h-8.7v1c0,0.1,0,0.1-0.2,0.1h-0.9c-0.1,0-0.2,0-0.2-0.1s0-0.6,0-3.8v-1.9
			c0-1.9,0-2.4,0-2.5c0-0.1,0-0.2,0.2-0.2c0.1,0,0.8,0,2.7,0h5.4c2,0,2.6,0,2.7,0c0.1,0,0.2,0,0.2,0.2c0,0.1,0,0.6,0,2.3V322.6z
			 M564.9,319.1h-8.7v2h8.7V319.1z M564.9,322.2h-8.7v2.2h8.7V322.2z"/>
		<path fill="#6D6D6D" d="M560.4,331.4c0,0.1,0,0.2-0.2,0.2c-0.1,0-0.6,0-2.2,0h-0.8c0.4,0.6,0.6,1.2,0.9,2c0,0.1,0,0.2-0.2,0.2
			l-0.7,0.2c-0.3,0.1-0.3,0.1-0.3-0.1c-0.2-0.8-0.6-1.6-0.9-2.3h-1.6c-0.5,0.8-1.2,1.6-1.8,2.3c-0.1,0.1-0.2,0.2-0.3,0.2
			c-0.1,0-0.1-0.1-0.3-0.2c-0.2-0.2-0.4-0.4-0.6-0.5c1.3-1.2,2.2-2.5,2.8-3.9c0.2-0.4,0.2-0.7,0.3-1c0.5,0.1,0.9,0.2,1.2,0.3
			c0.1,0,0.2,0.1,0.2,0.2c0,0.1-0.1,0.2-0.2,0.2c-0.1,0.1-0.2,0.2-0.3,0.5c-0.1,0.3-0.3,0.6-0.4,0.8h3.1c1.6,0,2,0,2.2,0
			c0.1,0,0.2,0,0.2,0.2V331.4z M554.6,340.7c0-0.7,0-1.7,0-2.5c-0.6,0.8-1.4,1.6-2.1,2.2c-0.1,0.1-0.2,0.2-0.3,0.2
			c-0.1,0-0.2-0.1-0.3-0.3c-0.2-0.3-0.3-0.5-0.5-0.6c1.9-1.5,3.2-3.1,4.1-4.8c0.2-0.4,0.4-0.8,0.5-1.1c0.4,0.2,0.8,0.3,1.1,0.5
			c0.1,0.1,0.2,0.2,0.2,0.2c0,0.1,0,0.2-0.2,0.2c-0.1,0.1-0.3,0.3-0.5,0.6c-0.2,0.4-0.5,0.9-0.8,1.4v7.1c0,1.7,0,2.4,0,2.5
			c0,0.1,0,0.1-0.1,0.1h-1c-0.1,0-0.2,0-0.2-0.1c0-0.1,0-0.8,0-2.5V340.7z M569.4,337.5c0,0.1,0,0.2-0.2,0.2c-0.1,0-0.8,0-2.8,0
			h-0.3v3.9c0,1.1,0,2,0,3c0,0.7-0.1,1.2-0.6,1.4c-0.5,0.3-1.2,0.3-2.8,0.3c-0.4,0-0.4,0-0.5-0.4c-0.1-0.4-0.2-0.7-0.4-0.9
			c0.6,0.1,1.1,0.1,1.8,0.1c1.1,0,1.3-0.1,1.3-0.8v-6.6H560c-2,0-2.7,0-2.8,0c-0.1,0-0.2,0-0.2-0.2v-0.9c0-0.1,0-0.2,0.2-0.2
			c0.1,0,0.8,0,2.8,0h4.9v-0.1c0-1.2,0-1.8-0.1-2.4c0.5,0,0.9,0.1,1.3,0.1c0.1,0,0.3,0.1,0.3,0.2c0,0.1-0.1,0.2-0.1,0.4
			c-0.1,0.2-0.1,0.6-0.1,1.7v0.1h0.3c2,0,2.7,0,2.8,0c0.1,0,0.2,0,0.2,0.2V337.5z M559.3,339.1c0.2-0.1,0.2-0.1,0.3,0
			c1,0.9,1.7,1.8,2.4,3c0.1,0.1,0,0.2-0.1,0.3l-0.5,0.4c-0.2,0.2-0.3,0.2-0.4,0c-0.7-1.2-1.4-2.2-2.3-3c-0.1-0.1-0.1-0.2,0.1-0.3
			L559.3,339.1z M569.3,331.4c0,0.1,0,0.2-0.1,0.2s-0.7,0-2.4,0h-1.5c0.4,0.5,0.7,1.1,0.9,1.8c0,0.1,0,0.2-0.2,0.2l-0.6,0.2
			c-0.3,0.1-0.3,0.1-0.4-0.1c-0.2-0.7-0.6-1.4-1-2.1h-1.7c-0.4,0.7-0.9,1.5-1.5,2.2c-0.1,0.1-0.2,0.2-0.3,0.2s-0.2-0.1-0.3-0.2
			c-0.2-0.2-0.4-0.3-0.7-0.4c1.2-1.3,1.9-2.5,2.4-3.9c0.1-0.2,0.2-0.6,0.2-0.9c0.4,0.1,0.9,0.2,1.2,0.3c0.1,0,0.2,0.1,0.2,0.2
			c0,0.1-0.1,0.2-0.2,0.3c-0.1,0.1-0.1,0.2-0.3,0.5c-0.1,0.3-0.2,0.5-0.3,0.8h3.9c1.7,0,2.3,0,2.4,0s0.1,0,0.1,0.2V331.4z"/>
		<path fill="#6D6D6D" d="M558.8,357.3c0,0.1,0,0.2-0.2,0.2c-0.1,0-0.6,0-2.1,0h-1.6c-0.2,0.7-0.4,1.4-0.6,2.1h1.9
			c0.6,0,1.1,0,1.4,0c0.1,0,0.2,0,0.2,0.2c-0.1,0.3-0.1,0.7-0.1,1c-0.2,2.1-0.4,3.5-0.8,4.5c-0.3,0.6-0.8,0.9-1.6,0.9
			c-0.3,0-0.7,0-1-0.1c-0.3,0-0.3-0.1-0.4-0.4c-0.1-0.3-0.2-0.7-0.3-0.8c0.6,0.1,1,0.2,1.4,0.2c0.5,0,0.8-0.1,0.9-0.5
			c0.3-0.9,0.5-2.4,0.6-4h-2.7l-0.3,0.8c-0.1,0.1-0.1,0.1-0.3,0.1l-0.6-0.1c-0.2-0.1-0.2-0.1-0.2-0.2c0.5-1.2,0.9-2.5,1.2-3.7
			c-1.4,0-1.9,0-2,0c-0.1,0-0.1,0-0.1-0.2v-0.8c0-0.1,0-0.2,0.1-0.2c0.1,0,0.6,0,2.1,0h2.6c1.6,0,2,0,2.1,0c0.1,0,0.2,0,0.2,0.2
			V357.3z M557.9,352.9c0,1.1,0,1.5,0,1.6c0,0.1,0,0.2-0.2,0.2c-0.1,0-0.5,0-1.7,0h-1.6c-1.2,0-1.6,0-1.8,0c-0.1,0-0.2,0-0.2-0.2
			c0-0.1,0-0.5,0-1.6v-1.7c0-1.1,0-1.5,0-1.6c0-0.1,0-0.2,0.2-0.2c0.1,0,0.5,0,1.8,0h1.6c1.3,0,1.6,0,1.7,0c0.1,0,0.2,0,0.2,0.2
			c0,0.1,0,0.5,0,1.6V352.9z M556.8,350.5h-3.2v3.2h3.2V350.5z M568.1,352.5c0.2,0,0.3,0,0.3-0.1s0.2-0.1,0.2-0.1
			c0.2,0,0.3,0.1,0.6,0.3s0.4,0.4,0.4,0.5c0,0.1-0.1,0.2-0.2,0.2c-0.1,0.1-0.2,0.2-0.3,0.5c-0.2,0.4-0.5,0.9-0.9,1.6
			c-0.1,0.2-0.2,0.2-0.2,0.2c-0.1,0-0.1,0-0.3-0.1c-0.2-0.1-0.5-0.2-0.7-0.3c0.5-0.6,0.8-1.2,1.1-1.7h-7.5v2.3c0,1.6,0,3.5-0.2,5.2
			c-0.2,1.7-0.7,3.5-1.7,5.1c-0.1,0.1-0.2,0.2-0.2,0.2c-0.1,0-0.1-0.1-0.3-0.2c-0.2-0.2-0.5-0.4-0.7-0.5c1.2-1.5,1.6-3.2,1.8-5
			c0.2-1.5,0.2-3.2,0.2-4.9c0-2.1,0-3,0-3.1c0-0.1,0-0.2,0.1-0.2c0.1,0,0.8,0,2.6,0h1.1v-2.6c0-0.6,0-1.1-0.1-1.5
			c0.5,0,0.8,0,1.2,0.1c0.1,0,0.2,0.1,0.2,0.2s-0.1,0.2-0.1,0.3c-0.1,0.1-0.1,0.5-0.1,1v0.1h2c1.1,0,1.4,0,1.5,0
			c0.1,0,0.2,0,0.2,0.2v0.7c0,0.2,0,0.2-0.2,0.2c-0.1,0-0.4,0-1.5,0h-2v1.4H568.1z M563.7,360.7c-0.1,0.2-0.1,0.5-0.1,1
			c-0.2,2-0.8,3.5-2.9,4.7c-0.1,0.1-0.2,0.1-0.3,0.1c-0.1,0-0.2-0.1-0.3-0.2c-0.2-0.2-0.4-0.4-0.6-0.5c2.1-0.9,2.8-2.1,2.9-4.1
			c0-0.6,0-1.1,0-1.6c0.4,0,0.8,0.1,1.1,0.1c0.2,0,0.3,0.1,0.3,0.2C563.8,360.4,563.8,360.6,563.7,360.7z M564,357.3
			c0,0.5,0.1,0.7,0.3,0.8c0.2,0.1,0.7,0.1,1.4,0.1c0.8,0,1.4-0.1,1.7-0.3c0.3-0.2,0.4-0.7,0.4-1.6c0.2,0.2,0.5,0.3,0.7,0.4
			c0.3,0.1,0.3,0.1,0.3,0.4c-0.1,0.8-0.3,1.2-0.6,1.5c-0.3,0.3-1.2,0.5-2.4,0.5c-1,0-1.8-0.1-2.1-0.2c-0.3-0.2-0.6-0.4-0.6-1.3v-1
			l-1.7,0.2c-0.1,0-0.1,0-0.2-0.1l-0.1-0.7c0-0.1,0-0.1,0.1-0.1c0.1,0,0.5,0,1.8-0.2v-0.4c0-0.6-0.1-1.2-0.1-1.4
			c0.4,0,0.8,0.1,1.1,0.1c0.1,0,0.2,0.1,0.2,0.2c0,0.1,0,0.1-0.1,0.2c-0.1,0.1-0.1,0.3-0.1,0.9v0.2l0.8-0.1c1.3-0.1,1.7-0.2,1.8-0.3
			c0.1,0,0.1,0,0.1,0.1l0.1,0.7c0,0.1,0,0.2-0.1,0.2l-1.8,0.2l-0.9,0.1V357.3z M566.2,364.5c0,0.4,0,0.5,0.2,0.6
			c0.2,0.1,0.4,0.1,0.9,0.1c0.7,0,0.9-0.1,1.1-0.4c0.2-0.3,0.3-0.9,0.3-2.1c0.2,0.1,0.4,0.2,0.7,0.4c0.3,0.1,0.3,0.1,0.3,0.5
			c-0.1,1.3-0.2,1.8-0.5,2.1c-0.3,0.3-0.5,0.6-1.9,0.6c-0.8,0-1.3,0-1.7-0.2c-0.3-0.2-0.5-0.5-0.5-1.3v-2.4c0-1,0-1.7-0.1-2.2
			c0.4,0,0.8,0.1,1.2,0.1c0.1,0,0.2,0.1,0.2,0.2c0,0.1-0.1,0.2-0.1,0.4c-0.1,0.2-0.1,0.4-0.1,1.5V364.5z"/>
	</g>
	<g id="v9_5_">
		<g>
			<line fill="#1197CC" x1="589.5" y1="259" x2="589.5" y2="399"/>
			<g>
				<line fill="none" stroke="#29ABE2" stroke-width="2" stroke-miterlimit="10" x1="589.5" y1="259" x2="589.5" y2="316"/>
				<line fill="none" stroke="#29ABE2" stroke-width="2" stroke-miterlimit="10" x1="589.5" y1="342" x2="589.5" y2="399"/>
				<g>
					<polygon fill="#29ABE2" points="581.3,265.6 582.7,267 589.5,259.8 596.2,267 597.6,265.6 589.5,256.8 					"/>
				</g>
				<g>
					<polygon fill="#29ABE2" points="581.3,392.4 582.7,391 589.5,398.2 596.2,391 597.6,392.4 589.5,401.2 					"/>
				</g>
			</g>
		</g>
		<g>
			<path d="M585.6,334.8c0.5,0,1,0,1.7-0.1c1.2-0.2,2.4-0.7,3.3-1.5c1-0.9,1.8-2.3,2.1-4.2h-0.1c-0.9,1.1-2.1,1.7-3.7,1.7
				c-2.8,0-4.6-2.1-4.6-4.8c0-3,2.1-5.5,5.3-5.5s5.2,2.6,5.2,6.6c0,3.4-1.2,5.8-2.7,7.3c-1.2,1.2-2.9,1.9-4.5,2.1
				c-0.8,0.1-1.4,0.1-1.9,0.1V334.8z M586.4,325.8c0,1.9,1.2,3.3,3,3.3c1.4,0,2.5-0.7,3.1-1.6c0.1-0.2,0.2-0.4,0.2-0.8
				c0-2.7-1-4.7-3.2-4.7C587.7,322,586.4,323.6,586.4,325.8z"/>
		</g>
	</g>
	<g id="v9_6_">
		<g>
			<line fill="#1197CC" x1="589.5" y1="402" x2="589.5" y2="558"/>
			<g>
				<line fill="none" stroke="#29ABE2" stroke-width="2" stroke-miterlimit="10" x1="589.5" y1="402" x2="589.5" y2="467"/>
				<line fill="none" stroke="#29ABE2" stroke-width="2" stroke-miterlimit="10" x1="589.5" y1="493" x2="589.5" y2="558"/>
				<g>
					<polygon fill="#29ABE2" points="581.3,408.6 582.7,410 589.4,402.8 596.2,410 597.6,408.6 589.4,399.8 					"/>
				</g>
				<g>
					<polygon fill="#29ABE2" points="581.3,551.4 582.7,550 589.4,557.2 596.2,550 597.6,551.4 589.4,560.2 					"/>
				</g>
			</g>
		</g>
		<g>
			<path d="M582,472.9L582,472.9l-3.1,1.6l-0.5-1.8l3.8-2h2V488H582V472.9z"/>
			<path d="M602.1,479.2c0,5.9-2.2,9.1-6,9.1c-3.4,0-5.7-3.2-5.7-8.9c0-5.8,2.5-9,6-9C600,470.4,602.1,473.7,602.1,479.2z
				 M592.6,479.5c0,4.5,1.4,7.1,3.5,7.1c2.4,0,3.5-2.8,3.5-7.2c0-4.3-1.1-7.1-3.5-7.1C594.1,472.2,592.6,474.7,592.6,479.5z"/>
		</g>
	</g>
</g>
<g id="ruler_5th-tone">
	<g id="v2">
		<g>
			<line fill="#1197CC" x1="540.5" y1="212" x2="540.5" y2="238"/>
			<g>
				
					<line fill="none" stroke="#29ABE2" stroke-width="2" stroke-miterlimit="10" stroke-dasharray="26" x1="540.5" y1="212" x2="540.5" y2="238"/>
				<g>
					<polygon fill="#29ABE2" points="532.3,218.6 533.7,220 540.5,212.8 547.2,220 548.6,218.6 540.5,209.8 					"/>
				</g>
				<g>
					<polygon fill="#29ABE2" points="532.3,231.3 533.7,229.9 540.5,237.2 547.2,229.9 548.6,231.3 540.5,240.1 					"/>
				</g>
			</g>
		</g>
		<g>
			<path d="M556.7,233.2v-1.3l1.7-1.6c4-3.8,5.8-5.8,5.8-8.2c0-1.6-0.8-3-3.1-3c-1.4,0-2.6,0.7-3.3,1.3l-0.7-1.5
				c1.1-0.9,2.6-1.6,4.4-1.6c3.4,0,4.8,2.3,4.8,4.5c0,2.9-2.1,5.2-5.4,8.4l-1.2,1.2v0h7v1.8H556.7z"/>
		</g>
	</g>
	<g id="v8">
		<g>
			<line fill="#1197CC" x1="630.5" y1="83" x2="630.5" y2="207"/>
			<g>
				<line fill="none" stroke="#29ABE2" stroke-width="2" stroke-miterlimit="10" x1="630.5" y1="83" x2="630.5" y2="132"/>
				<line fill="none" stroke="#29ABE2" stroke-width="2" stroke-miterlimit="10" x1="630.5" y1="158" x2="630.5" y2="207"/>
				<g>
					<polygon fill="#29ABE2" points="622.3,89.1 623.7,90.5 630.5,83.3 637.2,90.5 638.6,89.1 630.5,80.3 					"/>
				</g>
				<g>
					<polygon fill="#29ABE2" points="622.3,199.9 623.7,198.5 630.5,205.7 637.2,198.5 638.6,199.9 630.5,208.7 					"/>
				</g>
			</g>
		</g>
		<g>
			<path d="M625.8,146.9c0-1.7,1-3,2.8-3.7l0-0.1c-1.5-0.7-2.2-1.9-2.2-3.1c0-2.2,1.9-3.7,4.3-3.7c2.7,0,4,1.7,4,3.4
				c0,1.2-0.6,2.4-2.3,3.2v0.1c1.7,0.7,2.8,1.9,2.8,3.6c0,2.4-2.1,4-4.7,4C627.6,150.7,625.8,148.9,625.8,146.9z M633.3,146.8
				c0-1.7-1.2-2.5-3.1-3c-1.6,0.5-2.5,1.5-2.5,2.9c-0.1,1.4,1,2.6,2.8,2.6C632.2,149.3,633.3,148.3,633.3,146.8z M628.1,139.9
				c0,1.4,1,2.1,2.6,2.6c1.2-0.4,2.1-1.3,2.1-2.5c0-1.1-0.7-2.3-2.3-2.3C629,137.7,628.1,138.7,628.1,139.9z"/>
		</g>
	</g>
	<g>
		<path fill="#6D6D6D" d="M538.8,162.7c0,0.1,0,0.2-0.2,0.2c-0.1,0-0.7,0-2.4,0h-0.4v1.7h0.2c1.5,0,2,0,2.1,0c0.1,0,0.2,0,0.2,0.2
			c0,0.1,0,0.6,0,1.9v2.7c0,1.3,0,1.8,0,1.9c0,0.1,0,0.2-0.2,0.2c-0.1,0-0.6,0-2.1,0h-0.2v1.8h0.4c1.8,0,2.3,0,2.4,0
			c0.1,0,0.2,0,0.2,0.2v0.7c0,0.1,0,0.2-0.2,0.2c-0.1,0-0.7,0-2.4,0h-0.4c0,2.3,0,3.3,0,3.4c0,0.1,0,0.2-0.2,0.2h-0.8
			c-0.1,0-0.2,0-0.2-0.2c0-0.1,0-1.1,0-3.4H534c-1.7,0-2.3,0-2.4,0c-0.1,0-0.2,0-0.2-0.2v-0.7c0-0.1,0-0.2,0.2-0.2
			c0.1,0,0.7,0,2.4,0h0.7v-1.8h-0.1c-1.5,0-2.1,0-2.2,0c-0.1,0-0.2,0-0.2-0.2c0-0.1,0-0.6,0-1.9v-2.7c0-1.3,0-1.8,0-1.9
			c0-0.1,0-0.2,0.2-0.2c0.1,0,0.7,0,2.2,0h0.1v-1.7h-0.6c-1.7,0-2.3,0-2.4,0c-0.1,0-0.2,0-0.2-0.2V162c0-0.1,0-0.2,0.2-0.2
			c0.1,0,0.7,0,2.4,0h0.6c0-1.2,0-1.7-0.1-2.3c0.5,0,0.8,0,1.2,0.1c0.2,0,0.2,0.1,0.2,0.2c0,0.1-0.1,0.2-0.1,0.3
			c-0.1,0.2-0.1,0.6-0.1,1.7v0h0.4c1.8,0,2.3,0,2.4,0c0.1,0,0.2,0,0.2,0.2V162.7z M534.7,165.4h-1.5v2h1.5V165.4z M534.7,168.2h-1.5
			v2.1h1.5V168.2z M537.3,165.4h-1.5v2h1.5V165.4z M537.3,168.2h-1.5v2.1h1.5V168.2z M549.7,176.7c0,0.1,0,0.2-0.2,0.2
			c-0.1,0-0.7,0-2.6,0H541c-1.9,0-2.5,0-2.6,0c-0.1,0-0.2,0-0.2-0.2v-0.8c0-0.1,0-0.2,0.2-0.2c0.1,0,0.7,0,2.6,0h2.3V172h-1.5
			c-1.8,0-2.4,0-2.5,0c-0.1,0-0.1,0-0.1-0.2V171c0-0.1,0-0.2,0.1-0.2c0.1,0,0.7,0,2.5,0h4.6c1.8,0,2.4,0,2.5,0c0.1,0,0.2,0,0.2,0.2
			v0.8c0,0.1,0,0.2-0.2,0.2c-0.1,0-0.7,0-2.5,0h-1.9v3.7h2.4c1.9,0,2.5,0,2.6,0c0.1,0,0.2,0,0.2,0.2V176.7z M541.4,170.2
			c-0.2,0.1-0.3,0.1-0.3,0c-0.6-1.4-1.2-2.4-2-3.5c-0.1-0.1-0.1-0.2-0.1-0.3c0-0.1,0-0.2,0.2-0.3c0.7-0.8,1.2-1.7,1.7-2.6
			c0.1-0.3,0.3-0.6,0.3-0.9c0.4,0.1,0.7,0.3,1,0.4c0.2,0.1,0.2,0.1,0.2,0.2c0,0.1-0.1,0.2-0.2,0.3c-0.1,0.1-0.3,0.4-0.5,0.7
			c-0.4,0.7-0.9,1.4-1.5,2.2c0.7,0.9,1.4,2,2,3.3c0.1,0.1,0.1,0.2-0.1,0.3L541.4,170.2z M549.4,161.7c0,0.1,0,0.2-0.1,0.2
			c-0.1,0-0.7,0-2.6,0h-4.9c-1.8,0-2.4,0-2.5,0c-0.1,0-0.2,0-0.2-0.2v-0.8c0-0.1,0-0.2,0.2-0.2c0.1,0,0.7,0,2.5,0h4.9
			c1.8,0,2.5,0,2.6,0c0.1,0,0.1,0,0.1,0.2V161.7z M545,170.1c-0.2,0.1-0.3,0.2-0.3,0c-0.7-1.3-1.4-2.5-2.3-3.5
			c-0.1-0.1-0.2-0.2-0.2-0.3s0.1-0.2,0.2-0.3c0.7-0.9,1.2-1.7,1.7-2.6c0.1-0.3,0.3-0.6,0.3-0.9c0.4,0.1,0.7,0.3,1,0.4
			c0.2,0.1,0.3,0.1,0.3,0.2c0,0.1-0.1,0.2-0.2,0.3c-0.1,0.1-0.3,0.4-0.5,0.7c-0.4,0.6-0.9,1.4-1.5,2.2c0.8,1,1.5,2,2.2,3.2
			c0.1,0.1,0,0.2-0.1,0.3L545,170.1z M548.5,170.2c-0.2,0.1-0.2,0.2-0.3,0c-0.7-1.3-1.6-2.7-2.5-3.6c-0.1-0.1-0.1-0.2-0.1-0.3
			c0-0.1,0-0.2,0.1-0.3c0.7-0.8,1.2-1.7,1.7-2.6c0.1-0.3,0.2-0.6,0.3-0.9c0.4,0.1,0.7,0.3,1,0.4c0.2,0.1,0.2,0.1,0.2,0.2
			c0,0.1-0.1,0.2-0.2,0.3s-0.2,0.3-0.4,0.7c-0.4,0.7-0.9,1.5-1.5,2.2c0.8,0.9,1.7,2.1,2.4,3.4c0.1,0.1,0,0.2-0.1,0.3L548.5,170.2z"
			/>
		<path fill="#6D6D6D" d="M540.1,186.3c0,0.7,0,0.9,0,1c0,0.1,0,0.2-0.2,0.2c-0.1,0-0.6,0-2.1,0h-3.9c-0.2,0.9-0.6,1.7-1.3,2.4
			c-0.1,0.1-0.2,0.2-0.3,0.2c-0.1,0-0.1,0-0.3-0.1c-0.2-0.2-0.4-0.3-0.6-0.4c1.3-1.1,1.6-2.4,1.6-4.2c0-0.4,0-0.6,0-0.7
			c0-0.1,0-0.2,0.2-0.2c0.1,0,0.6,0,2.2,0h2.5c1.5,0,2,0,2.1,0c0.1,0,0.2,0,0.2,0.2c0,0.1,0,0.3,0,1V186.3z M545.6,195.1
			c1.2-0.1,2.5-0.2,3.7-0.3c-0.1,0.1-0.1,0.3-0.1,0.5c-0.1,0.4-0.1,0.4-0.5,0.4c-0.8,0.1-1.9,0.2-3.1,0.2c0,1,0,1.4,0,1.5
			c0,0.1,0,0.2-0.2,0.2h-0.9c-0.2,0-0.2,0-0.2-0.2c0-0.1,0-0.5,0-1.4c-1.4,0.1-3,0.1-4.4,0.2c-2.9,0.1-4.8,0.2-7.1,0.2
			c-0.4,0-0.7,0-0.9,0.1c-0.1,0.1-0.2,0.1-0.3,0.1c-0.1,0-0.1-0.1-0.2-0.2c-0.1-0.3-0.2-0.6-0.2-1c0.5,0,1.1,0.1,2.2,0.1
			c0.4,0,1,0,1.7,0v-4.7c-1.6,0-2.2,0-2.3,0c-0.1,0-0.2,0-0.2-0.2V190c0-0.1,0-0.2,0.2-0.2c0.1,0,0.7,0,2.7,0h10.2
			c1.9,0,2.6,0,2.7,0c0.1,0,0.2,0,0.2,0.2v0.6c0,0.1,0,0.2-0.2,0.2c-0.1,0-0.8,0-2.7,0h-0.2V195.1z M540.8,181.4
			c0,0.1,0,0.2-0.2,0.2c-0.1,0-0.7,0-2.5,0H537v1.1h0.9c1.6,0,2.1,0,2.2,0c0.1,0,0.2,0,0.2,0.2v0.6c0,0.1,0,0.2-0.2,0.2
			c-0.1,0-0.6,0-2.2,0h-2.7c-1.6,0-2.1,0-2.2,0c-0.2,0-0.2,0-0.2-0.2v-0.6c0-0.1,0-0.2,0.2-0.2c0.1,0,0.6,0,2.2,0h0.8v-1.1h-1.4
			c-1.8,0-2.4,0-2.5,0c-0.1,0-0.2,0-0.2-0.2v-0.6c0-0.1,0-0.1,0.2-0.1c0.1,0,0.7,0,2.5,0h1.4v-0.1c0-0.4,0-0.9-0.1-1.3
			c0.5,0,0.8,0.1,1.1,0.1c0.1,0,0.2,0.1,0.2,0.2c0,0.1,0,0.1-0.1,0.2c-0.1,0.2-0.1,0.3-0.1,0.8v0h1.3c1.8,0,2.3,0,2.4,0
			c0.1,0,0.2,0,0.2,0.2V181.4z M536.1,185.2H534v0.1c0,0.5,0,0.9-0.1,1.3h2.2V185.2z M544.5,190.7h-8v0.9h8V190.7z M544.5,192.4h-8
			v1h8V192.4z M544.5,194.2h-8v1.2c0.7,0,1.4,0,2.2,0c1.9,0,3.9-0.1,5.9-0.2V194.2z M539.1,185.2H537v1.5h2.1V185.2z M546.6,184.3
			c0.2,0,0.3,0,0.4-0.1c0,0,0.1,0,0.2,0c0.1,0,0.2,0,0.5,0.3c0.3,0.3,0.4,0.4,0.4,0.5c0,0.1,0,0.2-0.2,0.2c-0.1,0.1-0.3,0.3-0.6,0.6
			c-0.5,0.6-1.1,1.1-1.7,1.6c1.2,0.6,2.6,0.9,4.1,1.1c-0.2,0.2-0.3,0.4-0.4,0.6c-0.2,0.4-0.2,0.4-0.6,0.3c-1.5-0.2-2.9-0.7-4.1-1.4
			c-1.1,0.6-2.4,1-4,1.4c-0.3,0.1-0.4,0.1-0.5-0.2c-0.1-0.3-0.2-0.4-0.4-0.6c1.5-0.2,2.9-0.6,4-1.2c-0.8-0.6-1.5-1.3-1.9-2.2
			c-0.6,0-0.8,0-0.9,0c-0.2,0-0.2,0-0.2-0.2v-0.6c0-0.1,0-0.2,0.2-0.2c0.1,0,0.6,0,2.2,0H546.6z M546.5,181.9c0,0.2,0,0.4,0.2,0.5
			c0.1,0.1,0.4,0.1,0.8,0.1c0.5,0,0.7-0.1,0.9-0.3c0.1-0.2,0.1-0.5,0.2-1.2c0.2,0.2,0.4,0.3,0.7,0.4c0.3,0.1,0.3,0.1,0.3,0.5
			c-0.1,0.8-0.3,1-0.5,1.2c-0.2,0.2-0.8,0.4-1.6,0.4c-0.6,0-1.1,0-1.3-0.1c-0.4-0.1-0.6-0.4-0.6-1v-1.3H543c0,1.6-0.4,2.4-1.6,3
			c-0.3,0.1-0.3,0.1-0.5-0.2c-0.2-0.2-0.3-0.4-0.5-0.5c1.4-0.4,1.6-1,1.6-2.3c0-0.4,0-0.6,0-0.7c0-0.1,0-0.2,0.2-0.2
			c0.1,0,0.4,0,1.4,0h1.3c1.1,0,1.4,0,1.5,0s0.2,0,0.2,0.2c0,0.1,0,0.4,0,1V181.9z M542.7,185.1c0.5,0.7,1.1,1.2,1.9,1.7
			c0.8-0.5,1.4-1.1,1.9-1.7H542.7z"/>
	</g>
	<g>
	</g>
	<g>
	</g>
	<g>
	</g>
	<g>
	</g>
	<g>
	</g>
	<g>
	</g>
	<g>
	</g>
	<g>
	</g>
	<g>
	</g>
	<g>
	</g>
	<g>
	</g>
	<g>
	</g>
	<g>
	</g>
	<g>
	</g>
	<g>
	</g>
	<g>
	</g>
	<g>
	</g>
</g>
</svg>
