<?xml version="1.0" encoding="utf-8"?>
<!-- Generator: Adobe Illustrator 18.1.0, SVG Export Plug-In . SVG Version: 6.00 Build 0)  -->
<svg version="1.1" xmlns="http://www.w3.org/2000/svg" xmlns:xlink="http://www.w3.org/1999/xlink" x="0px" y="0px"
	 viewBox="0 0 880 640" enable-background="new 0 0 880 640" xml:space="preserve">
<g id="ruler_under">
	<g id="h_45">
		<g>
			<g>
				<line fill="none" stroke="#999999" stroke-width="2" stroke-miterlimit="10" x1="21" y1="601" x2="361" y2="601"/>
				<line fill="none" stroke="#999999" stroke-width="2" stroke-miterlimit="10" x1="401" y1="601" x2="741" y2="601"/>
				<g>
					<rect x="20" y="593" fill="#999999" width="2" height="16"/>
				</g>
				<g>
					<rect x="740" y="593" fill="#999999" width="2" height="16"/>
				</g>
			</g>
		</g>
		<g>
			<path d="M375.7,610v-4.2h-7.2v-1.4l7-10h2.3v9.7h2.2v1.7h-2.2v4.2H375.7z M375.7,604.1v-5.2c0-0.8,0-1.6,0.1-2.4h-0.1
				c-0.5,0.9-0.9,1.6-1.3,2.3l-3.8,5.3v0H375.7z"/>
			<path d="M390.7,596.2h-6l-0.6,4c0.4,0,0.7-0.1,1.3-0.1c1.2,0,2.4,0.3,3.4,0.8c1.2,0.7,2.2,2,2.2,4c0,3-2.4,5.3-5.8,5.3
				c-1.7,0-3.1-0.5-3.9-1l0.5-1.6c0.6,0.4,1.9,0.9,3.3,0.9c2,0,3.7-1.3,3.7-3.4c0-2-1.4-3.5-4.5-3.5c-0.9,0-1.6,0.1-2.2,0.2l1-7.5
				h7.5V596.2z"/>
		</g>
	</g>
	<g id="h_30_1_">
		<g>
			<g>
				<line fill="none" stroke="#999999" stroke-width="2" stroke-miterlimit="10" x1="21" y1="578" x2="241" y2="578"/>
				<line fill="none" stroke="#999999" stroke-width="2" stroke-miterlimit="10" x1="281" y1="578" x2="501" y2="578"/>
				<g>
					<rect x="20" y="570" fill="#999999" width="2" height="16"/>
				</g>
				<g>
					<rect x="500" y="570" fill="#999999" width="2" height="16"/>
				</g>
			</g>
		</g>
		<g>
			<path d="M249.6,584.6c0.6,0.4,2,1,3.5,1c2.7,0,3.6-1.7,3.5-3c0-2.2-2-3.1-4-3.1h-1.2v-1.6h1.2c1.5,0,3.5-0.8,3.5-2.6
				c0-1.2-0.8-2.4-2.7-2.4c-1.2,0-2.4,0.6-3.1,1l-0.6-1.5c0.8-0.6,2.4-1.2,4.1-1.2c3.1,0,4.5,1.8,4.5,3.7c0,1.6-1,3-2.9,3.7v0
				c1.9,0.4,3.5,1.8,3.5,4c0,2.5-1.9,4.7-5.7,4.7c-1.8,0-3.3-0.6-4.1-1.1L249.6,584.6z"/>
			<path d="M271.8,579c0,5.3-2,8.2-5.4,8.2c-3,0-5.1-2.9-5.2-8c0-5.2,2.3-8.1,5.4-8.1C269.9,571.1,271.8,574.1,271.8,579z
				 M263.3,579.3c0,4.1,1.2,6.4,3.2,6.4c2.2,0,3.2-2.5,3.2-6.5c0-3.8-1-6.4-3.2-6.4C264.7,572.8,263.3,575,263.3,579.3z"/>
		</g>
	</g>
	<g id="h_15">
		<g>
			<g>
				<line fill="none" stroke="#999999" stroke-width="2" stroke-miterlimit="10" x1="501" y1="578" x2="601" y2="578"/>
				<line fill="none" stroke="#999999" stroke-width="2" stroke-miterlimit="10" x1="641" y1="578" x2="741" y2="578"/>
				<g>
					<rect x="500" y="570" fill="#999999" width="2" height="16"/>
				</g>
				<g>
					<rect x="740" y="570" fill="#999999" width="2" height="16"/>
				</g>
			</g>
		</g>
		<g>
			<path d="M613.7,573.4L613.7,573.4l-2.8,1.5l-0.4-1.6l3.4-1.8h1.8V587h-2V573.4z"/>
			<path d="M630.7,573.2h-6l-0.6,4c0.4,0,0.7-0.1,1.3-0.1c1.2,0,2.4,0.3,3.4,0.8c1.2,0.7,2.2,2,2.2,4c0,3-2.4,5.3-5.8,5.3
				c-1.7,0-3.1-0.5-3.9-1l0.5-1.6c0.6,0.4,1.9,0.9,3.3,0.9c2,0,3.7-1.3,3.7-3.4c0-2-1.4-3.5-4.5-3.5c-0.9,0-1.6,0.1-2.2,0.2l1-7.5
				h7.5V573.2z"/>
		</g>
	</g>
</g>
<g id="ruler_above">
	<g id="h5">
		<g>
			<g>
				<line fill="none" stroke="#999999" stroke-width="2" stroke-miterlimit="10" x1="661" y1="58" x2="691" y2="58"/>
				<line fill="none" stroke="#999999" stroke-width="2" stroke-miterlimit="10" x1="711" y1="58" x2="741" y2="58"/>
				<g>
					<rect x="660" y="50" fill="#999999" width="2" height="16"/>
				</g>
				<g>
					<rect x="740" y="50" fill="#999999" width="2" height="16"/>
				</g>
			</g>
		</g>
		<g>
			<rect x="695" y="46.5" fill="none" width="13.9" height="30.4"/>
			<path d="M705.4,52.8h-6l-0.6,4c0.4,0,0.7-0.1,1.3-0.1c1.2,0,2.4,0.3,3.4,0.8c1.2,0.7,2.2,2,2.2,4c0,3-2.4,5.3-5.8,5.3
				c-1.7,0-3.1-0.5-3.9-1l0.5-1.6c0.6,0.4,1.9,0.9,3.3,0.9c2,0,3.7-1.3,3.7-3.4c0-2-1.4-3.5-4.5-3.5c-0.9,0-1.6,0.1-2.2,0.2l1-7.5
				h7.5V52.8z"/>
		</g>
		<g>
		</g>
	</g>
	<g id="h9">
		<g>
			<g>
				<line fill="none" stroke="#999999" stroke-width="2" stroke-miterlimit="10" x1="517" y1="58" x2="579" y2="58"/>
				<line fill="none" stroke="#999999" stroke-width="2" stroke-miterlimit="10" x1="599" y1="58" x2="661" y2="58"/>
				<g>
					<rect x="516" y="50" fill="#999999" width="2" height="16"/>
				</g>
				<g>
					<rect x="660" y="50" fill="#999999" width="2" height="16"/>
				</g>
			</g>
		</g>
		<g>
			<path d="M584.3,65.5c0.5,0,1,0,1.7-0.1c1.2-0.2,2.4-0.7,3.3-1.5c1-0.9,1.8-2.3,2.1-4.2h-0.1c-0.9,1.1-2.1,1.7-3.7,1.7
				c-2.8,0-4.6-2.1-4.6-4.8c0-3,2.1-5.5,5.3-5.5s5.2,2.6,5.2,6.6c0,3.4-1.2,5.8-2.7,7.3c-1.2,1.2-2.9,1.9-4.5,2.1
				c-0.8,0.1-1.4,0.1-1.9,0.1V65.5z M585.1,56.5c0,1.9,1.2,3.3,3,3.3c1.4,0,2.5-0.7,3.1-1.6c0.1-0.2,0.2-0.4,0.2-0.8
				c0-2.7-1-4.7-3.2-4.7C586.4,52.7,585.1,54.3,585.1,56.5z"/>
		</g>
	</g>
</g>
<g id="ruler_4-tone" display="none">
	<g display="inline">
		<path fill="#1197CC" d="M840.3,319.3c-0.7,0.6-1.5,1.2-2.3,1.7c-0.2,0.1-0.3,0.2-0.4,0.2c-0.1,0-0.2-0.2-0.4-0.5
			c-0.2-0.4-0.4-0.7-0.7-1c-0.2,0.5-0.4,0.9-0.6,1.4c1.3,1.7,1.5,2.7,1.5,4.1c0,1.6-0.7,2.4-2.5,2.7c-0.6,0.1-0.6,0.1-0.7-0.6
			c-0.1-0.6-0.2-0.9-0.4-1.2c1.2,0.1,1.7-0.2,1.7-1.4c0-0.9-0.5-2-1.6-3.5c0.8-1.6,1.1-2.8,1.6-4.3h-1.9v11.4c0,2.8,0,4.2,0,4.3
			c0,0.2,0,0.2-0.2,0.2h-1.6c-0.2,0-0.2,0-0.2-0.2c0-0.1,0-1.5,0-4.3v-8.7c0-2.8,0-4.2,0-4.4c0-0.2,0-0.2,0.2-0.2c0.1,0,0.6,0,1.6,0
			h2.6c0.2,0,0.3,0,0.4-0.1c0.1,0,0.2-0.1,0.3-0.1c0.2,0,0.3,0.1,0.8,0.7c0.4,0.5,0.5,0.6,0.5,0.8c0,0.2-0.1,0.2-0.2,0.3
			c-0.2,0.2-0.3,0.4-0.4,0.6c-0.3,0.8-0.6,1.5-0.8,2.2c2-1.1,3.4-2.3,4.9-4.2c0.2-0.3,0.4-0.6,0.5-1c0.6,0.1,1.3,0.2,1.9,0.4
			c0.2,0.1,0.2,0.1,0.2,0.2c0,0.1,0,0.2-0.2,0.3l-0.2,0.1c1.6,1.8,3.4,3,5.8,3.9c-0.2,0.3-0.5,0.7-0.7,1.2c-0.1,0.4-0.2,0.5-0.4,0.5
			c-0.1,0-0.2-0.1-0.5-0.2c-0.9-0.5-1.8-1-2.6-1.6v0.9c0,0.2,0,0.2-0.2,0.2c-0.1,0-0.4,0-1.6,0h-1.5c-1.1,0-1.5,0-1.6,0
			c-0.2,0-0.2,0-0.2-0.2V319.3z M839.9,328.5c-1.7,0-2.4,0-2.5,0c-0.2,0-0.2,0-0.2-0.2v-1.2c0-0.2,0-0.2,0.2-0.2c0.1,0,0.8,0,2.5,0
			h6.2c1.9,0,2.6,0,2.7,0c0.2,0,0.2,0,0.2,0.2v1.2c0,0.2,0,0.2-0.2,0.2c-0.1,0-0.8,0-2.7,0h-0.3c1.1,1,1.8,1.9,2.6,3.1
			c0.1,0.2,0.1,0.3-0.1,0.4l-1.2,0.7c-0.1,0.1-0.2,0.1-0.2,0.1c-0.1,0-0.1,0-0.1-0.1c-0.2-0.4-0.4-0.7-0.7-1.1
			c-2.4,0.3-5,0.5-7.5,0.7c-0.5,0-0.7,0.1-0.9,0.2c-0.1,0-0.2,0.1-0.3,0.1s-0.2-0.1-0.3-0.3c-0.2-0.5-0.3-1.1-0.4-1.7
			c0.9,0,1.6,0,2.3,0c0.5-0.8,0.8-1.4,1.1-2H839.9z M841,325.9c-1.8,0-2.4,0-2.5,0c-0.2,0-0.2,0-0.2-0.2v-1.2c0-0.2,0-0.2,0.2-0.2
			c0.1,0,0.7,0,2.5,0h2.1c0.4-0.5,0.7-0.9,1.1-1.5h-3c-1.6,0-2.2,0-2.3,0c-0.2,0-0.2,0-0.2-0.2v-1.2c0-0.2,0-0.2,0.2-0.2
			c0.1,0,0.7,0,2.3,0h4c0.2,0,0.3,0,0.3-0.1s0.1-0.1,0.2-0.1c0.2,0,0.3,0.1,0.8,0.5c0.5,0.4,0.5,0.6,0.5,0.7s-0.1,0.2-0.2,0.3
			c-0.2,0.1-0.3,0.2-0.6,0.6c-0.3,0.4-0.6,0.8-0.8,1.1c1.7,0,2.3,0,2.4,0c0.2,0,0.2,0,0.2,0.2v1.2c0,0.2,0,0.2-0.2,0.2
			c-0.1,0-0.7,0-2.5,0H841z M843.6,318.8c0.7,0,1.1,0,1.3,0c-0.8-0.6-1.5-1.3-2.2-2.1c-0.6,0.8-1.2,1.5-1.9,2.1c0.2,0,0.6,0,1.3,0
			H843.6z M842.1,328.5c-0.3,0.7-0.6,1.3-1,1.9c1.3-0.1,2.6-0.1,3.8-0.3l-0.7-0.8c-0.1-0.2-0.1-0.2,0.1-0.4l1-0.5H842.1z"/>
		<path fill="#1197CC" d="M836,335.1c0.2,0,0.3,0,0.4-0.1c0.1,0,0.2-0.1,0.3-0.1c0.2,0,0.3,0,0.8,0.6c0.4,0.5,0.5,0.6,0.5,0.8
			c0,0.2-0.1,0.2-0.2,0.4c-0.2,0.2-0.3,0.4-0.4,0.6c-0.5,1.4-0.8,2.1-1.5,3.5c1.2,1.2,1.5,2.8,1.5,4c0,1.5-0.7,2.4-2.4,2.7
			c-0.6,0.1-0.6,0.1-0.7-0.6c-0.1-0.6-0.2-0.9-0.4-1.2c1.2,0.1,1.6-0.3,1.6-1.4c0-0.9-0.4-2-1.6-3.4c0.8-1.6,1.1-2.5,1.6-4h-1.9
			v11.4c0,2.8,0,4.2,0,4.3c0,0.2,0,0.2-0.2,0.2h-1.6c-0.2,0-0.2,0-0.2-0.2c0-0.1,0-1.5,0-4.3v-8.7c0-2.8,0-4.2,0-4.4
			c0-0.2,0-0.2,0.2-0.2c0.1,0,0.6,0,1.6,0H836z M843.1,346.6c-1.1,1.9-2.5,3.2-4.3,4.3c-0.2,0.1-0.3,0.2-0.4,0.2
			c-0.1,0-0.2-0.1-0.5-0.4c-0.2-0.2-0.7-0.5-1-0.6c1.9-0.9,3.3-2,4.3-3.5H840c-0.7,0.8-1.5,1.4-2.3,2c-0.2,0.1-0.4,0.2-0.5,0.2
			c-0.1,0-0.3-0.1-0.5-0.4c-0.2-0.3-0.7-0.6-1-0.7c1.4-0.7,2.5-1.6,3.5-2.9c0.2-0.3,0.3-0.6,0.5-0.9c-1.3,0-1.7,0-1.8,0
			c-0.2,0-0.2,0-0.2-0.2v-1.3c0-0.2,0-0.2,0.2-0.2c0.1,0,0.8,0,2.7,0h5.6c1.9,0,2.6,0,2.7,0c0.2,0,0.2,0,0.2,0.2v1.3
			c0,0.2,0,0.2-0.2,0.2c-0.1,0-0.8,0-2.7,0h-5.4l0.6,0.2c0.3,0.1,0.3,0.2,0.3,0.3c0,0.1,0,0.2-0.1,0.2c-0.1,0.1-0.2,0.2-0.3,0.3h4.7
			c1.6,0,2.2,0,2.3,0c0.2,0,0.3,0,0.3,0.2c-0.1,0.6-0.1,1.3-0.1,1.9c-0.1,1.9-0.3,3.1-0.5,4c-0.3,1.1-0.9,1.5-2.1,1.5
			c-0.4,0-0.6,0-0.9,0c-0.5,0-0.5,0-0.6-0.7c-0.1-0.5-0.3-1-0.5-1.3c0.7,0.1,0.9,0.1,1.4,0.1c0.5,0,0.7-0.2,0.9-0.6
			c0.2-0.5,0.3-1.3,0.4-3.4h-0.6c-1,2.5-2.3,4.4-4.7,5.8c-0.2,0.1-0.4,0.2-0.5,0.2c-0.1,0-0.2-0.1-0.5-0.4c-0.2-0.2-0.7-0.5-0.9-0.7
			c2.2-1.1,3.7-2.7,4.7-5H843.1z M844.9,335.2c1.6,0,2.2,0,2.3,0c0.2,0,0.2,0,0.2,0.2c0,0.1,0,0.6,0,1.7v2.4c0,1.1,0,1.6,0,1.7
			c0,0.2,0,0.2-0.2,0.2c-0.1,0-0.7,0-2.3,0h-3.5c-1.6,0-2.2,0-2.3,0c-0.2,0-0.2,0-0.2-0.2c0-0.1,0-0.6,0-1.7V337c0-1.1,0-1.6,0-1.7
			c0-0.2,0-0.2,0.2-0.2c0.1,0,0.7,0,2.3,0H844.9z M840.7,337.6h4.8v-0.9h-4.8V337.6z M845.5,339h-4.8v0.9h4.8V339z"/>
		<path fill="#1197CC" d="M834,371.7c-1.8,0-2.4,0-2.5,0c-0.2,0-0.2,0-0.2-0.2v-1.8c0-0.2,0-0.2,0.2-0.2c0.1,0,0.7,0,2.5,0h4.2
			v-11.3c0-1.6,0-2.4-0.2-3.3c0.8,0,1.7,0.1,2.3,0.1c0.2,0,0.4,0.1,0.4,0.3c0,0.2-0.1,0.3-0.1,0.5c-0.1,0.2-0.1,0.7-0.1,1.9v3.2h3.9
			c1.7,0,2.3,0,2.5,0c0.2,0,0.2,0,0.2,0.2v1.8c0,0.2,0,0.2-0.2,0.2c-0.1,0-0.7,0-2.5,0h-3.9v6.5h5.5c1.8,0,2.4,0,2.5,0
			c0.2,0,0.2,0,0.2,0.2v1.8c0,0.2,0,0.2-0.2,0.2c-0.1,0-0.7,0-2.5,0H834z"/>
		<path fill="#1197CC" d="M843.6,386c0.2-0.1,0.3-0.1,0.4,0c1.5,1.6,2.9,3.3,3.9,5.2c0.1,0.2,0.1,0.2-0.2,0.4l-1.3,0.8
			c-0.1,0.1-0.2,0.1-0.3,0.1c-0.1,0-0.1,0-0.2-0.1c-0.3-0.6-0.6-1.2-1-1.7c-3.3,0.6-7.1,1-10.7,1.3c-0.7,0.1-1,0.1-1.2,0.2
			c-0.1,0.1-0.2,0.1-0.3,0.1c-0.1,0-0.3-0.1-0.3-0.3c-0.2-0.6-0.3-1.3-0.4-2c0.9,0,1.5,0,2.1,0l0.8,0c1-1.7,1.8-3.3,2.5-5.1h-3.6
			c-1.8,0-2.4,0-2.5,0c-0.2,0-0.2,0-0.2-0.2v-1.5c0-0.2,0-0.2,0.2-0.2c0.1,0,0.7,0,2.5,0h4.8v-2.9H836c-2,0-2.6,0-2.8,0
			c-0.2,0-0.2,0-0.2-0.2v-1.5c0-0.2,0-0.2,0.2-0.2c0.1,0,0.8,0,2.8,0h2.8v-0.9c0-1.3,0-1.8-0.2-2.5c0.8,0,1.5,0,2.2,0.1
			c0.2,0,0.3,0.1,0.3,0.2c0,0.2,0,0.3-0.1,0.4c-0.1,0.2-0.1,0.7-0.1,1.6v1h3.1c2,0,2.6,0,2.8,0c0.2,0,0.2,0,0.2,0.2v1.5
			c0,0.2,0,0.2-0.2,0.2c-0.1,0-0.8,0-2.8,0h-3.1v2.9h5.1c1.8,0,2.4,0,2.5,0c0.2,0,0.2,0,0.2,0.2v1.5c0,0.2,0,0.2-0.2,0.2
			c-0.1,0-0.7,0-2.5,0h-6.2c-0.7,1.8-1.5,3.4-2.4,4.9c2.3-0.2,4.6-0.5,6.5-0.7c-0.5-0.7-1.1-1.3-1.7-2c-0.2-0.2-0.1-0.2,0.1-0.3
			L843.6,386z"/>
	</g>
	<g id="v9_1_" display="inline">
		<g>
			<g>
				<line fill="none" stroke="#1197CC" stroke-width="2" stroke-miterlimit="10" x1="840" y1="224" x2="840" y2="249"/>
				<line fill="none" stroke="#1197CC" stroke-width="2" stroke-miterlimit="10" x1="840" y1="279" x2="840" y2="304"/>
				<g>
					<rect x="832" y="223" fill="#1197CC" width="16" height="2"/>
				</g>
				<g>
					<rect x="832" y="303" fill="#1197CC" width="16" height="2"/>
				</g>
			</g>
		</g>
		<g>
			<path d="M844.2,257.4h-6l-0.6,4c0.4,0,0.7-0.1,1.3-0.1c1.2,0,2.4,0.3,3.4,0.8c1.2,0.7,2.2,2,2.2,4c0,3-2.4,5.3-5.8,5.3
				c-1.7,0-3.1-0.5-3.9-1l0.5-1.6c0.6,0.4,1.9,0.9,3.3,0.9c2,0,3.7-1.3,3.7-3.4c0-2-1.4-3.5-4.5-3.5c-0.9,0-1.6,0.1-2.2,0.2l1-7.5
				h7.5V257.4z"/>
		</g>
	</g>
	<g id="v9" display="inline">
		<g>
			<g>
				<line fill="none" stroke="#1197CC" stroke-width="2" stroke-miterlimit="10" x1="840" y1="80" x2="840" y2="137"/>
				<line fill="none" stroke="#1197CC" stroke-width="2" stroke-miterlimit="10" x1="840" y1="167" x2="840" y2="224"/>
				<g>
					<rect x="832" y="79" fill="#1197CC" width="16" height="2"/>
				</g>
				<g>
					<rect x="832" y="223" fill="#1197CC" width="16" height="2"/>
				</g>
			</g>
		</g>
		<g>
			<path d="M836.1,157.8c0.5,0,1,0,1.7-0.1c1.2-0.2,2.4-0.7,3.3-1.5c1-0.9,1.8-2.3,2.1-4.2h-0.1c-0.9,1.1-2.1,1.7-3.7,1.7
				c-2.8,0-4.6-2.1-4.6-4.8c0-3,2.1-5.5,5.3-5.5s5.2,2.6,5.2,6.6c0,3.4-1.2,5.8-2.7,7.3c-1.2,1.2-2.9,1.9-4.5,2.1
				c-0.8,0.1-1.4,0.1-1.9,0.1V157.8z M836.9,148.8c0,1.9,1.2,3.3,3,3.3c1.4,0,2.5-0.7,3.1-1.6c0.1-0.2,0.2-0.4,0.2-0.8
				c0-2.7-1-4.7-3.2-4.7C838.2,145,836.9,146.6,836.9,148.8z"/>
		</g>
	</g>
</g>
<g id="ruler_symbol">
	<g>
		<path fill="#66CC66" d="M759.6,167.8c0.2-0.2,0.2-0.2,0.4-0.1c1,0.5,1.9,1.2,2.8,2c0.1,0.1,0.1,0.1,0.1,0.2c0,0.1,0,0.1-0.1,0.2
			l-0.9,1.3c-0.1,0.1-0.1,0.1-0.2,0.1c0,0-0.1,0-0.2-0.1c-0.9-0.8-1.8-1.6-2.8-2.2c-0.1-0.1-0.1-0.1-0.1-0.1c0-0.1,0-0.1,0.1-0.2
			L759.6,167.8z M759.7,177.6c0.6-1.1,1.3-2.7,2-4.6c0.3,0.3,0.7,0.7,1.1,1c0.3,0.2,0.4,0.3,0.4,0.5c0,0.1,0,0.2-0.1,0.5
			c-0.6,1.6-1.3,3.1-1.9,4.4c-0.2,0.3-0.3,0.6-0.3,0.8c0,0.2-0.1,0.3-0.3,0.3c-0.1,0-0.2,0-0.4-0.1c-0.5-0.3-1-0.6-1.5-1.1
			C759.1,178.6,759.4,178.2,759.7,177.6z M760.5,162.8c0.2-0.2,0.2-0.2,0.4-0.1c1,0.6,2,1.3,2.9,2.1c0.1,0.1,0.1,0.1,0.1,0.2
			s0,0.1-0.1,0.2l-0.9,1.2c-0.2,0.2-0.2,0.2-0.3,0.1c-0.9-0.8-2-1.7-2.9-2.3c-0.1-0.1-0.1-0.1-0.1-0.1c0-0.1,0-0.1,0.1-0.2
			L760.5,162.8z M766.2,179.8c-2,0-2.7,0-2.8,0c-0.2,0-0.2,0-0.2-0.2v-1.5c0-0.2,0-0.2,0.2-0.2c0.1,0,0.8,0,2.8,0h2.5v-4.3h-1.3
			c-1.9,0-2.5,0-2.6,0c-0.2,0-0.2,0-0.2-0.2v-1.5c0-0.2,0-0.2,0.2-0.2c0.1,0,0.8,0,2.6,0h1.3v-3.5H767c-1.9,0-2.6,0-2.7,0
			c-0.2,0-0.2,0-0.2-0.2v-1.5c0-0.2,0-0.2,0.2-0.2c0.1,0,0.8,0,2.7,0h6.1c1.9,0,2.6,0,2.7,0c0.2,0,0.2,0,0.2,0.2v1.5
			c0,0.2,0,0.2-0.2,0.2c-0.1,0-0.8,0-2.7,0h-2.2v3.5h1.7c1.9,0,2.5,0,2.6,0c0.2,0,0.2,0,0.2,0.2v1.5c0,0.2,0,0.2-0.2,0.2
			c-0.1,0-0.7,0-2.6,0h-1.7v4.3h2.8c2,0,2.6,0,2.8,0c0.2,0,0.2,0,0.2,0.2v1.5c0,0.2,0,0.2-0.2,0.2c-0.1,0-0.8,0-2.8,0H766.2z
			 M768.2,162.5c0.2-0.2,0.2-0.2,0.4-0.1c1,0.4,2.4,1.3,3.4,2.1c0.1,0.1,0.1,0.1,0.1,0.2s0,0.1-0.2,0.2l-1,1.2
			c-0.2,0.2-0.2,0.2-0.4,0.1c-0.9-0.9-2.3-1.7-3.4-2.2c-0.2-0.1-0.2-0.1,0-0.3L768.2,162.5z"/>
		<path fill="#66CC66" d="M761.4,190.6c-1.8,0-2.4,0-2.5,0c-0.2,0-0.2,0-0.2-0.2V189c0-0.2,0-0.2,0.2-0.2c0.1,0,0.7,0,2.5,0h2.2
			c-0.2-0.8-0.4-1.3-0.8-2c-0.1-0.2,0-0.2,0.2-0.3l1.4-0.4c0.2-0.1,0.3,0,0.4,0.2c0.4,0.7,0.6,1.4,1,2.4h3.4
			c0.3-0.7,0.5-1.1,0.7-1.7c0.1-0.3,0.2-0.6,0.2-1c0.7,0.1,1.3,0.3,1.9,0.5c0.2,0.1,0.3,0.1,0.3,0.2s-0.1,0.2-0.2,0.3
			c-0.1,0.1-0.2,0.3-0.3,0.5l-0.5,1.2h2.7c1.8,0,2.4,0,2.5,0c0.2,0,0.2,0,0.2,0.2v1.4c0,0.2,0,0.2-0.2,0.2c-0.1,0-0.7,0-2.5,0H761.4
			z M762.7,186c-1.9,0-2.6,0-2.7,0c-0.2,0-0.2,0-0.2-0.2v-1.4c0-0.2,0-0.2,0.2-0.2c0.1,0,0.8,0,2.7,0h3.7v0c0-0.8,0-1.3-0.1-1.8
			c0.7,0,1.4,0,2.2,0.1c0.2,0,0.3,0.1,0.3,0.2c0,0.1-0.1,0.2-0.1,0.4c-0.1,0.2-0.1,0.4-0.1,1.1v0h3.9c1.9,0,2.6,0,2.7,0
			c0.2,0,0.2,0,0.2,0.2v1.4c0,0.2,0,0.2-0.2,0.2c-0.1,0-0.7,0-2.6,0H762.7z M761.9,200.7c-0.2,0-0.2,0-0.2-0.2c0-0.1,0-0.7,0-3.8
			v-1.9c0-2,0-2.5,0-2.7c0-0.2,0-0.2,0.2-0.2c0.1,0,0.8,0,2.7,0h6.1c1.9,0,2.6,0,2.7,0c0.2,0,0.2,0,0.2,0.2c0,0.1,0,0.7,0,2.4v2.2
			c0,3.1,0,3.7,0,3.8c0,0.2,0,0.2-0.2,0.2h-1.6c-0.2,0-0.2,0-0.2-0.2v-0.7h-7.8v0.8c0,0.2,0,0.2-0.2,0.2H761.9z M763.7,194.9h7.8
			v-1.3h-7.8V194.9z M771.5,198v-1.5h-7.8v1.5H771.5z"/>
		<path fill="#66CC66" d="M761.3,215.6c0-0.7,0-1.5,0-2.3c-0.5,0.5-0.9,1-1.4,1.4c-0.2,0.2-0.3,0.3-0.4,0.3c-0.1,0-0.2-0.1-0.4-0.5
			c-0.3-0.5-0.5-0.9-0.8-1.3c1.8-1.3,2.9-2.7,3.8-4.2c0.3-0.5,0.6-1.1,0.7-1.5c0.3,0.1,0.6,0.2,0.8,0.3c-0.2-0.7-0.5-1.4-0.8-2h-1.1
			c-0.5,0.7-1.1,1.4-1.7,2.1c-0.2,0.2-0.3,0.3-0.4,0.3c-0.1,0-0.2-0.1-0.4-0.4c-0.3-0.4-0.6-0.7-1-0.9c1.2-1,2.1-2.3,2.7-3.5
			c0.2-0.4,0.3-0.7,0.4-1.2c0.7,0.1,1.3,0.2,1.9,0.4c0.2,0,0.3,0.1,0.3,0.3c0,0.1-0.1,0.2-0.2,0.3c-0.1,0.1-0.2,0.2-0.3,0.5
			l-0.2,0.5h2c1.7,0,2.2,0,2.4,0c0.2,0,0.2,0,0.2,0.2v1.3c0,0.2,0,0.2-0.2,0.2c-0.1,0-0.7,0-2.2,0c0.3,0.5,0.5,1,0.8,1.5
			c0.1,0.2,0.1,0.3-0.2,0.3L764,208l0.5,0.3c0.2,0.1,0.3,0.2,0.3,0.3c0,0.1,0,0.2-0.2,0.3c-0.1,0.1-0.3,0.3-0.5,0.7
			c-0.2,0.4-0.5,0.8-0.8,1.2v7.3c0,1.5,0,2.3,0,2.4c0,0.2,0,0.2-0.2,0.2h-1.6c-0.2,0-0.2,0-0.2-0.2c0-0.1,0-0.8,0-2.4V215.6z
			 M767.3,212.1c-1.9,0-2.6,0-2.7,0c-0.2,0-0.2,0-0.2-0.2v-1.5c0-0.2,0-0.2,0.2-0.2c0.1,0,0.8,0,2.7,0h4.4c0-0.9,0-1.5-0.2-2.3
			c0.8,0,1.4,0.1,2.1,0.2c0.2,0,0.3,0.1,0.3,0.2c0,0.2-0.1,0.3-0.1,0.4c-0.1,0.2-0.1,0.6-0.1,1.5c1.9,0,2.6,0,2.7,0
			c0.2,0,0.2,0,0.2,0.2v1.5c0,0.2,0,0.2-0.2,0.2c-0.1,0-0.8,0-2.7,0v2.5c0,1.4,0.1,2.4,0.1,3.6c0,0.9-0.1,1.5-0.7,1.9
			c-0.6,0.3-1.3,0.5-3,0.5c-0.6,0-0.6,0-0.8-0.6c-0.1-0.6-0.4-1.2-0.6-1.6c0.8,0.1,1.3,0.1,2,0.1c0.9,0,1-0.1,1-0.6v-5.7H767.3z
			 M766.6,213c0.1-0.1,0.2-0.1,0.2-0.1c0.1,0,0.1,0,0.2,0.1c0.9,0.9,1.6,1.7,2.4,2.9c0.1,0.2,0.1,0.2-0.1,0.4l-1.1,0.8
			c-0.1,0.1-0.2,0.1-0.3,0.1c-0.1,0-0.1,0-0.2-0.1c-0.7-1.1-1.4-2.1-2.3-3c-0.2-0.2-0.1-0.2,0.1-0.4L766.6,213z M769.8,205.9
			c-0.4,0.7-0.8,1.3-1.4,1.9c-0.2,0.2-0.3,0.3-0.4,0.3c-0.1,0-0.2-0.1-0.4-0.4c-0.3-0.4-0.7-0.7-1-0.9c1.1-1.1,1.9-2.3,2.4-3.5
			c0.1-0.3,0.2-0.7,0.3-1.1c0.6,0.1,1.4,0.2,1.8,0.3c0.2,0.1,0.3,0.1,0.3,0.3c0,0.1-0.1,0.2-0.2,0.3c-0.1,0.1-0.2,0.2-0.3,0.6
			c-0.1,0.1-0.1,0.3-0.2,0.4h2.9c1.9,0,2.5,0,2.7,0c0.2,0,0.2,0,0.2,0.2v1.3c0,0.2,0,0.2-0.2,0.2c-0.1,0-0.8,0-2.7,0h-0.5
			c0.3,0.4,0.5,0.8,0.7,1.3c0.1,0.2,0,0.3-0.2,0.3l-1.3,0.2c-0.3,0-0.3,0.1-0.4-0.2c-0.2-0.6-0.5-1.1-0.8-1.7H769.8z"/>
		<path fill="#66CC66" d="M762.2,231.8c-0.1,0.5-0.3,1-0.4,1.6h1.6c0.7,0,1.2,0,1.4,0c0.2,0,0.2,0,0.2,0.3c-0.1,0.4-0.1,0.9-0.1,1.3
			c-0.2,2.5-0.4,3.8-0.8,4.7c-0.3,0.6-0.8,0.9-1.8,0.9c-0.3,0-0.6,0-0.9,0c-0.5,0-0.5-0.1-0.6-0.6c-0.1-0.6-0.2-1.1-0.4-1.4
			c0.6,0.1,1,0.2,1.4,0.2c0.4,0,0.6-0.1,0.8-0.4c0.3-0.6,0.4-1.6,0.4-3.1h-1.8c-0.1,0.3-0.2,0.5-0.3,0.7c-0.1,0.2-0.1,0.2-0.4,0.2
			l-1.3-0.2c-0.2,0-0.3-0.1-0.2-0.3c0.5-1.2,0.9-2.5,1.2-3.7c-1.1,0-1.5,0-1.6,0c-0.2,0-0.2,0-0.2-0.2v-1.4c0-0.2,0-0.2,0.2-0.2
			c0.1,0,0.6,0,2.1,0h2.6c1.5,0,2,0,2.1,0c0.2,0,0.2,0,0.2,0.2v1.4c0,0.2,0,0.2-0.2,0.2c-0.1,0-0.6,0-2.1,0H762.2z M763.1,223.1
			c1.3,0,1.7,0,1.8,0c0.2,0,0.2,0,0.2,0.2c0,0.1,0,0.6,0,1.6v2c0,1.1,0,1.5,0,1.6c0,0.2,0,0.2-0.2,0.2c-0.1,0-0.5,0-1.8,0h-1.8
			c-1.2,0-1.6,0-1.8,0c-0.2,0-0.2,0-0.2-0.2c0-0.1,0-0.5,0-1.6v-2c0-1,0-1.5,0-1.6c0-0.2,0-0.2,0.2-0.2c0.1,0,0.5,0,1.8,0H763.1z
			 M763.3,224.8h-2.2v2.2h2.2V224.8z M769.8,231.2c-1.1,0.1-1.5,0.1-1.7,0.2c0,1.4-0.1,2.6-0.2,3.9c-0.2,1.7-0.7,3.4-1.6,4.9
			c-0.1,0.2-0.2,0.3-0.4,0.3c-0.1,0-0.2-0.1-0.4-0.3c-0.4-0.4-0.7-0.7-1.1-0.9c1.1-1.3,1.5-2.8,1.7-4.5c0.2-1.4,0.2-3.1,0.2-5.3
			c0-1.9,0-2.8,0-2.9c0-0.2,0-0.2,0.2-0.2c0.1,0,0.9,0,2.5,0h0.8v-2.3c0-0.6,0-1.1-0.1-1.6c0.8,0,1.2,0.1,2,0.1
			c0.2,0,0.3,0.1,0.3,0.2c0,0.1-0.1,0.2-0.1,0.3c-0.1,0.1-0.1,0.3-0.1,0.7h1.7c1.3,0,1.7,0,1.8,0c0.2,0,0.2,0,0.2,0.2v1.2
			c0,0.2,0,0.2-0.2,0.2c-0.1,0-0.5,0-1.8,0h-1.7v1h3c0.2,0,0.3,0,0.4-0.1c0.1,0,0.2-0.1,0.3-0.1c0.2,0,0.3,0.1,0.8,0.4
			c0.5,0.3,0.6,0.5,0.6,0.6c0,0.2-0.1,0.3-0.2,0.4c-0.1,0.1-0.1,0.2-0.3,0.5c-0.2,0.4-0.4,1-0.9,1.7c-0.1,0.2-0.2,0.3-0.3,0.3
			c-0.1,0-0.2-0.1-0.4-0.2c-0.4-0.2-0.7-0.3-1-0.4l0.1,1.3c0,0.2-0.1,0.2-0.2,0.2c-0.2,0-0.5,0-1.7,0.1l-0.6,0.1v0.2
			c0,0.4,0.1,0.5,0.2,0.6c0.2,0.1,0.6,0.1,1.2,0.1c0.8,0,1.1,0,1.3-0.2c0.2-0.2,0.3-0.5,0.4-1.3c0.3,0.2,0.8,0.4,1.2,0.5
			c0.5,0.1,0.5,0.1,0.4,0.6c-0.1,0.8-0.3,1.2-0.7,1.5c-0.4,0.3-1.2,0.5-2.6,0.5c-1.2,0-2.1-0.1-2.5-0.3c-0.4-0.2-0.6-0.6-0.6-1.5
			V231.2z M769.4,235.6c0-0.5,0-1-0.1-1.6c0.6,0,1.3,0.1,1.8,0.2c0.2,0,0.3,0.1,0.3,0.3c0,0.1-0.1,0.3-0.1,0.4
			c-0.1,0.2-0.1,0.6-0.1,1c-0.1,2.2-0.8,3.6-2.6,4.6c-0.2,0.1-0.3,0.2-0.4,0.2c-0.1,0-0.2-0.1-0.4-0.3c-0.3-0.5-0.7-0.8-1-1
			C768.7,238.5,769.3,237.6,769.4,235.6z M769.8,229.5c0-0.5,0-1-0.1-1.3c0.5,0,1.3,0.1,1.7,0.1c0.2,0,0.3,0.1,0.3,0.2
			c0,0.1,0,0.1-0.1,0.2c-0.1,0.1-0.1,0.3-0.1,0.8v0l0.5-0.1c1.1-0.1,1.5-0.2,1.8-0.2c0.4-0.5,0.6-1,0.8-1.4h-6.5v2l1.7-0.2V229.5z
			 M774,238.1c0,0.4,0,0.5,0.1,0.6c0.1,0.1,0.2,0.1,0.4,0.1s0.4-0.1,0.6-0.3c0.2-0.3,0.2-0.7,0.2-2c0.3,0.2,0.8,0.3,1.2,0.5
			c0.4,0.1,0.4,0.2,0.4,0.6c-0.1,1.4-0.3,1.9-0.5,2.3c-0.3,0.4-0.7,0.6-2,0.6c-0.9,0-1.4,0-1.8-0.3c-0.3-0.2-0.5-0.6-0.5-1.4v-2.4
			c0-0.9,0-1.5-0.1-2.2c0.5,0,1.4,0.1,1.8,0.1c0.2,0,0.3,0.1,0.3,0.2c0,0.2-0.1,0.2-0.1,0.4c-0.1,0.2-0.1,0.4-0.1,1.1V238.1z"/>
	</g>
	<g id="v9_5_">
		<g>
			<g>
				<line fill="none" stroke="#66CC66" stroke-width="2" stroke-miterlimit="10" x1="768" y1="255" x2="768" y2="312"/>
				<line fill="none" stroke="#66CC66" stroke-width="2" stroke-miterlimit="10" x1="768" y1="342" x2="768" y2="399"/>
				<g>
					<rect x="760" y="254" fill="#66CC66" width="16" height="2"/>
				</g>
				<g>
					<rect x="760" y="398" fill="#66CC66" width="16" height="2"/>
				</g>
			</g>
		</g>
		<g>
			<path d="M764.1,332.8c0.5,0,1,0,1.7-0.1c1.2-0.2,2.4-0.7,3.3-1.5c1-0.9,1.8-2.3,2.1-4.2h-0.1c-0.9,1.1-2.1,1.7-3.7,1.7
				c-2.8,0-4.6-2.1-4.6-4.8c0-3,2.1-5.5,5.3-5.5s5.2,2.6,5.2,6.6c0,3.4-1.2,5.8-2.7,7.3c-1.2,1.2-2.9,1.9-4.5,2.1
				c-0.8,0.1-1.4,0.1-1.9,0.1V332.8z M764.9,323.8c0,1.9,1.2,3.3,3,3.3c1.4,0,2.5-0.7,3.1-1.6c0.1-0.2,0.2-0.4,0.2-0.8
				c0-2.7-1-4.7-3.2-4.7C766.2,320,764.9,321.6,764.9,323.8z"/>
		</g>
	</g>
	<g id="v9_6_">
		<g>
			<g>
				<line fill="none" stroke="#66CC66" stroke-width="2" stroke-miterlimit="10" x1="768" y1="399" x2="768" y2="464"/>
				<line fill="none" stroke="#66CC66" stroke-width="2" stroke-miterlimit="10" x1="768" y1="494" x2="768" y2="559"/>
				<g>
					<rect x="760" y="398" fill="#66CC66" width="16" height="2"/>
				</g>
				<g>
					<rect x="760" y="558" fill="#66CC66" width="16" height="2"/>
				</g>
			</g>
		</g>
		<g>
			<path d="M760.5,471.9L760.5,471.9l-3.1,1.6l-0.5-1.8l3.8-2h2V487h-2.3V471.9z"/>
			<path d="M780.6,478.2c0,5.9-2.2,9.1-6,9.1c-3.4,0-5.7-3.2-5.7-8.9c0-5.8,2.5-9,6-9C778.5,469.4,780.6,472.7,780.6,478.2z
				 M771.1,478.5c0,4.5,1.4,7.1,3.5,7.1c2.4,0,3.5-2.8,3.5-7.2c0-4.3-1.1-7.1-3.5-7.1C772.6,471.2,771.1,473.7,771.1,478.5z"/>
		</g>
	</g>
</g>
<g id="ruler_5th-tone" display="none">
	<g id="v9_3_" display="inline">
		<g>
			<g>
				<line fill="none" stroke="#FF3399" stroke-width="2" stroke-miterlimit="10" x1="803" y1="208" x2="803" y2="240"/>
				<g>
					<rect x="795" y="207" fill="#FF3399" width="16" height="2"/>
				</g>
				<g>
					<rect x="795" y="239" fill="#FF3399" width="16" height="2"/>
				</g>
			</g>
		</g>
		<g>
			<path d="M786.2,231.2v-1.3l1.7-1.6c4-3.8,5.8-5.8,5.8-8.2c0-1.6-0.8-3-3.1-3c-1.4,0-2.6,0.7-3.3,1.3l-0.7-1.5
				c1.1-0.9,2.6-1.6,4.4-1.6c3.4,0,4.8,2.3,4.8,4.5c0,2.9-2.1,5.2-5.4,8.4l-1.2,1.2v0h7v1.8H786.2z"/>
		</g>
	</g>
	<g id="v9_2_" display="inline">
		<g>
			<g>
				<line fill="none" stroke="#FF3399" stroke-width="2" stroke-miterlimit="10" x1="803" y1="80" x2="803" y2="129"/>
				<line fill="none" stroke="#FF3399" stroke-width="2" stroke-miterlimit="10" x1="803" y1="159" x2="803" y2="208"/>
				<g>
					<rect x="795" y="79" fill="#FF3399" width="16" height="2"/>
				</g>
				<g>
					<rect x="795" y="207" fill="#FF3399" width="16" height="2"/>
				</g>
			</g>
		</g>
		<g>
			<path d="M798.3,146.9c0-1.7,1-3,2.8-3.7l0-0.1c-1.5-0.7-2.2-1.9-2.2-3.1c0-2.2,1.9-3.7,4.3-3.7c2.7,0,4,1.7,4,3.4
				c0,1.2-0.6,2.4-2.3,3.2v0.1c1.7,0.7,2.8,1.9,2.8,3.6c0,2.4-2.1,4-4.7,4C800.1,150.7,798.3,148.9,798.3,146.9z M805.8,146.8
				c0-1.7-1.2-2.5-3.1-3c-1.6,0.5-2.5,1.5-2.5,2.9c-0.1,1.4,1,2.6,2.8,2.6C804.7,149.3,805.8,148.3,805.8,146.8z M800.6,139.9
				c0,1.4,1,2.1,2.6,2.6c1.2-0.4,2.1-1.3,2.1-2.5c0-1.1-0.7-2.3-2.3-2.3C801.5,137.7,800.6,138.7,800.6,139.9z"/>
		</g>
	</g>
	<g display="inline">
		<path fill="#FF3399" d="M799.1,32.4c1.5,0,2.1,0,2.2,0c0.2,0,0.2,0,0.2,0.2v1.3c0,0.2,0,0.2-0.2,0.2c-0.1,0-0.6,0-2.2,0h-0.3v1.3
			h0.2c1.4,0,1.8,0,1.9,0c0.2,0,0.2,0,0.2,0.2c0,0.1,0,0.7,0,1.9v3c0,1.2,0,1.8,0,1.9c0,0.2,0,0.2-0.2,0.2c-0.1,0-0.6,0-1.9,0h-0.2
			v1.4h0.2c1.5,0,2.1,0,2.2,0c0.2,0,0.2,0,0.2,0.2v1.2c0,0.2,0,0.2-0.2,0.2c-0.1,0-0.6,0-2.2,0h-0.2c0,1.9,0,2.9,0,3
			c0,0.2,0,0.2-0.2,0.2h-1.4c-0.2,0-0.2,0-0.2-0.2c0-0.1,0-1.2,0-3h-0.7c-1.5,0-2.1,0-2.2,0c-0.2,0-0.2,0-0.2-0.2V44
			c0-0.2,0-0.2,0.2-0.2c0.1,0,0.6,0,2.2,0h0.7v-1.4h-0.3c-1.4,0-1.8,0-1.9,0c-0.2,0-0.2,0-0.2-0.2c0-0.1,0-0.7,0-1.9v-3
			c0-1.2,0-1.7,0-1.9c0-0.2,0-0.2,0.2-0.2c0.1,0,0.6,0,1.9,0h0.3v-1.3h-0.6c-1.5,0-2,0-2.2,0c-0.2,0-0.2,0-0.2-0.2v-1.3
			c0-0.2,0-0.2,0.2-0.2c0.1,0,0.6,0,2.2,0h0.6c0-0.8,0-1.4-0.1-2.1c0.8,0,1.3,0.1,1.8,0.1c0.2,0,0.3,0.1,0.3,0.2
			c0,0.1,0,0.2-0.1,0.4s-0.1,0.5-0.1,1.3v0.1H799.1z M797.2,38.3v-1.6h-1v1.6H797.2z M797.2,41.1v-1.6h-1v1.6H797.2z M798.7,36.7
			v1.6h1v-1.6H798.7z M799.7,39.5h-1v1.6h1V39.5z M803.8,48c-1.7,0-2.3,0-2.3,0c-0.2,0-0.2,0-0.2-0.2v-1.5c0-0.2,0-0.2,0.2-0.2
			c0.1,0,0.7,0,2.3,0h2v-2.7h-1.3c-1.6,0-2.1,0-2.2,0c-0.2,0-0.2,0-0.2-0.2v-1.5c0-0.2,0-0.2,0.2-0.2c0.1,0,0.6,0,2.2,0h4.8
			c1.6,0,2.1,0,2.2,0c0.2,0,0.2,0,0.2,0.2v1.5c0,0.2,0,0.2-0.2,0.2c-0.1,0-0.6,0-2.2,0h-1.5v2.7h2.1c1.7,0,2.2,0,2.3,0
			c0.2,0,0.2,0,0.2,0.2v1.5c0,0.2,0,0.2-0.2,0.2c-0.1,0-0.6,0-2.3,0H803.8z M803.8,41.3c-0.2,0.1-0.3,0.1-0.3-0.1
			c-0.5-1.3-1-2.4-1.7-3.4c-0.1-0.2-0.2-0.3-0.2-0.4c0-0.1,0.1-0.2,0.2-0.4c0.6-0.8,1.1-1.6,1.4-2.4c0.1-0.3,0.3-0.6,0.3-1
			c0.7,0.2,1.1,0.4,1.5,0.5c0.2,0.1,0.4,0.2,0.4,0.3c0,0.2-0.1,0.2-0.3,0.3c-0.1,0.1-0.2,0.4-0.4,0.6c-0.3,0.6-0.7,1.2-1.3,1.9
			c0.5,0.8,1.2,1.9,1.7,3.1c0.1,0.2,0.1,0.3-0.2,0.4L803.8,41.3z M804.5,33.1c-1.7,0-2.2,0-2.3,0c-0.2,0-0.2,0-0.2-0.2v-1.5
			c0-0.2,0-0.2,0.2-0.2c0.1,0,0.7,0,2.3,0h5.2c1.7,0,2.3,0,2.4,0c0.2,0,0.2,0,0.2,0.2v1.5c0,0.2,0,0.2-0.2,0.2c-0.1,0-0.7,0-2.4,0
			H804.5z M807.3,41.2c-0.2,0.1-0.3,0.1-0.4-0.1c-0.6-1.3-1.3-2.5-1.9-3.3c-0.1-0.2-0.2-0.3-0.2-0.4c0-0.1,0.1-0.3,0.2-0.5
			c0.6-0.8,0.9-1.4,1.4-2.3c0.1-0.3,0.3-0.6,0.3-1.1c0.6,0.2,1.1,0.4,1.5,0.5c0.2,0.1,0.4,0.2,0.4,0.3s-0.1,0.2-0.2,0.3
			c-0.2,0.1-0.3,0.3-0.5,0.7c-0.3,0.6-0.7,1.2-1.3,2c0.8,0.9,1.2,1.8,1.9,3c0.1,0.2,0.1,0.2-0.1,0.3L807.3,41.2z M810.8,41.3
			c-0.2,0.1-0.2,0.1-0.3-0.1c-0.6-1.3-1.4-2.5-2-3.4c-0.1-0.2-0.2-0.3-0.2-0.4c0-0.1,0.1-0.2,0.2-0.4c0.5-0.8,0.9-1.5,1.3-2.4
			c0.1-0.3,0.3-0.6,0.4-1.1c0.6,0.2,1.1,0.4,1.5,0.6c0.2,0.1,0.3,0.2,0.3,0.3s-0.1,0.2-0.2,0.3c-0.2,0.2-0.2,0.3-0.4,0.6
			c-0.3,0.6-0.7,1.2-1.2,2c0.7,0.8,1.4,1.7,2,3c0.1,0.2,0,0.3-0.2,0.4L810.8,41.3z"/>
		<path fill="#FF3399" d="M808.8,65.7c1.2-0.1,2.4-0.2,3.5-0.3c-0.1,0.2-0.1,0.5-0.1,0.8c-0.1,0.6-0.1,0.7-0.7,0.7l-2.7,0.2
			c0,0.9,0,1.3,0,1.4c0,0.2,0,0.2-0.2,0.2H807c-0.2,0-0.2,0-0.2-0.2c0-0.1,0-0.5,0-1.3l-3.9,0.2c-2.6,0.1-4.8,0.2-7.3,0.3
			c-0.3,0-0.6,0-0.8,0.1c-0.1,0.1-0.2,0.1-0.3,0.1c-0.1,0-0.2-0.1-0.2-0.3c-0.1-0.5-0.3-1-0.4-1.6c0.4,0,0.9,0.1,1.6,0.1
			c0.5,0,1.3,0,2,0V62h0c-1.8,0-2.4,0-2.5,0c-0.2,0-0.2,0-0.2-0.2v-1c0-0.2,0-0.2,0.1-0.2l-0.1-0.1c-0.3-0.3-0.6-0.5-0.9-0.6
			c1-0.9,1.4-1.8,1.4-3.5c0-0.4,0-0.8,0-0.9c0-0.2,0-0.2,0.2-0.2c0.1,0,0.7,0,2.2,0h2.8c1.6,0,2.1,0,2.2,0c0.2,0,0.2,0,0.2,0.2
			c0,0.1,0,0.3,0,0.9v1c0,0.7,0,0.8,0,1c0,0.2,0,0.2-0.2,0.2c-0.1,0-0.6,0-2.2,0h-3.7c-0.2,0.7-0.5,1.3-1.1,2c0.4,0,1,0,1.8,0h11.5
			c1.8,0,2.4,0,2.5,0c0.2,0,0.2,0,0.2,0.2v1c0,0.2,0,0.2-0.2,0.2c-0.1,0-0.7,0-2.5,0h-0.3V65.7z M798.3,53.4v-0.6h-1.2
			c-1.7,0-2.3,0-2.4,0c-0.2,0-0.2,0-0.2-0.2v-1c0-0.2,0-0.2,0.2-0.2c0.1,0,0.7,0,2.4,0h1.2c0-0.4,0-0.7-0.1-1.1
			c0.7,0,1.2,0.1,1.8,0.1c0.2,0,0.3,0.1,0.3,0.2c0,0.1,0,0.1-0.1,0.2c-0.1,0.1-0.1,0.3-0.1,0.6h0.9c1.7,0,2.3,0,2.4,0
			c0.2,0,0.2,0,0.2,0.2v1c0,0.2,0,0.2-0.2,0.2c-0.1,0-0.7,0-2.4,0H800v0.6h0.6c1.6,0,2.1,0,2.2,0c0.2,0,0.2,0,0.2,0.2v0
			c1.1-0.4,1.5-0.9,1.5-1.9c0-0.4,0-0.6,0-0.7c0-0.2,0-0.2,0.2-0.2c0.1,0,0.4,0,1.5,0h1.7c1.1,0,1.4,0,1.5,0c0.2,0,0.2,0,0.2,0.2
			c0,0.1,0,0.4,0,1v0.6c0,0.1,0,0.2,0.1,0.3c0.1,0.1,0.2,0.1,0.5,0.1c0.3,0,0.4,0,0.5-0.1c0.1-0.1,0.1-0.3,0.2-1.1
			c0.2,0.2,0.6,0.3,1.1,0.5c0.4,0.1,0.4,0.2,0.3,0.6c-0.1,0.9-0.3,1.1-0.6,1.3c-0.3,0.2-0.8,0.3-1.7,0.3c-0.7,0-1.2,0-1.5-0.1
			c-0.4-0.2-0.6-0.5-0.6-1v-0.9h-1.8c0,1.2-0.6,2-1.7,2.5c-0.1,0.1-0.3,0.1-0.3,0.1c-0.1,0-0.3-0.1-0.4-0.4
			c-0.2-0.3-0.4-0.5-0.7-0.7v0.7c0,0.2,0,0.2-0.2,0.2c-0.1,0-0.6,0-2.2,0h-2.9c-1.6,0-2.1,0-2.2,0c-0.2,0-0.2,0-0.2-0.2v-0.9
			c0-0.2,0-0.2,0.2-0.2c0.1,0,0.6,0,2.2,0H798.3z M797,56.8c0,0.2,0,0.4,0,0.6h1.4v-0.9H797V56.8z M806.8,62.6V62h-7.2v0.6H806.8z
			 M806.8,64.3v-0.7h-7.2v0.7H806.8z M806.8,65.3h-7.2v0.8c2.5-0.1,4.9-0.1,7.2-0.3V65.3z M801.3,56.5H800v0.9h1.4V56.5z
			 M809.5,54.9c0.2,0,0.3,0,0.4-0.1c0.1,0,0.1-0.1,0.3-0.1s0.2,0,0.7,0.4c0.5,0.4,0.6,0.5,0.6,0.7c0,0.1-0.1,0.2-0.2,0.3
			c-0.2,0.1-0.4,0.3-0.6,0.6c-0.4,0.5-0.9,1-1.4,1.4c1,0.3,2.2,0.6,3.5,0.7c-0.2,0.3-0.4,0.6-0.5,1c-0.2,0.6-0.2,0.7-0.8,0.6
			c-1.5-0.2-2.7-0.6-3.8-1.1c-1,0.5-2.2,0.9-3.6,1.2c-0.5,0.1-0.5,0.1-0.8-0.4c-0.2-0.5-0.4-0.8-0.7-1.1c1.3-0.2,2.4-0.4,3.4-0.8
			c-0.7-0.5-1.2-1.2-1.6-1.9c-0.3,0-0.5,0-0.5,0c-0.2,0-0.2,0-0.2-0.2v-1.1c0-0.2,0-0.2,0.2-0.2c0.1,0,0.6,0,2.2,0H809.5z M806,56.4
			c0.4,0.4,0.9,0.8,1.4,1.1c0.5-0.3,1-0.7,1.4-1.1H806z"/>
	</g>
</g>
<g id="grid">
	<g>
		<g id="yin_1_">
			<rect x="517" y="257.1" fill="#CCCCCC" width="144" height="144"/>
			<line fill="none" stroke="#666666" stroke-width="2" stroke-miterlimit="10" x1="517" y1="401" x2="661" y2="401"/>
			<line fill="none" stroke="#666666" stroke-width="2" stroke-miterlimit="10" x1="517" y1="257" x2="661" y2="257"/>
		</g>
		<g id="_x34_-tone_1_">
			<rect x="661" y="224.1" fill="#CCCCCC" width="80" height="80"/>
			<line fill="none" stroke="#666666" stroke-width="2" stroke-miterlimit="10" x1="661" y1="224" x2="741" y2="224"/>
			<line fill="none" stroke="#666666" stroke-width="2" stroke-miterlimit="10" x1="661" y1="304" x2="741" y2="304"/>
		</g>
		<g id="_x35_th_tone_1_">
			<rect x="517" y="209.1" fill="#CCCCCC" width="144" height="32"/>
			<line fill="none" stroke="#666666" stroke-width="2" stroke-miterlimit="10" x1="517" y1="209" x2="661" y2="209"/>
			<line fill="none" stroke="#666666" stroke-width="2" stroke-miterlimit="10" x1="517" y1="241" x2="661" y2="241"/>
		</g>
		<g id="inner_1_">
			<line fill="none" stroke="#CCCCCC" stroke-miterlimit="10" x1="180.5" y1="560" x2="180.5" y2="80"/>
			<line fill="none" stroke="#CCCCCC" stroke-miterlimit="10" x1="341.5" y1="560" x2="341.5" y2="80"/>
			<line fill="none" stroke="#CCCCCC" stroke-miterlimit="10" x1="21" y1="239.5" x2="501" y2="239.5"/>
			<line fill="none" stroke="#CCCCCC" stroke-miterlimit="10" x1="21" y1="400.5" x2="501" y2="400.5"/>
		</g>
		<g id="outer_1_">
			
				<rect id="zhuyin_1_" x="21" y="80.1" fill="none" stroke="#666666" stroke-width="2" stroke-miterlimit="10" width="720" height="480"/>
			
				<rect id="char_1_" x="21" y="80.1" fill="none" stroke="#666666" stroke-width="2" stroke-miterlimit="10" width="480" height="480"/>
			<line fill="none" stroke="#666666" stroke-width="2" stroke-miterlimit="10" x1="661" y1="560" x2="661" y2="80"/>
			<line fill="none" stroke="#666666" stroke-width="2" stroke-miterlimit="10" x1="517" y1="560" x2="517" y2="80"/>
		</g>
	</g>
</g>
<g id="character">
	<g>
		<path d="M567.6,290.2c1,1,1.5,2.4,1.7,3.9c0,1.3-1.1,3.9-3.4,7.7c-4.6,8-7.3,13.8-7.9,17.6c0,1.1,0.7,1.7,2.2,1.7
			c1,0,7.9-1.1,20.8-3.4c17.9-3.4,30.8-5.1,38.8-5.1c2.5,0,5.3,1.4,8.3,4.4c3.1,3,4.6,5.3,4.6,7.5c0,1.8-2.1,7.5-6.2,16.9
			c-4.6,10.3-10,19.4-15.9,27.3c-6.3,7.7-12.9,13.6-19.8,17.6c-1.8,1.1-2.8,1.7-3.1,1.7c-0.4,0-0.6-0.3-0.6-0.7l1-1.5
			c7.5-8.3,14.9-19.7,22.4-34.3c5.8-12.8,8.7-21.5,8.7-26.3c0-2.7-1.5-3.9-4.5-3.9c-5.5,0-15.9,1.3-31.2,3.9
			c-15.2,2.5-24.6,4.5-28.1,5.9c-1.8,0.6-3.1,0.8-3.7,0.8c-0.8,0-2.2-1.1-4.1-3.4s-2.7-4.1-2.7-5.3c0-1.1,0.7-2.5,2.1-4.4
			c2.1-2.4,3.7-4.9,4.6-7.5l5.9-13.1c1.3-3,2-4.8,2-5.6c-3.9-1.8-7.7-4.1-11.4-7c-0.7-0.4-1-0.7-1-1c0-1.1,0.7-1.7,2.1-1.8
			c8.7-0.3,19.8-1.5,33.5-3.7c13.6-2.2,22.9-4.2,27.7-6c1.7-0.6,3-0.8,3.7-0.8c1.8,0,4.5,1.3,7.9,3.9c3.4,2.5,5.1,4.4,5.1,5.6
			c0,0.7-1.3,2-3.8,3.7c-2.4,1.7-6.6,7.5-12.8,17.4c-2.4,3.5-4.1,5.3-4.8,5.3c-1.1,0-1.7-0.6-1.7-1.7c0-0.6,0.3-1.5,0.7-3
			c0.1,0,1.4-4.9,3.9-14.8c0.3-1.7,0.4-3,0.4-3.7c0-2.2-1-3.4-2.8-3.4C606.8,281.7,593.9,284.5,567.6,290.2z"/>
	</g>
	<g>
		<path d="M229.3,332.5l73.4-4.2c1.1-6.2,1.5-10.9,1.2-14.1l-1.6-13.4c0.2-1.7,0.7-3,1.6-4s2.8-1.3,5.6-1.1s5.4,0.9,7.7,1.9
			c2.3,1,5.9,2.9,10.7,5.6c4.8,2.7,8.3,5.4,10.5,8c2.3,2.6,3.2,4.5,2.9,5.7l-1.6,8.4l30.7-3.5l22.7-2.6c9.2-1.1,17-2.2,23.4-3.4
			c6.4-1.2,11-1.8,13.8-1.8c3.4,0.2,6.8,0.9,10.2,2.2c3.4,1.3,8,3.5,14.1,6.6c6,3,10.5,5.7,13.4,8c2.9,2.3,4.3,4.6,4.1,6.9
			c-0.3,1.7-1.2,3.1-2.6,4.2c-1.4,1.1-4.1,1.6-8,1.6l-19.2,0.7l-71.7-0.7l-37.7,0.7c-2.8,7-5.7,14.2-8.7,21.6
			c-3,7.3-7.1,16.6-12.3,27.7c-5.2,11.1-10.3,20.2-15.1,27.2l-5.9,8.7l27.2,13.4c10,5,18.3,9.5,25,13.5c6.6,4,13.2,9.5,19.6,16.4
			c6.4,7,10.8,13.5,13.1,19.6s3.5,11.5,3.5,16.2c-0.2,3.6-0.8,6.4-2,8.3c-1.2,2-2.5,3.4-4.1,4.5c-1.6,1-3.2,1.5-4.9,1.5
			c-1.9,0.2-4.1-0.4-6.8-1.5c-2.7-1.2-5.9-3.2-9.6-6.1c-3.8-2.9-11.7-10-23.8-21.3c-12.1-11.3-23.3-20.8-33.6-28.5l-21.8-15.5
			c-9.2,8.6-17.5,15.7-24.7,21.4c-7.3,5.7-16.4,11.4-27.3,17c-10.9,5.6-22.9,10.2-36,13.8c-13,3.6-23.9,5.6-32.7,6
			c-8.8,0.4-15.7,0.4-20.9,0.1l-6.8-0.2c-3.8,0-6.2-0.4-7.3-1.2c-1.1-0.8-1.5-1.8-1.3-2.9s2.1-2.2,5.5-3.2l7.5-1.9
			c5.6-1.4,10.4-2.6,14.3-3.6c3.9-1,11.4-3.6,22.4-7.6c11-4.1,22.3-9.2,33.9-15.4c11.6-6.2,21.5-13.2,29.8-21.2l18.3-16.9l-34-16.6
			c-7.8-3.8-15.2-6.8-22-9c-6.9-2.3-11.7-4.4-14.4-6.4c-2.7-2-4.2-4.2-4.3-6.6c-0.2-2.3,0.9-5.2,3-8.7c0.5-0.8,3-4.1,7.6-10.1
			c4.6-5.9,8.1-11.2,10.4-15.9l3.8-8c-9.4,0.9-18.2,1.9-26.6,2.9c-8.4,1-18.9,2.7-31.8,5l-23,4.5l-18.5,4c-4.4,0.9-7.9,1.3-10.5,1.2
			c-3.9,0-7.8-0.8-11.7-2.3l-11.7-5.6c-6.3-2.8-10-5.6-11.4-8.4c-1.3-2.8-1.5-4.8-0.6-6.1c0.9-1.2,3.1-2,6.6-2.3l18.8-0.9l37.3-1.4
			l54.6-4.7l35.9-2.8c2-6.1,4.1-12.2,6.1-18.4c2-6.2,3.6-12.7,4.8-19.5s1.9-13.9,2.2-21.4c0.3-7.5,0.2-12.8-0.2-15.9l-3-11.5
			c-0.9-3.8-0.9-6.1,0.1-7.1c1-1,3.1-1.5,6.2-1.5c3.6,0.2,7.5,1,11.8,2.5c4.3,1.5,9.1,3.9,14.4,7.3c5.3,3.4,9.2,6.4,11.6,9.3
			c2.4,2.8,3.6,5.3,3.4,7.5c-0.2,1.3-1.1,3.3-2.8,6.1c-1.7,2.8-4.1,6.6-7.3,11.4c-3.1,4.8-5.2,8.6-6.3,11.4l-13.4,30.9L229.3,332.5z
			 M157.1,200.8c29.7-0.9,47.4-1.7,53.2-2.3l57-4.7c-4.5-4.1-7.7-7.3-9.4-9.8l-15-26c-4.5-7.2-6.9-12.1-7-14.8
			c-0.2-2.7,0.2-4.6,0.9-5.7c0.8-1.2,4.1-0.9,10.1,0.8c8.9,3,16.2,5.5,21.9,7.6c5.7,2.1,10.6,5.5,14.6,10.3
			c4.1,4.8,6.6,9.8,7.5,15.1c0.8,5.2,0.6,9-0.5,11.5l-3,8.2l66.1-8.2c10-1.1,17.6-2.5,22.9-4.2c5.2-1.7,8.5-2.6,9.7-2.6
			c2.8,0.2,6.2,1.4,10.3,3.9c4.1,2.4,10.3,7.2,18.8,14.4c8.4,7.2,13.9,13.2,16.5,18.2s3.3,8.5,2.2,10.7c-1.1,2-4.2,3.7-9.4,4.9
			l-12.4,2.8c-5,1.3-11.4,3.3-19.3,6.2c-7.9,2.9-15,5.7-21.2,8.6l-12.7,5.6c-3.4,1.6-5.7,1.9-6.7,0.9c-1-0.9-0.6-3,1.3-6.1l5.4-8.9
			c0.9-1.6,3.3-5.2,7.1-10.8c3.8-5.6,6.8-10.6,8.8-14.9c2-4.3,2.3-7.5,0.9-9.6s-3.4-3.4-5.9-3.8c-2.5-0.4-6.2-0.5-11-0.4l-27.4,1.6
			c-5,0.3-17.8,1.7-38.3,4.1c-20.5,2.4-32.3,3.9-35.3,4.3l-40.5,6.3l-23,3.3c-13.1,2.7-19.9,3.9-20.4,3.8l-15.2-1.2
			c-0.6,4.1-1.3,7.9-2,11.4s-2.7,9.1-5.9,16.6c-3.2,7.6-6.6,14.3-10.1,20c-3.5,5.8-7.2,9-11,9.6c-3.8,0.6-7.7-0.7-11.5-4.1
			c-3.8-3.4-5.8-7.8-5.9-13.4c-0.1-5.5,0.5-9.9,1.8-13l8.7-15.7l12.4-31.2l3.8-12.2c1.6-4.1,3.3-6.2,5.3-6.4c2-0.2,3.9,0.8,5.7,3.2
			s3.4,5.3,4.7,8.9L157.1,200.8z M221.3,351l-17.1,30l-6.1,9.4c0,1.9,1.4,3.8,4.2,5.6l15,5.2l46.4,16.9c3.9-5.5,7.3-10.5,10.2-15
			c2.9-4.5,6.4-10.7,10.7-18.5c4.2-7.8,7.3-14.5,9.1-19.9l6.8-19L221.3,351z"/>
	</g>
	<g>
	</g>
	<g>
	</g>
	<g>
	</g>
	<g>
	</g>
	<g>
	</g>
	<g>
	</g>
	<g>
	</g>
	<g>
	</g>
	<g>
	</g>
	<g>
	</g>
	<g>
	</g>
	<g>
	</g>
	<g>
	</g>
	<g>
	</g>
	<g>
	</g>
	<g>
	</g>
</g>
</svg>
