<svg xmlns="http://www.w3.org/2000/svg" width="172.79" height="422.449" viewBox="0 0 172.79 422.449"><path d="M140.18 386.065l1.23 1.104h3.215l.568-.77 1.05.722c.046.023.067.12.067.24 0 .24-.092.408-.297.48-.182.07-.25.167-.25.216v15.48c0 .29-.523.457-.82.457-.23 0-.318-.145-.318-.434v-1.415h-3.307v2.328c0 .312-.273.385-.91.553-.16 0-.23-.19-.23-.553v-18.408h.002zm1.14 8.137h3.306v-6.29h-3.307v6.29zm0 7.225h3.306v-6.48h-3.307v6.48zm6.384-7.897l-.184-.72h4.947v-3.864h-5.562l-.184-.744h5.747v-3.24l1.184.215c.345.05.503.193.503.387 0 .19-.113.336-.27.383-.185.072-.274.19-.274.36v1.895h3.737l1.438-1.248 1.46 1.13c.112.07.18.216.18.384 0 .312-.228.48-.522.48h-6.293v3.864h2.76l1.436-1.27 1.46 1.15c.114.07.183.216.183.358 0 .266-.185.48-.524.48h-11.222zm7.613 3.768v-3.047l1.162.17c.388.046.593.214.593.43s-.113.34-.318.36c-.205.05-.297.146-.297.29v1.798h1.322l1.412-1.176 1.322 1.057c.092.07.16.216.16.358 0 .266-.137.504-.502.504h-3.715v7.658c0 .287-.184.6-.502.936-.297.312-.912.527-1.732.623 0-.888-.957-1.32-1.527-1.56-.184-.05-.252-.145-.252-.266 0-.19.205-.168.3-.145l2.05.288.41-.05c.047-.046.113-.167.113-.31v-7.178h-8.23l-.183-.744h8.413v.002zm-3.852 5.713c-.07.267-.365.362-.48.362-.342 0-.5-.29-.547-.408-.455-1.56-1.3-3-2.143-3.527-.068-.05-.092-.12-.092-.193 0-.12.047-.215.184-.215.455 0 2.734 1.966 3.078 3.335v.646zM140.362 363.907l1.05.912h1.23l.685-2.138.27-1.824v-.744l1.37.12c.273.048.41.167.41.335s-.068.288-.23.335l-.318.193-.798 2.11-.775 1.608h2.986l.547-.77 1.05.723c.067.046.09.118.09.237 0 .312-.25.434-.317.455-.184.072-.25.168-.25.24v14.066c0 .12-.115.238-.23.31-.797.17-.89.17-.89-.286v-1.416H141.5v2.232c0 .31-.273.383-.91.55-.16 0-.23-.19-.23-.55v-16.703h.002zm1.14 7.465h4.742v-5.834h-4.742v5.834zm0 6.287h4.742v-5.546h-4.742v5.545zm11.9 2.304c1.142.385 1.983.602 2.464.602.523 0 .957-.816 1.186-1.37.25-.647 1.186-4.294 1.186-13.75h-6.885l-.297.767c-1.117 2.664-2.576 4.488-2.78 4.488-.07 0-.16-.07-.16-.19 0-.072.022-.145.067-.217 2.21-3.576 3.283-7.775 3.283-10.152l1.322.097c.297.025.434.145.434.336 0 .193-.115.336-.273.336-.185 0-.298.07-.298.167-.273 1.227-.64 2.475-1.05 3.648h6.612l.615-.623.91.744c.114.096.16.215.16.336-.022.145-.138.264-.272.31-.252.073-.252.194-.252 1.226 0 6.434-.66 11.28-1.254 12.816-.752 1.873-1.527 2.377-2.918 2.52-.113-.958-.844-1.366-1.938-1.606-.115-.023-.184-.096-.184-.193 0-.117.092-.287.273-.287h.047v-.004zm-2.53-10.393c0-.07.045-.216.182-.216.55 0 3.26 3.098 3.26 4.537 0 .216-.09.792-.52.792-.437 0-.55-.385-.57-.48-.435-1.944-1.278-3.647-2.26-4.464-.07-.048-.092-.094-.092-.167zM144.602 339.35l1.46-1.247 1.437 1.15c.112.05.18.19.18.36 0 .31-.226.48-.5.48h-7.315l-.184-.745h4.923v.003zm-4.24 9.12l1.117.842h3.67l.593-.672 1.05.72c.09.048.136.144.136.24 0 .12-.093.337-.366.407-.182.05-.273.168-.273.287v6.77c0 .145-.09.266-.228.338-.73.19-.89.215-.89-.338v-1.703h-3.67v1.68c0 .122-.09.24-.272.313-.752.19-.865.217-.865-.36v-8.522h-.003zm3.533-5.737l1.46-1.27 1.437 1.15c.115.073.184.218.184.386 0 .335-.273.454-.523.454h-5.86l-.18-.72h3.482zm0 3.29l1.46-1.272 1.437 1.153c.115.07.184.215.184.357 0 .266-.184.48-.523.48h-5.86l-.18-.72h3.482v.002zm0-9.672l1.46-1.25 1.437 1.153c.115.047.184.19.184.36 0 .31-.23.478-.523.478h-5.79l-.16-.74h3.394zm-2.393 18.29h3.67v-4.61h-3.67v4.61zm17.895 1.246c0 .408-.227 1.178-2.072 1.465-.16-.813-.39-1.103-2.145-1.68-.137-.048-.23-.12-.23-.24s.07-.19.206-.19h.068c1.186.264 2.006.385 2.46.385.206 0 .57 0 .57-.553V337.19h-9.642l-.16-.744h9.803l.502-.648.89.77c.183.143.296.31.296.504 0 .19-.113.336-.297.408-.158.07-.25.19-.25.287v18.12zm-5.88-15.504l1.437-1.248 1.46 1.152c.112.05.18.19.18.36 0 .31-.228.48-.522.48h-7.02l-.183-.745h4.646v.002zm-4.265 3.12l1.004.745h3.967l.615-.672 1.025.72c.092.048.137.144.137.24 0 .12-.113.335-.342.407-.184.05-.297.168-.297.287V352c.024.144-.09.286-.228.335-.684.19-.89.24-.89-.336v-1.417h-3.853v1.85c0 .12-.093.238-.274.336-.73.19-.865.214-.865-.386v-8.88h.002zm1.14 6.36h3.855v-4.896h-3.854v4.896zM145.948 329.647c1.46-.266 2.826-.623 4.012-.984.047 0 .068-.023.115-.023.295 0 .295.338.295.385 0 .096-.045.19-.158.217-3.717 1.488-7.797 2.16-9.098 2.303-.092 0-.182.146-.205.387-.022.238-.16.383-.343.383-.205 0-.363-.12-.434-.383l-.23-.912-.25-.89.98.12c.935.023 2.78-.12 4.17-.36v-2.593h-4.58l-.183-.744h4.764v-2.47h-3.055v1.126c0 .12-.09.216-.25.31-.753.192-.892.218-.892-.358v-8.52l1.004.742h3.19v-1.99h-4.765l-.182-.744h4.945v-2.088h-.113c-1.527.19-2.85.287-3.988.287-.48 0-.687 0-.687-.288 0-.168.092-.266.252-.266 3.28-.264 6.746-.863 8.55-1.92l1.185.672c.16.098.25.217.25.312 0 .12-.158.336-.41.336-.068 0-.41-.096-.48-.096s-.112 0-.136.023c-1.004.336-2.098.602-3.283.77v2.256h2.485l1.46-1.272 1.437 1.152c.113.07.182.215.182.383 0 .312-.227.48-.5.48h-5.062v1.99h3.03l.595-.672 1.05.724c.09.047.136.143.136.238 0 .12-.092.336-.365.408-.182.047-.295.168-.295.287v6.674c.02.146-.068.288-.205.36l-.365.072 1.186.96c.114.07.183.216.183.384 0 .312-.23.48-.523.48h-4.424v2.35h.002zm-1.14-11.544h-3.056v2.28h3.055v-2.28zm0 2.976h-3.056v2.304h3.055v-2.305zm1.14-.696h3.055v-2.28h-3.055v2.28zm0 3h3.055v-2.305h-3.055v2.304zm0 3.168h2.256l1.322-1.08c-.434.072-.523.023-.523-.432v-.938h-3.055v2.45zm13.883-9.817c.114.07.16.215.16.357-.022.146-.138.266-.296.29-.113.048-.23.216-.23.433 0 .55.022 1.104.022 1.63 0 5.26-.455 9.05-.98 10.49-.685 1.728-1.32 2.136-2.735 2.353-.067-.96-.91-1.27-1.526-1.44-.113-.022-.182-.097-.182-.216 0-.145.113-.264.25-.264h.045c.98.264 1.69.408 2.1.408s.818-.744 1.002-1.225c.25-.6.98-4.056.866-12.192h-3.375l-.09 2.76c-.138 2.113-.685 7.033-3.17 10.01-1.366 1.584-2.78 2.258-2.895 2.258-.09 0-.205-.072-.205-.22 0-.07.047-.167.115-.188 3.646-2.594 4.81-7.777 5.06-12.05l.07-2.567h-2.51l-.388-.743h2.94l.022-6.023 1.32.264c.32.047.48.19.48.383 0 .194-.113.337-.318.386l-.318.168-.068 4.824h3.307l.615-.623.913.74zM142.573 292.897c-1.162 2.018-2.69 3.695-2.918 3.695-.068 0-.182-.096-.182-.19 0-.07.045-.145.09-.216 3.01-3.96 4.492-8.545 4.676-10.705l1.274.265c.295.05.434.168.434.336 0 .097 0 .337-.318.337-.184 0-.297.05-.297.12-.525 1.73-1.21 3.384-2.006 4.97.773.264.865.287.865.455 0 .098-.068.217-.23.29-.16.095-.25.214-.25.286v14.69c0 .144-.09.263-.274.286-.73.19-.865.217-.865-.287v-14.33zm9.097-2.904h-2.234l-.662 1.56c-1.07 2.26-2.758 4.37-3.076 4.37-.113 0-.184-.096-.184-.19 0-.073.045-.146.092-.218 2.69-3.695 3.717-7.992 3.92-9.527v-.576l1.322.19c.297.05.436.192.436.386 0 .19-.14.31-.3.31-.18 0-.317.05-.317.147-.25.936-.568 1.92-.936 2.854h7.98l1.413-1.27 1.39 1.08c.138.142.23.31.23.454 0 .168-.092.457-.455.457h-7.48v4.608h4.106l1.412-1.248 1.367 1.08c.16.145.25.312.25.455 0 .29-.203.457-.455.457h-6.68v4.512h4.105l1.412-1.27 1.367 1.08c.16.144.25.335.25.478 0 .29-.203.434-.455.434h-6.68v6.72c0 .337-.82.433-.865.433-.184 0-.273-.144-.273-.433v-17.334zM158.053 281.015c0 .72-.64 1.225-2.074 1.486-.07-.813-.48-1.126-1.872-1.604-.158-.05-.203-.146-.203-.24 0-.05 0-.193.182-.193h.068c1.025.193 1.777.29 2.188.29.23 0 .57 0 .57-.554v-6.554h-6.246v8.498c0 .357-.82.455-.867.455-.182 0-.273-.146-.273-.456v-8.52h-6.312c0 1.08-.64 3.983-1.39 5.64-.458 1.03-1.62 3.217-2.03 3.217-.113 0-.16-.144-.16-.214 0-.05.023-.098.047-.146 1.732-3 2.803-6.36 2.803-16.01v-5.16l1.027.816h13.404l.523-.648.888.77c.184.145.297.312.297.504s-.113.336-.297.408c-.184.07-.273.19-.273.287v17.928h-.002zm-8.527-12.89h-5.947c-.048 1.73-.14 3.36-.276 4.802h6.225v-4.8h-.004zm0-5.616h-5.902v4.895h5.902v-4.896zm1.14 4.895h6.247v-4.896h-6.246v4.895zm0 5.522h6.247v-4.8h-6.246v4.8zM148.272 250.216c1.027-.744 2.19-1.943 2.19-3.527-.25.144-.48.237-.753.237-1.005 0-1.644-.768-1.644-1.584 0-.936.55-1.73 1.643-1.73.888 0 1.96.603 1.96 2.4 0 1.92-1.277 3.435-3.055 4.704l-.343-.5zM139.952 221.103l-.184-.72h11.924c.318-.575.66-1.272.957-2.017l.522-1.777.092-.743 1.346.406c.23.098.342.217.342.36 0 .312-.25.312-.295.312l-.344.12-1.05 1.97-.91 1.367h4.99l1.44-1.27 1.458 1.15c.114.07.185.216.185.36 0 .264-.184.48-.525.48h-19.947zm.888-6l-.182-.72h8.436v-2.69l1.162.216c.365.048.523.19.523.384s-.114.336-.298.383c-.182.05-.27.193-.27.36v1.345h5.698l1.46-1.27 1.435 1.15c.113.07.184.218.184.36 0 .264-.185.48-.505.48H140.84zm2.987 7.728l.865.65h9.713l.594-.673 1.048.742c.09.048.137.12.137.216 0 .098-.092.336-.365.408-.158.05-.273.168-.273.287v9.122c.02.145-.09.266-.23.336-.683.193-.888.24-.888-.336v-1.127h-9.462v.912c0 .12-.092.238-.273.336-.752.168-.865.19-.865-.385V222.83h-.003zm2.19-3.384c-.16-1.248-.73-2.543-1.3-3.047-.068-.05-.092-.122-.092-.194s.066-.19.205-.19c.547 0 2.303 2.304 2.303 2.976 0 .408-.068.938-.547.938-.296-.003-.525-.267-.57-.484zm-1.05 4.754v3.31h9.46v-3.31h-9.46zm0 4.03v3.505h9.46v-3.504h-9.46zM144.74 191.264l1.32-1.08 1.187.96c.092.07.16.216.16.36 0 .312-.23.48-.502.48h-7.227l-.16-.72h5.22zm-.798 6.746l1.322-1.08 1.162.96c.113.07.182.216.182.384 0 .312-.227.48-.5.48H140.5l-.184-.743h3.626zm-3.58 2.47l1.004.722h3.625l.5-.816.913.674c.137.096.184.264.184.406-.023.145-.115.29-.252.336-.113.05-.205.145-.205.24v5.857c0 .31-.09.335-.844.55-.182 0-.295-.168-.295-.55v-1.18h-3.487v1.562c0 .12-.092.24-.273.336-.775.193-.865.217-.865-.383v-7.754h-.003zm3.488-5.735l1.322-1.08 1.162.96c.115.073.184.192.184.36 0 .217-.115.48-.502.48h-5.426l-.182-.72h3.442zm.092-6.864l1.322-1.08 1.162.983c.113.05.182.193.182.36 0 .312-.227.48-.5.48h-5.447l-.16-.744h3.442zm-2.44 18.097h3.488v-4.057h-3.488v4.057zm10.873 1.13c.16.095.252.237.252.358 0 .098-.092.36-.342.36-.047 0-.39-.073-.457-.073-.775.336-1.688.648-2.713.84-1.05.22-1.914.29-2.6.29-.182 0-.27-.05-.27-.192 0-.145.044-.24.157-.24 1.732-.096 4.47-1.2 5.062-1.943l.91.6zm-3.69-15.675l-.185-.72h4.674v-1.44h-5.47l-.185-.72h5.65v-1.944l1.187.217c.365.047.502.19.502.383s-.093.336-.272.387c-.275.096-.275.19-.275.96h3.215l1.438-1.272 1.46 1.152c.112.07.16.19.16.336 0 .048 0 .097-.024.144-.02.217-.205.36-.48.36h-5.767v1.44h2.145l1.436-1.27 1.46 1.15c.112.07.183.19.183.36 0 .287-.206.48-.526.48h-10.33v-.002zm9.937 1.248l.502-.84.912.695c.137.096.184.264.184.385-.023.145-.115.287-.252.336-.137.072-.23.168-.23.264v3.984c0 .287-.09.312-.843.527-.182 0-.273-.167-.273-.526v-.814h-9.55c0 .744 0 .814-.274.96-.775.19-.867.216-.867-.384v-5.33l1.005.744h9.687zm-9.553 3.266h2.417V193.4h-2.418v2.546zm.366 1.535l1.002.722h6.11l.593-.648 1.05.72c.092.05.137.146.137.24 0 .024 0 .288-.365.386-.182.047-.273.168-.273.287v7.057c.046.29-.16.336-.798.504-.318 0-.318-.215-.318-1.152h-5.996c0 .744 0 .816-.273.96-.73.192-.865.218-.865-.384v-8.69h-.004zm1.14 1.44v1.537h5.993v-1.537h-5.995zm0 2.258v1.44h5.993v-1.44h-5.995zm0 2.16v1.512h5.993v-1.512h-5.995zm2.05-7.392h2.417V193.4h-2.416v2.546zm3.078 10.847c1.666.05 4.24.72 4.24 1.656 0 .263-.205.552-.48.552-.16 0-.364-.07-.593-.19-1.708-.985-3.645-1.44-4.42-1.608-.14-.023-.23-.12-.23-.24s.068-.168.205-.168h1.277v-.003zm.48-10.847h2.438V193.4h-2.438v2.546zM142.05 170.213c-.776 1.44-2.167 3.36-2.396 3.36-.068 0-.182-.05-.182-.192 0-.07.02-.144.068-.216 2.734-4.13 3.92-8.81 3.92-11.04l1.3.167c.32.024.48.17.48.36s-.14.29-.32.29-.298.07-.298.167c-.387 1.752-.957 3.48-1.664 5.16.617.217.686.217.686.408 0 .096-.068.217-.207.264-.158.095-.25.216-.25.31v14.5c0 .144-.092.237-.27.286-.73.19-.868.217-.868-.287v-13.537zm4.718-8.04l1.23 1.103h10.26l.547-.768 1.05.72c.067.048.09.12.09.24 0 .288-.183.433-.317.456-.16.072-.23.168-.23.24v19.227c0 .12-.113.24-.25.312-.752.193-.89.217-.89-.287v-1.225h-10.35v1.488c0 .287-.25.36-.91.527-.16 0-.23-.19-.23-.527v-21.506zm1.14 19.296h10.35v-17.474h-10.35v17.473zm2.075-9.72l1.002.72h1.574v-3.506h-3.513l-.182-.72h3.69v-3.263l1.19.24c.34.048.5.19.5.384 0 .19-.114.312-.296.36-.16.07-.253.216-.253.384v1.895h1.367l1.254-1.295 1.188 1.152c.113.096.158.238.158.383 0 .217-.158.48-.48.48h-3.487v3.505h1.438l.523-.816.91.672c.14.098.184.266.184.408-.02.145-.113.266-.25.312-.137.072-.23.168-.23.264v6.05c0 .31-.09.335-.843.552-.183 0-.298-.168-.298-.553v-1.2h-4.035v.913c0 .12-.066.24-.25.336-.773.19-.867.215-.867-.385v-7.27h.003zm1.117 5.688h4.035v-4.25H151.1v4.25zM141.342 141.5l1.14 1.008h6.862v-3.48h-9.393l-.183-.743h17.668l1.438-1.27 1.46 1.15c.112.07.18.216.18.384 0 .31-.226.48-.522.48h-9.505v3.478h7.158l.5-.646.89.768c.183.145.298.312.298.48 0 .19-.114.36-.296.432-.184.072-.273.19-.273.29v13.8c0 .527-.364 1.2-2.05 1.463l-.275-.623c-.137-.19-.66-.432-1.525-.695-.14-.05-.205-.145-.205-.287.02-.12.092-.168.182-.168h.047c.66.07 1.207.12 1.617.12.755 0 1.097-.073 1.097-.626v-13.584h-7.158v15.24c0 .287-.503.455-.866.455-.184 0-.273-.143-.273-.455v-15.24h-6.86v15.457c0 .288-.205.335-.936.526-.137 0-.205-.168-.205-.527V141.5h-.008zm5.358 4.37c.113.072.182.168.182.287 0 .168-.137.385-.387.385-.205.023-.297.145-.297.287.137.983.39 1.895.707 2.735.23.625.773 2.16 2.098 3.24.16.264.16.264-.297.312-.273.023-.502.19-.615.455-.09.193-.18.312-.25.312-.046 0-.614-.863-1.048-1.97l-.594-1.872c-.89 2.21-2.78 3.793-2.896 3.793-.09 0-.158-.145-.158-.215 0-.05.02-.072.045-.098 1.55-1.703 2.645-4.943 2.645-5.592l-.16-1.416h-2.234l-.136-.72h2.166l.502-.577.728.653zm8.275-.096c.113.07.184.19.184.31 0 .17-.16.362-.39.386-.182 0-.297.12-.297.266.137.982.365 1.895.615 2.736.64 1.822 1.3 2.566 2.03 3.238.136.217.204.336-.298.336-.252 0-.502.168-.64.408-.09.19-.18.312-.25.312s-.66-1.03-1.003-1.97l-.502-1.728c-.82 1.97-2.87 3.77-3.03 3.77-.093 0-.16-.145-.16-.217 0-.048.022-.095.046-.118 1.528-1.537 2.806-4.775 2.806-5.498l-.137-1.584h-2.306l-.158-.72h2.28l.5-.575.71.65zM144.9 120.135c-2.37 3.434-4.765 5.258-4.97 5.258-.115 0-.184-.098-.184-.19 0-.073.047-.146.113-.218 1.868-1.85 3.51-3.912 4.786-6.12l1.527-2.856h-6.223l-.184-.745h6.727c.797-1.775.89-2.062 1.047-2.95l1.254.478c.252.072.365.217.365.36 0 .31-.138.31-.48.31-.115 0-.184.024-.207.073l-.797 1.73h9.574l1.436-1.25 1.46 1.128c.114.072.183.217.183.385 0 .31-.23.478-.524.478h-12.492c-.547 1.08-1.162 2.14-1.824 3.12l.412.36h9.688l.5-.648.89.77c.183.145.298.312.298.504 0 .168-.115.336-.297.408-.183.072-.25.19-.25.29v12.022c0 .672-.456 1.152-2.073 1.465l-.273-.673c-.14-.217-.662-.457-1.506-.744-.16-.05-.23-.145-.23-.29.024-.118.093-.167.206-.167h.068c.8.12 1.39.19 1.824.19.48 0 .844-.046.844-.6v-3.84h-9.553v5.616c0 .29-.205.336-.912.527-.158 0-.23-.17-.23-.528v-13.656h.004zm1.14.073v3.12h9.55v-3.12h-9.55zm0 3.865v3.385h9.55v-3.385h-9.55zM154.2 94.233l1.254-.504.752 1.056c.068.096.092.19.092.264 0 .266-.342.266-.48.266l-.5.096c-1.254 1.008-2.576 1.848-3.967 2.424 0 .29 0 .457-.296.48-.205.05-.297.145-.297.29v2.183h6.68l1.438-1.272 1.46 1.15c.112.072.18.217.18.385 0 .338-.27.457-.522.457h-9.232v6.36c0 .288-.18.6-.5.935-.296.312-.91.53-1.733.625 0-.936-.98-1.367-1.64-1.656-.16-.047-.23-.145-.23-.238 0-.217.184-.217.318-.168l2.145.36.387-.05.115-.287v-5.88h-9.484l-.182-.72h9.666v-3.433l1.07.143c1.367-.695 2.6-1.56 3.67-2.543h-10.92l-.342-.72h11.1v-.004zm-11.764-3.31l-.205 1.126c-.157.575-.728 2.23-1.616 2.23-.39 0-.594-.24-.594-.67 0-.146.184-.36.48-.603.844-.84 1.62-1.848 1.688-3.72 0-.097.068-.17.182-.17.092 0 .16.073.16.17v.913h7.09v-3.072l1.186.217c.342.05.502.19.502.385 0 .19-.115.336-.273.385-.184.072-.273.19-.273.36v1.728h7.66l.73-.816.82 1.13c.136.144.228.286.228.454 0 .192-.113.458-.39.458-.065 0-.34-.05-.41-.05-.157 0-.294.05-.386.146-.434.553-1.824 2.16-2.053 2.16-.112 0-.204-.12-.204-.24 0-.047.023-.07.023-.096.593-.793 1.07-1.607 1.435-2.424h-15.78v-.002zM139.77 78.678l-.16-.72h2.19l-.663-13.97 1.188.72.89-.647c.41-.384.82-.767 1.07-1.294l1.14.504c.23.07.318.215.318.36 0 .167-.158.384-.39.384l-.546.143-.89.602-1.55.647.137 3.455h.55l1.253-1.295 1.162 1.15c.112.098.16.24.16.385 0 .264-.23.48-.458.48h-2.645l.184 3.77h.343l1.254-1.272 1.162 1.152c.112.072.16.215.16.36 0 .237-.208.503-.458.503h-2.44l.23 3.863h3.352V62.645l1.004.865h5.22l.548-.625 1.025.744c.093.048.138.144.138.263 0 .217-.158.385-.318.457-.137.07-.23.215-.23.36v13.247h3.192l.25-3.863h-2.303l-.183-.744h2.553l.297-3.77h-2.668l-.183-.72h2.918l.273-3.96h-2.918l-.137-.72h3.076l.593-.722.797.77c.16.12.252.287.252.455 0 .19-.092.336-.273.385-.185.072-.298.217-.298.36l-.89 12.552h.046l1.254-1.318 1.186 1.15c.092.098.137.24.137.36 0 .265-.182.503-.455.503h-20.45v.003zm6.77 1.127l1.07.648c.184.12.3.264.3.408 0 .022-.048.312-.32.312l-.32-.047c-.09 0-.18.023-.25.072-2.028 2.135-5.995 3.145-6.452 3.145-.137 0-.25-.05-.25-.19 0-.122.068-.194.184-.24 2.803-.794 4.832-2.474 5.857-3.722l.18-.385zm.912-1.847h5.105V64.252h-5.105v13.706zm2.416-11.45l1.117-1.104 1.004.96c.09.097.136.24.136.36 0 .217-.16.527-.455.527h-3.353l-.158-.743h1.708zm-1.412 2.81l.547.384h1.96l.343-.457.64.48.09.264c-.138.216-.16.24-.296.407v5.28c0 .12-.068.24-.205.288-.502.12-.57.145-.57-.264v-.96h-1.732v.936c0 .098-.066.193-.158.24-.55.12-.615.145-.615-.264v-6.336h-.004zm.775 4.704h1.733V70.42h-1.732v3.602zm4.24 6.527c2.007.6 4.788 2.306 4.788 3.12 0 .287-.205.602-.525.602-.203 0-.387-.098-.613-.336-1.46-1.346-3.283-2.496-5.312-3.434-.137-.05-.184-.145-.184-.24.02-.12.115-.168.252-.168l1.595.455z"/><g><path d="M101.747 45.295l1.32-1.08 1.188.96c.09.07.158.218.158.36 0 .312-.23.48-.5.48h-7.23l-.16-.722h5.224v.002zm-.8 6.745l1.323-1.08 1.162.96c.113.07.184.218.184.386 0 .31-.23.48-.502.48h-5.607l-.184-.745h3.625zm-3.577 2.47l1.002.72h3.625l.502-.813.91.672c.138.095.183.265.183.407-.02.145-.113.287-.25.336-.115.047-.205.145-.205.238v5.858c0 .312-.092.336-.844.553-.184 0-.297-.167-.297-.552V60.75H98.51v1.562c0 .12-.09.238-.274.336-.773.19-.865.215-.865-.385V54.51zm3.488-5.734l1.322-1.08 1.162.96c.113.07.182.19.182.358 0 .217-.113.48-.502.48h-5.424l-.184-.72h3.443v.002zm.09-6.865l1.322-1.08 1.162.985c.113.047.184.19.184.36 0 .31-.23.48-.502.48h-5.447l-.16-.745h3.44zm-2.44 18.098h3.488V55.95h-3.488v4.058zm10.875 1.127c.16.098.25.24.25.36 0 .097-.09.36-.342.36-.044 0-.388-.072-.454-.072-.775.336-1.688.648-2.713.84-1.05.217-1.916.287-2.6.287-.184 0-.273-.047-.273-.19s.045-.24.16-.24c1.73-.097 4.47-1.2 5.06-1.944l.913.6zm-3.693-15.672l-.182-.72h4.672v-1.44h-5.47l-.185-.72h5.654v-1.944l1.185.216c.365.05.502.19.502.385 0 .192-.092.337-.273.384-.273.096-.273.19-.273.96h3.216l1.438-1.27 1.46 1.15c.112.072.157.193.157.336 0 .05 0 .098-.02.145-.023.217-.205.36-.48.36h-5.767v1.44h2.143l1.436-1.27 1.46 1.15c.114.07.183.192.183.36 0 .287-.205.48-.523.48H105.69zm9.94 1.248l.5-.84.913.696c.137.096.182.264.182.385-.02.146-.113.288-.25.337-.137.072-.23.168-.23.264v3.985c0 .287-.09.312-.843.527-.184 0-.273-.168-.273-.527v-.814h-9.554c0 .743 0 .815-.273.96-.773.19-.865.217-.865-.385v-5.328l1.002.744h9.69zm-9.553 3.265h2.418V47.43h-2.418v2.545zm.365 1.535l1.004.72h6.11l.59-.647 1.052.723c.09.047.137.145.137.238 0 .023 0 .287-.365.385-.182.048-.273.167-.273.286v7.06c.047.286-.158.335-.8.503-.315 0-.315-.218-.315-1.153h-5.996c0 .744 0 .816-.273.96-.73.192-.867.216-.867-.384V51.51h-.004zm1.14 1.442v1.535h5.997v-1.535h-5.997zm0 2.256v1.44h5.997v-1.44h-5.997zm0 2.16v1.512h5.997v-1.512h-5.997zm2.05-7.393h2.417V47.43h-2.417v2.545zm3.08 10.85c1.663.047 4.24.72 4.24 1.656 0 .265-.206.552-.48.552-.16 0-.364-.07-.593-.19-1.712-.983-3.65-1.44-4.423-1.608-.14-.023-.23-.12-.23-.24s.068-.168.205-.168h1.28zm.478-10.85h2.44V47.43h-2.44v2.545zM98.965 22.278c-.957 2.016-2.234 3.623-2.395 3.623-.068 0-.184-.046-.184-.19 0-.072.023-.145.068-.217 2.668-4.225 3.646-9.096 3.646-11.184l1.3.095c.32.024.456.144.456.336s-.113.337-.297.337c-.16 0-.272.072-.272.168-.344 1.704-.844 3.41-1.482 5.065.686.19.752.215.752.406 0 .098-.066.217-.205.29-.158.095-.25.214-.25.31v14.856c0 .145-.092.24-.273.29-.73.19-.865.214-.865-.29V22.278zm3.465-4.514l1.277.19c.363.05.547.194.547.386 0 .168-.115.36-.342.455-.23.098-.344.266-.344.434v14.735c0 .145-.092.287-.25.385-.205.047-.594.143-.64.143-.16 0-.25-.072-.25-.19v-16.54h.002zm10.965 5.545l1.393-1.274 1.39 1.08c.16.145.25.312.25.457 0 .264-.18.455-.478.455h-4.834c-.045 1.56-.137 2.928-.25 3.96h3.305l1.46-1.272 1.438 1.152c.113.072.184.217.184.385 0 .336-.273.455-.525.455h-5.195c1.23 2.785 3.213 4.8 6.062 5.666.09.023.137.096.137.19s-.183.192-.5.265-.548.263-.616.503c-.068.193-.137.29-.205.29-.093 0-3.718-1.874-5.403-6.915h-.23c-.317 1.465-.706 2.424-1.55 3.648-2.05 3-5.902 3.793-5.996 3.793-.09 0-.157-.122-.157-.24 0-.073.047-.17.137-.194 4.445-1.56 6.088-4.967 6.45-7.008h-4.763l-.184-.72h5.06c.14-.983.206-2.353.206-3.983h-2.804l-.342.672c-.775 1.297-1.732 2.375-1.96 2.375-.093 0-.206-.096-.206-.215 0-.072.045-.145.09-.217.617-.84 1.14-1.775 1.482-2.71.752-1.825.752-2.378.752-3.122l1.322.264c.297.05.434.193.434.36 0 .216-.137.313-.318.313s-.32.047-.32.12l-.592 1.464h5.877zm-8.502-3.313l-.184-.72h7.728l.455-3.313h-6.906l-.158-.72h7.11l.64-.72.728.815c.16.12.23.264.23.407 0 .216-.068.36-.297.433-.183.048-.296.168-.296.36l-.363 2.735h.685l1.436-1.27 1.46 1.15c.113.073.184.192.184.36 0 .287-.205.48-.525.48h-11.927v.002z"/></g><path d="M114.098 70.137c0 .217-.252.396-.973.396-.504 0-2.447.18-3.78.287.038.072.038.145.038.217 0 .107-.037.215-.072.322-.106.288-.25 1.763-.25 2.196-.038.72-.038 1.8-.038 2.807 0 .828.072 2.377.11 2.81 0 .43-.577 1.763-1.01 1.763-.395 0-.792-1.26-.722-2.557.072-.685.254-3.06.254-5.04 0-.936-.035-1.764-.145-2.303-.9.145-2.34.396-3.35.646-.612.18-1.476-.576-1.728-.863-.145-.145-.252-.324-.252-.432 0-.182.215-.324.756-.324.936 0 1.943-.072 2.662-.145 2.305-.218 4.355-.505 5.473-.722.647-.145 1.08-.215 1.405-.215.252 0 .467.035.646.143.402.218.978.687.978 1.01zm.035 15.01c0 .252-.287.396-1.115.324-.217-.034-.432-.034-.684-.034-1.152 0-2.81.18-4.176.36-.648.07-2.627.358-3.96.72-.612.145-1.476-.576-1.728-.863-.145-.146-.252-.36-.252-.506 0-.215.18-.396.72-.396.937 0 1.942-.07 2.663-.142 2.306-.252 4.212-.504 5.364-.756.395-.072.756-.146 1.152-.146.36 0 .72.072 1.008.252.398.29 1.01.83 1.01 1.19zm-5.29 5.832c.395.32.827.72.827.972 0 .287-.54.646-.828 1.44-.36.862-1.477 3.382-2.95 5.325-.47.648-1.08 1.477-.577 1.477.434 0 1.656-.072 2.77-.182.974-.105 2.09-.252 2.593-.357.396-.072 1.008-.36 1.477-.36.18 0 .324.036.47.145.575.504 1.474 1.113 1.294 1.727-.073.324-.325.396-.612.396-.29 0-.61-.07-.863-.145-.61-.107-1.367-.143-2.232-.143-1.043 0-2.158.07-3.166.18-.865.107-1.98.432-2.81.72-.575.216-1.15-.505-1.655-1.15-.072-.146-.145-.253-.145-.36 0-.432.576-.793 1.045-1.26 1.402-1.477 2.375-3.023 3.455-5.615.36-.828.467-1.477.467-1.98 0-.253-.035-.47-.07-.647-.035-.11-.035-.217-.035-.324 0-.433.214-.577.466-.542.18.037.396.146.576.29l.5.39z"/><g><path d="M96.85 391.858l-.182-.744h6.564c0-.24-.64-1.752-1.21-2.064-.09-.023-.136-.096-.136-.168 0-.096.068-.264.23-.264.136 0 .774.287 1.345.84.774.72.774.77.774 1.633h4.72c.364-.77.685-1.606.866-2.446l1.162.406c.25.072.365.19.365.36 0 .07-.047.384-.342.384-.16 0-.297.05-.365.145l-1.004 1.175h4.97l1.44-1.248 1.458 1.152c.09.048.158.19.158.335 0 .264-.137.504-.5.504H96.85v-.002zm2.6 9.432c.066 0 .137.072.137.193 0 2.375-1.14 5.016-2.258 5.016-.39 0-.57-.36-.57-.624 0-.168.067-.385.5-.695.708-.575 1.21-1.177 1.46-1.8.273-.602.48-1.248.547-1.896 0-.145.067-.194.183-.194zm-1.62-13.27l-.183-.745h8.596v-2.4l1.186.215c.364.05.522.193.522.385s-.113.336-.297.385c-.182.07-.273.217-.273.36v1.056h5.973l1.438-1.248 1.46 1.13c.114.07.183.214.183.382 0 .312-.23.48-.523.48H97.83zm14.02 5.446l.594-.646 1.05.72c.09.048.136.146.136.24 0 .022 0 .288-.365.384-.182.05-.295.168-.295.29v5.83c.02.146-.092.288-.207.36-.73.19-.91.24-.91-.36v-.935h-10.168v.813c0 .12-.092.24-.273.336-.73.19-.865.214-.865-.386v-7.367l1.002.72h10.3zm-10.168.72v1.823h10.168v-1.823h-10.168zm0 2.543v1.895h10.168v-1.896h-10.168zm.48 4.033l1.505.432c.182.05.27.168.27.36s-.136.31-.34.337c-.206.02-.32.143-.32.287v3.31c0 .288.07.312.456.456h6.61c.685 0 1.05-.432 1.165-1.367l.205-1.515c0-.12.09-.19.205-.19.137 0 .205.07.205.216l.066 1.634c.022.527.183.887.433 1.03.184.12.318.313.318.48 0 .457-.27.602-.772.842h-9.348c-.523-.266-.66-.336-.66-1.033v-5.28h.003zm5.79 2.832c-.684-1.44-1.617-2.377-2.234-2.64-.09-.05-.158-.097-.158-.192 0-.098.045-.24.23-.24.386 0 3.167 1.488 3.167 2.785 0 .264-.045.6-.48.6-.273 0-.457-.122-.525-.313zm5.242-2.16c0-.096.068-.24.205-.24.57 0 3.395 2.832 3.395 4.225 0 .385-.158.744-.523.744-.273 0-.455-.096-.568-.432-.48-1.896-1.527-3.553-2.395-4.13-.07-.048-.116-.12-.116-.167zM97.352 362.312l1.05.912h1.23l.683-2.137.273-1.824v-.744l1.37.118c.27.05.41.17.41.338s-.07.287-.23.336l-.32.19-.798 2.112-.773 1.607h2.986l.547-.767 1.05.72c.067.048.09.12.09.24 0 .31-.25.433-.32.456-.18.07-.25.167-.25.24v14.063c0 .12-.112.24-.228.312-.797.168-.89.168-.89-.29v-1.415h-4.74v2.232c0 .312-.274.385-.91.553-.16 0-.23-.19-.23-.553V362.31zm1.14 7.464h4.74v-5.832h-4.74v5.832zm0 6.29h4.74v-5.546h-4.74v5.545zm11.9 2.302c1.14.385 1.983.602 2.462.602.523 0 .957-.816 1.186-1.367.25-.648 1.186-4.297 1.186-13.754h-6.885l-.296.767c-1.117 2.664-2.576 4.488-2.78 4.488-.07 0-.16-.07-.16-.19 0-.073.022-.146.07-.216 2.21-3.58 3.28-7.778 3.28-10.155l1.322.098c.297.023.434.145.434.336s-.113.335-.273.335c-.182 0-.297.07-.297.168-.27 1.225-.637 2.473-1.047 3.646h6.61l.614-.624.912.744c.112.096.16.215.16.336-.024.145-.138.266-.274.312-.25.07-.25.19-.25 1.223 0 6.435-.662 11.282-1.256 12.82-.752 1.87-1.525 2.374-2.918 2.52-.113-.96-.844-1.368-1.938-1.608-.113-.023-.184-.096-.184-.19 0-.12.092-.29.273-.29h.047v-.004zm-2.53-10.392c0-.072.045-.217.182-.217.55 0 3.26 3.097 3.26 4.536 0 .215-.09.79-.52.79-.437 0-.55-.382-.57-.478-.437-1.943-1.278-3.648-2.26-4.465-.07-.048-.092-.095-.092-.167zM97.875 333.1v6.915h14.637v1.078H96.827V333.1h1.048zM101.524 314.788h-4.22l-.18-.72h4.397v-3.77h-3.235l-.184-.72h3.42v-4.104l1.19.215c.362.048.522.19.522.384 0 .19-.113.336-.297.385-.182.07-.273.19-.273.358v2.76h1.275l1.322-1.08 1.187.96c.113.073.182.192.182.36 0 .312-.23.48-.503.48h-3.465v3.77h1.596l1.46-1.272 1.437 1.152c.113.072.184.215.184.385 0 .336-.274.455-.503.455h-4.172v4.057h1.344l1.413-1.248 1.39 1.057c.16.145.253.336.253.48 0 .265-.184.456-.48.456h-3.92v4.775l.728.29c2.508.888 5.95.888 8.07.888 1.938 0 4.035-.072 6.225-.217.136 0 .228.047.228.12 0 .097-.115.216-.365.36-.27.143-.434.383-.48.672-.044.264-.136.406-.25.406-1.276.023-2.462.05-3.577.05-9.28 0-12.447-.96-14.34-5.714l-.16 1.01c-.594 3.31-1.938 5.23-2.143 5.23-.092 0-.205-.096-.205-.24 0-.047 0-.07.02-.12 1.575-3.454 1.552-8.063 1.528-8.93v-1.054l1.39.238c.298.05.458.168.458.336 0 .19-.115.312-.32.36-.158.048-.27.145-.27.265l-.185 1.896c.614 1.32 1.253 2.306 1.868 2.905l.64.55v-8.878h-.004zm6.68-8.16l.934.6h5.562l.594-.646 1.047.72c.093.048.14.145.14.216 0 .072-.068.336-.365.408-.184.047-.297.168-.273.287v7.61c0 .358-.502.503-.797.503-.23 0-.342-.168-.342-.504v-1.584h-5.357v7.416c0 .312.045.336.318.457h5.402c.23 0 .48-.265.64-.815l.593-1.775c.044-.145.136-.19.25-.19.09 0 .16.095.16.263l-.093 1.44c0 .552.02.864.158.96.14.096.205.24.205.408s-.158.888-.844.888H109c-.502 0-.797-.576-.797-1.152v-15.508zm1.138 1.32v5.568h5.357v-5.568h-5.358zM96.758 295.42l-.158-.72h2.188l-.66-13.97 1.186.722.89-.648c.41-.385.82-.768 1.07-1.297l1.14.506c.23.07.318.215.318.36 0 .167-.158.382-.387.382l-.547.145-.89.602-1.552.648.14 3.455h.546l1.254-1.295 1.162 1.15c.115.098.16.24.16.385 0 .264-.23.48-.455.48h-2.646l.184 3.77h.343l1.254-1.272 1.162 1.152c.114.07.16.215.16.36 0 .237-.206.503-.456.503h-2.44l.23 3.863h3.352v-15.31l1.002.862h5.22l.55-.623 1.023.743c.093.047.138.145.138.264 0 .217-.158.385-.316.455-.137.072-.23.217-.23.36V294.7h3.19l.253-3.863h-2.303l-.184-.744h2.555l.297-3.77h-2.668l-.184-.72h2.918l.273-3.96h-2.92l-.136-.72h3.076l.594-.722.8.77c.157.12.25.288.25.456 0 .19-.093.336-.274.385-.182.07-.297.218-.297.36l-.89 12.553h.048l1.253-1.318 1.186 1.15c.093.098.138.24.138.36 0 .265-.184.503-.457.503H96.76v.003zm6.77 1.128l1.072.648c.184.12.297.264.297.408 0 .023-.047.312-.318.312l-.32-.05c-.09 0-.183.026-.25.073-2.03 2.136-5.997 3.144-6.452 3.144-.137 0-.252-.047-.252-.19 0-.12.068-.192.184-.24 2.805-.792 4.834-2.472 5.86-3.72l.178-.386zm.914-1.848h5.105v-13.705h-5.105V294.7zm2.416-11.45l1.117-1.103 1.002.96c.092.097.14.24.14.358 0 .22-.16.53-.456.53h-3.353l-.158-.745h1.708zm-1.414 2.81l.55.385h1.96l.342-.457.64.48.09.264c-.138.217-.16.24-.296.408v5.28c0 .12-.068.24-.205.288-.502.12-.57.145-.57-.264v-.96h-1.732v.935c0 .097-.066.192-.16.24-.547.12-.613.144-.613-.265v-6.336h-.006zm.775 4.705h1.73v-3.602h-1.73v3.602zm4.24 6.527c2.005.602 4.786 2.307 4.786 3.12 0 .288-.205.603-.523.603-.205 0-.39-.098-.615-.338-1.46-1.344-3.283-2.494-5.312-3.432-.137-.05-.184-.145-.184-.24.023-.12.115-.168.252-.168l1.595.455zM101.66 265.585h15.206v7.945h-1.05v-6.865h-14.155v-1.08zM97.875 235.608v6.912h14.637v1.08H96.827v-7.992h1.048zM106.127 208.797l.594-.432.866.863c.068.05.115.145.115.24 0 .145-.046.19-.138.312l1.62 1.536 1.16-1.008c.753-.793.937-1.248 1.21-1.945l1.05.793c.157.145.228.264.228.385 0 .265-.205.265-.752.265-.297.434-.752.84-1.3 1.2l-1.23.648c.75.6 1.526 1.152 2.302 1.56l.113.073c.457-.29.89-.72 1.346-1.2 1.024-1.177 1.116-1.488 1.392-2.28l1.094.72c.182.12.25.264.25.36 0 .24-.23.266-.387.266l-.345.047c-.363.526-.89 1.056-1.55 1.56l-1.276.79c1.437.698 3.03 1.25 4.718 1.538.14 0 .23.047.23.12 0 .097-.114.216-.388.335-.273.146-.434.336-.457.555-.045.215-.137.31-.273.31h-.066c-4.537-1.655-7.113-3.935-9.188-6.503l-.273.264c-.318.433-2.576 3.216-6.02 4.873l-.797.312h3.602l.523-.816.913.67c.137.1.182.267.182.41-.02.144-.11.286-.25.335-.137.072-.23.145-.23.24v4.27c0 .313-.09.337-.843.554-.295 0-.295-.29-.295-1.08h-3.488l-.458 2.304-.113.432h3.942l.48-.768.98.672c.228.168.34.336.34.527 0 .168-.136.455-.41.48-.204 0-.34.12-.362.288-.092.984-.252 1.92-.434 2.81-.39 1.823-.912 2.88-2.85 3.384-.092-.745-.594-1.01-1.664-1.37-.14-.023-.205-.143-.205-.287.02-.145.113-.217.227-.217h.068c.73.168 1.322.264 1.71.264.07 0 .138-.02.206-.02.957-.267 1.23-.94 1.436-2.476l.365-2.566h-3.99l-.183.72c-.068.12-.23.24-.455.265-.39 0-.64-.29-.64-.504 0-.05 0-.097.022-.146l.66-2.64.436-2.714.934.816h3.443v-3.098h-4.195l-.113-.455c-.845.312-1.69.553-2.532.744-.182-.168-.203-.19-.203-.266 0-.07.02-.095.09-.118 3.646-1.2 7.137-3.168 9.3-6.48h-7.18l-.16-.722h7.542zm-5.105 4.347c-.547 0-.615 0-.73-.338-.228-.814-.706-1.654-1.208-1.97-.09-.022-.137-.095-.137-.167 0-.048.068-.265.23-.265.272 0 2.165 1.104 2.165 2.112-.002.36-.138.6-.32.627zm11.217 8.59l.546-.91.797.624c.297.238.48.48.48.646 0 .19-.046.19-.548.312-.48 1.344-1.117 2.52-1.893 3.504l-.615.623c2.143 1.562 4.31 2.018 6.088 2.16.09 0 .158.072.158.168 0 .1-.184.24-.523.313-.318.12-.547.336-.594.576-.045.214-.137.31-.227.31h-.024c-1.664-.528-3.03-1.128-4.035-1.85l-1.39-1.128c-.502.457-1.094.89-1.664 1.248-1.756 1.105-4.148 1.682-4.285 1.682s-.228-.096-.228-.24c0-.12.068-.215.182-.264 1.938-.72 3.83-1.656 5.357-3.12l-.593-.743c-.66-.984-1.23-2.064-1.664-3.193h-1.412l-.046-.72h6.135v.003zm-3.513-5.567c0 1.465 0 2.928-1.346 3.96-.704.6-2.026 1.08-2.163 1.08-.184 0-.184-.144-.184-.19 0-.072.047-.145.137-.217 1.3-.648 2.416-1.393 2.416-3.938v-1.943l.89.526h3.032l.594-.744.957.77c.136.12.228.238.228.385 0 .215-.205.36-.39.406-.157.072-.25.217-.25.36v1.8c0 .72.183 1.01 1.118 1.01 1.115 0 1.322-.217 1.55-.938l.364-1.2c.023-.144.137-.19.273-.19s.182.096.182.287l-.09 1.225v.504l.182.265c.14.098.205.29.205.53 0 .405-.615.718-1.23.718h-1.275c-1.664 0-2.484-.455-2.416-1.92v-2.545h-2.783zm-.64 6.29c.776 1.702 1.23 2.423 2.212 3.454l.57-.67c.546-.77 1.003-1.704 1.345-2.784h-4.127zM105.512 182.395l.615-.672 1.025.744c.092.05.14.12.14.217 0 .12-.093.336-.343.406-.185.05-.3.168-.3.29v6.575c.023.145-.09.287-.227.36-.707.19-.89.24-.89-.36v-1.393H99.88l-.82 4.607h6.7l.616-.624.912.79c.092.073.137.17.137.29 0 .145-.113.312-.295.36-.115.048-.23.19-.23.407-.066 1.73-.227 3.287-.432 4.654-.434 3.17-.89 4.227-3.033 4.37-.066-.77-.752-1.13-1.64-1.272-.116-.023-.185-.096-.185-.215 0-.146.092-.29.23-.29h.067c.957.218 1.664.337 2.098.337.137 0 .23 0 .318-.023.66-.408.8-1.297 1.05-3.05.183-1.224.317-2.903.41-5.015h-6.886l-.182 1.007c-.115.385-.297.455-.686.455-.022 0-.456-.07-.456-.48v-.07c.615-2.187.98-3.94 1.115-5.21l.296-2.734 1.05.96h5.493v-4.704h-7.774l-.158-.72h7.914zm7.25-.84l1.254.168c.365.05.547.19.547.385 0 .19-.113.383-.342.48-.228.07-.34.24-.34.407v20.377c0 .408-.73.53-.89.53-.16 0-.23-.073-.23-.218v-22.13h.002zM101.66 168.092h15.206v7.945h-1.05v-6.865h-14.155v-1.08zM101.89 139.1c-2.372 3.432-4.767 5.256-4.972 5.256-.113 0-.184-.096-.184-.19 0-.073.047-.146.115-.218 1.868-1.848 3.51-3.912 4.786-6.12l1.527-2.854H96.94l-.184-.744h6.727c.8-1.777.89-2.064 1.05-2.953l1.253.48c.25.07.363.215.363.36 0 .31-.138.31-.48.31-.113 0-.184.023-.205.072l-.8 1.728h9.577l1.436-1.248 1.46 1.13c.112.07.183.216.183.384 0 .312-.228.48-.524.48h-12.492c-.547 1.08-1.162 2.136-1.824 3.118l.412.36h9.688l.502-.647.89.77c.183.143.296.31.296.504 0 .167-.115.335-.297.407s-.25.19-.25.287v12.023c0 .674-.456 1.152-2.073 1.467l-.273-.674c-.14-.217-.66-.455-1.504-.742-.16-.05-.23-.146-.23-.29.023-.118.092-.167.205-.167h.068c.8.12 1.39.192 1.824.192.48 0 .844-.05.844-.6v-3.842h-9.552v5.617c0 .287-.203.336-.91.527-.16 0-.23-.168-.23-.527V139.1zm1.138.072v3.12h9.553v-3.12h-9.552zm0 3.864v3.385h9.553v-3.384h-9.552zM105.262 119.106c1.025-.744 2.188-1.943 2.188-3.527-.25.144-.48.24-.752.24-1.004 0-1.643-.77-1.643-1.585 0-.938.55-1.73 1.643-1.73.89 0 1.96.602 1.96 2.4 0 1.92-1.276 3.434-3.054 4.705l-.342-.504z"/></g><g><path d="M59.088 251.17l1.32-1.08 1.188.962c.092.072.16.217.16.36 0 .31-.23.48-.502.48h-7.228l-.16-.722h5.222zm-.8 6.747l1.323-1.082 1.164.96c.112.073.183.218.183.386 0 .313-.23.48-.503.48h-5.606l-.182-.742h3.623zm-3.577 2.47l1.003.722h3.625l.502-.817.912.672c.137.098.182.266.182.408-.02.145-.113.29-.25.336-.113.048-.205.144-.205.24v5.854c0 .312-.093.338-.845.553-.183 0-.297-.168-.297-.553v-1.176h-3.486v1.56c0 .122-.092.24-.274.337-.774.19-.866.217-.866-.383v-7.754zm3.488-5.736l1.322-1.08 1.16.962c.116.072.185.19.185.36 0 .216-.113.478-.5.478h-5.427l-.183-.72h3.443zm.09-6.862l1.323-1.08 1.164.982c.112.05.183.19.183.36 0 .31-.23.48-.503.48h-5.446l-.16-.745h3.44v.003zm-2.436 18.096h3.486v-4.055h-3.486v4.054zm10.873 1.13c.16.095.25.237.25.358 0 .096-.09.36-.342.36-.045 0-.388-.073-.455-.073-.775.335-1.688.647-2.713.84-1.05.216-1.916.288-2.6.288-.184 0-.273-.05-.273-.19 0-.146.047-.24.16-.24 1.73-.097 4.47-1.2 5.06-1.944l.913.6zm-3.695-15.675l-.183-.72h4.675v-1.44H62.05l-.184-.72h5.654v-1.943l1.186.215c.363.05.5.19.5.385 0 .19-.09.336-.273.385-.272.096-.272.19-.272.96h3.217l1.436-1.272 1.46 1.152c.112.072.16.19.16.336 0 .05 0 .096-.022.145-.022.217-.204.36-.48.36h-5.767v1.438h2.145l1.437-1.27 1.46 1.152c.11.072.182.19.182.36 0 .286-.205.478-.523.478H63.03zm9.94 1.247l.503-.84.912.697c.137.096.182.264.182.383-.02.145-.113.29-.25.336-.137.072-.23.168-.23.264v3.984c0 .29-.09.313-.843.53-.184 0-.273-.168-.273-.53v-.813h-9.55c0 .744 0 .814-.273.96-.775.19-.867.216-.867-.384v-5.33l1.004.744h9.687zm-9.55 3.266h2.416v-2.545H63.42v2.545zm.363 1.535l1.003.72h6.11l.592-.647 1.05.722c.09.05.136.145.136.24 0 .023 0 .287-.363.383-.183.05-.272.168-.272.29v7.056c.045.29-.16.337-.8.505-.317 0-.317-.215-.317-1.152h-5.995c0 .744 0 .816-.272.96-.73.192-.866.218-.866-.384v-8.69h-.004zm1.14 1.44v1.536h5.997v-1.537h-5.996zm0 2.257v1.44h5.997v-1.44h-5.996zm0 2.16v1.512h5.997v-1.512h-5.996zm2.052-7.392h2.418v-2.545h-2.418v2.545zm3.078 10.847c1.664.05 4.24.72 4.24 1.656 0 .264-.205.553-.48.553-.158 0-.363-.073-.592-.192-1.71-.984-3.646-1.44-4.423-1.607-.137-.024-.228-.12-.228-.24s.066-.167.204-.167h1.278v-.003zm.477-10.847h2.438v-2.545H70.53v2.545zM56.307 228.835c-.957 2.016-2.234 3.623-2.395 3.623-.068 0-.183-.047-.183-.19 0-.07.02-.145.066-.218 2.668-4.223 3.648-9.096 3.648-11.184l1.3.096c.318.023.455.145.455.336s-.115.336-.297.336c-.16 0-.273.072-.273.17-.342 1.703-.844 3.406-1.48 5.062.684.19.75.217.75.408 0 .096-.066.217-.204.287-.16.1-.25.218-.25.313v14.857c0 .143-.092.238-.274.287-.73.19-.865.217-.865-.287v-13.895zm3.464-4.514l1.278.194c.363.047.547.19.547.383 0 .168-.114.36-.342.457-.23.096-.343.264-.343.432v14.736c0 .145-.092.29-.25.385-.207.05-.594.145-.64.145-.16 0-.25-.072-.25-.19v-16.54zm10.966 5.546l1.39-1.27 1.392 1.08c.16.144.252.31.252.454 0 .266-.184.457-.48.457h-4.833c-.045 1.56-.137 2.93-.25 3.96h3.305l1.46-1.27 1.437 1.15c.112.07.183.216.183.384 0 .337-.273.458-.525.458H68.87c1.232 2.783 3.216 4.8 6.065 5.664.09.023.137.096.137.19 0 .095-.184.192-.502.265s-.547.266-.615.504c-.068.192-.137.29-.205.29-.09 0-3.716-1.873-5.402-6.912h-.23c-.317 1.463-.706 2.424-1.55 3.646-2.05 3-5.902 3.793-5.994 3.793s-.16-.12-.16-.24c0-.07.045-.168.137-.19 4.446-1.562 6.09-4.97 6.452-7.01h-4.764l-.184-.722h5.062c.138-.982.205-2.352.205-3.982h-2.803l-.342.672c-.775 1.297-1.732 2.377-1.96 2.377-.093 0-.206-.096-.206-.217 0-.072.044-.145.09-.215.616-.842 1.14-1.777 1.48-2.715.753-1.822.753-2.375.753-3.12l1.322.265c.296.05.434.193.434.36 0 .216-.14.312-.32.312-.183 0-.318.05-.318.12l-.593 1.464h5.876zm-8.502-3.312l-.184-.72h7.73l.455-3.312h-6.907l-.16-.72h7.113l.64-.722.73.816c.158.12.228.264.228.408 0 .215-.068.357-.297.432-.182.047-.296.168-.296.36l-.363 2.735h.685l1.436-1.27 1.46 1.15c.115.072.184.19.184.36 0 .288-.205.48-.523.48H62.235v.004zM54.528 196.08l1.23 1.103h3.214l.57-.768 1.05.72c.044.024.066.12.066.24 0 .24-.09.407-.296.48-.184.07-.252.167-.252.216v15.482c0 .287-.523.455-.82.455-.228 0-.318-.145-.318-.432v-1.416h-3.307v2.327c0 .31-.273.383-.91.553-.16 0-.23-.193-.23-.553l.003-18.408zm1.14 8.135h3.307v-6.29h-3.307v6.29zm0 7.225h3.307v-6.48h-3.307v6.48zm6.383-7.897l-.182-.72h4.947v-3.866h-5.562l-.184-.744h5.744v-3.238l1.187.215c.343.05.5.19.5.385 0 .19-.112.336-.27.385-.184.072-.274.19-.274.36v1.895h3.738l1.437-1.248 1.46 1.127c.115.072.184.22.184.387 0 .312-.23.48-.523.48H67.96v3.863h2.76l1.436-1.27 1.46 1.15c.112.073.183.218.183.36 0 .264-.184.48-.525.48h-11.22zm7.616 3.768v-3.048l1.16.168c.39.05.594.217.594.432 0 .217-.113.336-.318.36-.205.048-.297.146-.297.288v1.8h1.322l1.414-1.177 1.323 1.057c.09.072.158.217.158.36 0 .265-.136.505-.5.505h-3.716v7.657c0 .287-.184.6-.502.936-.297.312-.912.527-1.732.625 0-.89-.958-1.32-1.527-1.56-.183-.05-.25-.146-.25-.267 0-.19.204-.168.297-.143l2.05.287.41-.05c.048-.046.116-.167.116-.31v-7.178h-8.23l-.182-.744h8.412v.003zm-3.854 5.714c-.068.264-.364.36-.48.36-.342 0-.5-.29-.547-.41-.456-1.56-1.3-3-2.144-3.527-.066-.05-.09-.12-.09-.193 0-.12.046-.215.183-.215.456 0 2.734 1.966 3.077 3.335l.002.65zM54.71 173l1.05.91h1.23l.684-2.136.273-1.824v-.744l1.368.12c.272.048.41.167.41.335s-.068.29-.23.337l-.317.193-.8 2.11-.772 1.608h2.986l.547-.768 1.048.72c.068.048.09.12.09.24 0 .31-.25.433-.316.456-.185.07-.252.168-.252.238v14.066c0 .12-.113.24-.23.31-.798.17-.888.17-.888-.286v-1.416h-4.74v2.232c0 .31-.275.383-.913.55-.16 0-.23-.188-.23-.55v-16.703zm1.142 7.463h4.74v-5.834h-4.74v5.833zm0 6.287h4.74v-5.545h-4.74v5.545zm11.898 2.303c1.14.387 1.983.602 2.463.602.523 0 .957-.816 1.186-1.367.25-.648 1.185-4.297 1.185-13.754H65.7l-.297.768c-1.117 2.664-2.576 4.488-2.78 4.488-.07 0-.16-.07-.16-.19 0-.07.022-.145.068-.218 2.213-3.574 3.283-7.775 3.283-10.15l1.322.096c.297.023.434.145.434.336s-.115.336-.274.336c-.183 0-.297.072-.297.168-.274 1.225-.64 2.473-1.05 3.648h6.61l.616-.625.912.745c.113.098.16.217.16.336-.023.146-.14.267-.273.313-.252.072-.252.19-.252 1.225 0 6.432-.66 11.28-1.254 12.816-.753 1.87-1.527 2.375-2.92 2.52-.112-.96-.843-1.368-1.937-1.608-.113-.023-.182-.096-.182-.19 0-.12.093-.288.273-.288h.046v-.005zm-2.53-10.39c0-.072.046-.217.183-.217.547 0 3.26 3.098 3.26 4.537 0 .215-.09.79-.523.79-.434 0-.547-.382-.57-.478-.434-1.943-1.275-3.648-2.256-4.465-.072-.048-.093-.095-.093-.167zM58.95 147.518l1.46-1.248 1.436 1.15c.115.05.184.19.184.36 0 .31-.23.48-.502.48H54.21l-.182-.745h4.923v.003zm-4.24 9.12l1.117.84h3.67l.593-.67 1.05.718c.09.05.137.145.137.24 0 .12-.09.336-.364.408-.183.047-.273.168-.273.287v6.77c0 .146-.092.265-.23.337-.728.19-.888.217-.888-.336v-1.704h-3.67v1.682c0 .12-.092.24-.274.312-.752.19-.866.217-.866-.36v-8.523zm3.533-5.737l1.46-1.27 1.436 1.152c.114.072.183.217.183.385 0 .336-.273.455-.523.455h-5.86l-.183-.72h3.486zm0 3.29l1.46-1.27 1.436 1.15c.114.07.183.216.183.36 0 .264-.184.48-.523.48h-5.86l-.183-.72h3.486zm0-9.672l1.46-1.25 1.436 1.152c.114.047.183.19.183.36 0 .31-.23.478-.523.478h-5.79l-.16-.742h3.395v.002zm-2.39 18.29h3.67v-4.61h-3.67v4.61zm17.893 1.245c0 .408-.23 1.178-2.074 1.465-.16-.814-.39-1.104-2.144-1.68-.138-.05-.23-.12-.23-.24s.07-.19.206-.19h.068c1.186.263 2.006.384 2.463.384.205 0 .568 0 .568-.553v-17.882H62.96l-.16-.744h9.803l.502-.648.89.77c.183.143.296.31.296.504 0 .19-.112.336-.294.408-.16.07-.252.19-.252.287v18.12h.002zm-5.882-15.504l1.437-1.25 1.46 1.153c.113.05.183.19.183.36 0 .31-.228.48-.524.48h-7.022l-.183-.745h4.65zm-4.262 3.12l1.004.744h3.966l.616-.672 1.025.72c.09.048.137.144.137.24 0 .12-.114.335-.342.407-.184.048-.297.167-.297.286v6.77c.023.145-.09.287-.228.336-.686.19-.89.24-.89-.336v-1.416H64.74v1.85c0 .12-.092.238-.273.336-.73.19-.867.215-.867-.385v-8.88h.002zm1.14 6.36h3.852v-4.896H64.74v4.896zM71.42 129.956l.616-.648 1.024.72c.092.05.14.146.14.24 0 .146-.116.36-.345.384-.182.05-.297.17-.27.29v8.567c0 .286-.48.478-.8.478-.23 0-.343-.168-.343-.48v-1.513H61.184v1.465c0 .266-.547.434-.866.434-.183 0-.272-.145-.272-.434v-8.64c-2.69.98-5.517 1.343-5.54 1.343-.137 0-.25-.047-.25-.168 0-.096.046-.168.138-.215 9.643-2.04 13.106-6.553 14.953-10.852H62.03c-.593.912-1.3 1.754-2.006 2.496.502.22 1.05.602 1.618 1.105.936.767 1.39 1.343 1.39 2.183 0 .12-.136.434-.5.434-.272 0-.48-.168-.524-.336-.935-2.04-1.982-2.88-2.303-3.07-2.256 2.183-4.514 3.118-4.56 3.118-.067 0-.204-.047-.204-.19 0-.073.046-.12.114-.146 3.488-1.92 6.86-6.24 7.317-9.05l1.21.386c.25.07.388.19.388.36v.022c-.047.217-.115.24-.594.36l-.865 1.606h6.905l.547-.912.8.625c.317.24.478.48.478.647s-.068.19-.57.357c-1.846 3.984-4.582 6.986-8.57 9.025h9.322v.006zm-10.234.718v6.602h10.258v-6.602H61.186zM56.922 99.217c-1.162 2.018-2.69 3.695-2.918 3.695-.068 0-.183-.096-.183-.19 0-.07.046-.145.092-.218 3.01-3.96 4.49-8.543 4.674-10.703l1.276.265c.296.05.435.168.435.336 0 .097 0 .337-.32.337-.182 0-.297.05-.297.12-.523 1.73-1.207 3.384-2.006 4.97.774.264.867.287.867.455 0 .096-.067.217-.228.29-.16.095-.25.214-.25.286v14.688c0 .146-.093.266-.273.29-.73.19-.867.214-.867-.29v-14.33zm9.096-2.904h-2.233l-.66 1.56c-1.07 2.257-2.76 4.368-3.08 4.368-.112 0-.18-.095-.18-.19 0-.07.044-.145.09-.217 2.69-3.695 3.716-7.992 3.92-9.527v-.576l1.323.19c.297.05.434.192.434.386 0 .19-.137.312-.297.312-.182 0-.318.047-.318.145-.252.936-.57 1.92-.936 2.855h7.98l1.414-1.27 1.393 1.08c.137.144.227.31.227.454 0 .168-.09.457-.455.457h-7.48v4.606h4.105l1.412-1.248 1.37 1.08c.157.145.25.312.25.457 0 .287-.206.455-.456.455h-6.68v4.512h4.104l1.412-1.27 1.37 1.078c.157.145.25.338.25.48 0 .287-.206.432-.456.432h-6.68v6.723c0 .336-.82.432-.867.432-.183 0-.273-.145-.273-.432V96.313h-.002zM72.4 86.407c0 .72-.64 1.225-2.074 1.488-.068-.816-.48-1.13-1.87-1.607-.157-.05-.204-.145-.204-.24 0-.05 0-.19.184-.19h.068c1.025.19 1.777.286 2.188.286.23 0 .57 0 .57-.553V79.04h-6.246v8.498c0 .36-.82.455-.867.455-.183 0-.274-.144-.274-.454v-8.52h-6.313c0 1.08-.64 3.983-1.392 5.64-.454 1.033-1.618 3.217-2.028 3.217-.112 0-.158-.145-.158-.215 0-.05.02-.098.046-.145 1.73-3 2.804-6.36 2.804-16.012v-5.16l1.026.817h13.403l.523-.648.89.77c.183.144.296.31.296.503s-.113.336-.295.408c-.184.073-.273.192-.273.29v17.928H72.4zm-8.525-12.89h-5.95c-.046 1.73-.136 3.36-.272 4.802h6.223v-4.802zm0-5.616H57.97v4.897h5.905V67.9zm1.14 4.897h6.247v-4.895h-6.246v4.895zm0 5.522h6.247v-4.802h-6.246v4.8zM65.698 47.72c0 .626-.593 1.347-1.254 1.347s-1.276-.648-1.276-1.346c0-.503.342-1.343 1.276-1.343.48 0 1.254.504 1.254 1.344zm-1.254 7.515c-.82 0-1.276-.553-1.276-1.32 0-1.008.685-1.344 1.276-1.344.48 0 1.254.337 1.254 1.345 0 1.37-.593 2.475-1.778 3.29l-.363-.29c.89-.672 1.322-1.27 1.322-1.824l-.436.145zM56.967 28.793c.092 0 .16.072.16.193 0 3.336-1.322 5.64-2.233 5.64-.5 0-.616-.407-.616-.67 0-.146.184-.386.48-.626.75-.72 1.275-1.44 1.55-2.135.273-.72.455-1.465.502-2.21 0-.12.044-.192.157-.192zM70.44 15.52l.616-.647 1.025.72c.093.05.138.145.138.24 0 .072-.045.336-.342.408-.184.05-.298.145-.298.265V26.66c.023.142-.09.286-.228.358-.706.19-.89.24-.89-.36V25.53H58.24v.912c0 .312-.273.385-.912.553-.158 0-.228-.193-.228-.553V14.61l1.05.91h12.29zm-6.657.746h-5.54v3.864h5.54v-3.864zm-5.54 4.584v3.96h5.54v-3.96h-5.54zm2.166 6.936l1.504.457c.184.047.273.143.273.336 0 .19-.137.31-.344.335-.205.023-.295.145-.295.312v5.088c0 .264.09.31.434.432h6.087c.637 0 1.048-.385 1.253-1.512l.272-1.752c0-.098.092-.168.23-.168s.204.07.204.215l-.07 1.848c0 .602.115 1.008.365 1.178.205.12.343.31.343.504 0 .406-.273.55-.774.814h-8.822c-.547-.264-.66-.336-.66-1.03l-.003-7.058zm6.7 2.136c0 .12-.067.48-.522.48-.205 0-.388-.096-.48-.29-.478-.767-1.55-2.423-2.85-2.878-.092-.05-.16-.096-.16-.168 0-.168.093-.266.23-.266.547 0 3.01 1.273 3.646 2.496l.137.626zm-2.186-9.793h5.54v-3.864h-5.54v3.863zm0 .72v3.96h5.54v-3.96h-5.54zm5.54 8.065c0-.05.066-.217.228-.217.523 0 3.646 3.312 3.646 4.922 0 .072 0 .79-.5.79-.457 0-.55-.382-.57-.454-.64-2.545-1.915-4.32-2.69-4.873-.092-.05-.115-.096-.115-.168z"/></g><path d="M69.852 274.98c0 .218-.252.397-.973.397-.505 0-2.448.18-3.78.287.035.072.035.145.035.217 0 .108-.035.218-.07.325-.107.287-.252 1.764-.252 2.195-.037.72-.037 1.8-.037 2.807 0 .828.072 2.377.107 2.81 0 .43-.574 1.763-1.008 1.763-.396 0-.79-1.26-.72-2.557.072-.684.252-3.06.252-5.037 0-.938-.036-1.766-.146-2.305-.897.146-2.34.397-3.347.647-.61.182-1.475-.574-1.727-.863-.145-.145-.252-.324-.252-.432 0-.182.215-.324.756-.324.936 0 1.943-.072 2.663-.145 2.304-.217 4.354-.504 5.472-.72.646-.144 1.08-.216 1.403-.216.252 0 .468.035.647.143.4.22.977.69.977 1.01zm.035 15.013c0 .252-.287.396-1.115.324-.217-.037-.432-.037-.684-.037-1.152 0-2.81.18-4.177.36-.646.07-2.627.358-3.958.72-.612.145-1.478-.576-1.73-.863-.143-.145-.25-.36-.25-.504 0-.217.18-.396.72-.396.938 0 1.943-.07 2.664-.145 2.304-.252 4.212-.504 5.363-.756.395-.072.755-.145 1.15-.145.36 0 .72.073 1.007.253.398.29 1.01.83 1.01 1.19zm-5.29 5.83c.395.324.827.72.827.973 0 .287-.54.648-.828 1.44-.36.862-1.477 3.382-2.95 5.327-.47.646-1.08 1.475-.577 1.475.43 0 1.655-.072 2.77-.18.973-.107 2.088-.252 2.592-.36.396-.07 1.008-.358 1.477-.358.18 0 .322.035.466.145.576.504 1.478 1.115 1.297 1.73-.07.32-.324.394-.61.394-.29 0-.613-.073-.865-.146-.61-.107-1.366-.145-2.23-.145-1.044 0-2.16.07-3.167.18-.863.108-1.98.433-2.81.72-.574.217-1.15-.504-1.654-1.15-.072-.145-.144-.252-.144-.36 0-.433.575-.792 1.043-1.26 1.403-1.476 2.376-3.022 3.456-5.616.36-.826.47-1.475.47-1.98 0-.25-.037-.466-.072-.647-.035-.105-.035-.215-.035-.322 0-.434.215-.576.467-.54.18.036.396.144.576.288l.5.39zm12.274 2.016c1.403 1.33 1.046 2.304-.18 1.33-.937-.755-2.23-1.835-3.993-3.202-.83-.646-1.874-1.367-2.736-1.943-.9-.646-.288-3.275 1.225-1.8 1.62 1.62 4.858 4.858 5.686 5.614z"/><g><path d="M54.11 401.41l-.158-.722h2.188l-.66-13.97 1.186.722.89-.648c.41-.385.82-.768 1.07-1.297l1.14.504c.23.07.318.216.318.36 0 .168-.158.383-.388.383l-.547.145-.89.602-1.552.646.137 3.457h.548l1.254-1.297 1.163 1.152c.113.096.158.24.158.385 0 .264-.228.48-.455.48h-2.645l.182 3.77h.343l1.254-1.272 1.163 1.15c.113.073.158.218.158.362 0 .238-.205.504-.455.504h-2.438l.23 3.863h3.35v-15.313l1.003.863h5.22l.548-.623 1.025.744c.093.048.138.144.138.265 0 .215-.158.383-.317.455-.137.072-.228.217-.228.36v13.25h3.19l.252-3.864h-2.302l-.184-.744h2.553l.298-3.77h-2.666l-.184-.72h2.918l.273-3.962h-2.92l-.138-.72h3.078l.594-.72.797.768c.16.12.253.29.253.457 0 .19-.092.336-.273.383-.184.072-.297.22-.297.36l-.89 12.554h.046l1.255-1.318 1.184 1.15c.09.098.136.24.136.36 0 .263-.182.503-.455.503H54.11v.002zm6.773 1.126l1.07.648c.184.12.297.264.297.408 0 .023-.046.312-.318.312l-.32-.05c-.09 0-.182.024-.25.073-2.027 2.137-5.995 3.145-6.45 3.145-.138 0-.25-.047-.25-.19 0-.12.067-.192.18-.24 2.807-.792 4.835-2.474 5.86-3.722l.18-.384zm.912-1.848H66.9v-13.705h-5.105v13.705zm2.416-11.45l1.117-1.103 1.005.96c.09.097.137.24.137.358 0 .217-.16.53-.458.53H62.66l-.158-.745h1.71zm-1.413 2.81l.55.385h1.958l.343-.455.638.48.092.263c-.137.218-.16.24-.297.41v5.28c0 .12-.067.24-.204.287-.5.12-.568.145-.568-.264v-.96h-1.732v.937c0 .096-.068.19-.158.24-.55.12-.617.143-.617-.266v-6.336h-.003zm.775 4.705h1.732v-3.602h-1.732v3.603zm4.24 6.527c2.007.602 4.787 2.305 4.787 3.12 0 .288-.206.6-.524.6-.205 0-.388-.095-.615-.335-1.458-1.344-3.282-2.496-5.31-3.432-.14-.05-.184-.145-.184-.24.022-.12.113-.168.25-.168l1.597.455zM59.014 372.255H74.22v7.945h-1.05v-6.865H59.014v-1.08zM59.24 343.263c-2.37 3.432-4.766 5.256-4.97 5.256-.113 0-.183-.097-.183-.192 0-.072.045-.145.113-.217 1.87-1.847 3.512-3.91 4.787-6.118l1.527-2.857H54.29l-.183-.742h6.727c.797-1.777.89-2.064 1.05-2.953l1.253.48c.25.07.363.215.363.36 0 .31-.138.31-.48.31-.112 0-.18.023-.204.072l-.797 1.73h9.573l1.436-1.25 1.458 1.13c.113.07.184.217.184.385 0 .31-.23.48-.525.48h-12.49c-.547 1.08-1.16 2.136-1.823 3.118l.41.36h9.688l.502-.647.89.77c.182.143.295.31.295.504 0 .168-.114.336-.297.408-.183.07-.25.19-.25.287v12.023c0 .674-.457 1.152-2.075 1.465l-.273-.672c-.137-.217-.66-.455-1.504-.744-.16-.05-.228-.146-.228-.288.022-.12.093-.168.205-.168h.067c.8.12 1.392.19 1.824.19.48 0 .844-.048.844-.6v-3.84H60.38v5.616c0 .287-.206.336-.91.527-.16 0-.23-.168-.23-.527v-13.657zm1.14.072v3.12h9.554v-3.12H60.38zm0 3.863v3.385h9.554v-3.385H60.38zM62.614 323.95c1.026-.744 2.188-1.943 2.188-3.527-.252.145-.48.24-.752.24-1.004 0-1.643-.768-1.643-1.584 0-.94.547-1.73 1.643-1.73.89 0 1.96.6 1.96 2.398 0 1.92-1.275 3.434-3.056 4.705l-.34-.503z"/></g><g><path d="M26.3 235.366c0 1.488-1.37 2.928-2.782 2.928-1.527 0-2.805-1.416-2.805-2.928 0-1.584 1.23-2.95 2.805-2.95 1.298 0 2.78 1.247 2.78 2.95zm-2.782-2.088c-1.14 0-1.984.89-1.984 2.088 0 .984.73 2.088 1.984 2.088 1.025 0 1.982-.96 1.982-2.088 0-.6-.183-1.08-.593-1.488-.41-.408-.866-.6-1.39-.6zM16.04 214.8c.09 0 .16.07.16.19 0 3.337-1.323 5.642-2.235 5.642-.5 0-.615-.408-.615-.672 0-.145.183-.385.48-.625.75-.72 1.275-1.44 1.55-2.137.273-.72.455-1.463.5-2.207 0-.12.046-.19.16-.19zm13.472-13.274l.615-.648 1.026.72c.09.05.138.146.138.24 0 .07-.046.335-.342.407-.185.05-.297.146-.297.266v10.154c.023.145-.092.287-.228.36-.705.19-.89.24-.89-.36v-1.13H17.315v.913c0 .312-.273.385-.912.553-.16 0-.23-.19-.23-.553v-11.833l1.05.912h12.29zm-6.657.744h-5.54v3.863h5.54v-3.863zm-5.54 4.584v3.96h5.54v-3.96h-5.54zm2.166 6.936l1.505.457c.183.047.274.145.274.336s-.138.312-.343.336-.297.144-.297.31v5.09c0 .263.092.31.434.43h6.086c.64 0 1.05-.382 1.255-1.51l.272-1.753c0-.096.092-.168.23-.168s.204.07.204.214l-.067 1.85c0 .6.115 1.008.365 1.176.205.12.342.312.342.504 0 .408-.273.553-.775.816h-8.82c-.55-.264-.662-.336-.662-1.03l-.002-7.06zm6.704 2.137c0 .12-.068.48-.523.48-.204 0-.387-.096-.478-.29-.48-.767-1.55-2.423-2.85-2.878-.093-.05-.16-.097-.16-.17 0-.167.092-.263.23-.263.546 0 3.008 1.27 3.645 2.494l.137.627zm-2.19-9.794h5.54v-3.863h-5.54v3.863zm0 .72v3.962h5.54v-3.96h-5.54zm5.54 8.066c0-.05.068-.218.23-.218.52 0 3.645 3.312 3.645 4.922 0 .07 0 .79-.502.79-.456 0-.547-.382-.568-.454-.64-2.545-1.916-4.32-2.69-4.873-.09-.05-.116-.096-.116-.168zM13.28 183.14l-.183-.743h6.566c0-.24-.64-1.752-1.21-2.064-.09-.02-.136-.096-.136-.168 0-.096.068-.264.23-.264.136 0 .773.29 1.343.84.775.722.775.77.775 1.634h4.72c.364-.768.684-1.607.864-2.447l1.163.406c.25.072.363.193.363.36 0 .073-.045.384-.342.384-.16 0-.297.05-.364.145l-1.003 1.178h4.97l1.437-1.248 1.46 1.15c.09.05.16.193.16.336 0 .266-.138.506-.503.506H13.28v-.003zm2.6 9.435c.067 0 .136.072.136.19 0 2.378-1.14 5.02-2.256 5.02-.387 0-.57-.362-.57-.626 0-.17.068-.384.5-.696.708-.576 1.21-1.176 1.46-1.8.274-.6.48-1.25.547-1.896 0-.146.07-.193.182-.193zM14.26 179.3l-.184-.74h8.596v-2.4l1.186.214c.363.05.523.193.523.385s-.113.335-.297.384c-.183.07-.272.217-.272.36v1.056h5.973l1.437-1.248 1.46 1.13c.112.07.182.214.182.382 0 .312-.228.48-.522.48h-18.08v-.003zm14.018 5.45l.593-.648 1.05.72c.09.05.136.146.136.24 0 .024 0 .288-.364.386-.184.047-.297.168-.297.287v5.832c.022.145-.093.29-.206.36-.73.19-.912.24-.912-.36v-.936H18.114v.815c0 .12-.09.24-.272.336-.73.194-.867.218-.867-.382v-7.37l1.003.722H28.28zm-10.167.72v1.823H28.28v-1.824H18.113zm0 2.544v1.896H28.28v-1.896H18.113zm.48 4.033l1.505.432c.182.048.272.167.272.358s-.137.312-.342.336c-.206.023-.32.145-.32.29v3.31c0 .288.07.312.458.456h6.61c.685 0 1.05-.434 1.162-1.367l.204-1.514c0-.12.093-.192.205-.192.138 0 .205.072.205.217l.068 1.63c.023.53.184.89.434 1.034.183.118.318.31.318.478 0 .457-.273.602-.773.842h-9.35c-.522-.266-.66-.336-.66-1.033v-5.28h.002zm5.79 2.832c-.685-1.44-1.62-2.378-2.233-2.642-.09-.05-.16-.096-.16-.19 0-.1.046-.24.23-.24.388 0 3.168 1.487 3.168 2.782 0 .266-.045.602-.48.602-.275-.002-.458-.12-.525-.313zm5.244-2.16c0-.1.067-.24.205-.24.568 0 3.396 2.83 3.396 4.224 0 .385-.16.744-.524.744-.273 0-.455-.096-.568-.432-.48-1.896-1.527-3.553-2.396-4.13-.068-.048-.113-.12-.113-.167zM13.782 156.094l1.05.912h1.23l.684-2.137.273-1.825v-.744l1.366.12c.273.05.41.168.41.336s-.067.29-.228.336l-.32.193-.797 2.11-.773 1.608h2.986l.547-.768 1.05.72c.067.048.09.12.09.24 0 .31-.25.433-.318.456-.183.073-.25.17-.25.24v14.065c0 .12-.114.24-.23.312-.797.168-.89.168-.89-.29v-1.415h-4.74v2.232c0 .312-.274.383-.913.553-.16 0-.23-.19-.23-.553v-16.7h.002zm1.14 7.465h4.742v-5.835h-4.742v5.834zm0 6.286h4.742V164.3h-4.742v5.546zm11.9 2.305c1.14.386 1.982.6 2.462.6.522 0 .957-.813 1.185-1.366.25-.648 1.186-4.297 1.186-13.754h-6.884l-.297.77c-1.117 2.664-2.576 4.486-2.78 4.486-.07 0-.16-.07-.16-.19 0-.07.022-.145.067-.216 2.21-3.576 3.283-7.777 3.283-10.152l1.322.096c.297.023.434.145.434.336s-.113.336-.272.336c-.184 0-.297.072-.297.168-.272 1.225-.638 2.473-1.048 3.648h6.61l.615-.625.912.744c.112.1.158.218.158.337-.02.146-.137.266-.273.312-.25.07-.25.19-.25 1.224 0 6.432-.66 11.28-1.255 12.816-.752 1.873-1.526 2.377-2.918 2.52-.112-.96-.844-1.368-1.938-1.606-.112-.025-.182-.098-.182-.193 0-.118.092-.286.273-.286h.046v-.003zm-2.53-10.392c0-.072.046-.217.183-.217.547 0 3.26 3.1 3.26 4.538 0 .215-.092.79-.523.79-.433 0-.547-.382-.57-.478-.434-1.943-1.276-3.648-2.258-4.465-.07-.048-.093-.094-.093-.167zM14.307 129.38v6.913h14.635v1.08H13.258v-7.992h1.05zM14.125 117.24v-1.058l1.367.217c.32.046.456.167.456.356 0 .193-.09.312-.296.36-.184.048-.296.146-.296.265l-.183 2.065c.684 1.393 1.094 2.062 1.8 2.81v-8.786h-3.692l-.18-.722h3.874v-3.576h-2.896l-.16-.742h3.056v-4.08l1.186.215c.365.05.523.19.523.385s-.113.336-.295.383c-.183.05-.273.193-.273.36v2.737h.594l1.298-1.08 1.186.982c.113.05.182.19.182.36 0 .31-.228.48-.523.48h-2.735v3.575h1.026l1.322-1.08 1.162.96c.113.07.182.216.182.384 0 .12 0 .456-.5.456h-3.19v4.25h.865l1.254-1.057 1.14.862c.183.168.228.336.228.504 0 .336-.273.408-.456.408H18.12v4.705c2.325 1.343 5.745 1.606 10.213 1.606 1.756 0 3.624-.072 5.562-.19.113 0 .183.046.183.144 0 .072-.092.215-.364.36-.273.144-.435.358-.48.645-.045.29-.16.434-.25.434-.866.022-1.688.022-2.462.022-10.51 0-13.474-1.057-15.48-5.688l-.067.768c-.318 1.896-.865 3.553-1.754 5.064-.067.07-.136.096-.204.096-.137 0-.184-.12-.184-.215 0-.05 0-.072.023-.12.843-2.16 1.07-4.657 1.14-5.425l.13-3.403zm13.336 6.694c0 .12-.092.24-.228.312-.798.19-.89.215-.89-.312V119.4c-.64.454-1.32.886-2.028 1.247l-2.028.79c-.09.05-.158.218-.158.458 0 .31-.23.455-.365.455-.16 0-.297-.145-.434-.527l-.502-1.537 1.163-.047.524-.122v-13.2H20.94l-.183-.72h6.61l1.46-1.273 1.436 1.152c.115.072.184.217.184.36 0 .265-.184.48-.502.48H27.46v17.017zm-3.83-13.537h2.714v-3.48H23.63v3.48zm0 4.514h2.714v-3.77H23.63v3.77zm0 4.92c.845-.167 1.848-.67 2.714-1.128v-3.072H23.63v4.2zm7.934-4.92c.273-1.368.523-3.07.66-5.112l.047-.264h-3.83l-.16-.72h3.9l.614-.817.957.912c.16.12.23.265.23.407 0 .168-.092.29-.297.336-.182.05-.318.145-.318.266-.273 3.358-.707 5.255-1.39 7.247l.91 1.92c.273.672 1.003 2.447 1.003 3.48 0 .408-.205.672-.57.672-.455 0-.523-.528-.568-.745-.365-1.297-.8-2.64-1.346-3.96-1.05 2.4-3.055 4.2-3.236 4.2-.113 0-.183-.12-.183-.217 0-.047.022-.12.067-.168 1.025-1.225 1.802-2.447 2.303-3.623l.525-1.395c-.686-1.56-1.438-2.975-2.213-4.248-.045-.072-.068-.12-.068-.168 0-.096.067-.215.183-.215.045 0 .113.024.16.07l1.572 2.112.752 1.152.297-1.123zM13.19 96.694l-.16-.72h2.187l-.66-13.97 1.185.72.89-.647c.41-.383.82-.768 1.07-1.295l1.14.504c.23.072.32.215.32.36 0 .167-.16.384-.388.384l-.547.143-.89.602-1.55.648.137 3.455h.547l1.255-1.295 1.164 1.15c.112.098.16.24.16.385 0 .264-.23.48-.458.48h-2.645l.184 3.768h.343l1.254-1.27 1.162 1.15c.114.073.16.216.16.36 0 .24-.206.504-.456.504h-2.44l.23 3.865h3.35V80.66l1.004.866h5.22l.548-.625 1.025.745c.092.05.138.145.138.264 0 .216-.16.384-.318.456-.137.072-.23.215-.23.36v13.25h3.192l.25-3.866H28.26l-.184-.744h2.554l.297-3.768H28.26l-.184-.72h2.918l.272-3.962h-2.918l-.137-.72h3.08l.59-.72.8.768c.16.12.25.287.25.455 0 .192-.09.335-.272.384-.183.072-.296.217-.296.36l-.89 12.552h.046l1.254-1.318 1.186 1.15c.092.098.137.24.137.36 0 .265-.183.505-.455.505H13.19zm6.77 1.13l1.07.647c.183.12.297.265.297.407 0 .023-.046.312-.32.312l-.317-.048c-.092 0-.184.023-.25.07-2.03 2.137-5.997 3.146-6.453 3.146-.137 0-.25-.05-.25-.193 0-.12.068-.19.182-.24 2.804-.79 4.833-2.47 5.858-3.72l.183-.382zm.913-1.85h5.105V82.27h-5.105v13.705zm2.416-11.448l1.115-1.105 1.003.962c.092.096.137.238.137.36 0 .216-.158.526-.455.526h-3.353l-.16-.744h1.712v.002zm-1.415 2.808l.547.383h1.96l.343-.455.64.48.09.264c-.136.217-.16.24-.296.408v5.28c0 .12-.07.24-.206.288-.502.12-.57.143-.57-.266v-.96h-1.73v.937c0 .096-.068.19-.16.24-.548.12-.615.145-.615-.266v-6.334h-.005zm.775 4.704h1.732v-3.6H22.65v3.6zm4.24 6.53c2.007.6 4.788 2.304 4.788 3.118 0 .29-.205.602-.523.602-.205 0-.39-.096-.616-.336-1.46-1.346-3.283-2.496-5.313-3.434-.137-.05-.182-.145-.182-.24.02-.12.112-.168.25-.168l1.596.457zM18.09 69.358h15.207V77.3h-1.05V70.44H18.09v-1.08zM14.307 39.38v6.913h14.635v1.08H13.258V39.38h1.05zM21.236 16.102l1.438-1.272 1.46 1.152c.112.072.18.216.18.36 0 .264-.18.48-.522.48H18.32c-.685 2.04-1.62 3.983-2.735 5.784l1.39-.215c1.643-.335 3.08-.77 4.333-1.177-.273-.527-.684-1.295-1.3-1.8-.067-.022-.09-.07-.09-.144 0-.048.046-.216.204-.216.57 0 3.077 2.83 3.077 4.223 0 .096-.068.72-.548.72-.364 0-.522-.335-.547-.48l-.524-1.702c-2.825 1.295-6.085 2.04-7.043 2.207-.09 0-.183.168-.183.385 0 .215-.16.383-.365.383-.16 0-.297-.12-.388-.36l-.547-1.75.798.07 1.23-.095c.25-.264 1.003-2.473 1.3-3.432l.64-2.4h-3.74l-.182-.72h8.136zm-3.624 12.072h-3.967l-.183-.744h4.15v-3.336l1.162.24c.365.047.523.168.523.36s-.113.335-.295.384c-.184.072-.252.215-.252.36v1.99h2.166l1.322-1.056 1.186.96c.093.048.16.192.16.337 0 .263-.137.503-.502.503H18.75v4.824c1.596-.504 3.17-1.152 4.72-1.896.046-.022.09-.048.137-.048.16 0 .228.193.228.29 0 .07-.045.144-.137.19-2.69 1.705-5.768 3-9.188 3.697-.09.022-.16.167-.205.382-.022.312-.25.457-.364.457-.16 0-.318-.194-.41-.554l-.43-1.558h1.162c.752-.072 1.893-.31 3.352-.623l-.002-5.16zm13.883-7.8c-.204 2.88-.73 6.672-2.6 9.865 1.14 1.534 2.508 3.384 5.176 4.392.14.05.206.12.206.217-.022.095-.23.19-.524.263-.318.047-.548.24-.615.48-.068.216-.137.31-.23.31-.02 0-.045 0-.067-.022-1.002-.67-2.826-2.208-4.49-4.823-2.234 3.312-5.334 4.465-7.98 4.896-.045.023-.066.023-.09.023-.113 0-.205-.12-.205-.24 0-.096.068-.168.16-.19 4.97-1.466 7.09-4.85 7.477-5.618-1.3-2.688-2.05-6.05-2.324-7.656-.64 1.393-1.73 3.168-1.983 3.168-.067 0-.205-.072-.205-.19 0-.073.022-.122.067-.192.937-1.682 1.664-3.457 2.166-5.232.457-1.8.752-3.384.8-4.68l-.07-.625 1.323.072c.318 0 .48.12.48.312s-.093.312-.273.336c-.185.024-.298.096-.298.168-.204 1.44-.57 2.88-1.004 4.25h4.585l1.39-1.273 1.392 1.08c.184.168.23.336.23.504 0 .337-.274.407-.456.407h-2.035v-.003zM25.73 21.43c.41 2.158.888 3.982 1.48 5.447.272.77.638 1.514 1.003 2.186 1.572-3.217 1.982-6.578 2.098-8.69h-4.17l-.115.384-.296.673z"/></g></svg>