<?xml version="1.0" encoding="utf-8"?>
<!-- Generator: Adobe Illustrator 18.1.0, SVG Export Plug-In . SVG Version: 6.00 Build 0)  -->
<svg version="1.1" xmlns="http://www.w3.org/2000/svg" xmlns:xlink="http://www.w3.org/1999/xlink" x="0px" y="0px"
	 viewBox="0 0 760 640" enable-background="new 0 0 760 640" xml:space="preserve">
<g id="ruler_under">
	<g id="h_45">
		<g>
			<g>
				<line fill="none" stroke="#999999" stroke-width="2" stroke-miterlimit="10" x1="20.5" y1="601" x2="360.5" y2="601"/>
				<line fill="none" stroke="#999999" stroke-width="2" stroke-miterlimit="10" x1="400.5" y1="601" x2="740.5" y2="601"/>
				<g>
					<rect x="19.5" y="593" fill="#999999" width="2" height="16"/>
				</g>
				<g>
					<rect x="739.5" y="593" fill="#999999" width="2" height="16"/>
				</g>
			</g>
		</g>
		<g>
			<path d="M375.2,610v-4.2h-7.2v-1.4l7-10h2.3v9.7h2.2v1.7h-2.2v4.2H375.2z M375.2,604.1v-5.2c0-0.8,0-1.6,0.1-2.4h-0.1
				c-0.5,0.9-0.9,1.6-1.3,2.3L370,604v0H375.2z"/>
			<path d="M390.2,596.2h-6l-0.6,4c0.4,0,0.7-0.1,1.3-0.1c1.2,0,2.4,0.3,3.4,0.8c1.2,0.7,2.2,2,2.2,4c0,3-2.4,5.3-5.8,5.3
				c-1.7,0-3.1-0.5-3.9-1l0.5-1.6c0.6,0.4,1.9,0.9,3.3,0.9c2,0,3.7-1.3,3.7-3.4c0-2-1.4-3.5-4.5-3.5c-0.9,0-1.6,0.1-2.2,0.2l1-7.5
				h7.5V596.2z"/>
		</g>
	</g>
	<g id="h_30_1_">
		<g>
			<g>
				<line fill="none" stroke="#999999" stroke-width="2" stroke-miterlimit="10" x1="20.5" y1="578" x2="240.5" y2="578"/>
				<line fill="none" stroke="#999999" stroke-width="2" stroke-miterlimit="10" x1="280.5" y1="578" x2="500.5" y2="578"/>
				<g>
					<rect x="19.5" y="570" fill="#999999" width="2" height="16"/>
				</g>
				<g>
					<rect x="499.5" y="570" fill="#999999" width="2" height="16"/>
				</g>
			</g>
		</g>
		<g>
			<path d="M249.1,584.6c0.6,0.4,2,1,3.5,1c2.7,0,3.6-1.7,3.5-3c0-2.2-2-3.1-4-3.1h-1.2v-1.6h1.2c1.5,0,3.5-0.8,3.5-2.6
				c0-1.2-0.8-2.4-2.7-2.4c-1.2,0-2.4,0.6-3.1,1l-0.6-1.5c0.8-0.6,2.4-1.2,4.1-1.2c3.1,0,4.5,1.8,4.5,3.7c0,1.6-1,3-2.9,3.7v0
				c1.9,0.4,3.5,1.8,3.5,4c0,2.5-1.9,4.7-5.7,4.7c-1.8,0-3.3-0.6-4.1-1.1L249.1,584.6z"/>
			<path d="M271.3,579c0,5.3-2,8.2-5.4,8.2c-3,0-5.1-2.9-5.2-8c0-5.2,2.3-8.1,5.4-8.1C269.4,571.1,271.3,574.1,271.3,579z
				 M262.8,579.3c0,4.1,1.2,6.4,3.2,6.4c2.2,0,3.2-2.5,3.2-6.5c0-3.8-1-6.4-3.2-6.4C264.2,572.8,262.8,575,262.8,579.3z"/>
		</g>
	</g>
	<g id="h_15">
		<g>
			<g>
				<line fill="none" stroke="#999999" stroke-width="2" stroke-miterlimit="10" x1="500.5" y1="578" x2="600.5" y2="578"/>
				<line fill="none" stroke="#999999" stroke-width="2" stroke-miterlimit="10" x1="640.5" y1="578" x2="740.5" y2="578"/>
				<g>
					<rect x="499.5" y="570" fill="#999999" width="2" height="16"/>
				</g>
				<g>
					<rect x="739.5" y="570" fill="#999999" width="2" height="16"/>
				</g>
			</g>
		</g>
		<g>
			<path d="M613.2,573.4L613.2,573.4l-2.8,1.5l-0.4-1.6l3.4-1.8h1.8V587h-2V573.4z"/>
			<path d="M630.2,573.2h-6l-0.6,4c0.4,0,0.7-0.1,1.3-0.1c1.2,0,2.4,0.3,3.4,0.8c1.2,0.7,2.2,2,2.2,4c0,3-2.4,5.3-5.8,5.3
				c-1.7,0-3.1-0.5-3.9-1l0.5-1.6c0.6,0.4,1.9,0.9,3.3,0.9c2,0,3.7-1.3,3.7-3.4c0-2-1.4-3.5-4.5-3.5c-0.9,0-1.6,0.1-2.2,0.2l1-7.5
				h7.5V573.2z"/>
		</g>
	</g>
</g>
<g id="ruler_above">
	<g id="h5">
		<g>
			<g>
				<line fill="none" stroke="#999999" stroke-width="2" stroke-miterlimit="10" x1="660.5" y1="58" x2="690.5" y2="58"/>
				<line fill="none" stroke="#999999" stroke-width="2" stroke-miterlimit="10" x1="710.5" y1="58" x2="740.5" y2="58"/>
				<g>
					<rect x="659.5" y="50" fill="#999999" width="2" height="16"/>
				</g>
				<g>
					<rect x="739.5" y="50" fill="#999999" width="2" height="16"/>
				</g>
			</g>
		</g>
		<g>
			<rect x="694.5" y="46.5" fill="none" width="13.9" height="30.4"/>
			<path d="M704.9,52.8h-6l-0.6,4c0.4,0,0.7-0.1,1.3-0.1c1.2,0,2.4,0.3,3.4,0.8c1.2,0.7,2.2,2,2.2,4c0,3-2.4,5.3-5.8,5.3
				c-1.7,0-3.1-0.5-3.9-1l0.5-1.6c0.6,0.4,1.9,0.9,3.3,0.9c2,0,3.7-1.3,3.7-3.4c0-2-1.4-3.5-4.5-3.5c-0.9,0-1.6,0.1-2.2,0.2l1-7.5
				h7.5V52.8z"/>
		</g>
		<g>
		</g>
	</g>
	<g id="h9">
		<g>
			<g>
				<line fill="none" stroke="#999999" stroke-width="2" stroke-miterlimit="10" x1="516.5" y1="58" x2="578.5" y2="58"/>
				<line fill="none" stroke="#999999" stroke-width="2" stroke-miterlimit="10" x1="598.5" y1="58" x2="660.5" y2="58"/>
				<g>
					<rect x="515.5" y="50" fill="#999999" width="2" height="16"/>
				</g>
				<g>
					<rect x="659.5" y="50" fill="#999999" width="2" height="16"/>
				</g>
			</g>
		</g>
		<g>
			<path d="M583.8,65.5c0.5,0,1,0,1.7-0.1c1.2-0.2,2.4-0.7,3.3-1.5c1-0.9,1.8-2.3,2.1-4.2h-0.1c-0.9,1.1-2.1,1.7-3.7,1.7
				c-2.8,0-4.6-2.1-4.6-4.8c0-3,2.1-5.5,5.3-5.5s5.2,2.6,5.2,6.6c0,3.4-1.2,5.8-2.7,7.3c-1.2,1.2-2.9,1.9-4.5,2.1
				c-0.8,0.1-1.4,0.1-1.9,0.1V65.5z M584.6,56.5c0,1.9,1.2,3.3,3,3.3c1.4,0,2.5-0.7,3.1-1.6c0.1-0.2,0.2-0.4,0.2-0.8
				c0-2.7-1-4.7-3.2-4.7C585.9,52.7,584.6,54.3,584.6,56.5z"/>
		</g>
	</g>
</g>
<g id="grid">
	<g>
		<g id="yin_3_">
			<rect x="516.5" y="416.1" fill="#EEEEEE" width="144" height="144"/>
			<line fill="none" stroke="#999999" stroke-width="2" stroke-miterlimit="10" x1="516.5" y1="560" x2="660.5" y2="560"/>
			<line fill="none" stroke="#999999" stroke-width="2" stroke-miterlimit="10" x1="516.5" y1="416" x2="660.5" y2="416"/>
		</g>
		<g id="yin_1_">
			<rect x="516.5" y="272.1" fill="#EEEEEE" width="144" height="144"/>
			<line fill="none" stroke="#999999" stroke-width="2" stroke-miterlimit="10" x1="516.5" y1="416" x2="660.5" y2="416"/>
			<line fill="none" stroke="#999999" stroke-width="2" stroke-miterlimit="10" x1="516.5" y1="272" x2="660.5" y2="272"/>
		</g>
		<g id="yin_2_">
			<rect x="516.5" y="128.1" fill="#EEEEEE" width="144" height="144"/>
			<line fill="none" stroke="#999999" stroke-width="2" stroke-miterlimit="10" x1="516.5" y1="272" x2="660.5" y2="272"/>
			<line fill="none" stroke="#999999" stroke-width="2" stroke-miterlimit="10" x1="516.5" y1="128" x2="660.5" y2="128"/>
		</g>
		<g id="_x35_th">
			<rect x="516.5" y="80" fill="#EEEEEE" width="144" height="32"/>
			<line fill="none" stroke="#999999" stroke-width="2" stroke-miterlimit="10" x1="516.5" y1="80" x2="660.5" y2="80"/>
			<line fill="none" stroke="#999999" stroke-width="2" stroke-miterlimit="10" x1="516.5" y1="112" x2="660.5" y2="112"/>
		</g>
		<g id="inner_1_">
			<line fill="none" stroke="#CCCCCC" stroke-miterlimit="10" x1="180" y1="560" x2="180" y2="80"/>
			<line fill="none" stroke="#CCCCCC" stroke-miterlimit="10" x1="341" y1="560" x2="341" y2="80"/>
			<line fill="none" stroke="#CCCCCC" stroke-miterlimit="10" x1="20.5" y1="239.5" x2="500.5" y2="239.5"/>
			<line fill="none" stroke="#CCCCCC" stroke-miterlimit="10" x1="20.5" y1="400.5" x2="500.5" y2="400.5"/>
		</g>
		<g id="outer_1_">
			
				<rect id="zhuyin_1_" x="20.5" y="80.1" fill="none" stroke="#999999" stroke-width="2" stroke-miterlimit="10" width="720" height="480"/>
			
				<rect id="char_1_" x="20.5" y="80.1" fill="none" stroke="#999999" stroke-width="2" stroke-miterlimit="10" width="480" height="480"/>
			<line fill="none" stroke="#999999" stroke-width="2" stroke-miterlimit="10" x1="660.5" y1="560" x2="660.5" y2="80"/>
			<line fill="none" stroke="#999999" stroke-width="2" stroke-miterlimit="10" x1="516.5" y1="560" x2="516.5" y2="80"/>
		</g>
	</g>
</g>
<g id="character">
	<g>
		<path d="M591,107.4c-3.1,0-5.9-1.1-8.2-3.3s-3.3-5.1-3.3-8.2c0-3.1,1.1-5.8,3.3-8.1c2.3-2.3,5.1-3.5,8.2-3.5
			c3.1,0,5.8,1.2,8.1,3.5c2.3,2.3,3.5,5,3.5,8.1c0,3.1-1.2,5.9-3.5,8.2S594.1,107.4,591,107.4z"/>
	</g>
	<g>
		<path d="M540.1,444.6c2.4,0.4,4.9,0.6,7.9,0.6c2.4,0,4.8-0.1,7.3-0.6l63-7.3c3.7-0.7,6.3-1.5,7.9-2.2c1.7-0.7,3.4-1.1,5.1-1.1
			c1.5,0,3.8,1.1,6.5,3.5c2.8,2.2,4.2,3.9,4.2,5.1c0,1-0.7,1.5-2.2,1.5c-0.7,0-2-0.1-4.1-0.3l-3.8-0.3c-9,0.4-18.6,1.3-28.7,2.2
			l-3.4,0.4c0.1,12.5-0.1,22.5-0.8,29.8c-0.6,3.9-4.1,8.2-8.7,8.2c-0.7,0-1.8-0.3-3.4-0.8c-1.4-0.3-2.5-0.4-3.4-0.4
			c-4.9,0-9.6,2-13.9,5.8c-3.8,4.4-5.8,9-5.8,14.1c0,7.2,2.7,13.4,8,18.3c5.5,4.9,12.4,7.5,20.7,7.5c11.8,0,21.9-5.3,30.5-16
			c1.5-1.3,3.1-2,4.4-2c2.8,0,5.1,2,5.1,4.8c0,5.2-4.1,10.4-12.1,15.5c-8,5.2-17.3,7.7-27.8,7.7c-11.2,0-20.7-3.4-28.1-10
			c-7.5-7.5-11.2-16-11.2-25.7c0-8.2,2.7-14.9,7.9-20.4c5.8-5.3,13.2-8.3,22.5-9c3.4-0.7,4.9-2.7,4.5-5.6l-1.1-20.1
			c-15.5,2.1-26.9,4.2-34,6.6c-2,0.7-3.5,1.1-4.8,1.1c-1.8,0-4.6-1.5-8.7-4.8c-2.8-2.4-4.2-4.1-4.2-4.8c0-1.1,1-1.7,2.8-1.7
			C538.7,444.1,539.4,444.2,540.1,444.6z"/>
	</g>
	<g>
		<path d="M630.9,151.4c4.4,3.4,6.5,5.8,6.5,7.3c0,0.1-0.7,1.1-2,3c-2.1,2.7-4.1,9.6-6,20.7c-2.7,14.1-6.5,24.3-11.5,30.8
			c-2.8,3.4-5.6,5.1-8.6,5.1c-1.7,0-4.5-1.7-8.6-5.1c-4.1-3.5-6-5.8-6-6.8c0-0.4,0.1-0.6,0.6-0.6c0.6,0,2,0.3,4.1,0.8
			c2,0.7,3.9,1,6,1c3.1,0,5.6-1.1,7.5-3.2c1.3-1.3,2.8-6.6,4.8-15.8c2.7-11.7,4.1-20.4,4.1-26.2c0-3.4-1.5-5.1-4.5-5.1
			c-2.5,0-13.6,1.7-33.2,5.1l-4.4,1v39.2c0,18.6,0.1,29.5,0.6,33c0.3,4.4,0.4,7.7,0.4,10c0,3.9-0.6,7.5-1.8,10.5
			c-1.1,3-2.2,4.5-3.2,4.5c-1.5,0-3.4-1.7-5.5-4.9c-2-3.2-3-5.9-3-8.2c0-1.3,0.1-2.5,0.6-3.9c0.4-1.8,0.8-4.5,1.4-8
			c1-9.4,1.4-21,1.4-34.3c0-11.5-0.3-23.5-0.8-35.9l-5.6,1c-5.2,1.4-8.6,2.1-9.8,2.1c-2.4,0-5.5-1.1-9.1-3.2
			c-3.7-2.2-5.5-4.1-5.5-5.5c0-0.8,0.7-1.3,2.2-1.3c3.8,0.8,7.2,1.3,10.1,1.3c4.9,0,15.3-1.5,31.2-4.5s26.7-5.3,32.5-7
			c2.4-1.5,4.2-2.2,5.5-2.2C623.5,146.2,626.7,147.8,630.9,151.4z"/>
	</g>
	<g>
		<path d="M132.3,285.4c-3.6,4.8-9.4,11.9-17.3,21.2c-8,9.3-15.4,17.2-22.3,23.7c-6.9,6.5-14.5,12.7-23,18.6
			c-8.4,5.9-14.7,10.1-18.8,12.4l-4.5,2.6c-1.9,1.1-3.5,1-4.9-0.4c-1.4-1.3-0.5-3.6,2.8-6.7l2.8-2.6c4.1-3.8,9.1-9,15.2-15.8
			s12-13.6,17.8-20.4c5.8-6.8,12-14.5,18.5-23.1c6.6-8.6,13-17.8,19.5-27.5c6.4-9.8,12.3-19.5,17.6-29.1
			c5.3-9.6,10.2-19.3,14.8-29.1c4.5-9.8,7.8-17.4,9.8-23c2-5.5,3.5-10.3,4.5-14.2l1.4-7.7c0.8-4.4,0.9-8,0.5-11
			c-0.5-3-0.5-5-0.1-6.2c0.4-1.2,1.9-2,4.6-2.5c0.8,0,2.2,0.3,4.2,0.8c2,0.5,4,1.2,5.9,1.9s5.1,2.5,9.6,5.4
			c4.5,2.9,8.2,5.8,11.1,8.8c2.9,3,3.9,5.9,3.2,8.7c-0.3,0.9-0.9,2-1.6,3l-7,8.2c-1.3,1.6-2.5,3.3-3.6,5.2s-3.8,6.3-7.9,13.4
			l-14.8,25.1l-10.5,19l-7,11.2c3.1,2.7,5.4,4.7,6.8,6.1l6.3,7.5c3.8,4.5,6,7.7,6.7,9.6s1.1,4.5,1.1,7.7c-0.2,2-0.7,6.1-1.6,12.3
			c-0.9,6.2-1.5,10.8-1.8,13.8s-0.4,7.3-0.4,12.8l-0.9,36.3l-0.9,48.3l-0.7,27.9c0,5.3,0.2,11.3,0.7,18c0.5,6.7,0.6,11.5,0.5,14.3
			c-0.3,3.8-1.1,7.8-2.5,12.1c-1.3,4.3-2.8,8-4.3,11c-1.6,3-3.1,5.3-4.6,6.8c-1.5,1.5-2.8,2.3-4,2.5c-1.2,0.2-2.7-1.2-4.6-4
			c-1.9-2.2-3.6-5.2-5.3-9c-1.6-3.8-2.8-6.8-3.4-8.8c-0.6-2-1.4-5.1-2.3-9.1c-0.9-4.1-1.4-7-1.5-8.9c-0.1-1.9,0.7-5.5,2.5-11
			c1.4-5.2,2.5-10,3.2-14.6c0.7-4.6,1.5-12.1,2.3-22.5c0.9-10.4,1.4-18,1.5-22.9l1.6-81.3c0.2-10.2-0.2-18-0.9-23.4l-2.3-16.9
			C139.7,275.4,135.8,280.5,132.3,285.4z M301.7,232.8c6.2-1.2,18.1-3.5,35.5-7c17.4-3.5,30-6.2,37.7-8.1s14.1-3.5,19-4.9
			s9.5-2.8,13.7-4.3c4.2-1.5,7.3-2.4,9.1-2.7c2.8-0.2,6.2,0.3,10.3,1.4c4.1,1.1,8,2.3,11.7,3.6c3.8,1.3,7.1,3,10.1,5.2
			c3,2.1,5,4.1,6.1,5.9c1.1,1.8,1.7,3.4,1.8,4.7c0.1,1.3-0.6,2.5-2,3.6c-1.3,0.9-3.4,1.4-6.4,1.3c-3-0.1-9,0.4-17.9,1.3l-25.1,1.6
			c-7.3,0.6-18.3,2.2-32.8,4.8s-23,4.2-25.5,4.8l-20.9,5.2c3.1,2.2,5.8,4.3,8.1,6.3c2.3,2,3.6,4,3.9,6c0.3,2-0.2,5.1-1.4,9.5
			c-1.1,3.4-1.7,7.7-1.9,12.9l-0.7,18.5l-0.9,21.3c10-2.3,18.8-4.4,26.5-6.2c7.7-1.8,13.2-3.2,16.6-4.1c3.4-0.9,7.5-2.1,12.1-3.5
			c4.6-1.4,7.9-2.3,9.7-2.6c2.3-0.2,4.8,0,7.4,0.4c2.6,0.4,6,1.3,10.2,2.6c4.2,1.3,7.3,2.9,9.3,4.6c2,1.7,2.8,3.6,2.7,5.6
			c-0.3,2-1.1,3.4-2.3,4.2c-1.3,0.8-2.9,1.4-5,2c-2.1,0.5-6.6,1.4-13.5,2.5l-27,4.5c-8.9,1.4-15.5,2.5-19.8,3.4
			c-4.3,0.9-7.2,1.3-8.8,1.3c-4.8,0.5-8.5,0.2-11-0.7l-6.6-1.9l-0.7,66.6c9.1-1.7,18.6-3.6,28.5-5.7c9.9-2.1,19-4.4,27.3-6.9
			l12.4-3.8c4.2-1.2,8.1-1.8,11.6-1.8c3.5,0.1,7.1,0.6,10.9,1.6c3.8,1,7.2,2.2,10.4,3.6c3.2,1.4,5.8,2.9,7.9,4.5
			c2,1.6,3.1,3,3.2,4.3c0.1,1.3-0.5,2.7-1.8,4.1c-1.6,1.6-4.8,2.7-9.6,3.5l-15.9,3.5c-1.4,0.3-10.2,1.6-26.2,3.8l-16.2,2.3
			c-5.3,0.8-11.4,1.3-18.3,1.6c-7.5,0.5-12.3,0.5-14.3,0l-10.1-1.9l-1.2,64.7c-0.2,3.1-0.4,8.5-0.7,16.2c-0.3,7.7-0.7,14.1-1.3,19.3
			c-0.5,5.2-1.8,9.6-3.9,13c-2,3.4-3.9,5.3-5.6,5.5c-1.7,0.2-3.8-0.8-6.1-3.2c-2.7-2.3-4.6-4.9-5.7-7.7s-3.2-8.4-6.1-16.9
			c-2.9-8.4-4.5-14.1-4.8-17.1c-0.3-3,0.3-7.3,1.9-13.1l2.6-9.4c1.1-4.2,2-9.7,2.7-16.5s1.3-14.6,1.9-23.6
			c0.5-8.9,0.8-18.7,0.8-29.3l-0.2-67.3c-0.2-11.2-0.4-21.2-0.8-29.9c-0.4-8.7-0.9-16.2-1.6-22.5s-1.4-10.8-2.2-13.5l-2.1-7
			c-4.8,1.1-8.9,1.6-12.3,1.5c-3.4-0.1-6.4-0.7-9.3-2l-9.6-3.8c-3,4.8-5.9,9.7-8.9,14.6c-3,4.9-6.4,10.2-10.3,15.9
			c-3.9,5.7-9.2,12.4-15.8,20c-6.6,7.7-13.5,14.6-20.5,21s-13,11.1-18,14.4l-4.2,2.8c-1.7,1.1-3,1.2-3.9,0.2
			c-0.9-0.9-0.6-2.3,0.8-4.2l4.9-6.6c1.1-1.6,5.3-7.3,12.7-17.3c7.3-10,13.2-18.4,17.5-25.1c4.3-6.7,10.2-17.1,17.7-31.3
			c7.5-14.1,13.1-25.1,16.8-32.9c3.7-7.8,8.1-18.4,13.4-31.6c5.2-13.3,8.6-22.7,10.1-28.4c1.5-5.6,2.6-10.6,3.3-14.9
			c0.7-4.3,1.2-8,1.5-11c0.3-3,0.4-6.2,0.4-9.4c-0.1-3.2,0.3-5.3,1.2-6.3c0.9-1,2.4-1.7,4.6-2c1.7-0.2,3.6,0.2,5.7,0.9
			c2.1,0.8,4.7,2.1,7.9,4c3.1,1.9,6.4,4.3,9.7,7.1c3.4,2.9,5.7,5.5,7.1,7.9s2,4.4,1.9,6.1c-0.2,1.6-1.4,3.9-3.9,7
			c-2.4,3.1-4.7,6.6-6.9,10.4c-2.2,3.8-4.3,8.1-6.3,12.8l-8,18.5c-3.6,8-7.2,15.3-10.8,22l-10.5,19.7
			C287.5,235.4,295.5,233.9,301.7,232.8z"/>
	</g>
	<g>
		<path d="M613.2,289.5c3.5,3.5,5.3,6.5,5.3,8.9c0,0.7-0.8,1.5-2.5,2.5c-2,1.5-4.1,6.8-6.5,15.5c-4.4,12.5-8.6,22.8-12.7,30.7
			c8.9,6,19,14.2,30.7,24.8c4.9,4.6,7.3,9.4,7.3,14.3c0,6-1.1,9-3.4,9c-1.5,0-5.2-3.2-11-9.8c-11.1-12.5-20.8-22.4-28.8-29.5
			c-6.9,9.7-13.2,17.4-19.3,23.3c-7.2,6.3-14.5,11.4-22.2,15.2c-4.4,1.7-6.9,2.5-7.6,2.5h-0.6c0-0.7,0.6-1.5,1.7-2.2
			c12.4-9.6,21.9-18.8,28.7-27.8c3.8-5.1,7.6-11,11.5-17.9c-11.4-9.7-22.5-18.1-33.2-25.3l-1.4-1.1c0-0.4,0.3-0.6,1-0.6
			c1.5,0,4.9,1,10.4,3c7.2,3.4,16.3,8.7,27.4,16.2l3.4-6.6c5.2-12.1,9-22.6,11.2-31.8c1.5-5.8,1.8-10,1.1-12.4
			c-0.7-1.7-1.1-2.8-1.1-3.4c0-0.7,0.7-1,2.2-1C607.3,285.8,610,287.1,613.2,289.5z"/>
	</g>
	<g>
	</g>
	<g>
	</g>
	<g>
	</g>
	<g>
	</g>
	<g>
	</g>
	<g>
	</g>
	<g>
	</g>
	<g>
	</g>
	<g>
	</g>
	<g>
	</g>
	<g>
	</g>
	<g>
	</g>
	<g>
	</g>
	<g>
	</g>
	<g>
	</g>
	<g>
	</g>
</g>
</svg>
