<?xml version="1.0" encoding="utf-8"?>
<!-- Generator: Adobe Illustrator 18.1.0, SVG Export Plug-In . SVG Version: 6.00 Build 0)  -->
<svg version="1.1" xmlns="http://www.w3.org/2000/svg" xmlns:xlink="http://www.w3.org/1999/xlink" x="0px" y="0px"
	 viewBox="0 0 760 640" enable-background="new 0 0 760 640" xml:space="preserve">
<g id="ruler_under">
	<g id="h_45">
		<g>
			<g>
				<line fill="none" stroke="#999999" stroke-width="2" stroke-miterlimit="10" x1="20.5" y1="601" x2="360.5" y2="601"/>
				<line fill="none" stroke="#999999" stroke-width="2" stroke-miterlimit="10" x1="400.5" y1="601" x2="740.5" y2="601"/>
				<g>
					<rect x="19.5" y="593" fill="#999999" width="2" height="16"/>
				</g>
				<g>
					<rect x="739.5" y="593" fill="#999999" width="2" height="16"/>
				</g>
			</g>
		</g>
		<g>
			<path d="M375.2,610v-4.2h-7.2v-1.4l7-10h2.3v9.7h2.2v1.7h-2.2v4.2H375.2z M375.2,604.1v-5.2c0-0.8,0-1.6,0.1-2.4h-0.1
				c-0.5,0.9-0.9,1.6-1.3,2.3L370,604v0H375.2z"/>
			<path d="M390.2,596.2h-6l-0.6,4c0.4,0,0.7-0.1,1.3-0.1c1.2,0,2.4,0.3,3.4,0.8c1.2,0.7,2.2,2,2.2,4c0,3-2.4,5.3-5.8,5.3
				c-1.7,0-3.1-0.5-3.9-1l0.5-1.6c0.6,0.4,1.9,0.9,3.3,0.9c2,0,3.7-1.3,3.7-3.4c0-2-1.4-3.5-4.5-3.5c-0.9,0-1.6,0.1-2.2,0.2l1-7.5
				h7.5V596.2z"/>
		</g>
	</g>
	<g id="h_30_1_">
		<g>
			<g>
				<line fill="none" stroke="#999999" stroke-width="2" stroke-miterlimit="10" x1="20.5" y1="578" x2="240.5" y2="578"/>
				<line fill="none" stroke="#999999" stroke-width="2" stroke-miterlimit="10" x1="280.5" y1="578" x2="500.5" y2="578"/>
				<g>
					<rect x="19.5" y="570" fill="#999999" width="2" height="16"/>
				</g>
				<g>
					<rect x="499.5" y="570" fill="#999999" width="2" height="16"/>
				</g>
			</g>
		</g>
		<g>
			<path d="M249.1,584.6c0.6,0.4,2,1,3.5,1c2.7,0,3.6-1.7,3.5-3c0-2.2-2-3.1-4-3.1h-1.2v-1.6h1.2c1.5,0,3.5-0.8,3.5-2.6
				c0-1.2-0.8-2.4-2.7-2.4c-1.2,0-2.4,0.6-3.1,1l-0.6-1.5c0.8-0.6,2.4-1.2,4.1-1.2c3.1,0,4.5,1.8,4.5,3.7c0,1.6-1,3-2.9,3.7v0
				c1.9,0.4,3.5,1.8,3.5,4c0,2.5-1.9,4.7-5.7,4.7c-1.8,0-3.3-0.6-4.1-1.1L249.1,584.6z"/>
			<path d="M271.3,579c0,5.3-2,8.2-5.4,8.2c-3,0-5.1-2.9-5.2-8c0-5.2,2.3-8.1,5.4-8.1C269.4,571.1,271.3,574.1,271.3,579z
				 M262.8,579.3c0,4.1,1.2,6.4,3.2,6.4c2.2,0,3.2-2.5,3.2-6.5c0-3.8-1-6.4-3.2-6.4C264.2,572.8,262.8,575,262.8,579.3z"/>
		</g>
	</g>
	<g id="h_15">
		<g>
			<g>
				<line fill="none" stroke="#999999" stroke-width="2" stroke-miterlimit="10" x1="500.5" y1="578" x2="600.5" y2="578"/>
				<line fill="none" stroke="#999999" stroke-width="2" stroke-miterlimit="10" x1="640.5" y1="578" x2="740.5" y2="578"/>
				<g>
					<rect x="499.5" y="570" fill="#999999" width="2" height="16"/>
				</g>
				<g>
					<rect x="739.5" y="570" fill="#999999" width="2" height="16"/>
				</g>
			</g>
		</g>
		<g>
			<path d="M613.2,573.4L613.2,573.4l-2.8,1.5l-0.4-1.6l3.4-1.8h1.8V587h-2V573.4z"/>
			<path d="M630.2,573.2h-6l-0.6,4c0.4,0,0.7-0.1,1.3-0.1c1.2,0,2.4,0.3,3.4,0.8c1.2,0.7,2.2,2,2.2,4c0,3-2.4,5.3-5.8,5.3
				c-1.7,0-3.1-0.5-3.9-1l0.5-1.6c0.6,0.4,1.9,0.9,3.3,0.9c2,0,3.7-1.3,3.7-3.4c0-2-1.4-3.5-4.5-3.5c-0.9,0-1.6,0.1-2.2,0.2l1-7.5
				h7.5V573.2z"/>
		</g>
	</g>
</g>
<g id="ruler_above">
	<g id="h5">
		<g>
			<g>
				<line fill="none" stroke="#999999" stroke-width="2" stroke-miterlimit="10" x1="660.5" y1="58" x2="690.5" y2="58"/>
				<line fill="none" stroke="#999999" stroke-width="2" stroke-miterlimit="10" x1="710.5" y1="58" x2="740.5" y2="58"/>
				<g>
					<rect x="659.5" y="50" fill="#999999" width="2" height="16"/>
				</g>
				<g>
					<rect x="739.5" y="50" fill="#999999" width="2" height="16"/>
				</g>
			</g>
		</g>
		<g>
			<rect x="694.5" y="46.5" fill="none" width="13.9" height="30.4"/>
			<path d="M704.9,52.8h-6l-0.6,4c0.4,0,0.7-0.1,1.3-0.1c1.2,0,2.4,0.3,3.4,0.8c1.2,0.7,2.2,2,2.2,4c0,3-2.4,5.3-5.8,5.3
				c-1.7,0-3.1-0.5-3.9-1l0.5-1.6c0.6,0.4,1.9,0.9,3.3,0.9c2,0,3.7-1.3,3.7-3.4c0-2-1.4-3.5-4.5-3.5c-0.9,0-1.6,0.1-2.2,0.2l1-7.5
				h7.5V52.8z"/>
		</g>
		<g>
		</g>
	</g>
	<g id="h9">
		<g>
			<g>
				<line fill="none" stroke="#999999" stroke-width="2" stroke-miterlimit="10" x1="516.5" y1="58" x2="578.5" y2="58"/>
				<line fill="none" stroke="#999999" stroke-width="2" stroke-miterlimit="10" x1="598.5" y1="58" x2="660.5" y2="58"/>
				<g>
					<rect x="515.5" y="50" fill="#999999" width="2" height="16"/>
				</g>
				<g>
					<rect x="659.5" y="50" fill="#999999" width="2" height="16"/>
				</g>
			</g>
		</g>
		<g>
			<path d="M583.8,65.5c0.5,0,1,0,1.7-0.1c1.2-0.2,2.4-0.7,3.3-1.5c1-0.9,1.8-2.3,2.1-4.2h-0.1c-0.9,1.1-2.1,1.7-3.7,1.7
				c-2.8,0-4.6-2.1-4.6-4.8c0-3,2.1-5.5,5.3-5.5s5.2,2.6,5.2,6.6c0,3.4-1.2,5.8-2.7,7.3c-1.2,1.2-2.9,1.9-4.5,2.1
				c-0.8,0.1-1.4,0.1-1.9,0.1V65.5z M584.6,56.5c0,1.9,1.2,3.3,3,3.3c1.4,0,2.5-0.7,3.1-1.6c0.1-0.2,0.2-0.4,0.2-0.8
				c0-2.7-1-4.7-3.2-4.7C585.9,52.7,584.6,54.3,584.6,56.5z"/>
		</g>
	</g>
</g>
<g id="grid">
	<g>
		<g id="yin_2_">
			<rect x="516.5" y="177.1" fill="#EEEEEE" width="144" height="144"/>
			<line fill="none" stroke="#999999" stroke-width="2" stroke-miterlimit="10" x1="516.5" y1="321" x2="660.5" y2="321"/>
			<line fill="none" stroke="#999999" stroke-width="2" stroke-miterlimit="10" x1="516.5" y1="177" x2="660.5" y2="177"/>
		</g>
		<g id="yin_1_">
			<rect x="516.5" y="352.1" fill="#EEEEEE" width="144" height="144"/>
			<line fill="none" stroke="#999999" stroke-width="2" stroke-miterlimit="10" x1="516.5" y1="496" x2="660.5" y2="496"/>
			<line fill="none" stroke="#999999" stroke-width="2" stroke-miterlimit="10" x1="516.5" y1="352" x2="660.5" y2="352"/>
		</g>
		<g id="_x34_-tone_1_">
			<rect x="660.5" y="416.1" fill="#EEEEEE" width="80" height="80"/>
			<line fill="none" stroke="#999999" stroke-width="2" stroke-miterlimit="10" x1="660.5" y1="416" x2="740.5" y2="416"/>
			<line fill="none" stroke="#999999" stroke-width="2" stroke-miterlimit="10" x1="660.5" y1="496" x2="740.5" y2="496"/>
		</g>
		<g id="inner_1_">
			<line fill="none" stroke="#CCCCCC" stroke-miterlimit="10" x1="180" y1="560" x2="180" y2="80"/>
			<line fill="none" stroke="#CCCCCC" stroke-miterlimit="10" x1="341" y1="560" x2="341" y2="80"/>
			<line fill="none" stroke="#CCCCCC" stroke-miterlimit="10" x1="20.5" y1="239.5" x2="500.5" y2="239.5"/>
			<line fill="none" stroke="#CCCCCC" stroke-miterlimit="10" x1="20.5" y1="400.5" x2="500.5" y2="400.5"/>
		</g>
		<g id="outer_1_">
			
				<rect id="zhuyin_1_" x="20.5" y="80.1" fill="none" stroke="#999999" stroke-width="2" stroke-miterlimit="10" width="720" height="480"/>
			
				<rect id="char_1_" x="20.5" y="80.1" fill="none" stroke="#999999" stroke-width="2" stroke-miterlimit="10" width="480" height="480"/>
			<line fill="none" stroke="#999999" stroke-width="2" stroke-miterlimit="10" x1="660.5" y1="560" x2="660.5" y2="80"/>
			<line fill="none" stroke="#999999" stroke-width="2" stroke-miterlimit="10" x1="516.5" y1="560" x2="516.5" y2="80"/>
		</g>
	</g>
</g>
<g id="ruler_checked_tone">
	<g>
		<path fill="#6D6D6D" d="M699.2,365.5c1.4,0,1.8,0,1.9,0s0.2,0,0.2,0.2c0,0.5,0,1.3,0.2,2.4c0.7,5.3,3.1,9.5,7.9,12.4
			c-0.2,0.2-0.5,0.5-0.7,0.8c-0.1,0.2-0.2,0.3-0.3,0.3c-0.1,0-0.1,0-0.3-0.1c-4.1-2.8-6.5-6.5-7.4-11.5c-0.7,4.9-3.6,9-7.7,11.5
			c-0.2,0.1-0.2,0.1-0.3,0.1s-0.1-0.1-0.3-0.3c-0.2-0.3-0.5-0.5-0.8-0.7c5.2-2.6,8.1-7.7,8.4-13.9h-2.8c-1.4,0-1.8,0-1.9,0
			c-0.1,0-0.2,0-0.2-0.2v-0.9c0-0.1,0-0.2,0.2-0.2c0.1,0,0.5,0,1.9,0H699.2z"/>
		<path fill="#6D6D6D" d="M700,390.8c0,0.7,0,0.9,0,1c0,0.1,0,0.2-0.2,0.2c-0.1,0-0.6,0-2.1,0h-3.9c-0.2,0.9-0.6,1.7-1.3,2.4
			c-0.1,0.1-0.2,0.2-0.3,0.2c-0.1,0-0.1,0-0.3-0.1c-0.2-0.2-0.4-0.3-0.6-0.4c1.3-1.1,1.6-2.4,1.6-4.2c0-0.4,0-0.6,0-0.7
			c0-0.1,0-0.2,0.2-0.2c0.1,0,0.6,0,2.2,0h2.5c1.5,0,2,0,2.1,0c0.1,0,0.2,0,0.2,0.2c0,0.1,0,0.3,0,1V390.8z M705.6,399.6
			c1.2-0.1,2.5-0.2,3.7-0.3c-0.1,0.1-0.1,0.3-0.1,0.5c-0.1,0.4-0.1,0.4-0.5,0.4c-0.8,0.1-1.9,0.2-3.1,0.2c0,1,0,1.4,0,1.5
			c0,0.1,0,0.2-0.2,0.2h-0.9c-0.2,0-0.2,0-0.2-0.2c0-0.1,0-0.5,0-1.4c-1.4,0.1-3,0.1-4.4,0.2c-2.9,0.1-4.8,0.2-7.1,0.2
			c-0.4,0-0.7,0-0.9,0.1c-0.1,0.1-0.2,0.1-0.3,0.1c-0.1,0-0.1-0.1-0.2-0.2c-0.1-0.3-0.2-0.6-0.2-1c0.5,0,1.1,0.1,2.2,0.1
			c0.4,0,1,0,1.7,0v-4.7c-1.6,0-2.2,0-2.3,0c-0.1,0-0.2,0-0.2-0.2v-0.6c0-0.1,0-0.2,0.2-0.2c0.1,0,0.7,0,2.7,0h10.2
			c1.9,0,2.6,0,2.7,0c0.1,0,0.2,0,0.2,0.2v0.6c0,0.1,0,0.2-0.2,0.2c-0.1,0-0.8,0-2.7,0h-0.2V399.6z M700.8,385.9
			c0,0.1,0,0.2-0.2,0.2c-0.1,0-0.7,0-2.5,0h-1.3v1.1h0.9c1.6,0,2.1,0,2.2,0c0.1,0,0.2,0,0.2,0.2v0.6c0,0.1,0,0.2-0.2,0.2
			c-0.1,0-0.6,0-2.2,0h-2.7c-1.6,0-2.1,0-2.2,0c-0.2,0-0.2,0-0.2-0.2v-0.6c0-0.1,0-0.2,0.2-0.2c0.1,0,0.6,0,2.2,0h0.8v-1.1h-1.4
			c-1.8,0-2.4,0-2.5,0c-0.1,0-0.2,0-0.2-0.2v-0.6c0-0.1,0-0.1,0.2-0.1c0.1,0,0.7,0,2.5,0h1.4v-0.1c0-0.4,0-0.9-0.1-1.3
			c0.5,0,0.8,0.1,1.1,0.1c0.1,0,0.2,0.1,0.2,0.2c0,0.1,0,0.1-0.1,0.2c-0.1,0.2-0.1,0.3-0.1,0.8v0h1.3c1.8,0,2.3,0,2.4,0
			c0.1,0,0.2,0,0.2,0.2V385.9z M696.1,389.7H694v0.1c0,0.5,0,0.9-0.1,1.3h2.2V389.7z M704.5,395.2h-8v0.9h8V395.2z M704.5,396.9h-8
			v1h8V396.9z M704.5,398.7h-8v1.2c0.7,0,1.4,0,2.2,0c1.9,0,3.9-0.1,5.9-0.2V398.7z M699.1,389.7H697v1.5h2.1V389.7z M706.5,388.8
			c0.2,0,0.3,0,0.4-0.1c0,0,0.1,0,0.2,0c0.1,0,0.2,0,0.5,0.3c0.3,0.3,0.4,0.4,0.4,0.5c0,0.1,0,0.2-0.2,0.2c-0.1,0.1-0.3,0.3-0.6,0.6
			c-0.5,0.6-1.1,1.1-1.7,1.6c1.2,0.6,2.6,0.9,4.1,1.1c-0.2,0.2-0.3,0.4-0.4,0.6c-0.2,0.4-0.2,0.4-0.6,0.3c-1.5-0.2-2.9-0.7-4.1-1.4
			c-1.1,0.6-2.4,1-4,1.4c-0.3,0.1-0.4,0.1-0.5-0.2c-0.1-0.3-0.2-0.4-0.4-0.6c1.5-0.2,2.9-0.6,4-1.2c-0.8-0.6-1.5-1.3-1.9-2.2
			c-0.6,0-0.8,0-0.9,0c-0.2,0-0.2,0-0.2-0.2v-0.6c0-0.1,0-0.2,0.2-0.2c0.1,0,0.6,0,2.2,0H706.5z M706.4,386.4c0,0.2,0,0.4,0.2,0.5
			c0.1,0.1,0.4,0.1,0.8,0.1c0.5,0,0.7-0.1,0.9-0.3c0.1-0.2,0.1-0.5,0.2-1.2c0.2,0.2,0.4,0.3,0.7,0.4c0.3,0.1,0.3,0.1,0.3,0.5
			c-0.1,0.8-0.3,1-0.5,1.2c-0.2,0.2-0.8,0.4-1.6,0.4c-0.6,0-1.1,0-1.3-0.1c-0.4-0.1-0.6-0.4-0.6-1v-1.3H703c0,1.6-0.4,2.4-1.6,3
			c-0.3,0.1-0.3,0.1-0.5-0.2c-0.2-0.2-0.3-0.4-0.5-0.5c1.4-0.4,1.6-1,1.6-2.3c0-0.4,0-0.6,0-0.7c0-0.1,0-0.2,0.2-0.2
			c0.1,0,0.4,0,1.4,0h1.3c1.1,0,1.4,0,1.5,0s0.2,0,0.2,0.2c0,0.1,0,0.4,0,1V386.4z M702.7,389.6c0.5,0.7,1.1,1.2,1.9,1.7
			c0.8-0.5,1.4-1.1,1.9-1.7H702.7z"/>
	</g>
	<g id="v9_1_">
		<g>
			<line fill="#1197CC" x1="700.5" y1="418" x2="700.5" y2="494"/>
			<g>
				<line fill="none" stroke="#29ABE2" stroke-width="2" stroke-miterlimit="10" x1="700.5" y1="418" x2="700.5" y2="443"/>
				<line fill="none" stroke="#29ABE2" stroke-width="2" stroke-miterlimit="10" x1="700.5" y1="469" x2="700.5" y2="494"/>
				<g>
					<polygon fill="#29ABE2" points="692.3,424.6 693.7,426 700.5,418.8 707.2,426 708.6,424.6 700.5,415.8 					"/>
				</g>
				<g>
					<polygon fill="#29ABE2" points="692.3,487.4 693.7,486 700.5,493.2 707.2,486 708.6,487.4 700.5,496.2 					"/>
				</g>
			</g>
		</g>
		<g>
			<path d="M704.7,449.4h-6l-0.6,4c0.4,0,0.7-0.1,1.3-0.1c1.2,0,2.4,0.3,3.4,0.8c1.2,0.7,2.2,2,2.2,4c0,3-2.4,5.3-5.8,5.3
				c-1.7,0-3.1-0.5-3.9-1l0.5-1.6c0.6,0.4,1.9,0.9,3.3,0.9c2,0,3.7-1.3,3.7-3.4c0-2-1.4-3.5-4.5-3.5c-0.9,0-1.6,0.1-2.2,0.2l1-7.5
				h7.5V449.4z"/>
		</g>
	</g>
</g>
<g id="ruler_symbol">
	<g id="v4">
		<g>
			<g>
				<line fill="none" stroke="#29ABE2" stroke-width="2" stroke-miterlimit="10" x1="587.5" y1="498" x2="587.5" y2="515"/>
				<line fill="none" stroke="#29ABE2" stroke-width="2" stroke-miterlimit="10" x1="587.5" y1="541" x2="587.5" y2="558"/>
				<g>
					<polygon fill="#29ABE2" points="579.3,504.6 580.7,506 587.5,498.8 594.2,506 595.6,504.6 587.5,495.8 					"/>
				</g>
				<g>
					<polygon fill="#29ABE2" points="579.3,551.4 580.7,550 587.5,557.2 594.2,550 595.6,551.4 587.5,560.2 					"/>
				</g>
			</g>
		</g>
		<g>
			<path d="M589,534.8v-4h-7.2v-1.3l7-9.3h2.3v9.1h2.2v1.6h-2.2v4H589z M589,529.3v-4.9c0-0.8,0-1.5,0.1-2.3H589
				c-0.5,0.9-0.9,1.5-1.3,2.2l-3.8,5v0H589z"/>
		</g>
	</g>
	<g id="v9_4_">
		<g>
			<g>
				<line fill="none" stroke="#29ABE2" stroke-width="2" stroke-miterlimit="10" x1="587.5" y1="354" x2="587.5" y2="411"/>
				<line fill="none" stroke="#29ABE2" stroke-width="2" stroke-miterlimit="10" x1="587.5" y1="437" x2="587.5" y2="494"/>
				<g>
					<polygon fill="#29ABE2" points="579.3,360.6 580.7,362 587.5,354.8 594.2,362 595.6,360.6 587.5,351.8 					"/>
				</g>
				<g>
					<polygon fill="#29ABE2" points="579.3,487.4 580.7,486 587.5,493.2 594.2,486 595.6,487.4 587.5,496.2 					"/>
				</g>
			</g>
		</g>
		<g>
			<path d="M583.6,429.6c0.5,0,1,0,1.7-0.1c1.2-0.2,2.4-0.7,3.3-1.5c1-0.9,1.8-2.2,2.1-4h-0.1c-0.9,1-2.1,1.6-3.7,1.6
				c-2.8,0-4.6-2.1-4.6-4.6c0-2.9,2.1-5.4,5.3-5.4s5.2,2.5,5.2,6.4c0,3.3-1.2,5.7-2.7,7.1c-1.2,1.1-2.9,1.8-4.5,2
				c-0.8,0.1-1.4,0.1-1.9,0.1V429.6z M584.4,420.9c0,1.9,1.2,3.2,3,3.2c1.4,0,2.5-0.7,3.1-1.6c0.1-0.2,0.2-0.4,0.2-0.7
				c0-2.6-1-4.6-3.2-4.6C585.7,417.2,584.4,418.7,584.4,420.9z"/>
		</g>
	</g>
	<g id="v2">
		<g>
			<g>
				<line fill="none" stroke="#29ABE2" stroke-width="2" stroke-miterlimit="10" x1="587.5" y1="324" x2="587.5" y2="350"/>
				<g>
					<polygon fill="#29ABE2" points="579.3,330.6 580.8,332 587.5,324.8 594.2,332 595.7,330.6 587.5,321.8 					"/>
				</g>
				<g>
					<polygon fill="#29ABE2" points="579.3,343.4 580.8,342 587.5,349.2 594.2,342 595.7,343.4 587.5,352.2 					"/>
				</g>
			</g>
		</g>
		<g>
			<path d="M563.7,343.3v-1.1l1.7-1.4c4-3.3,5.8-5,5.8-7.1c0-1.4-0.8-2.6-3.1-2.6c-1.4,0-2.6,0.6-3.3,1.1l-0.7-1.3
				c1.1-0.8,2.6-1.4,4.4-1.4c3.4,0,4.8,2,4.8,3.9c0,2.5-2.1,4.5-5.4,7.3l-1.2,1v0h7v1.5H563.7z"/>
		</g>
	</g>
	<g id="v9_5_">
		<g>
			<g>
				<line fill="none" stroke="#29ABE2" stroke-width="2" stroke-miterlimit="10" x1="587.5" y1="179" x2="587.5" y2="236"/>
				<line fill="none" stroke="#29ABE2" stroke-width="2" stroke-miterlimit="10" x1="587.5" y1="262" x2="587.5" y2="319"/>
				<g>
					<polygon fill="#29ABE2" points="579.3,185.6 580.7,187 587.5,179.8 594.2,187 595.6,185.6 587.5,176.8 					"/>
				</g>
				<g>
					<polygon fill="#29ABE2" points="579.3,312.4 580.7,311 587.5,318.2 594.2,311 595.6,312.4 587.5,321.2 					"/>
				</g>
			</g>
		</g>
		<g>
			<path d="M583.6,254.8c0.5,0,1,0,1.7-0.1c1.2-0.2,2.4-0.7,3.3-1.5c1-0.9,1.8-2.3,2.1-4.2h-0.1c-0.9,1.1-2.1,1.7-3.7,1.7
				c-2.8,0-4.6-2.1-4.6-4.8c0-3,2.1-5.5,5.3-5.5s5.2,2.6,5.2,6.6c0,3.4-1.2,5.8-2.7,7.3c-1.2,1.2-2.9,1.9-4.5,2.1
				c-0.8,0.1-1.4,0.1-1.9,0.1V254.8z M584.4,245.8c0,1.9,1.2,3.3,3,3.3c1.4,0,2.5-0.7,3.1-1.6c0.1-0.2,0.2-0.4,0.2-0.8
				c0-2.7-1-4.7-3.2-4.7C585.7,242,584.4,243.6,584.4,245.8z"/>
		</g>
	</g>
	<g>
		<path fill="#6D6D6D" d="M549.5,217c0.1-0.2,0.2-0.2,0.3-0.1c0.9,0.5,1.9,1.2,2.8,2.1c0.1,0.1,0.1,0.1-0.1,0.3l-0.4,0.6
			c-0.1,0.2-0.2,0.2-0.3,0.1c-0.9-0.9-1.7-1.6-2.7-2.2c-0.1-0.1-0.1-0.1,0-0.3L549.5,217z M550.9,228.1c-0.2,0.4-0.4,0.7-0.4,0.8
			c0,0.1-0.1,0.2-0.2,0.2c-0.1,0-0.1,0-0.3-0.1c-0.3-0.2-0.6-0.5-0.9-0.7c0.4-0.4,0.7-0.8,1.1-1.6c0.7-1.3,1.3-2.5,2.1-4.4
			c0.1,0.2,0.3,0.4,0.6,0.6c0.3,0.2,0.3,0.2,0.2,0.6C552.4,225.2,551.8,226.6,550.9,228.1z M550.7,212.2c0.1-0.2,0.2-0.2,0.3-0.1
			c0.9,0.6,1.9,1.4,2.7,2.2c0.1,0.1,0.1,0.1-0.1,0.3l-0.4,0.5c-0.1,0.2-0.2,0.2-0.3,0.1c-0.9-0.9-1.7-1.6-2.7-2.3
			c-0.1-0.1-0.1-0.1,0-0.3L550.7,212.2z M566.6,228.5c0,0.1,0,0.2-0.2,0.2c-0.1,0-0.8,0-2.8,0h-7.4c-2,0-2.7,0-2.8,0
			c-0.1,0-0.2,0-0.2-0.2v-0.9c0-0.1,0-0.2,0.2-0.2c0.1,0,0.8,0,2.8,0h2.9v-5.2h-1.5c-1.9,0-2.5,0-2.7,0c-0.1,0-0.1,0-0.1-0.2v-0.9
			c0-0.1,0-0.2,0.1-0.2c0.1,0,0.7,0,2.7,0h1.5V217h-2c-2,0-2.6,0-2.7,0c-0.1,0-0.2,0-0.2-0.2V216c0-0.1,0-0.2,0.2-0.2
			c0.1,0,0.7,0,2.7,0h5.8c2,0,2.6,0,2.8,0c0.1,0,0.2,0,0.2,0.2v0.9c0,0.1,0,0.2-0.2,0.2c-0.1,0-0.8,0-2.8,0h-2.5v4.2h2
			c1.9,0,2.5,0,2.6,0c0.2,0,0.2,0,0.2,0.2v0.9c0,0.1,0,0.2-0.2,0.2c-0.1,0-0.7,0-2.6,0h-2v5.2h3.2c2,0,2.7,0,2.8,0
			c0.1,0,0.2,0,0.2,0.2V228.5z M558.1,211.7c0.2-0.2,0.2-0.2,0.3-0.1c1,0.6,2.2,1.4,3.2,2.3c0.1,0.1,0.1,0.2-0.1,0.3l-0.4,0.5
			c-0.2,0.2-0.2,0.2-0.4,0.1c-1-1-2.1-1.8-3.2-2.4c-0.1-0.1-0.1-0.1,0.1-0.3L558.1,211.7z"/>
		<path fill="#6D6D6D" d="M566.6,239.2c0,0.1,0,0.2-0.2,0.2c-0.1,0-0.7,0-2.6,0h-12.2c-1.8,0-2.5,0-2.6,0c-0.1,0-0.2,0-0.2-0.2v-0.9
			c0-0.1,0-0.2,0.2-0.2c0.1,0,0.7,0,2.6,0h2.7c-0.3-1-0.6-1.7-1.1-2.6c-0.1-0.1,0-0.1,0.2-0.2l0.6-0.2c0.2-0.1,0.2,0,0.3,0.1
			c0.5,0.8,0.9,1.8,1.2,2.9h3.8c0.4-0.8,0.7-1.6,0.9-2.2c0.1-0.3,0.2-0.6,0.2-1c0.4,0.1,0.9,0.2,1.2,0.3c0.2,0.1,0.2,0.1,0.2,0.2
			c0,0.1-0.1,0.2-0.1,0.3c-0.1,0.1-0.2,0.2-0.3,0.4c-0.3,0.6-0.6,1.3-0.9,1.9h3.2c1.9,0,2.5,0,2.6,0c0.1,0,0.2,0,0.2,0.2V239.2z
			 M565.2,234.5c0,0.2,0,0.2-0.2,0.2c-0.1,0-0.8,0-2.8,0H553c-2,0-2.7,0-2.8,0c-0.1,0-0.2,0-0.2-0.2v-0.8c0-0.1,0-0.2,0.2-0.2
			c0.1,0,0.8,0,2.8,0h3.9v-0.1c0-1,0-1.5-0.1-2c0.5,0,0.9,0,1.3,0.1c0.2,0,0.2,0.1,0.2,0.2c0,0.1,0,0.2-0.1,0.4
			c-0.1,0.2-0.1,0.5-0.1,1.4v0.1h4.2c2,0,2.7,0,2.8,0c0.1,0,0.2,0,0.2,0.2V234.5z M563.2,245.6c0,3.1,0,3.6,0,3.7
			c0,0.1,0,0.2-0.2,0.2h-0.9c-0.1,0-0.2,0-0.2-0.2v-0.9h-8.7v1c0,0.1,0,0.1-0.2,0.1h-0.9c-0.1,0-0.2,0-0.2-0.1s0-0.6,0-3.8v-1.9
			c0-1.9,0-2.4,0-2.5c0-0.1,0-0.2,0.2-0.2c0.1,0,0.8,0,2.7,0h5.4c2,0,2.6,0,2.7,0c0.1,0,0.2,0,0.2,0.2c0,0.1,0,0.6,0,2.3V245.6z
			 M562,242.1h-8.7v2h8.7V242.1z M562,245.2h-8.7v2.2h8.7V245.2z"/>
		<path fill="#6D6D6D" d="M557.5,254.4c0,0.1,0,0.2-0.2,0.2c-0.1,0-0.6,0-2.2,0h-0.8c0.4,0.6,0.6,1.2,0.9,2c0,0.1,0,0.2-0.2,0.2
			l-0.7,0.2c-0.3,0.1-0.3,0.1-0.3-0.1c-0.2-0.8-0.6-1.6-0.9-2.3h-1.6c-0.5,0.8-1.2,1.6-1.8,2.3c-0.1,0.1-0.2,0.2-0.3,0.2
			c-0.1,0-0.1-0.1-0.3-0.2c-0.2-0.2-0.4-0.4-0.6-0.5c1.3-1.2,2.2-2.5,2.8-3.9c0.2-0.4,0.2-0.7,0.3-1c0.5,0.1,0.9,0.2,1.2,0.3
			c0.1,0,0.2,0.1,0.2,0.2s-0.1,0.2-0.2,0.2c-0.1,0.1-0.2,0.2-0.3,0.5c-0.1,0.3-0.3,0.6-0.4,0.8h3.1c1.6,0,2,0,2.2,0
			c0.1,0,0.2,0,0.2,0.2V254.4z M551.8,263.7c0-0.7,0-1.7,0-2.5c-0.6,0.8-1.4,1.6-2.1,2.2c-0.1,0.1-0.2,0.2-0.3,0.2
			c-0.1,0-0.2-0.1-0.3-0.3c-0.2-0.3-0.3-0.5-0.5-0.6c1.9-1.5,3.2-3.1,4.1-4.8c0.2-0.4,0.4-0.8,0.5-1.1c0.4,0.2,0.8,0.3,1.1,0.5
			c0.1,0.1,0.2,0.2,0.2,0.2c0,0.1,0,0.2-0.2,0.2c-0.1,0.1-0.3,0.3-0.5,0.6c-0.2,0.4-0.5,0.9-0.8,1.4v7.1c0,1.7,0,2.4,0,2.5
			c0,0.1,0,0.1-0.1,0.1h-1c-0.1,0-0.2,0-0.2-0.1c0-0.1,0-0.8,0-2.5V263.7z M566.5,260.5c0,0.1,0,0.2-0.2,0.2c-0.1,0-0.8,0-2.8,0
			h-0.3v3.9c0,1.1,0,2,0,3c0,0.7-0.1,1.2-0.6,1.4c-0.5,0.3-1.2,0.3-2.8,0.3c-0.4,0-0.4,0-0.5-0.4c-0.1-0.4-0.2-0.7-0.4-0.9
			c0.6,0.1,1.1,0.1,1.8,0.1c1.1,0,1.3-0.1,1.3-0.8v-6.6h-4.9c-2,0-2.7,0-2.8,0c-0.1,0-0.2,0-0.2-0.2v-0.9c0-0.1,0-0.2,0.2-0.2
			c0.1,0,0.8,0,2.8,0h4.9v-0.1c0-1.2,0-1.8-0.1-2.4c0.5,0,0.9,0.1,1.3,0.1c0.1,0,0.3,0.1,0.3,0.2c0,0.1-0.1,0.2-0.1,0.4
			c-0.1,0.2-0.1,0.6-0.1,1.7v0.1h0.3c2,0,2.7,0,2.8,0c0.1,0,0.2,0,0.2,0.2V260.5z M556.5,262.1c0.2-0.1,0.2-0.1,0.3,0
			c1,0.9,1.7,1.8,2.4,3c0.1,0.1,0,0.2-0.1,0.3l-0.5,0.4c-0.2,0.2-0.3,0.2-0.4,0c-0.7-1.2-1.4-2.2-2.3-3c-0.1-0.1-0.1-0.2,0.1-0.3
			L556.5,262.1z M566.4,254.4c0,0.1,0,0.2-0.1,0.2c-0.1,0-0.7,0-2.4,0h-1.5c0.4,0.5,0.7,1.1,0.9,1.8c0,0.1,0,0.2-0.2,0.2l-0.6,0.2
			c-0.3,0.1-0.3,0.1-0.4-0.1c-0.2-0.7-0.6-1.4-1-2.1h-1.7c-0.4,0.7-0.9,1.5-1.5,2.2c-0.1,0.1-0.2,0.2-0.3,0.2s-0.2-0.1-0.3-0.2
			c-0.2-0.2-0.4-0.3-0.7-0.4c1.2-1.3,1.9-2.5,2.4-3.9c0.1-0.2,0.2-0.6,0.2-0.9c0.4,0.1,0.9,0.2,1.2,0.3c0.1,0,0.2,0.1,0.2,0.2
			c0,0.1-0.1,0.2-0.2,0.3c-0.1,0.1-0.1,0.2-0.3,0.5c-0.1,0.3-0.2,0.5-0.3,0.8h3.9c1.7,0,2.3,0,2.4,0c0.1,0,0.1,0,0.1,0.2V254.4z"/>
		<path fill="#6D6D6D" d="M555.9,280.3c0,0.1,0,0.2-0.2,0.2c-0.1,0-0.6,0-2.1,0H552c-0.2,0.7-0.4,1.4-0.6,2.1h1.9c0.6,0,1.1,0,1.4,0
			c0.1,0,0.2,0,0.2,0.2c-0.1,0.3-0.1,0.7-0.1,1c-0.2,2.1-0.4,3.5-0.8,4.5c-0.3,0.6-0.8,0.9-1.6,0.9c-0.3,0-0.7,0-1-0.1
			c-0.3,0-0.3-0.1-0.4-0.4c-0.1-0.3-0.2-0.7-0.3-0.8c0.6,0.1,1,0.2,1.4,0.2c0.5,0,0.8-0.1,0.9-0.5c0.3-0.9,0.5-2.4,0.6-4h-2.7
			l-0.3,0.8c-0.1,0.1-0.1,0.1-0.3,0.1l-0.6-0.1c-0.2-0.1-0.2-0.1-0.2-0.2c0.5-1.2,0.9-2.5,1.2-3.7c-1.4,0-1.9,0-2,0
			c-0.1,0-0.1,0-0.1-0.2v-0.8c0-0.1,0-0.2,0.1-0.2c0.1,0,0.6,0,2.1,0h2.6c1.6,0,2,0,2.1,0c0.1,0,0.2,0,0.2,0.2V280.3z M555.1,275.9
			c0,1.1,0,1.5,0,1.6c0,0.1,0,0.2-0.2,0.2c-0.1,0-0.5,0-1.7,0h-1.6c-1.2,0-1.6,0-1.8,0c-0.1,0-0.2,0-0.2-0.2c0-0.1,0-0.5,0-1.6v-1.7
			c0-1.1,0-1.5,0-1.6c0-0.1,0-0.2,0.2-0.2c0.1,0,0.5,0,1.8,0h1.6c1.3,0,1.6,0,1.7,0c0.1,0,0.2,0,0.2,0.2c0,0.1,0,0.5,0,1.6V275.9z
			 M554,273.5h-3.2v3.2h3.2V273.5z M565.2,275.5c0.2,0,0.3,0,0.3-0.1s0.2-0.1,0.2-0.1c0.2,0,0.3,0.1,0.6,0.3
			c0.3,0.2,0.4,0.4,0.4,0.5c0,0.1-0.1,0.2-0.2,0.2c-0.1,0.1-0.2,0.2-0.3,0.5c-0.2,0.4-0.5,0.9-0.9,1.6c-0.1,0.2-0.2,0.2-0.2,0.2
			s-0.1,0-0.3-0.1c-0.2-0.1-0.5-0.2-0.7-0.3c0.5-0.6,0.8-1.2,1.1-1.7h-7.5v2.3c0,1.6,0,3.5-0.2,5.2c-0.2,1.7-0.7,3.5-1.7,5.1
			c-0.1,0.1-0.2,0.2-0.2,0.2c-0.1,0-0.1-0.1-0.3-0.2c-0.2-0.2-0.5-0.4-0.7-0.5c1.2-1.5,1.6-3.2,1.8-5c0.2-1.5,0.2-3.2,0.2-4.9
			c0-2.1,0-3,0-3.1c0-0.1,0-0.2,0.1-0.2c0.1,0,0.8,0,2.6,0h1.1v-2.6c0-0.6,0-1.1-0.1-1.5c0.5,0,0.8,0,1.2,0.1c0.1,0,0.2,0.1,0.2,0.2
			s-0.1,0.2-0.1,0.3c-0.1,0.1-0.1,0.5-0.1,1v0.1h2c1.1,0,1.4,0,1.5,0c0.1,0,0.2,0,0.2,0.2v0.7c0,0.2,0,0.2-0.2,0.2
			c-0.1,0-0.4,0-1.5,0h-2v1.4H565.2z M560.9,283.7c-0.1,0.2-0.1,0.5-0.1,1c-0.2,2-0.8,3.5-2.9,4.7c-0.1,0.1-0.2,0.1-0.3,0.1
			c-0.1,0-0.2-0.1-0.3-0.2c-0.2-0.2-0.4-0.4-0.6-0.5c2.1-0.9,2.8-2.1,2.9-4.1c0-0.6,0-1.1,0-1.6c0.4,0,0.8,0.1,1.1,0.1
			c0.2,0,0.3,0.1,0.3,0.2C561,283.4,560.9,283.6,560.9,283.7z M561.1,280.3c0,0.5,0.1,0.7,0.3,0.8c0.2,0.1,0.7,0.1,1.4,0.1
			c0.8,0,1.4-0.1,1.7-0.3c0.3-0.2,0.4-0.7,0.4-1.6c0.2,0.2,0.5,0.3,0.7,0.4c0.3,0.1,0.3,0.1,0.3,0.4c-0.1,0.8-0.3,1.2-0.6,1.5
			c-0.3,0.3-1.2,0.5-2.4,0.5c-1,0-1.8-0.1-2.1-0.2c-0.3-0.2-0.6-0.4-0.6-1.3v-1l-1.7,0.2c-0.1,0-0.1,0-0.2-0.1l-0.1-0.7
			c0-0.1,0-0.1,0.1-0.1s0.5,0,1.8-0.2v-0.4c0-0.6-0.1-1.2-0.1-1.4c0.4,0,0.8,0.1,1.1,0.1c0.1,0,0.2,0.1,0.2,0.2c0,0.1,0,0.1-0.1,0.2
			c-0.1,0.1-0.1,0.3-0.1,0.9v0.2l0.8-0.1c1.3-0.1,1.7-0.2,1.8-0.3c0.1,0,0.1,0,0.1,0.1l0.1,0.7c0,0.1,0,0.2-0.1,0.2l-1.8,0.2
			l-0.9,0.1V280.3z M563.4,287.5c0,0.4,0,0.5,0.2,0.6c0.2,0.1,0.4,0.1,0.9,0.1c0.7,0,0.9-0.1,1.1-0.4c0.2-0.3,0.3-0.9,0.3-2.1
			c0.2,0.1,0.4,0.2,0.7,0.4c0.3,0.1,0.3,0.1,0.3,0.5c-0.1,1.3-0.2,1.8-0.5,2.1c-0.3,0.3-0.5,0.6-1.9,0.6c-0.8,0-1.3,0-1.7-0.2
			c-0.3-0.2-0.5-0.5-0.5-1.3v-2.4c0-1,0-1.7-0.1-2.2c0.4,0,0.8,0.1,1.2,0.1c0.1,0,0.2,0.1,0.2,0.2c0,0.1-0.1,0.2-0.1,0.4
			c-0.1,0.2-0.1,0.4-0.1,1.5V287.5z"/>
	</g>
	<g>
	</g>
	<g>
	</g>
	<g>
	</g>
	<g>
	</g>
	<g>
	</g>
	<g>
	</g>
	<g>
	</g>
	<g>
	</g>
	<g>
	</g>
	<g>
	</g>
	<g>
	</g>
	<g>
	</g>
	<g>
	</g>
	<g>
	</g>
	<g>
	</g>
	<g>
	</g>
	<g>
	</g>
</g>
</svg>
