<?xml version="1.0" encoding="utf-8"?>
<!-- Generator: Adobe Illustrator 18.1.0, SVG Export Plug-In . SVG Version: 6.00 Build 0)  -->
<svg version="1.1" xmlns="http://www.w3.org/2000/svg" xmlns:xlink="http://www.w3.org/1999/xlink" x="0px" y="0px"
	 viewBox="0 0 760 640" enable-background="new 0 0 760 640" xml:space="preserve">
<g id="ruler_under">
	<g id="h_45">
		<g>
			<g>
				<line fill="none" stroke="#999999" stroke-width="2" stroke-miterlimit="10" x1="20.5" y1="601" x2="360.5" y2="601"/>
				<line fill="none" stroke="#999999" stroke-width="2" stroke-miterlimit="10" x1="400.5" y1="601" x2="740.5" y2="601"/>
				<g>
					<rect x="19.5" y="593" fill="#999999" width="2" height="16"/>
				</g>
				<g>
					<rect x="739.5" y="593" fill="#999999" width="2" height="16"/>
				</g>
			</g>
		</g>
		<g>
			<path d="M375.2,610v-4.2h-7.2v-1.4l7-10h2.3v9.7h2.2v1.7h-2.2v4.2H375.2z M375.2,604.1v-5.2c0-0.8,0-1.6,0.1-2.4h-0.1
				c-0.5,0.9-0.9,1.6-1.3,2.3L370,604v0H375.2z"/>
			<path d="M390.2,596.2h-6l-0.6,4c0.4,0,0.7-0.1,1.3-0.1c1.2,0,2.4,0.3,3.4,0.8c1.2,0.7,2.2,2,2.2,4c0,3-2.4,5.3-5.8,5.3
				c-1.7,0-3.1-0.5-3.9-1l0.5-1.6c0.6,0.4,1.9,0.9,3.3,0.9c2,0,3.7-1.3,3.7-3.4c0-2-1.4-3.5-4.5-3.5c-0.9,0-1.6,0.1-2.2,0.2l1-7.5
				h7.5V596.2z"/>
		</g>
	</g>
	<g id="h_30_1_">
		<g>
			<g>
				<line fill="none" stroke="#999999" stroke-width="2" stroke-miterlimit="10" x1="20.5" y1="578" x2="240.5" y2="578"/>
				<line fill="none" stroke="#999999" stroke-width="2" stroke-miterlimit="10" x1="280.5" y1="578" x2="500.5" y2="578"/>
				<g>
					<rect x="19.5" y="570" fill="#999999" width="2" height="16"/>
				</g>
				<g>
					<rect x="499.5" y="570" fill="#999999" width="2" height="16"/>
				</g>
			</g>
		</g>
		<g>
			<path d="M249.1,584.6c0.6,0.4,2,1,3.5,1c2.7,0,3.6-1.7,3.5-3c0-2.2-2-3.1-4-3.1h-1.2v-1.6h1.2c1.5,0,3.5-0.8,3.5-2.6
				c0-1.2-0.8-2.4-2.7-2.4c-1.2,0-2.4,0.6-3.1,1l-0.6-1.5c0.8-0.6,2.4-1.2,4.1-1.2c3.1,0,4.5,1.8,4.5,3.7c0,1.6-1,3-2.9,3.7v0
				c1.9,0.4,3.5,1.8,3.5,4c0,2.5-1.9,4.7-5.7,4.7c-1.8,0-3.3-0.6-4.1-1.1L249.1,584.6z"/>
			<path d="M271.3,579c0,5.3-2,8.2-5.4,8.2c-3,0-5.1-2.9-5.2-8c0-5.2,2.3-8.1,5.4-8.1C269.4,571.1,271.3,574.1,271.3,579z
				 M262.8,579.3c0,4.1,1.2,6.4,3.2,6.4c2.2,0,3.2-2.5,3.2-6.5c0-3.8-1-6.4-3.2-6.4C264.2,572.8,262.8,575,262.8,579.3z"/>
		</g>
	</g>
	<g id="h_15">
		<g>
			<g>
				<line fill="none" stroke="#999999" stroke-width="2" stroke-miterlimit="10" x1="500.5" y1="578" x2="600.5" y2="578"/>
				<line fill="none" stroke="#999999" stroke-width="2" stroke-miterlimit="10" x1="640.5" y1="578" x2="740.5" y2="578"/>
				<g>
					<rect x="499.5" y="570" fill="#999999" width="2" height="16"/>
				</g>
				<g>
					<rect x="739.5" y="570" fill="#999999" width="2" height="16"/>
				</g>
			</g>
		</g>
		<g>
			<path d="M613.2,573.4L613.2,573.4l-2.8,1.5l-0.4-1.6l3.4-1.8h1.8V587h-2V573.4z"/>
			<path d="M630.2,573.2h-6l-0.6,4c0.4,0,0.7-0.1,1.3-0.1c1.2,0,2.4,0.3,3.4,0.8c1.2,0.7,2.2,2,2.2,4c0,3-2.4,5.3-5.8,5.3
				c-1.7,0-3.1-0.5-3.9-1l0.5-1.6c0.6,0.4,1.9,0.9,3.3,0.9c2,0,3.7-1.3,3.7-3.4c0-2-1.4-3.5-4.5-3.5c-0.9,0-1.6,0.1-2.2,0.2l1-7.5
				h7.5V573.2z"/>
		</g>
	</g>
</g>
<g id="ruler_above">
	<g id="h5">
		<g>
			<g>
				<line fill="none" stroke="#999999" stroke-width="2" stroke-miterlimit="10" x1="660.5" y1="58" x2="690.5" y2="58"/>
				<line fill="none" stroke="#999999" stroke-width="2" stroke-miterlimit="10" x1="710.5" y1="58" x2="740.5" y2="58"/>
				<g>
					<rect x="659.5" y="50" fill="#999999" width="2" height="16"/>
				</g>
				<g>
					<rect x="739.5" y="50" fill="#999999" width="2" height="16"/>
				</g>
			</g>
		</g>
		<g>
			<rect x="694.5" y="46.5" fill="none" width="13.9" height="30.4"/>
			<path d="M704.9,52.8h-6l-0.6,4c0.4,0,0.7-0.1,1.3-0.1c1.2,0,2.4,0.3,3.4,0.8c1.2,0.7,2.2,2,2.2,4c0,3-2.4,5.3-5.8,5.3
				c-1.7,0-3.1-0.5-3.9-1l0.5-1.6c0.6,0.4,1.9,0.9,3.3,0.9c2,0,3.7-1.3,3.7-3.4c0-2-1.4-3.5-4.5-3.5c-0.9,0-1.6,0.1-2.2,0.2l1-7.5
				h7.5V52.8z"/>
		</g>
		<g>
		</g>
	</g>
	<g id="h9">
		<g>
			<g>
				<line fill="none" stroke="#999999" stroke-width="2" stroke-miterlimit="10" x1="516.5" y1="58" x2="578.5" y2="58"/>
				<line fill="none" stroke="#999999" stroke-width="2" stroke-miterlimit="10" x1="598.5" y1="58" x2="660.5" y2="58"/>
				<g>
					<rect x="515.5" y="50" fill="#999999" width="2" height="16"/>
				</g>
				<g>
					<rect x="659.5" y="50" fill="#999999" width="2" height="16"/>
				</g>
			</g>
		</g>
		<g>
			<path d="M583.8,65.5c0.5,0,1,0,1.7-0.1c1.2-0.2,2.4-0.7,3.3-1.5c1-0.9,1.8-2.3,2.1-4.2h-0.1c-0.9,1.1-2.1,1.7-3.7,1.7
				c-2.8,0-4.6-2.1-4.6-4.8c0-3,2.1-5.5,5.3-5.5s5.2,2.6,5.2,6.6c0,3.4-1.2,5.8-2.7,7.3c-1.2,1.2-2.9,1.9-4.5,2.1
				c-0.8,0.1-1.4,0.1-1.9,0.1V65.5z M584.6,56.5c0,1.9,1.2,3.3,3,3.3c1.4,0,2.5-0.7,3.1-1.6c0.1-0.2,0.2-0.4,0.2-0.8
				c0-2.7-1-4.7-3.2-4.7C585.9,52.7,584.6,54.3,584.6,56.5z"/>
		</g>
	</g>
</g>
<g id="grid">
	<g>
		<g id="yin_3_">
			<rect x="516.5" y="416.1" fill="#EEEEEE" width="144" height="144"/>
			<line fill="none" stroke="#999999" stroke-width="2" stroke-miterlimit="10" x1="516.5" y1="560" x2="660.5" y2="560"/>
			<line fill="none" stroke="#999999" stroke-width="2" stroke-miterlimit="10" x1="516.5" y1="416" x2="660.5" y2="416"/>
		</g>
		<g id="yin_1_">
			<rect x="516.5" y="272.1" fill="#EEEEEE" width="144" height="144"/>
			<line fill="none" stroke="#999999" stroke-width="2" stroke-miterlimit="10" x1="516.5" y1="416" x2="660.5" y2="416"/>
			<line fill="none" stroke="#999999" stroke-width="2" stroke-miterlimit="10" x1="516.5" y1="272" x2="660.5" y2="272"/>
		</g>
		<g id="yin_2_">
			<rect x="516.5" y="128.1" fill="#EEEEEE" width="144" height="144"/>
			<line fill="none" stroke="#999999" stroke-width="2" stroke-miterlimit="10" x1="516.5" y1="272" x2="660.5" y2="272"/>
			<line fill="none" stroke="#999999" stroke-width="2" stroke-miterlimit="10" x1="516.5" y1="128" x2="660.5" y2="128"/>
		</g>
		<g id="_x35_th">
			<rect x="516.5" y="80" fill="#EEEEEE" width="144" height="32"/>
			<line fill="none" stroke="#999999" stroke-width="2" stroke-miterlimit="10" x1="516.5" y1="80" x2="660.5" y2="80"/>
			<line fill="none" stroke="#999999" stroke-width="2" stroke-miterlimit="10" x1="516.5" y1="112" x2="660.5" y2="112"/>
		</g>
		<g id="inner_1_">
			<line fill="none" stroke="#CCCCCC" stroke-miterlimit="10" x1="180" y1="560" x2="180" y2="80"/>
			<line fill="none" stroke="#CCCCCC" stroke-miterlimit="10" x1="341" y1="560" x2="341" y2="80"/>
			<line fill="none" stroke="#CCCCCC" stroke-miterlimit="10" x1="20.5" y1="239.5" x2="500.5" y2="239.5"/>
			<line fill="none" stroke="#CCCCCC" stroke-miterlimit="10" x1="20.5" y1="400.5" x2="500.5" y2="400.5"/>
		</g>
		<g id="outer_1_">
			
				<rect id="zhuyin_1_" x="20.5" y="80.1" fill="none" stroke="#999999" stroke-width="2" stroke-miterlimit="10" width="720" height="480"/>
			
				<rect id="char_1_" x="20.5" y="80.1" fill="none" stroke="#999999" stroke-width="2" stroke-miterlimit="10" width="480" height="480"/>
			<line fill="none" stroke="#999999" stroke-width="2" stroke-miterlimit="10" x1="660.5" y1="560" x2="660.5" y2="80"/>
			<line fill="none" stroke="#999999" stroke-width="2" stroke-miterlimit="10" x1="516.5" y1="560" x2="516.5" y2="80"/>
		</g>
	</g>
</g>
<g id="ruler_symbol">
	<g id="v9_1_">
		<g>
			<g>
				<line fill="none" stroke="#66CC66" stroke-width="2" stroke-miterlimit="10" x1="587.5" y1="416" x2="587.5" y2="473"/>
				<line fill="none" stroke="#66CC66" stroke-width="2" stroke-miterlimit="10" x1="587.5" y1="503" x2="587.5" y2="560"/>
				<g>
					<rect x="579.5" y="415" fill="#66CC66" width="16" height="2"/>
				</g>
				<g>
					<rect x="579.5" y="559" fill="#66CC66" width="16" height="2"/>
				</g>
			</g>
		</g>
		<g>
			<path d="M583.6,493.8c0.5,0,1,0,1.7-0.1c1.2-0.2,2.4-0.7,3.3-1.5c1-0.9,1.8-2.3,2.1-4.2h-0.1c-0.9,1.1-2.1,1.7-3.7,1.7
				c-2.8,0-4.6-2.1-4.6-4.8c0-3,2.1-5.5,5.3-5.5s5.2,2.6,5.2,6.6c0,3.4-1.2,5.8-2.7,7.3c-1.2,1.2-2.9,1.9-4.5,2.1
				c-0.8,0.1-1.4,0.1-1.9,0.1V493.8z M584.4,484.8c0,1.9,1.2,3.3,3,3.3c1.4,0,2.5-0.7,3.1-1.6c0.1-0.2,0.2-0.4,0.2-0.8
				c0-2.7-1-4.7-3.2-4.7C585.7,481,584.4,482.6,584.4,484.8z"/>
		</g>
	</g>
	<g id="v9_4_">
		<g>
			<g>
				<line fill="none" stroke="#66CC66" stroke-width="2" stroke-miterlimit="10" x1="587.5" y1="272" x2="587.5" y2="329"/>
				<line fill="none" stroke="#66CC66" stroke-width="2" stroke-miterlimit="10" x1="587.5" y1="359" x2="587.5" y2="416"/>
				<g>
					<rect x="579.5" y="271" fill="#66CC66" width="16" height="2"/>
				</g>
				<g>
					<rect x="579.5" y="415" fill="#66CC66" width="16" height="2"/>
				</g>
			</g>
		</g>
		<g>
			<path d="M583.6,349.8c0.5,0,1,0,1.7-0.1c1.2-0.2,2.4-0.7,3.3-1.5c1-0.9,1.8-2.3,2.1-4.2h-0.1c-0.9,1.1-2.1,1.7-3.7,1.7
				c-2.8,0-4.6-2.1-4.6-4.8c0-3,2.1-5.5,5.3-5.5s5.2,2.6,5.2,6.6c0,3.4-1.2,5.8-2.7,7.3c-1.2,1.2-2.9,1.9-4.5,2.1
				c-0.8,0.1-1.4,0.1-1.9,0.1V349.8z M584.4,340.8c0,1.9,1.2,3.3,3,3.3c1.4,0,2.5-0.7,3.1-1.6c0.1-0.2,0.2-0.4,0.2-0.8
				c0-2.7-1-4.7-3.2-4.7C585.7,337,584.4,338.6,584.4,340.8z"/>
		</g>
	</g>
	<g id="v9_5_">
		<g>
			<g>
				<line fill="none" stroke="#66CC66" stroke-width="2" stroke-miterlimit="10" x1="587.5" y1="128" x2="587.5" y2="185"/>
				<line fill="none" stroke="#66CC66" stroke-width="2" stroke-miterlimit="10" x1="587.5" y1="215" x2="587.5" y2="272"/>
				<g>
					<rect x="579.5" y="127" fill="#66CC66" width="16" height="2"/>
				</g>
				<g>
					<rect x="579.5" y="271" fill="#66CC66" width="16" height="2"/>
				</g>
			</g>
		</g>
		<g>
			<path d="M583.6,205.8c0.5,0,1,0,1.7-0.1c1.2-0.2,2.4-0.7,3.3-1.5c1-0.9,1.8-2.3,2.1-4.2h-0.1c-0.9,1.1-2.1,1.7-3.7,1.7
				c-2.8,0-4.6-2.1-4.6-4.8c0-3,2.1-5.5,5.3-5.5s5.2,2.6,5.2,6.6c0,3.4-1.2,5.8-2.7,7.3c-1.2,1.2-2.9,1.9-4.5,2.1
				c-0.8,0.1-1.4,0.1-1.9,0.1V205.8z M584.4,196.8c0,1.9,1.2,3.3,3,3.3c1.4,0,2.5-0.7,3.1-1.6c0.1-0.2,0.2-0.4,0.2-0.8
				c0-2.7-1-4.7-3.2-4.7C585.7,193,584.4,194.6,584.4,196.8z"/>
		</g>
	</g>
	<g>
		<path fill="#66CC66" d="M549.4,307.1c0.2-0.2,0.2-0.2,0.4-0.1c1,0.5,1.9,1.2,2.8,2c0.1,0.1,0.1,0.1,0.1,0.2c0,0.1,0,0.1-0.1,0.2
			l-0.9,1.3c-0.1,0.1-0.1,0.1-0.2,0.1c0,0-0.1,0-0.2-0.1c-0.9-0.8-1.8-1.6-2.8-2.2c-0.1-0.1-0.1-0.1-0.1-0.1c0-0.1,0-0.1,0.1-0.2
			L549.4,307.1z M549.6,316.8c0.6-1.1,1.3-2.7,2-4.6c0.3,0.3,0.7,0.7,1.1,1c0.3,0.2,0.4,0.3,0.4,0.5c0,0.1,0,0.2-0.1,0.5
			c-0.6,1.6-1.3,3.1-1.9,4.4c-0.2,0.3-0.3,0.6-0.3,0.8c0,0.2-0.1,0.3-0.3,0.3c-0.1,0-0.2,0-0.4-0.1c-0.5-0.3-1-0.6-1.5-1.1
			C549,317.9,549.3,317.5,549.6,316.8z M550.4,302c0.2-0.2,0.2-0.2,0.4-0.1c1,0.6,2,1.3,2.9,2.1c0.1,0.1,0.1,0.1,0.1,0.2
			s0,0.1-0.1,0.2l-0.9,1.2c-0.2,0.2-0.2,0.2-0.3,0.1c-0.9-0.8-2-1.7-2.9-2.3c-0.1-0.1-0.1-0.1-0.1-0.1c0-0.1,0-0.1,0.1-0.2
			L550.4,302z M556.1,319.1c-2,0-2.7,0-2.8,0c-0.2,0-0.2,0-0.2-0.2v-1.5c0-0.2,0-0.2,0.2-0.2c0.1,0,0.8,0,2.8,0h2.5v-4.3h-1.3
			c-1.9,0-2.5,0-2.6,0c-0.2,0-0.2,0-0.2-0.2v-1.5c0-0.2,0-0.2,0.2-0.2c0.1,0,0.8,0,2.6,0h1.3v-3.5h-1.7c-1.9,0-2.6,0-2.7,0
			c-0.2,0-0.2,0-0.2-0.2v-1.5c0-0.2,0-0.2,0.2-0.2c0.1,0,0.8,0,2.7,0h6.1c1.9,0,2.6,0,2.7,0c0.2,0,0.2,0,0.2,0.2v1.5
			c0,0.2,0,0.2-0.2,0.2c-0.1,0-0.8,0-2.7,0h-2.2v3.5h1.7c1.9,0,2.5,0,2.6,0c0.2,0,0.2,0,0.2,0.2v1.5c0,0.2,0,0.2-0.2,0.2
			c-0.1,0-0.7,0-2.6,0h-1.7v4.3h2.8c2,0,2.6,0,2.8,0c0.2,0,0.2,0,0.2,0.2v1.5c0,0.2,0,0.2-0.2,0.2c-0.1,0-0.8,0-2.8,0H556.1z
			 M558.1,301.7c0.2-0.2,0.2-0.2,0.4-0.1c1,0.4,2.4,1.3,3.4,2.1c0.1,0.1,0.1,0.1,0.1,0.2s0,0.1-0.2,0.2l-1,1.2
			c-0.2,0.2-0.2,0.2-0.4,0.1c-0.9-0.9-2.3-1.7-3.4-2.2c-0.2-0.1-0.2-0.1,0-0.3L558.1,301.7z"/>
		<path fill="#66CC66" d="M551.2,329.8c-1.8,0-2.4,0-2.5,0c-0.2,0-0.2,0-0.2-0.2v-1.4c0-0.2,0-0.2,0.2-0.2c0.1,0,0.7,0,2.5,0h2.2
			c-0.2-0.8-0.4-1.3-0.8-2c-0.1-0.2,0-0.2,0.2-0.3l1.4-0.4c0.2-0.1,0.3,0,0.4,0.2c0.4,0.7,0.6,1.4,1,2.4h3.4
			c0.3-0.7,0.5-1.1,0.7-1.7c0.1-0.3,0.2-0.6,0.2-1c0.7,0.1,1.3,0.3,1.9,0.5c0.2,0.1,0.3,0.1,0.3,0.2s-0.1,0.2-0.2,0.3
			c-0.1,0.1-0.2,0.3-0.3,0.5l-0.5,1.2h2.7c1.8,0,2.4,0,2.5,0c0.2,0,0.2,0,0.2,0.2v1.4c0,0.2,0,0.2-0.2,0.2c-0.1,0-0.7,0-2.5,0H551.2
			z M552.6,325.2c-1.9,0-2.6,0-2.7,0c-0.2,0-0.2,0-0.2-0.2v-1.4c0-0.2,0-0.2,0.2-0.2c0.1,0,0.8,0,2.7,0h3.7v0c0-0.8,0-1.3-0.1-1.8
			c0.7,0,1.4,0,2.2,0.1c0.2,0,0.3,0.1,0.3,0.2c0,0.1-0.1,0.2-0.1,0.4c-0.1,0.2-0.1,0.4-0.1,1.1v0h3.9c1.9,0,2.6,0,2.7,0
			c0.2,0,0.2,0,0.2,0.2v1.4c0,0.2,0,0.2-0.2,0.2c-0.1,0-0.7,0-2.6,0H552.6z M551.7,339.9c-0.2,0-0.2,0-0.2-0.2c0-0.1,0-0.7,0-3.8
			v-1.9c0-2,0-2.5,0-2.7c0-0.2,0-0.2,0.2-0.2c0.1,0,0.8,0,2.7,0h6.1c1.9,0,2.6,0,2.7,0c0.2,0,0.2,0,0.2,0.2c0,0.1,0,0.7,0,2.4v2.2
			c0,3.1,0,3.7,0,3.8c0,0.2,0,0.2-0.2,0.2h-1.6c-0.2,0-0.2,0-0.2-0.2v-0.7h-7.8v0.8c0,0.2,0,0.2-0.2,0.2H551.7z M553.6,334.1h7.8
			v-1.3h-7.8V334.1z M561.4,337.2v-1.5h-7.8v1.5H561.4z"/>
		<path fill="#66CC66" d="M551.2,354.8c0-0.7,0-1.5,0-2.3c-0.5,0.5-0.9,1-1.4,1.4c-0.2,0.2-0.3,0.3-0.4,0.3c-0.1,0-0.2-0.1-0.4-0.5
			c-0.3-0.5-0.5-0.9-0.8-1.3c1.8-1.3,2.9-2.7,3.8-4.2c0.3-0.5,0.6-1.1,0.7-1.5c0.3,0.1,0.6,0.2,0.8,0.3c-0.2-0.7-0.5-1.4-0.8-2h-1.1
			c-0.5,0.7-1.1,1.4-1.7,2.1c-0.2,0.2-0.3,0.3-0.4,0.3c-0.1,0-0.2-0.1-0.4-0.4c-0.3-0.4-0.6-0.7-1-0.9c1.2-1,2.1-2.3,2.7-3.5
			c0.2-0.4,0.3-0.7,0.4-1.2c0.7,0.1,1.3,0.2,1.9,0.4c0.2,0,0.3,0.1,0.3,0.3c0,0.1-0.1,0.2-0.2,0.3c-0.1,0.1-0.2,0.2-0.3,0.5
			l-0.2,0.5h2c1.7,0,2.2,0,2.4,0c0.2,0,0.2,0,0.2,0.2v1.3c0,0.2,0,0.2-0.2,0.2c-0.1,0-0.7,0-2.2,0c0.3,0.5,0.5,1,0.8,1.5
			c0.1,0.2,0.1,0.3-0.2,0.3l-1.5,0.3l0.5,0.3c0.2,0.1,0.3,0.2,0.3,0.3c0,0.1,0,0.2-0.2,0.3c-0.1,0.1-0.3,0.3-0.5,0.7
			c-0.2,0.4-0.5,0.8-0.8,1.2v7.3c0,1.5,0,2.3,0,2.4c0,0.2,0,0.2-0.2,0.2h-1.6c-0.2,0-0.2,0-0.2-0.2c0-0.1,0-0.8,0-2.4V354.8z
			 M557.1,351.3c-1.9,0-2.6,0-2.7,0c-0.2,0-0.2,0-0.2-0.2v-1.5c0-0.2,0-0.2,0.2-0.2c0.1,0,0.8,0,2.7,0h4.4c0-0.9,0-1.5-0.2-2.3
			c0.8,0,1.4,0.1,2.1,0.2c0.2,0,0.3,0.1,0.3,0.2c0,0.2-0.1,0.3-0.1,0.4c-0.1,0.2-0.1,0.6-0.1,1.5c1.9,0,2.6,0,2.7,0
			c0.2,0,0.2,0,0.2,0.2v1.5c0,0.2,0,0.2-0.2,0.2c-0.1,0-0.8,0-2.7,0v2.5c0,1.4,0.1,2.4,0.1,3.6c0,0.9-0.1,1.5-0.7,1.9
			c-0.6,0.3-1.3,0.5-3,0.5c-0.6,0-0.6,0-0.8-0.6c-0.1-0.6-0.4-1.2-0.6-1.6c0.8,0.1,1.3,0.1,2,0.1c0.9,0,1-0.1,1-0.6v-5.7H557.1z
			 M556.5,352.2c0.1-0.1,0.2-0.1,0.2-0.1c0.1,0,0.1,0,0.2,0.1c0.9,0.9,1.6,1.7,2.4,2.9c0.1,0.2,0.1,0.2-0.1,0.4l-1.1,0.8
			c-0.1,0.1-0.2,0.1-0.3,0.1c-0.1,0-0.1,0-0.2-0.1c-0.7-1.1-1.4-2.1-2.3-3c-0.2-0.2-0.1-0.2,0.1-0.4L556.5,352.2z M559.7,345.1
			c-0.4,0.7-0.8,1.3-1.4,1.9c-0.2,0.2-0.3,0.3-0.4,0.3c-0.1,0-0.2-0.1-0.4-0.4c-0.3-0.4-0.7-0.7-1-0.9c1.1-1.1,1.9-2.3,2.4-3.5
			c0.1-0.3,0.2-0.7,0.3-1.1c0.6,0.1,1.4,0.2,1.8,0.3c0.2,0.1,0.3,0.1,0.3,0.3c0,0.1-0.1,0.2-0.2,0.3c-0.1,0.1-0.2,0.2-0.3,0.6
			c-0.1,0.1-0.1,0.3-0.2,0.4h2.9c1.9,0,2.5,0,2.7,0c0.2,0,0.2,0,0.2,0.2v1.3c0,0.2,0,0.2-0.2,0.2c-0.1,0-0.8,0-2.7,0H563
			c0.3,0.4,0.5,0.8,0.7,1.3c0.1,0.2,0,0.3-0.2,0.3l-1.3,0.2c-0.3,0-0.3,0.1-0.4-0.2c-0.2-0.6-0.5-1.1-0.8-1.7H559.7z"/>
		<path fill="#66CC66" d="M552.1,371.1c-0.1,0.5-0.3,1-0.4,1.6h1.6c0.7,0,1.2,0,1.4,0c0.2,0,0.2,0,0.2,0.3c-0.1,0.4-0.1,0.9-0.1,1.3
			c-0.2,2.5-0.4,3.8-0.8,4.7c-0.3,0.6-0.8,0.9-1.8,0.9c-0.3,0-0.6,0-0.9,0c-0.5,0-0.5-0.1-0.6-0.6c-0.1-0.6-0.2-1.1-0.4-1.4
			c0.6,0.1,1,0.2,1.4,0.2c0.4,0,0.6-0.1,0.8-0.4c0.3-0.6,0.4-1.6,0.4-3.1h-1.8c-0.1,0.3-0.2,0.5-0.3,0.7c-0.1,0.2-0.1,0.2-0.4,0.2
			l-1.3-0.2c-0.2,0-0.3-0.1-0.2-0.3c0.5-1.2,0.9-2.5,1.2-3.7c-1.1,0-1.5,0-1.6,0c-0.2,0-0.2,0-0.2-0.2v-1.4c0-0.2,0-0.2,0.2-0.2
			c0.1,0,0.6,0,2.1,0h2.6c1.5,0,2,0,2.1,0c0.2,0,0.2,0,0.2,0.2v1.4c0,0.2,0,0.2-0.2,0.2c-0.1,0-0.6,0-2.1,0H552.1z M552.9,362.4
			c1.3,0,1.7,0,1.8,0c0.2,0,0.2,0,0.2,0.2c0,0.1,0,0.6,0,1.6v2c0,1.1,0,1.5,0,1.6c0,0.2,0,0.2-0.2,0.2c-0.1,0-0.5,0-1.8,0h-1.8
			c-1.2,0-1.6,0-1.8,0c-0.2,0-0.2,0-0.2-0.2c0-0.1,0-0.5,0-1.6v-2c0-1,0-1.5,0-1.6c0-0.2,0-0.2,0.2-0.2c0.1,0,0.5,0,1.8,0H552.9z
			 M553.1,364H551v2.2h2.2V364z M559.7,370.4c-1.1,0.1-1.5,0.1-1.7,0.2c0,1.4-0.1,2.6-0.2,3.9c-0.2,1.7-0.7,3.4-1.6,4.9
			c-0.1,0.2-0.2,0.3-0.4,0.3c-0.1,0-0.2-0.1-0.4-0.3c-0.4-0.4-0.7-0.7-1.1-0.9c1.1-1.3,1.5-2.8,1.7-4.5c0.2-1.4,0.2-3.1,0.2-5.3
			c0-1.9,0-2.8,0-2.9c0-0.2,0-0.2,0.2-0.2c0.1,0,0.9,0,2.5,0h0.8v-2.3c0-0.6,0-1.1-0.1-1.6c0.8,0,1.2,0.1,2,0.1
			c0.2,0,0.3,0.1,0.3,0.2c0,0.1-0.1,0.2-0.1,0.3c-0.1,0.1-0.1,0.3-0.1,0.7h1.7c1.3,0,1.7,0,1.8,0c0.2,0,0.2,0,0.2,0.2v1.2
			c0,0.2,0,0.2-0.2,0.2c-0.1,0-0.5,0-1.8,0h-1.7v1h3c0.2,0,0.3,0,0.4-0.1c0.1,0,0.2-0.1,0.3-0.1c0.2,0,0.3,0.1,0.8,0.4
			c0.5,0.3,0.6,0.5,0.6,0.6c0,0.2-0.1,0.3-0.2,0.4c-0.1,0.1-0.1,0.2-0.3,0.5c-0.2,0.4-0.4,1-0.9,1.7c-0.1,0.2-0.2,0.3-0.3,0.3
			c-0.1,0-0.2-0.1-0.4-0.2c-0.4-0.2-0.7-0.3-1-0.4l0.1,1.3c0,0.2-0.1,0.2-0.2,0.2c-0.2,0-0.5,0-1.7,0.1l-0.6,0.1v0.2
			c0,0.4,0.1,0.5,0.2,0.6c0.2,0.1,0.6,0.1,1.2,0.1c0.8,0,1.1,0,1.3-0.2c0.2-0.2,0.3-0.5,0.4-1.3c0.3,0.2,0.8,0.4,1.2,0.5
			c0.5,0.1,0.5,0.1,0.4,0.6c-0.1,0.8-0.3,1.2-0.7,1.5c-0.4,0.3-1.2,0.5-2.6,0.5c-1.2,0-2.1-0.1-2.5-0.3c-0.4-0.2-0.6-0.6-0.6-1.5
			V370.4z M559.2,374.9c0-0.5,0-1-0.1-1.6c0.6,0,1.3,0.1,1.8,0.2c0.2,0,0.3,0.1,0.3,0.3c0,0.1-0.1,0.3-0.1,0.4
			c-0.1,0.2-0.1,0.6-0.1,1c-0.1,2.2-0.8,3.6-2.6,4.6c-0.2,0.1-0.3,0.2-0.4,0.2c-0.1,0-0.2-0.1-0.4-0.3c-0.3-0.5-0.7-0.8-1-1
			C558.5,377.7,559.1,376.9,559.2,374.9z M559.7,368.7c0-0.5,0-1-0.1-1.3c0.5,0,1.3,0.1,1.7,0.1c0.2,0,0.3,0.1,0.3,0.2
			c0,0.1,0,0.1-0.1,0.2c-0.1,0.1-0.1,0.3-0.1,0.8v0l0.5-0.1c1.1-0.1,1.5-0.2,1.8-0.2c0.4-0.5,0.6-1,0.8-1.4H558v2l1.7-0.2V368.7z
			 M563.9,377.3c0,0.4,0,0.5,0.1,0.6c0.1,0.1,0.2,0.1,0.4,0.1s0.4-0.1,0.6-0.3c0.2-0.3,0.2-0.7,0.2-2c0.3,0.2,0.8,0.3,1.2,0.5
			c0.4,0.1,0.4,0.2,0.4,0.6c-0.1,1.4-0.3,1.9-0.5,2.3c-0.3,0.4-0.7,0.6-2,0.6c-0.9,0-1.4,0-1.8-0.3c-0.3-0.2-0.5-0.6-0.5-1.4v-2.4
			c0-0.9,0-1.5-0.1-2.2c0.5,0,1.4,0.1,1.8,0.1c0.2,0,0.3,0.1,0.3,0.2c0,0.2-0.1,0.2-0.1,0.4c-0.1,0.2-0.1,0.4-0.1,1.1V377.3z"/>
	</g>
</g>
<g id="ruler_5th-tone">
	<g id="v2_1_">
		<g>
			<g>
				<line fill="none" stroke="#FF3399" stroke-width="2" stroke-miterlimit="10" x1="625.5" y1="80" x2="625.5" y2="112"/>
				<g>
					<rect x="617.5" y="79" fill="#FF3399" width="16" height="2"/>
				</g>
				<g>
					<rect x="617.5" y="111" fill="#FF3399" width="16" height="2"/>
				</g>
			</g>
		</g>
		<g>
			<path d="M608.7,103.2v-1.3l1.7-1.6c4-3.8,5.8-5.8,5.8-8.2c0-1.6-0.8-3-3.1-3c-1.4,0-2.6,0.7-3.3,1.3l-0.7-1.5
				c1.1-0.9,2.6-1.6,4.4-1.6c3.4,0,4.8,2.3,4.8,4.5c0,2.9-2.1,5.2-5.4,8.4l-1.2,1.2v0h7v1.8H608.7z"/>
		</g>
	</g>
	<g>
		<path fill="#FF3399" d="M621.4,134.9c1.5,0,2.1,0,2.2,0c0.2,0,0.2,0,0.2,0.2v1.3c0,0.2,0,0.2-0.2,0.2c-0.1,0-0.6,0-2.2,0h-0.3v1.3
			h0.2c1.4,0,1.8,0,1.9,0c0.2,0,0.2,0,0.2,0.2c0,0.1,0,0.7,0,1.9v3c0,1.2,0,1.8,0,1.9c0,0.2,0,0.2-0.2,0.2c-0.1,0-0.6,0-1.9,0h-0.2
			v1.4h0.2c1.5,0,2.1,0,2.2,0c0.2,0,0.2,0,0.2,0.2v1.2c0,0.2,0,0.2-0.2,0.2c-0.1,0-0.6,0-2.2,0h-0.2c0,1.9,0,2.9,0,3
			c0,0.2,0,0.2-0.2,0.2h-1.4c-0.2,0-0.2,0-0.2-0.2c0-0.1,0-1.2,0-3h-0.7c-1.5,0-2.1,0-2.2,0c-0.2,0-0.2,0-0.2-0.2v-1.2
			c0-0.2,0-0.2,0.2-0.2c0.1,0,0.6,0,2.2,0h0.7v-1.4h-0.3c-1.4,0-1.8,0-1.9,0c-0.2,0-0.2,0-0.2-0.2c0-0.1,0-0.7,0-1.9v-3
			c0-1.2,0-1.7,0-1.9c0-0.2,0-0.2,0.2-0.2c0.1,0,0.6,0,1.9,0h0.3v-1.3h-0.6c-1.5,0-2,0-2.2,0c-0.2,0-0.2,0-0.2-0.2v-1.3
			c0-0.2,0-0.2,0.2-0.2c0.1,0,0.6,0,2.2,0h0.6c0-0.8,0-1.4-0.1-2.1c0.8,0,1.3,0.1,1.8,0.1c0.2,0,0.3,0.1,0.3,0.2
			c0,0.1,0,0.2-0.1,0.4s-0.1,0.5-0.1,1.3v0.1H621.4z M619.4,140.7v-1.6h-1v1.6H619.4z M619.4,143.6V142h-1v1.6H619.4z M621,139.2
			v1.6h1v-1.6H621z M621.9,142h-1v1.6h1V142z M626.1,150.5c-1.7,0-2.3,0-2.3,0c-0.2,0-0.2,0-0.2-0.2v-1.5c0-0.2,0-0.2,0.2-0.2
			c0.1,0,0.7,0,2.3,0h2V146h-1.3c-1.6,0-2.1,0-2.2,0c-0.2,0-0.2,0-0.2-0.2v-1.5c0-0.2,0-0.2,0.2-0.2c0.1,0,0.6,0,2.2,0h4.8
			c1.6,0,2.1,0,2.2,0c0.2,0,0.2,0,0.2,0.2v1.5c0,0.2,0,0.2-0.2,0.2c-0.1,0-0.6,0-2.2,0H630v2.7h2.1c1.7,0,2.2,0,2.3,0
			c0.2,0,0.2,0,0.2,0.2v1.5c0,0.2,0,0.2-0.2,0.2c-0.1,0-0.6,0-2.3,0H626.1z M626,143.8c-0.2,0.1-0.3,0.1-0.3-0.1
			c-0.5-1.3-1-2.4-1.7-3.4c-0.1-0.2-0.2-0.3-0.2-0.4c0-0.1,0.1-0.2,0.2-0.4c0.6-0.8,1.1-1.6,1.4-2.4c0.1-0.3,0.3-0.6,0.3-1
			c0.7,0.2,1.1,0.4,1.5,0.5c0.2,0.1,0.4,0.2,0.4,0.3c0,0.2-0.1,0.2-0.3,0.3c-0.1,0.1-0.2,0.4-0.4,0.6c-0.3,0.6-0.7,1.2-1.3,1.9
			c0.5,0.8,1.2,1.9,1.7,3.1c0.1,0.2,0.1,0.3-0.2,0.4L626,143.8z M626.7,135.6c-1.7,0-2.2,0-2.3,0c-0.2,0-0.2,0-0.2-0.2v-1.5
			c0-0.2,0-0.2,0.2-0.2c0.1,0,0.7,0,2.3,0h5.2c1.7,0,2.3,0,2.4,0c0.2,0,0.2,0,0.2,0.2v1.5c0,0.2,0,0.2-0.2,0.2c-0.1,0-0.7,0-2.4,0
			H626.7z M629.6,143.7c-0.2,0.1-0.3,0.1-0.4-0.1c-0.6-1.3-1.3-2.5-1.9-3.3c-0.1-0.2-0.2-0.3-0.2-0.4c0-0.1,0.1-0.3,0.2-0.5
			c0.6-0.8,0.9-1.4,1.4-2.3c0.1-0.3,0.3-0.6,0.3-1.1c0.6,0.2,1.1,0.4,1.5,0.5c0.2,0.1,0.4,0.2,0.4,0.3c0,0.1-0.1,0.2-0.2,0.3
			c-0.2,0.1-0.3,0.3-0.5,0.7c-0.3,0.6-0.7,1.2-1.3,2c0.8,0.9,1.2,1.8,1.9,3c0.1,0.2,0.1,0.2-0.1,0.3L629.6,143.7z M633,143.7
			c-0.2,0.1-0.2,0.1-0.3-0.1c-0.6-1.3-1.4-2.5-2-3.4c-0.1-0.2-0.2-0.3-0.2-0.4c0-0.1,0.1-0.2,0.2-0.4c0.5-0.8,0.9-1.5,1.3-2.4
			c0.1-0.3,0.3-0.6,0.4-1.1c0.6,0.2,1.1,0.4,1.5,0.6c0.2,0.1,0.3,0.2,0.3,0.3c0,0.1-0.1,0.2-0.2,0.3c-0.2,0.2-0.2,0.3-0.4,0.6
			c-0.3,0.6-0.7,1.2-1.2,2c0.7,0.8,1.4,1.7,2,3c0.1,0.2,0,0.3-0.2,0.4L633,143.7z"/>
		<path fill="#FF3399" d="M631.1,168.2c1.2-0.1,2.4-0.2,3.5-0.3c-0.1,0.2-0.1,0.5-0.1,0.8c-0.1,0.6-0.1,0.7-0.7,0.7l-2.7,0.2
			c0,0.9,0,1.3,0,1.4c0,0.2,0,0.2-0.2,0.2h-1.6c-0.2,0-0.2,0-0.2-0.2c0-0.1,0-0.5,0-1.3l-3.9,0.2c-2.6,0.1-4.8,0.2-7.3,0.3
			c-0.3,0-0.6,0-0.8,0.1c-0.1,0.1-0.2,0.1-0.3,0.1c-0.1,0-0.2-0.1-0.2-0.3c-0.1-0.5-0.3-1-0.4-1.6c0.4,0,0.9,0.1,1.6,0.1
			c0.5,0,1.3,0,2,0v-4.2h0c-1.8,0-2.4,0-2.5,0c-0.2,0-0.2,0-0.2-0.2v-1c0-0.2,0-0.2,0.1-0.2l-0.1-0.1c-0.3-0.3-0.6-0.5-0.9-0.6
			c1-0.9,1.4-1.8,1.4-3.5c0-0.4,0-0.8,0-0.9c0-0.2,0-0.2,0.2-0.2c0.1,0,0.7,0,2.2,0h2.8c1.6,0,2.1,0,2.2,0c0.2,0,0.2,0,0.2,0.2
			c0,0.1,0,0.3,0,0.9v1c0,0.7,0,0.8,0,1c0,0.2,0,0.2-0.2,0.2c-0.1,0-0.6,0-2.2,0h-3.7c-0.2,0.7-0.5,1.3-1.1,2c0.4,0,1,0,1.8,0h11.5
			c1.8,0,2.4,0,2.5,0c0.2,0,0.2,0,0.2,0.2v1c0,0.2,0,0.2-0.2,0.2c-0.1,0-0.7,0-2.5,0h-0.3V168.2z M620.5,155.9v-0.6h-1.2
			c-1.7,0-2.3,0-2.4,0c-0.2,0-0.2,0-0.2-0.2v-1c0-0.2,0-0.2,0.2-0.2c0.1,0,0.7,0,2.4,0h1.2c0-0.4,0-0.7-0.1-1.1
			c0.7,0,1.2,0.1,1.8,0.1c0.2,0,0.3,0.1,0.3,0.2c0,0.1,0,0.1-0.1,0.2c-0.1,0.1-0.1,0.3-0.1,0.6h0.9c1.7,0,2.3,0,2.4,0
			c0.2,0,0.2,0,0.2,0.2v1c0,0.2,0,0.2-0.2,0.2c-0.1,0-0.7,0-2.4,0h-0.9v0.6h0.6c1.6,0,2.1,0,2.2,0c0.2,0,0.2,0,0.2,0.2v0
			c1.1-0.4,1.5-0.9,1.5-1.9c0-0.4,0-0.6,0-0.7c0-0.2,0-0.2,0.2-0.2c0.1,0,0.4,0,1.5,0h1.7c1.1,0,1.4,0,1.5,0c0.2,0,0.2,0,0.2,0.2
			c0,0.1,0,0.4,0,1v0.6c0,0.1,0,0.2,0.1,0.3c0.1,0.1,0.2,0.1,0.5,0.1c0.3,0,0.4,0,0.5-0.1c0.1-0.1,0.1-0.3,0.2-1.1
			c0.2,0.2,0.6,0.3,1.1,0.5c0.4,0.1,0.4,0.2,0.3,0.6c-0.1,0.9-0.3,1.1-0.6,1.3c-0.3,0.2-0.8,0.3-1.7,0.3c-0.7,0-1.2,0-1.5-0.1
			c-0.4-0.2-0.6-0.5-0.6-1v-0.9h-1.8c0,1.2-0.6,2-1.7,2.5c-0.1,0.1-0.3,0.1-0.3,0.1c-0.1,0-0.3-0.1-0.4-0.4
			c-0.2-0.3-0.4-0.5-0.7-0.7v0.7c0,0.2,0,0.2-0.2,0.2c-0.1,0-0.6,0-2.2,0h-2.9c-1.6,0-2.1,0-2.2,0c-0.2,0-0.2,0-0.2-0.2v-0.9
			c0-0.2,0-0.2,0.2-0.2c0.1,0,0.6,0,2.2,0H620.5z M619.3,159.2c0,0.2,0,0.4,0,0.6h1.4V159h-1.4V159.2z M629.1,165.1v-0.6h-7.2v0.6
			H629.1z M629.1,166.8v-0.7h-7.2v0.7H629.1z M629.1,167.8h-7.2v0.8c2.5-0.1,4.9-0.1,7.2-0.3V167.8z M623.6,159h-1.4v0.9h1.4V159z
			 M631.7,157.4c0.2,0,0.3,0,0.4-0.1c0.1,0,0.1-0.1,0.3-0.1s0.2,0,0.7,0.4c0.5,0.4,0.6,0.5,0.6,0.7s-0.1,0.2-0.2,0.3
			c-0.2,0.1-0.4,0.3-0.6,0.6c-0.4,0.5-0.9,1-1.4,1.4c1,0.3,2.2,0.6,3.5,0.7c-0.2,0.3-0.4,0.6-0.5,1c-0.2,0.6-0.2,0.7-0.8,0.6
			c-1.5-0.2-2.7-0.6-3.8-1.1c-1,0.5-2.2,0.9-3.6,1.2c-0.5,0.1-0.5,0.1-0.8-0.4c-0.2-0.5-0.4-0.8-0.7-1.1c1.3-0.2,2.4-0.4,3.4-0.8
			c-0.7-0.5-1.2-1.2-1.6-1.9c-0.3,0-0.5,0-0.5,0c-0.2,0-0.2,0-0.2-0.2v-1.1c0-0.2,0-0.2,0.2-0.2c0.1,0,0.6,0,2.2,0H631.7z
			 M628.3,158.8c0.4,0.4,0.9,0.8,1.4,1.1c0.5-0.3,1-0.7,1.4-1.1H628.3z"/>
	</g>
</g>
<g id="character" display="none">
	<g display="inline">
		<path d="M567.1,290.2c1,1,1.5,2.4,1.7,3.9c0,1.3-1.1,3.9-3.4,7.7c-4.6,8-7.3,13.8-7.9,17.6c0,1.1,0.7,1.7,2.2,1.7
			c1,0,7.9-1.1,20.8-3.4c17.9-3.4,30.8-5.1,38.8-5.1c2.5,0,5.3,1.4,8.3,4.4c3.1,3,4.6,5.3,4.6,7.5c0,1.8-2.1,7.5-6.2,16.9
			c-4.6,10.3-10,19.4-15.9,27.3c-6.3,7.7-12.9,13.6-19.8,17.6c-1.8,1.1-2.8,1.7-3.1,1.7c-0.4,0-0.6-0.3-0.6-0.7l1-1.5
			c7.5-8.3,14.9-19.7,22.4-34.3c5.8-12.8,8.7-21.5,8.7-26.3c0-2.7-1.5-3.9-4.5-3.9c-5.5,0-15.9,1.3-31.2,3.9
			c-15.2,2.5-24.6,4.5-28.1,5.9c-1.8,0.6-3.1,0.8-3.7,0.8c-0.8,0-2.2-1.1-4.1-3.4s-2.7-4.1-2.7-5.3c0-1.1,0.7-2.5,2.1-4.4
			c2.1-2.4,3.7-4.9,4.6-7.5l5.9-13.1c1.3-3,2-4.8,2-5.6c-3.9-1.8-7.7-4.1-11.4-7c-0.7-0.4-1-0.7-1-1c0-1.1,0.7-1.7,2.1-1.8
			c8.7-0.3,19.8-1.5,33.5-3.7c13.6-2.2,22.9-4.2,27.7-6c1.7-0.6,3-0.8,3.7-0.8c1.8,0,4.5,1.3,7.9,3.9c3.4,2.5,5.1,4.4,5.1,5.6
			c0,0.7-1.3,2-3.8,3.7c-2.4,1.7-6.6,7.5-12.8,17.4c-2.4,3.5-4.1,5.3-4.8,5.3c-1.1,0-1.7-0.6-1.7-1.7c0-0.6,0.3-1.5,0.7-3
			c0.1,0,1.4-4.9,3.9-14.8c0.3-1.7,0.4-3,0.4-3.7c0-2.2-1-3.4-2.8-3.4C606.3,281.7,593.4,284.5,567.1,290.2z"/>
	</g>
	<g display="inline">
		<path d="M228.8,332.5l73.4-4.2c1.1-6.2,1.5-10.9,1.2-14.1l-1.6-13.4c0.2-1.7,0.7-3,1.6-4s2.8-1.3,5.6-1.1s5.4,0.9,7.7,1.9
			c2.3,1,5.9,2.9,10.7,5.6c4.8,2.7,8.3,5.4,10.5,8c2.3,2.6,3.2,4.5,2.9,5.7l-1.6,8.4l30.7-3.5l22.7-2.6c9.2-1.1,17-2.2,23.4-3.4
			c6.4-1.2,11-1.8,13.8-1.8c3.4,0.2,6.8,0.9,10.2,2.2c3.4,1.3,8,3.5,14.1,6.6c6,3,10.5,5.7,13.4,8c2.9,2.3,4.3,4.6,4.1,6.9
			c-0.3,1.7-1.2,3.1-2.6,4.2c-1.4,1.1-4.1,1.6-8,1.6l-19.2,0.7l-71.7-0.7l-37.7,0.7c-2.8,7-5.7,14.2-8.7,21.6
			c-3,7.3-7.1,16.6-12.3,27.7c-5.2,11.1-10.3,20.2-15.1,27.2l-5.9,8.7l27.2,13.4c10,5,18.3,9.5,25,13.5c6.6,4,13.2,9.5,19.6,16.4
			c6.4,7,10.8,13.5,13.1,19.6s3.5,11.5,3.5,16.2c-0.2,3.6-0.8,6.4-2,8.3c-1.2,2-2.5,3.4-4.1,4.5c-1.6,1-3.2,1.5-4.9,1.5
			c-1.9,0.2-4.1-0.4-6.8-1.5c-2.7-1.2-5.9-3.2-9.6-6.1c-3.8-2.9-11.7-10-23.8-21.3c-12.1-11.3-23.3-20.8-33.6-28.5l-21.8-15.5
			c-9.2,8.6-17.5,15.7-24.7,21.4c-7.3,5.7-16.4,11.4-27.3,17c-10.9,5.6-22.9,10.2-36,13.8c-13,3.6-23.9,5.6-32.7,6
			c-8.8,0.4-15.7,0.4-20.9,0.1l-6.8-0.2c-3.8,0-6.2-0.4-7.3-1.2c-1.1-0.8-1.5-1.8-1.3-2.9s2.1-2.2,5.5-3.2l7.5-1.9
			c5.6-1.4,10.4-2.6,14.3-3.6c3.9-1,11.4-3.6,22.4-7.6c11-4.1,22.3-9.2,33.9-15.4c11.6-6.2,21.5-13.2,29.8-21.2l18.3-16.9l-34-16.6
			c-7.8-3.8-15.2-6.8-22-9c-6.9-2.3-11.7-4.4-14.4-6.4c-2.7-2-4.2-4.2-4.3-6.6c-0.2-2.3,0.9-5.2,3-8.7c0.5-0.8,3-4.1,7.6-10.1
			c4.6-5.9,8.1-11.2,10.4-15.9l3.8-8c-9.4,0.9-18.2,1.9-26.6,2.9c-8.4,1-18.9,2.7-31.8,5l-23,4.5l-18.5,4c-4.4,0.9-7.9,1.3-10.5,1.2
			c-3.9,0-7.8-0.8-11.7-2.3l-11.7-5.6c-6.3-2.8-10-5.6-11.4-8.4c-1.3-2.8-1.5-4.8-0.6-6.1c0.9-1.2,3.1-2,6.6-2.3l18.8-0.9l37.3-1.4
			l54.6-4.7l35.9-2.8c2-6.1,4.1-12.2,6.1-18.4c2-6.2,3.6-12.7,4.8-19.5s1.9-13.9,2.2-21.4c0.3-7.5,0.2-12.8-0.2-15.9l-3-11.5
			c-0.9-3.8-0.9-6.1,0.1-7.1c1-1,3.1-1.5,6.2-1.5c3.6,0.2,7.5,1,11.8,2.5c4.3,1.5,9.1,3.9,14.4,7.3c5.3,3.4,9.2,6.4,11.6,9.3
			c2.4,2.8,3.6,5.3,3.4,7.5c-0.2,1.3-1.1,3.3-2.8,6.1c-1.7,2.8-4.1,6.6-7.3,11.4c-3.1,4.8-5.2,8.6-6.3,11.4l-13.4,30.9L228.8,332.5z
			 M156.6,200.8c29.7-0.9,47.4-1.7,53.2-2.3l57-4.7c-4.5-4.1-7.7-7.3-9.4-9.8l-15-26c-4.5-7.2-6.9-12.1-7-14.8
			c-0.2-2.7,0.2-4.6,0.9-5.7c0.8-1.2,4.1-0.9,10.1,0.8c8.9,3,16.2,5.5,21.9,7.6c5.7,2.1,10.6,5.5,14.6,10.3
			c4.1,4.8,6.6,9.8,7.5,15.1c0.8,5.2,0.6,9-0.5,11.5l-3,8.2l66.1-8.2c10-1.1,17.6-2.5,22.9-4.2c5.2-1.7,8.5-2.6,9.7-2.6
			c2.8,0.2,6.2,1.4,10.3,3.9c4.1,2.4,10.3,7.2,18.8,14.4c8.4,7.2,13.9,13.2,16.5,18.2s3.3,8.5,2.2,10.7c-1.1,2-4.2,3.7-9.4,4.9
			l-12.4,2.8c-5,1.3-11.4,3.3-19.3,6.2c-7.9,2.9-15,5.7-21.2,8.6l-12.7,5.6c-3.4,1.6-5.7,1.9-6.7,0.9c-1-0.9-0.6-3,1.3-6.1l5.4-8.9
			c0.9-1.6,3.3-5.2,7.1-10.8c3.8-5.6,6.8-10.6,8.8-14.9c2-4.3,2.3-7.5,0.9-9.6s-3.4-3.4-5.9-3.8c-2.5-0.4-6.2-0.5-11-0.4l-27.4,1.6
			c-5,0.3-17.8,1.7-38.3,4.1c-20.5,2.4-32.3,3.9-35.3,4.3l-40.5,6.3l-23,3.3c-13.1,2.7-19.9,3.9-20.4,3.8l-15.2-1.2
			c-0.6,4.1-1.3,7.9-2,11.4s-2.7,9.1-5.9,16.6c-3.2,7.6-6.6,14.3-10.1,20c-3.5,5.8-7.2,9-11,9.6c-3.8,0.6-7.7-0.7-11.5-4.1
			c-3.8-3.4-5.8-7.8-5.9-13.4c-0.1-5.5,0.5-9.9,1.8-13l8.7-15.7l12.4-31.2l3.8-12.2c1.6-4.1,3.3-6.2,5.3-6.4c2-0.2,3.9,0.8,5.7,3.2
			s3.4,5.3,4.7,8.9L156.6,200.8z M220.8,351l-17.1,30l-6.1,9.4c0,1.9,1.4,3.8,4.2,5.6l15,5.2l46.4,16.9c3.9-5.5,7.3-10.5,10.2-15
			c2.9-4.5,6.4-10.7,10.7-18.5c4.2-7.8,7.3-14.5,9.1-19.9l6.8-19L220.8,351z"/>
	</g>
</g>
</svg>
