<?xml version="1.0" encoding="utf-8"?>
<!-- Generator: Adobe Illustrator 18.1.0, SVG Export Plug-In . SVG Version: 6.00 Build 0)  -->
<svg version="1.1" xmlns="http://www.w3.org/2000/svg" xmlns:xlink="http://www.w3.org/1999/xlink" x="0px" y="0px"
	 viewBox="0 0 760 640" enable-background="new 0 0 760 640" xml:space="preserve">
<g id="ruler_under">
	<g id="h_45">
		<g>
			<g>
				<line fill="none" stroke="#999999" stroke-width="2" stroke-miterlimit="10" x1="20.5" y1="601" x2="360.5" y2="601"/>
				<line fill="none" stroke="#999999" stroke-width="2" stroke-miterlimit="10" x1="400.5" y1="601" x2="740.5" y2="601"/>
				<g>
					<rect x="19.5" y="593" fill="#999999" width="2" height="16"/>
				</g>
				<g>
					<rect x="739.5" y="593" fill="#999999" width="2" height="16"/>
				</g>
			</g>
		</g>
		<g>
			<path d="M375.2,610v-4.2h-7.2v-1.4l7-10h2.3v9.7h2.2v1.7h-2.2v4.2H375.2z M375.2,604.1v-5.2c0-0.8,0-1.6,0.1-2.4h-0.1
				c-0.5,0.9-0.9,1.6-1.3,2.3L370,604v0H375.2z"/>
			<path d="M390.2,596.2h-6l-0.6,4c0.4,0,0.7-0.1,1.3-0.1c1.2,0,2.4,0.3,3.4,0.8c1.2,0.7,2.2,2,2.2,4c0,3-2.4,5.3-5.8,5.3
				c-1.7,0-3.1-0.5-3.9-1l0.5-1.6c0.6,0.4,1.9,0.9,3.3,0.9c2,0,3.7-1.3,3.7-3.4c0-2-1.4-3.5-4.5-3.5c-0.9,0-1.6,0.1-2.2,0.2l1-7.5
				h7.5V596.2z"/>
		</g>
	</g>
	<g id="h_30_1_">
		<g>
			<g>
				<line fill="none" stroke="#999999" stroke-width="2" stroke-miterlimit="10" x1="20.5" y1="578" x2="240.5" y2="578"/>
				<line fill="none" stroke="#999999" stroke-width="2" stroke-miterlimit="10" x1="280.5" y1="578" x2="500.5" y2="578"/>
				<g>
					<rect x="19.5" y="570" fill="#999999" width="2" height="16"/>
				</g>
				<g>
					<rect x="499.5" y="570" fill="#999999" width="2" height="16"/>
				</g>
			</g>
		</g>
		<g>
			<path d="M249.1,584.6c0.6,0.4,2,1,3.5,1c2.7,0,3.6-1.7,3.5-3c0-2.2-2-3.1-4-3.1h-1.2v-1.6h1.2c1.5,0,3.5-0.8,3.5-2.6
				c0-1.2-0.8-2.4-2.7-2.4c-1.2,0-2.4,0.6-3.1,1l-0.6-1.5c0.8-0.6,2.4-1.2,4.1-1.2c3.1,0,4.5,1.8,4.5,3.7c0,1.6-1,3-2.9,3.7v0
				c1.9,0.4,3.5,1.8,3.5,4c0,2.5-1.9,4.7-5.7,4.7c-1.8,0-3.3-0.6-4.1-1.1L249.1,584.6z"/>
			<path d="M271.3,579c0,5.3-2,8.2-5.4,8.2c-3,0-5.1-2.9-5.2-8c0-5.2,2.3-8.1,5.4-8.1C269.4,571.1,271.3,574.1,271.3,579z
				 M262.8,579.3c0,4.1,1.2,6.4,3.2,6.4c2.2,0,3.2-2.5,3.2-6.5c0-3.8-1-6.4-3.2-6.4C264.2,572.8,262.8,575,262.8,579.3z"/>
		</g>
	</g>
	<g id="h_15">
		<g>
			<g>
				<line fill="none" stroke="#999999" stroke-width="2" stroke-miterlimit="10" x1="500.5" y1="578" x2="600.5" y2="578"/>
				<line fill="none" stroke="#999999" stroke-width="2" stroke-miterlimit="10" x1="640.5" y1="578" x2="740.5" y2="578"/>
				<g>
					<rect x="499.5" y="570" fill="#999999" width="2" height="16"/>
				</g>
				<g>
					<rect x="739.5" y="570" fill="#999999" width="2" height="16"/>
				</g>
			</g>
		</g>
		<g>
			<path d="M613.2,573.4L613.2,573.4l-2.8,1.5l-0.4-1.6l3.4-1.8h1.8V587h-2V573.4z"/>
			<path d="M630.2,573.2h-6l-0.6,4c0.4,0,0.7-0.1,1.3-0.1c1.2,0,2.4,0.3,3.4,0.8c1.2,0.7,2.2,2,2.2,4c0,3-2.4,5.3-5.8,5.3
				c-1.7,0-3.1-0.5-3.9-1l0.5-1.6c0.6,0.4,1.9,0.9,3.3,0.9c2,0,3.7-1.3,3.7-3.4c0-2-1.4-3.5-4.5-3.5c-0.9,0-1.6,0.1-2.2,0.2l1-7.5
				h7.5V573.2z"/>
		</g>
	</g>
</g>
<g id="ruler_above">
	<g id="h5">
		<g>
			<g>
				<line fill="none" stroke="#999999" stroke-width="2" stroke-miterlimit="10" x1="660.5" y1="58" x2="690.5" y2="58"/>
				<line fill="none" stroke="#999999" stroke-width="2" stroke-miterlimit="10" x1="710.5" y1="58" x2="740.5" y2="58"/>
				<g>
					<rect x="659.5" y="50" fill="#999999" width="2" height="16"/>
				</g>
				<g>
					<rect x="739.5" y="50" fill="#999999" width="2" height="16"/>
				</g>
			</g>
		</g>
		<g>
			<rect x="694.5" y="46.5" fill="none" width="13.9" height="30.4"/>
			<path d="M704.9,52.8h-6l-0.6,4c0.4,0,0.7-0.1,1.3-0.1c1.2,0,2.4,0.3,3.4,0.8c1.2,0.7,2.2,2,2.2,4c0,3-2.4,5.3-5.8,5.3
				c-1.7,0-3.1-0.5-3.9-1l0.5-1.6c0.6,0.4,1.9,0.9,3.3,0.9c2,0,3.7-1.3,3.7-3.4c0-2-1.4-3.5-4.5-3.5c-0.9,0-1.6,0.1-2.2,0.2l1-7.5
				h7.5V52.8z"/>
		</g>
		<g>
		</g>
	</g>
	<g id="h9">
		<g>
			<g>
				<line fill="none" stroke="#999999" stroke-width="2" stroke-miterlimit="10" x1="516.5" y1="58" x2="578.5" y2="58"/>
				<line fill="none" stroke="#999999" stroke-width="2" stroke-miterlimit="10" x1="598.5" y1="58" x2="660.5" y2="58"/>
				<g>
					<rect x="515.5" y="50" fill="#999999" width="2" height="16"/>
				</g>
				<g>
					<rect x="659.5" y="50" fill="#999999" width="2" height="16"/>
				</g>
			</g>
		</g>
		<g>
			<path d="M583.8,65.5c0.5,0,1,0,1.7-0.1c1.2-0.2,2.4-0.7,3.3-1.5c1-0.9,1.8-2.3,2.1-4.2h-0.1c-0.9,1.1-2.1,1.7-3.7,1.7
				c-2.8,0-4.6-2.1-4.6-4.8c0-3,2.1-5.5,5.3-5.5s5.2,2.6,5.2,6.6c0,3.4-1.2,5.8-2.7,7.3c-1.2,1.2-2.9,1.9-4.5,2.1
				c-0.8,0.1-1.4,0.1-1.9,0.1V65.5z M584.6,56.5c0,1.9,1.2,3.3,3,3.3c1.4,0,2.5-0.7,3.1-1.6c0.1-0.2,0.2-0.4,0.2-0.8
				c0-2.7-1-4.7-3.2-4.7C585.9,52.7,584.6,54.3,584.6,56.5z"/>
		</g>
	</g>
</g>
<g id="grid">
	<g>
		<g id="checked-tone">
			<rect x="660.5" y="416.1" fill="#EEEEEE" width="80" height="80"/>
			<line fill="none" stroke="#999999" stroke-width="2" stroke-miterlimit="10" x1="660.5" y1="416" x2="740.5" y2="416"/>
			<line fill="none" stroke="#999999" stroke-width="2" stroke-miterlimit="10" x1="660.5" y1="496" x2="740.5" y2="496"/>
		</g>
		<g id="yin_2_">
			<rect x="516.5" y="177.1" fill="#EEEEEE" width="144" height="144"/>
			<line fill="none" stroke="#999999" stroke-width="2" stroke-miterlimit="10" x1="516.5" y1="321" x2="660.5" y2="321"/>
			<line fill="none" stroke="#999999" stroke-width="2" stroke-miterlimit="10" x1="516.5" y1="177" x2="660.5" y2="177"/>
		</g>
		<g id="yin_1_">
			<rect x="516.5" y="352.1" fill="#EEEEEE" width="144" height="144"/>
			<line fill="none" stroke="#999999" stroke-width="2" stroke-miterlimit="10" x1="516.5" y1="496" x2="660.5" y2="496"/>
			<line fill="none" stroke="#999999" stroke-width="2" stroke-miterlimit="10" x1="516.5" y1="352" x2="660.5" y2="352"/>
		</g>
		<g id="inner_1_">
			<line fill="none" stroke="#CCCCCC" stroke-miterlimit="10" x1="180" y1="560" x2="180" y2="80"/>
			<line fill="none" stroke="#CCCCCC" stroke-miterlimit="10" x1="341" y1="560" x2="341" y2="80"/>
			<line fill="none" stroke="#CCCCCC" stroke-miterlimit="10" x1="20.5" y1="239.5" x2="500.5" y2="239.5"/>
			<line fill="none" stroke="#CCCCCC" stroke-miterlimit="10" x1="20.5" y1="400.5" x2="500.5" y2="400.5"/>
		</g>
		<g id="outer_1_">
			
				<rect id="zhuyin_1_" x="20.5" y="80.1" fill="none" stroke="#999999" stroke-width="2" stroke-miterlimit="10" width="720" height="480"/>
			
				<rect id="char_1_" x="20.5" y="80.1" fill="none" stroke="#999999" stroke-width="2" stroke-miterlimit="10" width="480" height="480"/>
			<line fill="none" stroke="#999999" stroke-width="2" stroke-miterlimit="10" x1="660.5" y1="560" x2="660.5" y2="80"/>
			<line fill="none" stroke="#999999" stroke-width="2" stroke-miterlimit="10" x1="516.5" y1="560" x2="516.5" y2="80"/>
		</g>
	</g>
</g>
<g id="character">
	<g id="_x2D_k">
		<path d="M695.8,425.2c1.8,2.1,2.6,4,2.6,5.8c0,0.5-0.5,1.1-1.5,1.8c-1.4,1-2.8,3.1-4.1,6.5c-1.8,3.9-4.8,8.6-8.9,14.3
			c-1.5,2.4-2.3,4.3-2.3,5.9c0,1.5,0.8,3.1,2.4,5l9.9,11.8c3.6,4.5,4.5,9,2.6,13.5c-0.6,1.1-1.9,1.8-3.5,1.8c-1.3,0-2.3-0.4-3.1-1.3
			c-1-0.8-2.1-2.8-3.3-5.9c-3.1-7.1-5.8-12.6-7.9-16.8c-2.5-4.3-3.8-7-3.8-8.1c0-1.8,0.9-4.3,2.5-7.4c1.9-2.9,4-7.5,6.5-13.6
			c2.6-6.3,4-10.8,4.3-13.4c0.1-1.9,1-2.9,2.4-2.9C692.3,422.1,694.1,423.1,695.8,425.2z M705.9,406.7l-8.8,0.4l-0.6-26.9l12.6-0.2
			L705.9,406.7z M719.6,425.2c1.8,2,2.6,3.9,2.6,5.8c0,0.5-0.5,1.1-1.5,1.8c-1.4,1-2.8,3.1-4.1,6.5c-1.9,3.8-4.9,8.5-9.1,14.3
			c-1.5,2.4-2.3,4.3-2.3,5.9c0,1.4,0.8,3.1,2.3,5l10,11.8c3.9,4.8,4.8,9.3,2.5,13.5c-0.6,1.1-1.8,1.8-3.4,1.8c-1.4,0-2.4-0.4-3-1.3
			c-0.9-0.9-2-2.8-3.1-5.9c-2.6-6-5.3-11.6-8-16.8c-2.6-4.4-4-7-4-8.1c0-1.8,0.9-4.3,2.5-7.4c1.9-3,4.1-7.6,6.8-13.8
			c2.6-6.3,4.1-10.6,4.4-13.3c0.2-1.9,1-2.9,2.3-2.9C716.2,422.1,718,423.1,719.6,425.2z"/>
	</g>
	<g>
		<path d="M596.8,413.6c17-1.8,28.1-3.7,33.2-5.5c2.5-1.3,4.1-1.7,4.5-1.5c1.1-0.1,3.5,1.3,7,4.4c2.5,2.5,3.8,4.4,3.8,5.5l0.1,0.3
			c0,1-0.6,1.4-1.8,1.4h-2.4c-1.7-0.1-3.7,0.4-5.8,0.4c-5.3-0.1-14.2,0.6-26.7,2c-19.3,2.1-36.1,3.8-50.9,4.9
			c-6.3,0.1-11,1-14.2,2.2c-2.1,0.6-3.2,0.8-3.7,0.8c-2,0-4.4-1.4-7.2-4.4s-4.2-5.5-4.4-7.6l-0.1-0.4c-0.1-1.4,0.3-2.1,1.5-2.1
			l0.1-0.1c0.1,0,1.7,0.3,2.4,0.4c3.2,1.3,9,2,17.4,2C564,416.2,579.7,415.4,596.8,413.6z"/>
	</g>
	<g>
		<path d="M565.8,199.8c2.4,2.1,3.5,4.1,3.5,5.8c0,0.4-0.4,1.1-1.1,2.4c-3.1,4.4-6.2,11.1-9.4,20c-1.5,4.5-2.4,7.2-2.4,8
			c0,1.1,0.7,1.7,2.2,1.7l3.1-0.7l19.5-5.1c3.7-12.5,5.6-25.2,6-38c0.3-4.2,2.1-6.3,5.6-6.3c4.9,0,8.4,2.1,8.4,5.6c0,2.7-1,8-3,16.2
			c-2,8-3.8,14.6-5.3,19.5l19.5-4.9c2.2-0.7,4.6-2,7.2-3.5c2.4-1.3,3.8-2,4.1-2c1.3,0,3.7,1.3,6.9,3.9c3.2,2.5,4.9,4.5,4.9,5.8
			c0,0.4-0.1,1.1-0.6,1.8c-0.4,1.5-1,6.5-1.5,15c-2.5,27.4-9.1,46.3-19.8,56.8c-4.6,4.6-8.6,6.9-11.8,6.9c-2.4,0-3.9-0.8-4.4-2.7
			c-0.6-1.5-2.5-4.2-5.8-7.7c-3.4-3.5-5.1-5.5-5.1-5.9c0.1-0.4,0.3-0.6,0.6-0.6l4.2,1c3.2,1,5.9,1.4,8.2,1.4c3.5,0,6.8-1.4,9.4-4.1
			c3.2-3.5,6.6-11.2,10.1-23.2s5.2-22.9,5.2-32.6c0-3-1.1-4.5-3.4-4.6c-4.1,0-14.2,2.2-30.5,6.6c-10.8,30.5-25.9,51.6-45,63.6
			c-2.2,1.4-3.5,2.1-3.8,2.1c-0.4,0-0.6-0.1-0.6-0.6s0.6-1.4,1.5-2.7c7.3-7.5,14.5-17.2,21.5-29.1c6.6-10.8,11.5-21,14.6-30.1
			c-13.9,3.8-22.4,6.6-25.3,8.2c-2.2,1.1-3.7,1.7-4.2,1.7c-0.7,0-2.1-1-4.1-2.8c-2-2-3-3.2-3-3.9s0.4-2.1,1.3-3.9
			c4.4-6.3,7.7-13.4,10-20.8c3-7.6,4.5-13.8,4.5-18.6c0-1.8,0.6-2.8,1.7-2.8C561.5,196.6,563.4,197.7,565.8,199.8z"/>
	</g>
	<g>
		<path d="M187.8,276c-7.3,1.6-12.1,2.7-14.3,3.4c-2.2,0.7-5.3,2-9.4,3.9c-4.1,1.9-7.7,3-11,3.3c-3.3,0.3-8.3-1.9-15-6.6
			c-5.6-3.8-9.3-6.1-10.9-6.9c-1.6-0.9-3-2-4.2-3.5c-1.2-1.5-1.5-2.7-0.9-3.6c0.5-0.9,3.1-1.6,7.6-2.1l8.9-0.7
			c0.6,0,6.1-0.6,16.4-1.9l26.7-2.6c10.9-1.1,21.8-2.7,32.6-4.7l14.3-2.6c1.9-7.5,3.1-12.9,3.8-16.3c0.6-3.4,2-12.3,4.1-26.7
			c2.1-14.5,3.2-24.7,3.3-30.8c0.1-6.1-0.1-12-0.6-17.6c-0.8-6.6-2.1-12-4-16.4c-1.9-4.4-2.7-7.5-2.6-9.4c0.2-1.9,1.1-3.5,2.7-4.8
			c1.6-1.3,4.6-1.8,9-1.3c6.6,0.9,12.2,2.5,17,4.8c4.8,2.3,9.2,4.6,13.4,7c4.1,2.4,7.1,4.7,8.8,6.9c1.7,2.2,2.6,4.4,2.6,6.6
			c-0.2,1.3-1.4,4.4-3.8,9.4c-2.3,5-4.1,9.1-5.3,12.3c-1.2,3.2-2.7,9.4-4.5,18.5c-1.8,9.1-3.1,15.7-3.9,19.8l-6.8,32.8l45.7-9.4
			c12.2-2.5,20.9-4.4,26-5.7c5.2-1.3,11-3.2,17.6-5.5s11.3-3.5,14.3-3.5c2.8,0.2,6.8,1.4,11.8,3.6c5.1,2.3,9.3,4.6,12.7,6.9
			c3.4,2.3,7.1,5.2,11.4,8.7c4.2,3.4,6.9,6.2,8.1,8.3s1.8,4,1.9,5.6c0.1,1.6-1.8,5.2-5.7,10.7c-2.2,3.1-4.1,6.7-5.6,10.7
			c-1.6,4-3.4,9.6-5.5,16.8c-2.1,7.2-3.6,13.1-4.3,17.8L373,409.8c-2.3,13-5.3,25-8.9,36c-3.6,11-8.6,22-15.1,32.9
			c-6.5,10.9-13.2,19.3-20.2,25.2c-7,5.9-12.6,9.5-17,10.9c-4.4,1.4-7.6,1.7-9.6,0.9c-2-0.5-3.8-1.6-5.3-3.4
			c-1.5-1.8-4.2-7.1-8.1-15.9c-3.9-8.8-8.4-16.8-13.4-23.9c-5-7.1-8.8-12.4-11.5-15.8l-3.3-4c-1.7-1.9-2.1-3.1-1.1-3.8
			c1-0.6,2.6-0.6,4.8,0l7,2.6c2.7,1.1,7.2,3.5,13.7,7.3c6.5,3.8,12.1,5.6,16.8,5.6c3.6,0.2,7.1-0.7,10.7-2.7s7.1-6.2,10.8-12.7
			c3.7-6.5,7.3-15.2,10.9-26.1c3.6-10.9,7.3-28.4,11-52.3l7-46.2c2.8-18.6,4.6-31.1,5.4-37.6c0.8-6.5,1.2-12.7,1.2-18.6
			c-0.2-3.4-0.7-6.3-1.8-8.7c-1-2.3-3.4-4.4-7-6.1c-3.7-1.7-9.7-2.5-18.2-2.2s-14.5,0.6-18,1.1l-55.3,8.9c-2.5,9.7-4.8,18.4-6.9,26
			c-2.1,7.7-4.8,16.6-8.2,26.8c-3.4,10.2-7.8,22.1-13.4,35.7c-5.5,13.6-11.7,26.2-18.4,37.7c-6.7,11.6-13.8,22.3-21.1,32.3
			c-7.3,10-15.2,19.4-23.7,28.2c-8.4,8.8-18,17-28.7,24.4c-10.7,7.4-21,13.3-30.9,17.6c-9.9,4.3-18.8,7.5-26.6,9.5l-7.3,1.9
			c-1.4,0.5-2.6,0.2-3.6-0.9c-1-1.1-0.4-2.5,1.8-4.2l5.2-3.8c10.3-7.5,17.8-13,22.5-16.6c4.7-3.6,11.3-9.3,19.9-17
			c8.6-7.7,16.7-15.8,24.4-24.1c7.7-8.4,14.5-16.8,20.6-25.3c6.1-8.5,11.6-17.1,16.5-25.9c4.9-8.7,10.5-19.6,16.8-32.6
			c6.2-13,11.1-24.2,14.4-33.8c3.4-9.5,6.4-19.5,9-30l4.7-19L187.8,276z"/>
	</g>
	<g>
	</g>
	<g>
	</g>
	<g>
	</g>
	<g>
	</g>
	<g>
	</g>
	<g>
	</g>
	<g>
	</g>
	<g>
	</g>
	<g>
	</g>
	<g>
	</g>
	<g>
	</g>
	<g>
	</g>
	<g>
	</g>
	<g>
	</g>
	<g>
	</g>
	<g>
	</g>
</g>
</svg>
