<?xml version="1.0" encoding="utf-8"?>
<!-- Generator: Adobe Illustrator 18.1.0, SVG Export Plug-In . SVG Version: 6.00 Build 0)  -->
<svg version="1.1" xmlns="http://www.w3.org/2000/svg" xmlns:xlink="http://www.w3.org/1999/xlink" x="0px" y="0px"
	 viewBox="0 0 760 640" enable-background="new 0 0 760 640" xml:space="preserve">
<g id="ruler_under">
	<g id="h_45">
		<g>
			<g>
				<line fill="none" stroke="#999999" stroke-width="2" stroke-miterlimit="10" x1="20.5" y1="601" x2="360.5" y2="601"/>
				<line fill="none" stroke="#999999" stroke-width="2" stroke-miterlimit="10" x1="400.5" y1="601" x2="740.5" y2="601"/>
				<g>
					<rect x="19.5" y="593" fill="#999999" width="2" height="16"/>
				</g>
				<g>
					<rect x="739.5" y="593" fill="#999999" width="2" height="16"/>
				</g>
			</g>
		</g>
		<g>
			<path d="M375.2,610v-4.2h-7.2v-1.4l7-10h2.3v9.7h2.2v1.7h-2.2v4.2H375.2z M375.2,604.1v-5.2c0-0.8,0-1.6,0.1-2.4h-0.1
				c-0.5,0.9-0.9,1.6-1.3,2.3L370,604v0H375.2z"/>
			<path d="M390.2,596.2h-6l-0.6,4c0.4,0,0.7-0.1,1.3-0.1c1.2,0,2.4,0.3,3.4,0.8c1.2,0.7,2.2,2,2.2,4c0,3-2.4,5.3-5.8,5.3
				c-1.7,0-3.1-0.5-3.9-1l0.5-1.6c0.6,0.4,1.9,0.9,3.3,0.9c2,0,3.7-1.3,3.7-3.4c0-2-1.4-3.5-4.5-3.5c-0.9,0-1.6,0.1-2.2,0.2l1-7.5
				h7.5V596.2z"/>
		</g>
	</g>
	<g id="h_30_1_">
		<g>
			<g>
				<line fill="none" stroke="#999999" stroke-width="2" stroke-miterlimit="10" x1="20.5" y1="578" x2="240.5" y2="578"/>
				<line fill="none" stroke="#999999" stroke-width="2" stroke-miterlimit="10" x1="280.5" y1="578" x2="500.5" y2="578"/>
				<g>
					<rect x="19.5" y="570" fill="#999999" width="2" height="16"/>
				</g>
				<g>
					<rect x="499.5" y="570" fill="#999999" width="2" height="16"/>
				</g>
			</g>
		</g>
		<g>
			<path d="M249.1,584.6c0.6,0.4,2,1,3.5,1c2.7,0,3.6-1.7,3.5-3c0-2.2-2-3.1-4-3.1h-1.2v-1.6h1.2c1.5,0,3.5-0.8,3.5-2.6
				c0-1.2-0.8-2.4-2.7-2.4c-1.2,0-2.4,0.6-3.1,1l-0.6-1.5c0.8-0.6,2.4-1.2,4.1-1.2c3.1,0,4.5,1.8,4.5,3.7c0,1.6-1,3-2.9,3.7v0
				c1.9,0.4,3.5,1.8,3.5,4c0,2.5-1.9,4.7-5.7,4.7c-1.8,0-3.3-0.6-4.1-1.1L249.1,584.6z"/>
			<path d="M271.3,579c0,5.3-2,8.2-5.4,8.2c-3,0-5.1-2.9-5.2-8c0-5.2,2.3-8.1,5.4-8.1C269.4,571.1,271.3,574.1,271.3,579z
				 M262.8,579.3c0,4.1,1.2,6.4,3.2,6.4c2.2,0,3.2-2.5,3.2-6.5c0-3.8-1-6.4-3.2-6.4C264.2,572.8,262.8,575,262.8,579.3z"/>
		</g>
	</g>
	<g id="h_15">
		<g>
			<g>
				<line fill="none" stroke="#999999" stroke-width="2" stroke-miterlimit="10" x1="500.5" y1="578" x2="600.5" y2="578"/>
				<line fill="none" stroke="#999999" stroke-width="2" stroke-miterlimit="10" x1="640.5" y1="578" x2="740.5" y2="578"/>
				<g>
					<rect x="499.5" y="570" fill="#999999" width="2" height="16"/>
				</g>
				<g>
					<rect x="739.5" y="570" fill="#999999" width="2" height="16"/>
				</g>
			</g>
		</g>
		<g>
			<path d="M613.2,573.4L613.2,573.4l-2.8,1.5l-0.4-1.6l3.4-1.8h1.8V587h-2V573.4z"/>
			<path d="M630.2,573.2h-6l-0.6,4c0.4,0,0.7-0.1,1.3-0.1c1.2,0,2.4,0.3,3.4,0.8c1.2,0.7,2.2,2,2.2,4c0,3-2.4,5.3-5.8,5.3
				c-1.7,0-3.1-0.5-3.9-1l0.5-1.6c0.6,0.4,1.9,0.9,3.3,0.9c2,0,3.7-1.3,3.7-3.4c0-2-1.4-3.5-4.5-3.5c-0.9,0-1.6,0.1-2.2,0.2l1-7.5
				h7.5V573.2z"/>
		</g>
	</g>
</g>
<g id="ruler_above">
	<g id="h5">
		<g>
			<g>
				<line fill="none" stroke="#999999" stroke-width="2" stroke-miterlimit="10" x1="660.5" y1="58" x2="690.5" y2="58"/>
				<line fill="none" stroke="#999999" stroke-width="2" stroke-miterlimit="10" x1="710.5" y1="58" x2="740.5" y2="58"/>
				<g>
					<rect x="659.5" y="50" fill="#999999" width="2" height="16"/>
				</g>
				<g>
					<rect x="739.5" y="50" fill="#999999" width="2" height="16"/>
				</g>
			</g>
		</g>
		<g>
			<rect x="694.5" y="46.5" fill="none" width="13.9" height="30.4"/>
			<path d="M704.9,52.8h-6l-0.6,4c0.4,0,0.7-0.1,1.3-0.1c1.2,0,2.4,0.3,3.4,0.8c1.2,0.7,2.2,2,2.2,4c0,3-2.4,5.3-5.8,5.3
				c-1.7,0-3.1-0.5-3.9-1l0.5-1.6c0.6,0.4,1.9,0.9,3.3,0.9c2,0,3.7-1.3,3.7-3.4c0-2-1.4-3.5-4.5-3.5c-0.9,0-1.6,0.1-2.2,0.2l1-7.5
				h7.5V52.8z"/>
		</g>
		<g>
		</g>
	</g>
	<g id="h9">
		<g>
			<g>
				<line fill="none" stroke="#999999" stroke-width="2" stroke-miterlimit="10" x1="516.5" y1="58" x2="578.5" y2="58"/>
				<line fill="none" stroke="#999999" stroke-width="2" stroke-miterlimit="10" x1="598.5" y1="58" x2="660.5" y2="58"/>
				<g>
					<rect x="515.5" y="50" fill="#999999" width="2" height="16"/>
				</g>
				<g>
					<rect x="659.5" y="50" fill="#999999" width="2" height="16"/>
				</g>
			</g>
		</g>
		<g>
			<path d="M583.8,65.5c0.5,0,1,0,1.7-0.1c1.2-0.2,2.4-0.7,3.3-1.5c1-0.9,1.8-2.3,2.1-4.2h-0.1c-0.9,1.1-2.1,1.7-3.7,1.7
				c-2.8,0-4.6-2.1-4.6-4.8c0-3,2.1-5.5,5.3-5.5s5.2,2.6,5.2,6.6c0,3.4-1.2,5.8-2.7,7.3c-1.2,1.2-2.9,1.9-4.5,2.1
				c-0.8,0.1-1.4,0.1-1.9,0.1V65.5z M584.6,56.5c0,1.9,1.2,3.3,3,3.3c1.4,0,2.5-0.7,3.1-1.6c0.1-0.2,0.2-0.4,0.2-0.8
				c0-2.7-1-4.7-3.2-4.7C585.9,52.7,584.6,54.3,584.6,56.5z"/>
		</g>
	</g>
</g>
<g id="grid">
	<g>
		<g id="yin_3_">
			<rect x="516.5" y="257.1" fill="#EEEEEE" stroke="#999999" stroke-miterlimit="10" width="144" height="144"/>
			<line fill="#EEEEEE" stroke="#999999" stroke-width="2" stroke-miterlimit="10" x1="516.5" y1="401" x2="660.5" y2="401"/>
			<line fill="#EEEEEE" stroke="#999999" stroke-width="2" stroke-miterlimit="10" x1="516.5" y1="257" x2="660.5" y2="257"/>
		</g>
		<g id="_x34_-tone_2_">
			<rect x="660.5" y="224.1" fill="#EEEEEE" stroke="#999999" stroke-miterlimit="10" width="80" height="80"/>
			<line fill="#EEEEEE" stroke="#999999" stroke-width="2" stroke-miterlimit="10" x1="660.5" y1="224" x2="740.5" y2="224"/>
			<line fill="#EEEEEE" stroke="#999999" stroke-width="2" stroke-miterlimit="10" x1="660.5" y1="304" x2="740.5" y2="304"/>
		</g>
		<g id="_x35_th_tone_2_">
			<rect x="516.5" y="209.1" fill="#EEEEEE" stroke="#999999" stroke-miterlimit="10" width="144" height="32"/>
			<line fill="#EEEEEE" stroke="#999999" stroke-width="2" stroke-miterlimit="10" x1="516.5" y1="209" x2="660.5" y2="209"/>
			<line fill="#EEEEEE" stroke="#999999" stroke-width="2" stroke-miterlimit="10" x1="516.5" y1="241" x2="660.5" y2="241"/>
		</g>
		<g id="inner_2_">
			<line fill="none" stroke="#CCCCCC" stroke-miterlimit="10" x1="180" y1="560" x2="180" y2="80"/>
			<line fill="none" stroke="#CCCCCC" stroke-miterlimit="10" x1="341" y1="560" x2="341" y2="80"/>
			<line fill="none" stroke="#CCCCCC" stroke-miterlimit="10" x1="20.5" y1="239.5" x2="500.5" y2="239.5"/>
			<line fill="none" stroke="#CCCCCC" stroke-miterlimit="10" x1="20.5" y1="400.5" x2="500.5" y2="400.5"/>
		</g>
		<g id="outer_2_">
			
				<rect id="zhuyin_2_" x="20.5" y="80.1" fill="none" stroke="#999999" stroke-width="2" stroke-miterlimit="10" width="720" height="480"/>
			
				<rect id="char_2_" x="20.5" y="80.1" fill="none" stroke="#999999" stroke-width="2" stroke-miterlimit="10" width="480" height="480"/>
			<line fill="none" stroke="#999999" stroke-width="2" stroke-miterlimit="10" x1="660.5" y1="560" x2="660.5" y2="80"/>
			<line fill="none" stroke="#999999" stroke-width="2" stroke-miterlimit="10" x1="516.5" y1="560" x2="516.5" y2="80"/>
		</g>
	</g>
</g>
<g id="character">
	<g>
		<path d="M540.1,288.5c2.4,0.4,4.9,0.6,7.9,0.6c2.4,0,4.8-0.1,7.3-0.6l63-7.3c3.7-0.7,6.3-1.5,7.9-2.2c1.7-0.7,3.4-1.1,5.1-1.1
			c1.5,0,3.8,1.1,6.5,3.5c2.8,2.2,4.2,3.9,4.2,5.1c0,1-0.7,1.5-2.2,1.5c-0.7,0-2-0.1-4.1-0.3l-3.8-0.3c-9,0.4-18.6,1.3-28.7,2.2
			l-3.4,0.4c0.1,12.5-0.1,22.5-0.8,29.8c-0.6,3.9-4.1,8.2-8.7,8.2c-0.7,0-1.8-0.3-3.4-0.8c-1.4-0.3-2.5-0.4-3.4-0.4
			c-4.9,0-9.6,2-13.9,5.8c-3.8,4.4-5.8,9-5.8,14.1c0,7.2,2.7,13.4,8,18.3c5.5,4.9,12.4,7.5,20.7,7.5c11.8,0,21.9-5.3,30.5-16
			c1.5-1.3,3.1-2,4.4-2c2.8,0,5.1,2,5.1,4.8c0,5.2-4.1,10.4-12.1,15.5c-8,5.2-17.3,7.7-27.8,7.7c-11.2,0-20.7-3.4-28.1-10
			c-7.5-7.5-11.2-16-11.2-25.7c0-8.2,2.7-14.9,7.9-20.4c5.8-5.3,13.2-8.3,22.5-9c3.4-0.7,4.9-2.7,4.5-5.6l-1.1-20.1
			c-15.5,2.1-26.9,4.2-34,6.6c-2,0.7-3.5,1.1-4.8,1.1c-1.8,0-4.6-1.5-8.7-4.8c-2.8-2.4-4.2-4.1-4.2-4.8c0-1.1,1-1.7,2.8-1.7
			C538.7,287.9,539.4,288.1,540.1,288.5z"/>
	</g>
	<g>
		<path d="M679.3,274.8c1-1.5,2.7-3.4,5.1-5.5l13-11.1l10.4-8.9l7.3-7l5.1-5c2-1.5,3.4-2,4.3-1.7c0.5,0.2,0.9,0.9,0.9,1.9
			c0,1.2-0.2,2.2-0.7,3.2c-2.6,6.3-5,11.4-7.3,15.4l-6.8,10.4l-5.3,7.7c-6.8,10.1-13.5,15.5-20.2,16.1
			C677.5,291,673.4,285.6,679.3,274.8z"/>
	</g>
	<g>
		<path d="M152.2,348c1.9,0.8,3.8,1.6,5.6,2.3c1.9,0.8,3.2,2.2,4.1,4.3c0.9,2.1,0.2,3.9-2,5.5l-7.5,0.7l-28.4,4l-19.5,2.8l-5.9-0.9
			C99.2,373.3,99,378,98,381c-0.9,3-2.1,4.8-3.5,5.5s-2.7,0.9-3.8,0.6c-1.9-0.3-3.5-1.8-4.8-4.3c-1.3-2.6-2.5-5.7-3.5-9.5
			c-1-3.8-2.5-14.8-4.6-33.3l-6.1-52.3c-0.6-5-2-9.2-4-12.5c-2-3.4-4.2-6.4-6.6-9.1c-2.3-2.7-3.5-5-3.5-6.7c0-0.8,0.4-1.8,1.2-3
			c0.8-1.2,2.9-2,6.3-2.3c3-0.2,5.8,0.2,8.4,1.2l15,5.2c9.5-1.7,16.3-3.2,20.4-4.3c4.1-1.2,9-2.7,14.8-4.7c5.8-2,11.1-4.1,15.9-6.6
			c4.8-2.4,8.4-3.7,10.5-3.9c2.3,0,4.8,0.5,7.3,1.6c2.5,1.1,6.2,3.1,11.2,6c5,2.9,8.6,5.5,10.9,8c2.3,2.4,3.1,4.9,2.5,7.4
			c-0.3,1.1-1.9,3.2-4.7,6.4c-2.8,3.2-5.4,7.3-7.6,12.2c-2.3,4.9-4.3,9.8-6,14.5c-1.7,4.8-3.6,12.2-5.6,22.4L152.2,348z M98.7,353.3
			c9.8-2.5,15.9-4.1,18.3-4.7l15.7-3.8l8.7-61.9c1.1-7.8,1.6-12.4,1.5-13.7c-0.1-1.3-0.6-2.7-1.6-4.1c-1-1.4-4-1.8-9-1.2
			c-2.2,0.3-6.6,1.2-13.4,2.6l-26.5,5.9L98.7,353.3z M230.5,312.1c-5.6,1.7-11.2,3.6-16.8,5.5c-5.5,2-10,2.9-13.5,2.9
			c-2.8,0.2-5.5-0.2-8.2-0.9c-2.7-0.8-6.3-2.4-10.9-4.9c-4.6-2.5-7.3-4.5-8.2-5.9c-0.9-1.4-1.1-3-0.8-4.9l22-4l36.1-7.7
			c-1.1-12.2-2-22-2.7-29.4c-0.7-7.4-1.4-12.3-2-14.6l-3.5-12.4c-4.2,2-7.3,3.4-9.4,4l-12.2,3.8l-8.7,3c-2.8,1.1-4.6,1-5.3-0.2
			c-0.7-1.2,0.4-3,3.2-5.4l6.8-5.4l13.4-10.3c4.5-3.6,8.9-7.5,13.2-11.6c4.3-4.1,7.9-7.9,10.9-11.4c3-3.4,5.5-7.3,7.5-11.5
			c2-4.2,3.6-6.6,4.8-7s2.5-0.7,3.9-0.7c2.3,0.2,5.3,1.3,8.8,3.5c3.5,2.2,7,4.7,10.3,7.4c3.4,2.7,5.5,5,6.3,6.7
			c0.9,1.7,1.3,3.3,1.4,4.7c0.1,1.4-0.7,3-2.2,4.7c-1.4,1.4-3.9,2.7-7.5,3.9c-3.6,1.2-10,3.9-19.2,8.3l-18.5,9.4
			c6.1,1.7,10.9,3.2,14.4,4.3s6.2,2.5,8.2,4c2,1.5,3.2,3.1,3.8,4.8c0.5,1.7,0.3,4.5-0.8,8.2c-1.1,3.8-1.9,7.9-2.5,12.4
			c-0.5,4.5-0.8,8.6-0.8,12.2l-0.2,10.8l62.6-12l-10.5-81.6l-3-25.3c-0.6-3.4-1.8-8.5-3.4-15.1c-1.6-6.6-3.6-12.4-6-17.3
			s-3.7-8.4-4-10.5c-0.3-2.1,0-3.9,1.1-5.3c1-1.4,3.6-2.1,7.6-2.1c2.5,0.2,5.8,0.8,10,2c4.1,1.2,8.3,2.7,12.5,4.5
			c4.2,1.8,8.4,4.1,12.4,6.8c4.1,2.7,6.3,5.2,6.7,7.4c0.4,2.2-0.4,5.9-2.2,11.2c-0.6,1.6-1.3,4.1-2.1,7.5c-0.8,3.4-1,9.9-0.7,19.5
			c0,5,0.4,15.5,1.3,31.5c0.9,16,1.7,27.1,2.5,33.2L339,269c13.6-3,23.7-5.4,30.2-7.3s11.2-3,13.8-3.5c5.2-0.6,8.9-0.5,11.2,0.5
			s6.5,3.2,12.5,6.9c6,3.7,9.6,6.7,10.9,9c1.2,2.3,1.6,4.1,0.9,5.4c-0.6,1.3-3.9,2.1-9.8,2.6c-5.9,0.5-11.6,0.9-17.1,1.2l-50.6,4.2
			c2,12,4.1,23.4,6.1,34.1c2,10.7,3.6,17.8,4.7,21.2l10.5,38.9c3.6-5,6.2-8.9,7.9-11.6c1.6-2.7,4.1-7.2,7.3-13.5
			c3.2-6.2,5.4-11.2,6.7-15l4.2-15c1.1-3.6,1.4-7.3,1.1-11.1c-0.4-3.8-0.3-6,0.2-6.4c0.5-0.5,2.2-0.6,5-0.5c3,0.3,6.2,1.3,9.8,2.9
			c3.6,1.6,7,3.4,10.1,5.2c3.1,1.8,5.9,3.8,8.2,6.1c2.3,2.3,3.6,4.6,3.9,7c0.2,2.4-1.2,5.4-4.3,9l-5.6,5.9
			c-2.5,2.8-6.1,7.9-10.8,15.2c-4.7,7.3-9.4,14.3-14.2,20.7c-4.8,6.5-8.4,11.1-10.9,13.7l-8.9,9.8c1.7,5.3,3.5,10.3,5.4,15
			s5.9,12,12,21.9c6.1,9.9,11.6,18.2,16.6,24.7c5,6.6,9.6,11.6,13.9,15.1c4.3,3.5,7.5,5.7,9.7,6.7c2.2,0.9,4.2,1.2,6.1,0.9
			c3.4-0.3,6.1-1.9,8-4.8c1.9-2.9,3.7-6.8,5.5-11.6c1.8-4.8,3.5-9.9,5-15.2l5.4-20.2c1.1-4.2,2.3-6.1,3.6-5.7
			c1.3,0.4,2.1,2.1,2.2,5.3l1.6,47.6c0.3,13.7,0.6,21.2,0.9,22.3l2.1,12.7c0.6,5,0.3,8.7-0.9,11c-0.9,1.6-2.3,2.8-4,3.9
			c-1.7,1-4.4,1.4-8,1.3c-4.8,0-9.5-0.7-13.8-2.1c-4.4-1.4-8.6-3.4-12.8-5.9c-4.1-2.5-9.5-6.8-16.2-12.8c-6.6-6-14-13.8-22-23.3
			c-8-9.5-14.8-18.5-20.4-26.8c-5.5-8.4-10-16.5-13.5-24.5l-8.4-18.5c-6.4,4.1-11.1,6.9-14.2,8.6s-8,4.1-15,7.4
			c-7,3.3-12.3,5.5-16.1,6.8l-13.8,4.5l-5.4,1.9c-2.2,0.8-3.6,0.5-4.2-0.8c-0.6-1.3,0.4-2.8,3-4.6l7.5-4.7l12.9-8
			c1.9-1.2,7.1-5.1,15.8-11.6c8.7-6.5,13.6-10.3,14.9-11.6l7.5-7c-3.3-10.5-6.2-20.2-8.8-29.2c-2.6-9-5-18.6-7.3-28.8
			c-2.3-10.2-4.9-22.9-7.9-38.1l-2.8-14.1l-64.7,13.6l0.5,56.7l42.2-20.4c3.1-1.6,5.1-1.2,5.9,0.9c0.8,2.2,0.4,3.8-1.2,4.9
			l-46.4,31.4v75.2c0,12.3-0.7,21.8-2.2,28.4c-1.5,6.6-3.3,11.8-5.5,15.8c-2.2,4-5.6,8.1-10.2,12.4c-4.6,4.3-8.6,6.4-11.8,6.2
			c-2.8,0-5.5-1.1-8-3.3l-8.7-12.9c-0.9-1.1-3.7-4.1-8.2-8.9c-4.5-4.8-6.9-7.4-7-7.7l-9.6-8.9c-1.1-0.9-1.5-2-1.2-3.3
			c0.3-1.3,1.3-1.7,3-1.4l8.4,2.3l10.5,3c5.2,1.6,9.4,2,12.8,1.3c3.4-0.7,6.4-2.5,9.3-5.5c2.8-3,4.4-10.4,4.7-22.3l0.9-56.5
			l-46.6,30.5c-8.1,5.3-13.9,9.4-17.5,12.3c-3.5,2.9-5.9,4.5-7.3,4.9c-1.3,0.4-3.3,0.7-5.9,0.8c-2.6,0.2-6.4-1.6-11.4-5.2
			c-0.3-0.2-3.3-2.5-8.9-7.1c-5.6-4.6-8.5-7.9-8.6-9.7c-0.1-1.9,0.6-3.4,2-4.7c0.6-0.5,2.6-0.8,6-0.9c3.4-0.2,7.3-1.2,11.8-3
			l16.2-6.6c11.1-4.5,20.4-8.6,27.9-12.2l42.7-20.4V312.1z M358.7,179.2l7.5,1.4c10.5,2,17.5,3.5,21.1,4.5c3.6,0.9,7.8,2.7,12.5,5.4
			c4.8,2.7,8.1,5.7,10,9.3s2.8,7.3,2.8,11.4c-0.2,2.8-0.8,5.5-2,8.2c-1.2,2.7-2.9,4.5-5,5.4c-2.2,0.9-4.8,1.4-8,1.5
			c-3.1,0.1-7.3-2.2-12.7-6.9c-2.7-2.2-6.7-6.6-12.2-13.1c-5.5-6.6-8.8-10.7-9.8-12.4l-6.3-8.7c-1.3-1.6-1.6-3-1.2-4.2
			C355.8,179.6,356.9,179.1,358.7,179.2z"/>
	</g>
	<g>
	</g>
	<g>
	</g>
	<g>
	</g>
	<g>
	</g>
	<g>
	</g>
	<g>
	</g>
	<g>
	</g>
	<g>
	</g>
	<g>
	</g>
	<g>
	</g>
	<g>
	</g>
	<g>
	</g>
	<g>
	</g>
	<g>
	</g>
	<g>
	</g>
	<g>
	</g>
</g>
</svg>
