<svg xmlns="http://www.w3.org/2000/svg" width="339" height="157.5" viewBox="0 0 339 157.5"><path d="M23.052 21.275c-.048 1.703-.24 4.73-.36 5.616-.336 2.617-.624 3.24-1.512 4.32-.744.913-1.224.745-1.296.025-.048-.433-.816-1.752-1.152-2.16-.336-.433-.192-.625.336-.336 1.393.814 1.68.743 2.136-1.25.504-2.16.6-6.072.552-8.064-.024-1.128-.168-1.248-.984-1.15-.528.07-1.944.335-2.785.55 1.32.793 1.344.912 1.104 1.537-.095.264-.19.576-.263 1.104.864-.19 1.344-.168 1.584-.048.577.287.48.623-.383.79-.504.073-.888.146-1.368.265-.097.816-.217 1.56-.41 2.45 1.61-.337 1.873-.313 2.257-.218.576.145.672.625-.36.72-.432.048-1.176.17-2.064.385-.72 3.144-2.064 5.017-4.73 6.745-.407.264-.575.023-.143-.385 1.873-1.824 3.24-4.248 3.696-6.097-.408.12-.864.24-1.296.36-.84.264-1.32.216-1.824-.288-.552-.528-.48-.96.648-.744.432.097 1.368.024 2.665-.24.19-.912.36-1.752.455-2.448-1.44.288-1.873.312-2.256.168-.793-.287-.65-.48.167-.6.576-.072 1.272-.24 2.208-.528.12-1.272.072-2.185-.192-2.808-.984.215-1.248.168-1.992-.217-.36-.19-.335-.432.217-.455 1.104-.05 4.656-.553 5.376-.912.624-.312.984-.408 1.632-.05 1.32.745 1.32.985.816 1.537-.238.24-.43 1.2-.478 2.425zm7.8 9.29c-.695-.77-1.68-1.657-2.64-2.187-.575-.312-.43-.504.073-.383 2.76.672 3 .287 2.52-1.297-.263-.888-1.44-2.376-2.687-3.096-.648-.36-.648-.553-.264-1.2.312-.552 1.2-2.28 1.536-3.192.264-.624.048-.792-.384-.672-1.08.287-1.872.432-2.592.455.12 4.2.168 8.498.168 12.36 0 2.186-.384 4.586-.624 5.258-.36.96-.672.938-.72 0-.048-1.08 0-2.76.048-4.344.12-3.408.048-7.297-.024-10.513-.048-1.656-.192-2.448-.384-2.736-.6-.815-.48-1.176 1.008-.575 1.248-.12 2.736-.6 3.096-.865.768-.552 1.08-.695 1.968-.144 1.368.77 1.392 1.01.648 1.513-.672.504-1.632 1.464-3.264 3.648-.312.432-.264.504.144.647 3.912 1.465 4.776 4.682 3.48 7.105-.385.675-.673.7-1.105.22zM59.7 26.94c-1.896.695-4.752 1.8-5.208 2.063-.936.552-1.08.552-1.896-.168-.744-.648-.648-1.08.624-.937.24.024.984-.144 1.944-.384-.096-3.36-.312-4.44-.648-4.992-.672-1.08-.432-1.37.768-.793.984.503 1.032.696.792 1.536-.048.144-.048 1.008 0 4.008.672-.168 1.368-.36 2.04-.576 0-6.816-.095-7.32-.55-8.04-.745-1.177-.337-1.417.91-.72 1.153.647 1.273.863.865 2.063-.095.24-.19 1.13-.215 1.92 1.536-.743 1.92-.84 2.448-.623.504.192.576.528-.144.84-.697.312-1.537.457-2.305.408v3.84c2.136-.768 2.977-.84 3.072-.647.07.145-.05.266-2.497 1.2zm8.112 6.912c-1.2-.19-3.528-.215-6.24.05-1.705.19-3.193.383-4.393.622-1.418.29-1.633.265-2.593-.24-.912-.478-.888-.84.384-.743.577.05 3.29-.143 4.682-.31 1.512-.17 4.128-.48 5.376-.745 1.944-.457 2.688-.36 3.792.287 1.177.72.936 1.416-1.008 1.08zm-3.48-3.72c-.672.144-1.608.312-2.424.456-1.896.336-3.36.312-3.936-.05-.528-.31-.504-.478.312-.526.6-.048 2.544-.408 3.264-.553 2.064-.48 2.424-.456 2.952-.17.456.24.384.722-.168.842zm5.28-2.16c-1.055.288-2.928.336-4.27.096-2.042-.336-2.473-1.944-2.425-4.128.096-4.56.024-6.553-.168-6.913-.673-1.272-.385-1.512.767-.91 1.296.67 1.344.886.792 1.942-.145.263-.337 2.183-.41 4.392 2.33-1.13 3.217-1.824 3.505-2.377.312-.623.696-.815 1.536-.023.865.792.77.984-.047 1.176-.624.145-2.496.89-5.017 1.776-.096 3.145.36 3.745 2.256 3.864.84.05 1.656 0 2.472-.19.72-.193 1.392-1.058 1.8-2.233.216-.672.408-.576.48-.023.12.863.216 1.416.384 2.23.145.67-.12.936-1.655 1.32zM96.78 25.115c-.41.6-.817 1.152-1.25 1.704.48.478.697.84.745 1.176.072.36.024 4.416-.048 6.023-.024.335-.192 1.27-.36 1.487-.216.265-.432.217-.648-.096-.505-.79-.6-1.438-.17-2.64.17-.455.217-2.28.193-4.44 0-.24-.048-.624-.144-1.008-1.345 1.513-2.857 2.736-4.633 3.577-.576.286-.768-.05-.288-.386 1.704-1.225 3.527-2.977 4.824-5.016.72-1.13 1.032-2.09.984-2.833-.048-.647.192-.792.768-.407.888.623 1.2 1.248.96 1.512-.17.193-.673.937-.937 1.345zm10.272-6c-.912-.072-2.832-.12-4.272-.05-.504 1.105-1.128 2.065-1.656 2.522-.336.336-.6.144-.336-.288.192-.313.504-1.01.936-2.138-.912.12-2.208.36-3.672.553.048.384.096.816.144 1.32.048.408-.072.624-.288.695-.216.097-.48-.168-.552-.552-.096-.504-.168-.937-.216-1.32-1.032.17-2.472.433-2.736.505-1.2.384-1.848.287-2.352-.192-.576-.527-.48-.67.144-.646.504.023 2.496-.193 4.776-.433-.264-1.247-.552-1.775-1.176-2.52-.264-.287-.192-.624.576-.576 1.128.072 1.68.385 1.584 1.08-.048.312-.048.864.048 1.896 1.44-.168 2.688-.36 3.96-.527.528-1.656.648-2.64.408-3.025-.336-.552-.024-.936 1.128-.36 1.056.48 1.104.65.744 1.25-.216.358-.696 1.175-1.104 1.968.936-.12 1.656-.24 2.016-.337 1.224-.29 1.752-.313 2.304-.05 1.296.577 1.057 1.37-.408 1.225zm1.224 14.737c-1.632.6-4.68.576-5.904-.07-1.68-.865-1.992-1.465-1.92-5.162-.984.553-1.968.937-2.688 1.13-.432.118-.48-.193-.168-.337.624-.312 1.944-1.104 2.88-1.73.096-3.216.096-4.392-.216-4.872-.336-.503-.168-.694.432-.503 1.392.408 1.68.816 1.248 1.584-.096.17-.288 1.514-.408 3.05 2.304-1.872 3.36-3.288 3.265-3.864-.072-.433.216-.647.696-.384 1.392.768 1.608 1.344 1.056 1.632-.217.097-.72.456-1.61 1.272-.936.863-2.23 1.775-3.527 2.52-.168 3.072.072 3.865 1.32 4.37.792.31 3.384.335 4.632-.146 1.176-.48 1.56-.96 2.136-3.912.12-.672.41-.696.433.12.024.91.36 2.808.552 3.168.287.48-.12 1.416-2.21 2.136zM139.668 25.332c.48-.12 1.128-.145 1.344-.072.336.072.456.047.552-.312.144-.48.336-1.44.504-2.376-.336.024-.72.07-1.104.216-.768.19-1.608.12-2.352-.312-.24-.144-.192-.287.144-.312.456-.024.72-.072 1.368-.192.888-.216 1.56-.287 2.088-.216.12-.528.168-1.056.192-1.44.048-.888-.144-.984-.888-.815-1.248.24-1.92.217-2.353-.07-.432-.24-.384-.41.024-.434.6-.047 1.896-.336 2.712-.768.72-.36.983-.432 2.11.168 1.153.624 1.273.936.745 1.416-.48.408-1.008 1.608-1.44 3.937-.192.983-.648 2.207-1.128 2.855-.288.408-.6.312-.816-.096-.095-.193-.19-.29-.407-.313-.264-.023-.936-.023-1.92.023 1.488.744 1.464 1.033 1.128 1.873-.12.287-.24 2.447-.143 3.768.072 1.034.6 1.634 1.872 1.922.91.216 2.663.144 3.48-.144 1.367-.48 1.607-.744 2.015-3.24.168-1.033.264-1.13.456 0 .337 1.752.625 2.592.77 2.808.31.456.167.815-1.08 1.56-.84.504-2.88.744-5.042.504-2.328-.264-3.36-1.176-3.552-3.36-.12-1.175-.168-2.616-.12-3.72.048-.96 0-1.536-.36-1.92-.792.048-1.752.12-2.856.24 1.416.863 1.464 1.32 1.056 1.728-.096.097-.408.6-.768 1.393-1.272 2.617-4.2 4.8-7.272 5.522-.576.12-.6-.24-.048-.48 1.584-.72 3.672-2.28 5.064-4.032 1.584-1.992 2.017-3.408 1.488-4.056-.432.047-.864.096-1.344.144-.192.937-.456.96-.72.624-.288-.408-.432-.936-.552-2.4-.096-1.152-.84-3.696-1.608-4.633-.384-.456-.24-.696.336-.673.288.024.792.096 1.248.168 2.088-1.824 2.928-2.928 2.904-3.36-.048-.96.312-1.008 1.584-.407 1.056.527 1.08.815.6 1.03-.168.073-.624.36-1.272.89-.84.648-2.016 1.464-3.264 2.136 0 .408.096 1.417.264 2.544 2.448-.695 3.072-.672 3.433-.432.48.36.335.528 0 .648-.337.096-.793.216-1.057.264-.84.19-1.536.24-2.304.145.095 1.008.24 2.064.36 2.712 2.496-.22 5.472-.557 5.928-.653zM41.383 25.466c.09.108.144.198.144.27 0 .127-.126.217-.27.27-.234.11-.234.146-.972.866-.306.306-.54.52-.99.773.053.055.07.108.07.18 0 .055-.017.145-.035.27-.036.325-.054.703-.054 1.082 0 .377.018.756.054 1.098.054.432-.126.684-.306.774-.054.035-.108.035-.18.035-.162 0-.342-.127-.324-.47.018-.772.036-1.35.036-1.8 0-.306-.018-.54-.036-.773-.018-.108-.018-.18-.036-.252-.036-.02-.09-.055-.126-.09-.288-.2-.72-.666-1.008-.955-.45-.45-.738-.756-.937-.936-.108-.09-.144-.163-.144-.235 0-.09.07-.145.25-.18.09-.02.163-.02.235-.02.342 0 .504.182.792.506l1.134 1.333c.09.107.18.144.235.09.288-.27.54-.486.792-.793.306-.342.72-.9.864-1.152.18-.306.27-.414.415-.27l.398.378zm-1.098-6.374c.09.09.126.162.126.234 0 .107-.09.217-.197.307-.18.162-1.134 1.134-1.278 1.224-.018.02-.036.054-.036.072 0 .053.053.107.215.09.504-.055 1.08-.11 1.404-.217.143-.055.287-.107.413-.107.108 0 .216.053.288.16.145.235.38.416.38.596 0 .072-.037.126-.11.18-.45.36-1.043 2.322-1.853 2.88-.234.163-.432.325-.63.325-.126 0-.234-.055-.36-.234-.342-.486-.594-.773-.684-.864-.108-.127-.144-.2-.144-.234 0-.055.053-.072.16-.055.055.02.11.037.18.073.29.107.686.288.9.288.235 0 .505-.27.883-.88.342-.487.486-1.046.432-1.243-.018-.108-.162-.162-.36-.162-.324 0-.792.107-1.278.18-.162.018-.324.126-.504.126-.09 0-.198-.035-.306-.107-.18-.144-.486-.56-.486-.666 0-.145.27-.145.505-.288.396-.2.99-.92 1.098-1.08.054-.055.072-.11.072-.145 0-.055-.072-.055-.18-.037-.09 0-.18.02-.288.037-.504.107-.972.27-1.296.27-.125 0-.233-.036-.305-.09-.252-.198-.558-.47-.558-.612 0-.054.036-.09.162-.09.233 0 .737.036.953.036.612-.038 1.747-.182 2.107-.344.143-.073.376.14.575.376zm5.147 7.994c.702.667.522 1.152-.09.667-.468-.378-1.116-.92-2-1.603-.413-.324-.936-.685-1.368-.973-.45-.324-.144-1.64.612-.9.81.81 2.432 2.432 2.846 2.81zM80.9 17.273c0 .108-.127.198-.487.198-.252 0-1.224.09-1.89.145.017.037.017.072.017.108 0 .054-.018.108-.036.162-.054.144-.126.882-.126 1.1-.018.358-.018.9-.018 1.403 0 .414.036 1.188.054 1.404 0 .216-.288.883-.504.883-.198 0-.396-.63-.36-1.28.036-.34.126-1.53.126-2.52 0-.468-.018-.882-.072-1.152-.45.072-1.17.198-1.675.324-.307.09-.74-.288-.865-.433-.072-.07-.126-.162-.126-.216 0-.09.107-.16.377-.16.468 0 .973-.038 1.333-.073 1.152-.108 2.18-.252 2.737-.36.324-.072.54-.108.702-.108.125 0 .233.018.323.072.198.107.486.34.486.503zm.017 7.508c0 .128-.144.2-.56.163-.107-.018-.215-.018-.34-.018-.577 0-1.405.09-2.09.18-.324.037-1.314.18-1.98.36-.306.072-.738-.288-.864-.432-.072-.072-.126-.18-.126-.253 0-.107.09-.197.36-.197.468 0 .973-.036 1.333-.072 1.152-.125 2.107-.25 2.683-.377.198-.036.378-.072.576-.072.18 0 .36.037.503.127.198.145.504.415.504.594zm-.036 4.917c0 .107-.09.198-.43.198-.29 0-.668.02-1.1.054-.072.287-.126.54-.162.647-.144.396-.162.594-.432 1.045-.126.197-.234.342-.324.396-.036.02-.072.02-.09.02-.072 0-.108-.073-.108-.235 0-.108.018-.27.072-.486.126-.486.216-.918.306-1.314-.486.054-1.008.107-1.458.18.054.648.126 1.297.162 1.53.108.54.342.793.666.847.144.018.288.036.432.036.432 0 .828-.09 1.314-.252.108-.036.198-.054.27-.054.18 0 .324.09.414.306.126.288-.144.433-.522.54-.234.072-.774.145-1.35.145-.36 0-.757-.036-1.063-.126-.522-.162-.774-.576-.864-1.008-.09-.52-.144-1.098-.198-1.8-.162.035-.306.07-.432.107-.072.02-.126.036-.18.036-.324 0-.54-.272-.684-.434-.09-.108-.145-.216-.145-.288 0-.09.072-.144.216-.144l.577.036c.09 0 .324-.02.612-.036-.02-.378-.037-.864-.09-1.01-.055-.143-.163-.323-.163-.448 0-.127.072-.162.162-.162.16 0 .377.107.395.107.126.073.36.18.486.343.037.036.055.09.055.145 0 .145-.126.324-.126.468l.017.486c.522-.072 1.116-.144 1.64-.233l.053-.235c.09-.396.144-.666.144-.9 0-.127-.018-.234-.054-.342-.036-.108-.072-.2-.072-.27 0-.145.072-.217.216-.182.072.02.162.073.27.146l.504.36c.108.09.144.16.144.233 0 .16-.216.288-.27.485l-.162.576c.162-.017.288-.053.396-.07.072-.02.126-.02.18-.02.27 0 .45.163.612.29.073.053.163.18.163.287zM118.16 26.996c-.163.037-.397-.09-.505-.27-.18-.252-.252-.38-.648-.793-.144-.162-.288-.287-.414-.414l-.18.16c-.972.74-2.017 1.243-2.484 1.405-.307.108-.47.072-.505.072-.054 0-.072-.054-.018-.107.18-.162.63-.486.955-.703.378-.252 1.026-.737 1.602-1.26-.162-.107-.414-.307-.774-.594-.306-.234-.774-.612-1.134-.81-.18-.108-.252-.218-.252-.29 0-.07.054-.107.144-.107.306 0 .56.09.864.217.486.216 1.188.666 1.73 1.044.16-.18.287-.343.395-.505.342-.52.288-.737.288-1.043 0-.146.054-.2.144-.2.07 0 .18.055.287.145.18.107.324.216.504.45.09.108.163.233.163.342s-.108.27-.288.396c-.252.18-.594.54-.918.864l.072.054c.61.54.97.812 1.24 1.28.233.397-.11.63-.27.666zm1.043-9.633c0 .127-.108.234-.468.27-.27.02-1.836.11-3.17.307h-.035c.162.162.252.252.216.342-.126.29-.198.775-.234 1.1-.126.846-.432 1.62-.576 1.943-.18.414-.667 1.01-1.08 1.297-.073.055-.127.072-.163.072-.054 0-.054-.072-.036-.162.054-.198.234-.54.378-.828.432-.864.522-1.675.612-2.09.036-.18.09-.63.09-1.043 0-.16-.018-.306-.036-.432h-.125c-.18 0-.342-.036-.504-.144-.34-.217-.593-.47-.593-.595 0-.072.072-.127.252-.11.575.038 1.403-.034 1.53-.034.09-.018.828-.09 1.025-.108.594-.07 1.243-.198 1.836-.288.127-.018.235-.036.325-.036.18 0 .306.054.45.145.146.088.308.25.308.393zm-.576 10.533c.09.108.144.198.144.27 0 .127-.125.217-.27.272-.233.107-.233.144-.97.863-.307.308-.542.523-.992.775.054.054.072.108.072.18 0 .055-.018.145-.036.27-.036.343-.054.703-.054 1.08 0 .38.018.758.054 1.1.054.433-.126.685-.306.774-.054.035-.108.035-.18.035-.162 0-.342-.126-.324-.468.018-.775.036-1.352.036-1.8 0-.308-.018-.542-.036-.775-.018-.108-.018-.18-.036-.252-.036-.02-.09-.054-.126-.09-.288-.198-.72-.667-1.008-.954-.45-.45-.738-.757-.937-.938-.108-.09-.144-.162-.144-.233 0-.09.072-.144.252-.18.09-.02.162-.02.234-.02.34 0 .503.18.79.505l1.135 1.333c.09.108.18.144.234.09.287-.27.54-.486.79-.792.307-.34.72-.9.865-1.15.18-.308.27-.415.414-.272l.397.378zM155.035 23.16c.234.11.396.254.288.397-.108.144-.18.522-.162.774.037.325-.07 1.01-.197 1.478-.18.684-.414 1.225-1.026 1.926-.288.307-.63.54-.774.54-.072 0-.09-.07 0-.233.036-.07.09-.144.144-.233.846-1.188.936-1.836 1.008-2.502.054-.415.072-.793.072-1.1 0-.306-.018-.558-.072-.72-.054-.162-.09-.27-.09-.36 0-.125.072-.18.252-.144.27.073.378.11.558.18zm1.73-.377c.197.162.323.27.287.396-.072.25-.162.467-.216 1.024-.018.234-.09 1.17-.09 1.945 0 .52.036.953.144 1.08.126.144.252.197.396.197.126 0 .252-.054.414-.09s.27-.054.378-.054c.144 0 .234.035.342.09.18.09.342.252.342.396 0 .09-.054.16-.198.215-.252.09-.738.162-1.207.162-.234 0-.45-.018-.63-.072-.18-.053-.54-.233-.648-.63-.037-.126-.055-.342-.055-.63v-.234c0-.81.054-1.962.054-2.682 0-.323 0-.558-.037-.666-.054-.162-.108-.36-.108-.522 0-.144.036-.234.18-.234.18 0 .523.217.65.307zM214.512 31.916c.543.096 1.136.264 1.776.504 2.288.832 3.976 1.368 5.064 1.607 1.088.24 2.232.36 3.432.36 1.2 0 2.208-.008 3.024-.023l2.184-.072c.464 0 .696.063.696.192 0 .224-.836.63-2.508 1.224-1.672.592-2.772.888-3.3.888-.256 0-.516-.035-.78-.107-.264-.073-1.353-.478-3.264-1.214-1.912-.735-3.416-1.344-4.512-1.823-1.096-.48-1.992-.72-2.688-.72-.696 0-1.548.256-2.556.768-.144.065-.288.097-.432.097-.32 0-.616-.147-.888-.443-.272-.297-.408-.512-.408-.648s.176-.203.528-.203.888-.093 1.608-.277c.72-.184 1.204-.275 1.452-.275s.508.01.78.024c-.08-.8-.296-1.52-.648-2.16-.272-.543-.408-1.05-.408-1.523 0-.47.076-.92.228-1.343.152-.424.228-.672.228-.744s-.032-.107-.096-.107c-.128 0-.456.136-.984.408-.128.063-.32.096-.576.096s-.568-.057-.936-.168c-.368-.112-.552-.23-.552-.35s.112-.21.336-.275c.976-.24 1.752-.567 2.328-.983.288-.208.528-.308.72-.3s.536.16 1.032.455c.496.296.744.563.744.804 0 .096-.048.2-.144.312-.768.848-1.152 1.63-1.152 2.352 0 .288.056.584.168.888.416 1.085.584 2.012.504 2.78zm.864-11.088c0 .288-.06.552-.18.792s-.308.36-.564.36-.7-.465-1.332-1.393-.948-1.476-.948-1.645c0-.168.104-.252.312-.252.512 0 1.092.193 1.74.576.648.386.972.906.972 1.562zm8.736 1.272c.288-.03.792-.14 1.512-.324s1.252-.275 1.596-.275c.344 0 .672.117.984.35.312.23.468.443.468.636 0 .19-.132.336-.396.432-.264.096-.592.124-.984.084-.392-.04-.82-.06-1.284-.06s-1.096.04-1.896.12c.064 2.16.124 3.79.18 4.896.056 1.104.084 1.815.084 2.136 0 .85-.16 1.568-.48 2.16-.32.592-.584.89-.792.89-.208 0-.408-.122-.6-.36-.512-.625-1.088-1.25-1.728-1.873-.176-.175-.264-.303-.264-.384 0-.08.072-.12.216-.12s.375.033.696.097c.32.064.596.096.828.096s.4-.068.504-.204c.104-.137.18-1.036.228-2.7.048-1.664.064-3.152.048-4.464-1.024.19-2.265.44-3.72.744-.32.08-.644.12-.972.12s-.676-.108-1.044-.325c-.368-.214-.552-.382-.552-.503 0-.12.264-.195.792-.228 1.904-.16 3.736-.4 5.496-.72-.096-2.577-.376-4.2-.84-4.874-.16-.223-.24-.41-.24-.563 0-.15.124-.228.372-.228s.696.128 1.344.384.972.575.972.96c0 .144-.04.335-.12.575-.272.83-.408 2.005-.408 3.525zm-5.808 3.024c.304 0 .768.196 1.392.588.624.393.936.86.936 1.404 0 .288-.076.528-.228.72s-.3.288-.444.288-.264-.04-.36-.12c-.096-.08-.268-.312-.516-.695-.248-.386-.472-.798-.672-1.237-.2-.44-.3-.708-.3-.805 0-.096.064-.144.192-.144zM250.56 25.148c.752 0 1.432.18 2.04.54.608.36.912.684.912.972 0 .352-.44.527-1.32.527-.24 0-.576-.023-1.008-.07s-1.064-.073-1.896-.073c-1.856 0-3.957.128-6.3.384s-4.42.592-6.228 1.008c-.336.08-.664.12-.984.12-.32 0-.76-.17-1.32-.516-.56-.344-.84-.636-.84-.876 0-.27.284-.38.852-.324.568.057 1.172.084 1.812.084 1.312 0 3.516-.2 6.612-.6 3.096-.4 5.024-.696 5.784-.89.76-.19 1.388-.286 1.884-.286zM267.36 18.572c2.032 2.048 3.6 3.536 4.704 4.464 1.104.93 2.08 1.604 2.928 2.028.848.424 2.016.867 3.504 1.332.528.16.792.304.792.432 0 .048-.072.096-.216.145-.144.047-.68.1-1.608.155-.928.056-1.62.084-2.076.084s-.824-.052-1.104-.155c-.28-.104-.584-.31-.912-.613-.328-.303-1.26-1.352-2.796-3.143-1.536-1.792-2.688-3.2-3.456-4.224-1.088 1.968-2.38 3.748-3.876 5.34-1.497 1.592-2.853 2.732-4.068 3.42-1.216.688-1.976 1.032-2.28 1.032-.128 0-.192-.048-.192-.144 0-.097.104-.2.312-.312 1.728-1.057 3.38-2.496 4.956-4.32 1.576-1.824 2.672-3.363 3.288-4.62.616-1.255.892-2.1.828-2.532-.016-.11-.024-.207-.024-.287 0-.288.116-.432.348-.432.23 0 .608.145 1.128.433.52.287.78.552.78.79 0 .24-.16.426-.48.554-.128.064-.288.255-.48.575zm-2.232 11.28c-1.088.145-1.836.257-2.244.336-.408.08-.78.12-1.116.12s-.716-.087-1.14-.264c-.424-.176-.636-.323-.636-.444 0-.12.236-.18.708-.18s1.836-.156 4.092-.468 3.852-.584 4.788-.815c.936-.232 1.588-.35 1.956-.35.368 0 .792.094 1.272.277s.72.37.72.563c0 .304-.624.48-1.872.528-1.248.048-3.264.256-6.048.624.944.398 1.416.76 1.416 1.078 0 .16-.156.31-.468.445-.312.136-1.516 1.14-3.612 3.012 1.552-.225 3.816-.48 6.792-.77-.48-.8-.796-1.31-.948-1.535-.152-.224-.228-.38-.228-.468 0-.087.04-.132.12-.132.224 0 .77.292 1.644.876.872.585 1.503 1.136 1.896 1.655.392.522.588 1.118.588 1.79s-.184 1.008-.552 1.008c-.176 0-.344-.092-.504-.276-.16-.185-.72-.995-1.68-2.437-1.888.29-3.504.617-4.848.984-1.344.367-2.256.703-2.736 1.007-.48.305-.812.457-.996.457-.184 0-.348-.232-.492-.696s-.216-.776-.216-.937.072-.29.216-.395c.144-.104.512-.244 1.104-.42.288-.097.868-.648 1.74-1.656.872-1.01 1.308-1.777 1.308-2.305 0-.077-.008-.15-.024-.213zm5.016-4.752c0 .13-.104.256-.312.385-.208.128-.864.312-1.968.552-1.104.24-2.044.36-2.82.36-.776 0-1.288-.068-1.536-.205-.248-.135-.372-.243-.372-.323 0-.13.144-.193.432-.193s.748-.067 1.38-.203c.632-.137 1.164-.276 1.596-.42 1.008-.336 1.736-.505 2.184-.505.448 0 .796.06 1.044.18.248.118.372.243.372.37zM289.296 21.836c0 .13-.032.31-.096.54-.064.232-.144 1.056-.24 2.472s-.276 2.828-.54 4.236-.78 2.584-1.548 3.528-1.64 1.68-2.616 2.208c-.976.527-1.584.792-1.824.792-.128 0-.192-.044-.192-.132s.104-.213.312-.373c2.032-1.424 3.38-2.883 4.044-4.38.664-1.495.996-3.747.996-6.755 0-1.488-.192-2.433-.576-2.832-.144-.16-.216-.312-.216-.457 0-.144.116-.215.348-.215s.564.11.996.336c.432.224.732.404.9.54.168.136.252.3.252.492zm11.736 7.296c.08 0 .14.196.18.59.04.39.12.915.24 1.57.12.656.235 1.144.348 1.464s.168.56.168.72c0 .48-.468.892-1.403 1.236-.937.345-2.053.517-3.35.517s-2.263-.193-2.903-.577c-.64-.385-1.124-.932-1.452-1.645-.328-.71-.492-1.668-.492-2.867 0-1.2.036-2.9.108-5.1.072-2.2.108-3.38.108-3.54 0-1.136-.112-1.844-.336-2.124-.224-.28-.336-.508-.336-.685 0-.175.132-.263.396-.263s.724.177 1.38.528c.656.353.984.688.984 1.008 0 .128-.044.26-.132.396-.088.136-.228.536-.42 1.2s-.364 1.908-.516 3.73c-.152 1.825-.228 3.225-.228 4.2 0 1.52.244 2.577.732 3.17.488.59 1.428.887 2.82.887.912 0 1.624-.11 2.137-.336.512-.223.88-.587 1.104-1.09s.446-1.38.67-2.63c.05-.238.11-.358.192-.358zM213.988 11.36c-.27 0-.55-.063-.667-.127-.197.17-.242.323-.242.504 0 .388.27.423.522.423.045 0 .135-.01.26-.018.208-.027.568-.045.72-.045.316 0 .937.01 1.27.297.252.216.378.495.378.89 0 .848-.837 1.433-2.242 1.433-.955 0-1.73-.306-1.73-1.018 0-.17.1-.423.208-.595.234-.18.513-.35.765-.46-.487-.08-.703-.403-.703-.772 0-.307.315-.568.576-.748-.252-.145-.64-.45-.64-1.125 0-.892.82-1.37 1.53-1.37.2 0 .388.028.55.083.675-.037.99-.136 1.422-.172l.027.028c-.018.08-.027.153-.027.234 0 .08.01.152.027.234l-.027.026c-.37-.036-.666-.07-.936-.09.206.135.45.423.45 1.044.002.713-.556 1.343-1.492 1.343zm.072 2.97c.774 0 1.513-.288 1.513-.838 0-.233-.09-.494-.35-.647-.244-.144-.523-.153-.956-.153-.126 0-.53.027-.8.027-.316.17-.586.503-.586.8 0 .612.595.81 1.18.81zm-.1-5.356c-.52 0-.79.388-.79.98 0 .622.197 1.045.845 1.045.54 0 .765-.424.765-.973 0-.64-.234-1.053-.82-1.053zm5.67 2.782c-.296.46-.8.918-1.358.918-.89 0-1.18-.63-1.18-1.252v-1.08c0-.684-.008-1.107-.08-1.62l.018-.027c.108.02.315.027.423.027.108 0 .315-.01.423-.027l.018.027c-.072.478-.08.944-.08 1.62v.892c0 .837.296.937.602.937.44 0 .963-.485 1.233-.944v-.883c0-.684-.01-1.107-.082-1.62l.018-.027c.108.02.315.027.423.027.107 0 .314-.01.422-.027l.018.027c-.072.478-.08.944-.08 1.62v.514c0 .675.08 1.34.152 1.73l-.018.025c-.117-.018-.288-.026-.396-.026-.135 0-.243.01-.36.026-.027 0-.036-.01-.036-.026l-.045-.802-.036-.028zm3.81-3.125c1.215 0 1.873.803 1.873 2.027 0 1.18-.72 2.017-1.91 2.017-1.196 0-1.907-.855-1.907-1.936 0-1.28.765-2.107 1.944-2.107zm-1.152 1.955c0 .693.243 1.73 1.197 1.73.604 0 1.036-.64 1.036-1.496 0-1.09-.188-1.827-1.143-1.827-.846 0-1.09.81-1.09 1.592zm2.498-2.907c.045.09.054.152.054.215 0 .045-.063.1-.135.1-.054 0-.117-.045-.26-.18l-1.027-.98.018-.1c.072-.055.28-.207.585-.207.046 0 .1.008.136.018l.63 1.134zM257.145 8.722c.126 0 .324 0 .44-.027.334 1.026.766 2.026 1.208 3.097h.018c.433-.927.856-2.08 1.18-3.097.09.027.26.027.35.027s.298 0 .388-.027c-.297.604-2.27 4.897-2.61 6.022-.09-.026-.352-.045-.442-.045-.09 0-.225.02-.315.045.406-.675.775-1.368 1.063-2.043-.315-.855-1.387-3.178-1.747-3.98.126.028.35.028.47.028zm4.645 1.746c0-.675-.027-1.36-.08-1.746l.017-.027c.19.02.576.01.783-.01.072 0 .08.01.08.09-.053.55-.08.874-.08 1.55v.64c0 .684.018 1.106.08 1.62l-.017.026c-.108-.017-.315-.025-.423-.025s-.315.01-.423.026l-.018-.025c.062-.486.08-.945.08-1.62v-.497zm.477-2.728c-.072 0-.1-.072-.1-.135 0-.108.082-.262.172-.262h1.99c.08 0 .116.072.116.127 0 .107-.09.27-.198.27h-1.98zm3.82 1.7c.575-.674 1.214-.81 1.556-.81.81 0 1.116.486 1.116 1.423 0 .288-.02.62-.02.91 0 .684.01 1.106.082 1.62l-.018.026c-.108-.02-.315-.027-.423-.027s-.314.01-.422.026l-.018-.027c.072-.486.08-.945.08-1.62v-.883c0-.73-.188-.91-.647-.91-.315 0-.846.198-1.305.74v1.052c0 .685.018 1.107.08 1.62l-.017.027c-.107-.02-.314-.027-.422-.027s-.315.01-.423.026l-.018-.027c.072-.504.08-.955.08-1.62v-2.71c0-.684-.008-1.358-.08-1.746l.018-.026c.37-.026.558-.09.783-.18.054 0 .08.026.08.09-.044.55-.08 1.018-.08 1.684v1.34l.018.027zm6.574 2.316c-.296.46-.8.918-1.358.918-.89 0-1.18-.63-1.18-1.252v-1.08c0-.684-.008-1.107-.08-1.62l.018-.027c.108.02.315.027.423.027.108 0 .315-.01.423-.027l.018.027c-.072.478-.08.944-.08 1.62v.892c0 .837.296.937.602.937.44 0 .963-.485 1.233-.944v-.883c0-.684-.01-1.107-.082-1.62l.018-.027c.108.02.315.027.423.027.107 0 .314-.01.422-.027l.018.027c-.072.478-.08.944-.08 1.62v.514c0 .675.08 1.34.152 1.73l-.018.025c-.117-.018-.288-.026-.396-.026-.135 0-.243.01-.36.026-.027 0-.036-.01-.036-.026l-.045-.802-.036-.028zm2.312-1.288c0-.675-.027-1.36-.08-1.746l.017-.027c.188.02.575.01.782-.01.072 0 .08.01.08.09-.053.55-.08.874-.08 1.55v.64c0 .684.018 1.106.08 1.62l-.017.026c-.108-.017-.315-.025-.423-.025-.108 0-.315.01-.423.026l-.02-.025c.064-.486.082-.945.082-1.62v-.497zm.925-2.413c-.26-.422-.594-.828-.91-1.17l.18-.117c.352.262.65.486.955.81.333-.34.64-.566.972-.81l.17.117c-.314.352-.656.756-.917 1.17h-.45zm2.61 1.54c.397-.685.658-.964 1.145-.964.162 0 .17.02.324.064l.036.036-.18.666-.072.018c-.117-.107-.288-.125-.468-.125-.17 0-.37.116-.504.313-.19.297-.306.514-.306.892v.468c0 .685.018 1.107.08 1.62l-.017.027c-.108-.018-.315-.026-.423-.026-.108 0-.315.01-.423.026l-.02-.026c.073-.486.082-.945.082-1.62v-.496c0-.675-.018-1.36-.08-1.746l.017-.027c.206.02.53.01.728-.026.045 0 .054.017.054.09v.817l.026.018zM82.64 59.507c-.57.102-1.09.193-1.554.275s-.81.135-1.037.158l-1.103.152-.264.79s-.225.605-.428 1.073-.44.928-.71 1.377c-.27.45-.585.877-.948 1.283-.363.407-.71.74-1.037 1.002-.328.262-.62.46-.88.592l-.48.245c-.25.14-.388.164-.415.07s.014-.19.123-.293l.492-.47c.18-.17.42-.43.72-.778.302-.347.595-.722.88-1.125.285-.403.562-.886.832-1.448s.486-1.07.65-1.523l.21-.587c-.093.016-.302.055-.626.117-.324.063-.525.094-.604.094-.203.008-.402-.012-.598-.06s-.363-.1-.504-.163c-.14-.06-.252-.135-.334-.222-.082-.085-.115-.16-.1-.223.016-.062.094-.105.234-.13l.62-.08.61-.095 1.02-.105.55-.082c.08-.335.134-.576.165-.72.03-.145.094-.47.188-.98l.164-.89c-.234.046-.463.09-.686.128-.222.04-.427.08-.614.118-.188.04-.332.06-.434.06-.164.007-.32-.007-.47-.042s-.327-.1-.538-.193-.34-.188-.387-.28-.055-.17-.023-.23.13-.1.293-.123l.445-.047c.062 0 .223-.027.48-.082l1.207-.175.878-.13.082-.69c.03-.265.053-.582.064-.95.012-.366.002-.632-.03-.796l-.128-.646c-.375.08-.7.157-.98.234-.276.08-.474.114-.59.105-.15 0-.308-.035-.476-.105s-.346-.167-.533-.293c-.188-.125-.3-.224-.34-.3-.04-.073-.047-.128-.023-.163s.055-.06.094-.076h.316l.785-.105 1.17-.128c.376-.04.7-.078.974-.117.273-.04.768-.115 1.482-.23.715-.112 1.172-.192 1.37-.24s.472-.112.815-.198c.345-.085.585-.146.722-.182s.248-.048.334-.04c.078.015.252.095.52.24.27.144.458.25.563.32s.245.19.42.358c.177.168.267.307.27.416.005.11-.048.253-.157.433-.125.204-.22.375-.287.516s-.146.362-.24.667-.188.81-.28 1.512l-.27 1.933-.26 1.805c-.194 1.33-.364 2.377-.51 3.146-.144.77-.354 1.508-.632 2.215-.277.707-.568 1.265-.873 1.675s-.612.7-.925.867-.53.225-.656.17c-.095-.03-.208-.152-.34-.363s-.288-.44-.464-.68c-.176-.243-.33-.442-.463-.6l-.492-.55c-.1-.1-.138-.173-.11-.217.027-.042.12-.048.275-.018l.785.176c.14.04.318.087.533.142.215.055.385.063.51.023s.275-.17.45-.398c.177-.226.337-.542.48-.95.146-.405.308-.957.487-1.657.18-.7.336-1.384.47-2.057l.1-.466zm-2.93 48.81c.194.233.354.423.48.567s.198.256.222.334.035.152.035.223c-.008.095-.05.294-.123.6s-.115.632-.123.983l-.093 4.23c-.023.86-.045 1.34-.064 1.44s-.072.26-.158.47-.168.357-.246.44-.157.128-.235.14-.176-.057-.293-.205c-.125-.14-.223-.31-.293-.51s-.138-.424-.2-.674-.09-.45-.082-.598c0-.102.043-.297.13-.586s.17-.67.25-1.143.132-.85.147-1.13l.082-1.91c.008-.33 0-.728-.023-1.196l-.047-.75c-.29.306-.545.57-.768.792s-.532.492-.927.81-.73.563-1.008.743-.658.398-1.143.656l-.504.27c-.172.095-.283.108-.334.042s-.03-.14.064-.217l.586-.457c.164-.125.473-.414.926-.867s.86-.876 1.225-1.27.7-.8 1.008-1.213.598-.836.867-1.266.45-.753.54-.972.183-.477.28-.773.15-.54.158-.727.033-.293.076-.316.107-.035.193-.035c.102.016.217.053.346.11s.3.153.51.282.396.282.557.462.23.32.205.422c-.016.055-.055.117-.117.188l-.34.328c-.156.148-.418.477-.785.984l-.703.926-.28.376zm-2.848-27.41l-.094-.646c-.047-.296-.123-.522-.23-.68s-.163-.265-.175-.327.02-.137.1-.223.297-.086.656 0c.42.117.687.195.796.234s.227.113.352.223.19.197.193.264-.01.144-.04.23c-.102.25-.158.41-.17.48s-.025.22-.04.45-.02.382-.013.452l.2 3.95 2.026-.6-.105-5.858c-.008-.273-.033-.664-.076-1.172-.043-.507-.076-.86-.1-1.06s-.082-.41-.176-.628c-.094-.218-.148-.365-.164-.44-.016-.073 0-.145.047-.216s.108-.115.187-.135c.078-.02.172-.02.28-.006.087.016.32.08.698.193.38.114.646.23.803.346s.238.22.246.305c.008.087-.03.24-.117.458-.047.11-.098.303-.152.58-.055.278-.094.504-.117.68s-.04.51-.047 1.002l-.034 1.324c.352-.156.646-.277.885-.363s.476-.136.71-.15c.133 0 .246.01.34.028s.225.066.393.14.285.153.352.235.096.162.088.24c-.023.117-.172.2-.445.252s-.537.11-.79.176-.464.114-.628.142-.285.033-.363.018l-.55-.06-.024 3.692 1.828-.574c.25-.078.474-.123.67-.135s.335-.004.42.023.146.06.177.1.045.086.04.14-.032.122-.087.2-.363.203-.926.375l-5.73 1.817c-.406.133-.773.29-1.102.47s-.535.28-.62.304-.157.036-.212.036c-.078.008-.18-.012-.305-.06s-.354-.23-.686-.55-.515-.52-.546-.598-.047-.143-.047-.193.01-.096.03-.135.08-.07.18-.094c.095-.016.265.004.51.06s.468.08.663.08c.148.01.383-.015.703-.07l.832-.128-.493-4.592zm4.805 52.113c-.414.047-.676.062-.785.047l-.398-.035c-.047.312-.105.523-.176.633s-.133.17-.188.182-.117-.006-.188-.053c-.11-.062-.22-.223-.334-.48s-.182-.492-.205-.703l-.363-3.128c-.047-.352-.123-.81-.23-1.377s-.2-.924-.286-1.072-.186-.295-.3-.44-.212-.26-.298-.35-.133-.167-.14-.23.01-.12.058-.176.098-.094.152-.117c.11-.047.258-.047.445 0l.75.176c.368-.328.675-.61.92-.844s.528-.52.845-.855.557-.63.72-.885.296-.484.394-.69.16-.386.192-.534.062-.246.094-.293.082-.086.152-.117.215-.008.434.07c.32.125.564.232.732.322s.35.203.545.34.33.27.41.398.104.225.08.287c-.022.07-.12.133-.292.188s-.318.11-.44.164-.39.232-.808.533-.885.617-1.4.95-.992.61-1.43.837l-.727.387c.133.094.223.176.27.246s.078.248.094.533l.035.633s.027.396.06.78l.034.48.984-.376c.523-.195.86-.303 1.014-.322s.305.002.457.064.29.14.41.234.19.156.2.188.014.066.006.105c-.016.06-.04.116-.07.163s-.086.088-.164.123-.242.072-.492.11-.523.1-.82.177-.5.117-.61.117l-.772.07.27 2.695c.71-.047 1.21-.084 1.5-.11s.896-.09 1.822-.183 1.58-.174 1.963-.24.627-.102.732-.105.238.004.398.023.28.053.357.1l.316.2.867-3.165-1.418.27c-.47.094-.785.14-.95.135s-.343-.03-.538-.076-.346-.117-.45-.21-.157-.173-.153-.235.092-.122.264-.177l.81-.094.948-.27.504-.153c.133-.016.293-.008.48.023l.656.117.28-2.004c.017-.133-.003-.266-.058-.398s-.104-.22-.146-.264-.113-.065-.21-.07-.272.022-.522.077l-1.312.305c-.266.062-.48.092-.645.088s-.322-.027-.475-.07-.248-.12-.287-.23-.038-.183 0-.222.185-.07.435-.094l.527-.035c.102 0 .36-.056.773-.165l.398-.094c.28-.07.584-.173.908-.31s.546-.213.663-.23c.164-.015.314-.003.45.036s.376.11.716.217.603.215.79.328.293.245.316.394-.068.383-.275.703-.356.637-.45.95l-1.125 3.56-.586 2.063c-.07.14-.146.256-.224.346s-.18.158-.305.205-.214.067-.27.06c-.116-.008-.21-.066-.28-.176l-.328-.398c-.336-.016-.523-.023-.562-.023l-1.102.094c.227.133.424.264.592.393s.252.264.252.404c-.008.062-.03.145-.07.246l-.2.434c-.1.242-.196.557-.286.943s-.158.773-.205 1.16-.065.748-.058 1.084c0 .392.05.75.152 1.08s.28.618.533.872.602.453 1.043.598 1.068.21 1.88.193c.813-.008 1.485-.09 2.017-.246s.906-.357 1.125-.604.385-.527.498-.844.197-.605.252-.862.102-.527.14-.81l.083-.714c.008-.062.053-.096.135-.1s.14.04.17.135l.223.878c.078.344.184.7.316 1.072s.28.693.444.967.248.463.252.568-.01.2-.04.287c-.048.117-.187.29-.417.52s-.755.51-1.57.833-1.964.49-3.44.498c-1.133.016-1.98-.098-2.537-.34s-1-.527-1.324-.855-.554-.672-.687-1.03-.24-.778-.322-1.255-.118-.797-.11-.96l.105-2.38c0-.125-.004-.37-.012-.732s-.047-.61-.117-.743l-.258-.54-1.723.118c.11.102.26.234.45.398s.317.342.376.533.054.36-.017.51c-.03.055-.14.166-.328.334s-.365.367-.533.598-.443.584-.826 1.06-.703.858-.96 1.144-.638.63-1.138 1.03-1.03.774-1.594 1.114-1.064.586-1.506.738-.904.28-1.39.38l-.327.07c-.124.032-.204.02-.24-.04s-.017-.107.054-.146l.328-.164c.188-.094.47-.244.844-.45s.896-.565 1.564-1.073 1.26-1.024 1.775-1.552.957-1.045 1.324-1.553.638-.947.813-1.318.29-.705.346-1.002l.107-.525zm-.364-32.497l1.688-.27c.196-.023.313.02.353.13s.027.192-.035.25-.125.097-.188.112l-1.676.527.27 1.383c.016.11-.004.254-.06.434s-.122.284-.204.315-.184-.008-.305-.117-.217-.27-.287-.48l-.41-1.22-1.406.435c-.28.086-.494.166-.64.24s-.284.15-.42.23-.23.12-.276.128c-.07.017-.18 0-.328-.052s-.295-.14-.44-.264-.282-.266-.415-.422-.232-.29-.3-.404-.093-.203-.08-.27.032-.113.063-.14.102-.042.21-.042c.11.008.22.02.33.035l.315.048c.142.023.292.03.452.018s.408-.045.744-.1l1.863-.305c-.056-.132-.1-.235-.13-.31s-.11-.252-.234-.533-.223-.496-.293-.645-.162-.29-.275-.428-.193-.254-.24-.352-.04-.19.018-.28.162-.15.31-.183c.134-.024.364-.013.692.034l.47.07c.163.03.286.064.368.1s.154.08.217.135.11.112.14.175l-.012.495.106 1.277.047.246zm-4.57-8.765h.82c.22 0 .71-.03 1.477-.094l1.922-.13c.414-.022 1.078-.077 1.992-.163s1.824-.167 2.73-.245 1.578-.145 2.016-.2l1.56-.187c.116-.008.33-.025.638-.053s.52-.04.64-.04c.218.015.438.063.66.145s.478.207.763.375.485.322.6.463.15.268.116.38-.143.175-.322.183l-.75.048c-.148.016-.537.008-1.166-.023s-1.256-.04-1.88-.023l-2.462.082c-.82.023-1.316.04-1.488.047s-.67.046-1.494.112-1.314.107-1.47.123-.562.072-1.214.17-1.12.18-1.4.246-.48.097-.598.09c-.094 0-.236-.02-.428-.06s-.38-.105-.568-.2l-.645-.35c-.18-.095-.31-.196-.392-.306s-.102-.2-.06-.275.178-.112.405-.112zm6.035-32.954c.03-.164.07-.388.117-.674.047-.285.098-.627.152-1.025l.14-1.113-.433.07-.996.2-1.383.198-.61.094c-.06.29-.132.63-.21 1.02-.078.39-.16.766-.246 1.125l-.106.433c.22-.04.383-.07.492-.094l.492-.106c.398-.078.656-.135.773-.17s.26-.083.43-.146c.167-.062.29-.097.368-.105.078-.007.19.008.34.047.148.04.293.086.434.14l.246.104zm.48-3.433c.032-.35.052-.585.06-.702s.02-.34.035-.674c.016-.332.037-.63.064-.896.027-.265.023-.478-.012-.64-.035-.16-.096-.276-.182-.35-.086-.075-.3-.096-.645-.065-.023.008-.23.023-.62.047s-.692.055-.903.094l-1.57.28c.234.11.416.205.545.282.13.08.238.174.328.287.09.114.133.202.13.264-.005.063-.036.16-.095.293-.06.133-.107.28-.146.445l-.152.633-.13.855c.384-.094.722-.167 1.015-.223.293-.054.547-.12.762-.193.215-.074.355-.113.422-.117.066-.003.193.016.38.06.19.042.345.1.47.17l.245.15zm2.204 31.923c.477-.11.754-.168.832-.176.078 0 .2.023.363.07s.342.113.533.2.34.177.445.274.146.202.123.312c-.023.078-.072.14-.146.188s-.172.078-.293.094-.407.078-.856.188-1.002.207-1.658.293l-1.535.21c-.57.08-1.026.118-1.37.118-.5.008-.852-.035-1.055-.13s-.36-.185-.47-.274-.167-.157-.175-.2-.008-.084 0-.123c0-.03.004-.057.012-.076s.04-.042.094-.07.145-.052.27-.075l1.418-.13c.148-.015.594-.09 1.336-.228s1.145-.213 1.207-.23l.925-.234zm.07 21.973c.61-.148 1.16-.283 1.652-.404s.938-.244 1.336-.37l.984-.292.727-.223c.103-.016.192-.027.27-.035.11 0 .222.02.335.06s.346.124.697.257.56.243.62.333.087.158.07.205c-.015.03-.056.068-.122.11s-.123.07-.17.077l-.797.117-1.652.234c-.257.047-.78.146-1.57.3s-1.296.255-1.522.31-.363.074-.41.06l-.457-.048-.058 2.543c-.016.657.057 1.16.217 1.507s.438.64.837.88.844.374 1.336.41.97.048 1.43.04c.602 0 1.092-.025 1.47-.076s.71-.134.99-.25.528-.298.74-.54.366-.494.468-.756.192-.572.27-.932l.224-1.02c.055-.266.127-.39.217-.37s.147.108.17.265l.118.89c.07.57.152.968.246 1.19s.21.473.352.75.217.475.23.592-.007.233-.054.35c-.102.25-.307.46-.615.628s-.666.316-1.072.445-.852.232-1.336.31-1.02.122-1.606.13c-.82.023-1.607-.027-2.36-.152s-1.37-.33-1.847-.62-.836-.62-1.078-.996-.397-.783-.464-1.225-.092-.878-.076-1.308l.06-3.14c.03-1.83.04-2.84.028-3.036s-.053-.398-.123-.61l-.117-.315c-.04-.1-.05-.188-.035-.263s.055-.143.117-.205.223-.055.48.023c.102.04.303.12.604.246s.51.25.627.37.187.23.206.328.002.24-.053.428l-.176.516c-.07.22-.125.5-.164.844l-.19 1.44zm2.473-9.164l1.453-.34.832-.234c.117-.008.234.004.352.035s.293.1.527.205.392.195.474.27.123.154.123.24c-.008.102-.05.176-.13.223s-.192.09-.345.124-.256.053-.31.053l-.622.07-2.145.27c-.21.03-.332.047-.363.047l-.363.07c-.118.227-.198.377-.24.45s-.177.292-.4.65-.376.595-.462.704l-.293.375c-.18.227-.324.31-.434.252s-.112-.23-.01-.51l.573-1.664c-.297.118-.51.175-.64.17s-.228-.017-.298-.04-.16-.062-.27-.117-.203-.104-.28-.146-.163-.11-.253-.2-.12-.167-.094-.233.12-.107.275-.123l.375-.034c.023 0 .367-.06 1.03-.176l.458-.082.06-.223c.1-.36.173-.63.216-.81s.09-.392.14-.638.09-.463.112-.65c.023-.25.016-.48-.023-.686s-.04-.356-.005-.45.11-.16.223-.2.287-.007.52.095c.26.133.458.246.6.34s.294.23.462.404.254.31.258.403-.05.22-.158.375c-.102.148-.172.252-.21.31s-.08.132-.118.218l-.597 1.206zm-1.02-20.204c.688-.18 1.238-.322 1.652-.428s.797-.215 1.148-.328.613-.17.785-.17c.21.008.457.068.738.182s.46.213.54.3.116.17.116.257c-.008.126-.072.228-.193.306s-.384.152-.79.223l-2.074.374c-.266.047-.527.084-.785.11s-.476.022-.655-.017l-.55-.094-.06 1.125c-.03.492-.045.912-.04 1.26s.05.627.14.838.195.38.316.504.4.242.833.352 1.018.164 1.752.164c.523.008.986-.027 1.39-.105s.728-.216.978-.415.44-.42.568-.662.23-.516.3-.82l.13-.645.116-.516c.023-.125.086-.2.188-.223s.16.05.176.222l.06.75c.007.148.038.324.093.527s.125.43.21.685.18.457.282.61.16.27.176.35-.026.206-.128.37c-.055.086-.17.22-.346.398s-.61.393-1.3.64-1.647.368-2.866.368c-1.117.01-1.92-.093-2.408-.304s-.83-.414-1.025-.61-.344-.415-.445-.66-.18-.57-.234-.974-.074-.85-.06-1.342l.165-5.708.035-.902c0-.343-.027-.695-.082-1.055-.04-.218-.098-.434-.176-.645s-.102-.363-.07-.457c.016-.062.057-.12.123-.176.066-.054.19-.074.37-.06.17.024.394.09.667.2.273.11.492.223.656.34s.275.21.334.28.09.147.094.23-.037.213-.123.393c-.1.196-.188.416-.263.662s-.127.577-.158.99l-.295 3.306zm1.395-27.2c-.062.173-.11.316-.14.43-.032.113-.075.347-.13.702-.055.356-.082.64-.082.85l-.352 11.438c-.03.883-.06 1.434-.082 1.652l-.152 1.066c-.055.484-.137.834-.246 1.05s-.21.313-.305.298c-.093-.008-.18-.12-.257-.334s-.117-.553-.117-1.014l-.06-1.148c-.007-.07-.003-.383.013-.938l.21-12.176c0-.414-.004-.777-.012-1.09l-.035-.574c-.023-.265-.066-.498-.13-.697s-.08-.334-.052-.404.077-.127.147-.17c.07-.043.215-.038.434.017.267.086.442.15.528.188l.55.293 1.69-.504c.077-.023.298-.09.66-.205.364-.114.644-.224.84-.33s.323-.165.386-.18c.094-.008.213.01.357.052.146.043.37.13.675.264.305.133.512.23.62.287s.214.14.312.246.146.197.146.274c-.008.07-.072.163-.193.275-.12.113-.297.308-.527.585-.23.278-.354.428-.37.45l-1.84 2.685c.235.18.458.35.67.51.21.16.458.385.743.674.285.29.545.615.78.98s.43.784.585 1.265.22 1.03.19 1.645c-.04.58-.16 1.06-.358 1.447s-.38.624-.545.71c-.164.085-.29.13-.375.134-.086.004-.25-.123-.492-.38-.094-.086-.328-.29-.703-.61l-.703-.586-.773-.54-.526-.386c-.125-.085-.176-.154-.152-.205.023-.05.133-.065.328-.042l.703.105.69.13.657.093c.195.032.33.026.404-.018.074-.042.125-.173.152-.393.027-.218.014-.504-.04-.855-.07-.422-.146-.746-.224-.973-.078-.226-.22-.5-.422-.826-.203-.323-.36-.55-.475-.68s-.27-.295-.47-.503c-.198-.207-.302-.34-.31-.404-.008-.062.062-.308.21-.738l.833-2.508c.078-.25.12-.414.123-.492.005-.078-.02-.152-.07-.223s-.138-.12-.263-.152c-.125-.03-.332-.015-.62.047l-2.027.432zM102.733 59.466c.09.108.144.198.144.27 0 .127-.126.217-.27.27-.235.11-.235.145-.973.865-.306.307-.54.523-.99.775.054.054.072.108.072.18 0 .054-.018.144-.036.27-.036.324-.054.702-.054 1.08 0 .38.018.757.054 1.1.054.43-.126.683-.306.773-.054.036-.108.036-.18.036-.162 0-.342-.126-.324-.468.018-.774.036-1.35.036-1.8 0-.307-.018-.54-.036-.775-.018-.107-.018-.18-.036-.25-.036-.02-.09-.055-.126-.09-.288-.2-.72-.667-1.008-.955-.45-.45-.738-.756-.937-.937-.108-.09-.144-.162-.144-.234 0-.09.07-.144.25-.18.09-.018.163-.018.235-.018.342 0 .504.18.792.504l1.134 1.332c.09.108.18.144.235.09.288-.27.54-.486.792-.792.306-.342.72-.9.864-1.152.18-.306.27-.414.415-.27l.398.378zm-1.098-6.374c.09.09.126.162.126.234 0 .108-.09.216-.197.306-.18.162-1.134 1.134-1.278 1.224-.018.018-.036.054-.036.072 0 .054.053.108.215.09.504-.054 1.08-.108 1.405-.216.144-.054.288-.108.414-.108.108 0 .216.054.288.162.144.234.378.415.378.594 0 .072-.036.126-.108.18-.45.36-1.044 2.323-1.854 2.88-.234.163-.432.325-.63.325-.126 0-.234-.054-.36-.234-.342-.485-.594-.773-.685-.863-.108-.126-.144-.198-.144-.234 0-.054.053-.072.16-.054.055.017.11.035.18.07.29.11.685.29.9.29.235 0 .505-.27.883-.883.342-.486.486-1.044.432-1.242-.018-.108-.162-.162-.36-.162-.324 0-.792.108-1.278.18-.162.018-.324.126-.504.126-.09 0-.198-.037-.306-.11-.18-.143-.486-.557-.486-.665 0-.144.27-.144.505-.288.396-.198.99-.918 1.1-1.08.053-.054.07-.108.07-.144 0-.054-.07-.054-.18-.036-.09 0-.18.018-.287.036-.504.108-.973.27-1.296.27-.126 0-.234-.036-.306-.09-.252-.198-.558-.468-.558-.612 0-.053.036-.09.162-.09.234 0 .738.037.955.037.612-.036 1.747-.18 2.106-.342.143-.073.377.143.575.377zm5.147 7.994c.702.667.522 1.152-.09.667-.468-.378-1.116-.918-2-1.603-.413-.324-.935-.685-1.367-.973-.45-.324-.144-1.638.612-.9.81.81 2.43 2.43 2.845 2.81zM103.273 75.44c0 .107-.126.197-.486.197-.252 0-1.224.09-1.89.144.017.037.017.073.017.11 0 .053-.018.107-.036.16-.054.145-.126.883-.126 1.1-.018.36-.018.9-.018 1.403 0 .415.036 1.188.054 1.405 0 .215-.288.882-.504.882-.198 0-.396-.63-.36-1.278.036-.342.126-1.53.126-2.52 0-.47-.018-.883-.072-1.153-.45.07-1.17.197-1.675.323-.306.09-.738-.288-.864-.432-.073-.07-.127-.16-.127-.215 0-.09.108-.162.378-.162.47 0 .973-.036 1.333-.072 1.152-.107 2.18-.25 2.737-.36.324-.07.54-.107.702-.107.126 0 .234.018.324.072.2.108.487.342.487.504zm.02 7.507c0 .126-.145.198-.56.162-.107-.02-.215-.02-.34-.02-.577 0-1.405.09-2.09.18-.324.036-1.314.18-1.98.36-.306.072-.738-.287-.864-.432-.073-.072-.127-.18-.127-.252 0-.107.09-.198.36-.198.468 0 .972-.036 1.332-.07 1.152-.128 2.107-.253 2.683-.38.198-.035.378-.072.576-.072.18 0 .36.037.504.127.197.144.504.415.504.594zm-.038 4.916c0 .107-.09.197-.432.197-.288 0-.666.018-1.098.055-.072.287-.126.54-.162.648-.144.396-.162.594-.432 1.043-.125.2-.233.343-.323.396-.036.018-.072.018-.09.018-.072 0-.108-.07-.108-.233 0-.108.017-.27.07-.486.127-.484.217-.917.307-1.312-.486.053-1.008.107-1.458.18.053.648.125 1.296.16 1.53.11.54.343.792.667.847.144.018.288.035.432.035.43 0 .827-.09 1.313-.252.108-.035.198-.054.27-.054.18 0 .324.09.414.306.126.29-.144.433-.522.54-.234.072-.774.145-1.35.145-.36 0-.757-.036-1.063-.126-.522-.163-.774-.577-.864-1.01-.09-.522-.144-1.1-.198-1.8-.162.035-.306.072-.432.107-.072.018-.126.036-.18.036-.324 0-.54-.27-.684-.433-.09-.107-.144-.215-.144-.287 0-.09.072-.145.216-.145l.576.036c.09 0 .324-.02.612-.036-.018-.378-.036-.864-.09-1.008-.054-.145-.162-.324-.162-.45s.072-.163.162-.163c.162 0 .378.11.396.11.126.07.36.18.486.34.036.036.054.09.054.145 0 .144-.126.324-.126.468l.018.486c.522-.072 1.116-.144 1.64-.234l.053-.233c.09-.397.144-.667.144-.9 0-.127-.02-.234-.055-.343-.036-.108-.072-.198-.072-.27 0-.146.072-.217.216-.18.07.017.16.07.27.144l.503.36c.108.09.144.162.144.234 0 .162-.216.288-.27.486l-.162.576c.162-.02.288-.055.396-.072.073-.018.127-.018.18-.018.27 0 .45.162.613.287.073.056.162.182.162.29zM102.265 109.327c-.162.036-.396-.09-.504-.27-.18-.253-.25-.378-.647-.793-.144-.16-.288-.288-.414-.414l-.18.162c-.973.738-2.018 1.243-2.486 1.404-.306.108-.468.072-.504.072-.054 0-.072-.054-.018-.108.18-.162.63-.486.954-.7.378-.254 1.026-.74 1.603-1.263-.163-.107-.415-.306-.775-.594-.306-.234-.774-.61-1.134-.81-.18-.108-.25-.216-.25-.288s.053-.108.143-.108c.306 0 .558.09.864.216.486.217 1.188.666 1.73 1.045.16-.18.287-.343.395-.504.342-.523.288-.738.288-1.045 0-.146.054-.2.144-.2.072 0 .18.055.288.145.18.108.324.217.504.45.09.108.162.234.162.343 0 .107-.108.27-.288.396-.252.18-.594.54-.918.863l.072.055c.612.54.972.81 1.242 1.278.233.397-.11.63-.27.667zm1.045-9.633c0 .126-.108.233-.468.27-.27.02-1.836.108-3.17.307h-.035c.162.163.252.253.216.344-.126.287-.198.773-.234 1.098-.127.846-.433 1.62-.577 1.944-.18.415-.666 1.01-1.08 1.297-.072.054-.126.07-.162.07-.053 0-.053-.07-.035-.16.054-.198.234-.54.378-.83.432-.862.522-1.673.612-2.087.036-.18.09-.63.09-1.045 0-.16-.018-.305-.036-.43h-.127c-.18 0-.342-.037-.504-.146-.343-.216-.595-.468-.595-.594 0-.072.072-.126.252-.108.576.036 1.404-.036 1.53-.036.09-.018.828-.09 1.026-.107.594-.073 1.242-.2 1.836-.29.125-.018.233-.035.323-.035.18 0 .306.054.45.145.144.09.307.25.307.394zm-.577 10.534c.09.108.144.198.144.27 0 .126-.126.217-.27.27-.235.108-.235.146-.973.865-.306.306-.54.522-.99.774.054.054.072.107.072.18 0 .055-.018.145-.036.27-.036.343-.054.703-.054 1.08s.018.758.054 1.1c.054.432-.126.684-.306.773-.054.037-.108.037-.18.037-.162 0-.342-.127-.324-.47.018-.773.036-1.35.036-1.8 0-.306-.018-.54-.036-.773-.018-.108-.018-.18-.036-.252-.036-.02-.09-.055-.126-.09-.288-.2-.72-.667-1.008-.955-.45-.45-.738-.756-.937-.937-.108-.09-.144-.16-.144-.233 0-.09.07-.145.25-.18.09-.02.163-.02.235-.02.342 0 .504.18.792.505l1.134 1.333c.09.107.18.144.235.09.288-.27.54-.486.792-.793.306-.342.72-.9.864-1.152.18-.306.27-.414.415-.27l.398.378z"/><g><path d="M99.236 130.948c.234.108.396.252.288.396-.108.144-.18.522-.162.774.036.324-.072 1.008-.198 1.477-.18.684-.414 1.224-1.026 1.926-.288.308-.63.542-.774.542-.072 0-.09-.072 0-.234.036-.072.09-.145.144-.234.846-1.188.936-1.836 1.008-2.503.054-.413.072-.79.072-1.097 0-.307-.018-.56-.072-.72-.054-.163-.09-.27-.09-.36 0-.127.072-.18.252-.145.27.073.378.11.558.18zm1.728-.378c.198.162.324.27.288.396-.072.252-.162.468-.216 1.026-.018.233-.09 1.17-.09 1.944 0 .522.036.954.144 1.08.126.145.252.198.396.198.126 0 .252-.054.414-.09s.27-.055.378-.055c.145 0 .234.035.342.09.18.09.342.252.342.396 0 .09-.054.162-.198.216-.252.09-.738.162-1.206.162-.234 0-.45-.018-.63-.07-.18-.056-.54-.235-.648-.632-.036-.126-.054-.342-.054-.63v-.234c0-.81.054-1.962.054-2.683 0-.324 0-.558-.036-.666-.054-.163-.108-.36-.108-.523 0-.144.036-.233.18-.233.18 0 .522.216.648.306z"/></g><path d="M257.667 100.86c-.128.065-.288.257-.48.577 2.032 2.048 3.6 3.536 4.704 4.464s2.08 1.605 2.93 2.03c.847.423 2.015.866 3.503 1.33.528.16.792.305.792.433 0 .048-.072.096-.216.145-.145.047-.682.1-1.61.155s-1.62.084-2.075.084-.824-.052-1.104-.155c-.28-.104-.583-.31-.91-.613-.33-.304-1.26-1.353-2.797-3.145-1.536-1.792-2.688-3.2-3.456-4.224-1.088 1.97-2.38 3.75-3.876 5.34-1.496 1.593-2.852 2.733-4.067 3.42s-1.976 1.033-2.28 1.033c-.128 0-.192-.048-.192-.144 0-.098.105-.202.313-.313 1.728-1.057 3.38-2.496 4.956-4.32 1.575-1.824 2.67-3.363 3.287-4.62.616-1.256.892-2.1.828-2.532-.016-.11-.024-.207-.024-.287 0-.29.117-.433.35-.433.23 0 .607.144 1.127.433.52.287.78.552.78.79 0 .24-.16.425-.48.553zm-5.832-36.863c.416 1.088.584 2.016.504 2.784.542.097 1.135.265 1.775.505 2.288.832 3.976 1.368 5.064 1.608 1.087.24 2.23.36 3.43.36 1.2 0 2.21-.008 3.025-.024l2.184-.073c.463 0 .695.063.695.192 0 .223-.836.63-2.508 1.223-1.672.592-2.772.888-3.3.888-.256 0-.516-.035-.78-.107s-1.353-.476-3.264-1.212c-1.912-.735-3.416-1.343-4.512-1.823-1.095-.48-1.99-.72-2.687-.72-.696 0-1.548.256-2.556.768-.144.064-.288.096-.432.096-.32 0-.616-.146-.888-.443-.272-.296-.408-.512-.408-.648 0-.137.175-.205.527-.205s.888-.092 1.608-.276c.72-.185 1.204-.277 1.452-.277s.508.008.78.024c-.08-.8-.296-1.52-.648-2.16-.273-.543-.41-1.052-.41-1.524s.077-.92.23-1.344c.15-.425.227-.673.227-.745 0-.072-.032-.108-.096-.108-.127 0-.455.136-.983.408-.128.064-.32.096-.576.096s-.567-.055-.935-.167-.552-.228-.552-.348.112-.212.336-.276c.975-.24 1.75-.57 2.327-.985.288-.208.528-.308.72-.3.192.008.536.16 1.032.456.495.297.743.565.743.805 0 .096-.048.2-.144.312-.77.848-1.153 1.632-1.153 2.352 0 .287.056.583.168.887zm12.552 20.017c.752 0 1.432.18 2.04.54.608.36.912.684.912.972 0 .352-.44.527-1.32.527-.24 0-.577-.023-1.01-.072-.43-.046-1.063-.07-1.895-.07-1.856 0-3.957.128-6.3.384s-4.42.592-6.228 1.008c-.336.08-.664.12-.984.12-.32 0-.76-.17-1.32-.516-.56-.344-.84-.636-.84-.876 0-.27.284-.38.852-.324.568.057 1.172.084 1.812.084 1.312 0 3.516-.2 6.612-.6 3.095-.4 5.023-.696 5.783-.89.76-.19 1.388-.286 1.884-.286zm-9.264 44.687c0 .13-.032.31-.096.54-.064.232-.144 1.057-.24 2.473s-.276 2.828-.54 4.236c-.264 1.407-.78 2.583-1.548 3.527s-1.64 1.68-2.617 2.208c-.976.527-1.584.792-1.824.792-.13 0-.193-.045-.193-.133s.104-.212.312-.37c2.03-1.426 3.378-2.885 4.043-4.382.664-1.495.996-3.747.996-6.755 0-1.488-.193-2.433-.577-2.832-.144-.16-.216-.312-.216-.457 0-.144.116-.216.348-.216s.564.112.996.336c.433.225.733.404.9.54.17.138.253.302.253.493zm-.144-15.766c0-.08-.01-.152-.025-.217-1.088.145-1.836.256-2.244.336-.407.08-.78.12-1.115.12s-.716-.087-1.14-.264c-.424-.177-.636-.325-.636-.445s.235-.18.707-.18 1.836-.156 4.092-.468 3.85-.584 4.787-.816c.936-.23 1.588-.347 1.956-.347.368 0 .792.093 1.272.276s.72.37.72.562c0 .304-.624.48-1.872.528-1.248.048-3.264.256-6.048.623.944.4 1.416.76 1.416 1.08 0 .16-.155.31-.467.444s-1.516 1.14-3.612 3.013c1.553-.225 3.817-.48 6.793-.77-.48-.8-.796-1.31-.948-1.535-.152-.224-.228-.38-.228-.468s.04-.132.12-.132c.224 0 .77.292 1.644.876.873.585 1.504 1.137 1.897 1.656.392.52.588 1.117.588 1.79s-.184 1.007-.552 1.007c-.176 0-.344-.093-.504-.276-.16-.185-.72-.996-1.68-2.437-1.89.29-3.505.616-4.85.984-1.343.368-2.255.704-2.735 1.008-.48.305-.812.457-.996.457-.185 0-.35-.233-.493-.698-.144-.463-.216-.775-.216-.936s.073-.292.217-.396c.144-.104.512-.243 1.104-.42.29-.096.87-.647 1.74-1.655.873-1.006 1.31-1.774 1.31-2.3zm-1.777-57.24c0 .287-.06.55-.18.79s-.308.36-.564.36-.7-.463-1.333-1.39c-.632-.93-.948-1.477-.948-1.645s.103-.253.31-.253c.513 0 1.093.192 1.74.576.65.384.973.904.973 1.56zm6.768 52.27c0 .13-.103.257-.31.386-.21.128-.865.312-1.97.552-1.103.24-2.043.36-2.82.36-.775 0-1.287-.068-1.535-.205-.248-.135-.372-.243-.372-.323 0-.128.144-.192.432-.192s.748-.068 1.38-.203c.632-.138 1.164-.278 1.596-.422 1.01-.336 1.737-.504 2.185-.504.448 0 .796.06 1.044.18.247.12.37.244.37.37zm2.377-54.527c-.272.833-.408 2.008-.408 3.528.287-.032.79-.14 1.51-.324.72-.183 1.253-.275 1.597-.275.344 0 .672.116.984.348s.47.444.47.636-.133.335-.397.43c-.264.097-.592.125-.984.085s-.82-.06-1.285-.06-1.096.04-1.896.12c.063 2.16.123 3.792.18 4.896.055 1.105.083 1.817.083 2.137 0 .85-.16 1.568-.48 2.16-.32.592-.584.888-.792.888-.207 0-.407-.12-.6-.36-.51-.624-1.087-1.248-1.727-1.872-.176-.176-.264-.304-.264-.384s.07-.12.215-.12.375.03.696.095.597.096.83.096.4-.066.503-.203c.104-.136.18-1.036.228-2.7.05-1.664.065-3.152.05-4.464-1.025.192-2.266.44-3.72.744-.32.08-.645.12-.973.12s-.676-.108-1.044-.324c-.368-.216-.552-.384-.552-.504s.265-.197.793-.23c1.904-.16 3.736-.4 5.496-.72-.097-2.575-.377-4.2-.84-4.87-.16-.225-.24-.413-.24-.565 0-.152.123-.228.37-.228.25 0 .697.128 1.345.384s.972.577.972.96c0 .145-.04.337-.12.577zm-6.216 6.552c.305 0 .77.195 1.393.587.624.392.936.86.936 1.404 0 .29-.077.53-.23.72s-.3.29-.443.29-.264-.04-.36-.12c-.096-.08-.268-.313-.516-.697-.247-.384-.47-.796-.67-1.236-.2-.44-.3-.708-.3-.804 0-.096.063-.144.19-.144zm10.537 76.367c.048-.24.112-.36.192-.36s.14.196.18.588c.04.393.12.916.24 1.572s.235 1.145.347 1.464c.112.32.168.562.168.72 0 .48-.468.894-1.404 1.237s-2.05.516-3.347.516c-1.296 0-2.264-.19-2.904-.575-.64-.385-1.125-.933-1.453-1.645s-.492-1.668-.492-2.868.036-2.9.108-5.1c.072-2.2.108-3.38.108-3.54 0-1.136-.11-1.844-.335-2.124-.224-.28-.336-.507-.336-.684 0-.176.13-.264.395-.264s.724.176 1.38.528c.656.353.984.688.984 1.008 0 .128-.045.26-.133.396-.088.137-.228.537-.42 1.2s-.364 1.908-.516 3.732c-.15 1.824-.227 3.225-.227 4.2 0 1.52.244 2.576.732 3.168.488.592 1.428.888 2.82.888.912 0 1.624-.11 2.136-.336.513-.224.88-.588 1.105-1.092s.448-1.38.672-2.627zM273.246 57.493c0-.27.063-.55.126-.666-.17-.198-.324-.243-.504-.243-.387 0-.423.27-.423.522 0 .045.01.135.018.26.027.208.045.568.045.72 0 .316-.01.937-.297 1.27-.215.253-.494.38-.89.38-.847 0-1.432-.838-1.432-2.243 0-.954.306-1.73 1.017-1.73.17 0 .423.1.594.208.18.235.35.514.458.766.08-.486.405-.702.774-.702.306 0 .567.315.747.576.143-.252.45-.64 1.124-.64.89 0 1.37.82 1.37 1.53 0 .2-.028.388-.082.55.036.675.135.99.17 1.422l-.026.027c-.08-.02-.153-.028-.234-.028s-.153.01-.234.027l-.027-.028c.037-.37.073-.666.09-.936-.134.207-.422.45-1.043.45-.71.002-1.34-.556-1.34-1.493zm-2.97.072c0 .774.287 1.512.836 1.512.234 0 .495-.09.648-.35.144-.244.153-.523.153-.955 0-.126-.027-.53-.027-.8-.17-.316-.504-.586-.8-.586-.613 0-.81.594-.81 1.18zm2.574 5.572c-.46-.297-.918-.8-.918-1.36 0-.89.63-1.18 1.25-1.18h1.08c.686 0 1.108-.008 1.622-.08l.027.018c-.017.108-.026.315-.026.423 0 .108.01.315.027.423l-.026.02c-.477-.073-.945-.082-1.62-.082h-.892c-.837 0-.936.297-.936.603 0 .442.486.964.945 1.234h.883c.685 0 1.107-.01 1.62-.08l.028.017c-.017.11-.026.316-.026.424s.01.315.027.423l-.026.018c-.477-.072-.945-.08-1.62-.08h-.514c-.675 0-1.342.08-1.73.152l-.026-.018c.018-.118.027-.29.027-.397 0-.135-.008-.243-.026-.36 0-.027.01-.036.027-.036l.802-.045.028-.035zm3.124 3.808c0 1.215-.8 1.873-2.026 1.873-1.18 0-2.017-.72-2.017-1.908 0-1.197.856-1.91 1.937-1.91 1.278 0 2.107.766 2.107 1.945zm-1.954-1.153c-.693 0-1.73.243-1.73 1.198 0 .603.64 1.035 1.495 1.035 1.09 0 1.828-.19 1.828-1.144 0-.844-.81-1.088-1.593-1.088zm1.61-8.326c0-.522-.386-.792-.98-.792-.62 0-1.044.198-1.044.846 0 .54.423.766.972.766.64 0 1.053-.235 1.053-.82zm1.298 10.825c-.09.046-.153.055-.216.055-.045 0-.1-.063-.1-.135 0-.054.046-.117.18-.26l.982-1.027.1.018c.053.073.206.28.206.586 0 .045-.01.1-.018.135l-1.134.63zM275.883 102.65c0 .125 0 .323.027.44-1.026.333-2.026.765-3.097 1.206v.018c.927.433 2.08.855 3.097 1.18-.027.09-.027.262-.027.352s0 .297.027.387c-.604-.297-4.897-2.27-6.023-2.61.027-.09.045-.352.045-.44 0-.092-.018-.227-.045-.316.675.405 1.368.774 2.043 1.062.855-.315 3.178-1.388 3.98-1.747-.027.124-.027.35-.027.466zm-3.033 15.516c-.46-.297-.918-.8-.918-1.36 0-.89.63-1.18 1.25-1.18h1.08c.686 0 1.108-.007 1.622-.08l.027.02c-.017.106-.026.313-.026.422s.01.315.027.423l-.026.02c-.477-.072-.945-.08-1.62-.08h-.892c-.837 0-.936.296-.936.603 0 .44.486.963.945 1.232h.883c.685 0 1.107-.008 1.62-.08l.028.018c-.017.107-.026.315-.026.424 0 .107.01.314.027.422l-.026.018c-.477-.07-.945-.08-1.62-.08h-.514c-.675 0-1.342.08-1.73.152l-.026-.02c.018-.116.027-.286.027-.395 0-.136-.008-.243-.026-.36 0-.027.01-.036.027-.036l.802-.046.028-.038zm1.287-10.87c.675 0 1.36-.028 1.747-.082l.027.02c-.017.187-.008.575.01.782 0 .07-.01.08-.09.08-.55-.054-.874-.08-1.55-.08h-.638c-.684 0-1.107.018-1.62.08l-.027-.018c.018-.107.027-.315.027-.424 0-.107-.01-.314-.027-.422l.027-.02c.486.064.945.082 1.62.082h.495zm1.026 4.296c.675.576.81 1.215.81 1.557 0 .81-.485 1.116-1.422 1.116-.287 0-.62-.02-.908-.02-.684 0-1.107.01-1.62.082l-.027-.018c.018-.108.027-.315.027-.424 0-.107-.01-.314-.027-.423l.027-.02c.486.073.945.083 1.62.083h.882c.73 0 .91-.19.91-.648 0-.315-.2-.847-.74-1.306h-1.053c-.683 0-1.106.02-1.62.08l-.026-.017c.018-.108.027-.315.027-.424 0-.106-.008-.313-.026-.422l.027-.02c.505.073.955.083 1.62.083h2.71c.685 0 1.36-.01 1.748-.08l.027.018c.027.37.09.558.18.783 0 .055-.027.082-.09.082-.55-.045-1.018-.08-1.684-.08h-1.34l-.027.02zm-1.026 8.885c.675 0 1.36-.027 1.747-.08l.027.018c-.017.188-.008.576.01.783 0 .072-.01.08-.09.08-.55-.053-.874-.08-1.55-.08h-.638c-.684 0-1.107.018-1.62.08l-.027-.018c.018-.107.027-.314.027-.423s-.01-.315-.027-.423l.027-.02c.486.064.945.082 1.62.082h.495zm.873 3.537c.684.396.963.656.963 1.143 0 .162-.018.17-.063.324l-.036.037-.667-.18-.018-.073c.107-.116.125-.287.125-.467 0-.172-.117-.37-.315-.505-.297-.188-.513-.306-.89-.306h-.47c-.683 0-1.106.018-1.62.08l-.026-.018c.018-.107.027-.314.027-.423s-.008-.315-.026-.423l.027-.02c.487.073.946.082 1.62.082h.496c.675 0 1.36-.018 1.747-.08l.027.018c-.018.207-.01.53.027.73 0 .044-.018.054-.09.054h-.82l-.017.028zm1.54-2.612c.423-.262.828-.594 1.17-.91l.117.18c-.26.352-.486.65-.81.955.342.334.567.64.81.973l-.117.17c-.35-.314-.756-.656-1.17-.918v-.45zm.315-13.63c0-.072.072-.1.135-.1.108 0 .26.08.26.17v1.99c0 .082-.07.118-.125.118-.108 0-.27-.09-.27-.198v-1.98z"/></svg>