<?xml version="1.0" encoding="utf-8"?>
<!-- Generator: Adobe Illustrator 18.1.0, SVG Export Plug-In . SVG Version: 6.00 Build 0)  -->
<svg version="1.1" xmlns="http://www.w3.org/2000/svg" xmlns:xlink="http://www.w3.org/1999/xlink" x="0px" y="0px"
	 viewBox="0 0 880 640" enable-background="new 0 0 880 640" xml:space="preserve">
<g id="ruler_under">
	<g id="h_45">
		<g>
			<g>
				<line fill="none" stroke="#999999" stroke-width="2" stroke-miterlimit="10" x1="21" y1="601" x2="361" y2="601"/>
				<line fill="none" stroke="#999999" stroke-width="2" stroke-miterlimit="10" x1="401" y1="601" x2="741" y2="601"/>
				<g>
					<rect x="20" y="593" fill="#999999" width="2" height="16"/>
				</g>
				<g>
					<rect x="740" y="593" fill="#999999" width="2" height="16"/>
				</g>
			</g>
		</g>
		<g>
			<path d="M375.7,610v-4.2h-7.2v-1.4l7-10h2.3v9.7h2.2v1.7h-2.2v4.2H375.7z M375.7,604.1v-5.2c0-0.8,0-1.6,0.1-2.4h-0.1
				c-0.5,0.9-0.9,1.6-1.3,2.3l-3.8,5.3v0H375.7z"/>
			<path d="M390.7,596.2h-6l-0.6,4c0.4,0,0.7-0.1,1.3-0.1c1.2,0,2.4,0.3,3.4,0.8c1.2,0.7,2.2,2,2.2,4c0,3-2.4,5.3-5.8,5.3
				c-1.7,0-3.1-0.5-3.9-1l0.5-1.6c0.6,0.4,1.9,0.9,3.3,0.9c2,0,3.7-1.3,3.7-3.4c0-2-1.4-3.5-4.5-3.5c-0.9,0-1.6,0.1-2.2,0.2l1-7.5
				h7.5V596.2z"/>
		</g>
	</g>
	<g id="h_30_1_">
		<g>
			<g>
				<line fill="none" stroke="#999999" stroke-width="2" stroke-miterlimit="10" x1="21" y1="578" x2="241" y2="578"/>
				<line fill="none" stroke="#999999" stroke-width="2" stroke-miterlimit="10" x1="281" y1="578" x2="501" y2="578"/>
				<g>
					<rect x="20" y="570" fill="#999999" width="2" height="16"/>
				</g>
				<g>
					<rect x="500" y="570" fill="#999999" width="2" height="16"/>
				</g>
			</g>
		</g>
		<g>
			<path d="M249.6,584.6c0.6,0.4,2,1,3.5,1c2.7,0,3.6-1.7,3.5-3c0-2.2-2-3.1-4-3.1h-1.2v-1.6h1.2c1.5,0,3.5-0.8,3.5-2.6
				c0-1.2-0.8-2.4-2.7-2.4c-1.2,0-2.4,0.6-3.1,1l-0.6-1.5c0.8-0.6,2.4-1.2,4.1-1.2c3.1,0,4.5,1.8,4.5,3.7c0,1.6-1,3-2.9,3.7v0
				c1.9,0.4,3.5,1.8,3.5,4c0,2.5-1.9,4.7-5.7,4.7c-1.8,0-3.3-0.6-4.1-1.1L249.6,584.6z"/>
			<path d="M271.8,579c0,5.3-2,8.2-5.4,8.2c-3,0-5.1-2.9-5.2-8c0-5.2,2.3-8.1,5.4-8.1C269.9,571.1,271.8,574.1,271.8,579z
				 M263.3,579.3c0,4.1,1.2,6.4,3.2,6.4c2.2,0,3.2-2.5,3.2-6.5c0-3.8-1-6.4-3.2-6.4C264.7,572.8,263.3,575,263.3,579.3z"/>
		</g>
	</g>
	<g id="h_15">
		<g>
			<g>
				<line fill="none" stroke="#999999" stroke-width="2" stroke-miterlimit="10" x1="501" y1="578" x2="601" y2="578"/>
				<line fill="none" stroke="#999999" stroke-width="2" stroke-miterlimit="10" x1="641" y1="578" x2="741" y2="578"/>
				<g>
					<rect x="500" y="570" fill="#999999" width="2" height="16"/>
				</g>
				<g>
					<rect x="740" y="570" fill="#999999" width="2" height="16"/>
				</g>
			</g>
		</g>
		<g>
			<path d="M613.7,573.4L613.7,573.4l-2.8,1.5l-0.4-1.6l3.4-1.8h1.8V587h-2V573.4z"/>
			<path d="M630.7,573.2h-6l-0.6,4c0.4,0,0.7-0.1,1.3-0.1c1.2,0,2.4,0.3,3.4,0.8c1.2,0.7,2.2,2,2.2,4c0,3-2.4,5.3-5.8,5.3
				c-1.7,0-3.1-0.5-3.9-1l0.5-1.6c0.6,0.4,1.9,0.9,3.3,0.9c2,0,3.7-1.3,3.7-3.4c0-2-1.4-3.5-4.5-3.5c-0.9,0-1.6,0.1-2.2,0.2l1-7.5
				h7.5V573.2z"/>
		</g>
	</g>
</g>
<g id="ruler_above">
	<g id="h5">
		<g>
			<g>
				<line fill="none" stroke="#999999" stroke-width="2" stroke-miterlimit="10" x1="661" y1="58" x2="691" y2="58"/>
				<line fill="none" stroke="#999999" stroke-width="2" stroke-miterlimit="10" x1="711" y1="58" x2="741" y2="58"/>
				<g>
					<rect x="660" y="50" fill="#999999" width="2" height="16"/>
				</g>
				<g>
					<rect x="740" y="50" fill="#999999" width="2" height="16"/>
				</g>
			</g>
		</g>
		<g>
			<rect x="695" y="46.5" fill="none" width="13.9" height="30.4"/>
			<path d="M705.4,52.8h-6l-0.6,4c0.4,0,0.7-0.1,1.3-0.1c1.2,0,2.4,0.3,3.4,0.8c1.2,0.7,2.2,2,2.2,4c0,3-2.4,5.3-5.8,5.3
				c-1.7,0-3.1-0.5-3.9-1l0.5-1.6c0.6,0.4,1.9,0.9,3.3,0.9c2,0,3.7-1.3,3.7-3.4c0-2-1.4-3.5-4.5-3.5c-0.9,0-1.6,0.1-2.2,0.2l1-7.5
				h7.5V52.8z"/>
		</g>
		<g>
		</g>
	</g>
	<g id="h9">
		<g>
			<g>
				<line fill="none" stroke="#999999" stroke-width="2" stroke-miterlimit="10" x1="517" y1="58" x2="579" y2="58"/>
				<line fill="none" stroke="#999999" stroke-width="2" stroke-miterlimit="10" x1="599" y1="58" x2="661" y2="58"/>
				<g>
					<rect x="516" y="50" fill="#999999" width="2" height="16"/>
				</g>
				<g>
					<rect x="660" y="50" fill="#999999" width="2" height="16"/>
				</g>
			</g>
		</g>
		<g>
			<path d="M584.3,65.5c0.5,0,1,0,1.7-0.1c1.2-0.2,2.4-0.7,3.3-1.5c1-0.9,1.8-2.3,2.1-4.2h-0.1c-0.9,1.1-2.1,1.7-3.7,1.7
				c-2.8,0-4.6-2.1-4.6-4.8c0-3,2.1-5.5,5.3-5.5s5.2,2.6,5.2,6.6c0,3.4-1.2,5.8-2.7,7.3c-1.2,1.2-2.9,1.9-4.5,2.1
				c-0.8,0.1-1.4,0.1-1.9,0.1V65.5z M585.1,56.5c0,1.9,1.2,3.3,3,3.3c1.4,0,2.5-0.7,3.1-1.6c0.1-0.2,0.2-0.4,0.2-0.8
				c0-2.7-1-4.7-3.2-4.7C586.4,52.7,585.1,54.3,585.1,56.5z"/>
		</g>
	</g>
</g>
<g id="ruler_4-tone">
	<g>
		<path fill="#1197CC" d="M840.3,319.3c-0.7,0.6-1.5,1.2-2.3,1.7c-0.2,0.1-0.3,0.2-0.4,0.2c-0.1,0-0.2-0.2-0.4-0.5
			c-0.2-0.4-0.4-0.7-0.7-1c-0.2,0.5-0.4,0.9-0.6,1.4c1.3,1.7,1.5,2.7,1.5,4.1c0,1.6-0.7,2.4-2.5,2.7c-0.6,0.1-0.6,0.1-0.7-0.6
			c-0.1-0.6-0.2-0.9-0.4-1.2c1.2,0.1,1.7-0.2,1.7-1.4c0-0.9-0.5-2-1.6-3.5c0.8-1.6,1.1-2.8,1.6-4.3h-1.9v11.4c0,2.8,0,4.2,0,4.3
			c0,0.2,0,0.2-0.2,0.2h-1.6c-0.2,0-0.2,0-0.2-0.2c0-0.1,0-1.5,0-4.3v-8.7c0-2.8,0-4.2,0-4.4c0-0.2,0-0.2,0.2-0.2c0.1,0,0.6,0,1.6,0
			h2.6c0.2,0,0.3,0,0.4-0.1c0.1,0,0.2-0.1,0.3-0.1c0.2,0,0.3,0.1,0.8,0.7c0.4,0.5,0.5,0.6,0.5,0.8c0,0.2-0.1,0.2-0.2,0.3
			c-0.2,0.2-0.3,0.4-0.4,0.6c-0.3,0.8-0.6,1.5-0.8,2.2c2-1.1,3.4-2.3,4.9-4.2c0.2-0.3,0.4-0.6,0.5-1c0.6,0.1,1.3,0.2,1.9,0.4
			c0.2,0.1,0.2,0.1,0.2,0.2c0,0.1,0,0.2-0.2,0.3l-0.2,0.1c1.6,1.8,3.4,3,5.8,3.9c-0.2,0.3-0.5,0.7-0.7,1.2c-0.1,0.4-0.2,0.5-0.4,0.5
			c-0.1,0-0.2-0.1-0.5-0.2c-0.9-0.5-1.8-1-2.6-1.6v0.9c0,0.2,0,0.2-0.2,0.2c-0.1,0-0.4,0-1.6,0h-1.5c-1.1,0-1.5,0-1.6,0
			c-0.2,0-0.2,0-0.2-0.2V319.3z M839.9,328.5c-1.7,0-2.4,0-2.5,0c-0.2,0-0.2,0-0.2-0.2v-1.2c0-0.2,0-0.2,0.2-0.2c0.1,0,0.8,0,2.5,0
			h6.2c1.9,0,2.6,0,2.7,0c0.2,0,0.2,0,0.2,0.2v1.2c0,0.2,0,0.2-0.2,0.2c-0.1,0-0.8,0-2.7,0h-0.3c1.1,1,1.8,1.9,2.6,3.1
			c0.1,0.2,0.1,0.3-0.1,0.4l-1.2,0.7c-0.1,0.1-0.2,0.1-0.2,0.1c-0.1,0-0.1,0-0.1-0.1c-0.2-0.4-0.4-0.7-0.7-1.1
			c-2.4,0.3-5,0.5-7.5,0.7c-0.5,0-0.7,0.1-0.9,0.2c-0.1,0-0.2,0.1-0.3,0.1s-0.2-0.1-0.3-0.3c-0.2-0.5-0.3-1.1-0.4-1.7
			c0.9,0,1.6,0,2.3,0c0.5-0.8,0.8-1.4,1.1-2H839.9z M841,325.9c-1.8,0-2.4,0-2.5,0c-0.2,0-0.2,0-0.2-0.2v-1.2c0-0.2,0-0.2,0.2-0.2
			c0.1,0,0.7,0,2.5,0h2.1c0.4-0.5,0.7-0.9,1.1-1.5h-3c-1.6,0-2.2,0-2.3,0c-0.2,0-0.2,0-0.2-0.2v-1.2c0-0.2,0-0.2,0.2-0.2
			c0.1,0,0.7,0,2.3,0h4c0.2,0,0.3,0,0.3-0.1s0.1-0.1,0.2-0.1c0.2,0,0.3,0.1,0.8,0.5c0.5,0.4,0.5,0.6,0.5,0.7s-0.1,0.2-0.2,0.3
			c-0.2,0.1-0.3,0.2-0.6,0.6c-0.3,0.4-0.6,0.8-0.8,1.1c1.7,0,2.3,0,2.4,0c0.2,0,0.2,0,0.2,0.2v1.2c0,0.2,0,0.2-0.2,0.2
			c-0.1,0-0.7,0-2.5,0H841z M843.6,318.8c0.7,0,1.1,0,1.3,0c-0.8-0.6-1.5-1.3-2.2-2.1c-0.6,0.8-1.2,1.5-1.9,2.1c0.2,0,0.6,0,1.3,0
			H843.6z M842.1,328.5c-0.3,0.7-0.6,1.3-1,1.9c1.3-0.1,2.6-0.1,3.8-0.3l-0.7-0.8c-0.1-0.2-0.1-0.2,0.1-0.4l1-0.5H842.1z"/>
		<path fill="#1197CC" d="M836,335.1c0.2,0,0.3,0,0.4-0.1c0.1,0,0.2-0.1,0.3-0.1c0.2,0,0.3,0,0.8,0.6c0.4,0.5,0.5,0.6,0.5,0.8
			c0,0.2-0.1,0.2-0.2,0.4c-0.2,0.2-0.3,0.4-0.4,0.6c-0.5,1.4-0.8,2.1-1.5,3.5c1.2,1.2,1.5,2.8,1.5,4c0,1.5-0.7,2.4-2.4,2.7
			c-0.6,0.1-0.6,0.1-0.7-0.6c-0.1-0.6-0.2-0.9-0.4-1.2c1.2,0.1,1.6-0.3,1.6-1.4c0-0.9-0.4-2-1.6-3.4c0.8-1.6,1.1-2.5,1.6-4h-1.9
			v11.4c0,2.8,0,4.2,0,4.3c0,0.2,0,0.2-0.2,0.2h-1.6c-0.2,0-0.2,0-0.2-0.2c0-0.1,0-1.5,0-4.3v-8.7c0-2.8,0-4.2,0-4.4
			c0-0.2,0-0.2,0.2-0.2c0.1,0,0.6,0,1.6,0H836z M843.1,346.6c-1.1,1.9-2.5,3.2-4.3,4.3c-0.2,0.1-0.3,0.2-0.4,0.2
			c-0.1,0-0.2-0.1-0.5-0.4c-0.2-0.2-0.7-0.5-1-0.6c1.9-0.9,3.3-2,4.3-3.5H840c-0.7,0.8-1.5,1.4-2.3,2c-0.2,0.1-0.4,0.2-0.5,0.2
			c-0.1,0-0.3-0.1-0.5-0.4c-0.2-0.3-0.7-0.6-1-0.7c1.4-0.7,2.5-1.6,3.5-2.9c0.2-0.3,0.3-0.6,0.5-0.9c-1.3,0-1.7,0-1.8,0
			c-0.2,0-0.2,0-0.2-0.2v-1.3c0-0.2,0-0.2,0.2-0.2c0.1,0,0.8,0,2.7,0h5.6c1.9,0,2.6,0,2.7,0c0.2,0,0.2,0,0.2,0.2v1.3
			c0,0.2,0,0.2-0.2,0.2c-0.1,0-0.8,0-2.7,0h-5.4l0.6,0.2c0.3,0.1,0.3,0.2,0.3,0.3c0,0.1,0,0.2-0.1,0.2c-0.1,0.1-0.2,0.2-0.3,0.3h4.7
			c1.6,0,2.2,0,2.3,0c0.2,0,0.3,0,0.3,0.2c-0.1,0.6-0.1,1.3-0.1,1.9c-0.1,1.9-0.3,3.1-0.5,4c-0.3,1.1-0.9,1.5-2.1,1.5
			c-0.4,0-0.6,0-0.9,0c-0.5,0-0.5,0-0.6-0.7c-0.1-0.5-0.3-1-0.5-1.3c0.7,0.1,0.9,0.1,1.4,0.1c0.5,0,0.7-0.2,0.9-0.6
			c0.2-0.5,0.3-1.3,0.4-3.4h-0.6c-1,2.5-2.3,4.4-4.7,5.8c-0.2,0.1-0.4,0.2-0.5,0.2c-0.1,0-0.2-0.1-0.5-0.4c-0.2-0.2-0.7-0.5-0.9-0.7
			c2.2-1.1,3.7-2.7,4.7-5H843.1z M844.9,335.2c1.6,0,2.2,0,2.3,0c0.2,0,0.2,0,0.2,0.2c0,0.1,0,0.6,0,1.7v2.4c0,1.1,0,1.6,0,1.7
			c0,0.2,0,0.2-0.2,0.2c-0.1,0-0.7,0-2.3,0h-3.5c-1.6,0-2.2,0-2.3,0c-0.2,0-0.2,0-0.2-0.2c0-0.1,0-0.6,0-1.7V337c0-1.1,0-1.6,0-1.7
			c0-0.2,0-0.2,0.2-0.2c0.1,0,0.7,0,2.3,0H844.9z M840.7,337.6h4.8v-0.9h-4.8V337.6z M845.5,339h-4.8v0.9h4.8V339z"/>
		<path fill="#1197CC" d="M834,371.7c-1.8,0-2.4,0-2.5,0c-0.2,0-0.2,0-0.2-0.2v-1.8c0-0.2,0-0.2,0.2-0.2c0.1,0,0.7,0,2.5,0h4.2
			v-11.3c0-1.6,0-2.4-0.2-3.3c0.8,0,1.7,0.1,2.3,0.1c0.2,0,0.4,0.1,0.4,0.3c0,0.2-0.1,0.3-0.1,0.5c-0.1,0.2-0.1,0.7-0.1,1.9v3.2h3.9
			c1.7,0,2.3,0,2.5,0c0.2,0,0.2,0,0.2,0.2v1.8c0,0.2,0,0.2-0.2,0.2c-0.1,0-0.7,0-2.5,0h-3.9v6.5h5.5c1.8,0,2.4,0,2.5,0
			c0.2,0,0.2,0,0.2,0.2v1.8c0,0.2,0,0.2-0.2,0.2c-0.1,0-0.7,0-2.5,0H834z"/>
		<path fill="#1197CC" d="M843.6,386c0.2-0.1,0.3-0.1,0.4,0c1.5,1.6,2.9,3.3,3.9,5.2c0.1,0.2,0.1,0.2-0.2,0.4l-1.3,0.8
			c-0.1,0.1-0.2,0.1-0.3,0.1c-0.1,0-0.1,0-0.2-0.1c-0.3-0.6-0.6-1.2-1-1.7c-3.3,0.6-7.1,1-10.7,1.3c-0.7,0.1-1,0.1-1.2,0.2
			c-0.1,0.1-0.2,0.1-0.3,0.1c-0.1,0-0.3-0.1-0.3-0.3c-0.2-0.6-0.3-1.3-0.4-2c0.9,0,1.5,0,2.1,0l0.8,0c1-1.7,1.8-3.3,2.5-5.1h-3.6
			c-1.8,0-2.4,0-2.5,0c-0.2,0-0.2,0-0.2-0.2v-1.5c0-0.2,0-0.2,0.2-0.2c0.1,0,0.7,0,2.5,0h4.8v-2.9H836c-2,0-2.6,0-2.8,0
			c-0.2,0-0.2,0-0.2-0.2v-1.5c0-0.2,0-0.2,0.2-0.2c0.1,0,0.8,0,2.8,0h2.8v-0.9c0-1.3,0-1.8-0.2-2.5c0.8,0,1.5,0,2.2,0.1
			c0.2,0,0.3,0.1,0.3,0.2c0,0.2,0,0.3-0.1,0.4c-0.1,0.2-0.1,0.7-0.1,1.6v1h3.1c2,0,2.6,0,2.8,0c0.2,0,0.2,0,0.2,0.2v1.5
			c0,0.2,0,0.2-0.2,0.2c-0.1,0-0.8,0-2.8,0h-3.1v2.9h5.1c1.8,0,2.4,0,2.5,0c0.2,0,0.2,0,0.2,0.2v1.5c0,0.2,0,0.2-0.2,0.2
			c-0.1,0-0.7,0-2.5,0h-6.2c-0.7,1.8-1.5,3.4-2.4,4.9c2.3-0.2,4.6-0.5,6.5-0.7c-0.5-0.7-1.1-1.3-1.7-2c-0.2-0.2-0.1-0.2,0.1-0.3
			L843.6,386z"/>
	</g>
	<g id="v9_1_">
		<g>
			<g>
				<line fill="none" stroke="#1197CC" stroke-width="2" stroke-miterlimit="10" x1="840" y1="224" x2="840" y2="249"/>
				<line fill="none" stroke="#1197CC" stroke-width="2" stroke-miterlimit="10" x1="840" y1="279" x2="840" y2="304"/>
				<g>
					<rect x="832" y="223" fill="#1197CC" width="16" height="2"/>
				</g>
				<g>
					<rect x="832" y="303" fill="#1197CC" width="16" height="2"/>
				</g>
			</g>
		</g>
		<g>
			<path d="M844.2,257.4h-6l-0.6,4c0.4,0,0.7-0.1,1.3-0.1c1.2,0,2.4,0.3,3.4,0.8c1.2,0.7,2.2,2,2.2,4c0,3-2.4,5.3-5.8,5.3
				c-1.7,0-3.1-0.5-3.9-1l0.5-1.6c0.6,0.4,1.9,0.9,3.3,0.9c2,0,3.7-1.3,3.7-3.4c0-2-1.4-3.5-4.5-3.5c-0.9,0-1.6,0.1-2.2,0.2l1-7.5
				h7.5V257.4z"/>
		</g>
	</g>
	<g id="v9">
		<g>
			<g>
				<line fill="none" stroke="#1197CC" stroke-width="2" stroke-miterlimit="10" x1="840" y1="80" x2="840" y2="137"/>
				<line fill="none" stroke="#1197CC" stroke-width="2" stroke-miterlimit="10" x1="840" y1="167" x2="840" y2="224"/>
				<g>
					<rect x="832" y="79" fill="#1197CC" width="16" height="2"/>
				</g>
				<g>
					<rect x="832" y="223" fill="#1197CC" width="16" height="2"/>
				</g>
			</g>
		</g>
		<g>
			<path d="M836.1,157.8c0.5,0,1,0,1.7-0.1c1.2-0.2,2.4-0.7,3.3-1.5c1-0.9,1.8-2.3,2.1-4.2h-0.1c-0.9,1.1-2.1,1.7-3.7,1.7
				c-2.8,0-4.6-2.1-4.6-4.8c0-3,2.1-5.5,5.3-5.5s5.2,2.6,5.2,6.6c0,3.4-1.2,5.8-2.7,7.3c-1.2,1.2-2.9,1.9-4.5,2.1
				c-0.8,0.1-1.4,0.1-1.9,0.1V157.8z M836.9,148.8c0,1.9,1.2,3.3,3,3.3c1.4,0,2.5-0.7,3.1-1.6c0.1-0.2,0.2-0.4,0.2-0.8
				c0-2.7-1-4.7-3.2-4.7C838.2,145,836.9,146.6,836.9,148.8z"/>
		</g>
	</g>
</g>
<g id="ruler_symbol">
	<g>
		<path fill="#66CC66" d="M759.6,167.8c0.2-0.2,0.2-0.2,0.4-0.1c1,0.5,1.9,1.2,2.8,2c0.1,0.1,0.1,0.1,0.1,0.2c0,0.1,0,0.1-0.1,0.2
			l-0.9,1.3c-0.1,0.1-0.1,0.1-0.2,0.1c0,0-0.1,0-0.2-0.1c-0.9-0.8-1.8-1.6-2.8-2.2c-0.1-0.1-0.1-0.1-0.1-0.1c0-0.1,0-0.1,0.1-0.2
			L759.6,167.8z M759.7,177.6c0.6-1.1,1.3-2.7,2-4.6c0.3,0.3,0.7,0.7,1.1,1c0.3,0.2,0.4,0.3,0.4,0.5c0,0.1,0,0.2-0.1,0.5
			c-0.6,1.6-1.3,3.1-1.9,4.4c-0.2,0.3-0.3,0.6-0.3,0.8c0,0.2-0.1,0.3-0.3,0.3c-0.1,0-0.2,0-0.4-0.1c-0.5-0.3-1-0.6-1.5-1.1
			C759.1,178.6,759.4,178.2,759.7,177.6z M760.5,162.8c0.2-0.2,0.2-0.2,0.4-0.1c1,0.6,2,1.3,2.9,2.1c0.1,0.1,0.1,0.1,0.1,0.2
			s0,0.1-0.1,0.2l-0.9,1.2c-0.2,0.2-0.2,0.2-0.3,0.1c-0.9-0.8-2-1.7-2.9-2.3c-0.1-0.1-0.1-0.1-0.1-0.1c0-0.1,0-0.1,0.1-0.2
			L760.5,162.8z M766.2,179.8c-2,0-2.7,0-2.8,0c-0.2,0-0.2,0-0.2-0.2v-1.5c0-0.2,0-0.2,0.2-0.2c0.1,0,0.8,0,2.8,0h2.5v-4.3h-1.3
			c-1.9,0-2.5,0-2.6,0c-0.2,0-0.2,0-0.2-0.2v-1.5c0-0.2,0-0.2,0.2-0.2c0.1,0,0.8,0,2.6,0h1.3v-3.5H767c-1.9,0-2.6,0-2.7,0
			c-0.2,0-0.2,0-0.2-0.2v-1.5c0-0.2,0-0.2,0.2-0.2c0.1,0,0.8,0,2.7,0h6.1c1.9,0,2.6,0,2.7,0c0.2,0,0.2,0,0.2,0.2v1.5
			c0,0.2,0,0.2-0.2,0.2c-0.1,0-0.8,0-2.7,0h-2.2v3.5h1.7c1.9,0,2.5,0,2.6,0c0.2,0,0.2,0,0.2,0.2v1.5c0,0.2,0,0.2-0.2,0.2
			c-0.1,0-0.7,0-2.6,0h-1.7v4.3h2.8c2,0,2.6,0,2.8,0c0.2,0,0.2,0,0.2,0.2v1.5c0,0.2,0,0.2-0.2,0.2c-0.1,0-0.8,0-2.8,0H766.2z
			 M768.2,162.5c0.2-0.2,0.2-0.2,0.4-0.1c1,0.4,2.4,1.3,3.4,2.1c0.1,0.1,0.1,0.1,0.1,0.2s0,0.1-0.2,0.2l-1,1.2
			c-0.2,0.2-0.2,0.2-0.4,0.1c-0.9-0.9-2.3-1.7-3.4-2.2c-0.2-0.1-0.2-0.1,0-0.3L768.2,162.5z"/>
		<path fill="#66CC66" d="M761.4,190.6c-1.8,0-2.4,0-2.5,0c-0.2,0-0.2,0-0.2-0.2V189c0-0.2,0-0.2,0.2-0.2c0.1,0,0.7,0,2.5,0h2.2
			c-0.2-0.8-0.4-1.3-0.8-2c-0.1-0.2,0-0.2,0.2-0.3l1.4-0.4c0.2-0.1,0.3,0,0.4,0.2c0.4,0.7,0.6,1.4,1,2.4h3.4
			c0.3-0.7,0.5-1.1,0.7-1.7c0.1-0.3,0.2-0.6,0.2-1c0.7,0.1,1.3,0.3,1.9,0.5c0.2,0.1,0.3,0.1,0.3,0.2s-0.1,0.2-0.2,0.3
			c-0.1,0.1-0.2,0.3-0.3,0.5l-0.5,1.2h2.7c1.8,0,2.4,0,2.5,0c0.2,0,0.2,0,0.2,0.2v1.4c0,0.2,0,0.2-0.2,0.2c-0.1,0-0.7,0-2.5,0H761.4
			z M762.7,186c-1.9,0-2.6,0-2.7,0c-0.2,0-0.2,0-0.2-0.2v-1.4c0-0.2,0-0.2,0.2-0.2c0.1,0,0.8,0,2.7,0h3.7v0c0-0.8,0-1.3-0.1-1.8
			c0.7,0,1.4,0,2.2,0.1c0.2,0,0.3,0.1,0.3,0.2c0,0.1-0.1,0.2-0.1,0.4c-0.1,0.2-0.1,0.4-0.1,1.1v0h3.9c1.9,0,2.6,0,2.7,0
			c0.2,0,0.2,0,0.2,0.2v1.4c0,0.2,0,0.2-0.2,0.2c-0.1,0-0.7,0-2.6,0H762.7z M761.9,200.7c-0.2,0-0.2,0-0.2-0.2c0-0.1,0-0.7,0-3.8
			v-1.9c0-2,0-2.5,0-2.7c0-0.2,0-0.2,0.2-0.2c0.1,0,0.8,0,2.7,0h6.1c1.9,0,2.6,0,2.7,0c0.2,0,0.2,0,0.2,0.2c0,0.1,0,0.7,0,2.4v2.2
			c0,3.1,0,3.7,0,3.8c0,0.2,0,0.2-0.2,0.2h-1.6c-0.2,0-0.2,0-0.2-0.2v-0.7h-7.8v0.8c0,0.2,0,0.2-0.2,0.2H761.9z M763.7,194.9h7.8
			v-1.3h-7.8V194.9z M771.5,198v-1.5h-7.8v1.5H771.5z"/>
		<path fill="#66CC66" d="M761.3,215.6c0-0.7,0-1.5,0-2.3c-0.5,0.5-0.9,1-1.4,1.4c-0.2,0.2-0.3,0.3-0.4,0.3c-0.1,0-0.2-0.1-0.4-0.5
			c-0.3-0.5-0.5-0.9-0.8-1.3c1.8-1.3,2.9-2.7,3.8-4.2c0.3-0.5,0.6-1.1,0.7-1.5c0.3,0.1,0.6,0.2,0.8,0.3c-0.2-0.7-0.5-1.4-0.8-2h-1.1
			c-0.5,0.7-1.1,1.4-1.7,2.1c-0.2,0.2-0.3,0.3-0.4,0.3c-0.1,0-0.2-0.1-0.4-0.4c-0.3-0.4-0.6-0.7-1-0.9c1.2-1,2.1-2.3,2.7-3.5
			c0.2-0.4,0.3-0.7,0.4-1.2c0.7,0.1,1.3,0.2,1.9,0.4c0.2,0,0.3,0.1,0.3,0.3c0,0.1-0.1,0.2-0.2,0.3c-0.1,0.1-0.2,0.2-0.3,0.5
			l-0.2,0.5h2c1.7,0,2.2,0,2.4,0c0.2,0,0.2,0,0.2,0.2v1.3c0,0.2,0,0.2-0.2,0.2c-0.1,0-0.7,0-2.2,0c0.3,0.5,0.5,1,0.8,1.5
			c0.1,0.2,0.1,0.3-0.2,0.3L764,208l0.5,0.3c0.2,0.1,0.3,0.2,0.3,0.3c0,0.1,0,0.2-0.2,0.3c-0.1,0.1-0.3,0.3-0.5,0.7
			c-0.2,0.4-0.5,0.8-0.8,1.2v7.3c0,1.5,0,2.3,0,2.4c0,0.2,0,0.2-0.2,0.2h-1.6c-0.2,0-0.2,0-0.2-0.2c0-0.1,0-0.8,0-2.4V215.6z
			 M767.3,212.1c-1.9,0-2.6,0-2.7,0c-0.2,0-0.2,0-0.2-0.2v-1.5c0-0.2,0-0.2,0.2-0.2c0.1,0,0.8,0,2.7,0h4.4c0-0.9,0-1.5-0.2-2.3
			c0.8,0,1.4,0.1,2.1,0.2c0.2,0,0.3,0.1,0.3,0.2c0,0.2-0.1,0.3-0.1,0.4c-0.1,0.2-0.1,0.6-0.1,1.5c1.9,0,2.6,0,2.7,0
			c0.2,0,0.2,0,0.2,0.2v1.5c0,0.2,0,0.2-0.2,0.2c-0.1,0-0.8,0-2.7,0v2.5c0,1.4,0.1,2.4,0.1,3.6c0,0.9-0.1,1.5-0.7,1.9
			c-0.6,0.3-1.3,0.5-3,0.5c-0.6,0-0.6,0-0.8-0.6c-0.1-0.6-0.4-1.2-0.6-1.6c0.8,0.1,1.3,0.1,2,0.1c0.9,0,1-0.1,1-0.6v-5.7H767.3z
			 M766.6,213c0.1-0.1,0.2-0.1,0.2-0.1c0.1,0,0.1,0,0.2,0.1c0.9,0.9,1.6,1.7,2.4,2.9c0.1,0.2,0.1,0.2-0.1,0.4l-1.1,0.8
			c-0.1,0.1-0.2,0.1-0.3,0.1c-0.1,0-0.1,0-0.2-0.1c-0.7-1.1-1.4-2.1-2.3-3c-0.2-0.2-0.1-0.2,0.1-0.4L766.6,213z M769.8,205.9
			c-0.4,0.7-0.8,1.3-1.4,1.9c-0.2,0.2-0.3,0.3-0.4,0.3c-0.1,0-0.2-0.1-0.4-0.4c-0.3-0.4-0.7-0.7-1-0.9c1.1-1.1,1.9-2.3,2.4-3.5
			c0.1-0.3,0.2-0.7,0.3-1.1c0.6,0.1,1.4,0.2,1.8,0.3c0.2,0.1,0.3,0.1,0.3,0.3c0,0.1-0.1,0.2-0.2,0.3c-0.1,0.1-0.2,0.2-0.3,0.6
			c-0.1,0.1-0.1,0.3-0.2,0.4h2.9c1.9,0,2.5,0,2.7,0c0.2,0,0.2,0,0.2,0.2v1.3c0,0.2,0,0.2-0.2,0.2c-0.1,0-0.8,0-2.7,0h-0.5
			c0.3,0.4,0.5,0.8,0.7,1.3c0.1,0.2,0,0.3-0.2,0.3l-1.3,0.2c-0.3,0-0.3,0.1-0.4-0.2c-0.2-0.6-0.5-1.1-0.8-1.7H769.8z"/>
		<path fill="#66CC66" d="M762.2,231.8c-0.1,0.5-0.3,1-0.4,1.6h1.6c0.7,0,1.2,0,1.4,0c0.2,0,0.2,0,0.2,0.3c-0.1,0.4-0.1,0.9-0.1,1.3
			c-0.2,2.5-0.4,3.8-0.8,4.7c-0.3,0.6-0.8,0.9-1.8,0.9c-0.3,0-0.6,0-0.9,0c-0.5,0-0.5-0.1-0.6-0.6c-0.1-0.6-0.2-1.1-0.4-1.4
			c0.6,0.1,1,0.2,1.4,0.2c0.4,0,0.6-0.1,0.8-0.4c0.3-0.6,0.4-1.6,0.4-3.1h-1.8c-0.1,0.3-0.2,0.5-0.3,0.7c-0.1,0.2-0.1,0.2-0.4,0.2
			l-1.3-0.2c-0.2,0-0.3-0.1-0.2-0.3c0.5-1.2,0.9-2.5,1.2-3.7c-1.1,0-1.5,0-1.6,0c-0.2,0-0.2,0-0.2-0.2v-1.4c0-0.2,0-0.2,0.2-0.2
			c0.1,0,0.6,0,2.1,0h2.6c1.5,0,2,0,2.1,0c0.2,0,0.2,0,0.2,0.2v1.4c0,0.2,0,0.2-0.2,0.2c-0.1,0-0.6,0-2.1,0H762.2z M763.1,223.1
			c1.3,0,1.7,0,1.8,0c0.2,0,0.2,0,0.2,0.2c0,0.1,0,0.6,0,1.6v2c0,1.1,0,1.5,0,1.6c0,0.2,0,0.2-0.2,0.2c-0.1,0-0.5,0-1.8,0h-1.8
			c-1.2,0-1.6,0-1.8,0c-0.2,0-0.2,0-0.2-0.2c0-0.1,0-0.5,0-1.6v-2c0-1,0-1.5,0-1.6c0-0.2,0-0.2,0.2-0.2c0.1,0,0.5,0,1.8,0H763.1z
			 M763.3,224.8h-2.2v2.2h2.2V224.8z M769.8,231.2c-1.1,0.1-1.5,0.1-1.7,0.2c0,1.4-0.1,2.6-0.2,3.9c-0.2,1.7-0.7,3.4-1.6,4.9
			c-0.1,0.2-0.2,0.3-0.4,0.3c-0.1,0-0.2-0.1-0.4-0.3c-0.4-0.4-0.7-0.7-1.1-0.9c1.1-1.3,1.5-2.8,1.7-4.5c0.2-1.4,0.2-3.1,0.2-5.3
			c0-1.9,0-2.8,0-2.9c0-0.2,0-0.2,0.2-0.2c0.1,0,0.9,0,2.5,0h0.8v-2.3c0-0.6,0-1.1-0.1-1.6c0.8,0,1.2,0.1,2,0.1
			c0.2,0,0.3,0.1,0.3,0.2c0,0.1-0.1,0.2-0.1,0.3c-0.1,0.1-0.1,0.3-0.1,0.7h1.7c1.3,0,1.7,0,1.8,0c0.2,0,0.2,0,0.2,0.2v1.2
			c0,0.2,0,0.2-0.2,0.2c-0.1,0-0.5,0-1.8,0h-1.7v1h3c0.2,0,0.3,0,0.4-0.1c0.1,0,0.2-0.1,0.3-0.1c0.2,0,0.3,0.1,0.8,0.4
			c0.5,0.3,0.6,0.5,0.6,0.6c0,0.2-0.1,0.3-0.2,0.4c-0.1,0.1-0.1,0.2-0.3,0.5c-0.2,0.4-0.4,1-0.9,1.7c-0.1,0.2-0.2,0.3-0.3,0.3
			c-0.1,0-0.2-0.1-0.4-0.2c-0.4-0.2-0.7-0.3-1-0.4l0.1,1.3c0,0.2-0.1,0.2-0.2,0.2c-0.2,0-0.5,0-1.7,0.1l-0.6,0.1v0.2
			c0,0.4,0.1,0.5,0.2,0.6c0.2,0.1,0.6,0.1,1.2,0.1c0.8,0,1.1,0,1.3-0.2c0.2-0.2,0.3-0.5,0.4-1.3c0.3,0.2,0.8,0.4,1.2,0.5
			c0.5,0.1,0.5,0.1,0.4,0.6c-0.1,0.8-0.3,1.2-0.7,1.5c-0.4,0.3-1.2,0.5-2.6,0.5c-1.2,0-2.1-0.1-2.5-0.3c-0.4-0.2-0.6-0.6-0.6-1.5
			V231.2z M769.4,235.6c0-0.5,0-1-0.1-1.6c0.6,0,1.3,0.1,1.8,0.2c0.2,0,0.3,0.1,0.3,0.3c0,0.1-0.1,0.3-0.1,0.4
			c-0.1,0.2-0.1,0.6-0.1,1c-0.1,2.2-0.8,3.6-2.6,4.6c-0.2,0.1-0.3,0.2-0.4,0.2c-0.1,0-0.2-0.1-0.4-0.3c-0.3-0.5-0.7-0.8-1-1
			C768.7,238.5,769.3,237.6,769.4,235.6z M769.8,229.5c0-0.5,0-1-0.1-1.3c0.5,0,1.3,0.1,1.7,0.1c0.2,0,0.3,0.1,0.3,0.2
			c0,0.1,0,0.1-0.1,0.2c-0.1,0.1-0.1,0.3-0.1,0.8v0l0.5-0.1c1.1-0.1,1.5-0.2,1.8-0.2c0.4-0.5,0.6-1,0.8-1.4h-6.5v2l1.7-0.2V229.5z
			 M774,238.1c0,0.4,0,0.5,0.1,0.6c0.1,0.1,0.2,0.1,0.4,0.1s0.4-0.1,0.6-0.3c0.2-0.3,0.2-0.7,0.2-2c0.3,0.2,0.8,0.3,1.2,0.5
			c0.4,0.1,0.4,0.2,0.4,0.6c-0.1,1.4-0.3,1.9-0.5,2.3c-0.3,0.4-0.7,0.6-2,0.6c-0.9,0-1.4,0-1.8-0.3c-0.3-0.2-0.5-0.6-0.5-1.4v-2.4
			c0-0.9,0-1.5-0.1-2.2c0.5,0,1.4,0.1,1.8,0.1c0.2,0,0.3,0.1,0.3,0.2c0,0.2-0.1,0.2-0.1,0.4c-0.1,0.2-0.1,0.4-0.1,1.1V238.1z"/>
	</g>
	<g id="v9_5_">
		<g>
			<g>
				<line fill="none" stroke="#66CC66" stroke-width="2" stroke-miterlimit="10" x1="768" y1="255" x2="768" y2="312"/>
				<line fill="none" stroke="#66CC66" stroke-width="2" stroke-miterlimit="10" x1="768" y1="342" x2="768" y2="399"/>
				<g>
					<rect x="760" y="254" fill="#66CC66" width="16" height="2"/>
				</g>
				<g>
					<rect x="760" y="398" fill="#66CC66" width="16" height="2"/>
				</g>
			</g>
		</g>
		<g>
			<path d="M764.1,332.8c0.5,0,1,0,1.7-0.1c1.2-0.2,2.4-0.7,3.3-1.5c1-0.9,1.8-2.3,2.1-4.2h-0.1c-0.9,1.1-2.1,1.7-3.7,1.7
				c-2.8,0-4.6-2.1-4.6-4.8c0-3,2.1-5.5,5.3-5.5s5.2,2.6,5.2,6.6c0,3.4-1.2,5.8-2.7,7.3c-1.2,1.2-2.9,1.9-4.5,2.1
				c-0.8,0.1-1.4,0.1-1.9,0.1V332.8z M764.9,323.8c0,1.9,1.2,3.3,3,3.3c1.4,0,2.5-0.7,3.1-1.6c0.1-0.2,0.2-0.4,0.2-0.8
				c0-2.7-1-4.7-3.2-4.7C766.2,320,764.9,321.6,764.9,323.8z"/>
		</g>
	</g>
	<g id="v9_6_">
		<g>
			<g>
				<line fill="none" stroke="#66CC66" stroke-width="2" stroke-miterlimit="10" x1="768" y1="399" x2="768" y2="464"/>
				<line fill="none" stroke="#66CC66" stroke-width="2" stroke-miterlimit="10" x1="768" y1="494" x2="768" y2="559"/>
				<g>
					<rect x="760" y="398" fill="#66CC66" width="16" height="2"/>
				</g>
				<g>
					<rect x="760" y="558" fill="#66CC66" width="16" height="2"/>
				</g>
			</g>
		</g>
		<g>
			<path d="M760.5,471.9L760.5,471.9l-3.1,1.6l-0.5-1.8l3.8-2h2V487h-2.3V471.9z"/>
			<path d="M780.6,478.2c0,5.9-2.2,9.1-6,9.1c-3.4,0-5.7-3.2-5.7-8.9c0-5.8,2.5-9,6-9C778.5,469.4,780.6,472.7,780.6,478.2z
				 M771.1,478.5c0,4.5,1.4,7.1,3.5,7.1c2.4,0,3.5-2.8,3.5-7.2c0-4.3-1.1-7.1-3.5-7.1C772.6,471.2,771.1,473.7,771.1,478.5z"/>
		</g>
	</g>
</g>
<g id="ruler_5th-tone" display="none">
	<g id="v9_3_" display="inline">
		<g>
			<g>
				<line fill="none" stroke="#FF3399" stroke-width="2" stroke-miterlimit="10" x1="803" y1="208" x2="803" y2="240"/>
				<g>
					<rect x="795" y="207" fill="#FF3399" width="16" height="2"/>
				</g>
				<g>
					<rect x="795" y="239" fill="#FF3399" width="16" height="2"/>
				</g>
			</g>
		</g>
		<g>
			<path d="M786.2,231.2v-1.3l1.7-1.6c4-3.8,5.8-5.8,5.8-8.2c0-1.6-0.8-3-3.1-3c-1.4,0-2.6,0.7-3.3,1.3l-0.7-1.5
				c1.1-0.9,2.6-1.6,4.4-1.6c3.4,0,4.8,2.3,4.8,4.5c0,2.9-2.1,5.2-5.4,8.4l-1.2,1.2v0h7v1.8H786.2z"/>
		</g>
	</g>
	<g id="v9_2_" display="inline">
		<g>
			<g>
				<line fill="none" stroke="#FF3399" stroke-width="2" stroke-miterlimit="10" x1="803" y1="80" x2="803" y2="129"/>
				<line fill="none" stroke="#FF3399" stroke-width="2" stroke-miterlimit="10" x1="803" y1="159" x2="803" y2="208"/>
				<g>
					<rect x="795" y="79" fill="#FF3399" width="16" height="2"/>
				</g>
				<g>
					<rect x="795" y="207" fill="#FF3399" width="16" height="2"/>
				</g>
			</g>
		</g>
		<g>
			<path d="M798.3,146.9c0-1.7,1-3,2.8-3.7l0-0.1c-1.5-0.7-2.2-1.9-2.2-3.1c0-2.2,1.9-3.7,4.3-3.7c2.7,0,4,1.7,4,3.4
				c0,1.2-0.6,2.4-2.3,3.2v0.1c1.7,0.7,2.8,1.9,2.8,3.6c0,2.4-2.1,4-4.7,4C800.1,150.7,798.3,148.9,798.3,146.9z M805.8,146.8
				c0-1.7-1.2-2.5-3.1-3c-1.6,0.5-2.5,1.5-2.5,2.9c-0.1,1.4,1,2.6,2.8,2.6C804.7,149.3,805.8,148.3,805.8,146.8z M800.6,139.9
				c0,1.4,1,2.1,2.6,2.6c1.2-0.4,2.1-1.3,2.1-2.5c0-1.1-0.7-2.3-2.3-2.3C801.5,137.7,800.6,138.7,800.6,139.9z"/>
		</g>
	</g>
	<g display="inline">
		<path fill="#FF3399" d="M799.1,32.4c1.5,0,2.1,0,2.2,0c0.2,0,0.2,0,0.2,0.2v1.3c0,0.2,0,0.2-0.2,0.2c-0.1,0-0.6,0-2.2,0h-0.3v1.3
			h0.2c1.4,0,1.8,0,1.9,0c0.2,0,0.2,0,0.2,0.2c0,0.1,0,0.7,0,1.9v3c0,1.2,0,1.8,0,1.9c0,0.2,0,0.2-0.2,0.2c-0.1,0-0.6,0-1.9,0h-0.2
			v1.4h0.2c1.5,0,2.1,0,2.2,0c0.2,0,0.2,0,0.2,0.2v1.2c0,0.2,0,0.2-0.2,0.2c-0.1,0-0.6,0-2.2,0h-0.2c0,1.9,0,2.9,0,3
			c0,0.2,0,0.2-0.2,0.2h-1.4c-0.2,0-0.2,0-0.2-0.2c0-0.1,0-1.2,0-3h-0.7c-1.5,0-2.1,0-2.2,0c-0.2,0-0.2,0-0.2-0.2V44
			c0-0.2,0-0.2,0.2-0.2c0.1,0,0.6,0,2.2,0h0.7v-1.4h-0.3c-1.4,0-1.8,0-1.9,0c-0.2,0-0.2,0-0.2-0.2c0-0.1,0-0.7,0-1.9v-3
			c0-1.2,0-1.7,0-1.9c0-0.2,0-0.2,0.2-0.2c0.1,0,0.6,0,1.9,0h0.3v-1.3h-0.6c-1.5,0-2,0-2.2,0c-0.2,0-0.2,0-0.2-0.2v-1.3
			c0-0.2,0-0.2,0.2-0.2c0.1,0,0.6,0,2.2,0h0.6c0-0.8,0-1.4-0.1-2.1c0.8,0,1.3,0.1,1.8,0.1c0.2,0,0.3,0.1,0.3,0.2
			c0,0.1,0,0.2-0.1,0.4s-0.1,0.5-0.1,1.3v0.1H799.1z M797.2,38.3v-1.6h-1v1.6H797.2z M797.2,41.1v-1.6h-1v1.6H797.2z M798.7,36.7
			v1.6h1v-1.6H798.7z M799.7,39.5h-1v1.6h1V39.5z M803.8,48c-1.7,0-2.3,0-2.3,0c-0.2,0-0.2,0-0.2-0.2v-1.5c0-0.2,0-0.2,0.2-0.2
			c0.1,0,0.7,0,2.3,0h2v-2.7h-1.3c-1.6,0-2.1,0-2.2,0c-0.2,0-0.2,0-0.2-0.2v-1.5c0-0.2,0-0.2,0.2-0.2c0.1,0,0.6,0,2.2,0h4.8
			c1.6,0,2.1,0,2.2,0c0.2,0,0.2,0,0.2,0.2v1.5c0,0.2,0,0.2-0.2,0.2c-0.1,0-0.6,0-2.2,0h-1.5v2.7h2.1c1.7,0,2.2,0,2.3,0
			c0.2,0,0.2,0,0.2,0.2v1.5c0,0.2,0,0.2-0.2,0.2c-0.1,0-0.6,0-2.3,0H803.8z M803.8,41.3c-0.2,0.1-0.3,0.1-0.3-0.1
			c-0.5-1.3-1-2.4-1.7-3.4c-0.1-0.2-0.2-0.3-0.2-0.4c0-0.1,0.1-0.2,0.2-0.4c0.6-0.8,1.1-1.6,1.4-2.4c0.1-0.3,0.3-0.6,0.3-1
			c0.7,0.2,1.1,0.4,1.5,0.5c0.2,0.1,0.4,0.2,0.4,0.3c0,0.2-0.1,0.2-0.3,0.3c-0.1,0.1-0.2,0.4-0.4,0.6c-0.3,0.6-0.7,1.2-1.3,1.9
			c0.5,0.8,1.2,1.9,1.7,3.1c0.1,0.2,0.1,0.3-0.2,0.4L803.8,41.3z M804.5,33.1c-1.7,0-2.2,0-2.3,0c-0.2,0-0.2,0-0.2-0.2v-1.5
			c0-0.2,0-0.2,0.2-0.2c0.1,0,0.7,0,2.3,0h5.2c1.7,0,2.3,0,2.4,0c0.2,0,0.2,0,0.2,0.2v1.5c0,0.2,0,0.2-0.2,0.2c-0.1,0-0.7,0-2.4,0
			H804.5z M807.3,41.2c-0.2,0.1-0.3,0.1-0.4-0.1c-0.6-1.3-1.3-2.5-1.9-3.3c-0.1-0.2-0.2-0.3-0.2-0.4c0-0.1,0.1-0.3,0.2-0.5
			c0.6-0.8,0.9-1.4,1.4-2.3c0.1-0.3,0.3-0.6,0.3-1.1c0.6,0.2,1.1,0.4,1.5,0.5c0.2,0.1,0.4,0.2,0.4,0.3s-0.1,0.2-0.2,0.3
			c-0.2,0.1-0.3,0.3-0.5,0.7c-0.3,0.6-0.7,1.2-1.3,2c0.8,0.9,1.2,1.8,1.9,3c0.1,0.2,0.1,0.2-0.1,0.3L807.3,41.2z M810.8,41.3
			c-0.2,0.1-0.2,0.1-0.3-0.1c-0.6-1.3-1.4-2.5-2-3.4c-0.1-0.2-0.2-0.3-0.2-0.4c0-0.1,0.1-0.2,0.2-0.4c0.5-0.8,0.9-1.5,1.3-2.4
			c0.1-0.3,0.3-0.6,0.4-1.1c0.6,0.2,1.1,0.4,1.5,0.6c0.2,0.1,0.3,0.2,0.3,0.3s-0.1,0.2-0.2,0.3c-0.2,0.2-0.2,0.3-0.4,0.6
			c-0.3,0.6-0.7,1.2-1.2,2c0.7,0.8,1.4,1.7,2,3c0.1,0.2,0,0.3-0.2,0.4L810.8,41.3z"/>
		<path fill="#FF3399" d="M808.8,65.7c1.2-0.1,2.4-0.2,3.5-0.3c-0.1,0.2-0.1,0.5-0.1,0.8c-0.1,0.6-0.1,0.7-0.7,0.7l-2.7,0.2
			c0,0.9,0,1.3,0,1.4c0,0.2,0,0.2-0.2,0.2H807c-0.2,0-0.2,0-0.2-0.2c0-0.1,0-0.5,0-1.3l-3.9,0.2c-2.6,0.1-4.8,0.2-7.3,0.3
			c-0.3,0-0.6,0-0.8,0.1c-0.1,0.1-0.2,0.1-0.3,0.1c-0.1,0-0.2-0.1-0.2-0.3c-0.1-0.5-0.3-1-0.4-1.6c0.4,0,0.9,0.1,1.6,0.1
			c0.5,0,1.3,0,2,0V62h0c-1.8,0-2.4,0-2.5,0c-0.2,0-0.2,0-0.2-0.2v-1c0-0.2,0-0.2,0.1-0.2l-0.1-0.1c-0.3-0.3-0.6-0.5-0.9-0.6
			c1-0.9,1.4-1.8,1.4-3.5c0-0.4,0-0.8,0-0.9c0-0.2,0-0.2,0.2-0.2c0.1,0,0.7,0,2.2,0h2.8c1.6,0,2.1,0,2.2,0c0.2,0,0.2,0,0.2,0.2
			c0,0.1,0,0.3,0,0.9v1c0,0.7,0,0.8,0,1c0,0.2,0,0.2-0.2,0.2c-0.1,0-0.6,0-2.2,0h-3.7c-0.2,0.7-0.5,1.3-1.1,2c0.4,0,1,0,1.8,0h11.5
			c1.8,0,2.4,0,2.5,0c0.2,0,0.2,0,0.2,0.2v1c0,0.2,0,0.2-0.2,0.2c-0.1,0-0.7,0-2.5,0h-0.3V65.7z M798.3,53.4v-0.6h-1.2
			c-1.7,0-2.3,0-2.4,0c-0.2,0-0.2,0-0.2-0.2v-1c0-0.2,0-0.2,0.2-0.2c0.1,0,0.7,0,2.4,0h1.2c0-0.4,0-0.7-0.1-1.1
			c0.7,0,1.2,0.1,1.8,0.1c0.2,0,0.3,0.1,0.3,0.2c0,0.1,0,0.1-0.1,0.2c-0.1,0.1-0.1,0.3-0.1,0.6h0.9c1.7,0,2.3,0,2.4,0
			c0.2,0,0.2,0,0.2,0.2v1c0,0.2,0,0.2-0.2,0.2c-0.1,0-0.7,0-2.4,0H800v0.6h0.6c1.6,0,2.1,0,2.2,0c0.2,0,0.2,0,0.2,0.2v0
			c1.1-0.4,1.5-0.9,1.5-1.9c0-0.4,0-0.6,0-0.7c0-0.2,0-0.2,0.2-0.2c0.1,0,0.4,0,1.5,0h1.7c1.1,0,1.4,0,1.5,0c0.2,0,0.2,0,0.2,0.2
			c0,0.1,0,0.4,0,1v0.6c0,0.1,0,0.2,0.1,0.3c0.1,0.1,0.2,0.1,0.5,0.1c0.3,0,0.4,0,0.5-0.1c0.1-0.1,0.1-0.3,0.2-1.1
			c0.2,0.2,0.6,0.3,1.1,0.5c0.4,0.1,0.4,0.2,0.3,0.6c-0.1,0.9-0.3,1.1-0.6,1.3c-0.3,0.2-0.8,0.3-1.7,0.3c-0.7,0-1.2,0-1.5-0.1
			c-0.4-0.2-0.6-0.5-0.6-1v-0.9h-1.8c0,1.2-0.6,2-1.7,2.5c-0.1,0.1-0.3,0.1-0.3,0.1c-0.1,0-0.3-0.1-0.4-0.4
			c-0.2-0.3-0.4-0.5-0.7-0.7v0.7c0,0.2,0,0.2-0.2,0.2c-0.1,0-0.6,0-2.2,0h-2.9c-1.6,0-2.1,0-2.2,0c-0.2,0-0.2,0-0.2-0.2v-0.9
			c0-0.2,0-0.2,0.2-0.2c0.1,0,0.6,0,2.2,0H798.3z M797,56.8c0,0.2,0,0.4,0,0.6h1.4v-0.9H797V56.8z M806.8,62.6V62h-7.2v0.6H806.8z
			 M806.8,64.3v-0.7h-7.2v0.7H806.8z M806.8,65.3h-7.2v0.8c2.5-0.1,4.9-0.1,7.2-0.3V65.3z M801.3,56.5H800v0.9h1.4V56.5z
			 M809.5,54.9c0.2,0,0.3,0,0.4-0.1c0.1,0,0.1-0.1,0.3-0.1s0.2,0,0.7,0.4c0.5,0.4,0.6,0.5,0.6,0.7c0,0.1-0.1,0.2-0.2,0.3
			c-0.2,0.1-0.4,0.3-0.6,0.6c-0.4,0.5-0.9,1-1.4,1.4c1,0.3,2.2,0.6,3.5,0.7c-0.2,0.3-0.4,0.6-0.5,1c-0.2,0.6-0.2,0.7-0.8,0.6
			c-1.5-0.2-2.7-0.6-3.8-1.1c-1,0.5-2.2,0.9-3.6,1.2c-0.5,0.1-0.5,0.1-0.8-0.4c-0.2-0.5-0.4-0.8-0.7-1.1c1.3-0.2,2.4-0.4,3.4-0.8
			c-0.7-0.5-1.2-1.2-1.6-1.9c-0.3,0-0.5,0-0.5,0c-0.2,0-0.2,0-0.2-0.2v-1.1c0-0.2,0-0.2,0.2-0.2c0.1,0,0.6,0,2.2,0H809.5z M806,56.4
			c0.4,0.4,0.9,0.8,1.4,1.1c0.5-0.3,1-0.7,1.4-1.1H806z"/>
	</g>
</g>
<g id="grid">
	<g>
		<g id="yin_1_">
			<rect x="517" y="257.1" fill="#CCCCCC" width="144" height="144"/>
			<line fill="none" stroke="#666666" stroke-width="2" stroke-miterlimit="10" x1="517" y1="401" x2="661" y2="401"/>
			<line fill="none" stroke="#666666" stroke-width="2" stroke-miterlimit="10" x1="517" y1="257" x2="661" y2="257"/>
		</g>
		<g id="_x34_-tone_1_">
			<rect x="661" y="224.1" fill="#CCCCCC" width="80" height="80"/>
			<line fill="none" stroke="#666666" stroke-width="2" stroke-miterlimit="10" x1="661" y1="224" x2="741" y2="224"/>
			<line fill="none" stroke="#666666" stroke-width="2" stroke-miterlimit="10" x1="661" y1="304" x2="741" y2="304"/>
		</g>
		<g id="_x35_th_tone_1_">
			<rect x="517" y="209.1" fill="#CCCCCC" width="144" height="32"/>
			<line fill="none" stroke="#666666" stroke-width="2" stroke-miterlimit="10" x1="517" y1="209" x2="661" y2="209"/>
			<line fill="none" stroke="#666666" stroke-width="2" stroke-miterlimit="10" x1="517" y1="241" x2="661" y2="241"/>
		</g>
		<g id="inner_1_">
			<line fill="none" stroke="#CCCCCC" stroke-miterlimit="10" x1="180.5" y1="560" x2="180.5" y2="80"/>
			<line fill="none" stroke="#CCCCCC" stroke-miterlimit="10" x1="341.5" y1="560" x2="341.5" y2="80"/>
			<line fill="none" stroke="#CCCCCC" stroke-miterlimit="10" x1="21" y1="239.5" x2="501" y2="239.5"/>
			<line fill="none" stroke="#CCCCCC" stroke-miterlimit="10" x1="21" y1="400.5" x2="501" y2="400.5"/>
		</g>
		<g id="outer_1_">
			
				<rect id="zhuyin_1_" x="21" y="80.1" fill="none" stroke="#666666" stroke-width="2" stroke-miterlimit="10" width="720" height="480"/>
			
				<rect id="char_1_" x="21" y="80.1" fill="none" stroke="#666666" stroke-width="2" stroke-miterlimit="10" width="480" height="480"/>
			<line fill="none" stroke="#666666" stroke-width="2" stroke-miterlimit="10" x1="661" y1="560" x2="661" y2="80"/>
			<line fill="none" stroke="#666666" stroke-width="2" stroke-miterlimit="10" x1="517" y1="560" x2="517" y2="80"/>
		</g>
	</g>
</g>
<g id="character">
	<g>
		<path d="M540.6,288.5c2.4,0.4,4.9,0.6,7.9,0.6c2.4,0,4.8-0.1,7.3-0.6l63-7.3c3.7-0.7,6.3-1.5,7.9-2.2c1.7-0.7,3.4-1.1,5.1-1.1
			c1.5,0,3.8,1.1,6.5,3.5c2.8,2.2,4.2,3.9,4.2,5.1c0,1-0.7,1.5-2.2,1.5c-0.7,0-2-0.1-4.1-0.3l-3.8-0.3c-9,0.4-18.6,1.3-28.7,2.2
			l-3.4,0.4c0.1,12.5-0.1,22.5-0.8,29.8c-0.6,3.9-4.1,8.2-8.7,8.2c-0.7,0-1.8-0.3-3.4-0.8c-1.4-0.3-2.5-0.4-3.4-0.4
			c-4.9,0-9.6,2-13.9,5.8c-3.8,4.4-5.8,9-5.8,14.1c0,7.2,2.7,13.4,8,18.3c5.5,4.9,12.4,7.5,20.7,7.5c11.8,0,21.9-5.3,30.5-16
			c1.5-1.3,3.1-2,4.4-2c2.8,0,5.1,2,5.1,4.8c0,5.2-4.1,10.4-12.1,15.5c-8,5.2-17.3,7.7-27.8,7.7c-11.2,0-20.7-3.4-28.1-10
			c-7.5-7.5-11.2-16-11.2-25.7c0-8.2,2.7-14.9,7.9-20.4c5.8-5.3,13.2-8.3,22.5-9c3.4-0.7,4.9-2.7,4.5-5.6l-1.1-20.1
			c-15.5,2.1-26.9,4.2-34,6.6c-2,0.7-3.5,1.1-4.8,1.1c-1.8,0-4.6-1.5-8.7-4.8c-2.8-2.4-4.2-4.1-4.2-4.8c0-1.1,1-1.7,2.8-1.7
			C539.2,287.9,539.9,288.1,540.6,288.5z"/>
	</g>
	<g>
		<path d="M679.8,274.8c1-1.5,2.7-3.4,5.1-5.5l13-11.1l10.4-8.9l7.3-7l5.1-5c2-1.5,3.4-2,4.3-1.7c0.5,0.2,0.9,0.9,0.9,1.9
			c0,1.2-0.2,2.2-0.7,3.2c-2.6,6.3-5,11.4-7.3,15.4l-6.8,10.4l-5.3,7.7c-6.8,10.1-13.5,15.5-20.2,16.1
			C678,291,673.9,285.6,679.8,274.8z"/>
	</g>
	<g>
		<path d="M152.7,348c1.9,0.8,3.8,1.6,5.6,2.3c1.9,0.8,3.2,2.2,4.1,4.3c0.9,2.1,0.2,3.9-2,5.5l-7.5,0.7l-28.4,4l-19.5,2.8l-5.9-0.9
			c0.5,6.6,0.2,11.3-0.7,14.3c-0.9,3-2.1,4.8-3.5,5.5s-2.7,0.9-3.8,0.6c-1.9-0.3-3.5-1.8-4.8-4.3c-1.3-2.6-2.5-5.7-3.5-9.5
			c-1-3.8-2.5-14.8-4.6-33.3l-6.1-52.3c-0.6-5-2-9.2-4-12.5c-2-3.4-4.2-6.4-6.6-9.1c-2.3-2.7-3.5-5-3.5-6.7c0-0.8,0.4-1.8,1.2-3
			c0.8-1.2,2.9-2,6.3-2.3c3-0.2,5.8,0.2,8.4,1.2l15,5.2c9.5-1.7,16.3-3.2,20.4-4.3c4.1-1.2,9-2.7,14.8-4.7c5.8-2,11.1-4.1,15.9-6.6
			c4.8-2.4,8.4-3.7,10.5-3.9c2.3,0,4.8,0.5,7.3,1.6c2.5,1.1,6.2,3.1,11.2,6c5,2.9,8.6,5.5,10.9,8c2.3,2.4,3.1,4.9,2.5,7.4
			c-0.3,1.1-1.9,3.2-4.7,6.4c-2.8,3.2-5.4,7.3-7.6,12.2c-2.3,4.9-4.3,9.8-6,14.5c-1.7,4.8-3.6,12.2-5.6,22.4L152.7,348z M99.2,353.3
			c9.8-2.5,15.9-4.1,18.3-4.7l15.7-3.8l8.7-61.9c1.1-7.8,1.6-12.4,1.5-13.7c-0.1-1.3-0.6-2.7-1.6-4.1c-1-1.4-4-1.8-9-1.2
			c-2.2,0.3-6.6,1.2-13.4,2.6l-26.5,5.9L99.2,353.3z M231,312.1c-5.6,1.7-11.2,3.6-16.8,5.5c-5.5,2-10,2.9-13.5,2.9
			c-2.8,0.2-5.5-0.2-8.2-0.9c-2.7-0.8-6.3-2.4-10.9-4.9c-4.6-2.5-7.3-4.5-8.2-5.9c-0.9-1.4-1.1-3-0.8-4.9l22-4l36.1-7.7
			c-1.1-12.2-2-22-2.7-29.4c-0.7-7.4-1.4-12.3-2-14.6l-3.5-12.4c-4.2,2-7.3,3.4-9.4,4l-12.2,3.8l-8.7,3c-2.8,1.1-4.6,1-5.3-0.2
			c-0.7-1.2,0.4-3,3.2-5.4l6.8-5.4l13.4-10.3c4.5-3.6,8.9-7.5,13.2-11.6c4.3-4.1,7.9-7.9,10.9-11.4c3-3.4,5.5-7.3,7.5-11.5
			c2-4.2,3.6-6.6,4.8-7s2.5-0.7,3.9-0.7c2.3,0.2,5.3,1.3,8.8,3.5c3.5,2.2,7,4.7,10.3,7.4c3.4,2.7,5.5,5,6.3,6.7
			c0.9,1.7,1.3,3.3,1.4,4.7c0.1,1.4-0.7,3-2.2,4.7c-1.4,1.4-3.9,2.7-7.5,3.9c-3.6,1.2-10,3.9-19.2,8.3l-18.5,9.4
			c6.1,1.7,10.9,3.2,14.4,4.3s6.2,2.5,8.2,4c2,1.5,3.2,3.1,3.8,4.8c0.5,1.7,0.3,4.5-0.8,8.2c-1.1,3.8-1.9,7.9-2.5,12.4
			c-0.5,4.5-0.8,8.6-0.8,12.2l-0.2,10.8l62.6-12l-10.5-81.6l-3-25.3c-0.6-3.4-1.8-8.5-3.4-15.1c-1.6-6.6-3.6-12.4-6-17.3
			s-3.7-8.4-4-10.5c-0.3-2.1,0-3.9,1.1-5.3c1-1.4,3.6-2.1,7.6-2.1c2.5,0.2,5.8,0.8,10,2c4.1,1.2,8.3,2.7,12.5,4.5
			c4.2,1.8,8.4,4.1,12.4,6.8c4.1,2.7,6.3,5.2,6.7,7.4c0.4,2.2-0.4,5.9-2.2,11.2c-0.6,1.6-1.3,4.1-2.1,7.5c-0.8,3.4-1,9.9-0.7,19.5
			c0,5,0.4,15.5,1.3,31.5c0.9,16,1.7,27.1,2.5,33.2l2.8,26.5c13.6-3,23.7-5.4,30.2-7.3s11.2-3,13.8-3.5c5.2-0.6,8.9-0.5,11.2,0.5
			s6.5,3.2,12.5,6.9c6,3.7,9.6,6.7,10.9,9c1.2,2.3,1.6,4.1,0.9,5.4c-0.6,1.3-3.9,2.1-9.8,2.6c-5.9,0.5-11.6,0.9-17.1,1.2l-50.6,4.2
			c2,12,4.1,23.4,6.1,34.1c2,10.7,3.6,17.8,4.7,21.2l10.5,38.9c3.6-5,6.2-8.9,7.9-11.6c1.6-2.7,4.1-7.2,7.3-13.5
			c3.2-6.2,5.4-11.2,6.7-15l4.2-15c1.1-3.6,1.4-7.3,1.1-11.1c-0.4-3.8-0.3-6,0.2-6.4c0.5-0.5,2.2-0.6,5-0.5c3,0.3,6.2,1.3,9.8,2.9
			c3.6,1.6,7,3.4,10.1,5.2c3.1,1.8,5.9,3.8,8.2,6.1c2.3,2.3,3.6,4.6,3.9,7c0.2,2.4-1.2,5.4-4.3,9l-5.6,5.9
			c-2.5,2.8-6.1,7.9-10.8,15.2c-4.7,7.3-9.4,14.3-14.2,20.7c-4.8,6.5-8.4,11.1-10.9,13.7l-8.9,9.8c1.7,5.3,3.5,10.3,5.4,15
			s5.9,12,12,21.9c6.1,9.9,11.6,18.2,16.6,24.7c5,6.6,9.6,11.6,13.9,15.1c4.3,3.5,7.5,5.7,9.7,6.7c2.2,0.9,4.2,1.2,6.1,0.9
			c3.4-0.3,6.1-1.9,8-4.8c1.9-2.9,3.7-6.8,5.5-11.6c1.8-4.8,3.5-9.9,5-15.2l5.4-20.2c1.1-4.2,2.3-6.1,3.6-5.7
			c1.3,0.4,2.1,2.1,2.2,5.3l1.6,47.6c0.3,13.7,0.6,21.2,0.9,22.3l2.1,12.7c0.6,5,0.3,8.7-0.9,11c-0.9,1.6-2.3,2.8-4,3.9
			c-1.7,1-4.4,1.4-8,1.3c-4.8,0-9.5-0.7-13.8-2.1c-4.4-1.4-8.6-3.4-12.8-5.9c-4.1-2.5-9.5-6.8-16.2-12.8c-6.6-6-14-13.8-22-23.3
			c-8-9.5-14.8-18.5-20.4-26.8c-5.5-8.4-10-16.5-13.5-24.5l-8.4-18.5c-6.4,4.1-11.1,6.9-14.2,8.6s-8,4.1-15,7.4
			c-7,3.3-12.3,5.5-16.1,6.8l-13.8,4.5l-5.4,1.9c-2.2,0.8-3.6,0.5-4.2-0.8c-0.6-1.3,0.4-2.8,3-4.6l7.5-4.7l12.9-8
			c1.9-1.2,7.1-5.1,15.8-11.6c8.7-6.5,13.6-10.3,14.9-11.6l7.5-7c-3.3-10.5-6.2-20.2-8.8-29.2c-2.6-9-5-18.6-7.3-28.8
			c-2.3-10.2-4.9-22.9-7.9-38.1l-2.8-14.1l-64.7,13.6l0.5,56.7l42.2-20.4c3.1-1.6,5.1-1.2,5.9,0.9c0.8,2.2,0.4,3.8-1.2,4.9
			l-46.4,31.4v75.2c0,12.3-0.7,21.8-2.2,28.4c-1.5,6.6-3.3,11.8-5.5,15.8c-2.2,4-5.6,8.1-10.2,12.4c-4.6,4.3-8.6,6.4-11.8,6.2
			c-2.8,0-5.5-1.1-8-3.3l-8.7-12.9c-0.9-1.1-3.7-4.1-8.2-8.9c-4.5-4.8-6.9-7.4-7-7.7l-9.6-8.9c-1.1-0.9-1.5-2-1.2-3.3
			c0.3-1.3,1.3-1.7,3-1.4l8.4,2.3l10.5,3c5.2,1.6,9.4,2,12.8,1.3c3.4-0.7,6.4-2.5,9.3-5.5c2.8-3,4.4-10.4,4.7-22.3l0.9-56.5
			l-46.6,30.5c-8.1,5.3-13.9,9.4-17.5,12.3c-3.5,2.9-5.9,4.5-7.3,4.9c-1.3,0.4-3.3,0.7-5.9,0.8c-2.6,0.2-6.4-1.6-11.4-5.2
			c-0.3-0.2-3.3-2.5-8.9-7.1c-5.6-4.6-8.5-7.9-8.6-9.7c-0.1-1.9,0.6-3.4,2-4.7c0.6-0.5,2.6-0.8,6-0.9c3.4-0.2,7.3-1.2,11.8-3
			l16.2-6.6c11.1-4.5,20.4-8.6,27.9-12.2l42.7-20.4V312.1z M359.2,179.2l7.5,1.4c10.5,2,17.5,3.5,21.1,4.5c3.6,0.9,7.8,2.7,12.5,5.4
			c4.8,2.7,8.1,5.7,10,9.3s2.8,7.3,2.8,11.4c-0.2,2.8-0.8,5.5-2,8.2c-1.2,2.7-2.9,4.5-5,5.4c-2.2,0.9-4.8,1.4-8,1.5
			c-3.1,0.1-7.3-2.2-12.7-6.9c-2.7-2.2-6.7-6.6-12.2-13.1c-5.5-6.6-8.8-10.7-9.8-12.4l-6.3-8.7c-1.3-1.6-1.6-3-1.2-4.2
			C356.3,179.6,357.4,179.1,359.2,179.2z"/>
	</g>
	<g>
	</g>
	<g>
	</g>
	<g>
	</g>
	<g>
	</g>
	<g>
	</g>
	<g>
	</g>
	<g>
	</g>
	<g>
	</g>
	<g>
	</g>
	<g>
	</g>
	<g>
	</g>
	<g>
	</g>
	<g>
	</g>
	<g>
	</g>
	<g>
	</g>
	<g>
	</g>
</g>
</svg>
