<?xml version="1.0" encoding="utf-8"?>
<!-- Generator: Adobe Illustrator 18.1.0, SVG Export Plug-In . SVG Version: 6.00 Build 0)  -->
<svg version="1.1" xmlns="http://www.w3.org/2000/svg" xmlns:xlink="http://www.w3.org/1999/xlink" x="0px" y="0px"
	 viewBox="0 0 760 640" enable-background="new 0 0 760 640" xml:space="preserve">
<g id="ruler_under">
	<g id="h_45">
		<g>
			<g>
				<line fill="none" stroke="#999999" stroke-width="2" stroke-miterlimit="10" x1="20.5" y1="601" x2="360.5" y2="601"/>
				<line fill="none" stroke="#999999" stroke-width="2" stroke-miterlimit="10" x1="400.5" y1="601" x2="740.5" y2="601"/>
				<g>
					<rect x="19.5" y="593" fill="#999999" width="2" height="16"/>
				</g>
				<g>
					<rect x="739.5" y="593" fill="#999999" width="2" height="16"/>
				</g>
			</g>
		</g>
		<g>
			<path d="M375.2,610v-4.2h-7.2v-1.4l7-10h2.3v9.7h2.2v1.7h-2.2v4.2H375.2z M375.2,604.1v-5.2c0-0.8,0-1.6,0.1-2.4h-0.1
				c-0.5,0.9-0.9,1.6-1.3,2.3L370,604v0H375.2z"/>
			<path d="M390.2,596.2h-6l-0.6,4c0.4,0,0.7-0.1,1.3-0.1c1.2,0,2.4,0.3,3.4,0.8c1.2,0.7,2.2,2,2.2,4c0,3-2.4,5.3-5.8,5.3
				c-1.7,0-3.1-0.5-3.9-1l0.5-1.6c0.6,0.4,1.9,0.9,3.3,0.9c2,0,3.7-1.3,3.7-3.4c0-2-1.4-3.5-4.5-3.5c-0.9,0-1.6,0.1-2.2,0.2l1-7.5
				h7.5V596.2z"/>
		</g>
	</g>
	<g id="h_30_1_">
		<g>
			<g>
				<line fill="none" stroke="#999999" stroke-width="2" stroke-miterlimit="10" x1="20.5" y1="578" x2="240.5" y2="578"/>
				<line fill="none" stroke="#999999" stroke-width="2" stroke-miterlimit="10" x1="280.5" y1="578" x2="500.5" y2="578"/>
				<g>
					<rect x="19.5" y="570" fill="#999999" width="2" height="16"/>
				</g>
				<g>
					<rect x="499.5" y="570" fill="#999999" width="2" height="16"/>
				</g>
			</g>
		</g>
		<g>
			<path d="M249.1,584.6c0.6,0.4,2,1,3.5,1c2.7,0,3.6-1.7,3.5-3c0-2.2-2-3.1-4-3.1h-1.2v-1.6h1.2c1.5,0,3.5-0.8,3.5-2.6
				c0-1.2-0.8-2.4-2.7-2.4c-1.2,0-2.4,0.6-3.1,1l-0.6-1.5c0.8-0.6,2.4-1.2,4.1-1.2c3.1,0,4.5,1.8,4.5,3.7c0,1.6-1,3-2.9,3.7v0
				c1.9,0.4,3.5,1.8,3.5,4c0,2.5-1.9,4.7-5.7,4.7c-1.8,0-3.3-0.6-4.1-1.1L249.1,584.6z"/>
			<path d="M271.3,579c0,5.3-2,8.2-5.4,8.2c-3,0-5.1-2.9-5.2-8c0-5.2,2.3-8.1,5.4-8.1C269.4,571.1,271.3,574.1,271.3,579z
				 M262.8,579.3c0,4.1,1.2,6.4,3.2,6.4c2.2,0,3.2-2.5,3.2-6.5c0-3.8-1-6.4-3.2-6.4C264.2,572.8,262.8,575,262.8,579.3z"/>
		</g>
	</g>
	<g id="h_15">
		<g>
			<g>
				<line fill="none" stroke="#999999" stroke-width="2" stroke-miterlimit="10" x1="500.5" y1="578" x2="600.5" y2="578"/>
				<line fill="none" stroke="#999999" stroke-width="2" stroke-miterlimit="10" x1="640.5" y1="578" x2="740.5" y2="578"/>
				<g>
					<rect x="499.5" y="570" fill="#999999" width="2" height="16"/>
				</g>
				<g>
					<rect x="739.5" y="570" fill="#999999" width="2" height="16"/>
				</g>
			</g>
		</g>
		<g>
			<path d="M613.2,573.4L613.2,573.4l-2.8,1.5l-0.4-1.6l3.4-1.8h1.8V587h-2V573.4z"/>
			<path d="M630.2,573.2h-6l-0.6,4c0.4,0,0.7-0.1,1.3-0.1c1.2,0,2.4,0.3,3.4,0.8c1.2,0.7,2.2,2,2.2,4c0,3-2.4,5.3-5.8,5.3
				c-1.7,0-3.1-0.5-3.9-1l0.5-1.6c0.6,0.4,1.9,0.9,3.3,0.9c2,0,3.7-1.3,3.7-3.4c0-2-1.4-3.5-4.5-3.5c-0.9,0-1.6,0.1-2.2,0.2l1-7.5
				h7.5V573.2z"/>
		</g>
	</g>
</g>
<g id="ruler_above">
	<g id="h5">
		<g>
			<g>
				<line fill="none" stroke="#999999" stroke-width="2" stroke-miterlimit="10" x1="660.5" y1="58" x2="690.5" y2="58"/>
				<line fill="none" stroke="#999999" stroke-width="2" stroke-miterlimit="10" x1="710.5" y1="58" x2="740.5" y2="58"/>
				<g>
					<rect x="659.5" y="50" fill="#999999" width="2" height="16"/>
				</g>
				<g>
					<rect x="739.5" y="50" fill="#999999" width="2" height="16"/>
				</g>
			</g>
		</g>
		<g>
			<rect x="694.5" y="46.5" fill="none" width="13.9" height="30.4"/>
			<path d="M704.9,52.8h-6l-0.6,4c0.4,0,0.7-0.1,1.3-0.1c1.2,0,2.4,0.3,3.4,0.8c1.2,0.7,2.2,2,2.2,4c0,3-2.4,5.3-5.8,5.3
				c-1.7,0-3.1-0.5-3.9-1l0.5-1.6c0.6,0.4,1.9,0.9,3.3,0.9c2,0,3.7-1.3,3.7-3.4c0-2-1.4-3.5-4.5-3.5c-0.9,0-1.6,0.1-2.2,0.2l1-7.5
				h7.5V52.8z"/>
		</g>
		<g>
		</g>
	</g>
	<g id="h9">
		<g>
			<g>
				<line fill="none" stroke="#999999" stroke-width="2" stroke-miterlimit="10" x1="516.5" y1="58" x2="578.5" y2="58"/>
				<line fill="none" stroke="#999999" stroke-width="2" stroke-miterlimit="10" x1="598.5" y1="58" x2="660.5" y2="58"/>
				<g>
					<rect x="515.5" y="50" fill="#999999" width="2" height="16"/>
				</g>
				<g>
					<rect x="659.5" y="50" fill="#999999" width="2" height="16"/>
				</g>
			</g>
		</g>
		<g>
			<path d="M583.8,65.5c0.5,0,1,0,1.7-0.1c1.2-0.2,2.4-0.7,3.3-1.5c1-0.9,1.8-2.3,2.1-4.2h-0.1c-0.9,1.1-2.1,1.7-3.7,1.7
				c-2.8,0-4.6-2.1-4.6-4.8c0-3,2.1-5.5,5.3-5.5s5.2,2.6,5.2,6.6c0,3.4-1.2,5.8-2.7,7.3c-1.2,1.2-2.9,1.9-4.5,2.1
				c-0.8,0.1-1.4,0.1-1.9,0.1V65.5z M584.6,56.5c0,1.9,1.2,3.3,3,3.3c1.4,0,2.5-0.7,3.1-1.6c0.1-0.2,0.2-0.4,0.2-0.8
				c0-2.7-1-4.7-3.2-4.7C585.9,52.7,584.6,54.3,584.6,56.5z"/>
		</g>
	</g>
</g>
<g id="grid">
	<g>
		<g id="yin_3_">
			<rect x="516.5" y="401.1" fill="#EEEEEE" width="144" height="144"/>
			<line fill="none" stroke="#999999" stroke-width="2" stroke-miterlimit="10" x1="516.5" y1="545" x2="660.5" y2="545"/>
			<line fill="none" stroke="#999999" stroke-width="2" stroke-miterlimit="10" x1="516.5" y1="401" x2="660.5" y2="401"/>
		</g>
		<g id="yin_1_">
			<rect x="516.5" y="257.1" fill="#EEEEEE" width="144" height="144"/>
			<line fill="none" stroke="#999999" stroke-width="2" stroke-miterlimit="10" x1="516.5" y1="401" x2="660.5" y2="401"/>
			<line fill="none" stroke="#999999" stroke-width="2" stroke-miterlimit="10" x1="516.5" y1="257" x2="660.5" y2="257"/>
		</g>
		<g id="yin_2_">
			<rect x="516.5" y="113.1" fill="#EEEEEE" width="144" height="144"/>
			<line fill="none" stroke="#999999" stroke-width="2" stroke-miterlimit="10" x1="516.5" y1="257" x2="660.5" y2="257"/>
			<line fill="none" stroke="#999999" stroke-width="2" stroke-miterlimit="10" x1="516.5" y1="113" x2="660.5" y2="113"/>
		</g>
		<g id="checked-tone">
			<rect x="660.5" y="465.1" fill="#EEEEEE" width="80" height="80"/>
			<line fill="none" stroke="#999999" stroke-width="2" stroke-miterlimit="10" x1="660.5" y1="465" x2="740.5" y2="465"/>
			<line fill="none" stroke="#999999" stroke-width="2" stroke-miterlimit="10" x1="660.5" y1="545" x2="740.5" y2="545"/>
		</g>
		<g id="inner_1_">
			<line fill="none" stroke="#CCCCCC" stroke-miterlimit="10" x1="180" y1="560" x2="180" y2="80"/>
			<line fill="none" stroke="#CCCCCC" stroke-miterlimit="10" x1="341" y1="560" x2="341" y2="80"/>
			<line fill="none" stroke="#CCCCCC" stroke-miterlimit="10" x1="20.5" y1="239.5" x2="500.5" y2="239.5"/>
			<line fill="none" stroke="#CCCCCC" stroke-miterlimit="10" x1="20.5" y1="400.5" x2="500.5" y2="400.5"/>
		</g>
		<g id="outer_1_">
			
				<rect id="zhuyin_1_" x="20.5" y="80.1" fill="none" stroke="#999999" stroke-width="2" stroke-miterlimit="10" width="720" height="480"/>
			
				<rect id="char_1_" x="20.5" y="80.1" fill="none" stroke="#999999" stroke-width="2" stroke-miterlimit="10" width="480" height="480"/>
			<line fill="none" stroke="#999999" stroke-width="2" stroke-miterlimit="10" x1="660.5" y1="560" x2="660.5" y2="80"/>
			<line fill="none" stroke="#999999" stroke-width="2" stroke-miterlimit="10" x1="516.5" y1="560" x2="516.5" y2="80"/>
		</g>
	</g>
</g>
<g id="character">
	<g id="_x2D_h">
		<path d="M729.6,474.5c1.4,1.6,2.1,2.9,2.1,3.9c0,0.9-0.9,1.4-2.6,1.4c-1.4-0.2-2.4-0.4-3.3-0.4c-12.3,0.5-24.5,2.4-36.9,5.8
			c0,6.6-0.9,14.4-2.8,23.3c-1.6,8.9-4,16.4-7.3,22.7c-2.6,4.9-5.6,8.4-8.9,10.3c-1.3,0-1.9-0.1-1.9-0.4c0-0.1,0.2-0.5,0.9-1.4
			c2.9-4.6,5.4-12,7.6-22.3c2.4-10.4,3.5-19.9,3.5-28.8c0-2.9-0.4-5.1-1.3-6.8l-0.6-1.5c0-0.8,0.8-1.1,2.4-1.1
			c5.4,0,13.9-1.3,25.8-3.6c11.6-2.3,17.9-3.4,18.8-3.4C726.9,472.1,728.3,472.9,729.6,474.5z M705.9,456.7l-8.8,0.4l-0.6-26.9
			l12.6-0.2L705.9,456.7z"/>
	</g>
	<g>
		<path d="M539.8,449.3c1,0.4,2.8,0.6,5.2,0.6s4.8-0.3,7.5-0.7l33.9-5.3l-0.4-10.1c0-7.5-1-12.9-2.8-16.5c-0.7-0.7-1.1-1.3-1.1-1.5
			c0-2.4,1.3-3.5,3.9-3.5c2,0,4.4,0.4,7,1.4c3.5,1.5,5.3,3,5.3,4.2c0,0.4-0.3,1-1,1.5c-0.8,2.1-1.3,4.6-1.3,7.6l-0.1,15.5l24.9-3.9
			c4.4-0.8,7.5-1.5,9-2c1.7-0.4,2.8-0.7,3.4-0.7c1.3,0,3,0.8,5.2,2.5c2.5,2.1,3.8,3.7,3.8,4.8c0,1.5-1.3,2.4-3.9,2.4h-5.1
			c-6,0.4-18.6,1.8-37.4,4.5l-0.3,24c0,4.9-1.8,7.5-5.6,7.5c-0.7,0-2-0.6-3.8-1.8c-1.7-0.7-3.1-1.1-4.1-1.1c-4.8,0-9,1.8-12.7,5.3
			c-3.5,3.5-5.3,8-5.3,13.8c0,12.8,10.1,22.2,27,22.2c11.5,0,21.4-3.7,29.7-11.1c2.1-2.1,3.9-3.1,5.8-3.1c2.1,0,3.9,1.5,3.9,3.2
			c0,5.3-4.1,10.3-12.2,14.9c-7.7,4.1-16.9,6.2-27.1,6.2c-10.5,0-19.5-3.1-27-9.1c-7.2-6.3-10.7-14.1-10.7-23.2
			c0-6.6,2.2-12.7,6.8-18c5.3-5.3,13.1-8.3,23.1-9c3-0.3,4.4-2.8,3.9-7.7l-0.4-11.4c-19.4,3-30.8,5.1-34,6.5c-1.5,1-3,1.4-4.4,1.4
			c-1.8,0-4.5-1.3-8.2-3.8c-3.5-2.7-5.3-4.5-5.3-5.2c0-1.5,0.4-2.2,1.1-2.2S537.8,448.6,539.8,449.3z"/>
	</g>
	<g>
		<path d="M567.4,130.7c3.5,3,5.3,5.1,5.3,6.6c0,1.1-1,2.5-3,4.1c-1.5,0.8-4.9,5.2-10.1,13.2s-7.7,12.5-7.7,13.8c0,1,1,1.5,2.8,1.5
			c0.4,0,2.1-0.4,5.2-1.3c16.6-3.5,33.9-6.6,51.8-9c5.2-0.6,9.3-1.3,12.1-2.2c2.1-1,3.7-1.4,4.6-1.4c1.7,0,4.2,2,7.5,6
			c3.2,3.9,4.9,6.8,4.9,8.4c0,0.4-0.7,1.7-2.1,3.8c-1.1,1.4-2,3.7-2.7,6.8c-5.3,22.8-12.5,40.6-21.7,53.4
			c-6.8,10.3-12.8,15.3-18,15.3c-2.2,0-4.1-1.8-5.3-5.3c-1.8-4.8-5.1-9.4-9.6-13.9c-0.6-0.4-0.8-0.8-0.8-1c0-0.4,0.1-0.6,0.6-0.6
			l2.5,1.1c5.8,3,10,4.4,12.7,4.4c4.6,0,10.4-7.9,17.3-23.8c8.7-18.7,13.1-32.5,13.1-41.3c0-1.8-1.8-2.8-5.3-2.8
			c-6.8,0-18.1,1.5-34.2,4.6l-13.1,2.5c3.4,2.4,7,7.5,7,9.7c0,3.5-4.2,11.1-12.8,22.8c-6.8,10.1-13.8,18-21,23.5
			c-5.2,4.2-8.9,6.3-10.7,6.3c-0.7,0-0.8-0.6,0.4-2.7c7.2-6.2,14.3-15.6,21.5-28.1s10.7-21.7,10.7-27.4c0-0.7-0.4-1.7-1.3-2.8
			c-6.5,1.4-12.1,3-17,4.8c-2.4,1.3-4.2,2-5.3,2c-1.3,0-3.1-0.8-5.5-2.5c-2.4-1.8-3.5-3.2-3.5-4.2c0-0.7,1.3-2.8,3.9-6
			c7.9-12.8,13.5-23.9,16.9-33.3c1.1-2.4,1.3-4.9,0.6-7.3c0-1.4,0.6-2.1,1.7-2.1C561.3,126.2,563.8,127.8,567.4,130.7z"/>
	</g>
	<g>
		<path d="M231,337.9c-10.2,0.9-18.6,1.9-25,2.8c-6.4,0.9-17.7,2.7-34,5.4c-16.3,2.7-28,5.3-35.2,7.9c-7.2,2.6-12,3.9-14.3,3.9
			c-3,0.2-5.9-0.3-8.9-1.3c-3-1-6.6-2.4-11-4.1c-4.4-1.7-8.8-3.9-13.2-6.4s-6.1-5.3-5-8.1c0.5-1.4,1.3-2.4,2.5-2.9
			c1.2-0.5,4.4-1.1,9.7-1.5l14.8-0.9c8.6-0.5,18.8-1.3,30.5-2.6l63.5-6.8l37-3.3l0.5-39.1c-4.7,0.8-7.8,1.3-9.4,1.4
			c-1.6,0.2-6.6,0.5-15.2,1.1c-8.6,0.5-13.8,0.7-15.7,0.6c-3.6,0-8.5-0.6-14.8-1.8c-6.3-1.2-10.2-2.5-11.8-4c-1.6-1.5-2.3-3.2-2-5
			c0.3-1.9,2-3,4.9-3.3l9.8-0.7l21.6-2.8l20.9-1.9l11.2-1.9c0-5.2,0-9.6-0.1-13.5c-0.1-3.8-0.4-7.3-0.8-10.3s-1.7-6.3-3.6-9.8
			c-2-3.5-3.1-6.2-3.4-8c-0.3-1.8,0.2-3.2,1.4-4.2c1.2-1,3.4-1.4,6.6-1.1c2.7,0.5,6.6,1.4,11.8,2.7c5.2,1.3,9.5,2.6,12.7,3.8
			c3.2,1.2,5.1,2.5,5.7,4c0.6,1.5,0.9,2.6,0.9,3.4c-0.2,1.1-1,3.5-2.6,7.3c-1.6,3.8-2.4,7.8-2.6,12.2l-0.7,10.3
			c7.3-1.9,12.9-3.3,16.6-4.2l14.1-2.8c5-0.9,8.7-1.4,11-1.4c2.2,0.2,5.6,1.1,10.2,2.7c4.6,1.6,8.1,3.2,10.5,4.6
			c2.4,1.4,3.8,2.8,4,4.1c0.2,1.3-0.6,2.8-2.5,4.3c-1.6,1.4-4.1,2.2-7.7,2.5c-3.6,0.2-9.1,1.1-16.6,2.7l-21.3,3.3l-19.7,3.3
			l-2.1,39.8l23.2-1.4c17-16.2,29.6-28.8,37.7-37.7c8.1-8.9,14.1-16.1,17.9-21.4c3.8-5.4,6.4-9.4,7.9-12.1c1.4-2.7,2.4-5.5,3-8.4
			c0.6-3,1.1-5.9,1.5-8.7c0.4-2.8,1-4.8,1.9-6.1c0.9-1.2,3.9-0.9,9,0.9c4.2,1.7,8.6,5,13,9.7c4.5,4.8,7.7,9.2,9.7,13.2
			c2,4.1,2.3,7.1,0.7,9.1c-0.6,0.6-2,1.5-4.2,2.7c-2.2,1.2-4.8,2.9-7.7,5.3c-3,2.3-6.7,5.5-11.1,9.6c-4.5,4.1-8.3,7.7-11.6,11
			l-29.1,29.8c10.8-1.2,20.9-2.3,30.5-3.3c9.5-0.9,15.2-1.5,17-1.8c1.8-0.2,6.5-1.1,14.2-2.5c7.7-1.4,13.3-2.6,16.9-3.5
			c3.6-0.9,6-1.5,7.3-1.6c4.1-0.3,8.8,0.8,14.2,3.4s9.2,4.7,11.4,6.4c2.2,1.7,4.9,4,8.2,6.9c3.3,2.9,4.9,5,4.9,6.2
			c-0.3,2.2-1.8,3.7-4.3,4.6c-2.6,0.9-6.1,1.4-10.4,1.5l-26,0.9l-72.9,0.7l-32.6,0.7c-7,6.6-12.3,11.3-15.7,14.3l-24.1,19.7
			c-13.1,10.8-20.7,16.7-22.7,17.8l-15.5,9.4c13.7-1.6,24.1-3,31.2-4.5l25.3-5.4c10.2-2,18.2-3.9,24.1-5.7
			c5.9-1.8,10.2-2.7,12.9-2.7c3.8,0.2,7.1,0.9,10.2,2.2c3,1.3,6.9,3.2,11.5,5.7c4.6,2.5,8.2,4.8,10.8,7c2.6,2.2,4.1,4.3,4.5,6.4
			c0.4,2.1-0.1,4.8-1.5,8.1l-3.3,7.5c-1.1,3.1-1.8,7-2.1,11.7c-0.3,4.7-0.5,8.1-0.5,10.2s0,6.4,0,12.8v22l1.2,24.6
			c0.2,5.5-0.1,10.1-0.7,13.8c-0.9,5.5-2.5,10.2-4.7,14.1c-2.2,3.9-4.6,7.1-7.3,9.7c-2.7,2.6-4.9,3.8-6.8,3.6
			c-3.9-0.2-6.2-2.2-6.8-6.1l-4.9-14.8c-13.4,0.8-24.5,1.5-33.3,2.2c-8.8,0.7-18,1.2-27.8,1.6c-9.8,0.4-17,0.9-21.8,1.4
			c-4.8,0.5-7.1,0.7-7.1,0.6l-12.9-0.7l-2.8,6.6c-1.4,3.1-2.9,4.8-4.3,5c-1.5,0.2-3.1-0.6-4.8-2.5c-2-1.9-3.9-6-5.6-12.3
			c-1.7-6.3-2.5-11.1-2.3-14.4c0-1.7,0.4-4.6,1.3-8.7c0.9-4.1,2-10.1,3.3-18c1.3-8,2.1-13.4,2.2-16.2l1.2-23.9
			c0.2-3.9,0.2-6.7,0-8.4c-0.2-1.7-0.4-4.1-0.7-7.3l-1.2-8.7c-11.1,6.3-20.4,11.4-28,15.5c-7.6,4.1-16.7,8.5-27.3,13.4
			c-10.6,4.8-19.1,8.3-25.3,10.3c-6.3,2-16.8,5.1-31.6,9.1l-12.9,3.5c-5.6,1.4-8.6,1.2-9-0.5c-0.4-1.7,1.9-3.8,6.9-6.1l15-6.6
			c9.2-4.1,17.1-7.8,23.7-11.2l26.2-15l32.3-18c9.5-5.6,17.7-10.9,24.5-15.7c6.8-4.8,17.7-12.9,32.7-24.3
			c15-11.3,23.5-17.8,25.5-19.6l12.4-10.3C253.5,335.9,241.3,336.9,231,337.9z M184.2,163.3c-0.7-2.7-1.9-6.3-3.5-11
			s-3.1-8.2-4.3-10.5c-1.3-2.3-3.1-5.3-5.6-8.8c-2.5-3.5-3.5-6-2.9-7.4c0.5-1.4,2.4-2.5,5.5-3.3c3.1-0.8,8.3-0.1,15.5,2
			c7.2,2.1,12.1,3.9,14.8,5.3c2.7,1.4,4.5,3.1,5.4,5.2c0.5,1.6,0.4,4.2-0.4,7.9c-0.7,3.7-1,6.7-0.8,9l0.9,8.7l1.2,11l31.2-4
			c6.4-0.8,9.6,0.5,9.7,3.9c0.1,3.4-2.7,5.7-8.3,7.1l-31.4,8l3.3,27.9c0.6,6.6,0.1,11.1-1.5,13.7s-3.7,3.9-6.1,4.1
			c-2.4,0.2-4.7-3.6-6.7-11.2l-8.4-29.5c-9.7,2.7-17.3,4.8-22.9,6.6c-5.5,1.7-10.3,3.6-14.3,5.7s-7.2,3.4-9.6,3.8
			c-2.4,0.4-5.5-0.6-9.3-2.9c-0.2,0-3-2.3-8.4-6.8c-5.5-4.5-9.1-8-10.8-10.4c-1.7-2.4-2.1-4.3-1.2-5.7s3.1-2.2,6.6-2.3
			c0.6,0,3.8,0.3,9.6,0.9c5.8,0.6,11,0.7,15.7,0.2l14.5-1.9l25.3-3C185.8,169.9,184.9,165.9,184.2,163.3z M243.3,503.3
			c5.9-0.5,14.6-1.4,25.9-2.7c11.3-1.3,19.5-2.1,24.5-2.5c9.4-0.5,15.7,0.2,19,1.9l6.6,3.3c0.5-6.3,0.9-12,1.3-17.3
			c0.4-5.3,0.6-10,0.6-14.1v-16.4c-7,0.6-13.2,1.1-18.6,1.5c-5.4,0.4-10.9,0.9-16.5,1.5l-27.4,3.5c-10.6,1.1-17.7,1.5-21.3,1.2
			l-12.7-1.2c-0.6,13.1-1.2,21.2-1.6,24.1l-2.8,18.3C229.7,504.2,237.4,503.8,243.3,503.3z M225.5,449.9c4.5-0.3,7.9-0.6,10.2-0.8
			c2.3-0.2,10.2-1.3,23.7-3.2c13.5-1.9,23.6-3.5,30.1-4.9s11-2.2,13.4-2.3c3.9-0.2,6.7,0,8.4,0.5l9.1,2.6v-24.1
			c0-7-0.7-11.8-2.1-14.4s-3.4-4.5-5.9-5.7c-2.5-1.2-6.6-1.6-12.2-1.2c-8.4,0.8-13.9,1.4-16.4,1.8c-2.5,0.4-9.8,1.8-22,4.1
			l-19.5,3.8c-5.2,1.1-8.2,1.6-9.1,1.4l-6.6-0.2L225.5,449.9z M326,189.1c-1,2-3.5,6.3-7.5,12.9s-6.8,10.9-8.6,12.9l-8.2,9.8
			c-2,2.5-3.9,3.4-5.7,2.6c-1.8-0.8-2.3-2.1-1.5-4l4.2-10.8c0.2-0.5,1.8-5.5,4.9-15.2l4.7-15c-3.6,0.6-6.5,1.1-8.7,1.4
			c-2.2,0.3-4.5,0.8-7,1.5c-2.5,0.7-4.2,1.1-5.2,1.1c-2,0.2-4.8-0.5-8.2-2c-3.4-1.5-7.1-3.5-10.9-6.1c-3.8-2.6-5.3-4.3-4.5-5.2
			c0.9-0.9,2.1-1.4,3.9-1.8l11.7-1.4l17.6-2.1l14.3-1.9c1.7-7.5,3-13.4,3.9-17.8c0.9-4.4,1.6-8.9,2.3-13.7c0.7-4.8,1.1-8.6,1.1-11.6
			c-0.2-3-0.8-6.3-2-10c-1.2-3.7-1.4-6.1-0.8-7.1c0.6-1.1,2.1-2,4.5-2.6c2.7-0.5,7.3,0.7,14.1,3.5c6.7,2.8,11,4.7,12.9,5.6
			s4.1,2.7,6.6,5.4c2.5,2.7,3.5,5.1,3,7.3c-0.2,0.6-1.3,2.1-3.4,4.6c-2.1,2.4-4.2,6.1-6.2,10.9l-5.4,11.2l-3.5,9.1
			c5.9-0.8,11.2-1.5,15.9-2.2s9.3-1.8,13.7-3.3c4.5-1.5,7.3-2.3,8.6-2.5c2.5-0.2,5.9,0.5,10.1,1.9s7.9,2.7,11.1,4
			c3.2,1.3,6,2.9,8.3,4.9c2.3,2,3.4,3.9,3,5.6c-0.3,1.7-2.4,2.8-6.3,3.3l-15,1.9c-0.9,0.2-7.7,0.6-20.4,1.4l-22.7,2.1l-14.3,1.2
			C328.4,183.7,327,187,326,189.1z"/>
	</g>
	<g>
		<path d="M596.8,318.5c17-1.8,28.1-3.7,33.2-5.5c2.5-1.3,4.1-1.7,4.5-1.5c1.1-0.1,3.5,1.3,7,4.4c2.5,2.5,3.8,4.4,3.8,5.5l0.1,0.3
			c0,1-0.6,1.4-1.8,1.4h-2.4c-1.7-0.1-3.7,0.4-5.8,0.4c-5.3-0.1-14.2,0.6-26.7,2c-19.3,2.1-36.1,3.8-50.9,4.9
			c-6.3,0.1-11,1-14.2,2.2c-2.1,0.6-3.2,0.8-3.7,0.8c-2,0-4.4-1.4-7.2-4.4s-4.2-5.5-4.4-7.6l-0.1-0.4c-0.1-1.4,0.3-2.1,1.5-2.1
			l0.1-0.1c0.1,0,1.7,0.3,2.4,0.4c3.2,1.3,9,2,17.4,2C564,321.2,579.8,320.3,596.8,318.5z"/>
	</g>
	<g>
	</g>
	<g>
	</g>
	<g>
	</g>
	<g>
	</g>
	<g>
	</g>
	<g>
	</g>
	<g>
	</g>
	<g>
	</g>
	<g>
	</g>
	<g>
	</g>
	<g>
	</g>
	<g>
	</g>
	<g>
	</g>
	<g>
	</g>
	<g>
	</g>
	<g>
	</g>
</g>
</svg>
