<?xml version="1.0" encoding="utf-8"?>
<!-- Generator: Adobe Illustrator 18.1.0, SVG Export Plug-In . SVG Version: 6.00 Build 0)  -->
<svg version="1.1" xmlns="http://www.w3.org/2000/svg" xmlns:xlink="http://www.w3.org/1999/xlink" x="0px" y="0px"
	 viewBox="0 0 760 640" enable-background="new 0 0 760 640" xml:space="preserve">
<g id="ruler_under">
	<g id="h_45">
		<g>
			<g>
				<line fill="none" stroke="#999999" stroke-width="2" stroke-miterlimit="10" x1="20.5" y1="601" x2="360.5" y2="601"/>
				<line fill="none" stroke="#999999" stroke-width="2" stroke-miterlimit="10" x1="400.5" y1="601" x2="740.5" y2="601"/>
				<g>
					<rect x="19.5" y="593" fill="#999999" width="2" height="16"/>
				</g>
				<g>
					<rect x="739.5" y="593" fill="#999999" width="2" height="16"/>
				</g>
			</g>
		</g>
		<g>
			<path d="M375.2,610v-4.2h-7.2v-1.4l7-10h2.3v9.7h2.2v1.7h-2.2v4.2H375.2z M375.2,604.1v-5.2c0-0.8,0-1.6,0.1-2.4h-0.1
				c-0.5,0.9-0.9,1.6-1.3,2.3L370,604v0H375.2z"/>
			<path d="M390.2,596.2h-6l-0.6,4c0.4,0,0.7-0.1,1.3-0.1c1.2,0,2.4,0.3,3.4,0.8c1.2,0.7,2.2,2,2.2,4c0,3-2.4,5.3-5.8,5.3
				c-1.7,0-3.1-0.5-3.9-1l0.5-1.6c0.6,0.4,1.9,0.9,3.3,0.9c2,0,3.7-1.3,3.7-3.4c0-2-1.4-3.5-4.5-3.5c-0.9,0-1.6,0.1-2.2,0.2l1-7.5
				h7.5V596.2z"/>
		</g>
	</g>
	<g id="h_30_1_">
		<g>
			<g>
				<line fill="none" stroke="#999999" stroke-width="2" stroke-miterlimit="10" x1="20.5" y1="578" x2="240.5" y2="578"/>
				<line fill="none" stroke="#999999" stroke-width="2" stroke-miterlimit="10" x1="280.5" y1="578" x2="500.5" y2="578"/>
				<g>
					<rect x="19.5" y="570" fill="#999999" width="2" height="16"/>
				</g>
				<g>
					<rect x="499.5" y="570" fill="#999999" width="2" height="16"/>
				</g>
			</g>
		</g>
		<g>
			<path d="M249.1,584.6c0.6,0.4,2,1,3.5,1c2.7,0,3.6-1.7,3.5-3c0-2.2-2-3.1-4-3.1h-1.2v-1.6h1.2c1.5,0,3.5-0.8,3.5-2.6
				c0-1.2-0.8-2.4-2.7-2.4c-1.2,0-2.4,0.6-3.1,1l-0.6-1.5c0.8-0.6,2.4-1.2,4.1-1.2c3.1,0,4.5,1.8,4.5,3.7c0,1.6-1,3-2.9,3.7v0
				c1.9,0.4,3.5,1.8,3.5,4c0,2.5-1.9,4.7-5.7,4.7c-1.8,0-3.3-0.6-4.1-1.1L249.1,584.6z"/>
			<path d="M271.3,579c0,5.3-2,8.2-5.4,8.2c-3,0-5.1-2.9-5.2-8c0-5.2,2.3-8.1,5.4-8.1C269.4,571.1,271.3,574.1,271.3,579z
				 M262.8,579.3c0,4.1,1.2,6.4,3.2,6.4c2.2,0,3.2-2.5,3.2-6.5c0-3.8-1-6.4-3.2-6.4C264.2,572.8,262.8,575,262.8,579.3z"/>
		</g>
	</g>
	<g id="h_15">
		<g>
			<g>
				<line fill="none" stroke="#999999" stroke-width="2" stroke-miterlimit="10" x1="500.5" y1="578" x2="600.5" y2="578"/>
				<line fill="none" stroke="#999999" stroke-width="2" stroke-miterlimit="10" x1="640.5" y1="578" x2="740.5" y2="578"/>
				<g>
					<rect x="499.5" y="570" fill="#999999" width="2" height="16"/>
				</g>
				<g>
					<rect x="739.5" y="570" fill="#999999" width="2" height="16"/>
				</g>
			</g>
		</g>
		<g>
			<path d="M613.2,573.4L613.2,573.4l-2.8,1.5l-0.4-1.6l3.4-1.8h1.8V587h-2V573.4z"/>
			<path d="M630.2,573.2h-6l-0.6,4c0.4,0,0.7-0.1,1.3-0.1c1.2,0,2.4,0.3,3.4,0.8c1.2,0.7,2.2,2,2.2,4c0,3-2.4,5.3-5.8,5.3
				c-1.7,0-3.1-0.5-3.9-1l0.5-1.6c0.6,0.4,1.9,0.9,3.3,0.9c2,0,3.7-1.3,3.7-3.4c0-2-1.4-3.5-4.5-3.5c-0.9,0-1.6,0.1-2.2,0.2l1-7.5
				h7.5V573.2z"/>
		</g>
	</g>
</g>
<g id="ruler_above">
	<g id="h5">
		<g>
			<g>
				<line fill="none" stroke="#999999" stroke-width="2" stroke-miterlimit="10" x1="660.5" y1="58" x2="690.5" y2="58"/>
				<line fill="none" stroke="#999999" stroke-width="2" stroke-miterlimit="10" x1="710.5" y1="58" x2="740.5" y2="58"/>
				<g>
					<rect x="659.5" y="50" fill="#999999" width="2" height="16"/>
				</g>
				<g>
					<rect x="739.5" y="50" fill="#999999" width="2" height="16"/>
				</g>
			</g>
		</g>
		<g>
			<rect x="694.5" y="46.5" fill="none" width="13.9" height="30.4"/>
			<path d="M704.9,52.8h-6l-0.6,4c0.4,0,0.7-0.1,1.3-0.1c1.2,0,2.4,0.3,3.4,0.8c1.2,0.7,2.2,2,2.2,4c0,3-2.4,5.3-5.8,5.3
				c-1.7,0-3.1-0.5-3.9-1l0.5-1.6c0.6,0.4,1.9,0.9,3.3,0.9c2,0,3.7-1.3,3.7-3.4c0-2-1.4-3.5-4.5-3.5c-0.9,0-1.6,0.1-2.2,0.2l1-7.5
				h7.5V52.8z"/>
		</g>
		<g>
		</g>
	</g>
	<g id="h9">
		<g>
			<g>
				<line fill="none" stroke="#999999" stroke-width="2" stroke-miterlimit="10" x1="516.5" y1="58" x2="578.5" y2="58"/>
				<line fill="none" stroke="#999999" stroke-width="2" stroke-miterlimit="10" x1="598.5" y1="58" x2="660.5" y2="58"/>
				<g>
					<rect x="515.5" y="50" fill="#999999" width="2" height="16"/>
				</g>
				<g>
					<rect x="659.5" y="50" fill="#999999" width="2" height="16"/>
				</g>
			</g>
		</g>
		<g>
			<path d="M583.8,65.5c0.5,0,1,0,1.7-0.1c1.2-0.2,2.4-0.7,3.3-1.5c1-0.9,1.8-2.3,2.1-4.2h-0.1c-0.9,1.1-2.1,1.7-3.7,1.7
				c-2.8,0-4.6-2.1-4.6-4.8c0-3,2.1-5.5,5.3-5.5s5.2,2.6,5.2,6.6c0,3.4-1.2,5.8-2.7,7.3c-1.2,1.2-2.9,1.9-4.5,2.1
				c-0.8,0.1-1.4,0.1-1.9,0.1V65.5z M584.6,56.5c0,1.9,1.2,3.3,3,3.3c1.4,0,2.5-0.7,3.1-1.6c0.1-0.2,0.2-0.4,0.2-0.8
				c0-2.7-1-4.7-3.2-4.7C585.9,52.7,584.6,54.3,584.6,56.5z"/>
		</g>
	</g>
</g>
<g id="grid">
	<g>
		<g id="yin_3_">
			<rect x="516.5" y="416.1" fill="#EEEEEE" width="144" height="144"/>
			<line fill="none" stroke="#999999" stroke-width="2" stroke-miterlimit="10" x1="516.5" y1="560" x2="660.5" y2="560"/>
			<line fill="none" stroke="#999999" stroke-width="2" stroke-miterlimit="10" x1="516.5" y1="416" x2="660.5" y2="416"/>
		</g>
		<g id="yin_1_">
			<rect x="516.5" y="272.1" fill="#EEEEEE" width="144" height="144"/>
			<line fill="none" stroke="#999999" stroke-width="2" stroke-miterlimit="10" x1="516.5" y1="416" x2="660.5" y2="416"/>
			<line fill="none" stroke="#999999" stroke-width="2" stroke-miterlimit="10" x1="516.5" y1="272" x2="660.5" y2="272"/>
		</g>
		<g id="yin_2_">
			<rect x="516.5" y="128.1" fill="#EEEEEE" width="144" height="144"/>
			<line fill="none" stroke="#999999" stroke-width="2" stroke-miterlimit="10" x1="516.5" y1="272" x2="660.5" y2="272"/>
			<line fill="none" stroke="#999999" stroke-width="2" stroke-miterlimit="10" x1="516.5" y1="128" x2="660.5" y2="128"/>
		</g>
		<g id="_x35_th">
			<rect x="516.5" y="80" fill="#EEEEEE" width="144" height="32"/>
			<line fill="none" stroke="#999999" stroke-width="2" stroke-miterlimit="10" x1="516.5" y1="80" x2="660.5" y2="80"/>
			<line fill="none" stroke="#999999" stroke-width="2" stroke-miterlimit="10" x1="516.5" y1="112" x2="660.5" y2="112"/>
		</g>
		<g id="inner_1_">
			<line fill="none" stroke="#CCCCCC" stroke-miterlimit="10" x1="180" y1="560" x2="180" y2="80"/>
			<line fill="none" stroke="#CCCCCC" stroke-miterlimit="10" x1="341" y1="560" x2="341" y2="80"/>
			<line fill="none" stroke="#CCCCCC" stroke-miterlimit="10" x1="20.5" y1="239.5" x2="500.5" y2="239.5"/>
			<line fill="none" stroke="#CCCCCC" stroke-miterlimit="10" x1="20.5" y1="400.5" x2="500.5" y2="400.5"/>
		</g>
		<g id="outer_1_">
			
				<rect id="zhuyin_1_" x="20.5" y="80.1" fill="none" stroke="#999999" stroke-width="2" stroke-miterlimit="10" width="720" height="480"/>
			
				<rect id="char_1_" x="20.5" y="80.1" fill="none" stroke="#999999" stroke-width="2" stroke-miterlimit="10" width="480" height="480"/>
			<line fill="none" stroke="#999999" stroke-width="2" stroke-miterlimit="10" x1="660.5" y1="560" x2="660.5" y2="80"/>
			<line fill="none" stroke="#999999" stroke-width="2" stroke-miterlimit="10" x1="516.5" y1="560" x2="516.5" y2="80"/>
		</g>
	</g>
</g>
<g id="ruler_symbol">
	<g id="v9_1_">
		<g>
			<g>
				<line fill="none" stroke="#29ABE2" stroke-width="2" stroke-miterlimit="10" x1="587.5" y1="418" x2="587.5" y2="475"/>
				<line fill="none" stroke="#29ABE2" stroke-width="2" stroke-miterlimit="10" x1="587.5" y1="501" x2="587.5" y2="558"/>
				<g>
					<polygon fill="#29ABE2" points="579.3,424.6 580.7,426 587.5,418.8 594.2,426 595.6,424.6 587.5,415.8 					"/>
				</g>
				<g>
					<polygon fill="#29ABE2" points="579.3,551.4 580.7,550 587.5,557.2 594.2,550 595.6,551.4 587.5,560.2 					"/>
				</g>
			</g>
		</g>
		<g>
			<path d="M583.6,493.8c0.5,0,1,0,1.7-0.1c1.2-0.2,2.4-0.7,3.3-1.5c1-0.9,1.8-2.3,2.1-4.2h-0.1c-0.9,1.1-2.1,1.7-3.7,1.7
				c-2.8,0-4.6-2.1-4.6-4.8c0-3,2.1-5.5,5.3-5.5s5.2,2.6,5.2,6.6c0,3.4-1.2,5.8-2.7,7.3c-1.2,1.2-2.9,1.9-4.5,2.1
				c-0.8,0.1-1.4,0.1-1.9,0.1V493.8z M584.4,484.8c0,1.9,1.2,3.3,3,3.3c1.4,0,2.5-0.7,3.1-1.6c0.1-0.2,0.2-0.4,0.2-0.8
				c0-2.7-1-4.7-3.2-4.7C585.7,481,584.4,482.6,584.4,484.8z"/>
		</g>
	</g>
	<g id="v9_4_">
		<g>
			<g>
				<line fill="none" stroke="#29ABE2" stroke-width="2" stroke-miterlimit="10" x1="587.5" y1="274" x2="587.5" y2="331"/>
				<line fill="none" stroke="#29ABE2" stroke-width="2" stroke-miterlimit="10" x1="587.5" y1="357" x2="587.5" y2="414"/>
				<g>
					<polygon fill="#29ABE2" points="579.3,280.6 580.7,282 587.5,274.8 594.2,282 595.6,280.6 587.5,271.8 					"/>
				</g>
				<g>
					<polygon fill="#29ABE2" points="579.3,407.4 580.7,406 587.5,413.2 594.2,406 595.6,407.4 587.5,416.2 					"/>
				</g>
			</g>
		</g>
		<g>
			<path d="M583.6,349.8c0.5,0,1,0,1.7-0.1c1.2-0.2,2.4-0.7,3.3-1.5c1-0.9,1.8-2.3,2.1-4.2h-0.1c-0.9,1.1-2.1,1.7-3.7,1.7
				c-2.8,0-4.6-2.1-4.6-4.8c0-3,2.1-5.5,5.3-5.5s5.2,2.6,5.2,6.6c0,3.4-1.2,5.8-2.7,7.3c-1.2,1.2-2.9,1.9-4.5,2.1
				c-0.8,0.1-1.4,0.1-1.9,0.1V349.8z M584.4,340.8c0,1.9,1.2,3.3,3,3.3c1.4,0,2.5-0.7,3.1-1.6c0.1-0.2,0.2-0.4,0.2-0.8
				c0-2.7-1-4.7-3.2-4.7C585.7,337,584.4,338.6,584.4,340.8z"/>
		</g>
	</g>
	<g id="v9_5_">
		<g>
			<g>
				<line fill="none" stroke="#29ABE2" stroke-width="2" stroke-miterlimit="10" x1="587.5" y1="130" x2="587.5" y2="187"/>
				<line fill="none" stroke="#29ABE2" stroke-width="2" stroke-miterlimit="10" x1="587.5" y1="213" x2="587.5" y2="270"/>
				<g>
					<polygon fill="#29ABE2" points="579.3,136.6 580.7,138 587.5,130.8 594.2,138 595.6,136.6 587.5,127.8 					"/>
				</g>
				<g>
					<polygon fill="#29ABE2" points="579.3,263.4 580.7,262 587.5,269.2 594.2,262 595.6,263.4 587.5,272.2 					"/>
				</g>
			</g>
		</g>
		<g>
			<path d="M583.6,205.8c0.5,0,1,0,1.7-0.1c1.2-0.2,2.4-0.7,3.3-1.5c1-0.9,1.8-2.3,2.1-4.2h-0.1c-0.9,1.1-2.1,1.7-3.7,1.7
				c-2.8,0-4.6-2.1-4.6-4.8c0-3,2.1-5.5,5.3-5.5s5.2,2.6,5.2,6.6c0,3.4-1.2,5.8-2.7,7.3c-1.2,1.2-2.9,1.9-4.5,2.1
				c-0.8,0.1-1.4,0.1-1.9,0.1V205.8z M584.4,196.8c0,1.9,1.2,3.3,3,3.3c1.4,0,2.5-0.7,3.1-1.6c0.1-0.2,0.2-0.4,0.2-0.8
				c0-2.7-1-4.7-3.2-4.7C585.7,193,584.4,194.6,584.4,196.8z"/>
		</g>
	</g>
	<g>
		<path fill="#6D6D6D" d="M549.5,308c0.1-0.2,0.2-0.2,0.3-0.1c0.9,0.5,1.9,1.2,2.8,2.1c0.1,0.1,0.1,0.1-0.1,0.3l-0.4,0.6
			c-0.1,0.2-0.2,0.2-0.3,0.1c-0.9-0.9-1.7-1.6-2.7-2.2c-0.1-0.1-0.1-0.1,0-0.3L549.5,308z M550.9,319.1c-0.2,0.4-0.4,0.7-0.4,0.8
			c0,0.1-0.1,0.2-0.2,0.2c-0.1,0-0.1,0-0.3-0.1c-0.3-0.2-0.6-0.5-0.9-0.7c0.4-0.4,0.7-0.8,1.1-1.6c0.7-1.3,1.3-2.5,2.1-4.4
			c0.1,0.2,0.3,0.4,0.6,0.6c0.3,0.2,0.3,0.2,0.2,0.6C552.4,316.2,551.8,317.6,550.9,319.1z M550.7,303.2c0.1-0.2,0.2-0.2,0.3-0.1
			c0.9,0.6,1.9,1.4,2.7,2.2c0.1,0.1,0.1,0.1-0.1,0.3l-0.4,0.5c-0.1,0.2-0.2,0.2-0.3,0.1c-0.9-0.9-1.7-1.6-2.7-2.3
			c-0.1-0.1-0.1-0.1,0-0.3L550.7,303.2z M566.6,319.5c0,0.1,0,0.2-0.2,0.2c-0.1,0-0.8,0-2.8,0h-7.4c-2,0-2.7,0-2.8,0
			c-0.1,0-0.2,0-0.2-0.2v-0.9c0-0.1,0-0.2,0.2-0.2c0.1,0,0.8,0,2.8,0h2.9v-5.2h-1.5c-1.9,0-2.5,0-2.7,0c-0.1,0-0.1,0-0.1-0.2v-0.9
			c0-0.1,0-0.2,0.1-0.2c0.1,0,0.7,0,2.7,0h1.5V308h-2c-2,0-2.6,0-2.7,0c-0.1,0-0.2,0-0.2-0.2V307c0-0.1,0-0.2,0.2-0.2
			c0.1,0,0.7,0,2.7,0h5.8c2,0,2.6,0,2.8,0c0.1,0,0.2,0,0.2,0.2v0.9c0,0.1,0,0.2-0.2,0.2c-0.1,0-0.8,0-2.8,0h-2.5v4.2h2
			c1.9,0,2.5,0,2.6,0c0.2,0,0.2,0,0.2,0.2v0.9c0,0.1,0,0.2-0.2,0.2c-0.1,0-0.7,0-2.6,0h-2v5.2h3.2c2,0,2.7,0,2.8,0
			c0.1,0,0.2,0,0.2,0.2V319.5z M558.1,302.7c0.2-0.2,0.2-0.2,0.3-0.1c1,0.6,2.2,1.4,3.2,2.3c0.1,0.1,0.1,0.2-0.1,0.3l-0.4,0.5
			c-0.2,0.2-0.2,0.2-0.4,0.1c-1-1-2.1-1.8-3.2-2.4c-0.1-0.1-0.1-0.1,0.1-0.3L558.1,302.7z"/>
		<path fill="#6D6D6D" d="M566.6,330.2c0,0.1,0,0.2-0.2,0.2c-0.1,0-0.7,0-2.6,0h-12.2c-1.8,0-2.5,0-2.6,0c-0.1,0-0.2,0-0.2-0.2v-0.9
			c0-0.1,0-0.2,0.2-0.2c0.1,0,0.7,0,2.6,0h2.7c-0.3-1-0.6-1.7-1.1-2.6c-0.1-0.1,0-0.1,0.2-0.2l0.6-0.2c0.2-0.1,0.2,0,0.3,0.1
			c0.5,0.8,0.9,1.8,1.2,2.9h3.8c0.4-0.8,0.7-1.6,0.9-2.2c0.1-0.3,0.2-0.6,0.2-1c0.4,0.1,0.9,0.2,1.2,0.3c0.2,0.1,0.2,0.1,0.2,0.2
			c0,0.1-0.1,0.2-0.1,0.3c-0.1,0.1-0.2,0.2-0.3,0.4c-0.3,0.6-0.6,1.3-0.9,1.9h3.2c1.9,0,2.5,0,2.6,0c0.1,0,0.2,0,0.2,0.2V330.2z
			 M565.2,325.5c0,0.2,0,0.2-0.2,0.2c-0.1,0-0.8,0-2.8,0H553c-2,0-2.7,0-2.8,0c-0.1,0-0.2,0-0.2-0.2v-0.8c0-0.1,0-0.2,0.2-0.2
			c0.1,0,0.8,0,2.8,0h3.9v-0.1c0-1,0-1.5-0.1-2c0.5,0,0.9,0,1.3,0.1c0.2,0,0.2,0.1,0.2,0.2c0,0.1,0,0.2-0.1,0.4
			c-0.1,0.2-0.1,0.5-0.1,1.4v0.1h4.2c2,0,2.7,0,2.8,0c0.1,0,0.2,0,0.2,0.2V325.5z M563.2,336.6c0,3.1,0,3.6,0,3.7
			c0,0.1,0,0.2-0.2,0.2h-0.9c-0.1,0-0.2,0-0.2-0.2v-0.9h-8.7v1c0,0.1,0,0.1-0.2,0.1h-0.9c-0.1,0-0.2,0-0.2-0.1s0-0.6,0-3.8v-1.9
			c0-1.9,0-2.4,0-2.5c0-0.1,0-0.2,0.2-0.2c0.1,0,0.8,0,2.7,0h5.4c2,0,2.6,0,2.7,0c0.1,0,0.2,0,0.2,0.2c0,0.1,0,0.6,0,2.3V336.6z
			 M562,333.1h-8.7v2h8.7V333.1z M562,336.2h-8.7v2.2h8.7V336.2z"/>
		<path fill="#6D6D6D" d="M557.5,345.4c0,0.1,0,0.2-0.2,0.2c-0.1,0-0.6,0-2.2,0h-0.8c0.4,0.6,0.6,1.2,0.9,2c0,0.1,0,0.2-0.2,0.2
			l-0.7,0.2c-0.3,0.1-0.3,0.1-0.3-0.1c-0.2-0.8-0.6-1.6-0.9-2.3h-1.6c-0.5,0.8-1.2,1.6-1.8,2.3c-0.1,0.1-0.2,0.2-0.3,0.2
			c-0.1,0-0.1-0.1-0.3-0.2c-0.2-0.2-0.4-0.4-0.6-0.5c1.3-1.2,2.2-2.5,2.8-3.9c0.2-0.4,0.2-0.7,0.3-1c0.5,0.1,0.9,0.2,1.2,0.3
			c0.1,0,0.2,0.1,0.2,0.2c0,0.1-0.1,0.2-0.2,0.2c-0.1,0.1-0.2,0.2-0.3,0.5c-0.1,0.3-0.3,0.6-0.4,0.8h3.1c1.6,0,2,0,2.2,0
			c0.1,0,0.2,0,0.2,0.2V345.4z M551.8,354.7c0-0.7,0-1.7,0-2.5c-0.6,0.8-1.4,1.6-2.1,2.2c-0.1,0.1-0.2,0.2-0.3,0.2
			c-0.1,0-0.2-0.1-0.3-0.3c-0.2-0.3-0.3-0.5-0.5-0.6c1.9-1.5,3.2-3.1,4.1-4.8c0.2-0.4,0.4-0.8,0.5-1.1c0.4,0.2,0.8,0.3,1.1,0.5
			c0.1,0.1,0.2,0.2,0.2,0.2c0,0.1,0,0.2-0.2,0.2c-0.1,0.1-0.3,0.3-0.5,0.6c-0.2,0.4-0.5,0.9-0.8,1.4v7.1c0,1.7,0,2.4,0,2.5
			c0,0.1,0,0.1-0.1,0.1h-1c-0.1,0-0.2,0-0.2-0.1c0-0.1,0-0.8,0-2.5V354.7z M566.5,351.5c0,0.1,0,0.2-0.2,0.2c-0.1,0-0.8,0-2.8,0
			h-0.3v3.9c0,1.1,0,2,0,3c0,0.7-0.1,1.2-0.6,1.4c-0.5,0.3-1.2,0.3-2.8,0.3c-0.4,0-0.4,0-0.5-0.4c-0.1-0.4-0.2-0.7-0.4-0.9
			c0.6,0.1,1.1,0.1,1.8,0.1c1.1,0,1.3-0.1,1.3-0.8v-6.6h-4.9c-2,0-2.7,0-2.8,0c-0.1,0-0.2,0-0.2-0.2v-0.9c0-0.1,0-0.2,0.2-0.2
			c0.1,0,0.8,0,2.8,0h4.9v-0.1c0-1.2,0-1.8-0.1-2.4c0.5,0,0.9,0.1,1.3,0.1c0.1,0,0.3,0.1,0.3,0.2c0,0.1-0.1,0.2-0.1,0.4
			c-0.1,0.2-0.1,0.6-0.1,1.7v0.1h0.3c2,0,2.7,0,2.8,0c0.1,0,0.2,0,0.2,0.2V351.5z M556.5,353.1c0.2-0.1,0.2-0.1,0.3,0
			c1,0.9,1.7,1.8,2.4,3c0.1,0.1,0,0.2-0.1,0.3l-0.5,0.4c-0.2,0.2-0.3,0.2-0.4,0c-0.7-1.2-1.4-2.2-2.3-3c-0.1-0.1-0.1-0.2,0.1-0.3
			L556.5,353.1z M566.4,345.4c0,0.1,0,0.2-0.1,0.2c-0.1,0-0.7,0-2.4,0h-1.5c0.4,0.5,0.7,1.1,0.9,1.8c0,0.1,0,0.2-0.2,0.2l-0.6,0.2
			c-0.3,0.1-0.3,0.1-0.4-0.1c-0.2-0.7-0.6-1.4-1-2.1h-1.7c-0.4,0.7-0.9,1.5-1.5,2.2c-0.1,0.1-0.2,0.2-0.3,0.2s-0.2-0.1-0.3-0.2
			c-0.2-0.2-0.4-0.3-0.7-0.4c1.2-1.3,1.9-2.5,2.4-3.9c0.1-0.2,0.2-0.6,0.2-0.9c0.4,0.1,0.9,0.2,1.2,0.3c0.1,0,0.2,0.1,0.2,0.2
			c0,0.1-0.1,0.2-0.2,0.3c-0.1,0.1-0.1,0.2-0.3,0.5c-0.1,0.3-0.2,0.5-0.3,0.8h3.9c1.7,0,2.3,0,2.4,0c0.1,0,0.1,0,0.1,0.2V345.4z"/>
		<path fill="#6D6D6D" d="M555.9,371.3c0,0.1,0,0.2-0.2,0.2c-0.1,0-0.6,0-2.1,0H552c-0.2,0.7-0.4,1.4-0.6,2.1h1.9c0.6,0,1.1,0,1.4,0
			c0.1,0,0.2,0,0.2,0.2c-0.1,0.3-0.1,0.7-0.1,1c-0.2,2.1-0.4,3.5-0.8,4.5c-0.3,0.6-0.8,0.9-1.6,0.9c-0.3,0-0.7,0-1-0.1
			c-0.3,0-0.3-0.1-0.4-0.4c-0.1-0.3-0.2-0.7-0.3-0.8c0.6,0.1,1,0.2,1.4,0.2c0.5,0,0.8-0.1,0.9-0.5c0.3-0.9,0.5-2.4,0.6-4h-2.7
			l-0.3,0.8c-0.1,0.1-0.1,0.1-0.3,0.1l-0.6-0.1c-0.2-0.1-0.2-0.1-0.2-0.2c0.5-1.2,0.9-2.5,1.2-3.7c-1.4,0-1.9,0-2,0
			c-0.1,0-0.1,0-0.1-0.2v-0.8c0-0.1,0-0.2,0.1-0.2c0.1,0,0.6,0,2.1,0h2.6c1.6,0,2,0,2.1,0c0.1,0,0.2,0,0.2,0.2V371.3z M555.1,366.9
			c0,1.1,0,1.5,0,1.6c0,0.1,0,0.2-0.2,0.2c-0.1,0-0.5,0-1.7,0h-1.6c-1.2,0-1.6,0-1.8,0c-0.1,0-0.2,0-0.2-0.2c0-0.1,0-0.5,0-1.6v-1.7
			c0-1.1,0-1.5,0-1.6c0-0.1,0-0.2,0.2-0.2c0.1,0,0.5,0,1.8,0h1.6c1.3,0,1.6,0,1.7,0c0.1,0,0.2,0,0.2,0.2c0,0.1,0,0.5,0,1.6V366.9z
			 M554,364.5h-3.2v3.2h3.2V364.5z M565.2,366.5c0.2,0,0.3,0,0.3-0.1s0.2-0.1,0.2-0.1c0.2,0,0.3,0.1,0.6,0.3
			c0.3,0.2,0.4,0.4,0.4,0.5c0,0.1-0.1,0.2-0.2,0.2c-0.1,0.1-0.2,0.2-0.3,0.5c-0.2,0.4-0.5,0.9-0.9,1.6c-0.1,0.2-0.2,0.2-0.2,0.2
			s-0.1,0-0.3-0.1c-0.2-0.1-0.5-0.2-0.7-0.3c0.5-0.6,0.8-1.2,1.1-1.7h-7.5v2.3c0,1.6,0,3.5-0.2,5.2c-0.2,1.7-0.7,3.5-1.7,5.1
			c-0.1,0.1-0.2,0.2-0.2,0.2c-0.1,0-0.1-0.1-0.3-0.2c-0.2-0.2-0.5-0.4-0.7-0.5c1.2-1.5,1.6-3.2,1.8-5c0.2-1.5,0.2-3.2,0.2-4.9
			c0-2.1,0-3,0-3.1c0-0.1,0-0.2,0.1-0.2c0.1,0,0.8,0,2.6,0h1.1v-2.6c0-0.6,0-1.1-0.1-1.5c0.5,0,0.8,0,1.2,0.1c0.1,0,0.2,0.1,0.2,0.2
			s-0.1,0.2-0.1,0.3c-0.1,0.1-0.1,0.5-0.1,1v0.1h2c1.1,0,1.4,0,1.5,0c0.1,0,0.2,0,0.2,0.2v0.7c0,0.2,0,0.2-0.2,0.2
			c-0.1,0-0.4,0-1.5,0h-2v1.4H565.2z M560.9,374.7c-0.1,0.2-0.1,0.5-0.1,1c-0.2,2-0.8,3.5-2.9,4.7c-0.1,0.1-0.2,0.1-0.3,0.1
			c-0.1,0-0.2-0.1-0.3-0.2c-0.2-0.2-0.4-0.4-0.6-0.5c2.1-0.9,2.8-2.1,2.9-4.1c0-0.6,0-1.1,0-1.6c0.4,0,0.8,0.1,1.1,0.1
			c0.2,0,0.3,0.1,0.3,0.2C561,374.4,560.9,374.6,560.9,374.7z M561.1,371.3c0,0.5,0.1,0.7,0.3,0.8c0.2,0.1,0.7,0.1,1.4,0.1
			c0.8,0,1.4-0.1,1.7-0.3c0.3-0.2,0.4-0.7,0.4-1.6c0.2,0.2,0.5,0.3,0.7,0.4c0.3,0.1,0.3,0.1,0.3,0.4c-0.1,0.8-0.3,1.2-0.6,1.5
			c-0.3,0.3-1.2,0.5-2.4,0.5c-1,0-1.8-0.1-2.1-0.2c-0.3-0.2-0.6-0.4-0.6-1.3v-1l-1.7,0.2c-0.1,0-0.1,0-0.2-0.1l-0.1-0.7
			c0-0.1,0-0.1,0.1-0.1s0.5,0,1.8-0.2v-0.4c0-0.6-0.1-1.2-0.1-1.4c0.4,0,0.8,0.1,1.1,0.1c0.1,0,0.2,0.1,0.2,0.2c0,0.1,0,0.1-0.1,0.2
			c-0.1,0.1-0.1,0.3-0.1,0.9v0.2l0.8-0.1c1.3-0.1,1.7-0.2,1.8-0.3c0.1,0,0.1,0,0.1,0.1l0.1,0.7c0,0.1,0,0.2-0.1,0.2l-1.8,0.2
			l-0.9,0.1V371.3z M563.4,378.5c0,0.4,0,0.5,0.2,0.6c0.2,0.1,0.4,0.1,0.9,0.1c0.7,0,0.9-0.1,1.1-0.4c0.2-0.3,0.3-0.9,0.3-2.1
			c0.2,0.1,0.4,0.2,0.7,0.4c0.3,0.1,0.3,0.1,0.3,0.5c-0.1,1.3-0.2,1.8-0.5,2.1c-0.3,0.3-0.5,0.6-1.9,0.6c-0.8,0-1.3,0-1.7-0.2
			c-0.3-0.2-0.5-0.5-0.5-1.3v-2.4c0-1,0-1.7-0.1-2.2c0.4,0,0.8,0.1,1.2,0.1c0.1,0,0.2,0.1,0.2,0.2c0,0.1-0.1,0.2-0.1,0.4
			c-0.1,0.2-0.1,0.4-0.1,1.5V378.5z"/>
	</g>
</g>
<g id="ruler_5th-tone">
	<g id="v2">
		<g>
			<g>
				<line fill="none" stroke="#29ABE2" stroke-width="2" stroke-miterlimit="10" x1="587.5" y1="83" x2="587.5" y2="109"/>
				<g>
					<polygon fill="#29ABE2" points="579.3,89.9 580.8,91.2 587.5,84 594.2,91.2 595.7,89.9 587.5,81.1 					"/>
				</g>
				<g>
					<polygon fill="#29ABE2" points="579.3,102.3 580.8,100.9 587.5,108.1 594.2,100.9 595.7,102.3 587.5,111.1 					"/>
				</g>
			</g>
		</g>
		<g>
			<path d="M565.7,103.2v-1.2l1.7-1.5c4-3.4,5.8-5.3,5.8-7.4c0-1.4-0.8-2.8-3.1-2.8c-1.4,0-2.6,0.7-3.3,1.2l-0.7-1.4
				c1.1-0.8,2.6-1.4,4.4-1.4c3.4,0,4.8,2.1,4.8,4.1c0,2.6-2.1,4.7-5.4,7.6l-1.2,1v0h7v1.6H565.7z"/>
		</g>
	</g>
	<g>
		<path fill="#6D6D6D" d="M607.9,90.2c0,0.1,0,0.2-0.2,0.2c-0.1,0-0.7,0-2.4,0h-0.4v1.7h0.2c1.5,0,2,0,2.1,0c0.1,0,0.2,0,0.2,0.2
			c0,0.1,0,0.6,0,1.9v2.7c0,1.3,0,1.8,0,1.9c0,0.1,0,0.2-0.2,0.2c-0.1,0-0.6,0-2.1,0h-0.2v1.8h0.4c1.8,0,2.3,0,2.4,0
			c0.1,0,0.2,0,0.2,0.2v0.7c0,0.1,0,0.2-0.2,0.2c-0.1,0-0.7,0-2.4,0h-0.4c0,2.3,0,3.3,0,3.4c0,0.1,0,0.2-0.2,0.2H604
			c-0.1,0-0.2,0-0.2-0.2c0-0.1,0-1.1,0-3.4h-0.7c-1.7,0-2.3,0-2.4,0c-0.1,0-0.2,0-0.2-0.2v-0.7c0-0.1,0-0.2,0.2-0.2
			c0.1,0,0.7,0,2.4,0h0.7v-1.8h-0.1c-1.5,0-2.1,0-2.2,0c-0.1,0-0.2,0-0.2-0.2c0-0.1,0-0.6,0-1.9v-2.7c0-1.3,0-1.8,0-1.9
			c0-0.1,0-0.2,0.2-0.2c0.1,0,0.7,0,2.2,0h0.1v-1.7h-0.6c-1.7,0-2.3,0-2.4,0c-0.1,0-0.2,0-0.2-0.2v-0.7c0-0.1,0-0.2,0.2-0.2
			c0.1,0,0.7,0,2.4,0h0.6c0-1.2,0-1.7-0.1-2.3c0.5,0,0.8,0,1.2,0.1c0.2,0,0.2,0.1,0.2,0.2c0,0.1-0.1,0.2-0.1,0.3
			c-0.1,0.2-0.1,0.6-0.1,1.7v0h0.4c1.8,0,2.3,0,2.4,0c0.1,0,0.2,0,0.2,0.2V90.2z M603.9,92.9h-1.5v2h1.5V92.9z M603.9,95.8h-1.5v2.1
			h1.5V95.8z M606.4,92.9h-1.5v2h1.5V92.9z M606.4,95.8h-1.5v2.1h1.5V95.8z M618.9,104.2c0,0.1,0,0.2-0.2,0.2c-0.1,0-0.7,0-2.6,0
			h-5.9c-1.9,0-2.5,0-2.6,0c-0.1,0-0.2,0-0.2-0.2v-0.8c0-0.1,0-0.2,0.2-0.2c0.1,0,0.7,0,2.6,0h2.3v-3.7H611c-1.8,0-2.4,0-2.5,0
			c-0.1,0-0.1,0-0.1-0.2v-0.8c0-0.1,0-0.2,0.1-0.2c0.1,0,0.7,0,2.5,0h4.6c1.8,0,2.4,0,2.5,0c0.1,0,0.2,0,0.2,0.2v0.8
			c0,0.1,0,0.2-0.2,0.2c-0.1,0-0.7,0-2.5,0h-1.9v3.7h2.4c1.9,0,2.5,0,2.6,0c0.1,0,0.2,0,0.2,0.2V104.2z M610.5,97.7
			c-0.2,0.1-0.3,0.1-0.3,0c-0.6-1.4-1.2-2.4-2-3.5c-0.1-0.1-0.1-0.2-0.1-0.3c0-0.1,0-0.2,0.2-0.3c0.7-0.8,1.2-1.7,1.7-2.6
			c0.1-0.3,0.3-0.6,0.3-0.9c0.4,0.1,0.7,0.3,1,0.4c0.2,0.1,0.2,0.1,0.2,0.2c0,0.1-0.1,0.2-0.2,0.3c-0.1,0.1-0.3,0.4-0.5,0.7
			c-0.4,0.7-0.9,1.4-1.5,2.2c0.7,0.9,1.4,2,2,3.3c0.1,0.1,0.1,0.2-0.1,0.3L610.5,97.7z M618.5,89.2c0,0.1,0,0.2-0.1,0.2
			c-0.1,0-0.7,0-2.6,0h-4.9c-1.8,0-2.4,0-2.5,0c-0.1,0-0.2,0-0.2-0.2v-0.8c0-0.1,0-0.2,0.2-0.2c0.1,0,0.7,0,2.5,0h4.9
			c1.8,0,2.5,0,2.6,0c0.1,0,0.1,0,0.1,0.2V89.2z M614.2,97.6c-0.2,0.1-0.3,0.2-0.3,0c-0.7-1.3-1.4-2.5-2.3-3.5
			c-0.1-0.1-0.2-0.2-0.2-0.3s0.1-0.2,0.2-0.3c0.7-0.9,1.2-1.7,1.7-2.6c0.1-0.3,0.3-0.6,0.3-0.9c0.4,0.1,0.7,0.3,1,0.4
			c0.2,0.1,0.3,0.1,0.3,0.2c0,0.1-0.1,0.2-0.2,0.3c-0.1,0.1-0.3,0.4-0.5,0.7c-0.4,0.6-0.9,1.4-1.5,2.2c0.8,1,1.5,2,2.2,3.2
			c0.1,0.1,0,0.2-0.1,0.3L614.2,97.6z M617.6,97.7c-0.2,0.1-0.2,0.2-0.3,0c-0.7-1.3-1.6-2.7-2.5-3.6c-0.1-0.1-0.1-0.2-0.1-0.3
			c0-0.1,0-0.2,0.1-0.3c0.7-0.8,1.2-1.7,1.7-2.6c0.1-0.3,0.2-0.6,0.3-0.9c0.4,0.1,0.7,0.3,1,0.4c0.2,0.1,0.2,0.1,0.2,0.2
			c0,0.1-0.1,0.2-0.2,0.3s-0.2,0.3-0.4,0.7c-0.4,0.7-0.9,1.5-1.5,2.2c0.8,0.9,1.7,2.1,2.4,3.4c0.1,0.1,0,0.2-0.1,0.3L617.6,97.7z"/>
		<path fill="#6D6D6D" d="M629.2,93.8c0,0.7,0,0.9,0,1c0,0.1,0,0.2-0.2,0.2c-0.1,0-0.6,0-2.1,0H623c-0.2,0.9-0.6,1.7-1.3,2.4
			c-0.1,0.1-0.2,0.2-0.3,0.2c-0.1,0-0.1,0-0.3-0.1c-0.2-0.2-0.4-0.3-0.6-0.4c1.3-1.1,1.6-2.4,1.6-4.2c0-0.4,0-0.6,0-0.7
			c0-0.1,0-0.2,0.2-0.2c0.1,0,0.6,0,2.2,0h2.5c1.5,0,2,0,2.1,0c0.1,0,0.2,0,0.2,0.2c0,0.1,0,0.3,0,1V93.8z M634.8,102.6
			c1.2-0.1,2.5-0.2,3.7-0.3c-0.1,0.1-0.1,0.3-0.1,0.5c-0.1,0.4-0.1,0.4-0.5,0.4c-0.8,0.1-1.9,0.2-3.1,0.2c0,1,0,1.4,0,1.5
			c0,0.1,0,0.2-0.2,0.2h-0.9c-0.2,0-0.2,0-0.2-0.2c0-0.1,0-0.5,0-1.4c-1.4,0.1-3,0.1-4.4,0.2c-2.9,0.1-4.8,0.2-7.1,0.2
			c-0.4,0-0.7,0-0.9,0.1c-0.1,0.1-0.2,0.1-0.3,0.1c-0.1,0-0.1-0.1-0.2-0.2c-0.1-0.3-0.2-0.6-0.2-1c0.5,0,1.1,0.1,2.2,0.1
			c0.4,0,1,0,1.7,0v-4.7c-1.6,0-2.2,0-2.3,0c-0.1,0-0.2,0-0.2-0.2v-0.6c0-0.1,0-0.2,0.2-0.2c0.1,0,0.7,0,2.7,0H635
			c1.9,0,2.6,0,2.7,0c0.1,0,0.2,0,0.2,0.2v0.6c0,0.1,0,0.2-0.2,0.2c-0.1,0-0.8,0-2.7,0h-0.2V102.6z M630,89c0,0.1,0,0.2-0.2,0.2
			c-0.1,0-0.7,0-2.5,0h-1.3v1.1h0.9c1.6,0,2.1,0,2.2,0c0.1,0,0.2,0,0.2,0.2v0.6c0,0.1,0,0.2-0.2,0.2c-0.1,0-0.6,0-2.2,0h-2.7
			c-1.6,0-2.1,0-2.2,0c-0.2,0-0.2,0-0.2-0.2v-0.6c0-0.1,0-0.2,0.2-0.2c0.1,0,0.6,0,2.2,0h0.8v-1.1h-1.4c-1.8,0-2.4,0-2.5,0
			c-0.1,0-0.2,0-0.2-0.2v-0.6c0-0.1,0-0.1,0.2-0.1c0.1,0,0.7,0,2.5,0h1.4v-0.1c0-0.4,0-0.9-0.1-1.3c0.5,0,0.8,0.1,1.1,0.1
			c0.1,0,0.2,0.1,0.2,0.2c0,0.1,0,0.1-0.1,0.2c-0.1,0.2-0.1,0.3-0.1,0.8v0h1.3c1.8,0,2.3,0,2.4,0c0.1,0,0.2,0,0.2,0.2V89z
			 M625.3,92.7h-2.1v0.1c0,0.5,0,0.9-0.1,1.3h2.2V92.7z M633.6,98.3h-8v0.9h8V98.3z M633.6,100h-8v1h8V100z M633.6,101.7h-8v1.2
			c0.7,0,1.4,0,2.2,0c1.9,0,3.9-0.1,5.9-0.2V101.7z M628.3,92.7h-2.1v1.5h2.1V92.7z M635.7,91.9c0.2,0,0.3,0,0.4-0.1
			c0,0,0.1,0,0.2,0c0.1,0,0.2,0,0.5,0.3c0.3,0.3,0.4,0.4,0.4,0.5c0,0.1,0,0.2-0.2,0.2c-0.1,0.1-0.3,0.3-0.6,0.6
			c-0.5,0.6-1.1,1.1-1.7,1.6c1.2,0.6,2.6,0.9,4.1,1.1c-0.2,0.2-0.3,0.4-0.4,0.6c-0.2,0.4-0.2,0.4-0.6,0.3c-1.5-0.2-2.9-0.7-4.1-1.4
			c-1.1,0.6-2.4,1-4,1.4c-0.3,0.1-0.4,0.1-0.5-0.2c-0.1-0.3-0.2-0.4-0.4-0.6c1.5-0.2,2.9-0.6,4-1.2c-0.8-0.6-1.5-1.3-1.9-2.2
			c-0.6,0-0.8,0-0.9,0c-0.2,0-0.2,0-0.2-0.2V92c0-0.1,0-0.2,0.2-0.2c0.1,0,0.6,0,2.2,0H635.7z M635.6,89.5c0,0.2,0,0.4,0.2,0.5
			c0.1,0.1,0.4,0.1,0.8,0.1c0.5,0,0.7-0.1,0.9-0.3c0.1-0.2,0.1-0.5,0.2-1.2c0.2,0.2,0.4,0.3,0.7,0.4c0.3,0.1,0.3,0.1,0.3,0.5
			c-0.1,0.8-0.3,1-0.5,1.2c-0.2,0.2-0.8,0.4-1.6,0.4c-0.6,0-1.1,0-1.3-0.1c-0.4-0.1-0.6-0.4-0.6-1v-1.3h-2.4c0,1.6-0.4,2.4-1.6,3
			c-0.3,0.1-0.3,0.1-0.5-0.2c-0.2-0.2-0.3-0.4-0.5-0.5c1.4-0.4,1.6-1,1.6-2.3c0-0.4,0-0.6,0-0.7c0-0.1,0-0.2,0.2-0.2
			c0.1,0,0.4,0,1.4,0h1.3c1.1,0,1.4,0,1.5,0s0.2,0,0.2,0.2c0,0.1,0,0.4,0,1V89.5z M631.9,92.7c0.5,0.7,1.1,1.2,1.9,1.7
			c0.8-0.5,1.4-1.1,1.9-1.7H631.9z"/>
	</g>
	<g>
	</g>
	<g>
	</g>
	<g>
	</g>
	<g>
	</g>
	<g>
	</g>
	<g>
	</g>
	<g>
	</g>
	<g>
	</g>
	<g>
	</g>
	<g>
	</g>
	<g>
	</g>
	<g>
	</g>
	<g>
	</g>
	<g>
	</g>
	<g>
	</g>
	<g>
	</g>
	<g>
	</g>
</g>
</svg>
