<?xml version="1.0" encoding="utf-8"?>
<!-- Generator: Adobe Illustrator 18.1.0, SVG Export Plug-In . SVG Version: 6.00 Build 0)  -->
<svg version="1.1" xmlns="http://www.w3.org/2000/svg" xmlns:xlink="http://www.w3.org/1999/xlink" x="0px" y="0px"
	 viewBox="0 0 760 640" enable-background="new 0 0 760 640" xml:space="preserve">
<g id="ruler_under">
	<g id="h_45">
		<g>
			<g>
				<line fill="none" stroke="#999999" stroke-width="2" stroke-miterlimit="10" x1="20.5" y1="601" x2="360.5" y2="601"/>
				<line fill="none" stroke="#999999" stroke-width="2" stroke-miterlimit="10" x1="400.5" y1="601" x2="740.5" y2="601"/>
				<g>
					<rect x="19.5" y="593" fill="#999999" width="2" height="16"/>
				</g>
				<g>
					<rect x="739.5" y="593" fill="#999999" width="2" height="16"/>
				</g>
			</g>
		</g>
		<g>
			<path d="M375.2,610v-4.2h-7.2v-1.4l7-10h2.3v9.7h2.2v1.7h-2.2v4.2H375.2z M375.2,604.1v-5.2c0-0.8,0-1.6,0.1-2.4h-0.1
				c-0.5,0.9-0.9,1.6-1.3,2.3L370,604v0H375.2z"/>
			<path d="M390.2,596.2h-6l-0.6,4c0.4,0,0.7-0.1,1.3-0.1c1.2,0,2.4,0.3,3.4,0.8c1.2,0.7,2.2,2,2.2,4c0,3-2.4,5.3-5.8,5.3
				c-1.7,0-3.1-0.5-3.9-1l0.5-1.6c0.6,0.4,1.9,0.9,3.3,0.9c2,0,3.7-1.3,3.7-3.4c0-2-1.4-3.5-4.5-3.5c-0.9,0-1.6,0.1-2.2,0.2l1-7.5
				h7.5V596.2z"/>
		</g>
	</g>
	<g id="h_30_1_">
		<g>
			<g>
				<line fill="none" stroke="#999999" stroke-width="2" stroke-miterlimit="10" x1="20.5" y1="578" x2="240.5" y2="578"/>
				<line fill="none" stroke="#999999" stroke-width="2" stroke-miterlimit="10" x1="280.5" y1="578" x2="500.5" y2="578"/>
				<g>
					<rect x="19.5" y="570" fill="#999999" width="2" height="16"/>
				</g>
				<g>
					<rect x="499.5" y="570" fill="#999999" width="2" height="16"/>
				</g>
			</g>
		</g>
		<g>
			<path d="M249.1,584.6c0.6,0.4,2,1,3.5,1c2.7,0,3.6-1.7,3.5-3c0-2.2-2-3.1-4-3.1h-1.2v-1.6h1.2c1.5,0,3.5-0.8,3.5-2.6
				c0-1.2-0.8-2.4-2.7-2.4c-1.2,0-2.4,0.6-3.1,1l-0.6-1.5c0.8-0.6,2.4-1.2,4.1-1.2c3.1,0,4.5,1.8,4.5,3.7c0,1.6-1,3-2.9,3.7v0
				c1.9,0.4,3.5,1.8,3.5,4c0,2.5-1.9,4.7-5.7,4.7c-1.8,0-3.3-0.6-4.1-1.1L249.1,584.6z"/>
			<path d="M271.3,579c0,5.3-2,8.2-5.4,8.2c-3,0-5.1-2.9-5.2-8c0-5.2,2.3-8.1,5.4-8.1C269.4,571.1,271.3,574.1,271.3,579z
				 M262.8,579.3c0,4.1,1.2,6.4,3.2,6.4c2.2,0,3.2-2.5,3.2-6.5c0-3.8-1-6.4-3.2-6.4C264.2,572.8,262.8,575,262.8,579.3z"/>
		</g>
	</g>
	<g id="h_15">
		<g>
			<g>
				<line fill="none" stroke="#999999" stroke-width="2" stroke-miterlimit="10" x1="500.5" y1="578" x2="600.5" y2="578"/>
				<line fill="none" stroke="#999999" stroke-width="2" stroke-miterlimit="10" x1="640.5" y1="578" x2="740.5" y2="578"/>
				<g>
					<rect x="499.5" y="570" fill="#999999" width="2" height="16"/>
				</g>
				<g>
					<rect x="739.5" y="570" fill="#999999" width="2" height="16"/>
				</g>
			</g>
		</g>
		<g>
			<path d="M613.2,573.4L613.2,573.4l-2.8,1.5l-0.4-1.6l3.4-1.8h1.8V587h-2V573.4z"/>
			<path d="M630.2,573.2h-6l-0.6,4c0.4,0,0.7-0.1,1.3-0.1c1.2,0,2.4,0.3,3.4,0.8c1.2,0.7,2.2,2,2.2,4c0,3-2.4,5.3-5.8,5.3
				c-1.7,0-3.1-0.5-3.9-1l0.5-1.6c0.6,0.4,1.9,0.9,3.3,0.9c2,0,3.7-1.3,3.7-3.4c0-2-1.4-3.5-4.5-3.5c-0.9,0-1.6,0.1-2.2,0.2l1-7.5
				h7.5V573.2z"/>
		</g>
	</g>
</g>
<g id="ruler_above">
	<g id="h5">
		<g>
			<g>
				<line fill="none" stroke="#999999" stroke-width="2" stroke-miterlimit="10" x1="660.5" y1="58" x2="690.5" y2="58"/>
				<line fill="none" stroke="#999999" stroke-width="2" stroke-miterlimit="10" x1="710.5" y1="58" x2="740.5" y2="58"/>
				<g>
					<rect x="659.5" y="50" fill="#999999" width="2" height="16"/>
				</g>
				<g>
					<rect x="739.5" y="50" fill="#999999" width="2" height="16"/>
				</g>
			</g>
		</g>
		<g>
			<rect x="694.5" y="46.5" fill="none" width="13.9" height="30.4"/>
			<path d="M704.9,52.8h-6l-0.6,4c0.4,0,0.7-0.1,1.3-0.1c1.2,0,2.4,0.3,3.4,0.8c1.2,0.7,2.2,2,2.2,4c0,3-2.4,5.3-5.8,5.3
				c-1.7,0-3.1-0.5-3.9-1l0.5-1.6c0.6,0.4,1.9,0.9,3.3,0.9c2,0,3.7-1.3,3.7-3.4c0-2-1.4-3.5-4.5-3.5c-0.9,0-1.6,0.1-2.2,0.2l1-7.5
				h7.5V52.8z"/>
		</g>
		<g>
		</g>
	</g>
	<g id="h9">
		<g>
			<g>
				<line fill="none" stroke="#999999" stroke-width="2" stroke-miterlimit="10" x1="516.5" y1="58" x2="578.5" y2="58"/>
				<line fill="none" stroke="#999999" stroke-width="2" stroke-miterlimit="10" x1="598.5" y1="58" x2="660.5" y2="58"/>
				<g>
					<rect x="515.5" y="50" fill="#999999" width="2" height="16"/>
				</g>
				<g>
					<rect x="659.5" y="50" fill="#999999" width="2" height="16"/>
				</g>
			</g>
		</g>
		<g>
			<path d="M583.8,65.5c0.5,0,1,0,1.7-0.1c1.2-0.2,2.4-0.7,3.3-1.5c1-0.9,1.8-2.3,2.1-4.2h-0.1c-0.9,1.1-2.1,1.7-3.7,1.7
				c-2.8,0-4.6-2.1-4.6-4.8c0-3,2.1-5.5,5.3-5.5s5.2,2.6,5.2,6.6c0,3.4-1.2,5.8-2.7,7.3c-1.2,1.2-2.9,1.9-4.5,2.1
				c-0.8,0.1-1.4,0.1-1.9,0.1V65.5z M584.6,56.5c0,1.9,1.2,3.3,3,3.3c1.4,0,2.5-0.7,3.1-1.6c0.1-0.2,0.2-0.4,0.2-0.8
				c0-2.7-1-4.7-3.2-4.7C585.9,52.7,584.6,54.3,584.6,56.5z"/>
		</g>
	</g>
</g>
<g id="grid">
	<g>
		<g id="yin_3_">
			<rect x="516.5" y="257.1" fill="#EEEEEE" stroke="#999999" stroke-miterlimit="10" width="144" height="144"/>
			<line fill="#EEEEEE" stroke="#999999" stroke-width="2" stroke-miterlimit="10" x1="516.5" y1="401" x2="660.5" y2="401"/>
			<line fill="#EEEEEE" stroke="#999999" stroke-width="2" stroke-miterlimit="10" x1="516.5" y1="257" x2="660.5" y2="257"/>
		</g>
		<g id="_x34_-tone_2_">
			<rect x="660.5" y="224.1" fill="#EEEEEE" stroke="#999999" stroke-miterlimit="10" width="80" height="80"/>
			<line fill="#EEEEEE" stroke="#999999" stroke-width="2" stroke-miterlimit="10" x1="660.5" y1="224" x2="740.5" y2="224"/>
			<line fill="#EEEEEE" stroke="#999999" stroke-width="2" stroke-miterlimit="10" x1="660.5" y1="304" x2="740.5" y2="304"/>
		</g>
		<g id="_x35_th_tone_2_">
			<rect x="516.5" y="209.1" fill="#EEEEEE" stroke="#999999" stroke-miterlimit="10" width="144" height="32"/>
			<line fill="#EEEEEE" stroke="#999999" stroke-width="2" stroke-miterlimit="10" x1="516.5" y1="209" x2="660.5" y2="209"/>
			<line fill="#EEEEEE" stroke="#999999" stroke-width="2" stroke-miterlimit="10" x1="516.5" y1="241" x2="660.5" y2="241"/>
		</g>
		<g id="inner_2_">
			<line fill="none" stroke="#CCCCCC" stroke-miterlimit="10" x1="180" y1="560" x2="180" y2="80"/>
			<line fill="none" stroke="#CCCCCC" stroke-miterlimit="10" x1="341" y1="560" x2="341" y2="80"/>
			<line fill="none" stroke="#CCCCCC" stroke-miterlimit="10" x1="20.5" y1="239.5" x2="500.5" y2="239.5"/>
			<line fill="none" stroke="#CCCCCC" stroke-miterlimit="10" x1="20.5" y1="400.5" x2="500.5" y2="400.5"/>
		</g>
		<g id="outer_2_">
			
				<rect id="zhuyin_2_" x="20.5" y="80.1" fill="none" stroke="#999999" stroke-width="2" stroke-miterlimit="10" width="720" height="480"/>
			
				<rect id="char_2_" x="20.5" y="80.1" fill="none" stroke="#999999" stroke-width="2" stroke-miterlimit="10" width="480" height="480"/>
			<line fill="none" stroke="#999999" stroke-width="2" stroke-miterlimit="10" x1="660.5" y1="560" x2="660.5" y2="80"/>
			<line fill="none" stroke="#999999" stroke-width="2" stroke-miterlimit="10" x1="516.5" y1="560" x2="516.5" y2="80"/>
		</g>
	</g>
</g>
<g id="character">
	<g>
		<path d="M567.1,290.2c1,1,1.5,2.4,1.7,3.9c0,1.3-1.1,3.9-3.4,7.7c-4.6,8-7.3,13.8-7.9,17.6c0,1.1,0.7,1.7,2.2,1.7
			c1,0,7.9-1.1,20.8-3.4c17.9-3.4,30.8-5.1,38.8-5.1c2.5,0,5.3,1.4,8.3,4.4c3.1,3,4.6,5.3,4.6,7.5c0,1.8-2.1,7.5-6.2,16.9
			c-4.6,10.3-10,19.4-15.9,27.3c-6.3,7.7-12.9,13.6-19.8,17.6c-1.8,1.1-2.8,1.7-3.1,1.7c-0.4,0-0.6-0.3-0.6-0.7l1-1.5
			c7.5-8.3,14.9-19.7,22.4-34.3c5.8-12.8,8.7-21.5,8.7-26.3c0-2.7-1.5-3.9-4.5-3.9c-5.5,0-15.9,1.3-31.2,3.9
			c-15.2,2.5-24.6,4.5-28.1,5.9c-1.8,0.6-3.1,0.8-3.7,0.8c-0.8,0-2.2-1.1-4.1-3.4s-2.7-4.1-2.7-5.3c0-1.1,0.7-2.5,2.1-4.4
			c2.1-2.4,3.7-4.9,4.6-7.5l5.9-13.1c1.3-3,2-4.8,2-5.6c-3.9-1.8-7.7-4.1-11.4-7c-0.7-0.4-1-0.7-1-1c0-1.1,0.7-1.7,2.1-1.8
			c8.7-0.3,19.8-1.5,33.5-3.7c13.6-2.2,22.9-4.2,27.7-6c1.7-0.6,3-0.8,3.7-0.8c1.8,0,4.5,1.3,7.9,3.9c3.4,2.5,5.1,4.4,5.1,5.6
			c0,0.7-1.3,2-3.8,3.7c-2.4,1.7-6.6,7.5-12.8,17.4c-2.4,3.5-4.1,5.3-4.8,5.3c-1.1,0-1.7-0.6-1.7-1.7c0-0.6,0.3-1.5,0.7-3
			c0.1,0,1.4-4.9,3.9-14.8c0.3-1.7,0.4-3,0.4-3.7c0-2.2-1-3.4-2.8-3.4C606.3,281.7,593.4,284.5,567.1,290.2z"/>
	</g>
	<g>
		<path d="M228.8,332.5l73.4-4.2c1.1-6.2,1.5-10.9,1.2-14.1l-1.6-13.4c0.2-1.7,0.7-3,1.6-4s2.8-1.3,5.6-1.1s5.4,0.9,7.7,1.9
			c2.3,1,5.9,2.9,10.7,5.6c4.8,2.7,8.3,5.4,10.5,8c2.3,2.6,3.2,4.5,2.9,5.7l-1.6,8.4l30.7-3.5l22.7-2.6c9.2-1.1,17-2.2,23.4-3.4
			c6.4-1.2,11-1.8,13.8-1.8c3.4,0.2,6.8,0.9,10.2,2.2c3.4,1.3,8,3.5,14.1,6.6c6,3,10.5,5.7,13.4,8c2.9,2.3,4.3,4.6,4.1,6.9
			c-0.3,1.7-1.2,3.1-2.6,4.2c-1.4,1.1-4.1,1.6-8,1.6l-19.2,0.7l-71.7-0.7l-37.7,0.7c-2.8,7-5.7,14.2-8.7,21.6
			c-3,7.3-7.1,16.6-12.3,27.7c-5.2,11.1-10.3,20.2-15.1,27.2l-5.9,8.7l27.2,13.4c10,5,18.3,9.5,25,13.5c6.6,4,13.2,9.5,19.6,16.4
			c6.4,7,10.8,13.5,13.1,19.6s3.5,11.5,3.5,16.2c-0.2,3.6-0.8,6.4-2,8.3c-1.2,2-2.5,3.4-4.1,4.5c-1.6,1-3.2,1.5-4.9,1.5
			c-1.9,0.2-4.1-0.4-6.8-1.5c-2.7-1.2-5.9-3.2-9.6-6.1c-3.8-2.9-11.7-10-23.8-21.3c-12.1-11.3-23.3-20.8-33.6-28.5l-21.8-15.5
			c-9.2,8.6-17.5,15.7-24.7,21.4c-7.3,5.7-16.4,11.4-27.3,17c-10.9,5.6-22.9,10.2-36,13.8c-13,3.6-23.9,5.6-32.7,6
			c-8.8,0.4-15.7,0.4-20.9,0.1l-6.8-0.2c-3.8,0-6.2-0.4-7.3-1.2c-1.1-0.8-1.5-1.8-1.3-2.9s2.1-2.2,5.5-3.2l7.5-1.9
			c5.6-1.4,10.4-2.6,14.3-3.6c3.9-1,11.4-3.6,22.4-7.6c11-4.1,22.3-9.2,33.9-15.4c11.6-6.2,21.5-13.2,29.8-21.2l18.3-16.9l-34-16.6
			c-7.8-3.8-15.2-6.8-22-9c-6.9-2.3-11.7-4.4-14.4-6.4c-2.7-2-4.2-4.2-4.3-6.6c-0.2-2.3,0.9-5.2,3-8.7c0.5-0.8,3-4.1,7.6-10.1
			c4.6-5.9,8.1-11.2,10.4-15.9l3.8-8c-9.4,0.9-18.2,1.9-26.6,2.9c-8.4,1-18.9,2.7-31.8,5l-23,4.5l-18.5,4c-4.4,0.9-7.9,1.3-10.5,1.2
			c-3.9,0-7.8-0.8-11.7-2.3l-11.7-5.6c-6.3-2.8-10-5.6-11.4-8.4c-1.3-2.8-1.5-4.8-0.6-6.1c0.9-1.2,3.1-2,6.6-2.3l18.8-0.9l37.3-1.4
			l54.6-4.7l35.9-2.8c2-6.1,4.1-12.2,6.1-18.4c2-6.2,3.6-12.7,4.8-19.5s1.9-13.9,2.2-21.4c0.3-7.5,0.2-12.8-0.2-15.9l-3-11.5
			c-0.9-3.8-0.9-6.1,0.1-7.1c1-1,3.1-1.5,6.2-1.5c3.6,0.2,7.5,1,11.8,2.5c4.3,1.5,9.1,3.9,14.4,7.3c5.3,3.4,9.2,6.4,11.6,9.3
			c2.4,2.8,3.6,5.3,3.4,7.5c-0.2,1.3-1.1,3.3-2.8,6.1c-1.7,2.8-4.1,6.6-7.3,11.4c-3.1,4.8-5.2,8.6-6.3,11.4l-13.4,30.9L228.8,332.5z
			 M156.6,200.8c29.7-0.9,47.4-1.7,53.2-2.3l57-4.7c-4.5-4.1-7.7-7.3-9.4-9.8l-15-26c-4.5-7.2-6.9-12.1-7-14.8
			c-0.2-2.7,0.2-4.6,0.9-5.7c0.8-1.2,4.1-0.9,10.1,0.8c8.9,3,16.2,5.5,21.9,7.6c5.7,2.1,10.6,5.5,14.6,10.3
			c4.1,4.8,6.6,9.8,7.5,15.1c0.8,5.2,0.6,9-0.5,11.5l-3,8.2l66.1-8.2c10-1.1,17.6-2.5,22.9-4.2c5.2-1.7,8.5-2.6,9.7-2.6
			c2.8,0.2,6.2,1.4,10.3,3.9c4.1,2.4,10.3,7.2,18.8,14.4c8.4,7.2,13.9,13.2,16.5,18.2s3.3,8.5,2.2,10.7c-1.1,2-4.2,3.7-9.4,4.9
			l-12.4,2.8c-5,1.3-11.4,3.3-19.3,6.2c-7.9,2.9-15,5.7-21.2,8.6l-12.7,5.6c-3.4,1.6-5.7,1.9-6.7,0.9c-1-0.9-0.6-3,1.3-6.1l5.4-8.9
			c0.9-1.6,3.3-5.2,7.1-10.8c3.8-5.6,6.8-10.6,8.8-14.9c2-4.3,2.3-7.5,0.9-9.6s-3.4-3.4-5.9-3.8c-2.5-0.4-6.2-0.5-11-0.4l-27.4,1.6
			c-5,0.3-17.8,1.7-38.3,4.1c-20.5,2.4-32.3,3.9-35.3,4.3l-40.5,6.3l-23,3.3c-13.1,2.7-19.9,3.9-20.4,3.8l-15.2-1.2
			c-0.6,4.1-1.3,7.9-2,11.4s-2.7,9.1-5.9,16.6c-3.2,7.6-6.6,14.3-10.1,20c-3.5,5.8-7.2,9-11,9.6c-3.8,0.6-7.7-0.7-11.5-4.1
			c-3.8-3.4-5.8-7.8-5.9-13.4c-0.1-5.5,0.5-9.9,1.8-13l8.7-15.7l12.4-31.2l3.8-12.2c1.6-4.1,3.3-6.2,5.3-6.4c2-0.2,3.9,0.8,5.7,3.2
			s3.4,5.3,4.7,8.9L156.6,200.8z M220.8,351l-17.1,30l-6.1,9.4c0,1.9,1.4,3.8,4.2,5.6l15,5.2l46.4,16.9c3.9-5.5,7.3-10.5,10.2-15
			c2.9-4.5,6.4-10.7,10.7-18.5c4.2-7.8,7.3-14.5,9.1-19.9l6.8-19L220.8,351z"/>
	</g>
	<g>
	</g>
	<g>
	</g>
	<g>
	</g>
	<g>
	</g>
	<g>
	</g>
	<g>
	</g>
	<g>
	</g>
	<g>
	</g>
	<g>
	</g>
	<g>
	</g>
	<g>
	</g>
	<g>
	</g>
	<g>
	</g>
	<g>
	</g>
	<g>
	</g>
	<g>
	</g>
</g>
</svg>
