<?xml version="1.0" encoding="utf-8"?>
<!-- Generator: Adobe Illustrator 18.1.0, SVG Export Plug-In . SVG Version: 6.00 Build 0)  -->
<svg version="1.1" xmlns="http://www.w3.org/2000/svg" xmlns:xlink="http://www.w3.org/1999/xlink" x="0px" y="0px"
	 viewBox="0 0 760 640" enable-background="new 0 0 760 640" xml:space="preserve">
<g id="ruler_under">
	<g id="h_45">
		<g>
			<g>
				<line fill="none" stroke="#999999" stroke-width="2" stroke-miterlimit="10" x1="20.5" y1="601" x2="360.5" y2="601"/>
				<line fill="none" stroke="#999999" stroke-width="2" stroke-miterlimit="10" x1="400.5" y1="601" x2="740.5" y2="601"/>
				<g>
					<rect x="19.5" y="593" fill="#999999" width="2" height="16"/>
				</g>
				<g>
					<rect x="739.5" y="593" fill="#999999" width="2" height="16"/>
				</g>
			</g>
		</g>
		<g>
			<path d="M375.2,610v-4.2h-7.2v-1.4l7-10h2.3v9.7h2.2v1.7h-2.2v4.2H375.2z M375.2,604.1v-5.2c0-0.8,0-1.6,0.1-2.4h-0.1
				c-0.5,0.9-0.9,1.6-1.3,2.3L370,604v0H375.2z"/>
			<path d="M390.2,596.2h-6l-0.6,4c0.4,0,0.7-0.1,1.3-0.1c1.2,0,2.4,0.3,3.4,0.8c1.2,0.7,2.2,2,2.2,4c0,3-2.4,5.3-5.8,5.3
				c-1.7,0-3.1-0.5-3.9-1l0.5-1.6c0.6,0.4,1.9,0.9,3.3,0.9c2,0,3.7-1.3,3.7-3.4c0-2-1.4-3.5-4.5-3.5c-0.9,0-1.6,0.1-2.2,0.2l1-7.5
				h7.5V596.2z"/>
		</g>
	</g>
	<g id="h_30_1_">
		<g>
			<g>
				<line fill="none" stroke="#999999" stroke-width="2" stroke-miterlimit="10" x1="20.5" y1="578" x2="240.5" y2="578"/>
				<line fill="none" stroke="#999999" stroke-width="2" stroke-miterlimit="10" x1="280.5" y1="578" x2="500.5" y2="578"/>
				<g>
					<rect x="19.5" y="570" fill="#999999" width="2" height="16"/>
				</g>
				<g>
					<rect x="499.5" y="570" fill="#999999" width="2" height="16"/>
				</g>
			</g>
		</g>
		<g>
			<path d="M249.1,584.6c0.6,0.4,2,1,3.5,1c2.7,0,3.6-1.7,3.5-3c0-2.2-2-3.1-4-3.1h-1.2v-1.6h1.2c1.5,0,3.5-0.8,3.5-2.6
				c0-1.2-0.8-2.4-2.7-2.4c-1.2,0-2.4,0.6-3.1,1l-0.6-1.5c0.8-0.6,2.4-1.2,4.1-1.2c3.1,0,4.5,1.8,4.5,3.7c0,1.6-1,3-2.9,3.7v0
				c1.9,0.4,3.5,1.8,3.5,4c0,2.5-1.9,4.7-5.7,4.7c-1.8,0-3.3-0.6-4.1-1.1L249.1,584.6z"/>
			<path d="M271.3,579c0,5.3-2,8.2-5.4,8.2c-3,0-5.1-2.9-5.2-8c0-5.2,2.3-8.1,5.4-8.1C269.4,571.1,271.3,574.1,271.3,579z
				 M262.8,579.3c0,4.1,1.2,6.4,3.2,6.4c2.2,0,3.2-2.5,3.2-6.5c0-3.8-1-6.4-3.2-6.4C264.2,572.8,262.8,575,262.8,579.3z"/>
		</g>
	</g>
	<g id="h_15">
		<g>
			<g>
				<line fill="none" stroke="#999999" stroke-width="2" stroke-miterlimit="10" x1="500.5" y1="578" x2="600.5" y2="578"/>
				<line fill="none" stroke="#999999" stroke-width="2" stroke-miterlimit="10" x1="640.5" y1="578" x2="740.5" y2="578"/>
				<g>
					<rect x="499.5" y="570" fill="#999999" width="2" height="16"/>
				</g>
				<g>
					<rect x="739.5" y="570" fill="#999999" width="2" height="16"/>
				</g>
			</g>
		</g>
		<g>
			<path d="M613.2,573.4L613.2,573.4l-2.8,1.5l-0.4-1.6l3.4-1.8h1.8V587h-2V573.4z"/>
			<path d="M630.2,573.2h-6l-0.6,4c0.4,0,0.7-0.1,1.3-0.1c1.2,0,2.4,0.3,3.4,0.8c1.2,0.7,2.2,2,2.2,4c0,3-2.4,5.3-5.8,5.3
				c-1.7,0-3.1-0.5-3.9-1l0.5-1.6c0.6,0.4,1.9,0.9,3.3,0.9c2,0,3.7-1.3,3.7-3.4c0-2-1.4-3.5-4.5-3.5c-0.9,0-1.6,0.1-2.2,0.2l1-7.5
				h7.5V573.2z"/>
		</g>
	</g>
</g>
<g id="ruler_above">
	<g id="h5">
		<g>
			<g>
				<line fill="none" stroke="#999999" stroke-width="2" stroke-miterlimit="10" x1="660.5" y1="58" x2="690.5" y2="58"/>
				<line fill="none" stroke="#999999" stroke-width="2" stroke-miterlimit="10" x1="710.5" y1="58" x2="740.5" y2="58"/>
				<g>
					<rect x="659.5" y="50" fill="#999999" width="2" height="16"/>
				</g>
				<g>
					<rect x="739.5" y="50" fill="#999999" width="2" height="16"/>
				</g>
			</g>
		</g>
		<g>
			<rect x="694.5" y="46.5" fill="none" width="13.9" height="30.4"/>
			<path d="M704.9,52.8h-6l-0.6,4c0.4,0,0.7-0.1,1.3-0.1c1.2,0,2.4,0.3,3.4,0.8c1.2,0.7,2.2,2,2.2,4c0,3-2.4,5.3-5.8,5.3
				c-1.7,0-3.1-0.5-3.9-1l0.5-1.6c0.6,0.4,1.9,0.9,3.3,0.9c2,0,3.7-1.3,3.7-3.4c0-2-1.4-3.5-4.5-3.5c-0.9,0-1.6,0.1-2.2,0.2l1-7.5
				h7.5V52.8z"/>
		</g>
		<g>
		</g>
	</g>
	<g id="h9">
		<g>
			<g>
				<line fill="none" stroke="#999999" stroke-width="2" stroke-miterlimit="10" x1="516.5" y1="58" x2="578.5" y2="58"/>
				<line fill="none" stroke="#999999" stroke-width="2" stroke-miterlimit="10" x1="598.5" y1="58" x2="660.5" y2="58"/>
				<g>
					<rect x="515.5" y="50" fill="#999999" width="2" height="16"/>
				</g>
				<g>
					<rect x="659.5" y="50" fill="#999999" width="2" height="16"/>
				</g>
			</g>
		</g>
		<g>
			<path d="M583.8,65.5c0.5,0,1,0,1.7-0.1c1.2-0.2,2.4-0.7,3.3-1.5c1-0.9,1.8-2.3,2.1-4.2h-0.1c-0.9,1.1-2.1,1.7-3.7,1.7
				c-2.8,0-4.6-2.1-4.6-4.8c0-3,2.1-5.5,5.3-5.5s5.2,2.6,5.2,6.6c0,3.4-1.2,5.8-2.7,7.3c-1.2,1.2-2.9,1.9-4.5,2.1
				c-0.8,0.1-1.4,0.1-1.9,0.1V65.5z M584.6,56.5c0,1.9,1.2,3.3,3,3.3c1.4,0,2.5-0.7,3.1-1.6c0.1-0.2,0.2-0.4,0.2-0.8
				c0-2.7-1-4.7-3.2-4.7C585.9,52.7,584.6,54.3,584.6,56.5z"/>
		</g>
	</g>
</g>
<g id="grid">
	<g>
		<g id="yin_3_">
			<rect x="516.5" y="401.1" fill="#EEEEEE" width="144" height="144"/>
			<line fill="none" stroke="#999999" stroke-width="2" stroke-miterlimit="10" x1="516.5" y1="545" x2="660.5" y2="545"/>
			<line fill="none" stroke="#999999" stroke-width="2" stroke-miterlimit="10" x1="516.5" y1="401" x2="660.5" y2="401"/>
		</g>
		<g id="yin_1_">
			<rect x="516.5" y="257.1" fill="#EEEEEE" width="144" height="144"/>
			<line fill="none" stroke="#999999" stroke-width="2" stroke-miterlimit="10" x1="516.5" y1="401" x2="660.5" y2="401"/>
			<line fill="none" stroke="#999999" stroke-width="2" stroke-miterlimit="10" x1="516.5" y1="257" x2="660.5" y2="257"/>
		</g>
		<g id="yin_2_">
			<rect x="516.5" y="113.1" fill="#EEEEEE" width="144" height="144"/>
			<line fill="none" stroke="#999999" stroke-width="2" stroke-miterlimit="10" x1="516.5" y1="257" x2="660.5" y2="257"/>
			<line fill="none" stroke="#999999" stroke-width="2" stroke-miterlimit="10" x1="516.5" y1="113" x2="660.5" y2="113"/>
		</g>
		<g id="_x34_-tone_1_">
			<rect x="660.5" y="368.1" fill="#EEEEEE" width="80" height="80"/>
			<line fill="none" stroke="#999999" stroke-width="2" stroke-miterlimit="10" x1="660.5" y1="368" x2="740.5" y2="368"/>
			<line fill="none" stroke="#999999" stroke-width="2" stroke-miterlimit="10" x1="660.5" y1="448" x2="740.5" y2="448"/>
		</g>
		<g id="_x35_th_tone_1_">
			<path fill="none" stroke="#999999" stroke-width="2" stroke-miterlimit="10" d="M660.5,128"/>
			<path fill="none" stroke="#999999" stroke-width="2" stroke-miterlimit="10" d="M516.5,128"/>
			<path fill="none" stroke="#999999" stroke-width="2" stroke-miterlimit="10" d="M660.5,160"/>
			<path fill="none" stroke="#999999" stroke-width="2" stroke-miterlimit="10" d="M516.5,160"/>
		</g>
		<g id="inner_1_">
			<line fill="none" stroke="#CCCCCC" stroke-miterlimit="10" x1="180" y1="560" x2="180" y2="80"/>
			<line fill="none" stroke="#CCCCCC" stroke-miterlimit="10" x1="341" y1="560" x2="341" y2="80"/>
			<line fill="none" stroke="#CCCCCC" stroke-miterlimit="10" x1="20.5" y1="239.5" x2="500.5" y2="239.5"/>
			<line fill="none" stroke="#CCCCCC" stroke-miterlimit="10" x1="20.5" y1="400.5" x2="500.5" y2="400.5"/>
		</g>
		<g id="outer_1_">
			
				<rect id="zhuyin_1_" x="20.5" y="80.1" fill="none" stroke="#999999" stroke-width="2" stroke-miterlimit="10" width="720" height="480"/>
			
				<rect id="char_1_" x="20.5" y="80.1" fill="none" stroke="#999999" stroke-width="2" stroke-miterlimit="10" width="480" height="480"/>
			<line fill="none" stroke="#999999" stroke-width="2" stroke-miterlimit="10" x1="660.5" y1="560" x2="660.5" y2="80"/>
			<line fill="none" stroke="#999999" stroke-width="2" stroke-miterlimit="10" x1="516.5" y1="560" x2="516.5" y2="80"/>
		</g>
	</g>
</g>
<g id="character">
	<g id="_x33_rd_tone">
		<path d="M703.7,423.3c1.2-0.8,3-3.9,5.6-9.2c2.6-5.3,4.5-9.8,5.9-13.2l3.8-9.5c2-4.7,3-8.1,3.3-10.4l0.6-4.1c0.6-3,1.2-3.3,5-0.8
			c2.6,2.3,4.2,4.7,5.3,7.2c1.2,2.9,0.9,4.4-2.3,8.6c-2.9,4.1-6,9.8-9.5,17.4c-2,4.7-4.4,9.6-7.1,14.9l-5,10.4
			c-2.9,5.6-5.7,8.3-8.6,7.8c-2.6,0-4.8-2.7-6.8-8.1c-2-5.9-4.4-11.1-7.2-15.8l-7.1-11.1c-4.7-6.9-8.9-12.3-12.6-16.1l-2-1.8
			c-0.8-0.8-1.2-1.5-1.2-2c0-1.1,1.5-2,4.7-2.6c6.2,0,10.4,0.8,12.9,2.4c2.6,1.7,4.2,4.7,5.3,8.7c0.6,2.3,1.5,4.8,2.6,7.8l3.6,9
			c2.3,5.6,4.1,8.9,5.6,10.1c1.7,1.1,2.6,1.7,2.9,1.7C701.4,424.9,702.2,424.3,703.7,423.3z"/>
	</g>
	<g>
		<path d="M581.4,421c2.4,1.8,3.7,3.4,3.7,4.6s-0.6,2.7-1.5,4.2c-0.8,1.5-1.3,3.1-1.3,4.9c0,6.8,3.2,16,9.8,28
			c6.6,11.8,14.5,22.8,23.6,33c9.3,10.1,17.3,16.3,23.9,18.4c3,0.8,4.5,2,4.5,3.4c0,0.8-2.1,2.1-6.3,3.9c-4.1,1.8-7.3,2.8-9.4,2.8
			c-2.7,0-7-3.2-13.4-9.7c-8.7-9.1-16.9-20.7-24.5-34.6c-7.5-13.9-12.5-27.1-14.9-39.4c-1.3-7.2-2.5-10.7-4.1-10.7
			c-1.4,0-7.6,3-18.7,8.7c-3.8,2.1-6.8,3.1-8.9,3.1c-1.8,0-4.2-1.1-7.2-3.2c-2.7-1.8-4.1-3.2-4.1-4.2s3.5-2,10.4-3
			c8.9-1.3,15.8-3.1,20.8-5.3c3.2-1.3,5.9-2.8,7.7-4.6C575.1,417.1,576.8,417.2,581.4,421z"/>
	</g>
	<g>
		<path d="M630.9,136.4c4.4,3.4,6.5,5.8,6.5,7.3c0,0.1-0.7,1.1-2,3c-2.1,2.7-4.1,9.6-6,20.7c-2.7,14.1-6.5,24.3-11.5,30.8
			c-2.8,3.4-5.6,5.1-8.6,5.1c-1.7,0-4.5-1.7-8.6-5.1c-4.1-3.5-6-5.8-6-6.8c0-0.4,0.1-0.6,0.6-0.6c0.6,0,2,0.3,4.1,0.8
			c2,0.7,3.9,1,6,1c3.1,0,5.6-1.1,7.5-3.2c1.3-1.3,2.8-6.6,4.8-15.8c2.7-11.7,4.1-20.4,4.1-26.2c0-3.4-1.5-5.1-4.5-5.1
			c-2.5,0-13.6,1.7-33.2,5.1l-4.4,1v39.2c0,18.6,0.1,29.5,0.6,33c0.3,4.4,0.4,7.7,0.4,10c0,3.9-0.6,7.5-1.8,10.5
			c-1.1,3-2.2,4.5-3.2,4.5c-1.5,0-3.4-1.7-5.5-4.9c-2-3.2-3-5.9-3-8.2c0-1.3,0.1-2.5,0.6-3.9c0.4-1.8,0.8-4.5,1.4-8
			c1-9.4,1.4-21,1.4-34.3c0-11.5-0.3-23.5-0.8-35.9l-5.6,1c-5.2,1.4-8.6,2.1-9.8,2.1c-2.4,0-5.5-1.1-9.1-3.2
			c-3.7-2.2-5.5-4.1-5.5-5.5c0-0.8,0.7-1.3,2.2-1.3c3.8,0.8,7.2,1.3,10.1,1.3c4.9,0,15.3-1.5,31.2-4.5s26.7-5.3,32.5-7
			c2.4-1.5,4.2-2.2,5.5-2.2C623.5,131.2,626.7,132.8,630.9,136.4z"/>
	</g>
	<g>
		<path d="M91.9,333.4c-0.2,3.8-0.8,6.6-1.9,8.7c-1.1,2-2.5,3.2-4.2,3.4c-1.7,0.2-3.4-0.6-5.2-2.5c-1.6-1.4-2.9-4.3-4-8.8
			c-1.1-4.5-1.9-8.6-2.3-12.5l-8.4-56c-0.8-4.5-1.8-8.2-2.9-10.9c-1.2-2.7-3-5.5-5.6-8.4c-2.6-2.9-4.3-5.2-5-6.8
			c-0.8-1.6-0.9-3-0.2-4.2c0.6-1.2,2.5-1.8,5.6-2c2.5,0,6.1,0.3,10.8,0.9l8.7,1.4l22.7-4.9c0.9-0.2,4.1-1.1,9.5-2.9
			c5.4-1.8,8.8-3.1,10.2-3.9l12.9-7c2.3-0.3,5.1,0,8.2,0.9c3.1,0.9,7.2,2.8,12.3,5.5c5.1,2.7,8.5,5,10.3,6.9c1.8,1.9,2.8,3.4,3,4.7
			c0.2,1.3,0,2.8-0.6,4.7c-0.5,1.1-2,3.9-4.6,8.3s-4.5,8.4-5.6,11.8c-1.2,3.4-2.9,10.6-5.3,21.6l-8,35.4c4.5,1.7,7.8,3.8,9.7,6.2
			c2,2.4,2.7,4,2.1,4.7c-0.5,0.7-2,1.1-4.3,1.3l-49.2,5.4L91.9,333.4z M92.6,318.7l30-5.4l5.9-56.2l0.7-8.9c0.3-3.1,0.2-5.2-0.5-6.2
			c-0.6-1-2.7-1.5-6.3-1.5c-2,0.2-4.6,0.5-7.7,0.9l-12,2.1l-17.8,3.3L92.6,318.7z M191.6,225.6l-1.6-15.7c-0.3-1.2-1.1-5.1-2.2-11.5
			c-1.2-6.4-2.5-10.9-3.9-13.6l-5.4-8.9c-1.1-3-1.1-5.1-0.1-6.4c1-1.3,3.3-1.9,6.9-1.8c2.3,0.2,6.1,1,11.4,2.5
			c5.2,1.5,9.3,2.8,12.1,4s4.5,2.6,5,4.2c0.5,1.6,0.4,4-0.4,7.1c-1.6,5-2.5,8.5-2.8,10.4c-0.3,2-0.6,5-0.8,9.1
			c-0.2,4.1-0.2,8.1,0.1,11.8l1.6,35.4l27.9-6.8l-6.1-76.4c-0.6-6.9-1.3-12.3-2.1-16.4c-0.8-4.1-2.1-8.2-4-12.4l-4.2-8.4
			c-1.6-3.4-2-5.7-1.2-6.8c0.8-1.1,2.6-1.8,5.4-2.1c2.3-0.2,7.3,0.7,15,2.5c7.7,1.8,12.7,3.7,15,5.6c2.3,2,3.6,3.8,3.8,5.6
			c0.2,1.8-0.4,4.8-1.6,9c-0.6,2-1.3,5.8-1.9,11.2c-0.6,5.5-0.9,9.5-0.7,12.2l0.5,12.4c6.7-2.3,12.4-4.5,17-6.3
			c4.6-1.9,8.1-3,10.5-3.5c2.4-0.5,4.9-0.6,7.4-0.5c2.7,0.3,6,1.3,10,2.9s6,3.5,6,5.5c-0.2,1.4-1,2.8-2.6,4.2
			c-1.6,1.4-3.8,2.3-6.6,2.8l-41.2,8l0.7,45.5l30.5-8c7.2-1.9,12.4-2.8,15.6-2.7c3.2,0.1,5,0.9,5.4,2.3c0.4,1.5-0.4,3-2.5,4.6
			c-2,1.6-5.5,3.3-10.5,5.2l-26.5,9.8c5.5,1.9,10,3.5,13.6,4.9c3.6,1.4,6.4,3.2,8.3,5.5c2,2.3,2.8,4.2,2.6,5.7
			c-0.2,1.6-1.5,3.3-3.9,5.3c-2.3,2-5.1,4.7-8.2,8.1l-9.4,10.1c6.1-1.2,10.5-2.3,13.2-3c2.7-0.8,8.1-2.5,16.1-5s13.8-4.8,17.5-6.8
			c3.7-2,6.2-3.1,7.6-3.4c2.2-0.3,5.4,0.3,9.6,1.9c4.2,1.6,8.6,3.8,13.2,6.8c4.6,3,7,5.4,7,7.4c0.1,2-1,3.9-3.2,6
			c-0.9,0.9-3.6,2.6-7.9,4.9c-4.3,2.3-8.8,5.5-13.5,9.4l-10.1,8.7l-11.2,9.6L297,341.2l31.4-4.2l10.8-1.4c5.2-0.6,10-1.5,14.4-2.6
			c4.5-1.1,9.2-2.6,14.2-4.6c5-2,8.5-3,10.5-3.2c2.3,0,6.1,1.3,11.4,3.8c5.2,2.5,9.1,4.5,11.6,5.9c2.5,1.4,5,3.4,7.4,6.1
			c2.4,2.7,3.5,4.8,3.2,6.6c-0.2,0.6-1,2-2.5,4c-1.5,2-2.8,5.3-4,9.7s-2,8-2.3,10.7c-0.4,2.7-0.6,7.7-0.6,15l-0.7,28.8
			c0,2.7,0.2,10.5,0.7,23.7s0.7,25,0.7,35.6c-0.2,12.2-1,21.4-2.6,27.8c-1.6,6.3-4.2,12.7-7.9,19.1c-3.7,6.4-7.7,10.9-12.2,13.6
			c-4.5,2.7-7.7,3.7-9.7,3c-2-0.3-4.3-2.3-6.8-5.9l-7-9.8c-2.3-3-4.9-6-7.6-9.1c-2.7-3.1-6-6.7-9.7-10.8L331,494
			c-1.7-1.7-2.2-2.9-1.5-3.6s2-1,3.9-0.8l13.8,2.3c4.1,0.8,8.3,1.8,12.8,2.9s7.5,1.2,9.3,0.1c1.6-0.9,2.7-3,3.5-6.2
			c0.8-3.2,1.5-8.4,2.2-15.5c0.7-7.1,1.1-10.8,1.3-11.1l0.5-17.3c-7.7,0.6-13.4,1-17.1,1.2l-21.1,1.2c-1.9,0.2-11.1,1.2-27.8,3
			s-26.2,3-28.7,3.3l-23.7,4c-9.2,1.4-14.8,2.3-16.6,2.6c-1.9,0.3-4.1,0.5-6.8,0.6c-2.7,0.1-5.2-0.9-7.5-2.9l-5.9-4.2
			c-1.9,6.7-3.8,12.9-5.6,18.6c-1.9,5.7-4.3,11.2-7.3,16.4c-3,5.2-6.8,11.1-11.6,17.6c-4.8,6.5-9.1,11.1-13,13.7l-9.8,6.8
			c-1.4,0.9-2.5,0.9-3.3-0.1c-0.8-1-0.5-2.5,0.9-4.6l7.5-11.7c3.4-5.3,6.9-12.2,10.3-20.7c3.4-8.5,6.3-16.8,8.6-24.7
			c2.3-8,4.1-16.1,5.5-24.3s2.5-18.2,3.4-30.1c0.9-11.9,1.3-21.8,1.3-29.8c-0.2-8.7-0.9-15.5-2.3-20.4l-4.7-12.7
			c-0.5-1.1-0.6-2.1-0.4-2.9c0.2-0.9,1.1-1.7,2.5-2.5c1.1-0.6,4.3-0.3,9.6,0.9l17.3,4.9l50.9-4.9c7-9.8,12.1-17,15.4-21.6
			c3.2-4.5,5.9-8.6,8.1-12.3c2.2-3.7,3-6,2.6-6.9s-3.6-0.9-9.4,0l-13.1,1.9c-5.9,0.9-9.7,1.4-11.2,1.4c-3.8,0.2-6.3-0.2-7.7-0.9
			l-5.9-2.3c-5.6,5.2-10,8.9-13.2,11.1c-3.2,2.3-8.3,5.3-15.4,9l-11.7,6.3c-3.3,1.7-5.5,2-6.6,0.7c-1.1-1.2-0.8-2.7,0.9-4.2
			l11.5-10.5c2.8-2.7,6.8-7.2,12.1-13.6c5.2-6.4,10.2-13,15-19.8c4.8-6.8,7.6-12.5,8.6-17L264,253l-38,14.8c-0.8,0.3-4,1.8-9.7,4.5
			c-5.7,2.7-9.8,5-12.3,7c-2.5,2-4.1,3.1-4.7,3.3c-1.4,0.5-3.6,0.2-6.6-0.8c-3-1-7-3.4-12.1-7.1c-5.1-3.8-8.5-7.6-10.3-11.6
			c-1.8-4-2.3-6.5-1.5-7.5c0.8-1,2.6-1.7,5.4-2c0.3,0,3.8,0.2,10.5,0.7l10.5,0.9L191.6,225.6z M283.7,438.7l-0.7-34
			c-22.5,3.6-38.3,4.8-47.3,3.8l-7-0.7c-1.3,10.3-2,16.3-2.3,18l-3.8,20.9L283.7,438.7z M282.3,389c-0.5-4.8-0.8-9.6-1.1-14.4
			c-0.2-4.8-0.6-7.9-1.1-9.5l-2.8-8.9c-5.5,0.6-10.4,1.2-14.8,1.8c-4.4,0.5-10.1,1.3-17.1,2.2l-13.8,1.9c-0.3,9.4-0.5,14.9-0.5,16.6
			l-0.7,16.4L282.3,389z M307,357.5c2.3,1.3,3.5,2.7,3.8,4.1s-0.3,3.6-1.5,6.6c-1.4,3.4-2.3,6.9-2.6,10.3l-0.7,6.6
			c8-1.2,15.6-2.4,22.9-3.5c7.3-1.1,12.9-2,17-2.6c4.1-0.6,8.2-0.8,12.3-0.5c4.1,0.3,7.9,1.5,11.1,3.5l8,4.7l-0.5-16.6v-7.5l-0.5-8
			c-0.3-3.6-0.9-5.7-1.8-6.4c-0.9-0.7-3-1-6.4-0.8l-21.8,1.4c-10.2,0.8-17,1.3-20.4,1.6l-26.2,3C302.3,354.8,304.7,356.1,307,357.5z
			 M302.9,435.6c5.8-0.9,10.2-1.6,13.4-2.1l18.3-2.6c5.8-0.8,10.5-1.6,14.3-2.3c3.8-0.8,6.5-1.2,8.2-1.2c2,0.3,4.3,1.1,6.7,2.2
			c2.4,1.2,4.5,2.2,6.2,3.2l7.3,4.7v-46.4c-3.8,1.3-6.9,2.2-9.5,2.9s-7.1,1.6-13.7,2.6c-6.6,1-13.2,1.8-19.9,2.5l-15.7,1.6
			l-13.1,1.6L302.9,435.6z M372.5,167.5c3.6-0.9,7.5-2.2,11.8-3.9c4.3-1.6,7.4-2.5,9.3-2.7c1.9,0,3.7,0.3,5.4,0.9
			c1.7,0.6,4.2,1.8,7.5,3.4s5.4,3,6.4,4.2c1,1.2,1.5,2.1,1.5,2.9c-0.2,1.1-1.1,2.3-2.8,3.6c-1.7,1.3-4.9,2.5-9.6,3.6l-16.4,4.2
			c-5.3,1.4-10.9,2.6-16.9,3.5c-5.9,0.9-10.5,1.4-13.8,1.4c-3.9,0.2-6.4-0.1-7.5-0.7l-7-2.6c-0.5,7.2-0.9,13.3-1.2,18.3
			c-0.3,5-0.4,8.9-0.2,11.7c0.3,8.4,2,14.3,5,17.5c3,3.2,7.7,5.4,14.1,6.7c6.3,1.3,14,1.8,23.1,1.6c7,0,13.4-0.3,19-0.9
			c5.6-0.6,10.8-1.8,15.6-3.4c4.8-1.6,8.2-3.6,10.3-5.7c2.1-2.2,4.5-6.8,7.1-13.8c2.7-7,4.3-12.7,4.9-16.9l1.6-11.5
			c0.3-3.1,1.4-4.8,3.3-5s3.1,1.1,3.8,4.1l2.6,13.1c0.5,3.1,1.4,7.3,2.9,12.7c1.5,5.3,3,9.2,4.6,11.7l5.2,8.7c1.4,3,2,5.6,1.6,8
			c-0.3,2-1.2,4.1-2.7,6.1c-1.5,2-4.6,4.5-9.4,7.5c-4.8,3-12.5,5.8-23.2,8.4c-10.7,2.7-23.4,4-38.1,4c-13,0.2-23.8-0.7-32.6-2.7
			c-8.8-2-15.9-4.7-21.3-8.3c-5.5-3.6-9.8-8.5-13-14.6c-3.2-6.2-4.8-13-4.9-20.6c-0.1-7.6,0.3-18.6,1.1-32.9l1.6-36.6
			c0-1.7-0.1-4.9-0.2-9.5c-0.2-4.6-1.2-9.3-3-13.9s-2.9-7.9-2.9-9.5c-0.1-1.6,0.4-2.9,1.4-3.8c1-0.9,2.9-1.1,5.7-0.8
			c3,0.5,7.3,1.8,13,4c5.7,2.2,9.9,4.3,12.5,6.2c2.7,2,4,3.7,4.1,5.2c0.1,1.5-0.7,3.7-2.5,6.7c-1.6,2.7-2.7,5.2-3.3,7.5
			c-0.6,2.3-1.4,7.3-2.3,15l-2.1,16.9L372.5,167.5z"/>
	</g>
	<g>
		<path d="M613.2,275.5c3.5,3.5,5.3,6.5,5.3,8.9c0,0.7-0.8,1.5-2.5,2.5c-2,1.5-4.1,6.8-6.5,15.5c-4.4,12.5-8.6,22.8-12.7,30.7
			c8.9,6,19,14.2,30.7,24.8c4.9,4.6,7.3,9.4,7.3,14.3c0,6-1.1,9-3.4,9c-1.5,0-5.2-3.2-11-9.8c-11.1-12.5-20.8-22.4-28.8-29.5
			c-6.9,9.7-13.2,17.4-19.3,23.3c-7.2,6.3-14.5,11.4-22.2,15.2c-4.4,1.7-6.9,2.5-7.6,2.5h-0.6c0-0.7,0.6-1.5,1.7-2.2
			c12.4-9.6,21.9-18.8,28.7-27.8c3.8-5.1,7.6-11,11.5-17.9c-11.4-9.7-22.5-18.1-33.2-25.3l-1.4-1.1c0-0.4,0.3-0.6,1-0.6
			c1.5,0,4.9,1,10.4,3c7.2,3.4,16.3,8.7,27.4,16.2l3.4-6.6c5.2-12.1,9-22.6,11.2-31.8c1.5-5.8,1.8-10,1.1-12.4
			c-0.7-1.7-1.1-2.8-1.1-3.4c0-0.7,0.7-1,2.2-1C607.3,271.8,610,273.1,613.2,275.5z"/>
	</g>
	<g>
	</g>
	<g>
	</g>
	<g>
	</g>
	<g>
	</g>
	<g>
	</g>
	<g>
	</g>
	<g>
	</g>
	<g>
	</g>
	<g>
	</g>
	<g>
	</g>
	<g>
	</g>
	<g>
	</g>
	<g>
	</g>
	<g>
	</g>
	<g>
	</g>
	<g>
	</g>
</g>
</svg>
