<svg xmlns="http://www.w3.org/2000/svg" width="391.667" height="197.438" viewBox="0 0 391.667 197.438"><path d="M59.754 34.69l-.16-.72h2.188L61.122 20l1.184.72.89-.647c.41-.384.82-.768 1.07-1.296l1.14.504c.228.073.32.217.32.36 0 .17-.16.385-.388.385l-.547.144-.888.6-1.55.647.137 3.457h.546l1.254-1.296 1.163 1.152c.114.096.16.24.16.384 0 .264-.228.48-.456.48h-2.645l.183 3.77h.342l1.254-1.273 1.164 1.153c.114.072.16.216.16.36 0 .24-.205.504-.456.504h-2.44l.23 3.864h3.35V18.658l1.003.864h5.22l.548-.623 1.026.744c.09.05.137.145.137.265 0 .216-.16.384-.318.456-.137.073-.228.217-.228.36v13.25h3.192l.25-3.864h-2.302l-.183-.744h2.554l.296-3.77h-2.667l-.183-.72h2.918l.273-3.96h-2.917l-.137-.72h3.078l.593-.72.798.768c.16.12.25.288.25.456 0 .192-.09.336-.273.384-.182.072-.296.216-.296.36l-.89 12.553h.046l1.254-1.32 1.186 1.152c.09.096.137.24.137.36 0 .264-.184.504-.457.504h-20.45zm6.77 1.128l1.072.647c.182.12.296.265.296.408 0 .024-.046.312-.32.312l-.318-.048c-.09 0-.183.023-.25.07-2.03 2.138-5.997 3.146-6.453 3.146-.136 0-.25-.048-.25-.192 0-.12.07-.19.183-.24 2.804-.79 4.833-2.472 5.86-3.72l.182-.382zm.913-1.85h5.106V20.266h-5.106V33.97zm2.416-11.447l1.117-1.103 1.003.96c.09.097.137.24.137.36 0 .216-.16.528-.456.528h-3.35l-.16-.744h1.71zm-1.414 2.81l.546.384h1.96l.342-.456.638.48.09.264c-.136.216-.16.24-.295.408v5.28c0 .12-.067.24-.204.288-.5.12-.57.144-.57-.265v-.96h-1.732v.937c0 .096-.068.19-.16.24-.547.12-.616.144-.616-.265V25.33zm.775 4.704h1.732v-3.6h-1.732v3.6zm4.24 6.528c2.006.6 4.788 2.304 4.788 3.12 0 .288-.205.6-.524.6-.206 0-.39-.096-.617-.336-1.46-1.344-3.282-2.497-5.312-3.433-.136-.05-.18-.145-.18-.24.022-.12.113-.168.25-.168l1.595.457zM97.144 25.354l1.253-.504.752 1.056c.067.096.09.192.09.264 0 .265-.342.265-.48.265l-.5.095c-1.254 1.008-2.576 1.848-3.966 2.424 0 .288 0 .456-.296.48-.206.048-.296.144-.296.288v2.184h6.68l1.435-1.272 1.46 1.152c.113.072.182.216.182.384 0 .336-.274.456-.525.456h-9.232v6.36c0 .288-.183.6-.5.937-.297.312-.913.528-1.734.624 0-.936-.98-1.367-1.642-1.655-.16-.05-.228-.145-.228-.24 0-.216.182-.216.32-.168l2.142.36.388-.05.114-.287v-5.88H83.08l-.18-.72h9.665v-3.432l1.072.144c1.368-.697 2.6-1.56 3.67-2.545H86.384l-.342-.72h11.102zM85.38 22.04l-.204 1.13c-.16.575-.73 2.23-1.62 2.23-.387 0-.592-.24-.592-.67 0-.146.182-.36.48-.602.843-.84 1.618-1.848 1.686-3.72 0-.097.068-.17.183-.17.09 0 .16.073.16.17v.91h7.09v-3.07l1.185.215c.342.05.5.192.5.385 0 .19-.113.336-.272.384-.183.072-.273.19-.273.36v1.728h7.66l.73-.816.82 1.128c.136.145.227.288.227.456 0 .192-.114.456-.387.456-.068 0-.342-.048-.41-.048-.16 0-.297.048-.388.145-.433.553-1.824 2.16-2.052 2.16-.114 0-.206-.12-.206-.24 0-.047.023-.07.023-.096.593-.792 1.072-1.607 1.436-2.424H85.38zM110.803 26.36c-2.37 3.434-4.765 5.257-4.97 5.257-.114 0-.182-.096-.182-.192 0-.07.046-.144.115-.216 1.87-1.85 3.51-3.914 4.787-6.122l1.528-2.855h-6.224l-.183-.744h6.725c.798-1.777.89-2.065 1.05-2.954l1.253.48c.25.07.366.216.366.36 0 .31-.137.31-.48.31-.113 0-.18.024-.204.072l-.798 1.73h9.575l1.435-1.25 1.46 1.128c.113.072.18.216.18.384 0 .312-.227.48-.523.48H113.22c-.548 1.08-1.164 2.136-1.825 3.12l.41.36h9.688l.502-.647.89.768c.182.146.295.313.295.505 0 .168-.114.336-.296.408-.182.072-.25.192-.25.288v12.026c0 .672-.456 1.15-2.075 1.464l-.274-.672c-.137-.217-.66-.456-1.504-.744-.16-.048-.228-.145-.228-.288.022-.12.09-.168.205-.168h.067c.798.12 1.39.19 1.824.19.48 0 .844-.047.844-.6V34.4h-9.552v5.617c0 .288-.205.336-.912.527-.16 0-.228-.168-.228-.527V26.36zm1.14.074v3.12h9.55v-3.12h-9.55zm0 3.864v3.385h9.55v-3.385h-9.55zM130.206 22.833l1.14 1.008h6.862v-3.478h-9.392l-.183-.744H146.3l1.436-1.272 1.46 1.152c.113.072.182.216.182.384 0 .312-.228.48-.524.48h-9.506v3.48h7.158l.5-.648.89.768c.183.145.296.312.296.48 0 .19-.114.36-.296.432s-.273.192-.273.288v13.8c0 .53-.365 1.2-2.052 1.465l-.272-.624c-.137-.19-.66-.432-1.527-.695-.136-.048-.204-.145-.204-.288.022-.12.09-.168.182-.168h.045c.66.072 1.208.12 1.62.12.75 0 1.093-.072 1.093-.624V24.562h-7.158v15.24c0 .288-.5.456-.866.456-.182 0-.273-.144-.273-.455v-15.24h-6.863v15.456c0 .287-.205.335-.935.526-.137 0-.205-.168-.205-.527V22.832zm5.357 4.37c.114.07.183.167.183.287 0 .168-.137.384-.388.384-.205.024-.296.145-.296.288.137.984.388 1.896.707 2.736.227.624.774 2.16 2.097 3.24.16.264.16.264-.296.312-.272.024-.5.192-.615.456-.09.192-.182.312-.25.312-.046 0-.616-.863-1.05-1.968l-.592-1.872c-.89 2.208-2.78 3.792-2.895 3.792-.09 0-.16-.144-.16-.216 0-.048.023-.072.045-.096 1.55-1.705 2.645-4.945 2.645-5.593l-.16-1.416h-2.234l-.137-.722h2.166l.5-.576.73.65zm8.275-.098c.114.07.182.19.182.312 0 .168-.16.36-.387.384-.183 0-.296.12-.296.266.137.983.365 1.896.615 2.735.64 1.825 1.3 2.57 2.03 3.24.136.217.205.337-.297.337-.25 0-.502.168-.64.408-.09.192-.18.312-.25.312s-.66-1.032-1.002-1.97l-.5-1.727c-.82 1.968-2.873 3.77-3.033 3.77-.09 0-.16-.145-.16-.217 0-.048.023-.096.045-.12 1.528-1.536 2.804-4.775 2.804-5.496l-.138-1.584h-2.302l-.16-.72h2.28l.5-.576.708.648zM153.872 26.65c-.775 1.438-2.166 3.358-2.394 3.358-.068 0-.183-.048-.183-.19 0-.073.023-.146.068-.217 2.736-4.127 3.92-8.81 3.92-11.04l1.3.168c.32.023.48.168.48.36 0 .19-.138.287-.32.287-.183 0-.296.072-.296.168-.388 1.752-.958 3.48-1.664 5.16.615.216.684.216.684.408 0 .097-.068.217-.205.265-.16.097-.25.216-.25.312v14.497c0 .144-.092.24-.274.288-.73.19-.866.216-.866-.288V26.65zm4.72-8.04l1.23 1.103h10.26l.546-.768 1.05.72c.067.048.09.12.09.24 0 .288-.183.432-.32.456-.16.073-.227.17-.227.24v19.227c0 .12-.113.24-.25.312-.75.19-.888.215-.888-.29v-1.224h-10.35v1.488c0 .288-.25.36-.912.528-.16 0-.228-.192-.228-.528V18.61zm1.14 19.296h10.35V20.433h-10.35v17.473zm2.073-9.72l1.003.72h1.573v-3.504h-3.51l-.182-.72h3.693v-3.265l1.187.24c.342.048.5.192.5.384 0 .193-.113.313-.295.36-.16.073-.25.217-.25.385v1.896h1.367l1.252-1.296 1.186 1.152c.114.096.16.24.16.384 0 .217-.16.48-.48.48h-3.487v3.504h1.438l.524-.816.912.673c.137.097.182.265.182.408-.022.145-.114.265-.25.312-.137.072-.228.168-.228.264v6.05c0 .31-.09.335-.843.552-.183 0-.296-.168-.296-.553v-1.2h-4.036v.912c0 .12-.068.24-.25.336-.776.193-.867.218-.867-.383v-7.272h-.002zm1.117 5.688h4.035v-4.25h-4.035v4.25zM179.52 22.81l1.323-1.08 1.186.96c.09.07.16.215.16.358 0 .312-.23.48-.503.48h-7.226l-.16-.72h5.22zm-.796 6.744l1.322-1.08 1.163.96c.113.07.182.216.182.384 0 .312-.228.48-.502.48h-5.608l-.182-.744h3.624zm-3.58 2.472l1.004.72h3.625l.5-.815.913.673c.137.096.183.264.183.407-.024.145-.115.288-.252.337-.114.048-.205.144-.205.24v5.855c0 .312-.09.336-.843.552-.183 0-.296-.168-.296-.552v-1.176h-3.488v1.56c0 .12-.09.24-.274.336-.775.192-.866.216-.866-.384v-7.752zm3.488-5.736l1.322-1.08 1.163.96c.114.072.183.192.183.36 0 .216-.114.48-.5.48h-5.427l-.182-.72h3.442zm.092-6.865l1.322-1.08 1.163.984c.113.047.182.19.182.36 0 .31-.228.478-.502.478h-5.448l-.16-.744h3.442zm-2.44 18.097h3.49v-4.057h-3.49v4.057zm10.875 1.128c.158.096.25.24.25.36 0 .096-.092.36-.343.36-.046 0-.388-.073-.456-.073-.774.336-1.686.648-2.712.84-1.048.217-1.915.288-2.6.288-.182 0-.272-.048-.272-.19 0-.146.045-.24.16-.24 1.732-.097 4.467-1.2 5.06-1.945l.913.6zm-3.695-15.673l-.182-.72h4.673v-1.44h-5.47l-.184-.72h5.654v-1.944l1.185.216c.366.047.502.19.502.383 0 .192-.09.336-.273.385-.274.096-.274.19-.274.96h3.214l1.436-1.272 1.46 1.152c.113.07.16.19.16.336 0 .048 0 .096-.024.144-.022.216-.205.36-.48.36h-5.767v1.44h2.143l1.436-1.272 1.46 1.152c.113.07.18.19.18.36 0 .287-.204.48-.523.48h-10.325zm9.94 1.248l.5-.84.913.695c.137.096.183.264.183.384-.022.145-.113.288-.25.336-.137.072-.228.168-.228.265v3.983c0 .288-.09.312-.844.528-.182 0-.273-.168-.273-.528v-.815h-9.552c0 .744 0 .815-.273.96-.775.19-.867.216-.867-.384v-5.33l1.003.744h9.69zm-9.552 3.265h2.417v-2.544h-2.417v2.544zm.365 1.536l1.003.72h6.11l.593-.647 1.05.72c.09.047.136.143.136.24 0 .022 0 .287-.366.383-.183.048-.273.168-.273.288v7.058c.046.288-.16.336-.797.504-.32 0-.32-.216-.32-1.15h-5.995c0 .742 0 .814-.273.96-.73.19-.866.215-.866-.386l-.002-8.69zm1.14 1.44v1.536h5.995v-1.536h-5.996zm0 2.256v1.44h5.995v-1.44h-5.996zm0 2.16v1.513h5.995v-1.513h-5.996zm2.05-7.392h2.418v-2.544h-2.417v2.544zm3.08 10.848c1.663.048 4.24.72 4.24 1.656 0 .264-.206.552-.48.552-.16 0-.365-.07-.593-.19-1.71-.985-3.647-1.44-4.422-1.61-.137-.022-.228-.12-.228-.24s.068-.167.205-.167h1.277v-.002zm.477-10.848h2.44v-2.544h-2.44v2.544zM197.694 27.753l-.183-.72h11.924c.317-.576.66-1.272.957-2.017l.525-1.776.09-.744 1.347.408c.228.096.342.216.342.36 0 .312-.25.312-.297.312l-.342.12-1.05 1.968-.91 1.368h4.99l1.438-1.272 1.46 1.152c.112.072.182.216.182.36 0 .264-.183.48-.524.48h-19.946zm.89-6l-.185-.72h8.435v-2.688l1.162.217c.364.048.524.19.524.384s-.113.336-.296.384-.272.192-.272.36v1.344h5.698l1.46-1.272 1.436 1.152c.115.072.184.216.184.36 0 .264-.184.48-.502.48h-17.645zm2.986 7.73l.866.646h9.712l.592-.673 1.05.744c.09.05.136.12.136.217s-.09.336-.364.408c-.16.048-.272.168-.272.288v9.12c.022.145-.092.265-.23.337-.683.192-.89.24-.89-.336v-1.128h-9.46v.912c0 .12-.09.24-.272.336-.752.168-.866.19-.866-.384l-.002-10.488zm2.187-3.385c-.158-1.25-.73-2.544-1.3-3.05-.067-.047-.09-.118-.09-.19s.067-.192.204-.192c.548 0 2.304 2.304 2.304 2.978 0 .407-.068.936-.547.936-.294-.002-.523-.267-.57-.482zm-1.05 4.752v3.312h9.462V30.85h-9.462zm0 4.032v3.504h9.462v-3.504h-9.462zM228.815 32.866c1.026-.744 2.188-1.944 2.188-3.528-.252.145-.48.24-.752.24-1.003 0-1.642-.768-1.642-1.584 0-.936.547-1.728 1.643-1.728.89 0 1.96.6 1.96 2.4 0 1.92-1.275 3.433-3.055 4.704l-.34-.504zM261.554 38.77c0 .72-.64 1.225-2.074 1.488-.068-.815-.48-1.128-1.87-1.607-.16-.047-.204-.144-.204-.24 0-.047 0-.19.182-.19h.068c1.025.19 1.778.287 2.188.287.23 0 .57 0 .57-.552v-6.553h-6.246V39.9c0 .358-.82.455-.865.455-.184 0-.273-.145-.273-.456v-8.522h-6.314c0 1.08-.64 3.984-1.392 5.642-.456 1.03-1.618 3.216-2.028 3.216-.113 0-.16-.145-.16-.216 0-.048.023-.097.047-.145 1.732-3 2.804-6.36 2.804-16.01v-5.16l1.024.816h13.405l.525-.647.89.77c.18.144.296.312.296.504 0 .19-.115.336-.297.408-.184.07-.273.19-.273.287l-.003 17.93zm-8.525-12.89h-5.952c-.045 1.73-.137 3.36-.272 4.802h6.225v-4.8zm0-5.615h-5.905v4.896h5.904v-4.895zm1.137 4.896h6.246v-4.895h-6.246v4.896zm0 5.522h6.246v-4.8h-6.246v4.8zM269.035 25.76c-1.162 2.017-2.688 3.696-2.918 3.696-.068 0-.182-.096-.182-.19 0-.073.045-.146.09-.218 3.01-3.96 4.492-8.545 4.674-10.705l1.276.265c.296.048.434.168.434.336 0 .096 0 .336-.32.336-.182 0-.295.048-.295.12-.524 1.728-1.21 3.384-2.006 4.968.772.264.864.288.864.456 0 .096-.068.216-.23.288-.158.096-.25.216-.25.288v14.688c0 .145-.09.265-.272.288-.73.192-.867.216-.867-.288V25.76zm9.095-2.903h-2.233l-.66 1.56c-1.07 2.257-2.76 4.37-3.08 4.37-.112 0-.18-.097-.18-.193 0-.07.044-.144.09-.216 2.69-3.695 3.716-7.993 3.92-9.528v-.576l1.323.19c.297.05.434.193.434.386 0 .19-.137.312-.297.312-.182 0-.318.048-.318.145-.253.936-.57 1.92-.937 2.855h7.98l1.413-1.27 1.39 1.078c.138.145.23.312.23.456 0 .168-.092.456-.455.456h-7.478v4.608h4.104l1.414-1.25 1.367 1.082c.16.144.25.312.25.456 0 .288-.205.456-.455.456h-6.68v4.513h4.104l1.414-1.27 1.367 1.08c.16.143.25.335.25.478 0 .288-.205.432-.455.432h-6.68v6.72c0 .337-.82.433-.867.433-.182 0-.273-.144-.273-.432v-17.33h-.002zM295.37 37.62c1.458-.265 2.825-.626 4.01-.985.046 0 .07-.023.116-.023.295 0 .295.336.295.384 0 .096-.044.192-.157.216-3.717 1.488-7.797 2.16-9.098 2.305-.09 0-.182.144-.205.384-.02.24-.158.385-.342.385-.205 0-.363-.12-.433-.384l-.23-.91-.25-.89.98.12c.935.024 2.78-.12 4.172-.36v-2.59h-4.582l-.183-.745h4.765V32.05h-3.056v1.128c0 .12-.09.217-.25.312-.75.192-.888.216-.888-.36v-8.52l1.002.743h3.19V23.36h-4.765l-.183-.743h4.946V20.53h-.114c-1.528.19-2.85.287-3.99.287-.478 0-.684 0-.684-.288 0-.17.09-.265.25-.265 3.283-.265 6.748-.864 8.55-1.92l1.186.672c.16.096.25.216.25.312 0 .12-.158.335-.41.335-.067 0-.41-.096-.478-.096s-.113 0-.137.022c-1.003.337-2.098.6-3.283.77v2.255h2.485l1.458-1.272 1.437 1.152c.113.072.183.216.183.384 0 .313-.228.48-.5.48h-5.063v1.993h3.032l.593-.672 1.05.72c.09.05.136.145.136.24 0 .12-.092.337-.364.408-.183.05-.296.168-.296.288v6.673c.02.144-.068.287-.205.36l-.364.07 1.186.96c.115.073.184.217.184.385 0 .312-.23.48-.523.48h-4.424v2.353zm-1.142-11.547h-3.055v2.28h3.055v-2.28zm0 2.977h-3.055v2.305h3.055V29.05zm1.14-.696h3.056v-2.28h-3.055v2.28zm0 3h3.056V29.05h-3.055v2.304zm0 3.168h2.257l1.322-1.08c-.433.072-.523.023-.523-.433v-.938h-3.055v2.45zm13.883-9.817c.114.072.16.216.16.36-.022.144-.138.264-.296.288-.115.048-.23.216-.23.432 0 .552.023 1.104.023 1.632 0 5.256-.455 9.05-.98 10.49-.684 1.728-1.32 2.135-2.735 2.352-.067-.96-.91-1.272-1.526-1.44-.113-.024-.183-.096-.183-.216 0-.145.113-.265.25-.265h.046c.98.264 1.687.407 2.097.407s.82-.744 1.004-1.224c.25-.6.98-4.057.866-12.193h-3.373l-.092 2.76c-.136 2.112-.684 7.033-3.168 10.01-1.368 1.584-2.78 2.256-2.896 2.256-.092 0-.205-.072-.205-.216 0-.072.047-.168.114-.192 3.647-2.592 4.81-7.777 5.062-12.05l.067-2.567h-2.508l-.387-.743h2.94l.02-6.024 1.323.264c.32.048.48.192.48.384 0 .193-.113.337-.318.385l-.32.168-.066 4.825h3.306l.614-.624.915.74zM316.983 22.425l1.46-1.248 1.436 1.152c.112.047.182.19.182.36 0 .31-.228.478-.5.478h-7.317l-.184-.744h4.923zm-4.24 9.12l1.117.84h3.67l.593-.67 1.05.72c.09.048.137.144.137.24 0 .12-.09.335-.364.407-.183.048-.273.168-.273.288v6.77c0 .144-.092.264-.23.336-.728.19-.888.216-.888-.336v-1.704h-3.672v1.68c0 .12-.09.24-.272.312-.75.192-.865.217-.865-.36v-8.522zm3.533-5.735l1.46-1.272 1.436 1.152c.115.072.184.216.184.384 0 .336-.273.456-.523.456h-5.858l-.183-.72h3.484zm0 3.288l1.46-1.272 1.436 1.152c.115.07.184.216.184.36 0 .264-.184.48-.523.48h-5.858l-.183-.72h3.484zm0-9.673l1.46-1.248 1.436 1.152c.115.047.184.19.184.36 0 .31-.23.478-.523.478h-5.79l-.16-.744h3.393zm-2.394 18.29h3.67v-4.608h-3.67v4.607zm17.896 1.247c0 .408-.228 1.177-2.073 1.464-.16-.815-.39-1.104-2.144-1.68-.137-.048-.228-.12-.228-.24s.068-.19.205-.19h.068c1.186.263 2.006.383 2.462.383.205 0 .57 0 .57-.553V20.265h-9.644l-.16-.744h9.804l.502-.647.888.77c.183.144.296.312.296.504 0 .19-.113.336-.296.408-.16.07-.25.19-.25.287v18.12zm-5.882-15.505l1.438-1.248 1.46 1.15c.112.05.182.192.182.36 0 .313-.23.48-.524.48h-7.02l-.184-.744h4.648zm-4.264 3.12l1.004.745h3.967l.615-.672 1.025.72c.092.048.137.145.137.24 0 .12-.113.336-.342.408-.183.048-.297.168-.297.288v6.77c.024.143-.09.287-.227.335-.685.193-.89.24-.89-.335V33.66h-3.854v1.847c0 .12-.092.24-.274.336-.73.192-.865.217-.865-.384v-8.882h.002zm1.14 6.36h3.855v-4.895h-3.854v4.896zM335.703 22.09l1.05.91h1.23l.685-2.135.272-1.824v-.743l1.368.12c.273.048.41.168.41.336s-.068.288-.23.336l-.32.19-.796 2.113-.774 1.607h2.985l.547-.768 1.05.72c.067.048.09.12.09.24 0 .312-.25.432-.317.456-.183.072-.25.168-.25.24v14.064c0 .12-.115.24-.23.312-.797.168-.89.168-.89-.288V36.56h-4.74v2.23c0 .313-.273.386-.91.554-.16 0-.23-.192-.23-.553v-16.7zm1.138 7.464h4.743V23.72h-4.742v5.834zm0 6.288h4.743v-5.544h-4.742v5.544zm11.904 2.304c1.14.384 1.982.6 2.46.6.525 0 .958-.815 1.188-1.368.25-.647 1.187-4.296 1.187-13.753h-6.887l-.297.77c-1.117 2.664-2.576 4.487-2.78 4.487-.068 0-.16-.07-.16-.19 0-.073.022-.146.068-.217 2.21-3.576 3.282-7.777 3.282-10.153l1.32.096c.298.024.436.145.436.336 0 .192-.114.336-.272.336-.184 0-.297.072-.297.168-.273 1.225-.64 2.473-1.05 3.648h6.61l.617-.624.91.744c.114.096.16.216.16.336-.023.144-.137.264-.273.312-.25.072-.25.192-.25 1.225 0 6.432-.66 11.28-1.254 12.815-.752 1.872-1.527 2.376-2.918 2.52-.114-.96-.844-1.367-1.938-1.607-.114-.023-.183-.096-.183-.19 0-.12.09-.29.272-.29l.048-.002zm-2.532-10.393c0-.07.045-.216.182-.216.548 0 3.26 3.096 3.26 4.536 0 .216-.09.792-.523.792-.433 0-.546-.384-.568-.48-.435-1.943-1.276-3.647-2.257-4.464-.07-.046-.093-.094-.093-.167zM358.48 19.353l1.23 1.104h3.213l.57-.768 1.05.72c.044.023.067.12.067.24 0 .24-.092.407-.297.478-.182.072-.25.168-.25.216v15.48c0 .29-.523.457-.82.457-.23 0-.32-.143-.32-.43V35.43h-3.305v2.327c0 .31-.273.384-.912.552-.16 0-.23-.192-.23-.553l.003-18.407zm1.14 8.137h3.306V21.2h-3.305v6.29zm0 7.224h3.306v-6.48h-3.305v6.48zm6.38-7.897l-.182-.72h4.947v-3.865h-5.562l-.184-.744h5.744v-3.24l1.187.215c.343.048.5.192.5.385 0 .19-.112.336-.27.384-.184.07-.274.19-.274.36v1.895h3.738l1.437-1.25 1.46 1.13c.114.07.184.215.184.383 0 .312-.23.48-.523.48h-6.292v3.865h2.758l1.438-1.272 1.46 1.152c.113.07.183.216.183.36 0 .264-.184.48-.524.48h-11.22v.002zm7.617 3.77v-3.05l1.162.17c.388.047.593.215.593.432 0 .215-.115.335-.32.358-.204.048-.295.145-.295.288v1.8h1.322l1.412-1.176 1.322 1.056c.09.072.16.217.16.36 0 .264-.14.504-.502.504h-3.717v7.656c0 .288-.183.6-.502.937-.295.312-.912.528-1.73.624 0-.888-.958-1.32-1.527-1.56-.184-.05-.252-.146-.252-.265 0-.192.205-.168.297-.145l2.054.288.41-.048c.045-.048.113-.168.113-.312V31.33h-8.23l-.182-.744h8.412zm-3.854 5.71c-.068.266-.364.36-.48.36-.342 0-.5-.287-.547-.407-.456-1.56-1.3-3-2.144-3.527-.067-.05-.092-.12-.092-.192 0-.12.047-.215.184-.215.456 0 2.734 1.968 3.077 3.336l.003.648z"/><g><path d="M16.342 75.29c-.958 2.017-2.234 3.624-2.394 3.624-.068 0-.182-.048-.182-.19 0-.073.022-.146.068-.218C16.5 74.28 17.48 69.41 17.48 67.32l1.3.097c.32.024.456.145.456.336 0 .192-.114.336-.296.336-.16 0-.274.07-.274.167-.342 1.704-.843 3.408-1.48 5.064.683.193.75.217.75.41 0 .095-.067.215-.204.287-.16.096-.25.216-.25.312v14.856c0 .144-.09.24-.274.288-.73.19-.866.216-.866-.288V75.29zm3.466-4.513l1.276.19c.365.05.547.193.547.386 0 .168-.113.36-.34.456-.23.095-.343.263-.343.43V86.98c0 .144-.09.288-.25.384-.206.048-.593.144-.64.144-.158 0-.25-.07-.25-.19v-16.54zm10.965 5.545l1.39-1.272 1.39 1.08c.16.145.252.312.252.456 0 .265-.183.456-.48.456h-4.832c-.046 1.56-.137 2.93-.25 3.96h3.305l1.46-1.27 1.435 1.15c.114.072.183.217.183.385 0 .336-.274.456-.524.456h-5.198c1.23 2.783 3.214 4.8 6.064 5.665.09.023.137.096.137.19s-.182.193-.5.265c-.32.072-.548.265-.617.505-.068.19-.137.287-.205.287-.09 0-3.716-1.872-5.403-6.912h-.228c-.32 1.464-.707 2.424-1.55 3.647-2.052 3-5.904 3.792-5.996 3.792-.092 0-.16-.12-.16-.24 0-.07.045-.168.137-.19 4.445-1.562 6.087-4.97 6.452-7.01H22.27l-.182-.72h5.06c.138-.983.206-2.352.206-3.983H24.55l-.342.67c-.775 1.297-1.733 2.377-1.96 2.377-.092 0-.206-.096-.206-.216 0-.07.046-.144.09-.216.617-.84 1.14-1.775 1.483-2.712.752-1.823.752-2.376.752-3.12l1.322.265c.295.048.432.19.432.36 0 .216-.137.31-.32.31-.182 0-.318.05-.318.12l-.593 1.465h5.883zM22.27 73.01l-.182-.72h7.728l.456-3.313h-6.907l-.16-.72h7.113l.638-.72.73.815c.16.12.227.264.227.407 0 .216-.068.36-.296.432-.183.048-.296.168-.296.36l-.364 2.735h.684l1.436-1.27 1.46 1.15c.113.072.18.192.18.36 0 .288-.204.48-.523.48H22.27zM41.923 71.81l1.322-1.08 1.186.96c.092.07.16.215.16.358 0 .312-.227.48-.5.48h-7.227l-.16-.72h5.22zm-.798 6.744l1.322-1.08 1.163.96c.114.07.183.216.183.384 0 .312-.228.48-.502.48h-5.607l-.182-.744h3.625zm-3.58 2.472l1.004.72h3.624l.5-.815.913.673c.137.096.183.264.183.407-.023.145-.114.288-.25.337-.115.048-.206.144-.206.24v5.855c0 .312-.09.336-.843.552-.182 0-.295-.168-.295-.552v-1.176h-3.488v1.56c0 .12-.09.24-.274.336-.775.192-.866.216-.866-.384v-7.752zm3.49-5.736l1.32-1.08 1.164.96c.113.072.182.192.182.36 0 .216-.114.48-.5.48h-5.427l-.182-.72h3.44zm.09-6.865l1.322-1.08 1.163.984c.114.047.183.19.183.36 0 .31-.228.478-.502.478h-5.447l-.16-.744h3.442zm-2.438 18.097h3.488v-4.057h-3.488v4.057zM49.56 87.65c.16.096.25.24.25.36 0 .096-.09.36-.34.36-.047 0-.39-.073-.457-.073-.775.336-1.687.648-2.713.84-1.048.217-1.915.288-2.6.288-.182 0-.272-.048-.272-.19 0-.146.045-.24.16-.24 1.732-.097 4.467-1.2 5.06-1.945l.912.6zm-3.693-15.673l-.182-.72h4.673v-1.44h-5.47l-.184-.72h5.654v-1.944l1.185.216c.365.047.5.19.5.383 0 .192-.09.336-.272.385-.272.096-.272.19-.272.96h3.214l1.436-1.272 1.46 1.152c.113.07.16.19.16.336 0 .048 0 .096-.024.144-.022.216-.205.36-.48.36h-5.767v1.44h2.143l1.436-1.272 1.46 1.152c.113.07.18.19.18.36 0 .287-.204.48-.523.48H45.867zm9.94 1.248l.5-.84.913.695c.137.096.182.265.182.384-.023.145-.114.288-.25.336-.138.072-.23.168-.23.265v3.983c0 .288-.09.312-.843.528-.183 0-.274-.168-.274-.528v-.815h-9.552c0 .744 0 .815-.273.96-.774.19-.866.216-.866-.384v-5.33l1.003.744h9.69zm-9.552 3.265h2.417v-2.544h-2.417v2.544zm.365 1.536l1.003.72h6.11l.592-.647 1.05.72c.09.047.136.143.136.24 0 .022 0 .287-.364.383-.183.048-.273.168-.273.288v7.058c.045.288-.16.336-.798.504-.32 0-.32-.216-.32-1.15H47.76c0 .742 0 .814-.273.96-.73.19-.866.215-.866-.386v-8.69zm1.14 1.44v1.536h5.995v-1.536H47.76zm0 2.256v1.44h5.995v-1.44H47.76zm0 2.16v1.513h5.995v-1.513H47.76zm2.05-7.392h2.418v-2.544H49.81v2.544zm3.08 10.848c1.663.048 4.24.72 4.24 1.656 0 .264-.206.552-.48.552-.16 0-.365-.07-.593-.19-1.71-.985-3.647-1.44-4.422-1.61-.137-.022-.228-.12-.228-.24s.068-.167.205-.167h1.277zm.477-10.848h2.44v-2.544h-2.44v2.544z"/></g><path d="M73.08 65.98c0 .173-.19.315-.73.315-.377 0-1.834.145-2.833.23.027.058.027.115.027.173 0 .086-.027.173-.054.26-.08.23-.19 1.41-.19 1.755-.026.576-.026 1.44-.026 2.246 0 .66.054 1.9.08 2.245 0 .346-.43 1.41-.755 1.41-.298 0-.595-1.007-.54-2.043.053-.547.188-2.448.188-4.03 0-.75-.027-1.412-.108-1.844-.675.115-1.754.317-2.51.52-.46.144-1.107-.462-1.296-.69-.108-.116-.19-.26-.19-.346 0-.145.163-.26.568-.26.702 0 1.458-.058 1.998-.114 1.728-.174 3.266-.403 4.103-.576.486-.115.81-.173 1.053-.173.19 0 .35.027.486.113.296.173.728.548.728.807zm.027 12.007c0 .202-.216.316-.837.26-.162-.03-.324-.03-.513-.03-.864 0-2.105.146-3.13.29-.487.058-1.97.287-2.97.575-.46.115-1.106-.46-1.295-.69-.108-.115-.19-.288-.19-.403 0-.174.136-.318.54-.318.703 0 1.46-.058 2-.114 1.727-.202 3.157-.403 4.02-.604.298-.058.568-.115.865-.115.27 0 .54.058.756.2.295.227.754.66.754.947zM69.14 82.65c.296.26.62.577.62.778 0 .23-.405.518-.62 1.15-.27.692-1.107 2.708-2.214 4.262-.35.52-.81 1.182-.432 1.182.324 0 1.242-.06 2.08-.145.728-.086 1.564-.202 1.942-.288.297-.06.756-.29 1.106-.29.135 0 .243.03.35.116.433.403 1.107.894.973 1.382-.054.26-.243.317-.46.317-.215 0-.457-.058-.646-.115-.46-.086-1.027-.115-1.675-.115-.783 0-1.62.06-2.375.145-.647.086-1.484.345-2.105.576-.432.173-.864-.403-1.242-.92-.054-.116-.108-.203-.108-.29 0-.345.432-.632.783-1.006 1.052-1.182 1.78-2.42 2.59-4.492.27-.662.352-1.18.352-1.583 0-.202-.027-.375-.054-.52-.027-.085-.027-.172-.027-.258 0-.346.16-.46.35-.432.135.028.297.115.432.23l.377.316z"/><g><path d="M83.548 81.858c1.026-.744 2.188-1.944 2.188-3.528-.25.145-.48.24-.752.24-1.003 0-1.64-.77-1.64-1.584 0-.937.546-1.73 1.64-1.73.89 0 1.96.602 1.96 2.4 0 1.92-1.276 3.434-3.055 4.706l-.342-.504zM100.558 75.353c-2.37 3.433-4.765 5.256-4.97 5.256-.114 0-.182-.097-.182-.193 0-.07.045-.144.114-.216 1.87-1.847 3.51-3.912 4.787-6.12l1.528-2.855H95.61l-.182-.744h6.725c.798-1.775.89-2.063 1.05-2.952l1.253.48c.25.07.365.216.365.36 0 .31-.136.31-.478.31-.114 0-.182.024-.205.072l-.798 1.73h9.574l1.436-1.25 1.46 1.128c.113.072.18.216.18.384 0 .312-.227.48-.523.48h-12.493c-.547 1.08-1.163 2.136-1.824 3.12l.41.36h9.688l.502-.647.89.768c.182.144.295.312.295.504 0 .168-.114.336-.296.408-.183.072-.25.19-.25.288V88.05c0 .673-.457 1.152-2.076 1.465l-.273-.673c-.136-.216-.66-.456-1.503-.743-.16-.05-.228-.146-.228-.29.02-.12.09-.167.204-.167h.068c.798.12 1.39.19 1.824.19.48 0 .843-.047.843-.6v-3.84h-9.553v5.616c0 .287-.205.336-.912.527-.16 0-.228-.168-.228-.528V75.352zm1.14.072v3.12h9.55v-3.12h-9.55zm0 3.865v3.384h9.55V79.29h-9.55zM130.447 67.552h7.59v1.104h-6.564v15.41h-1.026V67.55zM149.782 68.152l.616-.672 1.026.744c.09.048.137.12.137.216 0 .12-.09.336-.34.408-.184.048-.297.168-.297.288v6.576c.022.145-.09.288-.228.36-.707.192-.89.24-.89-.36V74.32h-5.652l-.82 4.608h6.7l.616-.625.91.792c.092.07.138.168.138.287 0 .145-.114.312-.296.36-.114.048-.228.192-.228.408-.068 1.728-.228 3.288-.433 4.656-.432 3.168-.888 4.224-3.03 4.367-.07-.768-.753-1.128-1.643-1.27-.114-.025-.182-.097-.182-.217 0-.145.09-.288.228-.288h.068c.96.216 1.665.336 2.098.336.137 0 .228 0 .32-.024.66-.407.797-1.296 1.047-3.048.183-1.224.32-2.904.41-5.017h-6.884l-.182 1.008c-.114.384-.296.456-.684.456-.023 0-.456-.073-.456-.48v-.072c.616-2.185.98-3.937 1.117-5.208l.296-2.736 1.05.96h5.493V68.87h-7.773l-.16-.72h7.912v.002zm7.25-.84l1.254.168c.365.048.547.19.547.384s-.114.384-.342.48c-.227.07-.34.24-.34.407v20.38c0 .408-.73.528-.89.528-.16 0-.228-.072-.228-.216v-22.13zM173.198 68.057l.593-.433.867.864c.068.048.114.144.114.24 0 .144-.044.19-.136.312l1.62 1.536 1.162-1.008c.752-.792.935-1.25 1.208-1.944l1.048.792c.16.145.228.265.228.384 0 .265-.205.265-.752.265-.296.432-.752.84-1.3 1.2l-1.23.647c.752.6 1.527 1.152 2.302 1.562l.114.07c.456-.287.89-.72 1.345-1.198 1.025-1.177 1.116-1.488 1.39-2.28l1.094.72c.183.12.25.264.25.36 0 .24-.227.264-.387.264l-.342.048c-.365.528-.89 1.057-1.55 1.562l-1.276.792c1.435.695 3.03 1.248 4.718 1.536.137 0 .228.048.228.12 0 .096-.114.216-.388.335-.273.145-.433.337-.456.553-.045.216-.137.312-.273.312h-.07c-4.536-1.656-7.11-3.936-9.186-6.504l-.273.264c-.318.433-2.575 3.217-6.018 4.872l-.798.312h3.602l.524-.816.912.672c.137.097.183.265.183.408-.023.145-.114.288-.25.336-.138.072-.23.145-.23.24v4.272c0 .312-.09.336-.842.552-.296 0-.296-.288-.296-1.08h-3.488l-.457 2.304-.114.433h3.943l.48-.77.98.673c.227.168.34.336.34.528 0 .168-.136.456-.41.48-.205 0-.342.12-.365.287-.09.985-.25 1.92-.433 2.81-.387 1.824-.912 2.88-2.85 3.384-.09-.744-.592-1.008-1.664-1.368-.136-.023-.204-.144-.204-.288.023-.144.114-.216.228-.216h.068c.73.168 1.322.264 1.71.264.068 0 .137-.023.205-.023.958-.265 1.23-.938 1.436-2.474l.365-2.568h-3.99l-.182.72c-.068.12-.228.24-.456.264-.387 0-.638-.287-.638-.504 0-.048 0-.096.023-.144l.66-2.64.434-2.713.934.816h3.442v-3.095h-4.195l-.113-.456c-.843.31-1.687.55-2.53.743-.183-.168-.206-.192-.206-.265 0-.07.024-.096.092-.12 3.647-1.2 7.135-3.168 9.3-6.48h-7.18l-.16-.72h7.546zM168.09 72.4c-.546 0-.615 0-.728-.335-.228-.816-.707-1.656-1.208-1.968-.09-.024-.137-.097-.137-.168 0-.05.068-.266.228-.266.273 0 2.166 1.104 2.166 2.112 0 .36-.137.6-.32.625zm11.217 8.594l.547-.912.798.624c.296.24.48.48.48.648 0 .19-.046.19-.548.312-.48 1.344-1.117 2.52-1.892 3.504l-.616.624c2.143 1.56 4.31 2.017 6.087 2.16.09 0 .16.072.16.168s-.183.24-.525.312c-.32.12-.547.336-.593.575-.046.216-.137.31-.228.31h-.023c-1.664-.527-3.032-1.127-4.035-1.847l-1.392-1.128c-.5.455-1.094.888-1.664 1.247-1.755 1.104-4.15 1.68-4.286 1.68-.137 0-.228-.096-.228-.24 0-.12.068-.215.183-.263 1.938-.722 3.83-1.657 5.357-3.122l-.593-.744c-.66-.984-1.23-2.064-1.664-3.192h-1.413l-.046-.72 6.133.002zm-3.51-5.57c0 1.466 0 2.93-1.346 3.96-.706.602-2.028 1.082-2.165 1.082-.182 0-.182-.144-.182-.19 0-.073.045-.146.137-.217 1.3-.65 2.417-1.394 2.417-3.94v-1.943l.89.528h3.03l.594-.744.96.77c.136.12.227.24.227.384 0 .216-.205.36-.388.408-.16.07-.252.216-.252.36v1.8c0 .72.183 1.008 1.117 1.008 1.117 0 1.322-.216 1.55-.937l.365-1.2c.023-.144.137-.19.273-.19s.183.095.183.287l-.09 1.224v.504l.18.265c.138.096.207.288.207.527 0 .408-.616.72-1.23.72h-1.278c-1.664 0-2.485-.455-2.417-1.92v-2.544h-2.782zm-.64 6.29c.776 1.704 1.232 2.425 2.212 3.456l.57-.672c.546-.768 1.002-1.704 1.344-2.784h-4.126zM187.768 87.546h6.27V72.64h1.025v16.01h-7.295v-1.104zM213.53 67.552h7.593v1.104h-6.565v15.41h-1.024V67.55h-.003zM224.11 83.682l-.157-.72h2.188l-.66-13.97 1.187.72.89-.647c.41-.384.82-.77 1.07-1.296l1.14.503c.23.072.318.216.318.36 0 .167-.158.384-.387.384l-.547.144-.89.6-1.55.65.138 3.456h.547l1.254-1.296 1.16 1.152c.116.096.16.24.16.384 0 .264-.228.48-.455.48h-2.646l.183 3.77h.342l1.254-1.273 1.16 1.152c.116.072.16.216.16.36 0 .24-.204.504-.455.504h-2.438l.23 3.862h3.35V67.648l1.005.864h5.22l.548-.624 1.025.743c.09.05.137.146.137.266 0 .216-.16.384-.32.456-.137.07-.227.216-.227.36V82.96h3.19l.25-3.863h-2.302l-.184-.744h2.552l.298-3.77h-2.667l-.184-.72h2.917l.273-3.96h-2.918l-.137-.72h3.078l.592-.72.8.768c.157.12.25.29.25.457 0 .19-.093.336-.274.384-.18.073-.294.217-.294.36l-.89 12.554h.045l1.255-1.32 1.187 1.152c.09.096.137.24.137.36 0 .264-.185.504-.457.504l-20.452.002zm6.772 1.128l1.07.647c.184.12.297.265.297.408 0 .024-.046.312-.32.312l-.318-.048c-.09 0-.183.023-.25.07-2.03 2.137-5.997 3.146-6.452 3.146-.137 0-.25-.05-.25-.192 0-.12.067-.192.182-.24 2.805-.792 4.832-2.473 5.86-3.72l.18-.384zm.912-1.848h5.104V69.257h-5.104v13.705zm2.416-11.45l1.117-1.103 1.002.96c.09.095.136.24.136.36 0 .215-.158.526-.455.526h-3.35l-.16-.743h1.71zm-1.414 2.81l.548.383h1.96l.342-.456.64.48.09.263c-.136.216-.16.24-.296.408v5.28c0 .12-.067.24-.205.288-.502.12-.57.145-.57-.264v-.96h-1.73v.937c0 .097-.068.192-.16.24-.547.12-.615.145-.615-.264V74.32h-.004zm.776 4.703h1.732v-3.6h-1.732v3.6zm4.24 6.53c2.006.6 4.787 2.303 4.787 3.118 0 .288-.206.6-.524.6-.205 0-.39-.095-.615-.335-1.458-1.345-3.28-2.497-5.31-3.434-.138-.048-.183-.144-.183-.24.02-.12.113-.167.25-.167l1.595.457zM251.675 76.553h-4.217l-.184-.72h4.398v-3.77h-3.235l-.183-.72h3.418V67.24l1.187.216c.364.048.524.192.524.384s-.115.336-.298.385c-.182.07-.272.19-.272.36v2.76h1.276l1.322-1.08 1.186.96c.113.07.184.19.184.36 0 .31-.23.48-.502.48h-3.466v3.767h1.597l1.46-1.27 1.436 1.15c.113.072.184.217.184.385 0 .336-.273.455-.502.455h-4.172v4.057h1.346l1.412-1.25 1.39 1.057c.16.145.253.336.253.48 0 .264-.184.456-.48.456h-3.92v4.775l.73.288c2.508.89 5.95.89 8.07.89 1.937 0 4.034-.073 6.224-.218.14 0 .23.05.23.12 0 .097-.113.216-.365.36-.272.144-.433.384-.48.672-.045.264-.136.408-.25.408-1.276.023-2.462.048-3.58.048-9.276 0-12.445-.96-14.338-5.712l-.16 1.008c-.593 3.312-1.938 5.233-2.144 5.233-.09 0-.205-.097-.205-.24 0-.048 0-.072.023-.12 1.573-3.456 1.552-8.064 1.528-8.93V78.88l1.39.24c.298.048.456.168.456.336 0 .192-.113.312-.318.36-.16.048-.272.144-.272.264l-.185 1.896c.616 1.32 1.253 2.304 1.87 2.903l.637.552v-8.88h-.002zm6.68-8.16l.936.6h5.563l.593-.647 1.05.72c.092.048.137.144.137.216s-.068.336-.365.408c-.182.048-.296.168-.273.288v7.608c0 .36-.5.504-.797.504-.23 0-.343-.168-.343-.504v-1.584H259.5v7.417c0 .31.044.335.317.455h5.402c.228 0 .478-.264.638-.815l.594-1.776c.045-.144.137-.192.25-.192.092 0 .16.097.16.265l-.092 1.44c0 .552.023.863.16.96.137.096.205.24.205.407s-.16.888-.844.888h-7.136c-.5 0-.798-.575-.798-1.15V68.39zm1.14 1.32v5.568h5.357v-5.567h-5.356zM270.85 87.546h6.27V72.64h1.026v16.01h-7.295v-1.104zM293.104 71.08l1.05.913h1.228l.686-2.136.273-1.824v-.744l1.368.12c.273.047.41.167.41.335s-.067.288-.23.336l-.317.193-.798 2.11-.772 1.61h2.986l.547-.768 1.05.72c.067.048.09.12.09.24 0 .312-.25.432-.318.456-.183.072-.25.17-.25.24v14.065c0 .12-.114.24-.23.312-.796.168-.888.168-.888-.287v-1.416h-4.742v2.23c0 .313-.272.385-.91.553-.16 0-.23-.19-.23-.552V71.08zm1.14 7.465h4.742v-5.833h-4.742v5.833zm0 6.29h4.742V79.29h-4.742v5.544zm11.9 2.303c1.14.384 1.982.6 2.462.6.524 0 .957-.816 1.187-1.368.25-.647 1.186-4.296 1.186-13.753h-6.886l-.297.768c-1.117 2.665-2.576 4.49-2.78 4.49-.07 0-.16-.073-.16-.192 0-.072.022-.145.067-.217 2.21-3.575 3.283-7.776 3.283-10.152l1.32.096c.3.024.436.144.436.336s-.114.336-.273.336c-.184 0-.297.072-.297.168-.273 1.225-.64 2.473-1.05 3.648h6.612l.615-.624.91.744c.115.096.16.216.16.336-.02.144-.137.264-.27.312-.253.072-.253.192-.253 1.225 0 6.434-.66 11.28-1.254 12.817-.752 1.872-1.527 2.376-2.918 2.52-.113-.96-.844-1.367-1.938-1.607-.114-.024-.184-.096-.184-.192 0-.12.092-.287.273-.287l.048-.002zm-2.53-10.393c0-.072.046-.216.183-.216.548 0 3.26 3.095 3.26 4.535 0 .216-.092.792-.523.792-.434 0-.548-.384-.57-.48-.434-1.943-1.275-3.647-2.256-4.464-.072-.048-.093-.096-.093-.168zM315.403 74.13l-.183-.745h6.564c0-.24-.64-1.752-1.207-2.063-.093-.024-.138-.096-.138-.168 0-.096.066-.264.227-.264.138 0 .775.287 1.346.84.775.72.775.768.775 1.632h4.72c.364-.77.683-1.608.864-2.448l1.164.408c.25.072.363.192.363.36 0 .07-.047.384-.343.384-.16 0-.296.048-.364.144l-1.004 1.176h4.97l1.437-1.247 1.46 1.15c.09.048.157.192.157.336 0 .265-.137.504-.5.504h-20.31zM318 83.56c.068 0 .138.07.138.19 0 2.377-1.14 5.02-2.258 5.02-.387 0-.57-.36-.57-.625 0-.168.068-.384.503-.696.706-.575 1.208-1.175 1.46-1.8.27-.6.478-1.247.546-1.895 0-.145.067-.193.18-.193zm-1.618-13.273l-.182-.745h8.594v-2.4l1.186.217c.365.048.523.192.523.384s-.113.336-.297.384c-.182.072-.272.217-.272.36v1.056h5.973l1.437-1.248 1.46 1.128c.114.072.183.217.183.385 0 .313-.23.48-.523.48h-18.082zm14.02 5.447l.594-.648 1.05.72c.09.048.137.144.137.24 0 .023 0 .287-.365.384-.183.048-.296.168-.296.288v5.833c.02.144-.092.287-.206.36-.73.19-.91.24-.91-.36v-.937h-10.17v.816c0 .12-.09.24-.272.336-.73.19-.865.216-.865-.385v-7.368l1.002.72h10.3zm-10.167.72v1.824h10.168v-1.823h-10.168zm0 2.544v1.897h10.168V79h-10.168zm.48 4.034l1.503.432c.183.05.273.168.273.36s-.137.312-.342.336c-.205.024-.32.145-.32.288v3.312c0 .287.07.312.458.455h6.61c.685 0 1.05-.432 1.163-1.367l.204-1.513c0-.12.09-.19.205-.19.136 0 .204.07.204.215l.068 1.632c.02.528.182.888.432 1.032.184.12.32.312.32.48 0 .455-.273.6-.775.84h-9.347c-.524-.265-.662-.337-.662-1.032v-5.28h.004zm5.788 2.832c-.684-1.44-1.617-2.376-2.233-2.64-.09-.048-.16-.097-.16-.192s.048-.24.23-.24c.388 0 3.168 1.488 3.168 2.784 0 .264-.045.6-.48.6-.273 0-.454-.12-.525-.312zm5.245-2.16c0-.096.068-.24.205-.24.57 0 3.396 2.833 3.396 4.226 0 .384-.16.744-.524.744-.273 0-.455-.097-.57-.433-.48-1.896-1.526-3.553-2.394-4.128-.07-.05-.114-.12-.114-.17zM340.96 81.786c.092 0 .16.072.16.192 0 3.336-1.322 5.64-2.233 5.64-.503 0-.615-.407-.615-.67 0-.145.183-.385.48-.625.75-.72 1.274-1.44 1.548-2.136.273-.72.457-1.464.503-2.208 0-.122.044-.194.157-.194zm13.474-13.273l.616-.648 1.025.72c.09.048.137.145.137.24 0 .072-.047.336-.342.408-.184.048-.298.144-.298.264V79.65c.023.144-.09.288-.228.36-.707.19-.89.24-.89-.36v-1.128h-12.22v.912c0 .312-.273.384-.91.552-.16 0-.23-.192-.23-.552V67.6l1.05.913h12.29zm-6.656.744h-5.54v3.864h5.54v-3.863zm-5.54 4.584v3.96h5.54v-3.96h-5.54zm2.166 6.938l1.506.456c.182.048.272.144.272.336s-.138.312-.343.336-.298.144-.298.312v5.09c0 .263.092.31.435.43h6.087c.64 0 1.048-.383 1.253-1.51l.274-1.753c0-.097.092-.168.23-.168.137 0 .204.07.204.216l-.067 1.848c0 .602.113 1.01.364 1.177.206.12.344.312.344.504 0 .41-.273.554-.775.817h-8.823c-.547-.264-.66-.336-.66-1.032l-.003-7.057zm6.702 2.136c0 .12-.067.48-.524.48-.205 0-.388-.097-.48-.288-.478-.77-1.55-2.424-2.85-2.88-.09-.048-.16-.097-.16-.168 0-.168.093-.265.23-.265.547 0 3.01 1.272 3.646 2.496l.138.624zm-2.19-9.793h5.54v-3.863h-5.54v3.864zm0 .72v3.96h5.54v-3.96h-5.54zm5.542 8.066c0-.048.067-.216.228-.216.524 0 3.647 3.312 3.647 4.92 0 .072 0 .792-.502.792-.454 0-.546-.384-.568-.456-.64-2.544-1.915-4.32-2.69-4.873-.092-.047-.114-.095-.114-.167zM370.076 74.897c0 .624-.593 1.344-1.254 1.344-.66 0-1.275-.647-1.275-1.343 0-.504.342-1.344 1.275-1.344.478 0 1.254.504 1.254 1.344zm-1.254 7.513c-.82 0-1.275-.552-1.275-1.32 0-1.008.684-1.344 1.275-1.344.48 0 1.254.336 1.254 1.344 0 1.368-.593 2.473-1.777 3.288l-.366-.288c.89-.672 1.322-1.27 1.322-1.823l-.434.143z"/></g><g><path d="M32.452 135.763c0 .72-.64 1.224-2.075 1.487-.068-.815-.48-1.13-1.87-1.608-.16-.047-.204-.145-.204-.24 0-.047 0-.19.182-.19h.068c1.026.19 1.778.287 2.188.287.23 0 .57 0 .57-.553v-6.553h-6.245v8.496c0 .36-.82.457-.866.457-.184 0-.274-.146-.274-.457v-8.52H17.61c0 1.08-.637 3.983-1.39 5.64-.456 1.03-1.62 3.217-2.03 3.217-.113 0-.16-.145-.16-.216 0-.05.024-.096.047-.145 1.732-3 2.804-6.36 2.804-16.01v-5.16l1.027.816H31.31l.525-.647.89.768c.18.147.295.313.295.507 0 .192-.114.336-.296.406-.183.072-.273.193-.273.29l.002 17.93zm-8.526-12.89h-5.95c-.045 1.73-.137 3.36-.273 4.8h6.224v-4.8zm0-5.616h-5.904v4.896h5.904v-4.896zm1.14 4.896h6.246v-4.896h-6.246v4.896zm0 5.52h6.246v-4.8h-6.246v4.8zM39.773 122.753c-1.163 2.017-2.69 3.696-2.918 3.696-.068 0-.183-.097-.183-.193 0-.07.046-.144.09-.215 3.01-3.96 4.492-8.545 4.674-10.705l1.277.265c.296.048.433.168.433.336 0 .096 0 .336-.32.336-.182 0-.295.048-.295.12-.523 1.728-1.207 3.384-2.005 4.968.775.265.866.29.866.457 0 .095-.067.215-.227.286-.16.097-.25.217-.25.29v14.687c0 .145-.092.265-.274.287-.73.192-.867.217-.867-.287v-14.33zm9.096-2.904h-2.235l-.66 1.56c-1.072 2.256-2.76 4.368-3.08 4.368-.113 0-.18-.097-.18-.192 0-.07.044-.144.09-.216 2.69-3.696 3.716-7.993 3.92-9.528v-.575l1.323.19c.296.05.433.192.433.385 0 .19-.136.312-.295.312-.183 0-.32.048-.32.144-.25.938-.57 1.92-.934 2.857h7.98l1.414-1.272 1.39 1.08c.138.145.23.312.23.456 0 .167-.092.455-.457.455H50.01v4.608h4.103l1.414-1.248 1.368 1.08c.16.144.25.312.25.455 0 .29-.204.457-.455.457h-6.68v4.512h4.104l1.414-1.272 1.368 1.08c.16.146.25.336.25.48 0 .287-.204.432-.455.432h-6.678v6.722c0 .336-.82.432-.867.432-.182 0-.273-.146-.273-.432V119.85h-.003zM77.072 127.673l.616-.646 1.026.72c.09.05.137.146.137.24 0 .145-.113.36-.34.385-.183.047-.297.168-.274.287v8.568c0 .288-.48.48-.798.48-.228 0-.342-.17-.342-.48v-1.514h-10.26v1.466c0 .264-.547.432-.866.432-.182 0-.273-.146-.273-.432v-8.642c-2.69.983-5.517 1.344-5.54 1.344-.137 0-.25-.05-.25-.168 0-.096.045-.168.136-.217 9.643-2.04 13.108-6.552 14.955-10.848H67.68c-.593.91-1.3 1.75-2.006 2.495.502.215 1.05.6 1.62 1.104.934.768 1.39 1.343 1.39 2.184 0 .12-.137.433-.5.433-.274 0-.48-.168-.525-.336-.936-2.04-1.984-2.88-2.303-3.07-2.257 2.185-4.514 3.12-4.56 3.12-.068 0-.205-.05-.205-.19 0-.073.045-.122.114-.147 3.488-1.92 6.862-6.24 7.318-9.05l1.208.386c.25.07.387.19.387.358v.022c-.046.217-.115.24-.594.36l-.866 1.608h6.908l.547-.912.798.624c.32.24.48.48.48.646s-.07.193-.57.36c-1.847 3.984-4.583 6.984-8.572 9.023h9.322v.003zm-10.236.72v6.602h10.26v-6.6h-10.26zM87.402 119.417l1.46-1.248 1.435 1.15c.114.048.183.192.183.36 0 .312-.228.48-.5.48h-7.32l-.182-.745 4.924.002zm-4.24 9.12l1.117.84h3.67l.59-.67 1.05.72c.09.048.137.144.137.238 0 .12-.09.337-.365.408-.182.05-.273.168-.273.29v6.767c0 .146-.092.266-.23.336-.728.192-.888.218-.888-.336v-1.703h-3.67v1.68c0 .12-.09.24-.274.313-.752.19-.866.215-.866-.36v-8.522zm3.533-5.735l1.46-1.272 1.435 1.152c.114.07.183.217.183.385 0 .336-.274.455-.524.455h-5.86l-.182-.72h3.487zm0 3.287l1.46-1.272 1.435 1.152c.114.07.183.216.183.358 0 .264-.183.48-.524.48h-5.86l-.182-.722 3.487.003zm0-9.673l1.46-1.248 1.435 1.15c.114.048.183.192.183.36 0 .312-.228.48-.524.48h-5.792l-.16-.745 3.397.002zm-2.393 18.29h3.67v-4.608h-3.67v4.606zm17.895 1.247c0 .408-.228 1.176-2.074 1.465-.16-.816-.388-1.105-2.143-1.682-.137-.048-.228-.12-.228-.24s.068-.19.205-.19h.068c1.186.264 2.006.384 2.462.384.205 0 .57 0 .57-.553v-17.883h-9.643l-.16-.743h9.803l.5-.648.89.768c.182.146.296.312.296.506 0 .192-.114.336-.296.406-.16.072-.25.193-.25.29v18.118zm-5.882-15.506l1.436-1.248 1.46 1.152c.114.05.183.19.183.36 0 .31-.228.478-.524.478h-7.022l-.182-.744 4.65.002zm-4.263 3.12l1.003.745h3.966l.617-.672 1.026.72c.09.05.137.145.137.24 0 .12-.114.337-.342.407-.183.05-.296.168-.296.29v6.768c.022.145-.09.29-.228.336-.684.192-.89.24-.89-.335v-1.416h-3.852v1.848c0 .12-.09.24-.274.336-.73.192-.866.216-.866-.384v-8.88zm1.14 6.362h3.853v-4.896h-3.853v4.896zM105.962 119.08l1.05.913h1.23l.684-2.137.273-1.824v-.744l1.367.12c.273.048.41.17.41.337s-.068.287-.228.336l-.32.192-.798 2.11-.775 1.61h2.987l.547-.77 1.05.72c.068.05.09.12.09.24 0 .312-.25.432-.318.457-.183.07-.25.167-.25.237v14.065c0 .12-.115.24-.23.312-.797.168-.888.168-.888-.29v-1.415h-4.742v2.23c0 .313-.274.386-.912.554-.16 0-.228-.19-.228-.553v-16.7zm1.14 7.466h4.742v-5.833h-4.742v5.833zm0 6.288h4.742v-5.544h-4.742v5.544zm11.9 2.304c1.14.385 1.982.6 2.46.6.525 0 .96-.814 1.186-1.367.25-.646 1.186-4.296 1.186-13.753h-6.884l-.296.77c-1.117 2.664-2.576 4.488-2.78 4.488-.07 0-.16-.072-.16-.192 0-.07.022-.145.067-.216 2.212-3.575 3.284-7.776 3.284-10.152l1.322.097c.296.023.433.144.433.336 0 .19-.115.336-.274.336-.183 0-.296.07-.296.168-.273 1.225-.64 2.473-1.05 3.648h6.612l.615-.625.912.744c.113.095.158.216.158.335-.022.145-.137.264-.273.312-.25.072-.25.19-.25 1.226 0 6.432-.66 11.28-1.254 12.815-.75 1.872-1.526 2.377-2.917 2.52-.114-.96-.844-1.367-1.938-1.607-.114-.02-.182-.095-.182-.19 0-.12.09-.288.273-.288H119v-.004zm-2.53-10.393c0-.072.045-.216.182-.216.547 0 3.26 3.096 3.26 4.535 0 .217-.09.793-.524.793s-.547-.385-.57-.48c-.433-1.943-1.277-3.647-2.257-4.465-.07-.048-.092-.096-.092-.168zM128.58 116.345l1.23 1.104h3.215l.57-.77 1.05.722c.044.022.067.12.067.24 0 .238-.09.406-.296.478-.183.072-.25.168-.25.217v15.48c0 .29-.525.457-.822.457-.228 0-.32-.146-.32-.433v-1.416h-3.305v2.328c0 .312-.274.385-.913.553-.16 0-.228-.19-.228-.553v-18.407zm1.14 8.136h3.305v-6.288h-3.306v6.29zm0 7.226h3.305v-6.48h-3.306v6.48zm6.383-7.896l-.183-.722h4.947v-3.863h-5.562l-.182-.743h5.745v-3.24l1.186.215c.342.05.5.192.5.385 0 .19-.113.337-.272.385-.183.07-.273.19-.273.36v1.895h3.737l1.437-1.25 1.46 1.13c.113.07.18.216.18.384 0 .312-.227.48-.523.48h-6.29v3.862h2.757l1.436-1.27 1.46 1.15c.113.07.182.216.182.36 0 .263-.183.48-.524.48l-11.217.002zm7.613 3.767v-3.048l1.163.167c.387.048.592.216.592.433 0 .215-.114.336-.32.36-.205.047-.295.144-.295.287v1.8h1.322l1.413-1.176 1.322 1.058c.09.07.16.215.16.36 0 .263-.137.503-.5.503h-3.717v7.657c0 .29-.183.6-.502.938-.296.312-.912.527-1.732.623 0-.888-.958-1.32-1.527-1.56-.182-.048-.25-.145-.25-.266 0-.19.205-.168.296-.144l2.052.288.41-.05c.046-.047.115-.167.115-.31v-7.178h-8.23l-.182-.744h8.408v.003zm-3.852 5.713c-.068.265-.365.36-.48.36-.34 0-.5-.288-.546-.408-.456-1.56-1.3-3-2.143-3.528-.068-.05-.09-.12-.09-.19 0-.12.044-.217.18-.217.457 0 2.737 1.97 3.08 3.336v.647zM153.157 123.28c-.958 2.018-2.234 3.625-2.394 3.625-.068 0-.182-.048-.182-.19 0-.072.023-.146.07-.218 2.666-4.225 3.646-9.096 3.646-11.185l1.3.097c.318.022.455.142.455.335 0 .19-.113.336-.295.336-.16 0-.274.072-.274.17-.34 1.702-.842 3.407-1.48 5.063.684.19.752.215.752.408 0 .097-.068.216-.205.287-.16.097-.25.218-.25.312v14.855c0 .145-.09.24-.274.287-.73.192-.866.218-.866-.287V123.28zm3.466-4.51l1.276.19c.364.048.546.192.546.385 0 .168-.114.358-.342.455-.228.098-.342.266-.342.434v14.736c0 .145-.09.288-.25.385-.206.048-.593.144-.64.144-.158 0-.25-.072-.25-.192v-16.54zm10.964 5.543l1.39-1.272 1.392 1.08c.16.146.25.313.25.457 0 .264-.183.456-.48.456h-4.832c-.046 1.56-.137 2.93-.25 3.96h3.305l1.46-1.27 1.435 1.15c.114.072.183.216.183.384 0 .336-.273.456-.523.456h-5.198c1.23 2.784 3.213 4.802 6.063 5.664.09.024.137.097.137.192s-.182.19-.5.264c-.32.07-.548.265-.617.504-.068.19-.137.287-.205.287-.09 0-3.716-1.872-5.403-6.912h-.228c-.32 1.464-.707 2.425-1.55 3.648-2.052 3-5.904 3.793-5.996 3.793-.09 0-.16-.12-.16-.24 0-.07.046-.168.138-.19 4.445-1.562 6.087-4.97 6.452-7.01h-4.765l-.182-.72h5.06c.138-.984.206-2.353.206-3.985h-2.805l-.342.673c-.775 1.298-1.732 2.378-1.96 2.378-.09 0-.205-.097-.205-.218 0-.07.046-.143.09-.215.616-.84 1.14-1.776 1.483-2.713.753-1.824.753-2.376.753-3.12l1.322.266c.296.047.433.19.433.358 0 .217-.137.312-.32.312-.182 0-.318.047-.318.12l-.593 1.464h5.88zM159.084 121l-.182-.72h7.728l.456-3.312h-6.907l-.16-.72h7.112l.638-.72.73.814c.16.12.227.265.227.408 0 .216-.068.36-.296.433-.182.048-.295.168-.295.358l-.365 2.737h.684l1.436-1.27 1.46 1.15c.113.073.18.192.18.36 0 .29-.204.48-.523.48h-11.923V121zM178.74 119.8l1.32-1.078 1.187.96c.09.07.16.217.16.36 0 .31-.228.478-.5.478h-7.228l-.16-.72h5.22zm-.8 6.746l1.323-1.08 1.163.96c.114.07.183.217.183.385 0 .313-.23.48-.503.48H174.5l-.183-.744h3.624zm-3.578 2.472l1.003.72h3.625l.5-.816.913.674c.137.097.183.265.183.407-.023.145-.114.288-.25.336-.115.048-.206.144-.206.238v5.857c0 .312-.09.336-.843.552-.183 0-.296-.168-.296-.552v-1.177h-3.487v1.56c0 .12-.09.24-.274.337-.776.192-.867.216-.867-.384v-7.752zm3.488-5.737l1.322-1.08 1.163.96c.114.073.183.192.183.36 0 .217-.114.48-.5.48h-5.427l-.18-.72h3.44zm.09-6.863l1.323-1.08 1.163.983c.114.048.183.192.183.36 0 .312-.23.48-.503.48h-5.448l-.16-.745 3.44.002zm-2.438 18.098h3.488v-4.058h-3.488v4.058zm10.873 1.127c.16.097.25.24.25.36 0 .097-.09.36-.34.36-.047 0-.39-.073-.457-.073-.775.335-1.687.647-2.713.84-1.048.217-1.915.288-2.6.288-.182 0-.272-.05-.272-.19 0-.145.045-.24.16-.24 1.732-.098 4.467-1.2 5.06-1.945l.912.6zm-3.692-15.673l-.182-.72h4.674v-1.44h-5.47l-.184-.72h5.654v-1.944l1.185.216c.364.05.5.19.5.385 0 .19-.09.336-.273.383-.273.098-.273.192-.273.96h3.214l1.436-1.27 1.46 1.152c.113.07.16.19.16.336 0 .048 0 .097-.024.144-.022.217-.205.36-.48.36h-5.767v1.44h2.143l1.436-1.272 1.46 1.15c.113.072.18.193.18.36 0 .288-.204.48-.523.48h-10.327zm9.94 1.247l.5-.84.912.696c.137.096.182.264.182.384-.023.145-.114.288-.25.336-.138.072-.23.168-.23.266v3.982c0 .287-.09.312-.843.527-.182 0-.273-.17-.273-.528v-.815h-9.55c0 .744 0 .815-.274.96-.775.19-.867.216-.867-.385v-5.327l1.002.742h9.69zm-9.553 3.264h2.417v-2.544h-2.417v2.545zm.365 1.538l1.003.72h6.11l.592-.648 1.05.722c.09.048.136.145.136.24 0 .022 0 .286-.365.384-.182.048-.272.168-.272.288v7.057c.045.288-.16.337-.798.505-.32 0-.32-.217-.32-1.152h-5.995c0 .744 0 .816-.273.96-.73.192-.866.217-.866-.384v-8.692zm1.14 1.44v1.535h5.996v-1.535h-5.995zm0 2.256v1.44h5.996v-1.44h-5.995zm0 2.16v1.512h5.996v-1.512h-5.995zm2.05-7.393h2.418v-2.544h-2.417v2.545zm3.08 10.85c1.663.048 4.24.72 4.24 1.656 0 .265-.206.552-.48.552-.16 0-.365-.072-.593-.19-1.71-.984-3.647-1.44-4.422-1.608-.137-.024-.228-.12-.228-.24s.068-.168.205-.168l1.277-.002zm.478-10.85h2.44v-2.544h-2.44v2.545z"/></g><path d="M208.314 113.98c0 .173-.19.314-.73.314-.378 0-1.835.146-2.833.23.026.06.026.115.026.174 0 .086-.025.172-.054.26-.082.228-.188 1.41-.188 1.756-.027.575-.027 1.44-.027 2.246 0 .662.055 1.9.082 2.245 0 .346-.435 1.41-.757 1.41-.297 0-.594-1.007-.54-2.044.054-.546.187-2.446.187-4.03 0-.748-.026-1.41-.106-1.842-.676.115-1.756.316-2.512.518-.46.146-1.105-.46-1.295-.69-.107-.115-.19-.258-.19-.345 0-.144.163-.26.567-.26.702 0 1.458-.058 1.997-.113 1.73-.175 3.268-.404 4.105-.576.486-.114.81-.172 1.053-.172.19 0 .352.027.486.114.298.175.73.55.73.807zm.027 12.007c0 .2-.216.315-.837.258-.162-.027-.323-.027-.512-.027-.864 0-2.104.144-3.132.287-.484.06-1.97.288-2.97.576-.457.116-1.104-.46-1.294-.69-.108-.114-.19-.286-.19-.4 0-.175.136-.318.54-.318.703 0 1.46-.058 1.998-.114 1.73-.202 3.158-.403 4.02-.604.3-.058.57-.115.866-.115.27 0 .54.058.756.2.298.227.757.658.757.947zm-3.967 4.664c.297.26.62.577.62.777 0 .23-.403.52-.62 1.152-.27.69-1.105 2.705-2.213 4.26-.352.52-.81 1.182-.432 1.182.324 0 1.242-.06 2.08-.146.728-.086 1.564-.2 1.94-.287.298-.06.757-.29 1.107-.29.136 0 .243.03.35.115.435.404 1.108.894.975 1.383-.056.26-.243.316-.46.316-.217 0-.458-.057-.646-.115-.46-.087-1.025-.116-1.675-.116-.783 0-1.62.06-2.376.146-.647.086-1.483.346-2.104.576-.433.172-.864-.404-1.242-.922-.055-.115-.108-.2-.108-.288 0-.346.433-.635.783-1.007 1.053-1.184 1.78-2.422 2.592-4.493.27-.662.35-1.182.35-1.584 0-.2-.025-.375-.052-.52-.027-.086-.027-.173-.027-.26 0-.345.162-.46.35-.43.137.026.298.113.434.228l.373.32zm9.207 1.614c1.053 1.064.783 1.843-.135 1.064-.7-.604-1.674-1.47-2.996-2.562-.622-.52-1.403-1.095-2.052-1.556-.676-.52-.217-2.62.918-1.438 1.214 1.295 3.642 3.887 4.264 4.492z"/><g><path d="M224.182 129.858c1.026-.744 2.188-1.945 2.188-3.53-.252.147-.48.24-.752.24-1.004 0-1.643-.768-1.643-1.583 0-.937.547-1.73 1.643-1.73.89 0 1.96.603 1.96 2.4 0 1.92-1.276 3.434-3.056 4.706l-.34-.502zM238.044 123.353c-2.37 3.434-4.765 5.257-4.97 5.257-.114 0-.183-.096-.183-.192 0-.07.047-.144.114-.215 1.87-1.85 3.51-3.913 4.787-6.12l1.528-2.856h-6.224l-.183-.743h6.726c.8-1.777.89-2.064 1.05-2.953l1.253.48c.25.072.364.217.364.36 0 .31-.137.31-.48.31-.114 0-.183.023-.204.072l-.8 1.73h9.575l1.438-1.25 1.46 1.128c.112.072.18.217.18.385 0 .312-.228.48-.522.48h-12.49c-.55 1.08-1.164 2.135-1.823 3.12l.41.358h9.687l.502-.646.89.768c.184.146.297.312.297.504 0 .167-.113.335-.297.407-.183.072-.25.19-.25.288v12.023c0 .673-.457 1.152-2.074 1.466l-.273-.673c-.138-.216-.663-.456-1.506-.742-.16-.05-.228-.146-.228-.29.02-.118.09-.167.205-.167h.068c.798.122 1.392.193 1.823.193.48 0 .844-.05.844-.6v-3.842h-9.55v5.617c0 .287-.206.337-.913.527-.16 0-.228-.168-.228-.527V123.35h.002zm1.14.072v3.12h9.552v-3.12h-9.55zm0 3.865v3.384h9.552v-3.384h-9.55zM267.935 115.552h7.59v1.105h-6.564v15.408h-1.023l-.002-16.513zM278.515 131.682l-.16-.72h2.19l-.66-13.97 1.184.72.89-.647c.41-.384.82-.77 1.07-1.296l1.14.503c.23.072.32.217.32.358 0 .17-.16.387-.39.387l-.546.145-.89.6-1.55.648.137 3.456h.548l1.254-1.296 1.162 1.152c.113.096.16.238.16.383 0 .265-.23.48-.457.48h-2.645l.184 3.77h.342l1.254-1.273 1.162 1.152c.113.072.16.216.16.358 0 .24-.205.506-.457.506h-2.438l.228 3.863h3.35v-15.31l1.004.863h5.22l.548-.624 1.026.74c.09.05.138.147.138.267 0 .216-.16.384-.32.456-.137.07-.227.217-.227.36v13.248h3.19l.25-3.862h-2.302l-.184-.744h2.556l.295-3.77h-2.665l-.184-.72h2.92l.272-3.96h-2.918l-.137-.72h3.078l.592-.723.8.77c.157.12.25.29.25.457 0 .19-.093.336-.274.385-.184.07-.296.215-.296.36l-.89 12.552h.046l1.254-1.32 1.187 1.152c.09.096.137.24.137.36 0 .265-.183.504-.456.504l-20.45.002zm6.772 1.128l1.07.647c.184.12.297.265.297.408 0 .023-.045.312-.318.312l-.318-.05c-.092 0-.184.025-.25.073-2.03 2.137-5.997 3.146-6.452 3.146-.137 0-.25-.05-.25-.192 0-.12.067-.192.183-.24 2.802-.792 4.83-2.472 5.856-3.72l.18-.384zm.912-1.848h5.104v-13.705H286.2v13.705zm2.415-11.45l1.117-1.103 1.003.958c.09.097.138.24.138.36 0 .216-.16.527-.457.527h-3.35l-.16-.743h1.71zm-1.412 2.81l.547.383h1.96l.343-.456.638.48.094.263c-.138.216-.16.24-.298.408v5.28c0 .12-.067.24-.205.288-.5.12-.568.146-.568-.264v-.96h-1.732v.937c0 .098-.068.192-.16.24-.546.12-.613.145-.613-.265v-6.335h-.004zm.773 4.703h1.732v-3.602h-1.732v3.602zm4.24 6.53c2.006.6 4.787 2.304 4.787 3.12 0 .286-.205.6-.523.6-.206 0-.39-.096-.616-.336-1.46-1.345-3.282-2.497-5.312-3.435-.137-.048-.184-.144-.184-.238.023-.12.114-.168.252-.168l1.596.454zM309.363 117.09l1.438-1.272 1.46 1.15c.113.072.183.218.183.36 0 .265-.183.48-.524.48h-5.472c-.685 2.04-1.62 3.983-2.736 5.783l1.392-.215c1.642-.336 3.078-.77 4.332-1.176-.274-.53-.685-1.297-1.3-1.8-.068-.025-.092-.073-.092-.147 0-.048.045-.216.205-.216.568 0 3.077 2.832 3.077 4.225 0 .097-.068.72-.548.72-.365 0-.525-.335-.548-.48l-.524-1.702c-2.826 1.296-6.086 2.04-7.045 2.207-.09 0-.182.168-.182.386 0 .216-.16.384-.364.384-.158 0-.296-.12-.388-.36l-.547-1.752.8.072 1.23-.096c.25-.265 1.003-2.473 1.298-3.433l.64-2.4h-3.737l-.183-.72 8.136.002zm-3.623 12.07h-3.968l-.183-.743h4.147v-3.336l1.162.24c.364.05.522.17.522.36 0 .192-.112.337-.295.385-.184.072-.252.216-.252.358v1.992h2.166l1.323-1.056 1.186.96c.09.048.16.19.16.335 0 .264-.14.504-.503.504h-4.332v4.823c1.597-.504 3.17-1.15 4.72-1.896.046-.023.092-.048.137-.048.16 0 .23.19.23.287 0 .07-.048.145-.14.192-2.69 1.702-5.767 3-9.187 3.693-.09.024-.158.168-.204.386-.02.31-.25.454-.364.454-.16 0-.317-.19-.41-.552l-.433-1.56h1.162c.752-.073 1.893-.313 3.352-.625v-5.158h.003zm13.883-7.8c-.205 2.88-.73 6.674-2.6 9.865 1.14 1.537 2.508 3.385 5.176 4.393.136.048.203.12.203.217-.022.097-.228.19-.524.265-.32.048-.548.24-.615.48-.068.215-.138.31-.23.31-.02 0-.044 0-.067-.022-1.002-.672-2.825-2.208-4.49-4.824-2.232 3.312-5.334 4.465-7.978 4.896-.045.022-.067.022-.09.022-.115 0-.205-.12-.205-.24 0-.096.067-.167.158-.19 4.97-1.465 7.09-4.85 7.48-5.617-1.3-2.688-2.054-6.048-2.326-7.656-.64 1.393-1.73 3.167-1.983 3.167-.068 0-.205-.07-.205-.19 0-.072.02-.12.067-.19.936-1.682 1.664-3.458 2.166-5.232.456-1.802.752-3.386.798-4.683l-.066-.623 1.32.07c.32 0 .48.12.48.313 0 .192-.092.312-.273.336-.18.022-.296.095-.296.167-.205 1.44-.568 2.88-1.003 4.25h4.583l1.392-1.274 1.39 1.08c.184.168.23.337.23.505 0 .336-.273.407-.456.407h-2.033v-.005zm-5.77 1.057c.41 2.16.89 3.984 1.482 5.45.273.767.64 1.51 1.004 2.183 1.57-3.217 1.98-6.575 2.096-8.688h-4.172l-.113.385-.296.67zM325.255 135.546h6.27v-14.903h1.025v16.01h-7.295v-1.107zM347.87 115.552h7.593v1.105H348.9v15.408h-1.026V115.55h-.003zM358.453 131.682l-.158-.72h2.188l-.66-13.97 1.186.72.888-.647c.41-.384.82-.77 1.07-1.296l1.14.503c.23.072.32.217.32.358 0 .17-.16.387-.388.387l-.547.145-.89.6-1.552.648.14 3.456h.547l1.254-1.296 1.163 1.152c.114.096.16.238.16.383 0 .265-.23.48-.456.48h-2.646l.185 3.77h.342l1.254-1.273 1.163 1.152c.114.072.16.216.16.358 0 .24-.206.506-.456.506h-2.438l.227 3.863H365v-15.31l1.002.863h5.222l.547-.624 1.025.74c.093.05.138.147.138.267 0 .216-.16.384-.318.456-.137.07-.23.217-.23.36v13.248h3.192l.252-3.862h-2.305l-.183-.744h2.554l.297-3.77h-2.668l-.183-.72h2.918l.273-3.96h-2.918l-.137-.72h3.077l.593-.723.798.77c.16.12.25.29.25.457 0 .19-.09.336-.272.385-.182.07-.297.215-.297.36l-.89 12.552h.048l1.252-1.32 1.187 1.152c.092.096.137.24.137.36 0 .265-.182.504-.454.504l-20.453.002zm6.77 1.128l1.07.647c.184.12.298.265.298.408 0 .023-.046.312-.318.312l-.32-.05c-.09 0-.18.025-.25.073-2.028 2.137-5.995 3.146-6.45 3.146-.137 0-.252-.05-.252-.192 0-.12.068-.192.184-.24 2.804-.792 4.833-2.472 5.857-3.72l.183-.384zm.91-1.848h5.108v-13.705h-5.106v13.705zm2.417-11.45l1.117-1.103 1.004.958c.093.097.138.24.138.36 0 .216-.16.527-.455.527H367l-.16-.743h1.71zm-1.412 2.81l.547.383h1.96l.343-.456.64.48.09.263c-.136.216-.158.24-.296.408v5.28c0 .12-.067.24-.205.288-.502.12-.57.146-.57-.264v-.96h-1.73v.937c0 .098-.068.192-.16.24-.547.12-.615.145-.615-.265v-6.335h-.004zm.776 4.703h1.732v-3.602h-1.732v3.602zm4.24 6.53c2.006.6 4.787 2.304 4.787 3.12 0 .286-.204.6-.522.6-.205 0-.39-.096-.615-.336-1.46-1.345-3.283-2.497-5.312-3.435-.136-.048-.182-.144-.182-.238.022-.12.114-.168.25-.168l1.596.454z"/></g><g><path d="M15.107 170.226v-1.058l1.368.217c.32.05.456.17.456.36 0 .19-.09.31-.295.36-.183.047-.296.143-.296.264l-.184 2.062c.684 1.392 1.094 2.063 1.8 2.81v-8.786h-3.692l-.182-.72h3.875v-3.576h-2.895l-.16-.744h3.055v-4.08l1.186.215c.365.05.524.194.524.387 0 .19-.114.336-.296.384s-.272.193-.272.36v2.736h.593l1.3-1.08 1.186.984c.114.047.182.19.182.358 0 .312-.228.48-.524.48H19.1v3.576h1.025l1.322-1.08 1.163.96c.114.07.182.216.182.384 0 .12 0 .456-.5.456H19.1v4.25h.866l1.254-1.058 1.14.863c.183.167.228.336.228.504 0 .336-.273.407-.456.407H19.1v4.705c2.325 1.344 5.745 1.608 10.213 1.608 1.755 0 3.625-.072 5.562-.192.114 0 .182.05.182.147 0 .07-.09.216-.365.358-.273.146-.433.36-.48.648s-.16.432-.25.432c-.866.024-1.687.024-2.462.024-10.51 0-13.473-1.058-15.48-5.69l-.067.77c-.32 1.896-.866 3.553-1.755 5.063-.068.072-.137.098-.205.098-.137 0-.183-.12-.183-.216 0-.05 0-.07.023-.12.843-2.16 1.07-4.656 1.14-5.425l.134-3.404zm13.336 6.697c0 .12-.09.24-.228.312-.798.19-.89.216-.89-.312v-4.537c-.637.456-1.32.89-2.028 1.248l-2.03.792c-.09.05-.16.217-.16.456 0 .312-.227.456-.364.456-.16 0-.296-.144-.433-.527l-.5-1.534 1.162-.05.524-.118v-13.2h-1.573l-.182-.722h6.612l1.46-1.27 1.435 1.15c.114.072.183.216.183.36 0 .264-.183.48-.5.48h-2.486v17.017zm-3.83-13.538h2.713v-3.48h-2.713v3.48zm0 4.512h2.713v-3.77h-2.713v3.77zm0 4.92c.844-.168 1.847-.672 2.713-1.127v-3.072h-2.713v4.2zm7.933-4.92c.274-1.368.524-3.072.66-5.112l.047-.265h-3.83l-.16-.72h3.898l.617-.815.957.912c.16.12.228.264.228.407 0 .17-.09.287-.296.337-.182.048-.32.145-.32.265-.273 3.36-.706 5.256-1.39 7.248l.912 1.92c.274.672 1.003 2.45 1.003 3.48 0 .407-.205.672-.57.672-.455 0-.523-.527-.57-.744-.364-1.294-.797-2.64-1.344-3.96-1.05 2.4-3.055 4.2-3.237 4.2-.115 0-.184-.118-.184-.216 0-.048.023-.12.07-.168 1.025-1.224 1.8-2.447 2.3-3.624l.525-1.393c-.683-1.563-1.436-2.98-2.21-4.25-.045-.07-.068-.12-.068-.167 0-.096.068-.217.183-.217.045 0 .114.024.16.07l1.572 2.114.752 1.15.296-1.123zM38.112 177.546h6.27v-14.903h1.025v16.01h-7.295v-1.107zM60.365 161.08l1.05.913h1.23l.684-2.137.272-1.824v-.744l1.368.12c.273.048.41.17.41.337s-.068.287-.228.336l-.32.192-.797 2.11-.775 1.61h2.987l.547-.77 1.05.72c.067.05.09.12.09.24 0 .312-.25.432-.32.457-.182.07-.25.167-.25.237v14.065c0 .12-.114.24-.228.312-.798.168-.89.168-.89-.29v-1.415h-4.74v2.23c0 .313-.275.386-.913.554-.16 0-.228-.19-.228-.553v-16.7zm1.14 7.466h4.742v-5.833h-4.742v5.833zm0 6.288h4.742v-5.544h-4.742v5.544zm11.9 2.304c1.14.385 1.983.6 2.462.6.524 0 .958-.814 1.185-1.367.25-.646 1.186-4.296 1.186-13.753h-6.884l-.296.77c-1.117 2.664-2.576 4.488-2.78 4.488-.07 0-.16-.072-.16-.192 0-.07.022-.145.067-.216 2.21-3.575 3.283-7.776 3.283-10.152l1.322.097c.296.023.433.144.433.336 0 .19-.114.336-.273.336-.183 0-.296.07-.296.168-.273 1.225-.64 2.473-1.05 3.648h6.612l.615-.625.913.744c.114.095.16.216.16.335-.023.145-.138.264-.274.312-.25.072-.25.19-.25 1.226 0 6.432-.662 11.28-1.255 12.815-.752 1.872-1.527 2.377-2.918 2.52-.114-.96-.844-1.367-1.938-1.607-.115-.02-.183-.095-.183-.19 0-.12.09-.288.273-.288h.045v-.004zm-2.53-10.393c0-.072.046-.216.183-.216.547 0 3.26 3.096 3.26 4.535 0 .217-.09.793-.524.793s-.547-.385-.57-.48c-.433-1.943-1.277-3.647-2.257-4.465-.07-.048-.092-.096-.092-.168zM82.664 164.13l-.182-.745h6.565c0-.238-.64-1.752-1.208-2.062-.092-.024-.138-.097-.138-.168 0-.097.068-.265.228-.265.137 0 .775.287 1.345.84.775.72.775.77.775 1.632h4.72c.364-.77.683-1.607.865-2.447l1.163.408c.25.07.365.19.365.36 0 .07-.045.384-.342.384-.16 0-.295.047-.364.144l-1.003 1.177h4.97l1.436-1.247 1.458 1.15c.09.05.16.193.16.337 0 .266-.137.504-.5.504H82.663zm2.598 9.432c.068 0 .137.07.137.19 0 2.377-1.14 5.02-2.258 5.02-.387 0-.57-.36-.57-.625 0-.17.068-.384.5-.696.708-.575 1.21-1.175 1.46-1.8.274-.6.48-1.248.547-1.896 0-.144.068-.192.182-.192zm-1.618-13.274l-.183-.744h8.595v-2.398l1.186.216c.366.05.525.19.525.385 0 .19-.114.336-.296.383-.184.072-.274.218-.274.36v1.056h5.973l1.435-1.248 1.46 1.13c.113.07.182.216.182.384 0 .312-.228.48-.524.48l-18.08-.004zm14.02 5.45l.593-.65 1.05.723c.09.05.136.145.136.24 0 .023 0 .287-.365.384-.182.05-.296.168-.296.29v5.83c.023.146-.09.288-.205.36-.73.192-.912.24-.912-.36v-.936H87.497v.815c0 .12-.09.24-.273.337-.73.19-.867.215-.867-.386v-7.368l1.003.72h10.304zm-10.167.72v1.823h10.167v-1.823H87.497zm0 2.543v1.897h10.167V169H87.497zm.478 4.034l1.505.432c.182.05.273.168.273.36 0 .192-.137.31-.342.336-.205.024-.318.145-.318.288v3.312c0 .286.068.312.456.454h6.61c.685 0 1.05-.432 1.164-1.366l.205-1.514c0-.12.09-.19.205-.19.137 0 .206.07.206.216l.068 1.632c.022.528.182.888.433 1.032.18.12.318.312.318.48 0 .454-.273.6-.775.84h-9.347c-.524-.265-.66-.337-.66-1.032v-5.28zm5.79 2.832c-.683-1.44-1.618-2.377-2.233-2.64-.09-.05-.16-.098-.16-.192s.045-.24.228-.24c.387 0 3.168 1.488 3.168 2.784 0 .265-.045.602-.48.602-.272 0-.454-.122-.522-.314zm5.244-2.16c0-.096.067-.24.204-.24.57 0 3.397 2.832 3.397 4.226 0 .384-.16.744-.523.744-.273 0-.456-.097-.57-.433-.48-1.896-1.527-3.553-2.394-4.13-.07-.048-.114-.12-.114-.167zM108.222 171.786c.09 0 .16.072.16.19 0 3.337-1.322 5.642-2.234 5.642-.5 0-.616-.408-.616-.672 0-.146.183-.385.48-.624.75-.72 1.275-1.44 1.55-2.136.273-.722.455-1.465.5-2.21 0-.118.046-.19.16-.19zm13.473-13.273l.615-.648 1.026.72c.09.048.137.146.137.24 0 .072-.045.337-.342.408-.182.048-.295.144-.295.265v10.152c.023.145-.09.288-.228.36-.707.19-.89.238-.89-.36v-1.128H109.5v.912c0 .312-.275.384-.913.552-.16 0-.228-.19-.228-.552V157.6l1.048.913h12.287zm-6.656.744h-5.54v3.864h5.54v-3.863zm-5.54 4.584v3.962h5.54v-3.96h-5.54zm2.165 6.938l1.504.455c.182.05.273.145.273.336s-.137.31-.342.335-.295.145-.295.312v5.09c0 .264.09.31.434.432h6.085c.638 0 1.05-.385 1.254-1.514l.272-1.752c0-.097.09-.168.228-.168.137 0 .205.07.205.217l-.068 1.848c0 .602.114 1.01.365 1.177.205.12.342.312.342.504 0 .41-.273.555-.775.817h-8.823c-.547-.264-.66-.336-.66-1.03l-.002-7.06zm6.702 2.135c0 .12-.068.48-.524.48-.205 0-.387-.097-.48-.287-.478-.77-1.55-2.425-2.85-2.88-.09-.05-.16-.098-.16-.17 0-.167.092-.264.23-.264.546 0 3.008 1.27 3.646 2.496l.137.625zm-2.19-9.792h5.54v-3.863h-5.54v3.864zm0 .72v3.962h5.54v-3.96h-5.54zm5.54 8.065c0-.047.07-.215.23-.215.523 0 3.646 3.312 3.646 4.92 0 .072 0 .792-.5.792-.457 0-.548-.384-.57-.456-.64-2.545-1.916-4.32-2.69-4.873-.092-.047-.115-.095-.115-.168zM141.28 168.354c0 1.486-1.367 2.93-2.78 2.93-1.527 0-2.804-1.417-2.804-2.93 0-1.585 1.23-2.952 2.804-2.952 1.3 0 2.78 1.247 2.78 2.952zm-2.78-2.09c-1.14 0-1.983.89-1.983 2.09 0 .982.73 2.088 1.983 2.088 1.026 0 1.983-.96 1.983-2.088 0-.602-.183-1.08-.593-1.488-.41-.41-.866-.6-1.39-.6z"/></g></svg>