<?xml version="1.0" encoding="utf-8"?>
<!-- Generator: Adobe Illustrator 18.1.0, SVG Export Plug-In . SVG Version: 6.00 Build 0)  -->
<svg version="1.1" xmlns="http://www.w3.org/2000/svg" xmlns:xlink="http://www.w3.org/1999/xlink" x="0px" y="0px"
	 viewBox="0 0 760 640" enable-background="new 0 0 760 640" xml:space="preserve">
<g id="ruler_under">
	<g id="h_45">
		<g>
			<g>
				<line fill="none" stroke="#999999" stroke-width="2" stroke-miterlimit="10" x1="20.5" y1="601" x2="360.5" y2="601"/>
				<line fill="none" stroke="#999999" stroke-width="2" stroke-miterlimit="10" x1="400.5" y1="601" x2="740.5" y2="601"/>
				<g>
					<rect x="19.5" y="593" fill="#999999" width="2" height="16"/>
				</g>
				<g>
					<rect x="739.5" y="593" fill="#999999" width="2" height="16"/>
				</g>
			</g>
		</g>
		<g>
			<path d="M375.2,610v-4.2h-7.2v-1.4l7-10h2.3v9.7h2.2v1.7h-2.2v4.2H375.2z M375.2,604.1v-5.2c0-0.8,0-1.6,0.1-2.4h-0.1
				c-0.5,0.9-0.9,1.6-1.3,2.3L370,604v0H375.2z"/>
			<path d="M390.2,596.2h-6l-0.6,4c0.4,0,0.7-0.1,1.3-0.1c1.2,0,2.4,0.3,3.4,0.8c1.2,0.7,2.2,2,2.2,4c0,3-2.4,5.3-5.8,5.3
				c-1.7,0-3.1-0.5-3.9-1l0.5-1.6c0.6,0.4,1.9,0.9,3.3,0.9c2,0,3.7-1.3,3.7-3.4c0-2-1.4-3.5-4.5-3.5c-0.9,0-1.6,0.1-2.2,0.2l1-7.5
				h7.5V596.2z"/>
		</g>
	</g>
	<g id="h_30_1_">
		<g>
			<g>
				<line fill="none" stroke="#999999" stroke-width="2" stroke-miterlimit="10" x1="20.5" y1="578" x2="240.5" y2="578"/>
				<line fill="none" stroke="#999999" stroke-width="2" stroke-miterlimit="10" x1="280.5" y1="578" x2="500.5" y2="578"/>
				<g>
					<rect x="19.5" y="570" fill="#999999" width="2" height="16"/>
				</g>
				<g>
					<rect x="499.5" y="570" fill="#999999" width="2" height="16"/>
				</g>
			</g>
		</g>
		<g>
			<path d="M249.1,584.6c0.6,0.4,2,1,3.5,1c2.7,0,3.6-1.7,3.5-3c0-2.2-2-3.1-4-3.1h-1.2v-1.6h1.2c1.5,0,3.5-0.8,3.5-2.6
				c0-1.2-0.8-2.4-2.7-2.4c-1.2,0-2.4,0.6-3.1,1l-0.6-1.5c0.8-0.6,2.4-1.2,4.1-1.2c3.1,0,4.5,1.8,4.5,3.7c0,1.6-1,3-2.9,3.7v0
				c1.9,0.4,3.5,1.8,3.5,4c0,2.5-1.9,4.7-5.7,4.7c-1.8,0-3.3-0.6-4.1-1.1L249.1,584.6z"/>
			<path d="M271.3,579c0,5.3-2,8.2-5.4,8.2c-3,0-5.1-2.9-5.2-8c0-5.2,2.3-8.1,5.4-8.1C269.4,571.1,271.3,574.1,271.3,579z
				 M262.8,579.3c0,4.1,1.2,6.4,3.2,6.4c2.2,0,3.2-2.5,3.2-6.5c0-3.8-1-6.4-3.2-6.4C264.2,572.8,262.8,575,262.8,579.3z"/>
		</g>
	</g>
	<g id="h_15">
		<g>
			<g>
				<line fill="none" stroke="#999999" stroke-width="2" stroke-miterlimit="10" x1="500.5" y1="578" x2="600.5" y2="578"/>
				<line fill="none" stroke="#999999" stroke-width="2" stroke-miterlimit="10" x1="640.5" y1="578" x2="740.5" y2="578"/>
				<g>
					<rect x="499.5" y="570" fill="#999999" width="2" height="16"/>
				</g>
				<g>
					<rect x="739.5" y="570" fill="#999999" width="2" height="16"/>
				</g>
			</g>
		</g>
		<g>
			<path d="M613.2,573.4L613.2,573.4l-2.8,1.5l-0.4-1.6l3.4-1.8h1.8V587h-2V573.4z"/>
			<path d="M630.2,573.2h-6l-0.6,4c0.4,0,0.7-0.1,1.3-0.1c1.2,0,2.4,0.3,3.4,0.8c1.2,0.7,2.2,2,2.2,4c0,3-2.4,5.3-5.8,5.3
				c-1.7,0-3.1-0.5-3.9-1l0.5-1.6c0.6,0.4,1.9,0.9,3.3,0.9c2,0,3.7-1.3,3.7-3.4c0-2-1.4-3.5-4.5-3.5c-0.9,0-1.6,0.1-2.2,0.2l1-7.5
				h7.5V573.2z"/>
		</g>
	</g>
</g>
<g id="ruler_above">
	<g id="h5">
		<g>
			<g>
				<line fill="none" stroke="#999999" stroke-width="2" stroke-miterlimit="10" x1="660.5" y1="58" x2="690.5" y2="58"/>
				<line fill="none" stroke="#999999" stroke-width="2" stroke-miterlimit="10" x1="710.5" y1="58" x2="740.5" y2="58"/>
				<g>
					<rect x="659.5" y="50" fill="#999999" width="2" height="16"/>
				</g>
				<g>
					<rect x="739.5" y="50" fill="#999999" width="2" height="16"/>
				</g>
			</g>
		</g>
		<g>
			<rect x="694.5" y="46.5" fill="none" width="13.9" height="30.4"/>
			<path d="M704.9,52.8h-6l-0.6,4c0.4,0,0.7-0.1,1.3-0.1c1.2,0,2.4,0.3,3.4,0.8c1.2,0.7,2.2,2,2.2,4c0,3-2.4,5.3-5.8,5.3
				c-1.7,0-3.1-0.5-3.9-1l0.5-1.6c0.6,0.4,1.9,0.9,3.3,0.9c2,0,3.7-1.3,3.7-3.4c0-2-1.4-3.5-4.5-3.5c-0.9,0-1.6,0.1-2.2,0.2l1-7.5
				h7.5V52.8z"/>
		</g>
		<g>
		</g>
	</g>
	<g id="h9">
		<g>
			<g>
				<line fill="none" stroke="#999999" stroke-width="2" stroke-miterlimit="10" x1="516.5" y1="58" x2="578.5" y2="58"/>
				<line fill="none" stroke="#999999" stroke-width="2" stroke-miterlimit="10" x1="598.5" y1="58" x2="660.5" y2="58"/>
				<g>
					<rect x="515.5" y="50" fill="#999999" width="2" height="16"/>
				</g>
				<g>
					<rect x="659.5" y="50" fill="#999999" width="2" height="16"/>
				</g>
			</g>
		</g>
		<g>
			<path d="M583.8,65.5c0.5,0,1,0,1.7-0.1c1.2-0.2,2.4-0.7,3.3-1.5c1-0.9,1.8-2.3,2.1-4.2h-0.1c-0.9,1.1-2.1,1.7-3.7,1.7
				c-2.8,0-4.6-2.1-4.6-4.8c0-3,2.1-5.5,5.3-5.5s5.2,2.6,5.2,6.6c0,3.4-1.2,5.8-2.7,7.3c-1.2,1.2-2.9,1.9-4.5,2.1
				c-0.8,0.1-1.4,0.1-1.9,0.1V65.5z M584.6,56.5c0,1.9,1.2,3.3,3,3.3c1.4,0,2.5-0.7,3.1-1.6c0.1-0.2,0.2-0.4,0.2-0.8
				c0-2.7-1-4.7-3.2-4.7C585.9,52.7,584.6,54.3,584.6,56.5z"/>
		</g>
	</g>
</g>
<g id="grid">
	<g>
		<g id="yin_3_">
			<rect x="516.5" y="401.1" fill="#EEEEEE" width="144" height="144"/>
			<line fill="none" stroke="#999999" stroke-width="2" stroke-miterlimit="10" x1="516.5" y1="545" x2="660.5" y2="545"/>
			<line fill="none" stroke="#999999" stroke-width="2" stroke-miterlimit="10" x1="516.5" y1="401" x2="660.5" y2="401"/>
		</g>
		<g id="yin_1_">
			<rect x="516.5" y="257.1" fill="#EEEEEE" width="144" height="144"/>
			<line fill="none" stroke="#999999" stroke-width="2" stroke-miterlimit="10" x1="516.5" y1="401" x2="660.5" y2="401"/>
			<line fill="none" stroke="#999999" stroke-width="2" stroke-miterlimit="10" x1="516.5" y1="257" x2="660.5" y2="257"/>
		</g>
		<g id="yin_2_">
			<rect x="516.5" y="113.1" fill="#EEEEEE" width="144" height="144"/>
			<line fill="none" stroke="#999999" stroke-width="2" stroke-miterlimit="10" x1="516.5" y1="257" x2="660.5" y2="257"/>
			<line fill="none" stroke="#999999" stroke-width="2" stroke-miterlimit="10" x1="516.5" y1="113" x2="660.5" y2="113"/>
		</g>
		<g id="_x34_-tone_1_">
			<rect x="660.5" y="368.1" fill="#EEEEEE" width="80" height="80"/>
			<line fill="none" stroke="#999999" stroke-width="2" stroke-miterlimit="10" x1="660.5" y1="368" x2="740.5" y2="368"/>
			<line fill="none" stroke="#999999" stroke-width="2" stroke-miterlimit="10" x1="660.5" y1="448" x2="740.5" y2="448"/>
		</g>
		<g id="_x35_th_tone_1_">
			<path fill="none" stroke="#999999" stroke-width="2" stroke-miterlimit="10" d="M660.5,128"/>
			<path fill="none" stroke="#999999" stroke-width="2" stroke-miterlimit="10" d="M516.5,128"/>
			<path fill="none" stroke="#999999" stroke-width="2" stroke-miterlimit="10" d="M660.5,160"/>
			<path fill="none" stroke="#999999" stroke-width="2" stroke-miterlimit="10" d="M516.5,160"/>
		</g>
		<g id="inner_1_">
			<line fill="none" stroke="#CCCCCC" stroke-miterlimit="10" x1="180" y1="560" x2="180" y2="80"/>
			<line fill="none" stroke="#CCCCCC" stroke-miterlimit="10" x1="341" y1="560" x2="341" y2="80"/>
			<line fill="none" stroke="#CCCCCC" stroke-miterlimit="10" x1="20.5" y1="239.5" x2="500.5" y2="239.5"/>
			<line fill="none" stroke="#CCCCCC" stroke-miterlimit="10" x1="20.5" y1="400.5" x2="500.5" y2="400.5"/>
		</g>
		<g id="outer_1_">
			
				<rect id="zhuyin_1_" x="20.5" y="80.1" fill="none" stroke="#999999" stroke-width="2" stroke-miterlimit="10" width="720" height="480"/>
			
				<rect id="char_1_" x="20.5" y="80.1" fill="none" stroke="#999999" stroke-width="2" stroke-miterlimit="10" width="480" height="480"/>
			<line fill="none" stroke="#999999" stroke-width="2" stroke-miterlimit="10" x1="660.5" y1="560" x2="660.5" y2="80"/>
			<line fill="none" stroke="#999999" stroke-width="2" stroke-miterlimit="10" x1="516.5" y1="560" x2="516.5" y2="80"/>
		</g>
	</g>
</g>
<g id="character">
	<g>
		<path d="M558.4,419.6c3.4,2.1,5.1,3.9,5.1,5.5c0,0.7-0.6,2.1-1.5,4.2c-1.1,1.5-2.2,4.2-3.2,7.7c-4.6,18-7,28.1-7,30.2
			c0,2.2,1.5,3.4,4.5,3.4c1.4,0,14.9-1.5,40.5-4.8c15.9-2.4,24.8-4.2,26.7-5.2c1.8-1.3,3.4-1.8,4.8-1.8c1.5,0,3.8,1.7,6.8,5.2
			s4.5,6,4.5,7.7c0,1-1,2.4-2.8,3.9c-2.7,2.4-4.9,5.6-6.9,10c-6.3,11.1-12.1,19.5-17.3,25.6c-5.2,5.9-11.4,11.2-18.6,15.9
			c-0.4,0-0.6-0.1-0.6-0.6c12.2-17,20.8-30.8,25.6-41.3c2.8-4.9,4.2-8.4,4.2-10.7c0-0.7-1.3-1.1-3.9-1.1c-6.9,0-18,0.8-33.3,2.7
			s-25.2,3.4-29.5,4.8c-3.8,1-6.2,1.5-6.9,1.5c-3,0-5.5-0.7-7.9-2.1c-2.7-1.8-3.9-3.9-3.9-6.3c0-1.8,0.7-4.2,2.2-7.3
			c2.7-6.2,4.6-12.5,6.2-19c1.8-7.2,2.8-12.9,2.8-17c0-3-0.3-5.5-0.8-7.6l-0.8-4.2c0-1.5,0.7-2.2,2.2-2.2
			C551.8,416.7,554.8,417.7,558.4,419.6z"/>
	</g>
	<g>
		<path d="M546.6,148c3.1,0,7.7-0.6,13.9-1.7c12.5-2.7,27.3-4.9,44-7c12.7-1.7,19.8-3.1,21.4-4.4c0.8-0.3,2.1-0.4,3.9-0.4
			c1.5,0,3.1,0.6,4.9,1.8c3.8,2.8,5.8,5.2,5.8,7.3c0,1-0.7,1.5-2.2,1.5c-0.1,0-1.7-0.1-4.5-0.3c-2.4-0.4-3.7-0.7-3.9-0.7
			c-6.5,0-17.2,1-32.2,3.1c2,2.1,3,3.9,3,5.2s-0.3,2.8-0.7,4.6c-1.1,3.9-1.4,18.4-0.8,43.3c0.4,21,0.1,33.3-0.6,37
			c-0.8,2.8-2,4.2-3.5,4.2c-1.3,0-3-2.1-4.9-6.2s-3-7.5-3-9.8c0-1.3,0.4-3.7,1.3-7c0.7-2.2,1-17.2,1-44.6c0-11.4-1.1-19.7-3.2-25
			c-13.2,2.1-22.8,4.2-28.8,6.6c-3.1,1.3-5.2,2-6.2,2c-2.4,0-5.5-1.3-9.6-3.7c-3.4-2.4-5.1-4.4-5.1-5.9c0-0.7,0.6-1.1,1.7-1.1h1.7
			C542.6,147.6,544.9,148,546.6,148z"/>
	</g>
	<g>
		<path d="M110,322.6c0.6,6.4,0.6,13.8,0,22c-0.6,8.3-1.9,15.5-3.8,21.6s-4.3,12-7.1,17.6c-2.9,5.6-6.2,9.9-9.8,12.8
			c-3.7,2.9-6.6,4.3-8.8,4.1c-3.4,0-6.6-1.9-9.4-5.7c-2.8-3.8-4.6-8-5.4-12.7c-0.8-4.6-1.3-9.3-1.4-13.9c-0.2-4.7,0.3-8.4,1.4-11
			c0.3-0.8,1.7-2.8,4.1-6.2c2.4-3.4,5-7.8,7.9-13.4c2.8-5.5,4.8-9.7,6-12.5s2.5-7.1,4.1-13c1.6-5.9,2.5-10.6,2.8-14.2
			c0.3-3.6,1-6.1,2-7.4c1-1.3,2.4-2,4.1-2c1.7,0.2,3.8,3.2,6.2,9.1c2.4,5.9,4.1,10.7,5,14.4C108.8,315.9,109.5,319.4,110,322.6z
			 M352.6,338.3l23.7,27.4c5.2,6.1,10,10.8,14.6,14.2c4.6,3.4,9.5,6.7,14.6,10l14.1,9.6c3.9,2.8,6.7,5.4,8.3,7.9
			c1.6,2.4,2.3,5.6,2,9.5c-0.3,2.7-1.3,5.4-2.8,8.2c-1.6,2.8-6.6,6.8-15.1,12.1c-8.5,5.2-21.4,9.7-38.6,13.4
			c-17.2,3.7-34.3,5.5-51.3,5.5c-16.1,0.2-31.3-1.2-45.5-4.1c-14.2-2.9-26.4-6.6-36.6-11c-10.2-4.5-19.1-9.6-27-15.6
			c-7.8-5.9-14.9-12.8-21.2-20.6c-6.3-7.8-11.7-16.2-16.2-25.2c-4.5-9-7.7-16.5-9.7-22.6c-2-6.1-3.9-12.8-5.6-20.2l-6.1-24.6
			c-0.6-1.9-2-5.4-4.1-10.7c-2.1-5.2-2.8-8.5-2-9.7c0.8-1.2,1.9-2.1,3.4-2.6c1.5-0.5,3.5-0.2,6,0.7c1.9,0.9,4.1,2.4,6.6,4.5
			c2.5,2,4.2,3.8,5,5.3c0.9,1.5,2,5,3.4,10.7l4.9,22c2.2,10,5.1,18.4,8.7,25.2c3.6,6.8,8.2,13.7,13.9,20.6
			c5.7,7,12.2,13.2,19.6,18.9c7.3,5.6,15.1,10.1,23.2,13.4c8.1,3.3,16,5.5,23.6,6.7c7.6,1.2,16.4,1.9,26.5,2.1s19.2,0.2,27.3-0.1
			c10.3-0.3,18.6-1.7,25-4.1c6.3-2.4,10.1-5,11.4-7.9c1.2-2.8,2-6.1,2.3-10c0.3-3.8-0.7-9.5-3-17l-11.7-36.3
			c-1.3-3.8-0.9-6.4,1.2-7.9C347.3,334.4,349.8,335.2,352.6,338.3z M216.2,236.2l-6.1-8.9c-1.7-2.3-2-4.2-0.9-5.6
			c1.1-1.4,2.5-2,4.2-1.6l12.2,2.6c2,0.5,5.9,1.7,11.6,3.6c5.7,2,10.1,3.5,13.2,4.6c3.1,1.1,6.7,2.7,10.7,4.7c4,2,7.1,4.4,9.3,7
			c2.2,2.7,3.9,6.3,5.2,11c1.2,4.7,1.1,10.3-0.5,16.9c-1.4,5.6-3.3,9.6-5.7,12.1c-2.4,2.4-4.9,3.9-7.4,4.3
			c-2.5,0.5-6.1-1.7-10.8-6.6c-3.1-3-6.2-6.3-9.1-10.1c-3-3.8-7.4-9.5-13.4-17.1C222.6,245.4,218.5,239.8,216.2,236.2z M405.5,295.7
			l-27-35.4l-21.8-23.9c-1.9-3-2.4-5-1.6-6c0.8-1,2.3-1.6,4.6-1.9c2.3-0.2,6.5,1,12.8,3.6l32.8,14.3c11.4,5,20.9,10.6,28.4,16.8
			c7.5,6.2,12.4,11.9,14.8,17.2c2.3,5.3,3.4,11,3.3,17.1c-0.3,5.3-1.4,9.8-3.3,13.5c-1.9,3.7-4,6.1-6.3,7.3s-4.6,1.8-6.8,1.9
			c-2.2,0.1-5.8-1.5-10.9-4.7C419.3,312.3,413,305.7,405.5,295.7z"/>
	</g>
	<g>
		<path d="M596.8,318.5c17-1.8,28.1-3.7,33.2-5.5c2.5-1.3,4.1-1.7,4.5-1.5c1.1-0.1,3.5,1.3,7,4.4c2.5,2.5,3.8,4.4,3.8,5.5l0.1,0.3
			c0,1-0.6,1.4-1.8,1.4h-2.4c-1.7-0.1-3.7,0.4-5.8,0.4c-5.3-0.1-14.2,0.6-26.7,2c-19.3,2.1-36.1,3.8-50.9,4.9
			c-6.3,0.1-11,1-14.2,2.2c-2.1,0.6-3.2,0.8-3.7,0.8c-2,0-4.4-1.4-7.2-4.4s-4.2-5.5-4.4-7.6l-0.1-0.4c-0.1-1.4,0.3-2.1,1.5-2.1
			l0.1-0.1c0.1,0,1.7,0.3,2.4,0.4c3.2,1.3,9,2,17.4,2C564,321.2,579.8,320.3,596.8,318.5z"/>
	</g>
	<g>
	</g>
	<g>
	</g>
	<g>
	</g>
	<g>
	</g>
	<g>
	</g>
	<g>
	</g>
	<g>
	</g>
	<g>
	</g>
	<g>
	</g>
	<g>
	</g>
	<g>
	</g>
	<g>
	</g>
	<g>
	</g>
	<g>
	</g>
	<g>
	</g>
	<g>
	</g>
</g>
</svg>
