<?xml version="1.0" encoding="utf-8"?>
<!-- Generator: Adobe Illustrator 18.1.0, SVG Export Plug-In . SVG Version: 6.00 Build 0)  -->
<svg version="1.1" xmlns="http://www.w3.org/2000/svg" xmlns:xlink="http://www.w3.org/1999/xlink" x="0px" y="0px"
	 viewBox="0 0 760 640" enable-background="new 0 0 760 640" xml:space="preserve">
<g id="ruler_under">
	<g id="h_45">
		<g>
			<g>
				<line fill="none" stroke="#999999" stroke-width="2" stroke-miterlimit="10" x1="20.5" y1="601" x2="360.5" y2="601"/>
				<line fill="none" stroke="#999999" stroke-width="2" stroke-miterlimit="10" x1="400.5" y1="601" x2="740.5" y2="601"/>
				<g>
					<rect x="19.5" y="593" fill="#999999" width="2" height="16"/>
				</g>
				<g>
					<rect x="739.5" y="593" fill="#999999" width="2" height="16"/>
				</g>
			</g>
		</g>
		<g>
			<path d="M375.2,610v-4.2h-7.2v-1.4l7-10h2.3v9.7h2.2v1.7h-2.2v4.2H375.2z M375.2,604.1v-5.2c0-0.8,0-1.6,0.1-2.4h-0.1
				c-0.5,0.9-0.9,1.6-1.3,2.3L370,604v0H375.2z"/>
			<path d="M390.2,596.2h-6l-0.6,4c0.4,0,0.7-0.1,1.3-0.1c1.2,0,2.4,0.3,3.4,0.8c1.2,0.7,2.2,2,2.2,4c0,3-2.4,5.3-5.8,5.3
				c-1.7,0-3.1-0.5-3.9-1l0.5-1.6c0.6,0.4,1.9,0.9,3.3,0.9c2,0,3.7-1.3,3.7-3.4c0-2-1.4-3.5-4.5-3.5c-0.9,0-1.6,0.1-2.2,0.2l1-7.5
				h7.5V596.2z"/>
		</g>
	</g>
	<g id="h_30_1_">
		<g>
			<g>
				<line fill="none" stroke="#999999" stroke-width="2" stroke-miterlimit="10" x1="20.5" y1="578" x2="240.5" y2="578"/>
				<line fill="none" stroke="#999999" stroke-width="2" stroke-miterlimit="10" x1="280.5" y1="578" x2="500.5" y2="578"/>
				<g>
					<rect x="19.5" y="570" fill="#999999" width="2" height="16"/>
				</g>
				<g>
					<rect x="499.5" y="570" fill="#999999" width="2" height="16"/>
				</g>
			</g>
		</g>
		<g>
			<path d="M249.1,584.6c0.6,0.4,2,1,3.5,1c2.7,0,3.6-1.7,3.5-3c0-2.2-2-3.1-4-3.1h-1.2v-1.6h1.2c1.5,0,3.5-0.8,3.5-2.6
				c0-1.2-0.8-2.4-2.7-2.4c-1.2,0-2.4,0.6-3.1,1l-0.6-1.5c0.8-0.6,2.4-1.2,4.1-1.2c3.1,0,4.5,1.8,4.5,3.7c0,1.6-1,3-2.9,3.7v0
				c1.9,0.4,3.5,1.8,3.5,4c0,2.5-1.9,4.7-5.7,4.7c-1.8,0-3.3-0.6-4.1-1.1L249.1,584.6z"/>
			<path d="M271.3,579c0,5.3-2,8.2-5.4,8.2c-3,0-5.1-2.9-5.2-8c0-5.2,2.3-8.1,5.4-8.1C269.4,571.1,271.3,574.1,271.3,579z
				 M262.8,579.3c0,4.1,1.2,6.4,3.2,6.4c2.2,0,3.2-2.5,3.2-6.5c0-3.8-1-6.4-3.2-6.4C264.2,572.8,262.8,575,262.8,579.3z"/>
		</g>
	</g>
	<g id="h_15">
		<g>
			<g>
				<line fill="none" stroke="#999999" stroke-width="2" stroke-miterlimit="10" x1="500.5" y1="578" x2="600.5" y2="578"/>
				<line fill="none" stroke="#999999" stroke-width="2" stroke-miterlimit="10" x1="640.5" y1="578" x2="740.5" y2="578"/>
				<g>
					<rect x="499.5" y="570" fill="#999999" width="2" height="16"/>
				</g>
				<g>
					<rect x="739.5" y="570" fill="#999999" width="2" height="16"/>
				</g>
			</g>
		</g>
		<g>
			<path d="M613.2,573.4L613.2,573.4l-2.8,1.5l-0.4-1.6l3.4-1.8h1.8V587h-2V573.4z"/>
			<path d="M630.2,573.2h-6l-0.6,4c0.4,0,0.7-0.1,1.3-0.1c1.2,0,2.4,0.3,3.4,0.8c1.2,0.7,2.2,2,2.2,4c0,3-2.4,5.3-5.8,5.3
				c-1.7,0-3.1-0.5-3.9-1l0.5-1.6c0.6,0.4,1.9,0.9,3.3,0.9c2,0,3.7-1.3,3.7-3.4c0-2-1.4-3.5-4.5-3.5c-0.9,0-1.6,0.1-2.2,0.2l1-7.5
				h7.5V573.2z"/>
		</g>
	</g>
</g>
<g id="ruler_above">
	<g id="h5">
		<g>
			<g>
				<line fill="none" stroke="#999999" stroke-width="2" stroke-miterlimit="10" x1="660.5" y1="58" x2="690.5" y2="58"/>
				<line fill="none" stroke="#999999" stroke-width="2" stroke-miterlimit="10" x1="710.5" y1="58" x2="740.5" y2="58"/>
				<g>
					<rect x="659.5" y="50" fill="#999999" width="2" height="16"/>
				</g>
				<g>
					<rect x="739.5" y="50" fill="#999999" width="2" height="16"/>
				</g>
			</g>
		</g>
		<g>
			<rect x="694.5" y="46.5" fill="none" width="13.9" height="30.4"/>
			<path d="M704.9,52.8h-6l-0.6,4c0.4,0,0.7-0.1,1.3-0.1c1.2,0,2.4,0.3,3.4,0.8c1.2,0.7,2.2,2,2.2,4c0,3-2.4,5.3-5.8,5.3
				c-1.7,0-3.1-0.5-3.9-1l0.5-1.6c0.6,0.4,1.9,0.9,3.3,0.9c2,0,3.7-1.3,3.7-3.4c0-2-1.4-3.5-4.5-3.5c-0.9,0-1.6,0.1-2.2,0.2l1-7.5
				h7.5V52.8z"/>
		</g>
		<g>
		</g>
	</g>
	<g id="h9">
		<g>
			<g>
				<line fill="none" stroke="#999999" stroke-width="2" stroke-miterlimit="10" x1="516.5" y1="58" x2="578.5" y2="58"/>
				<line fill="none" stroke="#999999" stroke-width="2" stroke-miterlimit="10" x1="598.5" y1="58" x2="660.5" y2="58"/>
				<g>
					<rect x="515.5" y="50" fill="#999999" width="2" height="16"/>
				</g>
				<g>
					<rect x="659.5" y="50" fill="#999999" width="2" height="16"/>
				</g>
			</g>
		</g>
		<g>
			<path d="M583.8,65.5c0.5,0,1,0,1.7-0.1c1.2-0.2,2.4-0.7,3.3-1.5c1-0.9,1.8-2.3,2.1-4.2h-0.1c-0.9,1.1-2.1,1.7-3.7,1.7
				c-2.8,0-4.6-2.1-4.6-4.8c0-3,2.1-5.5,5.3-5.5s5.2,2.6,5.2,6.6c0,3.4-1.2,5.8-2.7,7.3c-1.2,1.2-2.9,1.9-4.5,2.1
				c-0.8,0.1-1.4,0.1-1.9,0.1V65.5z M584.6,56.5c0,1.9,1.2,3.3,3,3.3c1.4,0,2.5-0.7,3.1-1.6c0.1-0.2,0.2-0.4,0.2-0.8
				c0-2.7-1-4.7-3.2-4.7C585.9,52.7,584.6,54.3,584.6,56.5z"/>
		</g>
	</g>
</g>
<g id="grid">
	<g>
		<g id="yin_3_">
			<rect x="516.5" y="257.1" fill="#EEEEEE" stroke="#999999" stroke-miterlimit="10" width="144" height="144"/>
			<line fill="#EEEEEE" stroke="#999999" stroke-width="2" stroke-miterlimit="10" x1="516.5" y1="401" x2="660.5" y2="401"/>
			<line fill="#EEEEEE" stroke="#999999" stroke-width="2" stroke-miterlimit="10" x1="516.5" y1="257" x2="660.5" y2="257"/>
		</g>
		<g id="_x34_-tone_2_">
			<rect x="660.5" y="224.1" fill="#EEEEEE" stroke="#999999" stroke-miterlimit="10" width="80" height="80"/>
			<line fill="#EEEEEE" stroke="#999999" stroke-width="2" stroke-miterlimit="10" x1="660.5" y1="224" x2="740.5" y2="224"/>
			<line fill="#EEEEEE" stroke="#999999" stroke-width="2" stroke-miterlimit="10" x1="660.5" y1="304" x2="740.5" y2="304"/>
		</g>
		<g id="_x35_th_tone_2_">
			<rect x="516.5" y="209.1" fill="#EEEEEE" stroke="#999999" stroke-miterlimit="10" width="144" height="32"/>
			<line fill="#EEEEEE" stroke="#999999" stroke-width="2" stroke-miterlimit="10" x1="516.5" y1="209" x2="660.5" y2="209"/>
			<line fill="#EEEEEE" stroke="#999999" stroke-width="2" stroke-miterlimit="10" x1="516.5" y1="241" x2="660.5" y2="241"/>
		</g>
		<g id="inner_2_">
			<line fill="none" stroke="#CCCCCC" stroke-miterlimit="10" x1="180" y1="560" x2="180" y2="80"/>
			<line fill="none" stroke="#CCCCCC" stroke-miterlimit="10" x1="341" y1="560" x2="341" y2="80"/>
			<line fill="none" stroke="#CCCCCC" stroke-miterlimit="10" x1="20.5" y1="239.5" x2="500.5" y2="239.5"/>
			<line fill="none" stroke="#CCCCCC" stroke-miterlimit="10" x1="20.5" y1="400.5" x2="500.5" y2="400.5"/>
		</g>
		<g id="outer_2_">
			
				<rect id="zhuyin_2_" x="20.5" y="80.1" fill="none" stroke="#999999" stroke-width="2" stroke-miterlimit="10" width="720" height="480"/>
			
				<rect id="char_2_" x="20.5" y="80.1" fill="none" stroke="#999999" stroke-width="2" stroke-miterlimit="10" width="480" height="480"/>
			<line fill="none" stroke="#999999" stroke-width="2" stroke-miterlimit="10" x1="660.5" y1="560" x2="660.5" y2="80"/>
			<line fill="none" stroke="#999999" stroke-width="2" stroke-miterlimit="10" x1="516.5" y1="560" x2="516.5" y2="80"/>
		</g>
	</g>
</g>
<g id="character">
	<g>
		<path d="M630.4,274.3c3.2,3.5,4.8,6.5,4.8,8.6c0,2-1.1,3.7-3.4,4.9c-2.8,0.7-6,3.8-9.7,9.3c-7.9,11-14.8,19-20.8,24.2
			c-2.1,2-3.2,5.1-3.2,9.4c0,24.9,0.3,40.5,0.8,46.5c0.1,2.8,0.3,4.4,0.3,4.5c0,2.1-0.7,4.5-2.2,7.2c-1,1.5-1.8,2.2-2.8,2.2
			c-1.4,0-3.1-1.4-5.1-4.1s-3-5.2-3-7.3l0.7-7.2c0.4-3.7,0.6-15.2,0.6-34.6c0-5.8-1.4-10.1-4.2-13.1c-10.8-10.4-20.4-20.7-29-30.9
			c-3.5-4.5-6.3-7.7-8.7-9.8c-2.4-1.8-3.7-3.2-3.7-3.9c0-1.8,0.6-3,1.8-3.5c2-0.7,4.4-1.1,7.2-1.1c4.4,0,7.2,0.4,8.4,1.3
			c1.4,0.7,2.7,2.7,3.8,5.9c1.1,4.1,5.1,10.3,11.8,18.8c6,8.3,12.1,14.8,18.1,19.5c5.2-6.8,10.3-14.8,15.3-24.2
			c5.2-9.4,8.6-17,10.4-22.9c1-2.7,2.4-4.1,4.1-4.1C625,269.9,627.6,271.3,630.4,274.3z"/>
	</g>
	<g>
		<path d="M591,236.4c-3.1,0-5.9-1.1-8.2-3.3s-3.3-5.1-3.3-8.2c0-3.1,1.1-5.8,3.3-8.1c2.3-2.3,5.1-3.5,8.2-3.5
			c3.1,0,5.8,1.2,8.1,3.5c2.3,2.3,3.5,5,3.5,8.1c0,3.1-1.2,5.9-3.5,8.2S594.1,236.4,591,236.4z"/>
	</g>
	<g>
		<path d="M75.1,234.1c2.2-0.5,8-2.3,17.5-5.6c9.5-3.3,16.5-6.4,21.1-9.3c4.6-2.9,7.4-4.5,8.3-4.8c2.3-0.5,5.4-0.2,9.3,0.9
			c3.8,1.1,8.6,3.2,14.2,6.2s8.5,5.7,8.7,8.1c0.2,2.3-0.8,5.5-2.8,9.4c-1.7,3.1-3.1,6.2-4.1,9.1c-1,3-2.7,8.5-5.2,16.5
			c-2.4,8-3.9,13.6-4.3,16.5l-6.1,30.5c2.2,1.4,4.1,2.9,5.7,4.3c1.6,1.5,2.2,3,1.8,4.6c-0.5,1.6-1.8,2.5-4,2.8l-56.2,8
			c-0.6,3.4-1.1,6.1-1.4,7.9c-0.3,1.8-0.8,3.5-1.5,5.2s-1.9,2.8-3.6,3.4c-1.7,0.6-3.8-0.4-6.3-3c-1.7-1.6-3-3.8-3.8-6.6
			c-0.8-2.8-1.8-8.7-3-17.8l-7-49.9c-0.6-4.2-2-8.7-4-13.6c-2-4.8-4.6-9-7.7-12.4c-3.1-3.4-4.9-5.9-5.3-7.5c-0.4-1.6-0.3-2.9,0.4-4
			c0.6-1.1,3-1.5,7.3-1.2c6.1,0.8,10.2,1.3,12.2,1.6l11,2.3C69.8,235.1,72.9,234.5,75.1,234.1z M77.6,316.8
			c6.9-1.2,12.1-2.3,15.7-3.3l13.4-3.3l7-1.2l5.6-38.9l1.9-19c0.5-4.4,0.6-7.6,0.4-9.7s-0.9-3.7-1.9-4.7c-1-1-3.2-1.3-6.4-0.8
			c-2.5,0.5-6.7,1.7-12.7,3.6c-5.9,2-10.7,3.4-14.3,4.3l-16.6,4.7L77.6,316.8z M191.4,209.6c0.1,5.7,0.1,9.6,0.1,11.6l-1.4,22.5
			l-4,167.1l-0.7,33l-0.9,18.3c-0.5,8.9-1.5,16.4-3.2,22.4c-1.6,6-3.7,9.2-6.2,9.5c-2.5,0.3-5.4-1.3-8.7-4.7
			c-3.1-3-5.7-7.3-7.9-12.9s-3.4-10-3.8-13.2c-0.4-3.2,0-7.6,1.1-13.2l2.6-13.8c0.8-4.5,2.1-15.3,3.9-32.2c1.8-17,3-28.5,3.5-34.7
			c0.5-6.2,1-15.2,1.3-27.1l2.1-84.4c0.3-18.4-0.2-32.8-1.6-43.2c-1.4-10.4-2.5-17-3.3-19.9c-0.8-2.9-2.1-5.9-3.9-8.9
			c-1.8-3-2.8-5.4-2.9-7c-0.2-1.6,0.3-3.1,1.4-4.3c1.1-1.2,3.8-1.6,8.2-0.9c4.5,0.9,8.5,2,12,3l9.8,3.5c6.2-2.2,10.4-3.7,12.4-4.6
			c2-0.9,7.3-3.2,15.9-7c8.6-3.8,14.5-6.7,17.7-8.7c3.2-2,5.5-3.1,6.9-3.4c3-0.6,6-0.3,9,1.1c3,1.3,7.4,3.4,13.1,6.3
			c5.7,2.9,9.2,5.2,10.5,7c1.3,1.8,2,3.2,2,4.3c-0.2,0.9-0.7,2.3-1.8,4c-1,1.7-3.8,4.5-8.2,8.4c-4.5,3.9-9.3,8.5-14.5,13.7
			c-5.2,5.2-9.6,10.1-13.2,14.6c-3.6,4.5-6.3,8.8-8,12.7c-1.7,3.9-2.6,7.1-2.7,9.5c-0.1,2.4,0.6,5.1,2,8.1c1.4,3.4,4.6,8.3,9.7,14.6
			c5.1,6.3,8.7,11.1,10.8,14.3c2.1,3.2,4.1,7.1,6,11.8s3.1,9.9,3.6,15.7c0.5,5.8-0.4,11.4-2.7,16.9c-2,4.7-4.9,8.6-8.7,11.6
			s-6.6,4.5-8.7,4.3c-2,0-4.8-1.9-8.4-5.6c-3.6-3.8-8.3-7.9-14.1-12.3c-5.8-4.5-9.6-7.4-11.5-8.8l-7-4.7c-1.6-0.9-1.9-2.1-1.1-3.5
			c0.9-1.4,2.4-2,4.6-1.6l9.6,1.6l9.4,0.9c3.8,0.6,6.2,0.5,7.4-0.2c1.2-0.8,2.1-2.2,2.7-4.2c0.6-2,0.8-4.5,0.5-7.5
			c-0.5-3.1-1.1-6.6-2-10.3c-0.9-3.8-3.2-9.5-7.1-17.3l-8-15.2c-2-3.6-3.1-6.5-3.2-8.8c-0.1-2.3,0.9-5.7,2.9-10.2
			c2.3-5.2,5.2-11,8.7-17.6c3.4-6.6,5.5-10.6,6.2-12.1c0.7-1.5,1.6-3.6,2.6-6.4c1-2.8,1.2-4.8,0.6-5.9c-0.6-1.1-3.1-1.3-7.5-0.7
			c-2.7,0.5-6.4,1.3-11.2,2.6l-22.7,6.1C191.4,198.5,191.4,203.9,191.4,209.6z M428.3,206.7c2.8,1.2,4.8,2.3,5.9,3.4
			c1.1,1.1,1.9,2.3,2.5,3.8c0.5,1.4,0.4,3.8-0.6,7.3l-1.9,6.8c-1.1,4.7-1.7,9.1-1.8,13.1c-0.1,4.1-0.1,18-0.1,42v85.8
			c0,3.1,0.4,14.6,1.3,34.5c0.9,19.8,1.2,35.2,1.1,46.2c-0.5,16.9-2.2,28.7-5.2,35.6c-3,6.9-6.5,12.9-10.7,18
			c-4.1,5.2-7.9,7.6-11.4,7.3c-0.9,0-2.2-0.3-3.8-0.9c-1.6-0.6-3.8-3-6.7-7c-2.9-4.1-7-9.1-12.4-15c-5.4-5.9-10.1-10.5-14.2-13.8
			l-10.5-8.2c-3.4-2.3-5-4.1-4.8-5.3s0.8-2,1.6-2.5c0.9-0.5,3.1-0.3,6.7,0.5l13.8,3.5c5,1.3,10,2,15,2.3c5,0.3,8,0.1,8.9-0.7
			c0.5-0.5,1.2-2.4,2.3-5.7c1.1-3.4,1.8-8.7,2.2-16.1c0.4-7.3,0.7-17.3,1.1-29.8l0.9-41.7c0.8-36.2,0.9-61.2,0.5-75
			c-0.5-13.7-1.1-26.6-1.9-38.4l-1.6-21.3c-0.8-8.6-2-15-3.5-19.2l-4.5-12c-14.8,2.2-25.9,3.8-33,4.9l-29.3,5.4
			c-18,3.3-30,5.6-36.1,7s-10.9,2-14.3,1.6c-4.1-0.2-8.2-1-12.3-2.5c-4.1-1.5-7.2-3.3-9.1-5.4c-2-2.1-2.7-3.8-2.3-4.9
			c0.4-1.2,2.5-2.1,6.2-2.9l14.8-2.6c5.6-0.9,17.1-2.5,34.3-4.8c17.3-2.3,32.7-4.5,46.4-6.7c13.7-2.2,26.8-4.4,39.4-6.7
			c12.6-2.3,22-4.1,28.2-5.4c6.2-1.3,12.2-2.7,17.9-4.1c5.7-1.4,10-2,12.8-1.9c2.8,0.3,7.1,1.6,12.9,4c5.8,2.3,10.5,4.7,14.2,7
			c3.7,2.3,5.4,4.2,5,5.6c-0.3,1.4-1.3,2.7-3,3.8c-1.7,1.1-5.3,1.8-10.8,2.1l-15,0.9l-27.7,1.6l-21.8,1.9
			C420.7,204.1,425.5,205.6,428.3,206.7z M358,339.3c1.7,1.7,2.3,3.2,1.8,4.5c-0.5,1.3-4.4,2.1-11.6,2.6l-42.7,3.3
			c-0.6,3.1-1.1,5.9-1.5,8.4c-0.4,2.5-1.1,4-2.2,4.6c-1.1,0.5-2.4,0.4-4-0.6c-1.6-0.9-3.1-3-4.6-6.1c-1.5-3.1-2.6-7.9-3.4-14.3
			l-4.7-35.2c-0.9-6.6-1.9-10.9-2.8-12.9L275,283c-1.7-3.4-2.1-5.6-1.2-6.6s3-1.3,6.3-1.2c4.8,0.5,7.5,0.7,8,0.7l8.7,2.6l30.2-7.5
			c4.1-0.9,7.6-2.3,10.5-4.2l5.6-3.5c1.2-0.6,2.4-1,3.5-1.2c1.7-0.2,5.2,1,10.3,3.5l10.3,5.2c4.4,3,6.4,5.7,6.1,8.2
			c-0.2,0.9-0.7,2.2-1.8,3.8c-1,1.6-2.6,4.4-4.8,8.6c-2.2,4.1-4,8.2-5.4,12.1l-4.5,15.2l-5.2,16.6
			C354.2,336.2,356.2,337.6,358,339.3z M333.8,330.6c1.7-5,3-9.1,3.9-12.4c0.9-3.3,1.6-7.9,2.3-13.9c0.7-6,1.2-10.7,1.5-14.1
			c0.3-3.4,0.1-5.6-0.7-6.8c-0.8-1.2-2.6-1.5-5.4-0.9c-2.8,0.5-7.3,1.6-13.4,3.2l-20.2,5.2c0.2,2.5,0.3,4.4,0.5,5.6l1.2,18.5
			l1.4,20.9L333.8,330.6z"/>
	</g>
	<g>
	</g>
	<g>
	</g>
	<g>
	</g>
	<g>
	</g>
	<g>
	</g>
	<g>
	</g>
	<g>
	</g>
	<g>
	</g>
	<g>
	</g>
	<g>
	</g>
	<g>
	</g>
	<g>
	</g>
	<g>
	</g>
	<g>
	</g>
	<g>
	</g>
	<g>
	</g>
</g>
</svg>
