<?xml version="1.0" encoding="utf-8"?>
<!-- Generator: Adobe Illustrator 18.1.0, SVG Export Plug-In . SVG Version: 6.00 Build 0)  -->
<svg version="1.1" xmlns="http://www.w3.org/2000/svg" xmlns:xlink="http://www.w3.org/1999/xlink" x="0px" y="0px"
	 viewBox="0 0 760 640" enable-background="new 0 0 760 640" xml:space="preserve">
<g id="ruler_under">
	<g id="h_45">
		<g>
			<g>
				<line fill="none" stroke="#999999" stroke-width="2" stroke-miterlimit="10" x1="20.5" y1="601" x2="360.5" y2="601"/>
				<line fill="none" stroke="#999999" stroke-width="2" stroke-miterlimit="10" x1="400.5" y1="601" x2="740.5" y2="601"/>
				<g>
					<rect x="19.5" y="593" fill="#999999" width="2" height="16"/>
				</g>
				<g>
					<rect x="739.5" y="593" fill="#999999" width="2" height="16"/>
				</g>
			</g>
		</g>
		<g>
			<path d="M375.2,610v-4.2h-7.2v-1.4l7-10h2.3v9.7h2.2v1.7h-2.2v4.2H375.2z M375.2,604.1v-5.2c0-0.8,0-1.6,0.1-2.4h-0.1
				c-0.5,0.9-0.9,1.6-1.3,2.3L370,604v0H375.2z"/>
			<path d="M390.2,596.2h-6l-0.6,4c0.4,0,0.7-0.1,1.3-0.1c1.2,0,2.4,0.3,3.4,0.8c1.2,0.7,2.2,2,2.2,4c0,3-2.4,5.3-5.8,5.3
				c-1.7,0-3.1-0.5-3.9-1l0.5-1.6c0.6,0.4,1.9,0.9,3.3,0.9c2,0,3.7-1.3,3.7-3.4c0-2-1.4-3.5-4.5-3.5c-0.9,0-1.6,0.1-2.2,0.2l1-7.5
				h7.5V596.2z"/>
		</g>
	</g>
	<g id="h_30_1_">
		<g>
			<g>
				<line fill="none" stroke="#999999" stroke-width="2" stroke-miterlimit="10" x1="20.5" y1="578" x2="240.5" y2="578"/>
				<line fill="none" stroke="#999999" stroke-width="2" stroke-miterlimit="10" x1="280.5" y1="578" x2="500.5" y2="578"/>
				<g>
					<rect x="19.5" y="570" fill="#999999" width="2" height="16"/>
				</g>
				<g>
					<rect x="499.5" y="570" fill="#999999" width="2" height="16"/>
				</g>
			</g>
		</g>
		<g>
			<path d="M249.1,584.6c0.6,0.4,2,1,3.5,1c2.7,0,3.6-1.7,3.5-3c0-2.2-2-3.1-4-3.1h-1.2v-1.6h1.2c1.5,0,3.5-0.8,3.5-2.6
				c0-1.2-0.8-2.4-2.7-2.4c-1.2,0-2.4,0.6-3.1,1l-0.6-1.5c0.8-0.6,2.4-1.2,4.1-1.2c3.1,0,4.5,1.8,4.5,3.7c0,1.6-1,3-2.9,3.7v0
				c1.9,0.4,3.5,1.8,3.5,4c0,2.5-1.9,4.7-5.7,4.7c-1.8,0-3.3-0.6-4.1-1.1L249.1,584.6z"/>
			<path d="M271.3,579c0,5.3-2,8.2-5.4,8.2c-3,0-5.1-2.9-5.2-8c0-5.2,2.3-8.1,5.4-8.1C269.4,571.1,271.3,574.1,271.3,579z
				 M262.8,579.3c0,4.1,1.2,6.4,3.2,6.4c2.2,0,3.2-2.5,3.2-6.5c0-3.8-1-6.4-3.2-6.4C264.2,572.8,262.8,575,262.8,579.3z"/>
		</g>
	</g>
	<g id="h_15">
		<g>
			<g>
				<line fill="none" stroke="#999999" stroke-width="2" stroke-miterlimit="10" x1="500.5" y1="578" x2="600.5" y2="578"/>
				<line fill="none" stroke="#999999" stroke-width="2" stroke-miterlimit="10" x1="640.5" y1="578" x2="740.5" y2="578"/>
				<g>
					<rect x="499.5" y="570" fill="#999999" width="2" height="16"/>
				</g>
				<g>
					<rect x="739.5" y="570" fill="#999999" width="2" height="16"/>
				</g>
			</g>
		</g>
		<g>
			<path d="M613.2,573.4L613.2,573.4l-2.8,1.5l-0.4-1.6l3.4-1.8h1.8V587h-2V573.4z"/>
			<path d="M630.2,573.2h-6l-0.6,4c0.4,0,0.7-0.1,1.3-0.1c1.2,0,2.4,0.3,3.4,0.8c1.2,0.7,2.2,2,2.2,4c0,3-2.4,5.3-5.8,5.3
				c-1.7,0-3.1-0.5-3.9-1l0.5-1.6c0.6,0.4,1.9,0.9,3.3,0.9c2,0,3.7-1.3,3.7-3.4c0-2-1.4-3.5-4.5-3.5c-0.9,0-1.6,0.1-2.2,0.2l1-7.5
				h7.5V573.2z"/>
		</g>
	</g>
</g>
<g id="ruler_above">
	<g id="h5">
		<g>
			<g>
				<line fill="none" stroke="#999999" stroke-width="2" stroke-miterlimit="10" x1="660.5" y1="58" x2="690.5" y2="58"/>
				<line fill="none" stroke="#999999" stroke-width="2" stroke-miterlimit="10" x1="710.5" y1="58" x2="740.5" y2="58"/>
				<g>
					<rect x="659.5" y="50" fill="#999999" width="2" height="16"/>
				</g>
				<g>
					<rect x="739.5" y="50" fill="#999999" width="2" height="16"/>
				</g>
			</g>
		</g>
		<g>
			<rect x="694.5" y="46.5" fill="none" width="13.9" height="30.4"/>
			<path d="M704.9,52.8h-6l-0.6,4c0.4,0,0.7-0.1,1.3-0.1c1.2,0,2.4,0.3,3.4,0.8c1.2,0.7,2.2,2,2.2,4c0,3-2.4,5.3-5.8,5.3
				c-1.7,0-3.1-0.5-3.9-1l0.5-1.6c0.6,0.4,1.9,0.9,3.3,0.9c2,0,3.7-1.3,3.7-3.4c0-2-1.4-3.5-4.5-3.5c-0.9,0-1.6,0.1-2.2,0.2l1-7.5
				h7.5V52.8z"/>
		</g>
		<g>
		</g>
	</g>
	<g id="h9">
		<g>
			<g>
				<line fill="none" stroke="#999999" stroke-width="2" stroke-miterlimit="10" x1="516.5" y1="58" x2="578.5" y2="58"/>
				<line fill="none" stroke="#999999" stroke-width="2" stroke-miterlimit="10" x1="598.5" y1="58" x2="660.5" y2="58"/>
				<g>
					<rect x="515.5" y="50" fill="#999999" width="2" height="16"/>
				</g>
				<g>
					<rect x="659.5" y="50" fill="#999999" width="2" height="16"/>
				</g>
			</g>
		</g>
		<g>
			<path d="M583.8,65.5c0.5,0,1,0,1.7-0.1c1.2-0.2,2.4-0.7,3.3-1.5c1-0.9,1.8-2.3,2.1-4.2h-0.1c-0.9,1.1-2.1,1.7-3.7,1.7
				c-2.8,0-4.6-2.1-4.6-4.8c0-3,2.1-5.5,5.3-5.5s5.2,2.6,5.2,6.6c0,3.4-1.2,5.8-2.7,7.3c-1.2,1.2-2.9,1.9-4.5,2.1
				c-0.8,0.1-1.4,0.1-1.9,0.1V65.5z M584.6,56.5c0,1.9,1.2,3.3,3,3.3c1.4,0,2.5-0.7,3.1-1.6c0.1-0.2,0.2-0.4,0.2-0.8
				c0-2.7-1-4.7-3.2-4.7C585.9,52.7,584.6,54.3,584.6,56.5z"/>
		</g>
	</g>
</g>
<g id="grid">
	<g>
		<g id="checked-tone">
			<rect x="660.5" y="336.1" fill="#EEEEEE" stroke="#999999" stroke-miterlimit="10" width="80" height="80"/>
			<line fill="#EEEEEE" stroke="#999999" stroke-width="2" stroke-miterlimit="10" x1="660.5" y1="336" x2="740.5" y2="336"/>
			<line fill="#EEEEEE" stroke="#999999" stroke-width="2" stroke-miterlimit="10" x1="660.5" y1="416" x2="740.5" y2="416"/>
		</g>
		<g id="yin_3_">
			<rect x="516.5" y="257.1" fill="#EEEEEE" stroke="#999999" stroke-miterlimit="10" width="144" height="144"/>
			<line fill="#EEEEEE" stroke="#999999" stroke-width="2" stroke-miterlimit="10" x1="516.5" y1="401" x2="660.5" y2="401"/>
			<line fill="#EEEEEE" stroke="#999999" stroke-width="2" stroke-miterlimit="10" x1="516.5" y1="257" x2="660.5" y2="257"/>
		</g>
		<g id="inner_2_">
			<line fill="none" stroke="#CCCCCC" stroke-miterlimit="10" x1="180" y1="560" x2="180" y2="80"/>
			<line fill="none" stroke="#CCCCCC" stroke-miterlimit="10" x1="341" y1="560" x2="341" y2="80"/>
			<line fill="none" stroke="#CCCCCC" stroke-miterlimit="10" x1="20.5" y1="239.5" x2="500.5" y2="239.5"/>
			<line fill="none" stroke="#CCCCCC" stroke-miterlimit="10" x1="20.5" y1="400.5" x2="500.5" y2="400.5"/>
		</g>
		<g id="outer_2_">
			
				<rect id="zhuyin_2_" x="20.5" y="80.1" fill="none" stroke="#999999" stroke-width="2" stroke-miterlimit="10" width="720" height="480"/>
			
				<rect id="char_2_" x="20.5" y="80.1" fill="none" stroke="#999999" stroke-width="2" stroke-miterlimit="10" width="480" height="480"/>
			<line fill="none" stroke="#999999" stroke-width="2" stroke-miterlimit="10" x1="660.5" y1="560" x2="660.5" y2="80"/>
			<line fill="none" stroke="#999999" stroke-width="2" stroke-miterlimit="10" x1="516.5" y1="560" x2="516.5" y2="80"/>
		</g>
	</g>
</g>
<g id="character">
	<g>
		<path d="M596.8,318.5c17-1.8,28.1-3.7,33.2-5.5c2.5-1.3,4.1-1.7,4.5-1.5c1.1-0.1,3.5,1.3,7,4.4c2.5,2.5,3.8,4.4,3.8,5.5l0.1,0.3
			c0,1-0.6,1.4-1.8,1.4h-2.4c-1.7-0.1-3.7,0.4-5.8,0.4c-5.3-0.1-14.2,0.6-26.7,2c-19.3,2.1-36.1,3.8-50.9,4.9
			c-6.3,0.1-11,1-14.2,2.2c-2.1,0.6-3.2,0.8-3.7,0.8c-2,0-4.4-1.4-7.2-4.4s-4.2-5.5-4.4-7.6l-0.1-0.4c-0.1-1.4,0.3-2.1,1.5-2.1
			l0.1-0.1c0.1,0,1.7,0.3,2.4,0.4c3.2,1.3,9,2,17.4,2C564,321.2,579.8,320.3,596.8,318.5z"/>
	</g>
	<g id="_x2D_h">
		<path d="M686.7,345.1c1.9,1.9,2.9,3.4,2.9,4.3c0,0.4-0.6,1.1-1.8,2.3c-0.9,0.6-2.4,2.3-4.3,5.1s-2.9,4.8-2.9,5.6
			c0,0.6,0.1,1,0.4,1l2.5-0.8c10-2.6,19.8-4.5,29.4-5.9c2.5-0.4,4.6-0.8,6.3-1.4c1.6-0.8,2.8-1.1,3.5-1.1c1.5,0,3.3,1.4,5.3,4.1
			c1.8,2.8,2.6,4.5,2.6,5.3l-1,2c-0.5,0.8-1,2.3-1.6,4.6c-2.9,12.6-6.9,23.2-11.9,31.3c-4,6.6-7.9,9.9-11.5,9.9
			c-1.9,0-3.3-1.1-4-3.4c-1-3.1-2.8-6.3-5.3-9.3l-0.5-0.2c0-0.2,0.6-0.4,1.9-0.4l1.8,0.9c3.1,1.9,5.1,2.9,6.1,2.9
			c2.1,0,5.1-4.6,9.3-14c4.5-10.9,6.8-19.3,6.8-25c0-1.1-0.6-1.8-1.9-1.8c-3.5,0-9.8,1-18.9,2.9l-7.1,1.6c2.4,2,4.5,5.3,4.5,6.4
			c0,2-2,5.6-6,10.9c-3.9,5.1-8,9.5-12.1,13c-3.1,3.1-5.6,4.6-7.3,4.6c-0.9,0-1.3-0.1-1.3-0.4l0.4-0.9c4.3-4.3,8.5-9.9,12.8-16.9
			c3.1-5.4,4.6-10,4.6-13.9c0-0.8-0.1-1.3-0.5-1.6l-7.9,2.5c-1.5,1-2.8,1.5-3.9,1.5c-0.9,0-2.1-0.6-3.8-1.8c-1.6-1.1-2.4-2-2.4-2.6
			c0-0.1,0.8-1.3,2.1-3.4c3.9-6.8,6.1-11.6,6.8-14.6c0.6-1.9,0.8-3.6,0.4-5.1c0-0.9,0.8-1.3,2.1-1.3
			C682.5,342.1,684.3,343.1,686.7,345.1z"/>
	</g>
	<g>
		<path d="M123.1,315.8c-0.5,3.4-1.8,8-3.9,13.7c-2.1,5.7-4.2,10.4-6.2,14.2c-2,3.8-4.9,8.1-8.7,13s-7.3,8.3-10.8,10.2
			c-3.4,1.9-6.5,2.4-9.1,1.6c-2.8-0.6-5.4-2.7-7.7-6.1c-2.3-3.4-3.7-7-4.1-10.8c-0.4-3.8-0.4-6.7,0.1-8.9c0.5-1.9,1.9-4.6,4.2-8.1
			s6.5-10.5,12.4-21.1c5.9-10.5,9.6-17.6,11-21.2l4.9-15c1.2-3.1,2.7-4.9,4.2-5.3c1.6-0.4,3.4,0.4,5.6,2.2c1.2,1.4,2.3,3,3.3,4.7
			l2.6,5.6c6.2,0.2,12.3,0.2,18,0.1c5.8-0.1,10.8-0.2,15-0.5s18.4-1.1,42.7-2.7l41-2.6c4.8-0.3,20.5-1.8,46.9-4.3
			c26.4-2.6,40.8-4,43.1-4.3l29.3-3.3c15.9-1.4,24.7-2.3,26.4-2.6c1.6-0.3,5.4-1,11.2-2c5.9-1,9.9-1.4,12.1-1.3
			c3,0.5,6.2,1.8,9.7,3.9s8.9,6.1,16.2,12.1c7.3,5.9,12.3,10.3,15.2,13.1c2.9,2.8,5.5,6.1,7.7,10c2.3,3.8,3.1,6.8,2.5,8.8
			c-0.8,2.7-2.8,4.5-6,5.6c-3.2,1.1-7.5,2-12.8,2.7c-5.3,0.7-11.5,2-18.6,3.9c-7.1,1.9-12.9,3.6-17.3,5c-4.5,1.5-8.8,3.2-13,5.3
			l-16.2,8c-2.3,1.3-3.9,1.4-4.7,0.4c-0.8-1-0.5-2.6,0.7-4.8l8.9-15c3.1-5.5,4.9-8.5,5.4-9.1l5.2-9.8c2.5-4.7,3.9-8.3,4.3-10.9
			c0.4-2.6,0.2-4.5-0.6-5.6c-0.8-1.2-3.4-1.8-8-1.8h-13.8c-7,0.2-20.5,1-40.5,2.6l-49,4c-2,0.3-12.8,1.5-32.2,3.6s-36.4,3.8-51,5.2
			c-14.5,1.3-26.3,2.7-35.4,4c-9.1,1.3-14.5,2.1-16.4,2.2c-6.1,0.6-11.2,0.6-15.5,0l-7.3-0.7C124,308.3,123.6,312.4,123.1,315.8z
			 M195.1,437.7c-0.6-1.2-1.3-3-2.1-5.4c-0.8-2.3-1.7-6.3-2.8-12c-1.1-5.6-2.1-10.5-3.2-14.6c-1-4.1-2.5-9-4.5-14.5
			c-2-5.5-4.5-9.8-7.7-12.7c-3.2-2.9-5-5-5.4-6.2c-0.4-1.2-0.3-2.5,0.4-3.6c0.6-1.2,2.6-1.9,5.9-2.2c4.7-0.3,9.1,0.2,13.4,1.6
			l7.7,2.6c5.2-0.8,9.1-1.4,11.7-1.9l25.3-3.8c8.4-1.2,18.9-2.9,31.5-5c12.6-2.1,21.5-3.6,26.7-4.3c5.2-0.8,9.3-1.6,12.2-2.3
			c2.9-0.8,4.9-1.2,6-1.4c2.7,0,5.8,0.8,9.4,2.3c3.6,1.6,7.7,3.7,12.2,6.3c4.5,2.7,8.1,5.4,10.7,8.2s3.6,5.2,2.9,7.3
			c-0.5,1.1-1.3,2.2-2.6,3.3l-5.2,4c-2.5,2.2-5.7,6.2-9.7,12c-4,5.8-6.4,9.6-7.4,11.5l-4.5,8.4c1.4,0.9,2.7,1.8,3.9,2.5
			s2.4,1.9,3.8,3.6c1.3,1.7,1.6,3.1,0.8,4.2c-0.5,0.6-1.3,1.1-2.6,1.4c-1.3,0.3-3,0.5-5.2,0.5h-13.1c3.3,1.9,5.8,3.4,7.6,4.5
			c1.8,1.1,3.8,2.5,6.1,4.3c2.3,1.8,4.9,4.5,7.9,8c3,3.5,4.2,6.1,3.6,7.9c-0.5,1.7-2.6,3.9-6.2,6.6c-3.6,2.7-6.5,5-8.7,7.1
			c-2.2,2.1-5.4,5.6-9.7,10.5c-4.3,4.9-6.9,7.9-7.9,9l-4.5,5.6c9.8-0.6,17.8-1.2,23.9-1.6s15-1.2,26.7-2.1s20.3-1.8,25.7-2.5
			s9.3-1,11.8-0.8c3,0.3,6.8,1.4,11.5,3.2c4.7,1.8,9.6,4.2,14.8,7.3s8.2,6.1,9.3,9.3c1,3.1,0.9,5.3-0.2,6.4s-3.3,1.8-6.4,1.8h-21.1
			l-43.1-0.9c-11.1-0.2-23.4,0-36.9,0.5c-13.5,0.5-26.8,1.2-40,2.1l-41,3.3c-19.1,1.6-31.6,2.7-37.5,3.3c-5.9,0.6-13.2,1.6-21.7,2.9
			c-8.5,1.3-15,2.7-19.6,4.1c-4.5,1.4-7.6,2-9.1,1.9c-2.7,0-6.4-1.1-11.1-3.2c-4.8-2.1-8.7-4.2-11.7-6.3s-5.5-4.4-7.5-6.8
			c-2-2.4-2.6-4.3-1.9-5.6c0.7-1.3,2.9-2.1,6.7-2.2l17.6-0.7l23.4-0.9l26.7-2.8l20.2-1.9l10.8-1.4c-3-3.6-5.1-6.4-6.3-8.4
			l-10.5-18.5l-8-13.4c-1.6-2.7-2.9-5.8-3.9-9.4c-1-3.6-1-5.9,0.1-6.9c1.1-1,3.3-1.1,6.6-0.1l8.2,2.3
			C196.7,440.6,195.7,439,195.1,437.7z M242.2,163l-0.5-14.1c-0.5-3.4-1.2-7-2.2-10.7c-1-3.7-2.3-7-3.9-9.8
			c-1.6-2.9-2.7-5.2-3.3-6.9c-0.6-1.7-0.5-3.1,0.5-4.2c0.9-1.1,2.8-1.8,5.6-2.1c3.6-0.2,7.4,0.1,11.4,0.8s8.6,1.8,13.7,3.3
			c5.2,1.5,9.3,3.2,12.3,5s4.7,3.6,4.9,5.2c0.2,1.6-0.1,3.4-1.1,5.6l-2.8,6.6c-0.8,2.2-1.4,4.8-2,8c-0.5,3.1-0.9,6.6-1.1,10.3
			l-0.9,12c6.9-0.8,13-1.5,18.3-2.1c5.3-0.6,11.9-1.6,19.7-2.8c7.8-1.2,14.3-2.5,19.5-3.6s8.9-1.8,11.2-1.8c2.7,0.2,5.9,0.8,9.6,2
			s7,2.7,9.7,4.5c2.7,1.8,4.7,3.6,6,5.4c1.2,1.8,1.9,3,1.9,3.6c-0.2,1.1-1.4,2.1-3.6,3c-2.3,0.9-6.7,1.8-13.2,2.6l-16.4,2.8
			c-2.2,0.5-10,1.3-23.4,2.6l-24.8,2.8l-15,1.2l-0.9,38.7c5-0.9,9.7-1.8,14.1-2.5c4.4-0.7,8.4-1.4,12-2.2c3.6-0.8,5.9-1.2,7-1.4
			c3-0.2,7.1,0.4,12.3,1.5c5.2,1.2,10,2.6,14.4,4.3c4.4,1.7,6.6,3.5,6.6,5.4c-0.2,1.6-1,3-2.6,4.2c-1.6,1.3-4.5,2.1-8.7,2.6
			l-16.2,2.8c-2.5,0.5-6.7,1.1-12.5,1.8s-15.7,2-29.4,3.8c-13.8,1.8-25.5,3.2-35.3,4.3c-9.8,1.1-17.1,1.6-21.9,1.4
			c-6.3,0-11.8-0.6-16.5-1.9c-4.8-1.2-8.1-3.2-10.1-5.7c-2-2.6-2.7-4.4-2.2-5.4c0.5-1,2.7-1.8,6.8-2.2l16.4-1.9l20.9-2.8l19.5-2.3
			l-1.4-39.1c-9.4,1.1-16.8,1.9-22.3,2.3c-5.5,0.5-11.8,0.9-19,1.2c-7.2,0.3-13.4,0.2-18.8-0.2c-6.6-0.3-12.3-1.1-17.3-2.2
			c-5-1.2-8.5-3.1-10.5-5.7c-2-2.7-2.7-4.5-2-5.5c0.7-1,3.2-1.8,7.6-2.2l18.3-1.4c8.6-0.6,16.4-1.2,23.3-1.9c7-0.6,16-1.5,27.1-2.6
			l12-1.2L242.2,163z M186.4,325l13.6-1.9l18.3-1.9c6.4-0.6,15.2-1.9,26.2-3.8c11.1-1.9,17.4-3,19-3.3l21.8-3.3
			c4.7-0.8,8-1.2,9.8-1.4c4.2-0.3,8.1-0.2,11.7,0.5c3.6,0.6,7.7,1.5,12.2,2.6c4.5,1.1,7.6,2.3,9.3,3.6c1.6,1.3,2.5,2.7,2.6,4
			c0.1,1.3-0.7,2.6-2.5,3.9c-1.6,1.1-4,1.8-7.4,2c-3.4,0.2-9.3,1.3-17.8,3c-8.5,1.8-18.7,3.3-30.5,4.6c-11.8,1.3-22.3,2.4-31.4,3.5
			c-9.1,1.1-16.2,1.9-21.1,2.3s-9.9,0.6-14.9,0.5c-5.8,0-10.7-0.6-14.6-1.8s-7-2.9-8.9-5.2c-2-2.3-2.7-4-2.3-5.3
			C179.9,326.6,182.2,325.6,186.4,325z M232.8,417.9c7.3-0.9,14.1-1.6,20.4-2.3c6.2-0.7,13.2-1.7,21-2.9c7.7-1.2,12.1-2,13-2.1
			l8.4-0.5l6.1-20.4l1.2-6.1l1.4-6.3c0.2-2.7-0.4-4.6-1.5-6c-1.2-1.3-3.9-1.9-8.3-1.8c-7.7,0.5-15.8,1.3-24.4,2.5
			c-8.6,1.2-18.3,2.6-29.2,4.3c-10.9,1.7-18.4,3-22.6,3.8l-13.1,2.6c0.2,3,0.4,5.6,0.6,8s0.7,5.1,1.3,8.2l2.1,9.8l1.9,11.7
			C218.2,419.6,225.5,418.8,232.8,417.9z M219.1,454.7c4.5,3.2,7.9,7.5,10.3,12.9c2.4,5.4,3.9,9.6,4.5,12.5c0.5,3,0.7,5.5,0.6,7.7
			l-0.5,7c12-0.8,19.4-1.3,22-1.6l20.2-1.4c3.4-6.3,5.9-11.2,7.5-15c1.6-3.8,3.6-9.8,6.1-18.3c2.5-8.4,3.8-13.5,4-15.2l1.9-15.2
			c-3.9,0.5-6.8,0.8-8.7,0.9l-21.3,1.9l-25.3,2.6c-3,0.3-8.8,0.7-17.6,1.2l-11.7,0.7c-0.2,4.2-0.6,6.6-1.4,7l-4.5,3.5
			C210,448.6,214.6,451.5,219.1,454.7z"/>
	</g>
	<g>
	</g>
	<g>
	</g>
	<g>
	</g>
	<g>
	</g>
	<g>
	</g>
	<g>
	</g>
	<g>
	</g>
	<g>
	</g>
	<g>
	</g>
	<g>
	</g>
	<g>
	</g>
	<g>
	</g>
	<g>
	</g>
	<g>
	</g>
	<g>
	</g>
	<g>
	</g>
</g>
</svg>
