<?xml version="1.0" encoding="utf-8"?>
<!-- Generator: Adobe Illustrator 18.1.0, SVG Export Plug-In . SVG Version: 6.00 Build 0)  -->
<svg version="1.1" xmlns="http://www.w3.org/2000/svg" xmlns:xlink="http://www.w3.org/1999/xlink" x="0px" y="0px"
	 viewBox="0 0 760 640" enable-background="new 0 0 760 640" xml:space="preserve">
<g id="ruler_under">
	<g id="h_45">
		<g>
			<g>
				<line fill="none" stroke="#999999" stroke-width="2" stroke-miterlimit="10" x1="20.5" y1="601" x2="360.5" y2="601"/>
				<line fill="none" stroke="#999999" stroke-width="2" stroke-miterlimit="10" x1="400.5" y1="601" x2="740.5" y2="601"/>
				<g>
					<rect x="19.5" y="593" fill="#999999" width="2" height="16"/>
				</g>
				<g>
					<rect x="739.5" y="593" fill="#999999" width="2" height="16"/>
				</g>
			</g>
		</g>
		<g>
			<path d="M375.2,610v-4.2h-7.2v-1.4l7-10h2.3v9.7h2.2v1.7h-2.2v4.2H375.2z M375.2,604.1v-5.2c0-0.8,0-1.6,0.1-2.4h-0.1
				c-0.5,0.9-0.9,1.6-1.3,2.3L370,604v0H375.2z"/>
			<path d="M390.2,596.2h-6l-0.6,4c0.4,0,0.7-0.1,1.3-0.1c1.2,0,2.4,0.3,3.4,0.8c1.2,0.7,2.2,2,2.2,4c0,3-2.4,5.3-5.8,5.3
				c-1.7,0-3.1-0.5-3.9-1l0.5-1.6c0.6,0.4,1.9,0.9,3.3,0.9c2,0,3.7-1.3,3.7-3.4c0-2-1.4-3.5-4.5-3.5c-0.9,0-1.6,0.1-2.2,0.2l1-7.5
				h7.5V596.2z"/>
		</g>
	</g>
	<g id="h_30_1_">
		<g>
			<g>
				<line fill="none" stroke="#999999" stroke-width="2" stroke-miterlimit="10" x1="20.5" y1="578" x2="240.5" y2="578"/>
				<line fill="none" stroke="#999999" stroke-width="2" stroke-miterlimit="10" x1="280.5" y1="578" x2="500.5" y2="578"/>
				<g>
					<rect x="19.5" y="570" fill="#999999" width="2" height="16"/>
				</g>
				<g>
					<rect x="499.5" y="570" fill="#999999" width="2" height="16"/>
				</g>
			</g>
		</g>
		<g>
			<path d="M249.1,584.6c0.6,0.4,2,1,3.5,1c2.7,0,3.6-1.7,3.5-3c0-2.2-2-3.1-4-3.1h-1.2v-1.6h1.2c1.5,0,3.5-0.8,3.5-2.6
				c0-1.2-0.8-2.4-2.7-2.4c-1.2,0-2.4,0.6-3.1,1l-0.6-1.5c0.8-0.6,2.4-1.2,4.1-1.2c3.1,0,4.5,1.8,4.5,3.7c0,1.6-1,3-2.9,3.7v0
				c1.9,0.4,3.5,1.8,3.5,4c0,2.5-1.9,4.7-5.7,4.7c-1.8,0-3.3-0.6-4.1-1.1L249.1,584.6z"/>
			<path d="M271.3,579c0,5.3-2,8.2-5.4,8.2c-3,0-5.1-2.9-5.2-8c0-5.2,2.3-8.1,5.4-8.1C269.4,571.1,271.3,574.1,271.3,579z
				 M262.8,579.3c0,4.1,1.2,6.4,3.2,6.4c2.2,0,3.2-2.5,3.2-6.5c0-3.8-1-6.4-3.2-6.4C264.2,572.8,262.8,575,262.8,579.3z"/>
		</g>
	</g>
	<g id="h_15">
		<g>
			<g>
				<line fill="none" stroke="#999999" stroke-width="2" stroke-miterlimit="10" x1="500.5" y1="578" x2="600.5" y2="578"/>
				<line fill="none" stroke="#999999" stroke-width="2" stroke-miterlimit="10" x1="640.5" y1="578" x2="740.5" y2="578"/>
				<g>
					<rect x="499.5" y="570" fill="#999999" width="2" height="16"/>
				</g>
				<g>
					<rect x="739.5" y="570" fill="#999999" width="2" height="16"/>
				</g>
			</g>
		</g>
		<g>
			<path d="M613.2,573.4L613.2,573.4l-2.8,1.5l-0.4-1.6l3.4-1.8h1.8V587h-2V573.4z"/>
			<path d="M630.2,573.2h-6l-0.6,4c0.4,0,0.7-0.1,1.3-0.1c1.2,0,2.4,0.3,3.4,0.8c1.2,0.7,2.2,2,2.2,4c0,3-2.4,5.3-5.8,5.3
				c-1.7,0-3.1-0.5-3.9-1l0.5-1.6c0.6,0.4,1.9,0.9,3.3,0.9c2,0,3.7-1.3,3.7-3.4c0-2-1.4-3.5-4.5-3.5c-0.9,0-1.6,0.1-2.2,0.2l1-7.5
				h7.5V573.2z"/>
		</g>
	</g>
</g>
<g id="ruler_above">
	<g id="h5">
		<g>
			<g>
				<line fill="none" stroke="#999999" stroke-width="2" stroke-miterlimit="10" x1="660.5" y1="58" x2="690.5" y2="58"/>
				<line fill="none" stroke="#999999" stroke-width="2" stroke-miterlimit="10" x1="710.5" y1="58" x2="740.5" y2="58"/>
				<g>
					<rect x="659.5" y="50" fill="#999999" width="2" height="16"/>
				</g>
				<g>
					<rect x="739.5" y="50" fill="#999999" width="2" height="16"/>
				</g>
			</g>
		</g>
		<g>
			<rect x="694.5" y="46.5" fill="none" width="13.9" height="30.4"/>
			<path d="M704.9,52.8h-6l-0.6,4c0.4,0,0.7-0.1,1.3-0.1c1.2,0,2.4,0.3,3.4,0.8c1.2,0.7,2.2,2,2.2,4c0,3-2.4,5.3-5.8,5.3
				c-1.7,0-3.1-0.5-3.9-1l0.5-1.6c0.6,0.4,1.9,0.9,3.3,0.9c2,0,3.7-1.3,3.7-3.4c0-2-1.4-3.5-4.5-3.5c-0.9,0-1.6,0.1-2.2,0.2l1-7.5
				h7.5V52.8z"/>
		</g>
		<g>
		</g>
	</g>
	<g id="h9">
		<g>
			<g>
				<line fill="none" stroke="#999999" stroke-width="2" stroke-miterlimit="10" x1="516.5" y1="58" x2="578.5" y2="58"/>
				<line fill="none" stroke="#999999" stroke-width="2" stroke-miterlimit="10" x1="598.5" y1="58" x2="660.5" y2="58"/>
				<g>
					<rect x="515.5" y="50" fill="#999999" width="2" height="16"/>
				</g>
				<g>
					<rect x="659.5" y="50" fill="#999999" width="2" height="16"/>
				</g>
			</g>
		</g>
		<g>
			<path d="M583.8,65.5c0.5,0,1,0,1.7-0.1c1.2-0.2,2.4-0.7,3.3-1.5c1-0.9,1.8-2.3,2.1-4.2h-0.1c-0.9,1.1-2.1,1.7-3.7,1.7
				c-2.8,0-4.6-2.1-4.6-4.8c0-3,2.1-5.5,5.3-5.5s5.2,2.6,5.2,6.6c0,3.4-1.2,5.8-2.7,7.3c-1.2,1.2-2.9,1.9-4.5,2.1
				c-0.8,0.1-1.4,0.1-1.9,0.1V65.5z M584.6,56.5c0,1.9,1.2,3.3,3,3.3c1.4,0,2.5-0.7,3.1-1.6c0.1-0.2,0.2-0.4,0.2-0.8
				c0-2.7-1-4.7-3.2-4.7C585.9,52.7,584.6,54.3,584.6,56.5z"/>
		</g>
	</g>
</g>
<g id="grid">
	<g>
		<g id="yin_2_">
			<rect x="516.5" y="177.1" fill="#EEEEEE" width="144" height="144"/>
			<line fill="none" stroke="#999999" stroke-width="2" stroke-miterlimit="10" x1="516.5" y1="321" x2="660.5" y2="321"/>
			<line fill="none" stroke="#999999" stroke-width="2" stroke-miterlimit="10" x1="516.5" y1="177" x2="660.5" y2="177"/>
		</g>
		<g id="yin_1_">
			<rect x="516.5" y="352.1" fill="#EEEEEE" width="144" height="144"/>
			<line fill="none" stroke="#999999" stroke-width="2" stroke-miterlimit="10" x1="516.5" y1="496" x2="660.5" y2="496"/>
			<line fill="none" stroke="#999999" stroke-width="2" stroke-miterlimit="10" x1="516.5" y1="352" x2="660.5" y2="352"/>
		</g>
		<g id="_x34_-tone_1_">
			<rect x="660.5" y="321.1" fill="#EEEEEE" width="80" height="80"/>
			<line fill="none" stroke="#999999" stroke-width="2" stroke-miterlimit="10" x1="660.5" y1="321" x2="740.5" y2="321"/>
			<line fill="none" stroke="#999999" stroke-width="2" stroke-miterlimit="10" x1="660.5" y1="401" x2="740.5" y2="401"/>
		</g>
		<g id="_x35_th_tone_1_">
			<rect x="516.5" y="128" fill="#EEEEEE" width="144" height="32"/>
			<line fill="none" stroke="#999999" stroke-width="2" stroke-miterlimit="10" x1="516.5" y1="128" x2="660.5" y2="128"/>
			<line fill="none" stroke="#999999" stroke-width="2" stroke-miterlimit="10" x1="516.5" y1="160" x2="660.5" y2="160"/>
		</g>
		<g id="inner_1_">
			<line fill="none" stroke="#CCCCCC" stroke-miterlimit="10" x1="180" y1="560" x2="180" y2="80"/>
			<line fill="none" stroke="#CCCCCC" stroke-miterlimit="10" x1="341" y1="560" x2="341" y2="80"/>
			<line fill="none" stroke="#CCCCCC" stroke-miterlimit="10" x1="20.5" y1="239.5" x2="500.5" y2="239.5"/>
			<line fill="none" stroke="#CCCCCC" stroke-miterlimit="10" x1="20.5" y1="400.5" x2="500.5" y2="400.5"/>
		</g>
		<g id="outer_1_">
			
				<rect id="zhuyin_1_" x="20.5" y="80.1" fill="none" stroke="#999999" stroke-width="2" stroke-miterlimit="10" width="720" height="480"/>
			
				<rect id="char_1_" x="20.5" y="80.1" fill="none" stroke="#999999" stroke-width="2" stroke-miterlimit="10" width="480" height="480"/>
			<line fill="none" stroke="#999999" stroke-width="2" stroke-miterlimit="10" x1="660.5" y1="560" x2="660.5" y2="80"/>
			<line fill="none" stroke="#999999" stroke-width="2" stroke-miterlimit="10" x1="516.5" y1="560" x2="516.5" y2="80"/>
		</g>
	</g>
</g>
<g id="ruler_4-tone">
	<g id="v5">
		<g>
			<g>
				<line fill="none" stroke="#1197CC" stroke-width="5" stroke-miterlimit="10" x1="700" y1="321" x2="700" y2="346"/>
				<line fill="none" stroke="#1197CC" stroke-width="5" stroke-miterlimit="10" x1="700" y1="376" x2="700" y2="401"/>
				<g>
					<rect x="684.5" y="319" fill="#1197CC" width="32" height="5"/>
				</g>
				<g>
					<rect x="684.5" y="399" fill="#1197CC" width="32" height="5"/>
				</g>
			</g>
		</g>
		<g>
			<path d="M704.7,354.4h-6l-0.6,4c0.4,0,0.7-0.1,1.3-0.1c1.2,0,2.4,0.3,3.4,0.8c1.2,0.7,2.2,2,2.2,4c0,3-2.4,5.3-5.8,5.3
				c-1.7,0-3.1-0.5-3.9-1l0.5-1.6c0.6,0.4,1.9,0.9,3.3,0.9c2,0,3.7-1.3,3.7-3.4c0-2-1.4-3.5-4.5-3.5c-0.9,0-1.6,0.1-2.2,0.2l1-7.5
				h7.5V354.4z"/>
		</g>
	</g>
	<g id="v15">
		<g>
			<path d="M694,195.1L694,195.1l-2.8,1.5l-0.4-1.6l3.4-1.8h1.8v15.6h-2V195.1z"/>
			<path d="M711,194.9h-6l-0.6,4c0.4,0,0.7-0.1,1.3-0.1c1.2,0,2.4,0.3,3.4,0.8c1.2,0.7,2.2,2,2.2,4c0,3-2.4,5.3-5.8,5.3
				c-1.7,0-3.1-0.5-3.9-1l0.5-1.6c0.6,0.4,1.9,0.9,3.3,0.9c2,0,3.7-1.3,3.7-3.4c0-2-1.4-3.5-4.5-3.5c-0.9,0-1.6,0.1-2.2,0.2l1-7.5
				h7.5V194.9z"/>
		</g>
		<g>
			<g>
				<line fill="none" stroke="#1197CC" stroke-width="5" stroke-miterlimit="10" x1="700" y1="80" x2="700" y2="185"/>
				<line fill="none" stroke="#1197CC" stroke-width="5" stroke-miterlimit="10" x1="700" y1="216" x2="700" y2="321"/>
				<g>
					<rect x="684.5" y="78" fill="#1197CC" width="32" height="5"/>
				</g>
				<g>
					<rect x="684.5" y="319" fill="#1197CC" width="32" height="5"/>
				</g>
			</g>
		</g>
	</g>
	<g>
		<path fill="#1197CC" d="M700.8,426.7c-0.7,0.6-1.5,1.2-2.3,1.7c-0.2,0.1-0.3,0.2-0.4,0.2c-0.1,0-0.2-0.2-0.4-0.5
			c-0.2-0.4-0.4-0.7-0.7-1c-0.2,0.5-0.4,0.9-0.6,1.4c1.3,1.7,1.5,2.7,1.5,4.1c0,1.6-0.7,2.4-2.5,2.7c-0.6,0.1-0.6,0.1-0.7-0.6
			c-0.1-0.6-0.2-0.9-0.4-1.2c1.2,0.1,1.7-0.2,1.7-1.4c0-0.9-0.5-2-1.6-3.5c0.8-1.6,1.1-2.8,1.6-4.3h-1.9v11.4c0,2.8,0,4.2,0,4.3
			c0,0.2,0,0.2-0.2,0.2h-1.6c-0.2,0-0.2,0-0.2-0.2c0-0.1,0-1.5,0-4.3V427c0-2.8,0-4.2,0-4.4c0-0.2,0-0.2,0.2-0.2c0.1,0,0.6,0,1.6,0
			h2.6c0.2,0,0.3,0,0.4-0.1c0.1,0,0.2-0.1,0.3-0.1c0.2,0,0.3,0.1,0.8,0.7c0.4,0.5,0.5,0.6,0.5,0.8c0,0.2-0.1,0.2-0.2,0.3
			c-0.2,0.2-0.3,0.4-0.4,0.6c-0.3,0.8-0.6,1.5-0.8,2.2c2-1.1,3.4-2.3,4.9-4.2c0.2-0.3,0.4-0.6,0.5-1c0.6,0.1,1.3,0.2,1.9,0.4
			c0.2,0.1,0.2,0.1,0.2,0.2c0,0.1,0,0.2-0.2,0.3l-0.2,0.1c1.6,1.8,3.4,3,5.8,3.9c-0.2,0.3-0.5,0.7-0.7,1.2c-0.1,0.4-0.2,0.5-0.4,0.5
			c-0.1,0-0.2-0.1-0.5-0.2c-0.9-0.5-1.8-1-2.6-1.6v0.9c0,0.2,0,0.2-0.2,0.2c-0.1,0-0.4,0-1.6,0h-1.5c-1.1,0-1.5,0-1.6,0
			c-0.2,0-0.2,0-0.2-0.2V426.7z M700.4,436c-1.7,0-2.4,0-2.5,0c-0.2,0-0.2,0-0.2-0.2v-1.2c0-0.2,0-0.2,0.2-0.2c0.1,0,0.8,0,2.5,0
			h6.2c1.9,0,2.6,0,2.7,0c0.2,0,0.2,0,0.2,0.2v1.2c0,0.2,0,0.2-0.2,0.2c-0.1,0-0.8,0-2.7,0h-0.3c1.1,1,1.8,1.9,2.6,3.1
			c0.1,0.2,0.1,0.3-0.1,0.4l-1.2,0.7c-0.1,0.1-0.2,0.1-0.2,0.1c-0.1,0-0.1,0-0.1-0.1c-0.2-0.4-0.4-0.7-0.7-1.1
			c-2.4,0.3-5,0.5-7.5,0.7c-0.5,0-0.7,0.1-0.9,0.2c-0.1,0-0.2,0.1-0.3,0.1s-0.2-0.1-0.3-0.3c-0.2-0.5-0.3-1.1-0.4-1.7
			c0.9,0,1.6,0,2.3,0c0.5-0.8,0.8-1.4,1.1-2H700.4z M701.5,433.3c-1.8,0-2.4,0-2.5,0c-0.2,0-0.2,0-0.2-0.2v-1.2c0-0.2,0-0.2,0.2-0.2
			c0.1,0,0.7,0,2.5,0h2.1c0.4-0.5,0.7-0.9,1.1-1.5h-3c-1.6,0-2.2,0-2.3,0c-0.2,0-0.2,0-0.2-0.2v-1.2c0-0.2,0-0.2,0.2-0.2
			c0.1,0,0.7,0,2.3,0h4c0.2,0,0.3,0,0.3-0.1s0.1-0.1,0.2-0.1c0.2,0,0.3,0.1,0.8,0.5c0.5,0.4,0.5,0.6,0.5,0.7s-0.1,0.2-0.2,0.3
			c-0.2,0.1-0.3,0.2-0.6,0.6c-0.3,0.4-0.6,0.8-0.8,1.1c1.7,0,2.3,0,2.4,0c0.2,0,0.2,0,0.2,0.2v1.2c0,0.2,0,0.2-0.2,0.2
			c-0.1,0-0.7,0-2.5,0H701.5z M704.1,426.2c0.7,0,1.1,0,1.3,0c-0.8-0.6-1.5-1.3-2.2-2.1c-0.6,0.8-1.2,1.5-1.9,2.1c0.2,0,0.6,0,1.3,0
			H704.1z M702.6,436c-0.3,0.7-0.6,1.3-1,1.9c1.3-0.1,2.6-0.1,3.8-0.3l-0.7-0.8c-0.1-0.2-0.1-0.2,0.1-0.4l1-0.5H702.6z"/>
		<path fill="#1197CC" d="M696.5,442.5c0.2,0,0.3,0,0.4-0.1c0.1,0,0.2-0.1,0.3-0.1c0.2,0,0.3,0,0.8,0.6c0.4,0.5,0.5,0.6,0.5,0.8
			c0,0.2-0.1,0.2-0.2,0.4c-0.2,0.2-0.3,0.4-0.4,0.6c-0.5,1.4-0.8,2.1-1.5,3.5c1.2,1.2,1.5,2.8,1.5,4c0,1.5-0.7,2.4-2.4,2.7
			c-0.6,0.1-0.6,0.1-0.7-0.6c-0.1-0.6-0.2-0.9-0.4-1.2c1.2,0.1,1.6-0.3,1.6-1.4c0-0.9-0.4-2-1.6-3.4c0.8-1.6,1.1-2.5,1.6-4h-1.9
			v11.4c0,2.8,0,4.2,0,4.3c0,0.2,0,0.2-0.2,0.2h-1.6c-0.2,0-0.2,0-0.2-0.2c0-0.1,0-1.5,0-4.3v-8.7c0-2.8,0-4.2,0-4.4
			c0-0.2,0-0.2,0.2-0.2c0.1,0,0.6,0,1.6,0H696.5z M703.6,454.1c-1.1,1.9-2.5,3.2-4.3,4.3c-0.2,0.1-0.3,0.2-0.4,0.2
			c-0.1,0-0.2-0.1-0.5-0.4c-0.2-0.2-0.7-0.5-1-0.6c1.9-0.9,3.3-2,4.3-3.5h-1.1c-0.7,0.8-1.5,1.4-2.3,2c-0.2,0.1-0.4,0.2-0.5,0.2
			c-0.1,0-0.3-0.1-0.5-0.4s-0.7-0.6-1-0.7c1.4-0.7,2.5-1.6,3.5-2.9c0.2-0.3,0.3-0.6,0.5-0.9c-1.3,0-1.7,0-1.8,0
			c-0.2,0-0.2,0-0.2-0.2V450c0-0.2,0-0.2,0.2-0.2c0.1,0,0.8,0,2.7,0h5.6c1.9,0,2.6,0,2.7,0c0.2,0,0.2,0,0.2,0.2v1.3
			c0,0.2,0,0.2-0.2,0.2c-0.1,0-0.8,0-2.7,0h-5.4l0.6,0.2c0.3,0.1,0.3,0.2,0.3,0.3c0,0.1,0,0.2-0.1,0.2c-0.1,0.1-0.2,0.2-0.3,0.3h4.7
			c1.6,0,2.2,0,2.3,0c0.2,0,0.3,0,0.3,0.2c-0.1,0.6-0.1,1.3-0.1,1.9c-0.1,1.9-0.3,3.1-0.5,4c-0.3,1.1-0.9,1.5-2.1,1.5
			c-0.4,0-0.6,0-0.9,0c-0.5,0-0.5,0-0.6-0.7c-0.1-0.5-0.3-1-0.5-1.3c0.7,0.1,0.9,0.1,1.4,0.1c0.5,0,0.7-0.2,0.9-0.6
			c0.2-0.5,0.3-1.3,0.4-3.4h-0.6c-1,2.5-2.3,4.4-4.7,5.8c-0.2,0.1-0.4,0.2-0.5,0.2c-0.1,0-0.2-0.1-0.5-0.4c-0.2-0.2-0.7-0.5-0.9-0.7
			c2.2-1.1,3.7-2.7,4.7-5H703.6z M705.4,442.6c1.6,0,2.2,0,2.3,0c0.2,0,0.2,0,0.2,0.2c0,0.1,0,0.6,0,1.7v2.4c0,1.1,0,1.6,0,1.7
			c0,0.2,0,0.2-0.2,0.2c-0.1,0-0.7,0-2.3,0h-3.5c-1.6,0-2.2,0-2.3,0c-0.2,0-0.2,0-0.2-0.2c0-0.1,0-0.6,0-1.7v-2.4c0-1.1,0-1.6,0-1.7
			c0-0.2,0-0.2,0.2-0.2c0.1,0,0.7,0,2.3,0H705.4z M701.2,445h4.8v-0.9h-4.8V445z M706,446.4h-4.8v0.9h4.8V446.4z"/>
		<path fill="#1197CC" d="M694.5,479.1c-1.8,0-2.4,0-2.5,0c-0.2,0-0.2,0-0.2-0.2v-1.8c0-0.2,0-0.2,0.2-0.2c0.1,0,0.7,0,2.5,0h4.2
			v-11.3c0-1.6,0-2.4-0.2-3.3c0.8,0,1.7,0.1,2.3,0.1c0.2,0,0.4,0.1,0.4,0.3c0,0.2-0.1,0.3-0.1,0.5c-0.1,0.2-0.1,0.7-0.1,1.9v3.2h3.9
			c1.7,0,2.3,0,2.5,0c0.2,0,0.2,0,0.2,0.2v1.8c0,0.2,0,0.2-0.2,0.2c-0.1,0-0.7,0-2.5,0H701v6.5h5.5c1.8,0,2.4,0,2.5,0
			c0.2,0,0.2,0,0.2,0.2v1.8c0,0.2,0,0.2-0.2,0.2c-0.1,0-0.7,0-2.5,0H694.5z"/>
		<path fill="#1197CC" d="M704.1,493.4c0.2-0.1,0.3-0.1,0.4,0c1.5,1.6,2.9,3.3,3.9,5.2c0.1,0.2,0.1,0.2-0.2,0.4l-1.3,0.8
			c-0.1,0.1-0.2,0.1-0.3,0.1c-0.1,0-0.1,0-0.2-0.1c-0.3-0.6-0.6-1.2-1-1.7c-3.3,0.6-7.1,1-10.7,1.3c-0.7,0.1-1,0.1-1.2,0.2
			c-0.1,0.1-0.2,0.1-0.3,0.1c-0.1,0-0.3-0.1-0.3-0.3c-0.2-0.6-0.3-1.3-0.4-2c0.9,0,1.5,0,2.1,0l0.8,0c1-1.7,1.8-3.3,2.5-5.1h-3.6
			c-1.8,0-2.4,0-2.5,0c-0.2,0-0.2,0-0.2-0.2v-1.5c0-0.2,0-0.2,0.2-0.2c0.1,0,0.7,0,2.5,0h4.8v-2.9h-2.8c-2,0-2.6,0-2.8,0
			c-0.2,0-0.2,0-0.2-0.2v-1.5c0-0.2,0-0.2,0.2-0.2c0.1,0,0.8,0,2.8,0h2.8v-0.9c0-1.3,0-1.8-0.2-2.5c0.8,0,1.5,0,2.2,0.1
			c0.2,0,0.3,0.1,0.3,0.2c0,0.2,0,0.3-0.1,0.4c-0.1,0.2-0.1,0.7-0.1,1.6v1h3.1c2,0,2.6,0,2.8,0c0.2,0,0.2,0,0.2,0.2v1.5
			c0,0.2,0,0.2-0.2,0.2c-0.1,0-0.8,0-2.8,0h-3.1v2.9h5.1c1.8,0,2.4,0,2.5,0c0.2,0,0.2,0,0.2,0.2v1.5c0,0.2,0,0.2-0.2,0.2
			c-0.1,0-0.7,0-2.5,0h-6.2c-0.7,1.8-1.5,3.4-2.4,4.9c2.3-0.2,4.6-0.5,6.5-0.7c-0.5-0.7-1.1-1.3-1.7-2c-0.2-0.2-0.1-0.2,0.1-0.3
			L704.1,493.4z"/>
	</g>
</g>
<g id="ruler_symbol">
	<g id="v4">
		<g>
			<g>
				<line fill="none" stroke="#66CC66" stroke-width="5" stroke-miterlimit="10" x1="587" y1="496" x2="587" y2="513"/>
				<line fill="none" stroke="#66CC66" stroke-width="5" stroke-miterlimit="10" x1="587" y1="543" x2="587" y2="560"/>
				<g>
					<rect x="571.5" y="494" fill="#66CC66" width="32" height="5"/>
				</g>
				<g>
					<rect x="571.5" y="558" fill="#66CC66" width="32" height="5"/>
				</g>
			</g>
		</g>
		<g>
			<path d="M589,535.2V531h-7.2v-1.4l7-10h2.3v9.7h2.2v1.7h-2.2v4.2H589z M589,529.3v-5.2c0-0.8,0-1.6,0.1-2.4H589
				c-0.5,0.9-0.9,1.6-1.3,2.3l-3.8,5.3v0H589z"/>
		</g>
	</g>
	<g id="v9_4_">
		<g>
			<g>
				<line fill="none" stroke="#66CC66" stroke-width="5" stroke-miterlimit="10" x1="587" y1="352" x2="587" y2="409"/>
				<line fill="none" stroke="#66CC66" stroke-width="5" stroke-miterlimit="10" x1="587" y1="439" x2="587" y2="496"/>
				<g>
					<rect x="571.5" y="350" fill="#66CC66" width="32" height="5"/>
				</g>
				<g>
					<rect x="571.5" y="494" fill="#66CC66" width="32" height="5"/>
				</g>
			</g>
		</g>
		<g>
			<path d="M583.6,429.8c0.5,0,1,0,1.7-0.1c1.2-0.2,2.4-0.7,3.3-1.5c1-0.9,1.8-2.3,2.1-4.2h-0.1c-0.9,1.1-2.1,1.7-3.7,1.7
				c-2.8,0-4.6-2.1-4.6-4.8c0-3,2.1-5.5,5.3-5.5s5.2,2.6,5.2,6.6c0,3.4-1.2,5.8-2.7,7.3c-1.2,1.2-2.9,1.9-4.5,2.1
				c-0.8,0.1-1.4,0.1-1.9,0.1V429.8z M584.4,420.8c0,1.9,1.2,3.3,3,3.3c1.4,0,2.5-0.7,3.1-1.6c0.1-0.2,0.2-0.4,0.2-0.8
				c0-2.7-1-4.7-3.2-4.7C585.7,417,584.4,418.6,584.4,420.8z"/>
		</g>
	</g>
	<g id="v2">
		<line fill="none" stroke="#66CC66" stroke-width="5" stroke-miterlimit="10" x1="587" y1="322" x2="587" y2="352"/>
		<g>
			<path d="M565.7,344.2v-1.3l1.7-1.6c4-3.8,5.8-5.8,5.8-8.2c0-1.6-0.8-3-3.1-3c-1.4,0-2.6,0.7-3.3,1.3l-0.7-1.5
				c1.1-0.9,2.6-1.6,4.4-1.6c3.4,0,4.8,2.3,4.8,4.5c0,2.9-2.1,5.2-5.4,8.4l-1.2,1.2v0h7v1.8H565.7z"/>
		</g>
	</g>
	<g id="v9_5_">
		<g>
			<g>
				<line fill="none" stroke="#66CC66" stroke-width="5" stroke-miterlimit="10" x1="587" y1="177" x2="587" y2="234"/>
				<line fill="none" stroke="#66CC66" stroke-width="5" stroke-miterlimit="10" x1="587" y1="264" x2="587" y2="321"/>
				<g>
					<rect x="571.5" y="175" fill="#66CC66" width="32" height="5"/>
				</g>
				<g>
					<rect x="571.5" y="319" fill="#66CC66" width="32" height="5"/>
				</g>
			</g>
		</g>
		<g>
			<path d="M583.6,254.8c0.5,0,1,0,1.7-0.1c1.2-0.2,2.4-0.7,3.3-1.5c1-0.9,1.8-2.3,2.1-4.2h-0.1c-0.9,1.1-2.1,1.7-3.7,1.7
				c-2.8,0-4.6-2.1-4.6-4.8c0-3,2.1-5.5,5.3-5.5s5.2,2.6,5.2,6.6c0,3.4-1.2,5.8-2.7,7.3c-1.2,1.2-2.9,1.9-4.5,2.1
				c-0.8,0.1-1.4,0.1-1.9,0.1V254.8z M584.4,245.8c0,1.9,1.2,3.3,3,3.3c1.4,0,2.5-0.7,3.1-1.6c0.1-0.2,0.2-0.4,0.2-0.8
				c0-2.7-1-4.7-3.2-4.7C585.7,242,584.4,243.6,584.4,245.8z"/>
		</g>
	</g>
	<g>
		<path fill="#66CC66" d="M550.4,215.1c0.2-0.2,0.2-0.2,0.4-0.1c1,0.5,1.9,1.2,2.8,2c0.1,0.1,0.1,0.1,0.1,0.2c0,0.1,0,0.1-0.1,0.2
			l-0.9,1.3c-0.1,0.1-0.1,0.1-0.2,0.1c0,0-0.1,0-0.2-0.1c-0.9-0.8-1.8-1.6-2.8-2.2c-0.1-0.1-0.1-0.1-0.1-0.1c0-0.1,0-0.1,0.1-0.2
			L550.4,215.1z M550.6,224.8c0.6-1.1,1.3-2.7,2-4.6c0.3,0.3,0.7,0.7,1.1,1c0.3,0.2,0.4,0.3,0.4,0.5c0,0.1,0,0.2-0.1,0.5
			c-0.6,1.6-1.3,3.1-1.9,4.4c-0.2,0.3-0.3,0.6-0.3,0.8c0,0.2-0.1,0.3-0.3,0.3c-0.1,0-0.2,0-0.4-0.1c-0.5-0.3-1-0.6-1.5-1.1
			C550,225.9,550.3,225.5,550.6,224.8z M551.4,210c0.2-0.2,0.2-0.2,0.4-0.1c1,0.6,2,1.3,2.9,2.1c0.1,0.1,0.1,0.1,0.1,0.2
			s0,0.1-0.1,0.2l-0.9,1.2c-0.2,0.2-0.2,0.2-0.3,0.1c-0.9-0.8-2-1.7-2.9-2.3c-0.1-0.1-0.1-0.1-0.1-0.1c0-0.1,0-0.1,0.1-0.2
			L551.4,210z M557.1,227.1c-2,0-2.7,0-2.8,0c-0.2,0-0.2,0-0.2-0.2v-1.5c0-0.2,0-0.2,0.2-0.2c0.1,0,0.8,0,2.8,0h2.5v-4.3h-1.3
			c-1.9,0-2.5,0-2.6,0c-0.2,0-0.2,0-0.2-0.2v-1.5c0-0.2,0-0.2,0.2-0.2c0.1,0,0.8,0,2.6,0h1.3v-3.5h-1.7c-1.9,0-2.6,0-2.7,0
			c-0.2,0-0.2,0-0.2-0.2v-1.5c0-0.2,0-0.2,0.2-0.2c0.1,0,0.8,0,2.7,0h6.1c1.9,0,2.6,0,2.7,0c0.2,0,0.2,0,0.2,0.2v1.5
			c0,0.2,0,0.2-0.2,0.2c-0.1,0-0.8,0-2.7,0h-2.2v3.5h1.7c1.9,0,2.5,0,2.6,0c0.2,0,0.2,0,0.2,0.2v1.5c0,0.2,0,0.2-0.2,0.2
			c-0.1,0-0.7,0-2.6,0h-1.7v4.3h2.8c2,0,2.6,0,2.8,0c0.2,0,0.2,0,0.2,0.2v1.5c0,0.2,0,0.2-0.2,0.2c-0.1,0-0.8,0-2.8,0H557.1z
			 M559.1,209.7c0.2-0.2,0.2-0.2,0.4-0.1c1,0.4,2.4,1.3,3.4,2.1c0.1,0.1,0.1,0.1,0.1,0.2s0,0.1-0.2,0.2l-1,1.2
			c-0.2,0.2-0.2,0.2-0.4,0.1c-0.9-0.9-2.3-1.7-3.4-2.2c-0.2-0.1-0.2-0.1,0-0.3L559.1,209.7z"/>
		<path fill="#66CC66" d="M552.2,237.8c-1.8,0-2.4,0-2.5,0c-0.2,0-0.2,0-0.2-0.2v-1.4c0-0.2,0-0.2,0.2-0.2c0.1,0,0.7,0,2.5,0h2.2
			c-0.2-0.8-0.4-1.3-0.8-2c-0.1-0.2,0-0.2,0.2-0.3l1.4-0.4c0.2-0.1,0.3,0,0.4,0.2c0.4,0.7,0.6,1.4,1,2.4h3.4
			c0.3-0.7,0.5-1.1,0.7-1.7c0.1-0.3,0.2-0.6,0.2-1c0.7,0.1,1.3,0.3,1.9,0.5c0.2,0.1,0.3,0.1,0.3,0.2s-0.1,0.2-0.2,0.3
			c-0.1,0.1-0.2,0.3-0.3,0.5l-0.5,1.2h2.7c1.8,0,2.4,0,2.5,0c0.2,0,0.2,0,0.2,0.2v1.4c0,0.2,0,0.2-0.2,0.2c-0.1,0-0.7,0-2.5,0H552.2
			z M553.6,233.2c-1.9,0-2.6,0-2.7,0c-0.2,0-0.2,0-0.2-0.2v-1.4c0-0.2,0-0.2,0.2-0.2c0.1,0,0.8,0,2.7,0h3.7v0c0-0.8,0-1.3-0.1-1.8
			c0.7,0,1.4,0,2.2,0.1c0.2,0,0.3,0.1,0.3,0.2c0,0.1-0.1,0.2-0.1,0.4c-0.1,0.2-0.1,0.4-0.1,1.1v0h3.9c1.9,0,2.6,0,2.7,0
			c0.2,0,0.2,0,0.2,0.2v1.4c0,0.2,0,0.2-0.2,0.2c-0.1,0-0.7,0-2.6,0H553.6z M552.7,247.9c-0.2,0-0.2,0-0.2-0.2c0-0.1,0-0.7,0-3.8
			v-1.9c0-2,0-2.5,0-2.7c0-0.2,0-0.2,0.2-0.2c0.1,0,0.8,0,2.7,0h6.1c1.9,0,2.6,0,2.7,0c0.2,0,0.2,0,0.2,0.2c0,0.1,0,0.7,0,2.4v2.2
			c0,3.1,0,3.7,0,3.8c0,0.2,0,0.2-0.2,0.2h-1.6c-0.2,0-0.2,0-0.2-0.2v-0.7h-7.8v0.8c0,0.2,0,0.2-0.2,0.2H552.7z M554.6,242.1h7.8
			v-1.3h-7.8V242.1z M562.4,245.2v-1.5h-7.8v1.5H562.4z"/>
		<path fill="#66CC66" d="M552.2,262.8c0-0.7,0-1.5,0-2.3c-0.5,0.5-0.9,1-1.4,1.4c-0.2,0.2-0.3,0.3-0.4,0.3c-0.1,0-0.2-0.1-0.4-0.5
			c-0.3-0.5-0.5-0.9-0.8-1.3c1.8-1.3,2.9-2.7,3.8-4.2c0.3-0.5,0.6-1.1,0.7-1.5c0.3,0.1,0.6,0.2,0.8,0.3c-0.2-0.7-0.5-1.4-0.8-2h-1.1
			c-0.5,0.7-1.1,1.4-1.7,2.1c-0.2,0.2-0.3,0.3-0.4,0.3c-0.1,0-0.2-0.1-0.4-0.4c-0.3-0.4-0.6-0.7-1-0.9c1.2-1,2.1-2.3,2.7-3.5
			c0.2-0.4,0.3-0.7,0.4-1.2c0.7,0.1,1.3,0.2,1.9,0.4c0.2,0,0.3,0.1,0.3,0.3c0,0.1-0.1,0.2-0.2,0.3c-0.1,0.1-0.2,0.2-0.3,0.5
			l-0.2,0.5h2c1.7,0,2.2,0,2.4,0c0.2,0,0.2,0,0.2,0.2v1.3c0,0.2,0,0.2-0.2,0.2c-0.1,0-0.7,0-2.2,0c0.3,0.5,0.5,1,0.8,1.5
			c0.1,0.2,0.1,0.3-0.2,0.3l-1.5,0.3l0.5,0.3c0.2,0.1,0.3,0.2,0.3,0.3c0,0.1,0,0.2-0.2,0.3c-0.1,0.1-0.3,0.3-0.5,0.7
			c-0.2,0.4-0.5,0.8-0.8,1.2v7.3c0,1.5,0,2.3,0,2.4c0,0.2,0,0.2-0.2,0.2h-1.6c-0.2,0-0.2,0-0.2-0.2c0-0.1,0-0.8,0-2.4V262.8z
			 M558.1,259.3c-1.9,0-2.6,0-2.7,0c-0.2,0-0.2,0-0.2-0.2v-1.5c0-0.2,0-0.2,0.2-0.2c0.1,0,0.8,0,2.7,0h4.4c0-0.9,0-1.5-0.2-2.3
			c0.8,0,1.4,0.1,2.1,0.2c0.2,0,0.3,0.1,0.3,0.2c0,0.2-0.1,0.3-0.1,0.4c-0.1,0.2-0.1,0.6-0.1,1.5c1.9,0,2.6,0,2.7,0
			c0.2,0,0.2,0,0.2,0.2v1.5c0,0.2,0,0.2-0.2,0.2c-0.1,0-0.8,0-2.7,0v2.5c0,1.4,0.1,2.4,0.1,3.6c0,0.9-0.1,1.5-0.7,1.9
			c-0.6,0.3-1.3,0.5-3,0.5c-0.6,0-0.6,0-0.8-0.6c-0.1-0.6-0.4-1.2-0.6-1.6c0.8,0.1,1.3,0.1,2,0.1c0.9,0,1-0.1,1-0.6v-5.7H558.1z
			 M557.5,260.2c0.1-0.1,0.2-0.1,0.2-0.1c0.1,0,0.1,0,0.2,0.1c0.9,0.9,1.6,1.7,2.4,2.9c0.1,0.2,0.1,0.2-0.1,0.4l-1.1,0.8
			c-0.1,0.1-0.2,0.1-0.3,0.1c-0.1,0-0.1,0-0.2-0.1c-0.7-1.1-1.4-2.1-2.3-3c-0.2-0.2-0.1-0.2,0.1-0.4L557.5,260.2z M560.7,253.1
			c-0.4,0.7-0.8,1.3-1.4,1.9c-0.2,0.2-0.3,0.3-0.4,0.3c-0.1,0-0.2-0.1-0.4-0.4c-0.3-0.4-0.7-0.7-1-0.9c1.1-1.1,1.9-2.3,2.4-3.5
			c0.1-0.3,0.2-0.7,0.3-1.1c0.6,0.1,1.4,0.2,1.8,0.3c0.2,0.1,0.3,0.1,0.3,0.3c0,0.1-0.1,0.2-0.2,0.3c-0.1,0.1-0.2,0.2-0.3,0.6
			c-0.1,0.1-0.1,0.3-0.2,0.4h2.9c1.9,0,2.5,0,2.7,0c0.2,0,0.2,0,0.2,0.2v1.3c0,0.2,0,0.2-0.2,0.2c-0.1,0-0.8,0-2.7,0H564
			c0.3,0.4,0.5,0.8,0.7,1.3c0.1,0.2,0,0.3-0.2,0.3l-1.3,0.2c-0.3,0-0.3,0.1-0.4-0.2c-0.2-0.6-0.5-1.1-0.8-1.7H560.7z"/>
		<path fill="#66CC66" d="M553.1,279.1c-0.1,0.5-0.3,1-0.4,1.6h1.6c0.7,0,1.2,0,1.4,0c0.2,0,0.2,0,0.2,0.3c-0.1,0.4-0.1,0.9-0.1,1.3
			c-0.2,2.5-0.4,3.8-0.8,4.7c-0.3,0.6-0.8,0.9-1.8,0.9c-0.3,0-0.6,0-0.9,0c-0.5,0-0.5-0.1-0.6-0.6c-0.1-0.6-0.2-1.1-0.4-1.4
			c0.6,0.1,1,0.2,1.4,0.2c0.4,0,0.6-0.1,0.8-0.4c0.3-0.6,0.4-1.6,0.4-3.1h-1.8c-0.1,0.3-0.2,0.5-0.3,0.7c-0.1,0.2-0.1,0.2-0.4,0.2
			l-1.3-0.2c-0.2,0-0.3-0.1-0.2-0.3c0.5-1.2,0.9-2.5,1.2-3.7c-1.1,0-1.5,0-1.6,0c-0.2,0-0.2,0-0.2-0.2v-1.4c0-0.2,0-0.2,0.2-0.2
			c0.1,0,0.6,0,2.1,0h2.6c1.5,0,2,0,2.1,0c0.2,0,0.2,0,0.2,0.2v1.4c0,0.2,0,0.2-0.2,0.2c-0.1,0-0.6,0-2.1,0H553.1z M553.9,270.4
			c1.3,0,1.7,0,1.8,0c0.2,0,0.2,0,0.2,0.2c0,0.1,0,0.6,0,1.6v2c0,1.1,0,1.5,0,1.6c0,0.2,0,0.2-0.2,0.2c-0.1,0-0.5,0-1.8,0h-1.8
			c-1.2,0-1.6,0-1.8,0c-0.2,0-0.2,0-0.2-0.2c0-0.1,0-0.5,0-1.6v-2c0-1,0-1.5,0-1.6c0-0.2,0-0.2,0.2-0.2c0.1,0,0.5,0,1.8,0H553.9z
			 M554.1,272H552v2.2h2.2V272z M560.7,278.4c-1.1,0.1-1.5,0.1-1.7,0.2c0,1.4-0.1,2.6-0.2,3.9c-0.2,1.7-0.7,3.4-1.6,4.9
			c-0.1,0.2-0.2,0.3-0.4,0.3c-0.1,0-0.2-0.1-0.4-0.3c-0.4-0.4-0.7-0.7-1.1-0.9c1.1-1.3,1.5-2.8,1.7-4.5c0.2-1.4,0.2-3.1,0.2-5.3
			c0-1.9,0-2.8,0-2.9c0-0.2,0-0.2,0.2-0.2c0.1,0,0.9,0,2.5,0h0.8v-2.3c0-0.6,0-1.1-0.1-1.6c0.8,0,1.2,0.1,2,0.1
			c0.2,0,0.3,0.1,0.3,0.2c0,0.1-0.1,0.2-0.1,0.3c-0.1,0.1-0.1,0.3-0.1,0.7h1.7c1.3,0,1.7,0,1.8,0c0.2,0,0.2,0,0.2,0.2v1.2
			c0,0.2,0,0.2-0.2,0.2c-0.1,0-0.5,0-1.8,0h-1.7v1h3c0.2,0,0.3,0,0.4-0.1c0.1,0,0.2-0.1,0.3-0.1c0.2,0,0.3,0.1,0.8,0.4
			c0.5,0.3,0.6,0.5,0.6,0.6c0,0.2-0.1,0.3-0.2,0.4c-0.1,0.1-0.1,0.2-0.3,0.5c-0.2,0.4-0.4,1-0.9,1.7c-0.1,0.2-0.2,0.3-0.3,0.3
			c-0.1,0-0.2-0.1-0.4-0.2c-0.4-0.2-0.7-0.3-1-0.4l0.1,1.3c0,0.2-0.1,0.2-0.2,0.2c-0.2,0-0.5,0-1.7,0.1l-0.6,0.1v0.2
			c0,0.4,0.1,0.5,0.2,0.6c0.2,0.1,0.6,0.1,1.2,0.1c0.8,0,1.1,0,1.3-0.2c0.2-0.2,0.3-0.5,0.4-1.3c0.3,0.2,0.8,0.4,1.2,0.5
			c0.5,0.1,0.5,0.1,0.4,0.6c-0.1,0.8-0.3,1.2-0.7,1.5c-0.4,0.3-1.2,0.5-2.6,0.5c-1.2,0-2.1-0.1-2.5-0.3c-0.4-0.2-0.6-0.6-0.6-1.5
			V278.4z M560.2,282.9c0-0.5,0-1-0.1-1.6c0.6,0,1.3,0.1,1.8,0.2c0.2,0,0.3,0.1,0.3,0.3c0,0.1-0.1,0.3-0.1,0.4
			c-0.1,0.2-0.1,0.6-0.1,1c-0.1,2.2-0.8,3.6-2.6,4.6c-0.2,0.1-0.3,0.2-0.4,0.2c-0.1,0-0.2-0.1-0.4-0.3c-0.3-0.5-0.7-0.8-1-1
			C559.5,285.7,560.1,284.9,560.2,282.9z M560.7,276.7c0-0.5,0-1-0.1-1.3c0.5,0,1.3,0.1,1.7,0.1c0.2,0,0.3,0.1,0.3,0.2
			c0,0.1,0,0.1-0.1,0.2c-0.1,0.1-0.1,0.3-0.1,0.8v0l0.5-0.1c1.1-0.1,1.5-0.2,1.8-0.2c0.4-0.5,0.6-1,0.8-1.4H559v2l1.7-0.2V276.7z
			 M564.9,285.3c0,0.4,0,0.5,0.1,0.6c0.1,0.1,0.2,0.1,0.4,0.1s0.4-0.1,0.6-0.3c0.2-0.3,0.2-0.7,0.2-2c0.3,0.2,0.8,0.3,1.2,0.5
			c0.4,0.1,0.4,0.2,0.4,0.6c-0.1,1.4-0.3,1.9-0.5,2.3c-0.3,0.4-0.7,0.6-2,0.6c-0.9,0-1.4,0-1.8-0.3c-0.3-0.2-0.5-0.6-0.5-1.4v-2.4
			c0-0.9,0-1.5-0.1-2.2c0.5,0,1.4,0.1,1.8,0.1c0.2,0,0.3,0.1,0.3,0.2c0,0.2-0.1,0.2-0.1,0.4c-0.1,0.2-0.1,0.4-0.1,1.1V285.3z"/>
	</g>
</g>
<g id="ruler_5th-tone">
	<g id="v2_1_">
		<g>
			<g>
				<line fill="none" stroke="#FF3399" stroke-width="5" stroke-miterlimit="10" x1="625" y1="128" x2="625" y2="160"/>
				<g>
					<rect x="609.5" y="126" fill="#FF3399" width="32" height="5"/>
				</g>
				<g>
					<rect x="609.5" y="158" fill="#FF3399" width="32" height="5"/>
				</g>
			</g>
		</g>
		<g>
			<path d="M603.7,151.2v-1.3l1.7-1.6c4-3.8,5.8-5.8,5.8-8.2c0-1.6-0.8-3-3.1-3c-1.4,0-2.6,0.7-3.3,1.3l-0.7-1.5
				c1.1-0.9,2.6-1.6,4.4-1.6c3.4,0,4.8,2.3,4.8,4.5c0,2.9-2.1,5.2-5.4,8.4l-1.2,1.2v0h7v1.8H603.7z"/>
		</g>
	</g>
	<g id="v3">
		<g>
			<g>
				<line fill="none" stroke="#FF3399" stroke-width="5" stroke-miterlimit="10" x1="625" y1="80" x2="625" y2="128"/>
				<g>
					<rect x="609.5" y="78" fill="#FF3399" width="32" height="5"/>
				</g>
				<g>
					<rect x="609.5" y="126" fill="#FF3399" width="32" height="5"/>
				</g>
			</g>
		</g>
		<g>
			<path d="M604.2,108.8c0.6,0.4,2,1,3.5,1c2.7,0,3.6-1.7,3.5-3c0-2.2-2-3.1-4-3.1H606v-1.6h1.2c1.5,0,3.5-0.8,3.5-2.6
				c0-1.2-0.8-2.4-2.7-2.4c-1.2,0-2.4,0.6-3.1,1l-0.6-1.5c0.8-0.6,2.4-1.2,4.1-1.2c3.1,0,4.5,1.8,4.5,3.7c0,1.6-1,3-2.9,3.7v0
				c1.9,0.4,3.5,1.8,3.5,4c0,2.5-1.9,4.7-5.7,4.7c-1.8,0-3.3-0.6-4.1-1.1L604.2,108.8z"/>
		</g>
	</g>
	<g>
		<path fill="#FF3399" d="M582.2,86.9c1.5,0,2.1,0,2.2,0c0.2,0,0.2,0,0.2,0.2v1.3c0,0.2,0,0.2-0.2,0.2c-0.1,0-0.6,0-2.2,0H582v1.3
			h0.2c1.4,0,1.8,0,1.9,0c0.2,0,0.2,0,0.2,0.2c0,0.1,0,0.7,0,1.9v3c0,1.2,0,1.8,0,1.9c0,0.2,0,0.2-0.2,0.2c-0.1,0-0.6,0-1.9,0H582
			v1.4h0.2c1.5,0,2.1,0,2.2,0c0.2,0,0.2,0,0.2,0.2v1.2c0,0.2,0,0.2-0.2,0.2c-0.1,0-0.6,0-2.2,0H582c0,1.9,0,2.9,0,3
			c0,0.2,0,0.2-0.2,0.2h-1.4c-0.2,0-0.2,0-0.2-0.2c0-0.1,0-1.2,0-3h-0.7c-1.5,0-2.1,0-2.2,0c-0.2,0-0.2,0-0.2-0.2v-1.2
			c0-0.2,0-0.2,0.2-0.2c0.1,0,0.6,0,2.2,0h0.7v-1.4h-0.3c-1.4,0-1.8,0-1.9,0c-0.2,0-0.2,0-0.2-0.2c0-0.1,0-0.7,0-1.9v-3
			c0-1.2,0-1.7,0-1.9c0-0.2,0-0.2,0.2-0.2c0.1,0,0.6,0,1.9,0h0.3v-1.3h-0.6c-1.5,0-2,0-2.2,0c-0.2,0-0.2,0-0.2-0.2v-1.3
			c0-0.2,0-0.2,0.2-0.2c0.1,0,0.6,0,2.2,0h0.6c0-0.8,0-1.4-0.1-2.1c0.8,0,1.3,0.1,1.8,0.1c0.2,0,0.3,0.1,0.3,0.2
			c0,0.1,0,0.2-0.1,0.4S582,86,582,86.9v0.1H582.2z M580.3,92.7v-1.6h-1v1.6H580.3z M580.3,95.6V94h-1v1.6H580.3z M581.8,91.2v1.6h1
			v-1.6H581.8z M582.8,94h-1v1.6h1V94z M587,102.5c-1.7,0-2.3,0-2.3,0c-0.2,0-0.2,0-0.2-0.2v-1.5c0-0.2,0-0.2,0.2-0.2
			c0.1,0,0.7,0,2.3,0h2V98h-1.3c-1.6,0-2.1,0-2.2,0c-0.2,0-0.2,0-0.2-0.2v-1.5c0-0.2,0-0.2,0.2-0.2c0.1,0,0.6,0,2.2,0h4.8
			c1.6,0,2.1,0,2.2,0c0.2,0,0.2,0,0.2,0.2v1.5c0,0.2,0,0.2-0.2,0.2c-0.1,0-0.6,0-2.2,0h-1.5v2.7h2.1c1.7,0,2.2,0,2.3,0
			c0.2,0,0.2,0,0.2,0.2v1.5c0,0.2,0,0.2-0.2,0.2c-0.1,0-0.6,0-2.3,0H587z M586.9,95.8c-0.2,0.1-0.3,0.1-0.3-0.1
			c-0.5-1.3-1-2.4-1.7-3.4c-0.1-0.2-0.2-0.3-0.2-0.4c0-0.1,0.1-0.2,0.2-0.4c0.6-0.8,1.1-1.6,1.4-2.4c0.1-0.3,0.3-0.6,0.3-1
			c0.7,0.2,1.1,0.4,1.5,0.5c0.2,0.1,0.4,0.2,0.4,0.3c0,0.2-0.1,0.2-0.3,0.3c-0.1,0.1-0.2,0.4-0.4,0.6c-0.3,0.6-0.7,1.2-1.3,1.9
			c0.5,0.8,1.2,1.9,1.7,3.1c0.1,0.2,0.1,0.3-0.2,0.4L586.9,95.8z M587.6,87.6c-1.7,0-2.2,0-2.3,0c-0.2,0-0.2,0-0.2-0.2v-1.5
			c0-0.2,0-0.2,0.2-0.2c0.1,0,0.7,0,2.3,0h5.2c1.7,0,2.3,0,2.4,0c0.2,0,0.2,0,0.2,0.2v1.5c0,0.2,0,0.2-0.2,0.2c-0.1,0-0.7,0-2.4,0
			H587.6z M590.4,95.7c-0.2,0.1-0.3,0.1-0.4-0.1c-0.6-1.3-1.3-2.5-1.9-3.3c-0.1-0.2-0.2-0.3-0.2-0.4c0-0.1,0.1-0.3,0.2-0.5
			c0.6-0.8,0.9-1.4,1.4-2.3c0.1-0.3,0.3-0.6,0.3-1.1c0.6,0.2,1.1,0.4,1.5,0.5c0.2,0.1,0.4,0.2,0.4,0.3c0,0.1-0.1,0.2-0.2,0.3
			c-0.2,0.1-0.3,0.3-0.5,0.7c-0.3,0.6-0.7,1.2-1.3,2c0.8,0.9,1.2,1.8,1.9,3c0.1,0.2,0.1,0.2-0.1,0.3L590.4,95.7z M593.9,95.7
			c-0.2,0.1-0.2,0.1-0.3-0.1c-0.6-1.3-1.4-2.5-2-3.4c-0.1-0.2-0.2-0.3-0.2-0.4c0-0.1,0.1-0.2,0.2-0.4c0.5-0.8,0.9-1.5,1.3-2.4
			c0.1-0.3,0.3-0.6,0.4-1.1c0.6,0.2,1.1,0.4,1.5,0.6c0.2,0.1,0.3,0.2,0.3,0.3c0,0.1-0.1,0.2-0.2,0.3c-0.2,0.2-0.2,0.3-0.4,0.6
			c-0.3,0.6-0.7,1.2-1.2,2c0.7,0.8,1.4,1.7,2,3c0.1,0.2,0,0.3-0.2,0.4L593.9,95.7z"/>
		<path fill="#FF3399" d="M591.9,120.2c1.2-0.1,2.4-0.2,3.5-0.3c-0.1,0.2-0.1,0.5-0.1,0.8c-0.1,0.6-0.1,0.7-0.7,0.7l-2.7,0.2
			c0,0.9,0,1.3,0,1.4c0,0.2,0,0.2-0.2,0.2h-1.6c-0.2,0-0.2,0-0.2-0.2c0-0.1,0-0.5,0-1.3l-3.9,0.2c-2.6,0.1-4.8,0.2-7.3,0.3
			c-0.3,0-0.6,0-0.8,0.1c-0.1,0.1-0.2,0.1-0.3,0.1c-0.1,0-0.2-0.1-0.2-0.3c-0.1-0.5-0.3-1-0.4-1.6c0.4,0,0.9,0.1,1.6,0.1
			c0.5,0,1.3,0,2,0v-4.2h0c-1.8,0-2.4,0-2.5,0c-0.2,0-0.2,0-0.2-0.2v-1c0-0.2,0-0.2,0.1-0.2l-0.1-0.1c-0.3-0.3-0.6-0.5-0.9-0.6
			c1-0.9,1.4-1.8,1.4-3.5c0-0.4,0-0.8,0-0.9c0-0.2,0-0.2,0.2-0.2c0.1,0,0.7,0,2.2,0h2.8c1.6,0,2.1,0,2.2,0c0.2,0,0.2,0,0.2,0.2
			c0,0.1,0,0.3,0,0.9v1c0,0.7,0,0.8,0,1c0,0.2,0,0.2-0.2,0.2c-0.1,0-0.6,0-2.2,0H580c-0.2,0.7-0.5,1.3-1.1,2c0.4,0,1,0,1.8,0h11.5
			c1.8,0,2.4,0,2.5,0c0.2,0,0.2,0,0.2,0.2v1c0,0.2,0,0.2-0.2,0.2c-0.1,0-0.7,0-2.5,0h-0.3V120.2z M581.4,107.9v-0.6h-1.2
			c-1.7,0-2.3,0-2.4,0c-0.2,0-0.2,0-0.2-0.2v-1c0-0.2,0-0.2,0.2-0.2c0.1,0,0.7,0,2.4,0h1.2c0-0.4,0-0.7-0.1-1.1
			c0.7,0,1.2,0.1,1.8,0.1c0.2,0,0.3,0.1,0.3,0.2c0,0.1,0,0.1-0.1,0.2c-0.1,0.1-0.1,0.3-0.1,0.6h0.9c1.7,0,2.3,0,2.4,0
			c0.2,0,0.2,0,0.2,0.2v1c0,0.2,0,0.2-0.2,0.2c-0.1,0-0.7,0-2.4,0h-0.9v0.6h0.6c1.6,0,2.1,0,2.2,0c0.2,0,0.2,0,0.2,0.2v0
			c1.1-0.4,1.5-0.9,1.5-1.9c0-0.4,0-0.6,0-0.7c0-0.2,0-0.2,0.2-0.2c0.1,0,0.4,0,1.5,0h1.7c1.1,0,1.4,0,1.5,0c0.2,0,0.2,0,0.2,0.2
			c0,0.1,0,0.4,0,1v0.6c0,0.1,0,0.2,0.1,0.3c0.1,0.1,0.2,0.1,0.5,0.1c0.3,0,0.4,0,0.5-0.1c0.1-0.1,0.1-0.3,0.2-1.1
			c0.2,0.2,0.6,0.3,1.1,0.5c0.4,0.1,0.4,0.2,0.3,0.6c-0.1,0.9-0.3,1.1-0.6,1.3c-0.3,0.2-0.8,0.3-1.7,0.3c-0.7,0-1.2,0-1.5-0.1
			c-0.4-0.2-0.6-0.5-0.6-1v-0.9h-1.8c0,1.2-0.6,2-1.7,2.5c-0.1,0.1-0.3,0.1-0.3,0.1c-0.1,0-0.3-0.1-0.4-0.4
			c-0.2-0.3-0.4-0.5-0.7-0.7v0.7c0,0.2,0,0.2-0.2,0.2c-0.1,0-0.6,0-2.2,0h-2.9c-1.6,0-2.1,0-2.2,0c-0.2,0-0.2,0-0.2-0.2v-0.9
			c0-0.2,0-0.2,0.2-0.2c0.1,0,0.6,0,2.2,0H581.4z M580.2,111.2c0,0.2,0,0.4,0,0.6h1.4V111h-1.4V111.2z M590,117.1v-0.6h-7.2v0.6H590
			z M590,118.8v-0.7h-7.2v0.7H590z M590,119.8h-7.2v0.8c2.5-0.1,4.9-0.1,7.2-0.3V119.8z M584.5,111h-1.4v0.9h1.4V111z M592.6,109.4
			c0.2,0,0.3,0,0.4-0.1c0.1,0,0.1-0.1,0.3-0.1s0.2,0,0.7,0.4c0.5,0.4,0.6,0.5,0.6,0.7s-0.1,0.2-0.2,0.3c-0.2,0.1-0.4,0.3-0.6,0.6
			c-0.4,0.5-0.9,1-1.4,1.4c1,0.3,2.2,0.6,3.5,0.7c-0.2,0.3-0.4,0.6-0.5,1c-0.2,0.6-0.2,0.7-0.8,0.6c-1.5-0.2-2.7-0.6-3.8-1.1
			c-1,0.5-2.2,0.9-3.6,1.2c-0.5,0.1-0.5,0.1-0.8-0.4c-0.2-0.5-0.4-0.8-0.7-1.1c1.3-0.2,2.4-0.4,3.4-0.8c-0.7-0.5-1.2-1.2-1.6-1.9
			c-0.3,0-0.5,0-0.5,0c-0.2,0-0.2,0-0.2-0.2v-1.1c0-0.2,0-0.2,0.2-0.2c0.1,0,0.6,0,2.2,0H592.6z M589.2,110.8
			c0.4,0.4,0.9,0.8,1.4,1.1c0.5-0.3,1-0.7,1.4-1.1H589.2z"/>
	</g>
	<g>
	</g>
	<g>
	</g>
	<g>
	</g>
	<g>
	</g>
	<g>
	</g>
	<g>
	</g>
	<g>
	</g>
	<g>
	</g>
	<g>
	</g>
	<g>
	</g>
	<g>
	</g>
	<g>
	</g>
	<g>
	</g>
	<g>
	</g>
	<g>
	</g>
	<g>
	</g>
</g>
</svg>
