<?xml version="1.0" encoding="utf-8"?>
<!-- Generator: Adobe Illustrator 18.1.0, SVG Export Plug-In . SVG Version: 6.00 Build 0)  -->
<svg version="1.1" xmlns="http://www.w3.org/2000/svg" xmlns:xlink="http://www.w3.org/1999/xlink" x="0px" y="0px"
	 viewBox="0 0 760 640" enable-background="new 0 0 760 640" xml:space="preserve">
<g id="ruler_under">
	<g id="h_45">
		<g>
			<g>
				<line fill="none" stroke="#999999" stroke-width="2" stroke-miterlimit="10" x1="20.5" y1="601" x2="360.5" y2="601"/>
				<line fill="none" stroke="#999999" stroke-width="2" stroke-miterlimit="10" x1="400.5" y1="601" x2="740.5" y2="601"/>
				<g>
					<rect x="19.5" y="593" fill="#999999" width="2" height="16"/>
				</g>
				<g>
					<rect x="739.5" y="593" fill="#999999" width="2" height="16"/>
				</g>
			</g>
		</g>
		<g>
			<path d="M375.2,610v-4.2h-7.2v-1.4l7-10h2.3v9.7h2.2v1.7h-2.2v4.2H375.2z M375.2,604.1v-5.2c0-0.8,0-1.6,0.1-2.4h-0.1
				c-0.5,0.9-0.9,1.6-1.3,2.3L370,604v0H375.2z"/>
			<path d="M390.2,596.2h-6l-0.6,4c0.4,0,0.7-0.1,1.3-0.1c1.2,0,2.4,0.3,3.4,0.8c1.2,0.7,2.2,2,2.2,4c0,3-2.4,5.3-5.8,5.3
				c-1.7,0-3.1-0.5-3.9-1l0.5-1.6c0.6,0.4,1.9,0.9,3.3,0.9c2,0,3.7-1.3,3.7-3.4c0-2-1.4-3.5-4.5-3.5c-0.9,0-1.6,0.1-2.2,0.2l1-7.5
				h7.5V596.2z"/>
		</g>
	</g>
	<g id="h_30_1_">
		<g>
			<g>
				<line fill="none" stroke="#999999" stroke-width="2" stroke-miterlimit="10" x1="20.5" y1="578" x2="240.5" y2="578"/>
				<line fill="none" stroke="#999999" stroke-width="2" stroke-miterlimit="10" x1="280.5" y1="578" x2="500.5" y2="578"/>
				<g>
					<rect x="19.5" y="570" fill="#999999" width="2" height="16"/>
				</g>
				<g>
					<rect x="499.5" y="570" fill="#999999" width="2" height="16"/>
				</g>
			</g>
		</g>
		<g>
			<path d="M249.1,584.6c0.6,0.4,2,1,3.5,1c2.7,0,3.6-1.7,3.5-3c0-2.2-2-3.1-4-3.1h-1.2v-1.6h1.2c1.5,0,3.5-0.8,3.5-2.6
				c0-1.2-0.8-2.4-2.7-2.4c-1.2,0-2.4,0.6-3.1,1l-0.6-1.5c0.8-0.6,2.4-1.2,4.1-1.2c3.1,0,4.5,1.8,4.5,3.7c0,1.6-1,3-2.9,3.7v0
				c1.9,0.4,3.5,1.8,3.5,4c0,2.5-1.9,4.7-5.7,4.7c-1.8,0-3.3-0.6-4.1-1.1L249.1,584.6z"/>
			<path d="M271.3,579c0,5.3-2,8.2-5.4,8.2c-3,0-5.1-2.9-5.2-8c0-5.2,2.3-8.1,5.4-8.1C269.4,571.1,271.3,574.1,271.3,579z
				 M262.8,579.3c0,4.1,1.2,6.4,3.2,6.4c2.2,0,3.2-2.5,3.2-6.5c0-3.8-1-6.4-3.2-6.4C264.2,572.8,262.8,575,262.8,579.3z"/>
		</g>
	</g>
	<g id="h_15">
		<g>
			<g>
				<line fill="none" stroke="#999999" stroke-width="2" stroke-miterlimit="10" x1="500.5" y1="578" x2="600.5" y2="578"/>
				<line fill="none" stroke="#999999" stroke-width="2" stroke-miterlimit="10" x1="640.5" y1="578" x2="740.5" y2="578"/>
				<g>
					<rect x="499.5" y="570" fill="#999999" width="2" height="16"/>
				</g>
				<g>
					<rect x="739.5" y="570" fill="#999999" width="2" height="16"/>
				</g>
			</g>
		</g>
		<g>
			<path d="M613.2,573.4L613.2,573.4l-2.8,1.5l-0.4-1.6l3.4-1.8h1.8V587h-2V573.4z"/>
			<path d="M630.2,573.2h-6l-0.6,4c0.4,0,0.7-0.1,1.3-0.1c1.2,0,2.4,0.3,3.4,0.8c1.2,0.7,2.2,2,2.2,4c0,3-2.4,5.3-5.8,5.3
				c-1.7,0-3.1-0.5-3.9-1l0.5-1.6c0.6,0.4,1.9,0.9,3.3,0.9c2,0,3.7-1.3,3.7-3.4c0-2-1.4-3.5-4.5-3.5c-0.9,0-1.6,0.1-2.2,0.2l1-7.5
				h7.5V573.2z"/>
		</g>
	</g>
</g>
<g id="ruler_above">
	<g id="h5">
		<g>
			<g>
				<line fill="none" stroke="#999999" stroke-width="2" stroke-miterlimit="10" x1="660.5" y1="58" x2="690.5" y2="58"/>
				<line fill="none" stroke="#999999" stroke-width="2" stroke-miterlimit="10" x1="710.5" y1="58" x2="740.5" y2="58"/>
				<g>
					<rect x="659.5" y="50" fill="#999999" width="2" height="16"/>
				</g>
				<g>
					<rect x="739.5" y="50" fill="#999999" width="2" height="16"/>
				</g>
			</g>
		</g>
		<g>
			<rect x="694.5" y="46.5" fill="none" width="13.9" height="30.4"/>
			<path d="M704.9,52.8h-6l-0.6,4c0.4,0,0.7-0.1,1.3-0.1c1.2,0,2.4,0.3,3.4,0.8c1.2,0.7,2.2,2,2.2,4c0,3-2.4,5.3-5.8,5.3
				c-1.7,0-3.1-0.5-3.9-1l0.5-1.6c0.6,0.4,1.9,0.9,3.3,0.9c2,0,3.7-1.3,3.7-3.4c0-2-1.4-3.5-4.5-3.5c-0.9,0-1.6,0.1-2.2,0.2l1-7.5
				h7.5V52.8z"/>
		</g>
		<g>
		</g>
	</g>
	<g id="h9">
		<g>
			<g>
				<line fill="none" stroke="#999999" stroke-width="2" stroke-miterlimit="10" x1="516.5" y1="58" x2="578.5" y2="58"/>
				<line fill="none" stroke="#999999" stroke-width="2" stroke-miterlimit="10" x1="598.5" y1="58" x2="660.5" y2="58"/>
				<g>
					<rect x="515.5" y="50" fill="#999999" width="2" height="16"/>
				</g>
				<g>
					<rect x="659.5" y="50" fill="#999999" width="2" height="16"/>
				</g>
			</g>
		</g>
		<g>
			<path d="M583.8,65.5c0.5,0,1,0,1.7-0.1c1.2-0.2,2.4-0.7,3.3-1.5c1-0.9,1.8-2.3,2.1-4.2h-0.1c-0.9,1.1-2.1,1.7-3.7,1.7
				c-2.8,0-4.6-2.1-4.6-4.8c0-3,2.1-5.5,5.3-5.5s5.2,2.6,5.2,6.6c0,3.4-1.2,5.8-2.7,7.3c-1.2,1.2-2.9,1.9-4.5,2.1
				c-0.8,0.1-1.4,0.1-1.9,0.1V65.5z M584.6,56.5c0,1.9,1.2,3.3,3,3.3c1.4,0,2.5-0.7,3.1-1.6c0.1-0.2,0.2-0.4,0.2-0.8
				c0-2.7-1-4.7-3.2-4.7C585.9,52.7,584.6,54.3,584.6,56.5z"/>
		</g>
	</g>
</g>
<g id="grid">
	<g>
		<g id="yin_2_">
			<rect x="516.5" y="177.1" fill="#EEEEEE" width="144" height="144"/>
			<line fill="none" stroke="#999999" stroke-width="2" stroke-miterlimit="10" x1="516.5" y1="321" x2="660.5" y2="321"/>
			<line fill="none" stroke="#999999" stroke-width="2" stroke-miterlimit="10" x1="516.5" y1="177" x2="660.5" y2="177"/>
		</g>
		<g id="yin_1_">
			<rect x="516.5" y="352.1" fill="#EEEEEE" width="144" height="144"/>
			<line fill="none" stroke="#999999" stroke-width="2" stroke-miterlimit="10" x1="516.5" y1="496" x2="660.5" y2="496"/>
			<line fill="none" stroke="#999999" stroke-width="2" stroke-miterlimit="10" x1="516.5" y1="352" x2="660.5" y2="352"/>
		</g>
		<g id="_x34_-tone_1_">
			<rect x="660.5" y="321.1" fill="#EEEEEE" width="80" height="80"/>
			<line fill="none" stroke="#999999" stroke-width="2" stroke-miterlimit="10" x1="660.5" y1="321" x2="740.5" y2="321"/>
			<line fill="none" stroke="#999999" stroke-width="2" stroke-miterlimit="10" x1="660.5" y1="401" x2="740.5" y2="401"/>
		</g>
		<g id="_x35_th_tone_1_">
			<rect x="516.5" y="128" fill="#EEEEEE" width="144" height="32"/>
			<line fill="none" stroke="#999999" stroke-width="2" stroke-miterlimit="10" x1="516.5" y1="128" x2="660.5" y2="128"/>
			<line fill="none" stroke="#999999" stroke-width="2" stroke-miterlimit="10" x1="516.5" y1="160" x2="660.5" y2="160"/>
		</g>
		<g id="inner_1_">
			<line fill="none" stroke="#CCCCCC" stroke-miterlimit="10" x1="180" y1="560" x2="180" y2="80"/>
			<line fill="none" stroke="#CCCCCC" stroke-miterlimit="10" x1="341" y1="560" x2="341" y2="80"/>
			<line fill="none" stroke="#CCCCCC" stroke-miterlimit="10" x1="20.5" y1="239.5" x2="500.5" y2="239.5"/>
			<line fill="none" stroke="#CCCCCC" stroke-miterlimit="10" x1="20.5" y1="400.5" x2="500.5" y2="400.5"/>
		</g>
		<g id="outer_1_">
			
				<rect id="zhuyin_1_" x="20.5" y="80.1" fill="none" stroke="#999999" stroke-width="2" stroke-miterlimit="10" width="720" height="480"/>
			
				<rect id="char_1_" x="20.5" y="80.1" fill="none" stroke="#999999" stroke-width="2" stroke-miterlimit="10" width="480" height="480"/>
			<line fill="none" stroke="#999999" stroke-width="2" stroke-miterlimit="10" x1="660.5" y1="560" x2="660.5" y2="80"/>
			<line fill="none" stroke="#999999" stroke-width="2" stroke-miterlimit="10" x1="516.5" y1="560" x2="516.5" y2="80"/>
		</g>
	</g>
</g>
<g id="character">
	<g>
		<path d="M546.6,207.8c3.1,0,7.7-0.6,13.9-1.7c12.5-2.7,27.3-4.9,44-7c12.7-1.7,19.8-3.1,21.4-4.4c0.8-0.3,2.1-0.4,3.9-0.4
			c1.5,0,3.1,0.6,4.9,1.8c3.8,2.8,5.8,5.2,5.8,7.3c0,1-0.7,1.5-2.2,1.5c-0.1,0-1.7-0.1-4.5-0.3c-2.4-0.4-3.7-0.7-3.9-0.7
			c-6.5,0-17.2,1-32.2,3.1c2,2.1,3,3.9,3,5.2s-0.3,2.8-0.7,4.6c-1.1,3.9-1.4,18.4-0.8,43.3c0.4,21,0.1,33.3-0.6,37
			c-0.8,2.8-2,4.2-3.5,4.2c-1.3,0-3-2.1-4.9-6.2s-3-7.5-3-9.8c0-1.3,0.4-3.7,1.3-7c0.7-2.2,1-17.2,1-44.6c0-11.4-1.1-19.7-3.2-25
			c-13.2,2.1-22.8,4.2-28.8,6.6c-3.1,1.3-5.2,2-6.2,2c-2.4,0-5.5-1.3-9.6-3.7c-3.4-2.4-5.1-4.4-5.1-5.9c0-0.7,0.6-1.1,1.7-1.1h1.7
			C542.6,207.4,544.9,207.8,546.6,207.8z"/>
	</g>
	<g>
		<path d="M596.8,413.6c17-1.8,28.1-3.7,33.2-5.5c2.5-1.3,4.1-1.7,4.5-1.5c1.1-0.1,3.5,1.3,7,4.4c2.5,2.5,3.8,4.4,3.8,5.5l0.1,0.3
			c0,1-0.6,1.4-1.8,1.4h-2.4c-1.7-0.1-3.7,0.4-5.8,0.4c-5.3-0.1-14.2,0.6-26.7,2c-19.3,2.1-36.1,3.8-50.9,4.9
			c-6.3,0.1-11,1-14.2,2.2c-2.1,0.6-3.2,0.8-3.7,0.8c-2,0-4.4-1.4-7.2-4.4s-4.2-5.5-4.4-7.6l-0.1-0.4c-0.1-1.4,0.3-2.1,1.5-2.1
			l0.1-0.1c0.1,0,1.7,0.3,2.4,0.4c3.2,1.3,9,2,17.4,2C564,416.2,579.7,415.4,596.8,413.6z"/>
	</g>
	<g>
		<path d="M209.4,277.6c0.2-3.6,0.4-8.5,0.7-14.6c0.3-6.2,0.5-14.9,0.5-26.1c-0.2-7.2-0.4-12.9-0.8-17.1c-0.4-4.2-1-8.1-1.9-11.7
			c-0.9-3.6-1.6-6.2-2.2-7.7l-2.6-5.9c-2.7,0.3-5,0.5-7,0.7c-2,0.2-5.8,0.5-11.4,1.1c-5.5,0.5-10,0.7-13.5,0.6
			c-7.3-0.2-14.6-1.3-21.7-3.4c-7.1-2.1-11.8-4.5-13.9-7.3c-2.2-2.7-2.9-4.8-2.1-6.1c0.8-1.3,3.1-2.1,7-2.5l12-0.9
			c10.5-0.8,16.5-1.2,18-1.4l28.8-2.1c12.2-0.9,25.5-2.3,40.1-4.2l53-7c14.5-1.7,24.8-3.4,30.9-4.9l15-3.5l14.1-3.5
			c3.3-0.3,6.4-0.1,9.3,0.7c2.9,0.8,6.8,2,11.6,3.6c4.8,1.6,8.8,3.3,12,4.9c3.1,1.6,4.6,3.3,4.6,5c-0.1,1.7-1.4,3.8-4,6.1
			s-8.4,4.1-17.5,5.4l-14.8,2.1c-13.8,2-22.3,3.2-25.5,3.5l-12.9,1.4l-12.9,1.6c3.8,1.7,7,3.5,9.6,5.3c2.7,1.8,4.1,3.5,4.5,5.2
			c0.3,1.6,0,3.8-0.9,6.4c-0.8,2.2-1.6,4.5-2.3,7c-0.8,2.5-1.5,5.5-2.1,9c-0.6,3.5-1.1,8.4-1.4,14.6c-0.3,6.3-0.5,9.5-0.5,9.8
			l-1.6,26c6.9-0.5,13.2-0.9,18.9-1.3c5.7-0.4,10-0.8,13-1.3c3-0.5,11.5-1.8,25.7-4.1c14.1-2.3,24.6-4.5,31.5-6.8
			c6.9-2.3,11.8-3.2,14.8-2.9c1.7,0.3,4.5,1.3,8.2,3c3.8,1.7,9,4.5,15.8,8.2s11.9,7.1,15.2,10.2c3.4,3,5.1,5.5,5.3,7.3
			c0.2,1.8-0.3,3.9-1.4,6.2l-7.5,11c-1.4,2-2.5,4.1-3.3,6.3c-0.8,2.2-1.4,5-1.9,8.4l-15.9,116c-1.1,7.7-2.6,14.3-4.6,20
			c-2,5.7-4.8,11.7-8.6,17.9s-7.2,10.6-10.3,13.1c-3.1,2.5-5.5,3.6-7,3.3c-1.7-0.2-3.3-1.1-4.7-2.7s-3.6-6-6.6-13.1
			c-3-7.1-6.3-13.6-10.1-19.6l-5.4-8.2l-47.1,1.6L204,449.7l-55.8,3.5l-0.5,8c-0.3,3.9-1.1,6.7-2.3,8.4c-1.3,1.7-2.5,2.8-3.6,3.2
			c-1.2,0.4-2.7,0.1-4.6-0.8c-2.2-0.9-4.3-3-6.4-6.2s-3.4-7.1-3.9-11.8l-14.1-118.4c-0.6-4.7-1.5-9.7-2.7-15.1s-2.7-10-4.6-13.9
			c-1.9-3.9-4.5-7.7-7.9-11.4c-3.4-3.7-5-6.4-5-8.3s0.7-3.5,2.1-4.8c1.4-1.3,3.4-2.2,5.9-2.6c2.5-0.4,5.5-0.4,8.9-0.1
			c5,0.6,9.1,1.4,12.2,2.3l11,3.5L209.4,277.6z M304.5,314c-0.5,7.5,0.2,13.8,1.9,18.8c1.7,5,4,8.6,6.8,10.9c2.8,2.3,7,3.5,12.4,3.6
			c1.4,0.2,4.1,0.1,8.1-0.1s6.7-0.4,8.1-0.6c1.4-0.2,4.2-0.7,8.3-1.8c4.1-1,7.3-1.4,9.5-1.3c1.9,0.3,4,1,6.3,2
			c2.3,1,4.8,2.5,7.3,4.5c2.5,2,4.3,4.3,5.5,7c1.2,2.7,1.4,4.9,0.8,6.4c-0.8,1.9-3.9,3.4-9.3,4.7c-5.4,1.3-11.2,1.9-17.5,1.9
			l-24.1,0.5c-6.4,0.2-13-0.7-19.7-2.7c-6.7-2-11.7-4.7-15-8.3c-3.3-3.6-5.9-7.9-8-13c-2-5.1-3.4-10.3-4-15.6
			c-0.6-5.3-0.8-11.8-0.5-19.5l0.7-26.2c-7,0.8-13.7,1.5-19.9,2.1c-6.3,0.6-13.3,1.3-21.1,2.1l-9.4,0.9c-0.8,5.8-1.6,11.3-2.5,16.6
			c-0.9,5.3-2.7,11.9-5.6,19.8c-2.9,7.9-6.4,15.1-10.4,21.6c-4.1,6.5-8.2,11.8-12.3,16.1c-4.1,4.2-8.4,8-12.8,11.2l-8.9,6.6
			c-2.3,1.7-4.1,2.2-5.2,1.5c-1.1-0.7-1.6-1.4-1.4-2.2c0.2-0.8,1.2-2.6,3.3-5.4l4.7-6.3c2-2.7,4.1-5.8,6.3-9.4
			c2.2-3.6,4.8-9.2,8-16.8c3.1-7.6,5.6-14.7,7.5-21.3c1.9-6.6,3.4-14.6,4.7-23.8l0.7-5.4c-4.2,0.6-7.3,1-9.4,1.2l-15.7,1.6L136,302
			l0.5,9.8l11.2,120.5l120.9-8.2l46.4-5.2c18.9-1.9,31.2-3.3,36.8-4.2s9.8-1.4,12.4-1.4c3.6,0.2,8,1.1,13.1,2.8
			c5.2,1.7,8.9,3.3,11.2,4.7l6.3,4l8.9-56l4.9-67c0-1.7,0.1-5,0.4-10s-0.4-8.4-2-10.4c-1.1-1.1-2.9-2.1-5.3-2.9
			c-2.4-0.9-5.8-1.3-10.1-1.4c-4.3-0.1-6.8-0.1-7.4-0.1c-3,0.2-16.4,1.2-40.3,3l-28.4,2.1l-9.4,0.9L304.5,314z M282.7,270.4
			l1.2-53.9c0-5-0.2-9.1-0.7-12.3c-0.5-3.2-1.2-7.2-2.1-12.1l-1.2-5.2c-5,0.6-11,1.3-17.9,2c-7,0.7-13.2,1.3-18.9,1.8l-15.5,1.4
			c3.6,1.7,6.2,3.3,7.7,4.8c1.6,1.5,2.5,2.9,2.8,4.3c0.3,1.4,0.1,3.6-0.7,6.6c-0.8,3-1.3,5.2-1.4,6.8c-0.2,1.6-0.3,7.7-0.5,18.3
			l-1.4,22.3l-0.5,10.1l-0.7,10.1L282.7,270.4z"/>
	</g>
	<g>
	</g>
	<g>
	</g>
	<g>
	</g>
	<g>
	</g>
	<g>
	</g>
	<g>
	</g>
	<g>
	</g>
	<g>
	</g>
	<g>
	</g>
	<g>
	</g>
	<g>
	</g>
	<g>
	</g>
	<g>
	</g>
	<g>
	</g>
	<g>
	</g>
	<g>
	</g>
</g>
</svg>
