<?xml version="1.0" encoding="utf-8"?>
<!-- Generator: Adobe Illustrator 18.1.0, SVG Export Plug-In . SVG Version: 6.00 Build 0)  -->
<svg version="1.1" xmlns="http://www.w3.org/2000/svg" xmlns:xlink="http://www.w3.org/1999/xlink" x="0px" y="0px"
	 viewBox="0 0 760 640" enable-background="new 0 0 760 640" xml:space="preserve">
<g id="ruler_under">
	<g id="h_45">
		<g>
			<g>
				<line fill="none" stroke="#999999" stroke-width="2" stroke-miterlimit="10" x1="20.5" y1="601" x2="360.5" y2="601"/>
				<line fill="none" stroke="#999999" stroke-width="2" stroke-miterlimit="10" x1="400.5" y1="601" x2="740.5" y2="601"/>
				<g>
					<rect x="19.5" y="593" fill="#999999" width="2" height="16"/>
				</g>
				<g>
					<rect x="739.5" y="593" fill="#999999" width="2" height="16"/>
				</g>
			</g>
		</g>
		<g>
			<path d="M375.2,610v-4.2h-7.2v-1.4l7-10h2.3v9.7h2.2v1.7h-2.2v4.2H375.2z M375.2,604.1v-5.2c0-0.8,0-1.6,0.1-2.4h-0.1
				c-0.5,0.9-0.9,1.6-1.3,2.3L370,604v0H375.2z"/>
			<path d="M390.2,596.2h-6l-0.6,4c0.4,0,0.7-0.1,1.3-0.1c1.2,0,2.4,0.3,3.4,0.8c1.2,0.7,2.2,2,2.2,4c0,3-2.4,5.3-5.8,5.3
				c-1.7,0-3.1-0.5-3.9-1l0.5-1.6c0.6,0.4,1.9,0.9,3.3,0.9c2,0,3.7-1.3,3.7-3.4c0-2-1.4-3.5-4.5-3.5c-0.9,0-1.6,0.1-2.2,0.2l1-7.5
				h7.5V596.2z"/>
		</g>
	</g>
	<g id="h_30_1_">
		<g>
			<g>
				<line fill="none" stroke="#999999" stroke-width="2" stroke-miterlimit="10" x1="20.5" y1="578" x2="240.5" y2="578"/>
				<line fill="none" stroke="#999999" stroke-width="2" stroke-miterlimit="10" x1="280.5" y1="578" x2="500.5" y2="578"/>
				<g>
					<rect x="19.5" y="570" fill="#999999" width="2" height="16"/>
				</g>
				<g>
					<rect x="499.5" y="570" fill="#999999" width="2" height="16"/>
				</g>
			</g>
		</g>
		<g>
			<path d="M249.1,584.6c0.6,0.4,2,1,3.5,1c2.7,0,3.6-1.7,3.5-3c0-2.2-2-3.1-4-3.1h-1.2v-1.6h1.2c1.5,0,3.5-0.8,3.5-2.6
				c0-1.2-0.8-2.4-2.7-2.4c-1.2,0-2.4,0.6-3.1,1l-0.6-1.5c0.8-0.6,2.4-1.2,4.1-1.2c3.1,0,4.5,1.8,4.5,3.7c0,1.6-1,3-2.9,3.7v0
				c1.9,0.4,3.5,1.8,3.5,4c0,2.5-1.9,4.7-5.7,4.7c-1.8,0-3.3-0.6-4.1-1.1L249.1,584.6z"/>
			<path d="M271.3,579c0,5.3-2,8.2-5.4,8.2c-3,0-5.1-2.9-5.2-8c0-5.2,2.3-8.1,5.4-8.1C269.4,571.1,271.3,574.1,271.3,579z
				 M262.8,579.3c0,4.1,1.2,6.4,3.2,6.4c2.2,0,3.2-2.5,3.2-6.5c0-3.8-1-6.4-3.2-6.4C264.2,572.8,262.8,575,262.8,579.3z"/>
		</g>
	</g>
	<g id="h_15">
		<g>
			<g>
				<line fill="none" stroke="#999999" stroke-width="2" stroke-miterlimit="10" x1="500.5" y1="578" x2="600.5" y2="578"/>
				<line fill="none" stroke="#999999" stroke-width="2" stroke-miterlimit="10" x1="640.5" y1="578" x2="740.5" y2="578"/>
				<g>
					<rect x="499.5" y="570" fill="#999999" width="2" height="16"/>
				</g>
				<g>
					<rect x="739.5" y="570" fill="#999999" width="2" height="16"/>
				</g>
			</g>
		</g>
		<g>
			<path d="M613.2,573.4L613.2,573.4l-2.8,1.5l-0.4-1.6l3.4-1.8h1.8V587h-2V573.4z"/>
			<path d="M630.2,573.2h-6l-0.6,4c0.4,0,0.7-0.1,1.3-0.1c1.2,0,2.4,0.3,3.4,0.8c1.2,0.7,2.2,2,2.2,4c0,3-2.4,5.3-5.8,5.3
				c-1.7,0-3.1-0.5-3.9-1l0.5-1.6c0.6,0.4,1.9,0.9,3.3,0.9c2,0,3.7-1.3,3.7-3.4c0-2-1.4-3.5-4.5-3.5c-0.9,0-1.6,0.1-2.2,0.2l1-7.5
				h7.5V573.2z"/>
		</g>
	</g>
</g>
<g id="ruler_above">
	<g id="h5">
		<g>
			<g>
				<line fill="none" stroke="#999999" stroke-width="2" stroke-miterlimit="10" x1="660.5" y1="58" x2="690.5" y2="58"/>
				<line fill="none" stroke="#999999" stroke-width="2" stroke-miterlimit="10" x1="710.5" y1="58" x2="740.5" y2="58"/>
				<g>
					<rect x="659.5" y="50" fill="#999999" width="2" height="16"/>
				</g>
				<g>
					<rect x="739.5" y="50" fill="#999999" width="2" height="16"/>
				</g>
			</g>
		</g>
		<g>
			<rect x="694.5" y="46.5" fill="none" width="13.9" height="30.4"/>
			<path d="M704.9,52.8h-6l-0.6,4c0.4,0,0.7-0.1,1.3-0.1c1.2,0,2.4,0.3,3.4,0.8c1.2,0.7,2.2,2,2.2,4c0,3-2.4,5.3-5.8,5.3
				c-1.7,0-3.1-0.5-3.9-1l0.5-1.6c0.6,0.4,1.9,0.9,3.3,0.9c2,0,3.7-1.3,3.7-3.4c0-2-1.4-3.5-4.5-3.5c-0.9,0-1.6,0.1-2.2,0.2l1-7.5
				h7.5V52.8z"/>
		</g>
		<g>
		</g>
	</g>
	<g id="h9">
		<g>
			<g>
				<line fill="none" stroke="#999999" stroke-width="2" stroke-miterlimit="10" x1="516.5" y1="58" x2="578.5" y2="58"/>
				<line fill="none" stroke="#999999" stroke-width="2" stroke-miterlimit="10" x1="598.5" y1="58" x2="660.5" y2="58"/>
				<g>
					<rect x="515.5" y="50" fill="#999999" width="2" height="16"/>
				</g>
				<g>
					<rect x="659.5" y="50" fill="#999999" width="2" height="16"/>
				</g>
			</g>
		</g>
		<g>
			<path d="M583.8,65.5c0.5,0,1,0,1.7-0.1c1.2-0.2,2.4-0.7,3.3-1.5c1-0.9,1.8-2.3,2.1-4.2h-0.1c-0.9,1.1-2.1,1.7-3.7,1.7
				c-2.8,0-4.6-2.1-4.6-4.8c0-3,2.1-5.5,5.3-5.5s5.2,2.6,5.2,6.6c0,3.4-1.2,5.8-2.7,7.3c-1.2,1.2-2.9,1.9-4.5,2.1
				c-0.8,0.1-1.4,0.1-1.9,0.1V65.5z M584.6,56.5c0,1.9,1.2,3.3,3,3.3c1.4,0,2.5-0.7,3.1-1.6c0.1-0.2,0.2-0.4,0.2-0.8
				c0-2.7-1-4.7-3.2-4.7C585.9,52.7,584.6,54.3,584.6,56.5z"/>
		</g>
	</g>
</g>
<g id="grid">
	<g>
		<g id="yin_3_">
			<rect x="516.5" y="401.1" fill="#EEEEEE" width="144" height="144"/>
			<line fill="none" stroke="#999999" stroke-width="2" stroke-miterlimit="10" x1="516.5" y1="545" x2="660.5" y2="545"/>
			<line fill="none" stroke="#999999" stroke-width="2" stroke-miterlimit="10" x1="516.5" y1="401" x2="660.5" y2="401"/>
		</g>
		<g id="yin_1_">
			<rect x="516.5" y="257.1" fill="#EEEEEE" width="144" height="144"/>
			<line fill="none" stroke="#999999" stroke-width="2" stroke-miterlimit="10" x1="516.5" y1="401" x2="660.5" y2="401"/>
			<line fill="none" stroke="#999999" stroke-width="2" stroke-miterlimit="10" x1="516.5" y1="257" x2="660.5" y2="257"/>
		</g>
		<g id="yin_2_">
			<rect x="516.5" y="113.1" fill="#EEEEEE" width="144" height="144"/>
			<line fill="none" stroke="#999999" stroke-width="2" stroke-miterlimit="10" x1="516.5" y1="257" x2="660.5" y2="257"/>
			<line fill="none" stroke="#999999" stroke-width="2" stroke-miterlimit="10" x1="516.5" y1="113" x2="660.5" y2="113"/>
		</g>
		<g id="_x34_-tone_1_">
			<rect x="660.5" y="368.1" fill="#EEEEEE" width="80" height="80"/>
			<line fill="none" stroke="#999999" stroke-width="2" stroke-miterlimit="10" x1="660.5" y1="368" x2="740.5" y2="368"/>
			<line fill="none" stroke="#999999" stroke-width="2" stroke-miterlimit="10" x1="660.5" y1="448" x2="740.5" y2="448"/>
		</g>
		<g id="_x35_th_tone_1_">
			<path fill="none" stroke="#999999" stroke-width="2" stroke-miterlimit="10" d="M660.5,128"/>
			<path fill="none" stroke="#999999" stroke-width="2" stroke-miterlimit="10" d="M516.5,128"/>
			<path fill="none" stroke="#999999" stroke-width="2" stroke-miterlimit="10" d="M660.5,160"/>
			<path fill="none" stroke="#999999" stroke-width="2" stroke-miterlimit="10" d="M516.5,160"/>
		</g>
		<g id="inner_1_">
			<line fill="none" stroke="#CCCCCC" stroke-miterlimit="10" x1="180" y1="560" x2="180" y2="80"/>
			<line fill="none" stroke="#CCCCCC" stroke-miterlimit="10" x1="341" y1="560" x2="341" y2="80"/>
			<line fill="none" stroke="#CCCCCC" stroke-miterlimit="10" x1="20.5" y1="239.5" x2="500.5" y2="239.5"/>
			<line fill="none" stroke="#CCCCCC" stroke-miterlimit="10" x1="20.5" y1="400.5" x2="500.5" y2="400.5"/>
		</g>
		<g id="outer_1_">
			
				<rect id="zhuyin_1_" x="20.5" y="80.1" fill="none" stroke="#999999" stroke-width="2" stroke-miterlimit="10" width="720" height="480"/>
			
				<rect id="char_1_" x="20.5" y="80.1" fill="none" stroke="#999999" stroke-width="2" stroke-miterlimit="10" width="480" height="480"/>
			<line fill="none" stroke="#999999" stroke-width="2" stroke-miterlimit="10" x1="660.5" y1="560" x2="660.5" y2="80"/>
			<line fill="none" stroke="#999999" stroke-width="2" stroke-miterlimit="10" x1="516.5" y1="560" x2="516.5" y2="80"/>
		</g>
	</g>
</g>
<g id="ruler_4-tone">
	<g id="v5">
		<g>
			<g>
				<line fill="none" stroke="#1197CC" stroke-width="5" stroke-miterlimit="10" x1="700" y1="368" x2="700" y2="393"/>
				<line fill="none" stroke="#1197CC" stroke-width="5" stroke-miterlimit="10" x1="700" y1="423" x2="700" y2="448"/>
				<g>
					<rect x="684.5" y="366" fill="#1197CC" width="32" height="5"/>
				</g>
				<g>
					<rect x="684.5" y="446" fill="#1197CC" width="32" height="5"/>
				</g>
			</g>
		</g>
		<g>
			<path d="M704.7,401.4h-6l-0.6,4c0.4,0,0.7-0.1,1.3-0.1c1.2,0,2.4,0.3,3.4,0.8c1.2,0.7,2.2,2,2.2,4c0,3-2.4,5.3-5.8,5.3
				c-1.7,0-3.1-0.5-3.9-1l0.5-1.6c0.6,0.4,1.9,0.9,3.3,0.9c2,0,3.7-1.3,3.7-3.4c0-2-1.4-3.5-4.5-3.5c-0.9,0-1.6,0.1-2.2,0.2l1-7.5
				h7.5V401.4z"/>
		</g>
	</g>
	<g id="v15">
		<g>
			<path d="M694,218.1L694,218.1l-2.8,1.5l-0.4-1.6l3.4-1.8h1.8v15.6h-2V218.1z"/>
			<path d="M701.5,227.8c0-2,1.2-3.4,3.1-4.2l0-0.1c-1.7-0.8-2.5-2.2-2.5-3.5c0-2.5,2.1-4.2,4.8-4.2c3,0,4.5,1.9,4.5,3.8
				c0,1.3-0.6,2.7-2.6,3.6v0.1c1.9,0.8,3.1,2.1,3.1,4c0,2.7-2.3,4.5-5.3,4.5C703.5,232,701.5,230.1,701.5,227.8z M709.9,227.7
				c0-1.9-1.3-2.8-3.4-3.4c-1.8,0.5-2.8,1.7-2.8,3.2c-0.1,1.6,1.1,3,3.1,3C708.7,230.5,709.9,229.3,709.9,227.7z M704.1,219.9
				c0,1.6,1.2,2.4,3,2.9c1.3-0.5,2.4-1.4,2.4-2.8c0-1.2-0.7-2.5-2.6-2.5C705.1,217.4,704.1,218.5,704.1,219.9z"/>
		</g>
		<g>
			<g>
				<line fill="none" stroke="#1197CC" stroke-width="5" stroke-miterlimit="10" x1="700" y1="80" x2="700" y2="209"/>
				<line fill="none" stroke="#1197CC" stroke-width="5" stroke-miterlimit="10" x1="700" y1="239" x2="700" y2="368"/>
				<g>
					<rect x="684.5" y="77" fill="#1197CC" width="32" height="5"/>
				</g>
			</g>
		</g>
	</g>
	<g>
		<path fill="#1197CC" d="M700.8,468.7c-0.7,0.6-1.5,1.2-2.3,1.7c-0.2,0.1-0.3,0.2-0.4,0.2c-0.1,0-0.2-0.2-0.4-0.5
			c-0.2-0.4-0.4-0.7-0.7-1c-0.2,0.5-0.4,0.9-0.6,1.4c1.3,1.7,1.5,2.7,1.5,4.1c0,1.6-0.7,2.4-2.5,2.7c-0.6,0.1-0.6,0.1-0.7-0.6
			c-0.1-0.6-0.2-0.9-0.4-1.2c1.2,0.1,1.7-0.2,1.7-1.4c0-0.9-0.5-2-1.6-3.5c0.8-1.6,1.1-2.8,1.6-4.3h-1.9v11.4c0,2.8,0,4.2,0,4.3
			c0,0.2,0,0.2-0.2,0.2h-1.6c-0.2,0-0.2,0-0.2-0.2c0-0.1,0-1.5,0-4.3V469c0-2.8,0-4.2,0-4.4c0-0.2,0-0.2,0.2-0.2c0.1,0,0.6,0,1.6,0
			h2.6c0.2,0,0.3,0,0.4-0.1c0.1,0,0.2-0.1,0.3-0.1c0.2,0,0.3,0.1,0.8,0.7c0.4,0.5,0.5,0.6,0.5,0.8c0,0.2-0.1,0.2-0.2,0.3
			c-0.2,0.2-0.3,0.4-0.4,0.6c-0.3,0.8-0.6,1.5-0.8,2.2c2-1.1,3.4-2.3,4.9-4.2c0.2-0.3,0.4-0.6,0.5-1c0.6,0.1,1.3,0.2,1.9,0.4
			c0.2,0.1,0.2,0.1,0.2,0.2c0,0.1,0,0.2-0.2,0.3l-0.2,0.1c1.6,1.8,3.4,3,5.8,3.9c-0.2,0.3-0.5,0.7-0.7,1.2c-0.1,0.4-0.2,0.5-0.4,0.5
			c-0.1,0-0.2-0.1-0.5-0.2c-0.9-0.5-1.8-1-2.6-1.6v0.9c0,0.2,0,0.2-0.2,0.2c-0.1,0-0.4,0-1.6,0h-1.5c-1.1,0-1.5,0-1.6,0
			c-0.2,0-0.2,0-0.2-0.2V468.7z M700.4,477.9c-1.7,0-2.4,0-2.5,0c-0.2,0-0.2,0-0.2-0.2v-1.2c0-0.2,0-0.2,0.2-0.2c0.1,0,0.8,0,2.5,0
			h6.2c1.9,0,2.6,0,2.7,0c0.2,0,0.2,0,0.2,0.2v1.2c0,0.2,0,0.2-0.2,0.2c-0.1,0-0.8,0-2.7,0h-0.3c1.1,1,1.8,1.9,2.6,3.1
			c0.1,0.2,0.1,0.3-0.1,0.4l-1.2,0.7c-0.1,0.1-0.2,0.1-0.2,0.1c-0.1,0-0.1,0-0.1-0.1c-0.2-0.4-0.4-0.7-0.7-1.1
			c-2.4,0.3-5,0.5-7.5,0.7c-0.5,0-0.7,0.1-0.9,0.2c-0.1,0-0.2,0.1-0.3,0.1s-0.2-0.1-0.3-0.3c-0.2-0.5-0.3-1.1-0.4-1.7
			c0.9,0,1.6,0,2.3,0c0.5-0.8,0.8-1.4,1.1-2H700.4z M701.5,475.3c-1.8,0-2.4,0-2.5,0c-0.2,0-0.2,0-0.2-0.2v-1.2c0-0.2,0-0.2,0.2-0.2
			c0.1,0,0.7,0,2.5,0h2.1c0.4-0.5,0.7-0.9,1.1-1.5h-3c-1.6,0-2.2,0-2.3,0c-0.2,0-0.2,0-0.2-0.2v-1.2c0-0.2,0-0.2,0.2-0.2
			c0.1,0,0.7,0,2.3,0h4c0.2,0,0.3,0,0.3-0.1s0.1-0.1,0.2-0.1c0.2,0,0.3,0.1,0.8,0.5c0.5,0.4,0.5,0.6,0.5,0.7s-0.1,0.2-0.2,0.3
			c-0.2,0.1-0.3,0.2-0.6,0.6c-0.3,0.4-0.6,0.8-0.8,1.1c1.7,0,2.3,0,2.4,0c0.2,0,0.2,0,0.2,0.2v1.2c0,0.2,0,0.2-0.2,0.2
			c-0.1,0-0.7,0-2.5,0H701.5z M704.1,468.2c0.7,0,1.1,0,1.3,0c-0.8-0.6-1.5-1.3-2.2-2.1c-0.6,0.8-1.2,1.5-1.9,2.1c0.2,0,0.6,0,1.3,0
			H704.1z M702.6,477.9c-0.3,0.7-0.6,1.3-1,1.9c1.3-0.1,2.6-0.1,3.8-0.3l-0.7-0.8c-0.1-0.2-0.1-0.2,0.1-0.4l1-0.5H702.6z"/>
		<path fill="#1197CC" d="M696.5,484.5c0.2,0,0.3,0,0.4-0.1c0.1,0,0.2-0.1,0.3-0.1c0.2,0,0.3,0,0.8,0.6c0.4,0.5,0.5,0.6,0.5,0.8
			c0,0.2-0.1,0.2-0.2,0.4c-0.2,0.2-0.3,0.4-0.4,0.6c-0.5,1.4-0.8,2.1-1.5,3.5c1.2,1.2,1.5,2.8,1.5,4c0,1.5-0.7,2.4-2.4,2.7
			c-0.6,0.1-0.6,0.1-0.7-0.6c-0.1-0.6-0.2-0.9-0.4-1.2c1.2,0.1,1.6-0.3,1.6-1.4c0-0.9-0.4-2-1.6-3.4c0.8-1.6,1.1-2.5,1.6-4h-1.9
			v11.4c0,2.8,0,4.2,0,4.3c0,0.2,0,0.2-0.2,0.2h-1.6c-0.2,0-0.2,0-0.2-0.2c0-0.1,0-1.5,0-4.3V489c0-2.8,0-4.2,0-4.4
			c0-0.2,0-0.2,0.2-0.2c0.1,0,0.6,0,1.6,0H696.5z M703.6,496c-1.1,1.9-2.5,3.2-4.3,4.3c-0.2,0.1-0.3,0.2-0.4,0.2
			c-0.1,0-0.2-0.1-0.5-0.4c-0.2-0.2-0.7-0.5-1-0.6c1.9-0.9,3.3-2,4.3-3.5h-1.1c-0.7,0.8-1.5,1.4-2.3,2c-0.2,0.1-0.4,0.2-0.5,0.2
			c-0.1,0-0.3-0.1-0.5-0.4s-0.7-0.6-1-0.7c1.4-0.7,2.5-1.6,3.5-2.9c0.2-0.3,0.3-0.6,0.5-0.9c-1.3,0-1.7,0-1.8,0
			c-0.2,0-0.2,0-0.2-0.2v-1.3c0-0.2,0-0.2,0.2-0.2c0.1,0,0.8,0,2.7,0h5.6c1.9,0,2.6,0,2.7,0c0.2,0,0.2,0,0.2,0.2v1.3
			c0,0.2,0,0.2-0.2,0.2c-0.1,0-0.8,0-2.7,0h-5.4l0.6,0.2c0.3,0.1,0.3,0.2,0.3,0.3c0,0.1,0,0.2-0.1,0.2c-0.1,0.1-0.2,0.2-0.3,0.3h4.7
			c1.6,0,2.2,0,2.3,0c0.2,0,0.3,0,0.3,0.2c-0.1,0.6-0.1,1.3-0.1,1.9c-0.1,1.9-0.3,3.1-0.5,4c-0.3,1.1-0.9,1.5-2.1,1.5
			c-0.4,0-0.6,0-0.9,0c-0.5,0-0.5,0-0.6-0.7c-0.1-0.5-0.3-1-0.5-1.3c0.7,0.1,0.9,0.1,1.4,0.1c0.5,0,0.7-0.2,0.9-0.6
			c0.2-0.5,0.3-1.3,0.4-3.4h-0.6c-1,2.5-2.3,4.4-4.7,5.8c-0.2,0.1-0.4,0.2-0.5,0.2c-0.1,0-0.2-0.1-0.5-0.4c-0.2-0.2-0.7-0.5-0.9-0.7
			c2.2-1.1,3.7-2.7,4.7-5H703.6z M705.4,484.6c1.6,0,2.2,0,2.3,0c0.2,0,0.2,0,0.2,0.2c0,0.1,0,0.6,0,1.7v2.4c0,1.1,0,1.6,0,1.7
			c0,0.2,0,0.2-0.2,0.2c-0.1,0-0.7,0-2.3,0h-3.5c-1.6,0-2.2,0-2.3,0c-0.2,0-0.2,0-0.2-0.2c0-0.1,0-0.6,0-1.7v-2.4c0-1.1,0-1.6,0-1.7
			c0-0.2,0-0.2,0.2-0.2c0.1,0,0.7,0,2.3,0H705.4z M701.2,487h4.8v-0.9h-4.8V487z M706,488.4h-4.8v0.9h4.8V488.4z"/>
		<path fill="#1197CC" d="M694.5,521.1c-1.8,0-2.4,0-2.5,0c-0.2,0-0.2,0-0.2-0.2v-1.8c0-0.2,0-0.2,0.2-0.2c0.1,0,0.7,0,2.5,0h4.2
			v-11.3c0-1.6,0-2.4-0.2-3.3c0.8,0,1.7,0.1,2.3,0.1c0.2,0,0.4,0.1,0.4,0.3c0,0.2-0.1,0.3-0.1,0.5c-0.1,0.2-0.1,0.7-0.1,1.9v3.2h3.9
			c1.7,0,2.3,0,2.5,0c0.2,0,0.2,0,0.2,0.2v1.8c0,0.2,0,0.2-0.2,0.2c-0.1,0-0.7,0-2.5,0H701v6.5h5.5c1.8,0,2.4,0,2.5,0
			c0.2,0,0.2,0,0.2,0.2v1.8c0,0.2,0,0.2-0.2,0.2c-0.1,0-0.7,0-2.5,0H694.5z"/>
		<path fill="#1197CC" d="M704.1,535.4c0.2-0.1,0.3-0.1,0.4,0c1.5,1.6,2.9,3.3,3.9,5.2c0.1,0.2,0.1,0.2-0.2,0.4l-1.3,0.8
			c-0.1,0.1-0.2,0.1-0.3,0.1c-0.1,0-0.1,0-0.2-0.1c-0.3-0.6-0.6-1.2-1-1.7c-3.3,0.6-7.1,1-10.7,1.3c-0.7,0.1-1,0.1-1.2,0.2
			c-0.1,0.1-0.2,0.1-0.3,0.1c-0.1,0-0.3-0.1-0.3-0.3c-0.2-0.6-0.3-1.3-0.4-2c0.9,0,1.5,0,2.1,0l0.8,0c1-1.7,1.8-3.3,2.5-5.1h-3.6
			c-1.8,0-2.4,0-2.5,0c-0.2,0-0.2,0-0.2-0.2v-1.5c0-0.2,0-0.2,0.2-0.2c0.1,0,0.7,0,2.5,0h4.8v-2.9h-2.8c-2,0-2.6,0-2.8,0
			c-0.2,0-0.2,0-0.2-0.2v-1.5c0-0.2,0-0.2,0.2-0.2c0.1,0,0.8,0,2.8,0h2.8v-0.9c0-1.3,0-1.8-0.2-2.5c0.8,0,1.5,0,2.2,0.1
			c0.2,0,0.3,0.1,0.3,0.2c0,0.2,0,0.3-0.1,0.4c-0.1,0.2-0.1,0.7-0.1,1.6v1h3.1c2,0,2.6,0,2.8,0c0.2,0,0.2,0,0.2,0.2v1.5
			c0,0.2,0,0.2-0.2,0.2c-0.1,0-0.8,0-2.8,0h-3.1v2.9h5.1c1.8,0,2.4,0,2.5,0c0.2,0,0.2,0,0.2,0.2v1.5c0,0.2,0,0.2-0.2,0.2
			c-0.1,0-0.7,0-2.5,0h-6.2c-0.7,1.8-1.5,3.4-2.4,4.9c2.3-0.2,4.6-0.5,6.5-0.7c-0.5-0.7-1.1-1.3-1.7-2c-0.2-0.2-0.1-0.2,0.1-0.3
			L704.1,535.4z"/>
	</g>
</g>
<g id="ruler_symbol">
	<g id="v9_1_">
		<g>
			<g>
				<line fill="none" stroke="#66CC66" stroke-width="5" stroke-miterlimit="10" x1="587" y1="401" x2="587" y2="458"/>
				<line fill="none" stroke="#66CC66" stroke-width="5" stroke-miterlimit="10" x1="587" y1="488" x2="587" y2="545"/>
				<g>
					<rect x="571.5" y="399" fill="#66CC66" width="32" height="5"/>
				</g>
				<g>
					<rect x="571.5" y="543" fill="#66CC66" width="32" height="5"/>
				</g>
			</g>
		</g>
		<g>
			<path d="M583.6,478.8c0.5,0,1,0,1.7-0.1c1.2-0.2,2.4-0.7,3.3-1.5c1-0.9,1.8-2.3,2.1-4.2h-0.1c-0.9,1.1-2.1,1.7-3.7,1.7
				c-2.8,0-4.6-2.1-4.6-4.8c0-3,2.1-5.5,5.3-5.5s5.2,2.6,5.2,6.6c0,3.4-1.2,5.8-2.7,7.3c-1.2,1.2-2.9,1.9-4.5,2.1
				c-0.8,0.1-1.4,0.1-1.9,0.1V478.8z M584.4,469.8c0,1.9,1.2,3.3,3,3.3c1.4,0,2.5-0.7,3.1-1.6c0.1-0.2,0.2-0.4,0.2-0.8
				c0-2.7-1-4.7-3.2-4.7C585.7,466,584.4,467.6,584.4,469.8z"/>
		</g>
	</g>
	<g id="v9_4_">
		<g>
			<g>
				<line fill="none" stroke="#66CC66" stroke-width="5" stroke-miterlimit="10" x1="587" y1="257" x2="587" y2="314"/>
				<line fill="none" stroke="#66CC66" stroke-width="5" stroke-miterlimit="10" x1="587" y1="344" x2="587" y2="401"/>
				<g>
					<rect x="571.5" y="255" fill="#66CC66" width="32" height="5"/>
				</g>
				<g>
					<rect x="571.5" y="399" fill="#66CC66" width="32" height="5"/>
				</g>
			</g>
		</g>
		<g>
			<path d="M583.6,334.8c0.5,0,1,0,1.7-0.1c1.2-0.2,2.4-0.7,3.3-1.5c1-0.9,1.8-2.3,2.1-4.2h-0.1c-0.9,1.1-2.1,1.7-3.7,1.7
				c-2.8,0-4.6-2.1-4.6-4.8c0-3,2.1-5.5,5.3-5.5s5.2,2.6,5.2,6.6c0,3.4-1.2,5.8-2.7,7.3c-1.2,1.2-2.9,1.9-4.5,2.1
				c-0.8,0.1-1.4,0.1-1.9,0.1V334.8z M584.4,325.8c0,1.9,1.2,3.3,3,3.3c1.4,0,2.5-0.7,3.1-1.6c0.1-0.2,0.2-0.4,0.2-0.8
				c0-2.7-1-4.7-3.2-4.7C585.7,322,584.4,323.6,584.4,325.8z"/>
		</g>
	</g>
	<g id="v9_5_">
		<g>
			<g>
				<line fill="none" stroke="#66CC66" stroke-width="5" stroke-miterlimit="10" x1="587" y1="113" x2="587" y2="170"/>
				<line fill="none" stroke="#66CC66" stroke-width="5" stroke-miterlimit="10" x1="587" y1="200" x2="587" y2="257"/>
				<g>
					<rect x="571.5" y="111" fill="#66CC66" width="32" height="5"/>
				</g>
				<g>
					<rect x="571.5" y="255" fill="#66CC66" width="32" height="5"/>
				</g>
			</g>
		</g>
		<g>
			<path d="M583.6,190.8c0.5,0,1,0,1.7-0.1c1.2-0.2,2.4-0.7,3.3-1.5c1-0.9,1.8-2.3,2.1-4.2h-0.1c-0.9,1.1-2.1,1.7-3.7,1.7
				c-2.8,0-4.6-2.1-4.6-4.8c0-3,2.1-5.5,5.3-5.5s5.2,2.6,5.2,6.6c0,3.4-1.2,5.8-2.7,7.3c-1.2,1.2-2.9,1.9-4.5,2.1
				c-0.8,0.1-1.4,0.1-1.9,0.1V190.8z M584.4,181.8c0,1.9,1.2,3.3,3,3.3c1.4,0,2.5-0.7,3.1-1.6c0.1-0.2,0.2-0.4,0.2-0.8
				c0-2.7-1-4.7-3.2-4.7C585.7,178,584.4,179.6,584.4,181.8z"/>
		</g>
	</g>
	<g id="v2">
		<g>
			<g>
				<line fill="none" stroke="#66CC66" stroke-width="5" stroke-miterlimit="10" x1="587" y1="80" x2="587" y2="111"/>
				<g>
					<rect x="571.5" y="78" fill="#66CC66" width="32" height="5"/>
				</g>
			</g>
		</g>
		<g>
			<path d="M567.7,105v-1.4l1.7-1.8c4-4.2,5.8-6.4,5.8-9c0-1.7-0.8-3.4-3.1-3.4c-1.4,0-2.6,0.8-3.3,1.5l-0.7-1.6
				c1.1-1,2.6-1.7,4.4-1.7c3.4,0,4.8,2.5,4.8,5c0,3.2-2.1,5.7-5.4,9.2l-1.2,1.3v0.1h7v1.9H567.7z"/>
		</g>
	</g>
	<g>
		<path fill="#66CC66" d="M549.4,295.1c0.2-0.2,0.2-0.2,0.4-0.1c1,0.5,1.9,1.2,2.8,2c0.1,0.1,0.1,0.1,0.1,0.2c0,0.1,0,0.1-0.1,0.2
			l-0.9,1.3c-0.1,0.1-0.1,0.1-0.2,0.1c0,0-0.1,0-0.2-0.1c-0.9-0.8-1.8-1.6-2.8-2.2c-0.1-0.1-0.1-0.1-0.1-0.1c0-0.1,0-0.1,0.1-0.2
			L549.4,295.1z M549.6,304.8c0.6-1.1,1.3-2.7,2-4.6c0.3,0.3,0.7,0.7,1.1,1c0.3,0.2,0.4,0.3,0.4,0.5c0,0.1,0,0.2-0.1,0.5
			c-0.6,1.6-1.3,3.1-1.9,4.4c-0.2,0.3-0.3,0.6-0.3,0.8c0,0.2-0.1,0.3-0.3,0.3c-0.1,0-0.2,0-0.4-0.1c-0.5-0.3-1-0.6-1.5-1.1
			C549,305.9,549.3,305.5,549.6,304.8z M550.4,290c0.2-0.2,0.2-0.2,0.4-0.1c1,0.6,2,1.3,2.9,2.1c0.1,0.1,0.1,0.1,0.1,0.2
			s0,0.1-0.1,0.2l-0.9,1.2c-0.2,0.2-0.2,0.2-0.3,0.1c-0.9-0.8-2-1.7-2.9-2.3c-0.1-0.1-0.1-0.1-0.1-0.1c0-0.1,0-0.1,0.1-0.2
			L550.4,290z M556.1,307.1c-2,0-2.7,0-2.8,0c-0.2,0-0.2,0-0.2-0.2v-1.5c0-0.2,0-0.2,0.2-0.2c0.1,0,0.8,0,2.8,0h2.5v-4.3h-1.3
			c-1.9,0-2.5,0-2.6,0c-0.2,0-0.2,0-0.2-0.2v-1.5c0-0.2,0-0.2,0.2-0.2c0.1,0,0.8,0,2.6,0h1.3v-3.5h-1.7c-1.9,0-2.6,0-2.7,0
			c-0.2,0-0.2,0-0.2-0.2v-1.5c0-0.2,0-0.2,0.2-0.2c0.1,0,0.8,0,2.7,0h6.1c1.9,0,2.6,0,2.7,0c0.2,0,0.2,0,0.2,0.2v1.5
			c0,0.2,0,0.2-0.2,0.2c-0.1,0-0.8,0-2.7,0h-2.2v3.5h1.7c1.9,0,2.5,0,2.6,0c0.2,0,0.2,0,0.2,0.2v1.5c0,0.2,0,0.2-0.2,0.2
			c-0.1,0-0.7,0-2.6,0h-1.7v4.3h2.8c2,0,2.6,0,2.8,0c0.2,0,0.2,0,0.2,0.2v1.5c0,0.2,0,0.2-0.2,0.2c-0.1,0-0.8,0-2.8,0H556.1z
			 M558.1,289.7c0.2-0.2,0.2-0.2,0.4-0.1c1,0.4,2.4,1.3,3.4,2.1c0.1,0.1,0.1,0.1,0.1,0.2s0,0.1-0.2,0.2l-1,1.2
			c-0.2,0.2-0.2,0.2-0.4,0.1c-0.9-0.9-2.3-1.7-3.4-2.2c-0.2-0.1-0.2-0.1,0-0.3L558.1,289.7z"/>
		<path fill="#66CC66" d="M551.2,317.8c-1.8,0-2.4,0-2.5,0c-0.2,0-0.2,0-0.2-0.2v-1.4c0-0.2,0-0.2,0.2-0.2c0.1,0,0.7,0,2.5,0h2.2
			c-0.2-0.8-0.4-1.3-0.8-2c-0.1-0.2,0-0.2,0.2-0.3l1.4-0.4c0.2-0.1,0.3,0,0.4,0.2c0.4,0.7,0.6,1.4,1,2.4h3.4
			c0.3-0.7,0.5-1.1,0.7-1.7c0.1-0.3,0.2-0.6,0.2-1c0.7,0.1,1.3,0.3,1.9,0.5c0.2,0.1,0.3,0.1,0.3,0.2s-0.1,0.2-0.2,0.3
			c-0.1,0.1-0.2,0.3-0.3,0.5l-0.5,1.2h2.7c1.8,0,2.4,0,2.5,0c0.2,0,0.2,0,0.2,0.2v1.4c0,0.2,0,0.2-0.2,0.2c-0.1,0-0.7,0-2.5,0H551.2
			z M552.6,313.2c-1.9,0-2.6,0-2.7,0c-0.2,0-0.2,0-0.2-0.2v-1.4c0-0.2,0-0.2,0.2-0.2c0.1,0,0.8,0,2.7,0h3.7v0c0-0.8,0-1.3-0.1-1.8
			c0.7,0,1.4,0,2.2,0.1c0.2,0,0.3,0.1,0.3,0.2c0,0.1-0.1,0.2-0.1,0.4c-0.1,0.2-0.1,0.4-0.1,1.1v0h3.9c1.9,0,2.6,0,2.7,0
			c0.2,0,0.2,0,0.2,0.2v1.4c0,0.2,0,0.2-0.2,0.2c-0.1,0-0.7,0-2.6,0H552.6z M551.7,327.9c-0.2,0-0.2,0-0.2-0.2c0-0.1,0-0.7,0-3.8
			v-1.9c0-2,0-2.5,0-2.7c0-0.2,0-0.2,0.2-0.2c0.1,0,0.8,0,2.7,0h6.1c1.9,0,2.6,0,2.7,0c0.2,0,0.2,0,0.2,0.2c0,0.1,0,0.7,0,2.4v2.2
			c0,3.1,0,3.7,0,3.8c0,0.2,0,0.2-0.2,0.2h-1.6c-0.2,0-0.2,0-0.2-0.2v-0.7h-7.8v0.8c0,0.2,0,0.2-0.2,0.2H551.7z M553.6,322.1h7.8
			v-1.3h-7.8V322.1z M561.4,325.2v-1.5h-7.8v1.5H561.4z"/>
		<path fill="#66CC66" d="M551.2,342.8c0-0.7,0-1.5,0-2.3c-0.5,0.5-0.9,1-1.4,1.4c-0.2,0.2-0.3,0.3-0.4,0.3c-0.1,0-0.2-0.1-0.4-0.5
			c-0.3-0.5-0.5-0.9-0.8-1.3c1.8-1.3,2.9-2.7,3.8-4.2c0.3-0.5,0.6-1.1,0.7-1.5c0.3,0.1,0.6,0.2,0.8,0.3c-0.2-0.7-0.5-1.4-0.8-2h-1.1
			c-0.5,0.7-1.1,1.4-1.7,2.1c-0.2,0.2-0.3,0.3-0.4,0.3c-0.1,0-0.2-0.1-0.4-0.4c-0.3-0.4-0.6-0.7-1-0.9c1.2-1,2.1-2.3,2.7-3.5
			c0.2-0.4,0.3-0.7,0.4-1.2c0.7,0.1,1.3,0.2,1.9,0.4c0.2,0,0.3,0.1,0.3,0.3c0,0.1-0.1,0.2-0.2,0.3c-0.1,0.1-0.2,0.2-0.3,0.5
			l-0.2,0.5h2c1.7,0,2.2,0,2.4,0c0.2,0,0.2,0,0.2,0.2v1.3c0,0.2,0,0.2-0.2,0.2c-0.1,0-0.7,0-2.2,0c0.3,0.5,0.5,1,0.8,1.5
			c0.1,0.2,0.1,0.3-0.2,0.3l-1.5,0.3l0.5,0.3c0.2,0.1,0.3,0.2,0.3,0.3c0,0.1,0,0.2-0.2,0.3c-0.1,0.1-0.3,0.3-0.5,0.7
			c-0.2,0.4-0.5,0.8-0.8,1.2v7.3c0,1.5,0,2.3,0,2.4c0,0.2,0,0.2-0.2,0.2h-1.6c-0.2,0-0.2,0-0.2-0.2c0-0.1,0-0.8,0-2.4V342.8z
			 M557.1,339.3c-1.9,0-2.6,0-2.7,0c-0.2,0-0.2,0-0.2-0.2v-1.5c0-0.2,0-0.2,0.2-0.2c0.1,0,0.8,0,2.7,0h4.4c0-0.9,0-1.5-0.2-2.3
			c0.8,0,1.4,0.1,2.1,0.2c0.2,0,0.3,0.1,0.3,0.2c0,0.2-0.1,0.3-0.1,0.4c-0.1,0.2-0.1,0.6-0.1,1.5c1.9,0,2.6,0,2.7,0
			c0.2,0,0.2,0,0.2,0.2v1.5c0,0.2,0,0.2-0.2,0.2c-0.1,0-0.8,0-2.7,0v2.5c0,1.4,0.1,2.4,0.1,3.6c0,0.9-0.1,1.5-0.7,1.9
			c-0.6,0.3-1.3,0.5-3,0.5c-0.6,0-0.6,0-0.8-0.6c-0.1-0.6-0.4-1.2-0.6-1.6c0.8,0.1,1.3,0.1,2,0.1c0.9,0,1-0.1,1-0.6v-5.7H557.1z
			 M556.5,340.2c0.1-0.1,0.2-0.1,0.2-0.1c0.1,0,0.1,0,0.2,0.1c0.9,0.9,1.6,1.7,2.4,2.9c0.1,0.2,0.1,0.2-0.1,0.4l-1.1,0.8
			c-0.1,0.1-0.2,0.1-0.3,0.1c-0.1,0-0.1,0-0.2-0.1c-0.7-1.1-1.4-2.1-2.3-3c-0.2-0.2-0.1-0.2,0.1-0.4L556.5,340.2z M559.7,333.1
			c-0.4,0.7-0.8,1.3-1.4,1.9c-0.2,0.2-0.3,0.3-0.4,0.3c-0.1,0-0.2-0.1-0.4-0.4c-0.3-0.4-0.7-0.7-1-0.9c1.1-1.1,1.9-2.3,2.4-3.5
			c0.1-0.3,0.2-0.7,0.3-1.1c0.6,0.1,1.4,0.2,1.8,0.3c0.2,0.1,0.3,0.1,0.3,0.3c0,0.1-0.1,0.2-0.2,0.3c-0.1,0.1-0.2,0.2-0.3,0.6
			c-0.1,0.1-0.1,0.3-0.2,0.4h2.9c1.9,0,2.5,0,2.7,0c0.2,0,0.2,0,0.2,0.2v1.3c0,0.2,0,0.2-0.2,0.2c-0.1,0-0.8,0-2.7,0H563
			c0.3,0.4,0.5,0.8,0.7,1.3c0.1,0.2,0,0.3-0.2,0.3l-1.3,0.2c-0.3,0-0.3,0.1-0.4-0.2c-0.2-0.6-0.5-1.1-0.8-1.7H559.7z"/>
		<path fill="#66CC66" d="M552.1,359.1c-0.1,0.5-0.3,1-0.4,1.6h1.6c0.7,0,1.2,0,1.4,0c0.2,0,0.2,0,0.2,0.3c-0.1,0.4-0.1,0.9-0.1,1.3
			c-0.2,2.5-0.4,3.8-0.8,4.7c-0.3,0.6-0.8,0.9-1.8,0.9c-0.3,0-0.6,0-0.9,0c-0.5,0-0.5-0.1-0.6-0.6c-0.1-0.6-0.2-1.1-0.4-1.4
			c0.6,0.1,1,0.2,1.4,0.2c0.4,0,0.6-0.1,0.8-0.4c0.3-0.6,0.4-1.6,0.4-3.1h-1.8c-0.1,0.3-0.2,0.5-0.3,0.7c-0.1,0.2-0.1,0.2-0.4,0.2
			l-1.3-0.2c-0.2,0-0.3-0.1-0.2-0.3c0.5-1.2,0.9-2.5,1.2-3.7c-1.1,0-1.5,0-1.6,0c-0.2,0-0.2,0-0.2-0.2v-1.4c0-0.2,0-0.2,0.2-0.2
			c0.1,0,0.6,0,2.1,0h2.6c1.5,0,2,0,2.1,0c0.2,0,0.2,0,0.2,0.2v1.4c0,0.2,0,0.2-0.2,0.2c-0.1,0-0.6,0-2.1,0H552.1z M552.9,350.4
			c1.3,0,1.7,0,1.8,0c0.2,0,0.2,0,0.2,0.2c0,0.1,0,0.6,0,1.6v2c0,1.1,0,1.5,0,1.6c0,0.2,0,0.2-0.2,0.2c-0.1,0-0.5,0-1.8,0h-1.8
			c-1.2,0-1.6,0-1.8,0c-0.2,0-0.2,0-0.2-0.2c0-0.1,0-0.5,0-1.6v-2c0-1,0-1.5,0-1.6c0-0.2,0-0.2,0.2-0.2c0.1,0,0.5,0,1.8,0H552.9z
			 M553.1,352H551v2.2h2.2V352z M559.7,358.4c-1.1,0.1-1.5,0.1-1.7,0.2c0,1.4-0.1,2.6-0.2,3.9c-0.2,1.7-0.7,3.4-1.6,4.9
			c-0.1,0.2-0.2,0.3-0.4,0.3c-0.1,0-0.2-0.1-0.4-0.3c-0.4-0.4-0.7-0.7-1.1-0.9c1.1-1.3,1.5-2.8,1.7-4.5c0.2-1.4,0.2-3.1,0.2-5.3
			c0-1.9,0-2.8,0-2.9c0-0.2,0-0.2,0.2-0.2c0.1,0,0.9,0,2.5,0h0.8v-2.3c0-0.6,0-1.1-0.1-1.6c0.8,0,1.2,0.1,2,0.1
			c0.2,0,0.3,0.1,0.3,0.2c0,0.1-0.1,0.2-0.1,0.3c-0.1,0.1-0.1,0.3-0.1,0.7h1.7c1.3,0,1.7,0,1.8,0c0.2,0,0.2,0,0.2,0.2v1.2
			c0,0.2,0,0.2-0.2,0.2c-0.1,0-0.5,0-1.8,0h-1.7v1h3c0.2,0,0.3,0,0.4-0.1c0.1,0,0.2-0.1,0.3-0.1c0.2,0,0.3,0.1,0.8,0.4
			c0.5,0.3,0.6,0.5,0.6,0.6c0,0.2-0.1,0.3-0.2,0.4c-0.1,0.1-0.1,0.2-0.3,0.5c-0.2,0.4-0.4,1-0.9,1.7c-0.1,0.2-0.2,0.3-0.3,0.3
			c-0.1,0-0.2-0.1-0.4-0.2c-0.4-0.2-0.7-0.3-1-0.4l0.1,1.3c0,0.2-0.1,0.2-0.2,0.2c-0.2,0-0.5,0-1.7,0.1l-0.6,0.1v0.2
			c0,0.4,0.1,0.5,0.2,0.6c0.2,0.1,0.6,0.1,1.2,0.1c0.8,0,1.1,0,1.3-0.2c0.2-0.2,0.3-0.5,0.4-1.3c0.3,0.2,0.8,0.4,1.2,0.5
			c0.5,0.1,0.5,0.1,0.4,0.6c-0.1,0.8-0.3,1.2-0.7,1.5c-0.4,0.3-1.2,0.5-2.6,0.5c-1.2,0-2.1-0.1-2.5-0.3c-0.4-0.2-0.6-0.6-0.6-1.5
			V358.4z M559.2,362.9c0-0.5,0-1-0.1-1.6c0.6,0,1.3,0.1,1.8,0.2c0.2,0,0.3,0.1,0.3,0.3c0,0.1-0.1,0.3-0.1,0.4
			c-0.1,0.2-0.1,0.6-0.1,1c-0.1,2.2-0.8,3.6-2.6,4.6c-0.2,0.1-0.3,0.2-0.4,0.2c-0.1,0-0.2-0.1-0.4-0.3c-0.3-0.5-0.7-0.8-1-1
			C558.5,365.7,559.1,364.9,559.2,362.9z M559.7,356.7c0-0.5,0-1-0.1-1.3c0.5,0,1.3,0.1,1.7,0.1c0.2,0,0.3,0.1,0.3,0.2
			c0,0.1,0,0.1-0.1,0.2c-0.1,0.1-0.1,0.3-0.1,0.8v0l0.5-0.1c1.1-0.1,1.5-0.2,1.8-0.2c0.4-0.5,0.6-1,0.8-1.4H558v2l1.7-0.2V356.7z
			 M563.9,365.3c0,0.4,0,0.5,0.1,0.6c0.1,0.1,0.2,0.1,0.4,0.1s0.4-0.1,0.6-0.3c0.2-0.3,0.2-0.7,0.2-2c0.3,0.2,0.8,0.3,1.2,0.5
			c0.4,0.1,0.4,0.2,0.4,0.6c-0.1,1.4-0.3,1.9-0.5,2.3c-0.3,0.4-0.7,0.6-2,0.6c-0.9,0-1.4,0-1.8-0.3c-0.3-0.2-0.5-0.6-0.5-1.4v-2.4
			c0-0.9,0-1.5-0.1-2.2c0.5,0,1.4,0.1,1.8,0.1c0.2,0,0.3,0.1,0.3,0.2c0,0.2-0.1,0.2-0.1,0.4c-0.1,0.2-0.1,0.4-0.1,1.1V365.3z"/>
	</g>
	<g>
	</g>
	<g>
	</g>
	<g>
	</g>
	<g>
	</g>
	<g>
	</g>
	<g>
	</g>
	<g>
	</g>
	<g>
	</g>
	<g>
	</g>
	<g>
	</g>
	<g>
	</g>
	<g>
	</g>
	<g>
	</g>
	<g>
	</g>
	<g>
	</g>
	<g>
	</g>
</g>
</svg>
